<?xml version="1.0" standalone="no"?>
<!DOCTYPE svg PUBLIC "-//W3C//DTD SVG 1.1//EN" "http://www.w3.org/Graphics/SVG/1.1/DTD/svg11.dtd" >
<svg xmlns="http://www.w3.org/2000/svg" xmlns:xlink="http://www.w3.org/1999/xlink" version="1.1">
<metadata>
Created by FontForge 20170731 at Sun Mar 22 17:41:25 2020
 By Aleksey,,,
Copyright 2017 The Exo Project Authors (https://github.com/NDISCOVER/Exo-1.0)
</metadata>
<defs>
<font id="Exo-Light" horiz-adv-x="577" >
  <font-face 
    font-family="Exo Light"
    font-weight="300"
    font-stretch="normal"
    units-per-em="1000"
    panose-1="0 0 0 0 0 0 0 0 0 0"
    ascent="800"
    descent="-200"
    x-height="533"
    cap-height="734"
    bbox="-502 -270 1329 1096"
    underline-thickness="50"
    underline-position="-175"
    unicode-range="U+000D-FB05"
  />
<missing-glyph horiz-adv-x="653" 
d="M58 535h537v-537h-537v537zM465 99l-138 138l-138 -138l-29 29l138 138l-138 138l29 29l138 -138l138 138l29 -29l-138 -138l138 -138zM559 34v465h-465v-465h465z" />
    <glyph glyph-name="f_f" unicode="ff" horiz-adv-x="760" 
d="M107 0v484h-84v38l84 11v75q0 52 12.5 88t43 54.5t85.5 18.5q37 0 61.5 -4t44.5 -10v-41q-21 3 -45 4.5t-46 1.5q-41 0 -62 -13.5t-28.5 -40t-7.5 -64.5v-69h353v-49h-353v-484h-58zM488 0v484h-84v38l84 11v69q0 53 13 90t44 57t89 20q35 0 57.5 -3t42.5 -5v-41h-91
q-41 0 -61.5 -13t-28 -39t-7.5 -64v-71h174v-49h-174v-484h-58z" />
    <glyph glyph-name="fi" unicode="fi" horiz-adv-x="601" 
d="M107 0v484h-84v38l84 11v75q0 52 12.5 88t43 54.5t85.5 18.5q37 0 61.5 -4t44.5 -10v-41q-21 3 -45 4.5t-46 1.5q-41 0 -62 -13.5t-28.5 -40t-7.5 -64.5v-69h325v-49h-325v-484h-58zM461 0v533h58v-533h-58zM471 633q-14 0 -14 15v71q0 15 14 15h40q7 0 10 -4t3 -11v-71
q0 -15 -13 -15h-40z" />
    <glyph glyph-name="fl" unicode="fl" horiz-adv-x="667" 
d="M107 0v484h-84v38l84 11v71q0 54 15.5 90.5t55 55.5t108.5 19q49 0 90.5 -3.5t77 -8t65.5 -7.5v-39q-33 2 -72.5 4.5t-78.5 3.5t-75 1q-53 0 -81 -13.5t-37.5 -40t-9.5 -64.5v-69h174v-49h-174v-484h-58zM593 0q-42 0 -71.5 15.5t-45 53t-15.5 102.5v572h58v-566
q0 -53 10 -79.5t28 -36.5t43 -13l58 -7v-41h-65z" />
    <glyph glyph-name="f_f_i" unicode="ffi" horiz-adv-x="981" 
d="M107 0v484h-84v38l84 11v75q0 52 12.5 88t43 54.5t85.5 18.5q37 0 61.5 -4t44.5 -10v-41q-21 3 -45 4.5t-46 1.5q-41 0 -62 -13.5t-28.5 -40t-7.5 -64.5v-69h349v-49h-349v-484h-58zM841 0v533h58v-533h-58zM851 633q-14 0 -14 15v71q0 15 14 15h39q7 0 10.5 -4t3.5 -11
v-71q0 -15 -14 -15h-39zM486 0v484h-84v38l84 11v75q0 52 12.5 88t43.5 54.5t86 18.5q37 0 61.5 -4t44.5 -10v-41q-22 3 -45.5 4.5t-45.5 1.5q-41 0 -62.5 -13.5t-29 -40t-7.5 -64.5v-69h325v-49h-325v-484h-58z" />
    <glyph glyph-name="f_f_l" unicode="ffl" horiz-adv-x="1047" 
d="M107 0v484h-84v38l84 11v75q0 52 12.5 88t43 54.5t85.5 18.5q37 0 61.5 -4t44.5 -10v-41q-21 3 -45 4.5t-46 1.5q-41 0 -62 -13.5t-28.5 -40t-7.5 -64.5v-69h351v-49h-351v-484h-58zM486 0v484h-84v38l84 11v71q0 54 16 90.5t55.5 55.5t108.5 19q48 0 90 -3.5t77.5 -8
t65.5 -7.5v-39q-33 2 -72.5 4.5t-79 3.5t-74.5 1q-53 0 -81 -13.5t-38 -40t-10 -64.5v-69h174v-49h-174v-484h-58zM973 0q-42 0 -71.5 15.5t-45 53t-15.5 102.5v572h58v-566q0 -53 10 -79.5t28 -36.5t43 -13l58 -7v-41h-65z" />
    <glyph glyph-name=".notdef" horiz-adv-x="653" 
d="M58 535h537v-537h-537v537zM465 99l-138 138l-138 -138l-29 29l138 138l-138 138l29 29l138 -138l138 138l29 -29l-138 -138l138 -138zM559 34v465h-465v-465h465z" />
    <glyph glyph-name=".null" horiz-adv-x="0" 
 />
    <glyph glyph-name="nonmarkingreturn" horiz-adv-x="333" 
 />
    <glyph glyph-name="CR" unicode="&#xd;" horiz-adv-x="274" 
 />
    <glyph glyph-name="space" unicode=" " horiz-adv-x="274" 
 />
    <glyph glyph-name="exclam" unicode="!" horiz-adv-x="263" 
d="M109 198l-8 535h58l-9 -535h-41zM114 0q-14 0 -14 14v73q0 14 14 14h31q15 0 15 -14v-73q0 -8 -4 -11t-11 -3h-31z" />
    <glyph glyph-name="quotedbl" unicode="&#x22;" horiz-adv-x="250" 
d="M49 510l-8 167v67h57v-67l-6 -167h-43zM157 510l-8 167v67h57v-67l-6 -167h-43z" />
    <glyph glyph-name="numbersign" unicode="#" horiz-adv-x="673" 
d="M156 0l39 237h-170l5 36h172l29 182h-173l6 36h174l40 241h36l-40 -241h166l39 241h36l-39 -241h176l-6 -36h-176l-29 -182h176l-5 -36h-179l-38 -237h-36l38 237h-166l-39 -237h-36zM238 273h167l29 182h-167z" />
    <glyph glyph-name="dollar" unicode="$" horiz-adv-x="609" 
d="M287 729l-14 22l22 73l14 -21zM273 -88v93l36 -1v-92h-36zM286 -6q-21 0 -50.5 1t-62 3.5t-61 5t-46.5 6.5v44q23 -2 58.5 -4t77 -3t82.5 -1q47 0 86 9.5t62 36t23 77.5v56q0 56 -28 86t-92 30h-85q-86 0 -135.5 37.5t-49.5 132.5v43q0 103 54 144.5t151 41.5
q30 0 69.5 -3t77.5 -7t61 -8v-44q-43 3 -98 6.5t-105 3.5q-48 0 -82.5 -11.5t-53 -41t-18.5 -83.5v-39q0 -67 34.5 -91.5t95.5 -24.5h89q59 0 97 -21.5t56 -59t18 -85.5v-61q0 -71 -31 -109t-82 -52.5t-112 -14.5z" />
    <glyph glyph-name="percent" unicode="%" horiz-adv-x="957" 
d="M232 0l441 732h42l-440 -732h-43zM179 349q-73 0 -101 31.5t-28 95.5v129q0 64 27.5 95.5t103.5 31.5h101q74 0 101.5 -31.5t27.5 -95.5v-129q0 -64 -27.5 -95.5t-103.5 -31.5h-101zM184 387h91q52 0 75.5 19t23.5 76v117q0 52 -20.5 73.5t-76.5 21.5h-91q-50 0 -74 -18
t-24 -77v-117q0 -54 22.5 -74.5t73.5 -20.5zM675 3q-73 0 -101 31.5t-28 95.5v129q0 64 27.5 95.5t103.5 31.5h101q74 0 101.5 -31.5t27.5 -95.5v-129q0 -64 -27.5 -95.5t-103.5 -31.5h-101zM680 41h91q52 0 75.5 19t23.5 76v117q0 52 -20.5 73.5t-76.5 21.5h-91
q-50 0 -74 -18t-24 -77v-117q0 -54 22.5 -74.5t73.5 -20.5z" />
    <glyph glyph-name="ampersand" unicode="&#x26;" horiz-adv-x="665" 
d="M236 -6q-55 0 -99 24t-69.5 67.5t-25.5 102.5q0 51 23 99t73 91l68 57l-20 29q-31 43 -42 78t-11 63q0 48 23 76t61 40t82 12q40 0 69.5 -1.5t52 -3.5t42.5 -5v-41h-154q-51 0 -84.5 -19t-33.5 -66q0 -28 11.5 -55.5t39.5 -65.5l217 -296l151 144l22 -25l-69 -90l-72 -69
l104 -140h-64l-80 106l-32 -29q-49 -46 -91.5 -64.5t-91.5 -18.5zM244 49q35 0 68 13.5t73 51.5l33 33l-183 247l-57 -48q-45 -38 -62.5 -76.5t-17.5 -76.5q0 -66 39.5 -105t106.5 -39z" />
    <glyph glyph-name="quotesingle" unicode="'" horiz-adv-x="142" 
d="M49 510l-8 167v67h57v-67l-6 -167h-43z" />
    <glyph glyph-name="parenleft" unicode="(" horiz-adv-x="335" 
d="M254 -210q-49 81 -86 163.5t-58 174.5t-21 198q0 104 21.5 195.5t59 175.5t84.5 163h56q-47 -82 -83.5 -167t-58 -175.5t-21.5 -191.5t20.5 -190.5t57.5 -174t86 -171.5h-57z" />
    <glyph glyph-name="parenright" unicode=")" horiz-adv-x="334" 
d="M24 -210q51 87 87.5 171.5t56 174t19.5 190.5q0 100 -19 187.5t-55.5 172.5t-88.5 174h56q52 -83 89 -166.5t56.5 -173t19.5 -194.5t-19.5 -195t-56.5 -173.5t-89 -167.5h-56z" />
    <glyph glyph-name="asterisk" unicode="*" horiz-adv-x="459" 
d="M299 526l-27 30l114 82l14 -21zM157 403l-23 8l31 135l39 -8zM202 581l-142 6v25l141 7zM349 418l-123 70l20 34l117 -84zM249 591l-53 132l24 7l66 -123z" />
    <glyph glyph-name="plus" unicode="+" horiz-adv-x="609" 
d="M279 132v448h50v-448h-50zM80 331v50h448v-50h-448z" />
    <glyph glyph-name="comma" unicode="," horiz-adv-x="189" 
d="M85 -75q-7 0 -12.5 1.5l-5.5 1.5v17q11 0 15 3.5t4 12.5v42h-7q-6 0 -10 4t-4 11v68q0 15 14 15h31q8 0 11 -4t3 -11v-118q0 -18 -6 -27.5t-15 -12.5t-18 -3z" />
    <glyph glyph-name="hyphen" unicode="-" horiz-adv-x="341" 
d="M26 265v50h290v-50h-290z" />
    <glyph glyph-name="period" unicode="." horiz-adv-x="189" 
d="M79 0q-14 0 -14 14v73q0 14 14 14h32q14 0 14 -14v-73q0 -8 -4 -11t-10 -3h-32z" />
    <glyph glyph-name="slash" unicode="/" horiz-adv-x="384" 
d="M24 -72l281 842h55l-281 -842h-55z" />
    <glyph glyph-name="zero" unicode="0" horiz-adv-x="658" 
d="M261 -1q-49 0 -90 17t-64.5 54.5t-23.5 98.5v399q0 57 23 95.5t64 57.5t92 19h139q62 0 100 -22t56 -60.5t18 -89.5v-399q0 -90 -48 -130t-126 -40h-140zM271 51h119q68 0 97.5 33t29.5 91v389q0 62 -32 93t-93 31h-122q-59 0 -94 -32.5t-35 -91.5v-389q0 -62 35.5 -93
t94.5 -31z" />
    <glyph glyph-name="one" unicode="1" horiz-adv-x="359" 
d="M206 0v683l-158 -48v37l162 70h54v-742h-58z" />
    <glyph glyph-name="two" unicode="2" horiz-adv-x="595" 
d="M57 0v48l280 266q45 43 71.5 79.5t38 73.5t11.5 83q0 38 -14.5 69t-52.5 49t-108 18h-197v43q45 4 99.5 7.5t110.5 3.5q84 0 131.5 -23.5t68 -65.5t20.5 -96q0 -52 -14 -95.5t-43.5 -85.5t-78.5 -88l-243 -232h407v-54h-487z" />
    <glyph glyph-name="three" unicode="3" horiz-adv-x="587" 
d="M307 -6q-79 0 -146.5 2.5t-115.5 7.5v44h245q44 0 80 10t57.5 37t21.5 78v54q0 43 -21 68t-52.5 36t-63.5 12l-191 7v41l189 7q57 2 93 26t36 80v57q0 59 -39.5 92t-116.5 33h-210v44q42 4 99.5 7.5t131.5 2.5q66 0 108.5 -21.5t63 -60t20.5 -88.5v-65q0 -36 -11.5 -60.5
t-29.5 -40t-37 -23.5t-32 -10q15 -3 36 -13t40.5 -27.5t33 -45t13.5 -64.5v-56q0 -84 -53 -127.5t-149 -43.5z" />
    <glyph glyph-name="four" unicode="4" horiz-adv-x="587" 
d="M396 2v195h-354l-15 36l289 501h60l-282 -487h302v213l14 63h44v-276h108v-39l-108 -11v-195h-58z" />
    <glyph glyph-name="five" unicode="5" horiz-adv-x="638" 
d="M345 -4q-69 0 -136.5 2t-117.5 6v44h254q47 0 84.5 15.5t59 45t21.5 71.5v90q0 56 -34.5 88.5t-102.5 32.5h-85q-50 0 -79.5 -22t-38.5 -70h-55l21 435h409v-52h-358l-14 -300q11 22 42.5 41t82.5 19h90q58 0 98 -21.5t61 -58t21 -83.5v-109q0 -58 -29 -96.5t-79 -58
t-115 -19.5z" />
    <glyph glyph-name="six" unicode="6" horiz-adv-x="628" 
d="M275 -2q-45 0 -81 16.5t-62 57.5t-40 113.5t-14 184.5q0 97 17 166.5t50 115t80 67t107 21.5q40 0 91.5 -3t90.5 -6v-43h-184q-89 0 -141.5 -71.5t-52.5 -219.5q32 3 72 5.5t78 3t64 0.5q64 0 111 -13.5t72 -46t25 -90.5v-102q0 -58 -23 -92t-61 -49t-83 -15h-116z
M283 50h99q32 0 59 9t43.5 33t16.5 69v88q0 45 -19.5 68t-56 31t-86.5 8h-203q0 -92 10 -151.5t29 -93t46 -47.5t62 -14z" />
    <glyph glyph-name="seven" unicode="7" horiz-adv-x="540" 
d="M154 0l270 676h-389v58h439l22 -34l-276 -700h-66z" />
    <glyph glyph-name="eight" unicode="8" horiz-adv-x="648" 
d="M263 -1q-39 0 -71 8t-55 25t-35.5 44t-12.5 64v107q0 39 16.5 64.5t39 40.5t42.5 19q-31 14 -49.5 34.5t-26.5 45t-8 50.5v85q0 55 21 89t57 49t80 15h137q47 0 79.5 -15t50 -49t17.5 -89v-85q0 -18 -5 -36.5t-15 -36t-24 -29.5t-34 -19q32 -5 52 -24t30 -45.5t10 -56.5
v-114q0 -50 -19.5 -80.5t-55.5 -45.5t-86 -15h-135zM270 49h119q57 0 84.5 24t27.5 73v101q0 56 -26.5 79t-91.5 23h-114q-16 0 -37 -5t-40.5 -16.5t-32 -31.5t-12.5 -49v-101q0 -53 35.5 -75t87.5 -22zM269 400h114q39 0 61.5 15.5t33 38t10.5 44.5v77q0 63 -24.5 88.5
t-74.5 25.5h-119q-59 0 -84.5 -27t-25.5 -87v-77q0 -41 26.5 -69.5t82.5 -28.5z" />
    <glyph glyph-name="nine" unicode="9" horiz-adv-x="628" 
d="M297 -4q-40 0 -91 3t-90 5v44h184q89 0 141.5 71.5t52.5 219.5q-32 -3 -72 -5.5t-78 -3t-65 -0.5q-64 0 -110.5 13.5t-71.5 46t-25 89.5v103q0 58 23 92t60.5 49t83.5 15h115q45 0 81.5 -16.5t62 -57.5t40 -113.5t14.5 -184.5q0 -96 -17.5 -166t-50 -115.5t-80 -67
t-107.5 -21.5zM290 380h204q0 91 -10 151t-29.5 93.5t-46.5 47t-62 13.5h-98q-32 0 -59 -8.5t-43.5 -32.5t-16.5 -69v-88q0 -45 19.5 -67.5t55.5 -31t86 -8.5z" />
    <glyph glyph-name="colon" unicode=":" horiz-adv-x="189" 
d="M79 0q-14 0 -14 14v73q0 14 14 14h32q14 0 14 -14v-73q0 -8 -4 -11t-10 -3h-32zM79 432q-14 0 -14 14v73q0 14 14 14h32q14 0 14 -14v-73q0 -8 -4 -11t-10 -3h-32z" />
    <glyph glyph-name="semicolon" unicode=";" horiz-adv-x="189" 
d="M79 432q-14 0 -14 14v73q0 14 14 14h32q14 0 14 -14v-73q0 -8 -4 -11t-10 -3h-32zM85 -75q-7 0 -12.5 1.5l-5.5 1.5v17q11 0 15 3.5t4 12.5v42h-7q-6 0 -10 4t-4 11v68q0 15 14 15h31q8 0 11 -4t3 -11v-118q0 -18 -6 -27.5t-15 -12.5t-18 -3z" />
    <glyph glyph-name="less" unicode="&#x3c;" horiz-adv-x="609" 
d="M511 186l-415 136v53l415 135v-50l-361 -110l361 -114v-50z" />
    <glyph glyph-name="equal" unicode="=" horiz-adv-x="609" 
d="M80 211v50h448v-50h-448zM80 451v50h448v-50h-448z" />
    <glyph glyph-name="greater" unicode="&#x3e;" horiz-adv-x="609" 
d="M98 186v50l361 112l-361 112v50l415 -135v-53z" />
    <glyph glyph-name="question" unicode="?" horiz-adv-x="531" 
d="M176 197v146h45q90 0 129 26.5t39 98.5v68q0 82 -34.5 116.5t-109.5 34.5q-53 0 -99.5 -9.5t-99.5 -30.5v40q48 28 101 39.5t111 12.5q71 1 112 -23t59 -68.5t18 -105.5v-75q0 -87 -52 -129.5t-172 -42.5v-98h-47zM183 0q-14 0 -14 14v73q0 14 14 14h32q14 0 14 -14v-73
q0 -8 -4 -11t-10 -3h-32z" />
    <glyph glyph-name="at" unicode="@" horiz-adv-x="870" 
d="M260 -158q-40 0 -73 11.5t-57.5 35t-38 59.5t-13.5 84v332q0 16 3 38.5t12.5 46.5t29.5 44.5t53 33.5t84 13h194q29 0 57.5 -6t52 -22t37.5 -44.5t14 -73.5v-366h-36l-10 62q-1 0 -20.5 -10.5t-50 -25t-67 -25t-70.5 -10.5q-39 0 -67.5 16.5t-44.5 44.5t-16 62v49
q0 56 35.5 87.5t99.5 31.5h199v80q0 55 -30.5 78.5t-83.5 23.5h-193q-39 0 -69.5 -12t-47.5 -40t-17 -78v-326q0 -56 20.5 -88t51.5 -44.5t62 -12.5h319q74 0 108.5 37t34.5 108v492q0 68 -36 111.5t-107 43.5h-392v35q24 5 69.5 7.5t103.5 4t121 1.5h98q40 0 75 -12t61 -37
t40.5 -63t14.5 -91v-492q0 -58 -18 -101.5t-59.5 -68t-111.5 -24.5h-321zM379 67q27 0 62.5 9.5t70 22.5t55.5 25v154l-188 -9q-19 -1 -41.5 -6t-38.5 -21.5t-16 -50.5v-39q0 -39 25.5 -62t70.5 -23z" />
    <glyph glyph-name="A" unicode="A" horiz-adv-x="671" 
d="M39 0l259 734h75l259 -734h-61l-81 228h-310l-80 -228h-61zM195 280h278l-138 402z" />
    <glyph glyph-name="B" unicode="B" horiz-adv-x="596" 
d="M81 0v734h259q89 0 136 -45.5t47 -141.5q0 -46 -14.5 -80.5t-38.5 -56t-51 -29.5q19 -4 41 -15.5t42.5 -32t33.5 -52.5t13 -77q0 -79 -24.5 -123.5t-70 -62.5t-106.5 -18h-267zM139 52h208q44 0 76.5 13.5t51 48t18.5 99.5q0 45 -19.5 77t-52.5 48.5t-74 16.5h-208v-303z
M139 402h206q52 0 86.5 37.5t35.5 100.5q3 79 -33.5 110.5t-94.5 31.5h-200v-280z" />
    <glyph glyph-name="C" unicode="C" horiz-adv-x="579" 
d="M320 -6q-67 0 -115.5 15t-80 54.5t-46.5 113.5t-15 192q0 111 15.5 183.5t47.5 113.5t82 57.5t119 16.5q26 0 61.5 -3t73.5 -8t70 -13v-43q-16 4 -48 7t-71.5 5.5t-78.5 2.5q-58 0 -98.5 -13.5t-65.5 -48t-37 -97t-12 -160.5q0 -103 11.5 -167t36 -97.5t64.5 -46
t97 -12.5q75 0 123.5 4.5t78.5 8.5v-43q-31 -6 -68 -11t-74 -8t-70 -3z" />
    <glyph glyph-name="D" unicode="D" horiz-adv-x="666" 
d="M81 0v734h284q65 0 109.5 -23t73 -69.5t41.5 -115t13 -159.5q0 -113 -26.5 -195t-79 -127t-131.5 -45h-284zM139 52h222q64 0 104 39.5t59.5 110.5t19.5 165q0 85 -10.5 145t-32.5 97.5t-56.5 55t-83.5 17.5h-222v-630z" />
    <glyph glyph-name="E" unicode="E" horiz-adv-x="584" 
d="M230 -4q-25 0 -50.5 4.5t-48 18t-36.5 41t-14 73.5v460q0 41 12 68t32 43t44.5 23t49.5 7q57 -1 108.5 -2t100 -2.5t94.5 -3.5v-45h-291q-42 0 -67 -22.5t-25 -72.5v-195l341 -5v-43l-341 -5v-194q0 -41 14.5 -61t37.5 -26.5t47 -6.5h284v-45q-46 -2 -95.5 -3.5t-98.5 -3
t-98 -2.5z" />
    <glyph glyph-name="F" unicode="F" horiz-adv-x="563" 
d="M81 0v593q0 41 12 68t32 43t44.5 23t49.5 7q46 -1 97 -1.5t103.5 -2t102.5 -4.5v-45h-292q-41 0 -66 -23.5t-25 -71.5v-210l341 -5v-43l-341 -5v-323h-58z" />
    <glyph glyph-name="G" unicode="G" horiz-adv-x="649" 
d="M302 -5q-70 -1 -116.5 20t-73.5 66.5t-38 117t-11 171.5q0 95 11.5 165t39 115.5t74.5 67.5t117 22q35 0 76.5 -2.5t82.5 -8t74 -12.5v-43q-19 2 -56 5.5t-81.5 6t-88.5 2.5q-74 0 -116 -32.5t-58.5 -102.5t-16.5 -185q0 -92 9 -153.5t30.5 -98.5t59 -52.5t95.5 -15.5
q50 0 103.5 14t92.5 30v239h-192v42q19 3 45 5t56 3.5t62 1.5q25 0 47 -1t38 -3v-379h-42l-10 52q-37 -18 -94 -37t-119 -20z" />
    <glyph glyph-name="H" unicode="H" horiz-adv-x="675" 
d="M81 0v734h58v-351h396v351h58v-734h-58v331h-396v-331h-58z" />
    <glyph glyph-name="I" unicode="I" horiz-adv-x="221" 
d="M81 0v734h58v-734h-58z" />
    <glyph glyph-name="J" unicode="J" horiz-adv-x="379" 
d="M138 -6q-27 0 -59 7t-52 17v44q21 -6 50 -11t52 -5q33 0 57.5 9.5t38.5 34t14 71.5v573h58v-579q0 -60 -18 -95.5t-53 -50.5t-88 -15z" />
    <glyph glyph-name="K" unicode="K" horiz-adv-x="593" 
d="M81 0v734h58v-341h140l216 341h62l-232 -367l234 -367h-63l-218 341h-139v-341h-58z" />
    <glyph glyph-name="L" unicode="L" horiz-adv-x="531" 
d="M221 0q-38 0 -70 12t-51 42.5t-19 84.5v595h58v-588q0 -39 13.5 -59t35 -26.5t43.5 -6.5h272v-54h-282z" />
    <glyph glyph-name="M" unicode="M" horiz-adv-x="821" 
d="M61 0l83 734h63l203 -657l200 657h64l85 -734h-56l-78 676l11 -2l-199 -674h-54l-203 673l12 2l-75 -675h-56z" />
    <glyph glyph-name="N" unicode="N" horiz-adv-x="676" 
d="M97 0v734h49l406 -633v633h58v-734h-48l-407 633v-633h-58z" />
    <glyph glyph-name="O" unicode="O" horiz-adv-x="682" 
d="M341 -6q-69 0 -121.5 13t-87 50.5t-52 111.5t-17.5 194q0 121 17.5 195.5t53 114t87.5 53.5t120 14q71 0 123.5 -14t87 -53.5t51 -114t16.5 -195.5q0 -120 -17 -194t-52 -111.5t-87 -50.5t-122 -13zM341 46q59 0 101 11.5t68.5 44.5t38.5 95.5t12 165.5q0 108 -12.5 173
t-39 97.5t-68 43.5t-100.5 11q-54 0 -95.5 -11t-69 -43.5t-41.5 -97.5t-14 -173q0 -103 11.5 -165.5t37.5 -95.5t68 -44.5t103 -11.5z" />
    <glyph glyph-name="P" unicode="P" horiz-adv-x="599" 
d="M81 0v734h286q32 0 64.5 -8.5t60.5 -32t44.5 -69t16.5 -119.5q0 -75 -18 -121.5t-47 -71.5t-62.5 -34t-63.5 -9q-15 0 -45.5 0.5t-65.5 2t-65.5 3t-46.5 3.5v-278h-58zM139 321h216q38 0 70 16t51 55.5t19 112.5q0 71 -19 109.5t-48.5 53t-64.5 14.5h-224v-361z" />
    <glyph glyph-name="Q" unicode="Q" horiz-adv-x="682" 
d="M504 -161q-34 0 -66 14t-54.5 42.5t-29.5 70.5h40q14 -42 45.5 -61t64.5 -19q13 0 26 2t24 6v-48q-12 -3 -24.5 -5t-25.5 -2zM341 -6q-69 0 -121.5 13t-87 50.5t-52 111.5t-17.5 194q0 121 17.5 195.5t53 114t87.5 53.5t120 14q71 0 123.5 -14t87 -53.5t51 -114
t16.5 -195.5q0 -120 -17 -194t-52 -111.5t-87 -50.5t-122 -13zM341 46q59 0 101 11.5t68.5 44.5t38.5 95.5t12 165.5q0 108 -12.5 173t-39 97.5t-68 43.5t-100.5 11q-54 0 -95.5 -11t-69 -43.5t-41.5 -97.5t-14 -173q0 -103 11.5 -165.5t37.5 -95.5t68 -44.5t103 -11.5z" />
    <glyph glyph-name="R" unicode="R" horiz-adv-x="602" 
d="M81 0v734h285q33 0 66 -7.5t60 -29t43 -63.5t16 -110q0 -63 -14 -102.5t-36 -61.5t-48 -31.5t-49 -12.5l154 -316h-58l-151 310q-17 0 -44 0.5t-57 1t-59 1.5t-50 1v-314h-58zM139 358h220q27 0 51 6t43 23.5t29.5 50.5t10.5 86q0 51 -11 82t-30 47.5t-43 22.5t-50 6
h-220v-324z" />
    <glyph glyph-name="S" unicode="S" horiz-adv-x="575" 
d="M286 -6q-21 0 -50.5 1t-62 3.5t-61 5t-46.5 6.5v44q23 -2 58.5 -4t77 -3t82.5 -1q47 0 86 9.5t62 36t23 77.5v56q0 56 -28 86t-92 30h-85q-86 0 -135.5 37.5t-49.5 132.5v43q0 103 54 144.5t151 41.5q30 0 69.5 -3t77.5 -7t61 -8v-44q-43 3 -98 6.5t-105 3.5
q-48 0 -82.5 -11.5t-53 -41t-18.5 -83.5v-39q0 -67 34.5 -91.5t95.5 -24.5h89q59 0 97 -21.5t56 -59t18 -85.5v-61q0 -71 -31 -109t-82 -52.5t-112 -14.5z" />
    <glyph glyph-name="T" unicode="T" horiz-adv-x="560" 
d="M251 0v682h-235v52h528v-52h-235v-682h-58z" />
    <glyph glyph-name="U" unicode="U" horiz-adv-x="673" 
d="M336 -6q-61 0 -110.5 11.5t-84 37.5t-52.5 70.5t-18 111.5v509h58v-509q0 -70 24.5 -108.5t71 -54t111.5 -15.5q66 0 112 15.5t70.5 54t24.5 108.5v509h58v-509q0 -67 -17.5 -111.5t-52 -70.5t-84 -37.5t-111.5 -11.5z" />
    <glyph glyph-name="V" unicode="V" horiz-adv-x="671" 
d="M298 0l-259 734h61l236 -675l236 675h60l-259 -734h-75z" />
    <glyph glyph-name="W" unicode="W" horiz-adv-x="991" 
d="M232 0l-193 734h61l170 -659l195 659h62l194 -659l171 659h60l-193 -734h-66l-197 657l-198 -657h-66z" />
    <glyph glyph-name="X" unicode="X" horiz-adv-x="611" 
d="M505 0l-464 734h64l464 -734h-64zM44 0l237 379l30 -50l-203 -329h-64zM330 345l-26 55l202 334h64z" />
    <glyph glyph-name="Y" unicode="Y" horiz-adv-x="615" 
d="M278 0v250l-237 484h61l206 -426l206 426h60l-238 -484v-250h-58z" />
    <glyph glyph-name="Z" unicode="Z" horiz-adv-x="556" 
d="M45 0v48l402 634h-402v52h473v-48l-403 -634h403v-52h-473z" />
    <glyph glyph-name="bracketleft" unicode="[" horiz-adv-x="330" 
d="M250 -210q-49 0 -79 18.5t-44.5 47t-19.5 60t-5 56.5v692q0 28 5.5 59t21 58t45 44t76.5 17h58v-48h-46q-45 0 -73.5 -31.5t-28.5 -104.5v-684q0 -39 9.5 -69.5t32.5 -48.5t60 -18h46v-48h-58z" />
    <glyph glyph-name="backslash" unicode="\" horiz-adv-x="384" 
d="M305 -72l-281 842h55l281 -842h-55z" />
    <glyph glyph-name="bracketright" unicode="]" horiz-adv-x="330" 
d="M24 -210v48h46q37 0 59.5 18t32.5 48.5t10 69.5v684q0 73 -28 104.5t-74 31.5h-46v48h58q46 0 75.5 -17t45 -44t21.5 -58t6 -59v-692q0 -25 -5 -56.5t-20 -60t-45 -47t-78 -18.5h-58z" />
    <glyph glyph-name="asciicircum" unicode="^" horiz-adv-x="401" 
d="M60 531l126 132h42l114 -132h-37l-99 102l-109 -102h-37z" />
    <glyph glyph-name="underscore" unicode="_" horiz-adv-x="609" 
d="M0 -155v50h609v-50h-609z" />
    <glyph glyph-name="grave" unicode="`" horiz-adv-x="210" 
d="M152 631l-128 135h51l111 -135h-34z" />
    <glyph glyph-name="a" unicode="a" horiz-adv-x="543" 
d="M183 -6q-58 0 -96.5 34.5t-38.5 98.5v36q0 63 41.5 102t122.5 39h195v74q0 36 -12.5 62t-43.5 40t-89 14h-167v35q33 4 78.5 8t104.5 5q65 1 106.5 -16.5t61 -53.5t19.5 -91v-381h-44l-12 62q-3 -2 -24.5 -12.5t-55.5 -23.5t-72 -22.5t-74 -9.5zM203 40q20 -1 46.5 4.5
t53.5 13t50.5 15t38 13.5t15.5 6v181l-186 -7q-62 -2 -88.5 -31t-26.5 -73v-25q0 -36 15 -57.5t37.5 -30.5t44.5 -9z" />
    <glyph glyph-name="b" unicode="b" horiz-adv-x="576" 
d="M324 -6q-38 0 -72.5 10t-63 24t-48.5 27l-13 -55h-45v763h58v-282q40 24 90.5 41t91.5 17q63 0 105.5 -26.5t64.5 -87t22 -162.5q0 -81 -19 -141.5t-60.5 -94t-110.5 -33.5zM309 43q49 0 81.5 25t49 75t16.5 122q0 94 -19 142t-52 66t-76 18q-50 0 -88.5 -14t-80.5 -36
v-349q34 -18 75.5 -33.5t93.5 -15.5z" />
    <glyph glyph-name="c" unicode="c" horiz-adv-x="490" 
d="M272 -6q-45 0 -83 12t-66.5 41.5t-44.5 82.5t-16 136t15 136t42.5 83t66.5 41.5t87 11.5q37 0 84.5 -2.5t88.5 -8.5v-35h-160q-53 0 -89.5 -17.5t-56.5 -67t-20 -144.5q0 -90 21 -138.5t58 -66t87 -17.5h168v-35q-23 -3 -52 -6t-62 -4.5t-68 -1.5z" />
    <glyph glyph-name="d" unicode="d" horiz-adv-x="572" 
d="M254 -6q-67 0 -109.5 29t-62.5 89t-20 151q0 99 20.5 160t64.5 88.5t117 27.5q47 0 92.5 -10.5t79.5 -22.5v257h58v-763h-46l-12 55q-14 -13 -45 -27t-68 -24t-69 -10zM268 43q51 0 92.5 16t75.5 33v373q-41 12 -77 20t-82 8q-56 0 -90.5 -21t-50.5 -70.5t-16 -136.5
q0 -78 15 -127.5t47.5 -72t85.5 -22.5z" />
    <glyph glyph-name="e" unicode="e" horiz-adv-x="542" 
d="M279 -6q-82 0 -129.5 25.5t-67.5 85.5t-20 163q0 105 21 164t69.5 83t129.5 24q68 0 111.5 -15.5t65 -53.5t21.5 -105q0 -45 -17.5 -72.5t-50.5 -39.5t-78 -12h-214q0 -73 14 -117t50.5 -64t107.5 -20h176v-35q-48 -5 -90.5 -8t-98.5 -3zM119 282h211q49 0 73 17.5
t24 65.5q0 50 -14.5 78t-46 39.5t-84.5 11.5q-63 0 -98.5 -18t-50 -64t-14.5 -130z" />
    <glyph glyph-name="f" unicode="f" horiz-adv-x="360" 
d="M109 0v484h-84v38l84 11v69q0 53 12.5 90t44 57t88.5 20q35 0 58 -3t42 -5v-41h-91q-41 0 -61.5 -13t-27.5 -39t-7 -64v-71h174v-49h-174v-484h-58z" />
    <glyph glyph-name="g" unicode="g" horiz-adv-x="574" 
d="M210 -244q-52 0 -91.5 14.5t-62 44t-22.5 74.5v26q0 48 26 78.5t65 46t79 15.5l12 -27q-32 0 -61 -11t-47.5 -33.5t-18.5 -60.5v-25q0 -54 36 -76t97 -22h129q68 0 106.5 26t38.5 79v23q0 30 -12 52.5t-40.5 35t-80.5 12.5h-173q-54 0 -85.5 24t-31.5 64t24 62t67 30
q-39 15 -60.5 40.5t-30 55.5t-8.5 59q0 63 25.5 100.5t71 54t104.5 16.5h284v-34l-132 -8q14 -9 32 -23.5t31.5 -43t13.5 -78.5q0 -39 -17 -76t-58 -61.5t-112 -24.5h-82q-48 0 -74.5 -13.5t-26.5 -48.5q0 -27 19 -38t40 -11h186q62 0 101.5 -16t59 -47.5t19.5 -78.5v-24
q0 -72 -49 -112t-145 -40h-146zM241 232h61q57 0 87 17.5t41 44.5t11 59q0 50 -17 79.5t-45.5 42.5t-66.5 13h-57q-63 0 -99.5 -28.5t-36.5 -98.5q0 -68 33 -98.5t89 -30.5z" />
    <glyph glyph-name="h" unicode="h" horiz-adv-x="586" 
d="M82 0v763h58v-290q39 27 92.5 48t110.5 21q55 0 91.5 -24t55 -64.5t18.5 -87.5v-366h-58v361q0 36 -15 65t-42 46t-66 17q-38 0 -68.5 -7t-58.5 -19.5t-60 -29.5v-433h-58z" />
    <glyph glyph-name="i" unicode="i" horiz-adv-x="221" 
d="M92 633q-15 0 -15 15v71q0 15 15 15h39q7 0 10 -4t3 -11v-71q0 -15 -13 -15h-39zM82 0v533h58v-533h-58z" />
    <glyph glyph-name="j" unicode="j" horiz-adv-x="221" 
d="M91 633q-14 0 -14 15v71q0 15 14 15h40q7 0 10 -4t3 -11v-71q0 -15 -13 -15h-40zM82 -237v770h58v-512q0 -75 -5 -143.5t-11 -114.5h-42z" />
    <glyph glyph-name="k" unicode="k" horiz-adv-x="492" 
d="M82 0v763h58v-451h80l177 221h63l-198 -248l209 -285h-64l-190 260h-77v-260h-58z" />
    <glyph glyph-name="l" unicode="l" horiz-adv-x="288" 
d="M213 -1q-42 0 -71.5 16t-44.5 53t-15 102v593h58v-587q0 -52 9.5 -79t28 -37t42.5 -13l58 -7v-41h-65z" />
    <glyph glyph-name="m" unicode="m" horiz-adv-x="954" 
d="M82 0v533h43l15 -60q41 28 93 48.5t113 20.5q50 0 86 -22.5t54 -58.5q25 20 62.5 38t80 30.5t80.5 12.5q56 0 93.5 -24.5t55.5 -65t18 -88.5v-364h-58v360q0 37 -15 66t-42.5 46t-66.5 17q-49 0 -101 -18.5t-98 -45.5q6 -15 9.5 -31.5t3.5 -33.5v-360h-58v360
q0 37 -15 66t-42 46t-66 17q-38 0 -68.5 -6.5t-59 -19.5t-59.5 -30v-433h-58z" />
    <glyph glyph-name="n" unicode="n" horiz-adv-x="586" 
d="M82 0v533h43l15 -60q40 27 92.5 48t110.5 21q56 0 92.5 -24.5t54.5 -65t18 -86.5v-366h-58v360q0 37 -15 66t-42 46t-66 17q-38 0 -68.5 -6.5t-59 -19.5t-59.5 -30v-433h-58z" />
    <glyph glyph-name="o" unicode="o" 
d="M288 -6q-55 0 -97.5 11.5t-71.5 41t-43 83t-14 137.5q0 85 14.5 138.5t43 82.5t71 40t97.5 11t97.5 -11t71.5 -40t43.5 -82.5t14.5 -138.5q0 -84 -14.5 -138t-43 -83t-71.5 -40.5t-98 -11.5zM288 43q40 0 72 7.5t53 30t32.5 67.5t11.5 119q0 75 -11.5 119.5t-32.5 67
t-53 30t-72 7.5q-41 0 -72 -7.5t-52.5 -30t-32.5 -67t-11 -119.5q0 -74 11 -119t32.5 -67.5t52.5 -30t72 -7.5z" />
    <glyph glyph-name="p" unicode="p" horiz-adv-x="576" 
d="M82 -237v770h45l13 -56q17 12 47.5 27t66 25t68.5 10q53 0 89.5 -23t59.5 -62t33 -87t10 -99q0 -91 -21.5 -152.5t-63.5 -91.5t-107 -30q-46 0 -94 15.5t-88 39.5v-286h-58zM309 43q43 0 75.5 21.5t52 70.5t19.5 133q0 80 -21 129t-54.5 71.5t-71.5 22.5q-51 0 -93 -16.5
t-76 -33.5v-349q39 -22 82.5 -35.5t86.5 -13.5z" />
    <glyph glyph-name="q" unicode="q" horiz-adv-x="572" 
d="M436 -237v292q-41 -27 -90.5 -44t-96.5 -17q-68 0 -109.5 31t-59.5 92t-18 151q0 89 21 149.5t64.5 91t112.5 30.5q48 0 91 -1.5t79.5 -4.5t63.5 -5v-765h-58zM261 43q47 0 90 13t85 36v401h-166q-57 0 -89.5 -29t-46.5 -79t-14 -116q0 -79 14.5 -129t45.5 -73.5
t81 -23.5z" />
    <glyph glyph-name="r" unicode="r" horiz-adv-x="409" 
d="M82 0v533h43l15 -96q38 44 84.5 73t107.5 29q15 0 28 -1.5t24 -4.5v-59q-13 2 -27 4t-30 2q-39 0 -69.5 -10t-58.5 -29.5t-59 -48.5v-392h-58z" />
    <glyph glyph-name="s" unicode="s" horiz-adv-x="498" 
d="M262 -6q-18 0 -47 1t-61 2.5t-58 3.5t-39 4v35h213q37 0 64.5 6t43 25t15.5 59v26q0 39 -26 61.5t-82 22.5h-72q-49 0 -84.5 11.5t-55.5 39.5t-20 77v27q0 50 19.5 81t59 46.5t101.5 15.5q26 0 62 -1.5t72 -4t58 -6.5v-36h-200q-58 0 -89 -19.5t-31 -75.5v-23
q0 -35 14.5 -53t40.5 -23.5t60 -5.5h73q71 0 111.5 -33t40.5 -96v-34q0 -54 -24 -82.5t-65 -39.5t-94 -11z" />
    <glyph glyph-name="t" unicode="t" horiz-adv-x="361" 
d="M250 0q-48 0 -80.5 17t-48.5 54t-16 96l3 317h-85v38l85 11l11 149h44v-149h162v-49h-162v-317q0 -38 8.5 -61.5t22 -35.5t29 -16.5t29.5 -5.5l65 -6v-42h-67z" />
    <glyph glyph-name="u" unicode="u" horiz-adv-x="586" 
d="M242 -6q-77 0 -119 39t-42 125v375h58v-362q0 -74 33 -99.5t95 -25.5q52 0 94 13.5t88 40.5v433h58v-533h-43l-15 60q-41 -27 -94.5 -46.5t-112.5 -19.5z" />
    <glyph glyph-name="v" unicode="v" horiz-adv-x="528" 
d="M228 0l-207 533h59l182 -479l186 479h59l-213 -533h-66z" />
    <glyph glyph-name="w" unicode="w" horiz-adv-x="788" 
d="M189 0l-168 533h59l145 -479l144 479h52l145 -479l142 479h59l-167 -533h-64l-142 459l-142 -459h-63z" />
    <glyph glyph-name="x" unicode="x" horiz-adv-x="497" 
d="M411 0l-385 533h60l385 -533h-60zM26 0l199 281l23 -51l-163 -230h-59zM271 250l-26 45l166 237l60 1z" />
    <glyph glyph-name="y" unicode="y" horiz-adv-x="533" 
d="M218 -237l71 237q-20 1 -45 10t-47.5 34.5t-39.5 74.5l-136 414h61l130 -401q12 -34 26.5 -50.5t28.5 -23t24 -7t11 -0.5l150 482h60l-206 -671l-46 -99h-42z" />
    <glyph glyph-name="z" unicode="z" horiz-adv-x="491" 
d="M53 0v45l324 439h-331v49h399v-46l-326 -439h326v-48h-392z" />
    <glyph glyph-name="braceleft" unicode="{" horiz-adv-x="308" 
d="M284 -210q-58 0 -93.5 14.5t-53.5 39t-24 55.5t-6 63v274q0 23 -12.5 39t-31.5 24t-39 6v57q17 2 36.5 8t33.5 20t14 41v225q0 50 15 92.5t53.5 68t107.5 25.5v-48q-40 0 -66 -14.5t-39 -47.5t-13 -92v-216q0 -40 -25 -62.5t-60 -27.5q35 -5 59.5 -29t24.5 -58v-271
q0 -79 29 -109.5t90 -30.5v-46z" />
    <glyph glyph-name="bar" unicode="|" horiz-adv-x="253" 
d="M102 -72v842h50v-842h-50z" />
    <glyph glyph-name="braceright" unicode="}" horiz-adv-x="308" 
d="M24 -210v46q61 0 90 30.5t29 109.5v271q0 34 24 58t60 29q-36 5 -60.5 27.5t-24.5 62.5v216q0 59 -13 92t-39.5 47.5t-65.5 14.5v48q70 0 107.5 -25.5t53 -68t15.5 -92.5v-225q0 -27 14 -41t34 -20t36 -8v-57q-20 2 -39 -6t-31.5 -24t-12.5 -39v-274q0 -32 -6.5 -63
t-24.5 -55.5t-53 -39t-93 -14.5z" />
    <glyph glyph-name="asciitilde" unicode="~" horiz-adv-x="459" 
d="M293 539q-17 0 -34.5 10t-33.5 23t-31 22.5t-27 9.5q-27 0 -49.5 -13.5t-48.5 -33.5l-9 20q25 24 51.5 42.5t57.5 18.5q17 0 33.5 -9.5t33 -22.5t31.5 -23t26 -10q28 0 54 18t43 32l10 -20q-23 -25 -48.5 -44.5t-58.5 -19.5z" />
    <glyph glyph-name="uni00A0" unicode="&#xa0;" horiz-adv-x="274" 
 />
    <glyph glyph-name="exclamdown" unicode="&#xa1;" horiz-adv-x="263" 
d="M154 335l8 -535h-58l9 535h41zM149 533q14 0 14 -14v-73q0 -14 -14 -14h-31q-15 0 -15 14v73q0 8 4 11t11 3h31z" />
    <glyph glyph-name="cent" unicode="&#xa2;" horiz-adv-x="487" 
d="M244 -85v80q-41 0 -76.5 10.5t-62.5 39t-42 82t-15 139.5q0 87 14.5 140t40.5 81.5t62 38.5t80 10v85h36v-86q35 -2 76 -9.5t76 -17.5v-34q-34 6 -77.5 11t-102.5 5q-35 0 -62.5 -8.5t-46.5 -32t-28.5 -69t-9.5 -118.5q0 -69 10 -112.5t30 -67t48 -32.5t64 -9
q40 0 70.5 3t57 7.5t54.5 9.5v-35q-47 -16 -82 -22t-78 -8v-81h-36z" />
    <glyph glyph-name="sterling" unicode="&#xa3;" horiz-adv-x="609" 
d="M65 0v43l114 9v287l-114 5v32l114 8v140q0 86 25 131.5t70.5 62.5t107.5 17q39 0 78.5 -2.5t64.5 -5.5v-44h-140q-49 0 -81.5 -11.5t-49.5 -44.5t-17 -98v-145l224 -6v-34l-224 -5v-287h302v-52h-474z" />
    <glyph glyph-name="currency" unicode="&#xa4;" horiz-adv-x="609" 
d="M304 195q-44 0 -80 22t-58 58.5t-22 80.5q0 45 22 81t58 58t80 22q45 0 81 -22t58 -58t22 -81q0 -44 -22 -80.5t-58 -58.5t-81 -22zM110 133l-29 29l108 108l29 -29zM185 446l-104 104l29 29l104 -104zM498 133l-106 106l29 29l106 -106zM304 233q34 0 62 17t44.5 45
t16.5 61q0 34 -16.5 62t-44.5 44.5t-62 16.5q-33 0 -60.5 -16.5t-44 -44.5t-16.5 -62q0 -33 16.5 -61t44 -45t60.5 -17zM421 444l-29 29l106 106l29 -29z" />
    <glyph glyph-name="yen" unicode="&#xa5;" horiz-adv-x="609" 
d="M79 260v38h450v-38h-450zM79 138v38h450v-38h-450zM265 0v250l-237 484h61l206 -426l206 426h59l-237 -484v-250h-58z" />
    <glyph glyph-name="brokenbar" unicode="&#xa6;" horiz-adv-x="253" 
d="M102 429v341h50v-341h-50zM102 -72v328h50v-328h-50z" />
    <glyph glyph-name="section" unicode="&#xa7;" horiz-adv-x="554" 
d="M316 -6q-18 0 -48 0.5t-62 1.5t-60.5 2.5t-43.5 3.5v40h206q52 0 78 10.5t35.5 28t9.5 40.5v61q0 25 -6 38t-25.5 18.5t-60.5 5.5h-136q-51 0 -83 9.5t-47 32.5t-15 61v56q0 48 17 67t49 27q-33 8 -45 35.5t-12 57.5v66q0 47 19 75t54 40.5t85 12.5q19 0 50.5 -0.5
t66.5 -1.5t65 -2.5t44 -4.5v-39h-220q-33 0 -57.5 -6.5t-37.5 -25t-13 -55.5v-57q0 -39 22.5 -51t68.5 -12h134q61 0 92.5 -10.5t44 -33.5t12.5 -62v-56q0 -43 -14 -63.5t-50 -26.5q25 -6 36.5 -20t15 -32.5t3.5 -37.5v-67q0 -47 -20.5 -75t-58.5 -39.5t-93 -11.5zM213 290
h126q45 0 67 4t28.5 18.5t6.5 45.5v55q0 29 -8 43.5t-30.5 20.5t-63.5 6h-126q-57 0 -78 -14.5t-21 -57.5v-54q0 -21 8 -36t29.5 -23t61.5 -8z" />
    <glyph glyph-name="dieresis" unicode="&#xa8;" horiz-adv-x="417" 
d="M293 658q-14 0 -14 14v72q0 15 14 15h27q7 0 10.5 -4.5t3.5 -10.5v-72q0 -14 -14 -14h-27zM98 658q-14 0 -14 14v72q0 15 14 15h27q7 0 10.5 -4.5t3.5 -10.5v-72q0 -14 -14 -14h-27z" />
    <glyph glyph-name="copyright" unicode="&#xa9;" horiz-adv-x="850" 
d="M314 0q-56 0 -97.5 23.5t-70.5 62.5t-46.5 87.5t-26 99t-8.5 95.5q0 63 11.5 127.5t38.5 118t75.5 86t123.5 32.5h244q60 0 100 -24t65 -63.5t38.5 -87t18 -97t4.5 -92.5q0 -77 -14 -144t-42 -117.5t-70.5 -78.5t-99.5 -28h-244zM390 147q-40 0 -73.5 17.5t-54 65
t-20.5 135.5q0 81 19.5 128.5t53 68.5t75.5 21q21 0 51.5 -2t64 -6t60.5 -10v-26q-30 5 -63 7.5t-60.5 3.5t-44.5 1q-38 0 -65 -18.5t-42 -59.5t-15 -111q0 -89 28 -136t94 -47q51 0 96 4.5t78 11.5v-26q-46 -14 -89.5 -18t-92.5 -4zM314 32h242q55 0 99 37t69.5 112
t25.5 187q0 67 -9.5 126.5t-31 106t-58.5 73t-93 26.5h-244q-41 0 -78.5 -15.5t-68 -53t-49 -101.5t-19.5 -162q0 -59 12.5 -118.5t39 -108.5t67.5 -79t96 -30z" />
    <glyph glyph-name="ordfeminine" unicode="&#xaa;" horiz-adv-x="407" 
d="M36 266v34h324v-34h-324zM83 463q0 -27 11 -41.5t27 -21t33 -7.5q18 0 42.5 5.5t48 12.5t39 13t16.5 6v128l-135 -5q-44 -2 -63 -22.5t-19 -50.5v-17zM35 481q0 47 30.5 73.5t91.5 26.5h143v55q0 38 -21 59.5t-85 21.5h-125v31q25 4 59.5 7t80.5 3q49 1 80.5 -11.5
t46.5 -39t15 -68.5v-279h-39l-11 45l-18 -9t-40.5 -17.5t-52.5 -16t-54 -6.5q-44 0 -72.5 25t-28.5 71v29z" />
    <glyph glyph-name="guillemotleft" unicode="&#xab;" horiz-adv-x="608" 
d="M274 67l-214 212l210 207l32 -32l-178 -175l183 -179zM524 67l-214 212l210 207l32 -32l-178 -175l183 -179z" />
    <glyph glyph-name="logicalnot" unicode="&#xac;" horiz-adv-x="609" 
d="M478 211v256h50v-256h-50zM80 451v50h448v-50h-448z" />
    <glyph glyph-name="uni00AD" unicode="&#xad;" horiz-adv-x="341" 
d="M26 265v50h290v-50h-290z" />
    <glyph glyph-name="registered" unicode="&#xae;" horiz-adv-x="850" 
d="M314 0q-56 0 -97.5 23.5t-70.5 62.5t-46.5 87.5t-26 99t-8.5 95.5q0 63 11.5 127.5t38.5 118t75.5 86t123.5 32.5h244q60 0 100 -24t65 -63.5t38.5 -87t18 -97t4.5 -92.5q0 -77 -14 -144t-42 -117.5t-70.5 -78.5t-99.5 -28h-244zM314 32h242q55 0 99 37t69.5 112
t25.5 187q0 67 -9.5 126.5t-31 106t-58.5 73t-93 26.5h-244q-41 0 -78.5 -15.5t-68 -53t-49 -101.5t-19.5 -162q0 -59 12.5 -118.5t39 -108.5t67.5 -79t96 -30zM275 153v427h179q33 0 62 -10t46.5 -37.5t17.5 -80.5q0 -41 -10.5 -63t-26.5 -31.5t-33.5 -13t-30.5 -5.5
l105 -186h-36l-104 186l-135 4v-190h-34zM309 367h149q43 0 65.5 15t22.5 69q0 56 -23.5 76.5t-64.5 20.5h-149v-181z" />
    <glyph glyph-name="macron" unicode="&#xaf;" horiz-adv-x="379" 
d="M60 679v35h260v-35h-260z" />
    <glyph glyph-name="degree" unicode="&#xb0;" horiz-adv-x="333" 
d="M167 502q-54 0 -91 36t-37 92q0 38 17 67t46 45.5t65 16.5q56 0 91 -36.5t35 -92.5t-35 -92t-91 -36zM167 531q44 0 71 28t27 71q0 44 -27 72t-71 28q-42 0 -70.5 -28t-28.5 -72q0 -43 28.5 -71t70.5 -28z" />
    <glyph glyph-name="plusminus" unicode="&#xb1;" horiz-adv-x="609" 
d="M80 131v50h448v-50h-448zM279 282v448h50v-448h-50zM80 481v50h448v-50h-448z" />
    <glyph glyph-name="uni00B2" unicode="&#xb2;" horiz-adv-x="456" 
d="M50 280v40l204 194q48 45 68 83t20 85q0 27 -10 48.5t-37 34t-77 12.5h-147v38q33 3 74 6t84 3q63 0 99 -17.5t51 -48t15 -71.5q0 -38 -9.5 -69.5t-32 -62t-60.5 -67.5l-171 -161h294v-47h-365z" />
    <glyph glyph-name="uni00B3" unicode="&#xb3;" horiz-adv-x="456" 
d="M236 276q-58 0 -107.5 2t-86.5 6v39h180q33 0 59 7t41.5 26t15.5 54v38q0 30 -15 47.5t-38 25t-46 8.5l-141 5v37l139 5q42 2 67.5 18.5t25.5 55.5v40q0 41 -28 64t-85 23h-155v38q32 5 75 7t99 2q73 0 109 -34.5t36 -91.5v-46q0 -35 -14 -55.5t-33 -31t-34 -12.5
q17 -4 38 -16t37 -34.5t16 -58.5v-40q0 -62 -41 -95t-114 -33z" />
    <glyph glyph-name="acute" unicode="&#xb4;" horiz-adv-x="210" 
d="M24 631l110 135h52l-128 -135h-34z" />
    <glyph glyph-name="uni00B5" unicode="&#xb5;" horiz-adv-x="586" 
d="M257 -6q-42 0 -74.5 13t-55.5 38t-34.5 60t-11.5 76v352h58v-362q0 -49 16.5 -76t45 -38t66.5 -11q54 0 95 13.5t87 40.5v433h58v-533h-43l-13 60q-38 -28 -87.5 -47t-106.5 -19zM81 -268v494h58v-494h-58z" />
    <glyph glyph-name="paragraph" unicode="&#xb6;" horiz-adv-x="572" 
d="M282 -270v594q-7 -5 -28 -8.5t-53 -3.5q-54 0 -90 21t-53.5 55.5t-17.5 75.5v130q0 48 23.5 79t60.5 46t80 15h349v-46h-81v-688h-44v690h-102v-960h-44zM206 356h76v334h-76q-62 0 -92 -29t-30 -75v-116q0 -38 14.5 -61t35.5 -34.5t41 -15t31 -3.5z" />
    <glyph glyph-name="periodcentered" unicode="&#xb7;" horiz-adv-x="263" 
d="M116 344q-14 0 -14 14v33q0 15 14 15h31q15 0 15 -15v-33q0 -7 -4 -10.5t-11 -3.5h-31z" />
    <glyph glyph-name="cedilla" unicode="&#xb8;" horiz-adv-x="261" 
d="M60 -187v24l24 2q29 2 44.5 13.5t15.5 35.5q0 18 -14 31t-59 14l26 11q45 0 64.5 -16t19.5 -47q0 -32 -24.5 -50t-68.5 -18h-28zM71 -67l52 79h29l-53 -79h-28z" />
    <glyph glyph-name="uni00B9" unicode="&#xb9;" horiz-adv-x="456" 
d="M210 280v495l-131 -35v36l136 50h47v-546h-52zM71 280v45h330v-45h-330z" />
    <glyph glyph-name="ordmasculine" unicode="&#xba;" horiz-adv-x="433" 
d="M54 266v34h325v-34h-325zM96 556q0 -70 14 -104.5t41 -45t65 -10.5t65 10.5t41 45t14 104.5q0 72 -14 106t-41 44.5t-65 10.5t-65 -10.5t-41 -44.5t-14 -106zM45 556q0 84 19 126.5t57.5 58.5t94.5 16q57 0 95 -16t57.5 -59t19.5 -126q0 -82 -19.5 -125t-57.5 -59
t-95 -16t-95 16.5t-57 59.5t-19 124z" />
    <glyph glyph-name="guillemotright" unicode="&#xbb;" horiz-adv-x="608" 
d="M88 67l-31 33l178 175l-183 179l34 32l213 -211zM338 67l-31 33l178 175l-183 179l34 32l213 -211z" />
    <glyph glyph-name="onequarter" unicode="&#xbc;" horiz-adv-x="1275" 
d="M426 0l377 770h46l-377 -770h-46zM1103 1v140h-261l-10 36l209 363h52l-204 -355h214v143l13 55h37v-198h78v-35l-78 -9v-140h-50zM218 280v495l-131 -35v36l136 50h47v-546h-52zM79 280v45h330v-45h-330z" />
    <glyph glyph-name="onehalf" unicode="&#xbd;" horiz-adv-x="1275" 
d="M426 0l377 770h46l-377 -770h-46zM845 0v40l204 194q48 45 68 83t20 85q0 27 -10 48.5t-37 34t-77 12.5h-147v38q33 3 74 6t84 3q63 0 99 -17.5t51 -48t15 -71.5q0 -38 -9.5 -69.5t-32 -62t-60.5 -67.5l-171 -161h294v-47h-365zM218 280v495l-131 -35v36l136 50h47v-546
h-52zM79 280v45h330v-45h-330z" />
    <glyph glyph-name="threequarters" unicode="&#xbe;" horiz-adv-x="1275" 
d="M426 0l377 770h46l-377 -770h-46zM1103 1v140h-261l-10 36l209 363h52l-204 -355h214v143l13 55h37v-198h78v-35l-78 -9v-140h-50zM246 276q-58 0 -107.5 2t-86.5 6v39h180q33 0 59 7t41.5 26t15.5 54v38q0 30 -15 47.5t-38 25t-46 8.5l-141 5v37l139 5q42 2 67.5 18.5
t25.5 55.5v40q0 41 -28 64t-85 23h-155v38q32 5 75 7t99 2q73 0 109 -34.5t36 -91.5v-46q0 -35 -14 -55.5t-33 -31t-34 -12.5q17 -4 38 -16t37 -34.5t16 -58.5v-40q0 -62 -41 -95t-114 -33z" />
    <glyph glyph-name="questiondown" unicode="&#xbf;" horiz-adv-x="531" 
d="M355 336v-146h-45q-90 0 -129 -26.5t-39 -98.5v-68q0 -82 34.5 -116.5t109.5 -34.5q53 0 99.5 9.5t99.5 30.5v-40q-48 -28 -101 -39.5t-111 -12.5q-71 -1 -112 23t-59 68.5t-18 105.5v75q0 87 52 129.5t172 42.5v98h47zM348 533q14 0 14 -14v-73q0 -14 -14 -14h-32
q-14 0 -14 14v73q0 8 4 11t10 3h32z" />
    <glyph glyph-name="Agrave" unicode="&#xc0;" horiz-adv-x="671" 
d="M39 0l259 734h75l259 -734h-61l-81 228h-310l-80 -228h-61zM195 280h278l-138 402zM320 791l-128 135h51l111 -135h-34z" />
    <glyph glyph-name="Aacute" unicode="&#xc1;" horiz-adv-x="671" 
d="M39 0l259 734h75l259 -734h-61l-81 228h-310l-80 -228h-61zM195 280h278l-138 402zM322 791l110 135h52l-128 -135h-34z" />
    <glyph glyph-name="Acircumflex" unicode="&#xc2;" horiz-adv-x="671" 
d="M39 0l259 734h75l259 -734h-61l-81 228h-310l-80 -228h-61zM195 280h278l-138 402zM191 791l126 133h42l114 -133h-37l-99 104l-109 -104h-37z" />
    <glyph glyph-name="Atilde" unicode="&#xc3;" horiz-adv-x="671" 
d="M39 0l259 734h75l259 -734h-61l-81 228h-310l-80 -228h-61zM195 280h278l-138 402zM168 812q1 38 15 59.5t35 31t43 9.5q23 0 44 -9.5t40 -23t37 -23t37 -9.5q28 0 47 17t19 50h31q-1 -47 -25.5 -74t-69.5 -27q-22 0 -42 9.5t-39.5 23t-38.5 23t-38 9.5q-26 0 -45 -15.5
t-19 -50.5h-31z" />
    <glyph glyph-name="Adieresis" unicode="&#xc4;" horiz-adv-x="671" 
d="M39 0l259 734h75l259 -734h-61l-81 228h-310l-80 -228h-61zM195 280h278l-138 402zM435 818q-14 0 -14 14v72q0 15 14 15h27q7 0 10.5 -4.5t3.5 -10.5v-72q0 -14 -14 -14h-27zM192 818q-14 0 -14 14v72q0 15 14 15h27q7 0 10.5 -4.5t3.5 -10.5v-72q0 -14 -14 -14h-27z
" />
    <glyph glyph-name="Aring" unicode="&#xc5;" horiz-adv-x="671" 
d="M39 0l259 734h75l259 -734h-61l-81 228h-310l-80 -228h-61zM195 280h278l-138 402zM335 762q-52 0 -80 22.5t-28 82.5t28 83t80 23q53 0 79.5 -23t26.5 -83t-26.5 -82.5t-79.5 -22.5zM335 789q40 0 58 16t18 62t-18 62.5t-58 16.5q-39 0 -58.5 -16.5t-19.5 -62.5
t19.5 -62t58.5 -16z" />
    <glyph glyph-name="AE" unicode="&#xc6;" horiz-adv-x="958" 
d="M631 -4q-68 0 -107 26.5t-41 96.5v107h-244l-141 -226h-59l374 617q23 39 49.5 65.5t62.5 39.5t85 12q75 -1 148 -3t139 -5v-45h-284q-43 0 -59.5 -17t-16.5 -53v-220l318 -5v-43l-318 -5v-194q0 -34 12 -54.5t35 -30t55 -9.5h258v-45q-64 -2 -130 -4.5t-136 -4.5z
M266 276h217v355z" />
    <glyph glyph-name="Ccedilla" unicode="&#xc7;" horiz-adv-x="579" 
d="M320 -6q-67 0 -115.5 15t-80 54.5t-46.5 113.5t-15 192q0 111 15.5 183.5t47.5 113.5t82 57.5t119 16.5q26 0 61.5 -3t73.5 -8t70 -13v-43q-16 4 -48 7t-71.5 5.5t-78.5 2.5q-58 0 -98.5 -13.5t-65.5 -48t-37 -97t-12 -160.5q0 -103 11.5 -167t36 -97.5t64.5 -46
t97 -12.5q75 0 123.5 4.5t78.5 8.5v-43q-31 -6 -68 -11t-74 -8t-70 -3zM264 -187v24l24 2q29 2 44.5 13.5t15.5 35.5q0 18 -14 31t-59 14l26 11q45 0 64.5 -16t19.5 -47q0 -32 -24.5 -50t-68.5 -18h-28zM275 -67l52 79h29l-53 -79h-28z" />
    <glyph glyph-name="Egrave" unicode="&#xc8;" horiz-adv-x="584" 
d="M230 -4q-25 0 -50.5 4.5t-48 18t-36.5 41t-14 73.5v460q0 41 12 68t32 43t44.5 23t49.5 7q57 -1 108.5 -2t100 -2.5t94.5 -3.5v-45h-291q-42 0 -67 -22.5t-25 -72.5v-195l341 -5v-43l-341 -5v-194q0 -41 14.5 -61t37.5 -26.5t47 -6.5h284v-45q-46 -2 -95.5 -3.5t-98.5 -3
t-98 -2.5zM296 791l-128 135h51l111 -135h-34z" />
    <glyph glyph-name="Eacute" unicode="&#xc9;" horiz-adv-x="584" 
d="M230 -4q-25 0 -50.5 4.5t-48 18t-36.5 41t-14 73.5v460q0 41 12 68t32 43t44.5 23t49.5 7q57 -1 108.5 -2t100 -2.5t94.5 -3.5v-45h-291q-42 0 -67 -22.5t-25 -72.5v-195l341 -5v-43l-341 -5v-194q0 -41 14.5 -61t37.5 -26.5t47 -6.5h284v-45q-46 -2 -95.5 -3.5t-98.5 -3
t-98 -2.5zM298 791l110 135h52l-128 -135h-34z" />
    <glyph glyph-name="Ecircumflex" unicode="&#xca;" horiz-adv-x="584" 
d="M230 -4q-25 0 -50.5 4.5t-48 18t-36.5 41t-14 73.5v460q0 41 12 68t32 43t44.5 23t49.5 7q57 -1 108.5 -2t100 -2.5t94.5 -3.5v-45h-291q-42 0 -67 -22.5t-25 -72.5v-195l341 -5v-43l-341 -5v-194q0 -41 14.5 -61t37.5 -26.5t47 -6.5h284v-45q-46 -2 -95.5 -3.5t-98.5 -3
t-98 -2.5zM167 791l126 133h42l114 -133h-37l-99 104l-109 -104h-37z" />
    <glyph glyph-name="Edieresis" unicode="&#xcb;" horiz-adv-x="584" 
d="M230 -4q-25 0 -50.5 4.5t-48 18t-36.5 41t-14 73.5v460q0 41 12 68t32 43t44.5 23t49.5 7q57 -1 108.5 -2t100 -2.5t94.5 -3.5v-45h-291q-42 0 -67 -22.5t-25 -72.5v-195l341 -5v-43l-341 -5v-194q0 -41 14.5 -61t37.5 -26.5t47 -6.5h284v-45q-46 -2 -95.5 -3.5t-98.5 -3
t-98 -2.5zM411 818q-14 0 -14 14v72q0 15 14 15h27q7 0 10.5 -4.5t3.5 -10.5v-72q0 -14 -14 -14h-27zM168 818q-14 0 -14 14v72q0 15 14 15h27q7 0 10.5 -4.5t3.5 -10.5v-72q0 -14 -14 -14h-27z" />
    <glyph glyph-name="Igrave" unicode="&#xcc;" horiz-adv-x="221" 
d="M81 0v734h58v-734h-58zM95 791l-128 135h51l111 -135h-34z" />
    <glyph glyph-name="Iacute" unicode="&#xcd;" horiz-adv-x="221" 
d="M81 0v734h58v-734h-58zM97 791l110 135h52l-128 -135h-34z" />
    <glyph glyph-name="Icircumflex" unicode="&#xce;" horiz-adv-x="221" 
d="M81 0v734h58v-734h-58zM-34 791l126 133h42l114 -133h-37l-99 104l-109 -104h-37z" />
    <glyph glyph-name="Idieresis" unicode="&#xcf;" horiz-adv-x="221" 
d="M81 0v734h58v-734h-58zM210 818q-14 0 -14 14v72q0 15 14 15h27q7 0 10.5 -4.5t3.5 -10.5v-72q0 -14 -14 -14h-27zM-33 818q-14 0 -14 14v72q0 15 14 15h27q7 0 10.5 -4.5t3.5 -10.5v-72q0 -14 -14 -14h-27z" />
    <glyph glyph-name="Eth" unicode="&#xd0;" horiz-adv-x="666" 
d="M16 351v42h308v-42h-308zM81 0v734h284q65 0 109.5 -23t73 -69.5t41.5 -115t13 -159.5q0 -113 -26.5 -195t-79 -127t-131.5 -45h-284zM139 52h222q64 0 104 39.5t59.5 110.5t19.5 165q0 85 -10.5 145t-32.5 97.5t-56.5 55t-83.5 17.5h-222v-630z" />
    <glyph glyph-name="Ntilde" unicode="&#xd1;" horiz-adv-x="676" 
d="M97 0v734h49l406 -633v633h58v-734h-48l-407 633v-633h-58zM171 812q1 38 15 59.5t35 31t43 9.5q23 0 44 -9.5t40 -23t37 -23t37 -9.5q28 0 47 17t19 50h31q-1 -47 -25.5 -74t-69.5 -27q-22 0 -42 9.5t-39.5 23t-38.5 23t-38 9.5q-26 0 -45 -15.5t-19 -50.5h-31z" />
    <glyph glyph-name="Ograve" unicode="&#xd2;" horiz-adv-x="682" 
d="M341 -6q-69 0 -121.5 13t-87 50.5t-52 111.5t-17.5 194q0 121 17.5 195.5t53 114t87.5 53.5t120 14q71 0 123.5 -14t87 -53.5t51 -114t16.5 -195.5q0 -120 -17 -194t-52 -111.5t-87 -50.5t-122 -13zM341 46q59 0 101 11.5t68.5 44.5t38.5 95.5t12 165.5q0 108 -12.5 173
t-39 97.5t-68 43.5t-100.5 11q-54 0 -95.5 -11t-69 -43.5t-41.5 -97.5t-14 -173q0 -103 11.5 -165.5t37.5 -95.5t68 -44.5t103 -11.5zM326 791l-128 135h51l111 -135h-34z" />
    <glyph glyph-name="Oacute" unicode="&#xd3;" horiz-adv-x="682" 
d="M341 -6q-69 0 -121.5 13t-87 50.5t-52 111.5t-17.5 194q0 121 17.5 195.5t53 114t87.5 53.5t120 14q71 0 123.5 -14t87 -53.5t51 -114t16.5 -195.5q0 -120 -17 -194t-52 -111.5t-87 -50.5t-122 -13zM341 46q59 0 101 11.5t68.5 44.5t38.5 95.5t12 165.5q0 108 -12.5 173
t-39 97.5t-68 43.5t-100.5 11q-54 0 -95.5 -11t-69 -43.5t-41.5 -97.5t-14 -173q0 -103 11.5 -165.5t37.5 -95.5t68 -44.5t103 -11.5zM328 791l110 135h52l-128 -135h-34z" />
    <glyph glyph-name="Ocircumflex" unicode="&#xd4;" horiz-adv-x="682" 
d="M341 -6q-69 0 -121.5 13t-87 50.5t-52 111.5t-17.5 194q0 121 17.5 195.5t53 114t87.5 53.5t120 14q71 0 123.5 -14t87 -53.5t51 -114t16.5 -195.5q0 -120 -17 -194t-52 -111.5t-87 -50.5t-122 -13zM341 46q59 0 101 11.5t68.5 44.5t38.5 95.5t12 165.5q0 108 -12.5 173
t-39 97.5t-68 43.5t-100.5 11q-54 0 -95.5 -11t-69 -43.5t-41.5 -97.5t-14 -173q0 -103 11.5 -165.5t37.5 -95.5t68 -44.5t103 -11.5zM197 791l126 133h42l114 -133h-37l-99 104l-109 -104h-37z" />
    <glyph glyph-name="Otilde" unicode="&#xd5;" horiz-adv-x="682" 
d="M341 -6q-69 0 -121.5 13t-87 50.5t-52 111.5t-17.5 194q0 121 17.5 195.5t53 114t87.5 53.5t120 14q71 0 123.5 -14t87 -53.5t51 -114t16.5 -195.5q0 -120 -17 -194t-52 -111.5t-87 -50.5t-122 -13zM341 46q59 0 101 11.5t68.5 44.5t38.5 95.5t12 165.5q0 108 -12.5 173
t-39 97.5t-68 43.5t-100.5 11q-54 0 -95.5 -11t-69 -43.5t-41.5 -97.5t-14 -173q0 -103 11.5 -165.5t37.5 -95.5t68 -44.5t103 -11.5zM174 812q1 38 15 59.5t35 31t43 9.5q23 0 44 -9.5t40 -23t37 -23t37 -9.5q28 0 47 17t19 50h31q-1 -47 -25.5 -74t-69.5 -27
q-22 0 -42 9.5t-39.5 23t-38.5 23t-38 9.5q-26 0 -45 -15.5t-19 -50.5h-31z" />
    <glyph glyph-name="Odieresis" unicode="&#xd6;" horiz-adv-x="682" 
d="M341 -6q-69 0 -121.5 13t-87 50.5t-52 111.5t-17.5 194q0 121 17.5 195.5t53 114t87.5 53.5t120 14q71 0 123.5 -14t87 -53.5t51 -114t16.5 -195.5q0 -120 -17 -194t-52 -111.5t-87 -50.5t-122 -13zM341 46q59 0 101 11.5t68.5 44.5t38.5 95.5t12 165.5q0 108 -12.5 173
t-39 97.5t-68 43.5t-100.5 11q-54 0 -95.5 -11t-69 -43.5t-41.5 -97.5t-14 -173q0 -103 11.5 -165.5t37.5 -95.5t68 -44.5t103 -11.5zM441 818q-14 0 -14 14v72q0 15 14 15h27q7 0 10.5 -4.5t3.5 -10.5v-72q0 -14 -14 -14h-27zM198 818q-14 0 -14 14v72q0 15 14 15h27
q7 0 10.5 -4.5t3.5 -10.5v-72q0 -14 -14 -14h-27z" />
    <glyph glyph-name="multiply" unicode="&#xd7;" horiz-adv-x="609" 
d="M445 180l35 35l-317 317l-35 -35zM163 180l-35 35l317 317l35 -35z" />
    <glyph glyph-name="Oslash" unicode="&#xd8;" horiz-adv-x="682" 
d="M77 0l484 734h45l-484 -734h-45zM341 -6q-69 0 -121.5 13t-87 50.5t-52 111.5t-17.5 194q0 121 17.5 195.5t53 114t87.5 53.5t120 14q71 0 123.5 -14t87 -53.5t51 -114t16.5 -195.5q0 -120 -17 -194t-52 -111.5t-87 -50.5t-122 -13zM341 46q59 0 101 11.5t68.5 44.5
t38.5 95.5t12 165.5q0 108 -12.5 173t-39 97.5t-68 43.5t-100.5 11q-54 0 -95.5 -11t-69 -43.5t-41.5 -97.5t-14 -173q0 -103 11.5 -165.5t37.5 -95.5t68 -44.5t103 -11.5z" />
    <glyph glyph-name="Ugrave" unicode="&#xd9;" horiz-adv-x="673" 
d="M336 -6q-61 0 -110.5 11.5t-84 37.5t-52.5 70.5t-18 111.5v509h58v-509q0 -70 24.5 -108.5t71 -54t111.5 -15.5q66 0 112 15.5t70.5 54t24.5 108.5v509h58v-509q0 -67 -17.5 -111.5t-52 -70.5t-84 -37.5t-111.5 -11.5zM319 791l-128 135h51l111 -135h-34z" />
    <glyph glyph-name="Uacute" unicode="&#xda;" horiz-adv-x="673" 
d="M336 -6q-61 0 -110.5 11.5t-84 37.5t-52.5 70.5t-18 111.5v509h58v-509q0 -70 24.5 -108.5t71 -54t111.5 -15.5q66 0 112 15.5t70.5 54t24.5 108.5v509h58v-509q0 -67 -17.5 -111.5t-52 -70.5t-84 -37.5t-111.5 -11.5zM321 791l110 135h52l-128 -135h-34z" />
    <glyph glyph-name="Ucircumflex" unicode="&#xdb;" horiz-adv-x="673" 
d="M336 -6q-61 0 -110.5 11.5t-84 37.5t-52.5 70.5t-18 111.5v509h58v-509q0 -70 24.5 -108.5t71 -54t111.5 -15.5q66 0 112 15.5t70.5 54t24.5 108.5v509h58v-509q0 -67 -17.5 -111.5t-52 -70.5t-84 -37.5t-111.5 -11.5zM190 791l126 133h42l114 -133h-37l-99 104
l-109 -104h-37z" />
    <glyph glyph-name="Udieresis" unicode="&#xdc;" horiz-adv-x="673" 
d="M336 -6q-61 0 -110.5 11.5t-84 37.5t-52.5 70.5t-18 111.5v509h58v-509q0 -70 24.5 -108.5t71 -54t111.5 -15.5q66 0 112 15.5t70.5 54t24.5 108.5v509h58v-509q0 -67 -17.5 -111.5t-52 -70.5t-84 -37.5t-111.5 -11.5zM434 818q-14 0 -14 14v72q0 15 14 15h27
q7 0 10.5 -4.5t3.5 -10.5v-72q0 -14 -14 -14h-27zM191 818q-14 0 -14 14v72q0 15 14 15h27q7 0 10.5 -4.5t3.5 -10.5v-72q0 -14 -14 -14h-27z" />
    <glyph glyph-name="Yacute" unicode="&#xdd;" horiz-adv-x="615" 
d="M278 0v250l-237 484h61l206 -426l206 426h60l-238 -484v-250h-58zM295 791l110 135h52l-128 -135h-34z" />
    <glyph glyph-name="Thorn" unicode="&#xde;" horiz-adv-x="553" 
d="M81 0v734h58v-139h182q32 0 64.5 -8.5t60.5 -30t44.5 -63.5t16.5 -110t-18 -111.5t-47 -66.5t-62.5 -31.5t-63.5 -8.5q-12 0 -36 1t-52 2.5t-52 3t-37 2.5v-174h-58zM139 218h170q38 0 70 14t51 50t19 101t-19 99t-48.5 47t-64.5 13h-178v-324z" />
    <glyph glyph-name="germandbls" unicode="&#xdf;" 
d="M389 -8q-50 0 -96 5t-71 11v37q27 -1 68.5 -3t87.5 -2q50 0 76 16.5t35 39.5t9 41v26q0 26 -16 40.5t-40 23.5t-51.5 16t-52 18.5t-40 31t-15.5 52.5q0 34 16.5 60.5t41 48.5t49 44.5t41 48.5t16.5 59q0 56 -39.5 84t-115.5 28q-77 0 -119.5 -43.5t-42.5 -126.5v-548h-58
v552q0 60 23.5 109t72.5 78t125 29q77 0 123 -21.5t66 -57.5t20 -80q0 -40 -16.5 -69t-40.5 -52t-48.5 -43t-41 -42t-16.5 -51q0 -24 15.5 -38.5t40 -22.5t52 -16t51.5 -20t40 -32.5t16 -56.5v-30q0 -37 -13 -64t-36 -44.5t-52.5 -26.5t-63.5 -9z" />
    <glyph glyph-name="agrave" unicode="&#xe0;" horiz-adv-x="543" 
d="M183 -6q-58 0 -96.5 34.5t-38.5 98.5v36q0 63 41.5 102t122.5 39h195v74q0 36 -12.5 62t-43.5 40t-89 14h-167v35q33 4 78.5 8t104.5 5q65 1 106.5 -16.5t61 -53.5t19.5 -91v-381h-44l-12 62q-3 -2 -24.5 -12.5t-55.5 -23.5t-72 -22.5t-74 -9.5zM203 40q20 -1 46.5 4.5
t53.5 13t50.5 15t38 13.5t15.5 6v181l-186 -7q-62 -2 -88.5 -31t-26.5 -73v-25q0 -36 15 -57.5t37.5 -30.5t44.5 -9zM271 631l-128 135h51l111 -135h-34z" />
    <glyph glyph-name="aacute" unicode="&#xe1;" horiz-adv-x="543" 
d="M183 -6q-58 0 -96.5 34.5t-38.5 98.5v36q0 63 41.5 102t122.5 39h195v74q0 36 -12.5 62t-43.5 40t-89 14h-167v35q33 4 78.5 8t104.5 5q65 1 106.5 -16.5t61 -53.5t19.5 -91v-381h-44l-12 62q-3 -2 -24.5 -12.5t-55.5 -23.5t-72 -22.5t-74 -9.5zM203 40q20 -1 46.5 4.5
t53.5 13t50.5 15t38 13.5t15.5 6v181l-186 -7q-62 -2 -88.5 -31t-26.5 -73v-25q0 -36 15 -57.5t37.5 -30.5t44.5 -9zM241 631l110 135h52l-128 -135h-34z" />
    <glyph glyph-name="acircumflex" unicode="&#xe2;" horiz-adv-x="543" 
d="M183 -6q-58 0 -96.5 34.5t-38.5 98.5v36q0 63 41.5 102t122.5 39h195v74q0 36 -12.5 62t-43.5 40t-89 14h-167v35q33 4 78.5 8t104.5 5q65 1 106.5 -16.5t61 -53.5t19.5 -91v-381h-44l-12 62q-3 -2 -24.5 -12.5t-55.5 -23.5t-72 -22.5t-74 -9.5zM203 40q20 -1 46.5 4.5
t53.5 13t50.5 15t38 13.5t15.5 6v181l-186 -7q-62 -2 -88.5 -31t-26.5 -73v-25q0 -36 15 -57.5t37.5 -30.5t44.5 -9zM126 631l126 133h42l114 -133h-37l-99 104l-109 -104h-37z" />
    <glyph glyph-name="atilde" unicode="&#xe3;" horiz-adv-x="543" 
d="M183 -6q-58 0 -96.5 34.5t-38.5 98.5v36q0 63 41.5 102t122.5 39h195v74q0 36 -12.5 62t-43.5 40t-89 14h-167v35q33 4 78.5 8t104.5 5q65 1 106.5 -16.5t61 -53.5t19.5 -91v-381h-44l-12 62q-3 -2 -24.5 -12.5t-55.5 -23.5t-72 -22.5t-74 -9.5zM203 40q20 -1 46.5 4.5
t53.5 13t50.5 15t38 13.5t15.5 6v181l-186 -7q-62 -2 -88.5 -31t-26.5 -73v-25q0 -36 15 -57.5t37.5 -30.5t44.5 -9zM110 652q1 38 15 59.5t35 31t43 9.5q23 0 44 -9.5t40 -23t37 -23t37 -9.5q28 0 47 17t19 50h31q-1 -47 -25.5 -74t-69.5 -27q-22 0 -42 9.5t-39.5 23
t-38.5 23t-38 9.5q-26 0 -45 -15.5t-19 -50.5h-31z" />
    <glyph glyph-name="adieresis" unicode="&#xe4;" horiz-adv-x="543" 
d="M183 -6q-58 0 -96.5 34.5t-38.5 98.5v36q0 63 41.5 102t122.5 39h195v74q0 36 -12.5 62t-43.5 40t-89 14h-167v35q33 4 78.5 8t104.5 5q65 1 106.5 -16.5t61 -53.5t19.5 -91v-381h-44l-12 62q-3 -2 -24.5 -12.5t-55.5 -23.5t-72 -22.5t-74 -9.5zM203 40q20 -1 46.5 4.5
t53.5 13t50.5 15t38 13.5t15.5 6v181l-186 -7q-62 -2 -88.5 -31t-26.5 -73v-25q0 -36 15 -57.5t37.5 -30.5t44.5 -9zM353 658q-14 0 -14 14v72q0 15 14 15h27q7 0 10.5 -4.5t3.5 -10.5v-72q0 -14 -14 -14h-27zM159 658q-15 0 -15 14v72q0 15 15 15h26q7 0 11 -4.5t4 -10.5
v-72q0 -14 -15 -14h-26z" />
    <glyph glyph-name="aring" unicode="&#xe5;" horiz-adv-x="543" 
d="M183 -6q-58 0 -96.5 34.5t-38.5 98.5v36q0 63 41.5 102t122.5 39h195v74q0 36 -12.5 62t-43.5 40t-89 14h-167v35q33 4 78.5 8t104.5 5q65 1 106.5 -16.5t61 -53.5t19.5 -91v-381h-44l-12 62q-3 -2 -24.5 -12.5t-55.5 -23.5t-72 -22.5t-74 -9.5zM203 40q20 -1 46.5 4.5
t53.5 13t50.5 15t38 13.5t15.5 6v181l-186 -7q-62 -2 -88.5 -31t-26.5 -73v-25q0 -36 15 -57.5t37.5 -30.5t44.5 -9zM270 596q-52 0 -80 22.5t-28 82.5t28 83t80 23q53 0 79.5 -23t26.5 -83t-26.5 -82.5t-79.5 -22.5zM270 623q40 0 58 16t18 62t-18 62.5t-58 16.5
q-39 0 -58.5 -16.5t-19.5 -62.5t19.5 -62t58.5 -16z" />
    <glyph glyph-name="ae" unicode="&#xe6;" horiz-adv-x="890" 
d="M185 -6q-44 0 -74.5 16.5t-46 47.5t-15.5 73v30q0 42 18.5 72.5t54 47t87.5 16.5h199v82q0 32 -12.5 58t-42.5 41.5t-83 15.5h-174v35q35 6 74.5 9t104.5 4q58 1 104.5 -23.5t63.5 -76.5q19 56 66 76.5t113 20.5q68 0 113.5 -15.5t68 -53.5t22.5 -105q0 -65 -39 -87.5
t-110 -22.5h-212q-1 -66 12.5 -108t38.5 -65.5t58 -32.5t71 -9h168v-35q-45 -6 -95.5 -8.5t-92.5 -2.5q-58 0 -95 17t-59.5 43.5t-37.5 53.5q-26 -30 -64.5 -55.5t-85.5 -42t-98 -16.5zM204 40q58 0 115 26.5t102 74.5q-4 17 -8.5 47.5t-5.5 73.5l-190 -3q-61 0 -85.5 -29
t-24.5 -69v-23q0 -37 14 -58.5t36 -30.5t47 -9zM465 296h211q28 0 50 5t34.5 19.5t12.5 45.5q0 46 -14.5 73.5t-47.5 40.5t-92 13t-92.5 -16t-47.5 -58t-14 -123z" />
    <glyph glyph-name="ccedilla" unicode="&#xe7;" horiz-adv-x="490" 
d="M272 -6q-45 0 -83 12t-66.5 41.5t-44.5 82.5t-16 136t15 136t42.5 83t66.5 41.5t87 11.5q37 0 84.5 -2.5t88.5 -8.5v-35h-160q-53 0 -89.5 -17.5t-56.5 -67t-20 -144.5q0 -90 21 -138.5t58 -66t87 -17.5h168v-35q-23 -3 -52 -6t-62 -4.5t-68 -1.5zM202 -187v24l24 2
q29 2 44.5 13.5t15.5 35.5q0 18 -14 31t-59 14l26 11q45 0 64.5 -16t19.5 -47q0 -32 -24.5 -50t-68.5 -18h-28zM213 -67l52 79h29l-53 -79h-28z" />
    <glyph glyph-name="egrave" unicode="&#xe8;" horiz-adv-x="542" 
d="M279 -6q-82 0 -129.5 25.5t-67.5 85.5t-20 163q0 105 21 164t69.5 83t129.5 24q68 0 111.5 -15.5t65 -53.5t21.5 -105q0 -45 -17.5 -72.5t-50.5 -39.5t-78 -12h-214q0 -73 14 -117t50.5 -64t107.5 -20h176v-35q-48 -5 -90.5 -8t-98.5 -3zM119 282h211q49 0 73 17.5
t24 65.5q0 50 -14.5 78t-46 39.5t-84.5 11.5q-63 0 -98.5 -18t-50 -64t-14.5 -130zM271 631l-128 135h51l111 -135h-34z" />
    <glyph glyph-name="eacute" unicode="&#xe9;" horiz-adv-x="542" 
d="M279 -6q-82 0 -129.5 25.5t-67.5 85.5t-20 163q0 105 21 164t69.5 83t129.5 24q68 0 111.5 -15.5t65 -53.5t21.5 -105q0 -45 -17.5 -72.5t-50.5 -39.5t-78 -12h-214q0 -73 14 -117t50.5 -64t107.5 -20h176v-35q-48 -5 -90.5 -8t-98.5 -3zM119 282h211q49 0 73 17.5
t24 65.5q0 50 -14.5 78t-46 39.5t-84.5 11.5q-63 0 -98.5 -18t-50 -64t-14.5 -130zM241 631l110 135h52l-128 -135h-34z" />
    <glyph glyph-name="ecircumflex" unicode="&#xea;" horiz-adv-x="542" 
d="M279 -6q-82 0 -129.5 25.5t-67.5 85.5t-20 163q0 105 21 164t69.5 83t129.5 24q68 0 111.5 -15.5t65 -53.5t21.5 -105q0 -45 -17.5 -72.5t-50.5 -39.5t-78 -12h-214q0 -73 14 -117t50.5 -64t107.5 -20h176v-35q-48 -5 -90.5 -8t-98.5 -3zM119 282h211q49 0 73 17.5
t24 65.5q0 50 -14.5 78t-46 39.5t-84.5 11.5q-63 0 -98.5 -18t-50 -64t-14.5 -130zM126 631l126 133h42l114 -133h-37l-99 104l-109 -104h-37z" />
    <glyph glyph-name="edieresis" unicode="&#xeb;" horiz-adv-x="542" 
d="M279 -6q-82 0 -129.5 25.5t-67.5 85.5t-20 163q0 105 21 164t69.5 83t129.5 24q68 0 111.5 -15.5t65 -53.5t21.5 -105q0 -45 -17.5 -72.5t-50.5 -39.5t-78 -12h-214q0 -73 14 -117t50.5 -64t107.5 -20h176v-35q-48 -5 -90.5 -8t-98.5 -3zM119 282h211q49 0 73 17.5
t24 65.5q0 50 -14.5 78t-46 39.5t-84.5 11.5q-63 0 -98.5 -18t-50 -64t-14.5 -130zM353 658q-14 0 -14 14v72q0 15 14 15h27q7 0 10.5 -4.5t3.5 -10.5v-72q0 -14 -14 -14h-27zM159 658q-15 0 -15 14v72q0 15 15 15h26q7 0 11 -4.5t4 -10.5v-72q0 -14 -15 -14h-26z" />
    <glyph glyph-name="igrave" unicode="&#xec;" horiz-adv-x="218" 
d="M82 0v533h58v-533h-58zM112 631l-128 135h51l111 -135h-34z" />
    <glyph glyph-name="iacute" unicode="&#xed;" horiz-adv-x="218" 
d="M82 0v533h58v-533h-58zM82 631l110 135h52l-128 -135h-34z" />
    <glyph glyph-name="icircumflex" unicode="&#xee;" horiz-adv-x="218" 
d="M82 0v533h58v-533h-58zM-33 631l126 133h42l114 -133h-37l-99 104l-109 -104h-37z" />
    <glyph glyph-name="idieresis" unicode="&#xef;" horiz-adv-x="218" 
d="M82 0v533h58v-533h-58zM194 658q-14 0 -14 14v72q0 15 14 15h27q7 0 10.5 -4.5t3.5 -10.5v-72q0 -14 -14 -14h-27zM0 658q-15 0 -15 14v72q0 15 15 15h26q7 0 11 -4.5t4 -10.5v-72q0 -14 -15 -14h-26z" />
    <glyph glyph-name="eth" unicode="&#xf0;" 
d="M288 -6q-55 0 -97.5 11.5t-71.5 40.5t-43 82.5t-14 136.5q0 84 14.5 137.5t43.5 82t70 39.5t92 11q47 0 83 -9.5t62 -33.5t40 -67q11 -21 22 -43.5t18.5 -50t7.5 -64.5q0 -84 -14.5 -138t-43 -83t-71.5 -40.5t-98 -11.5zM288 43q40 0 72 7.5t53 30t32.5 67t11.5 117.5
q0 74 -11.5 118.5t-32.5 66.5t-53 29.5t-72 7.5q-41 0 -72 -7.5t-52.5 -29.5t-32.5 -66.5t-11 -118.5q0 -73 11 -117.5t32.5 -67t52.5 -30t72 -7.5zM515 266l-52 14q0 126 -21.5 209t-62 133.5t-97.5 75t-128 31.5v39q83 -7 150 -34.5t114 -84.5t72 -150.5t25 -232.5z
M192 591l-9 24l324 127l9 -24z" />
    <glyph glyph-name="ntilde" unicode="&#xf1;" horiz-adv-x="586" 
d="M82 0v533h43l15 -60q40 27 92.5 48t110.5 21q56 0 92.5 -24.5t54.5 -65t18 -86.5v-366h-58v360q0 37 -15 66t-42 46t-66 17q-38 0 -68.5 -6.5t-59 -19.5t-59.5 -30v-433h-58zM132 652q1 38 15 59.5t35 31t43 9.5q23 0 44 -9.5t40 -23t37 -23t37 -9.5q28 0 47 17t19 50h31
q-1 -47 -25.5 -74t-69.5 -27q-22 0 -42 9.5t-39.5 23t-38.5 23t-38 9.5q-26 0 -45 -15.5t-19 -50.5h-31z" />
    <glyph glyph-name="ograve" unicode="&#xf2;" 
d="M288 -6q-55 0 -97.5 11.5t-71.5 41t-43 83t-14 137.5q0 85 14.5 138.5t43 82.5t71 40t97.5 11t97.5 -11t71.5 -40t43.5 -82.5t14.5 -138.5q0 -84 -14.5 -138t-43 -83t-71.5 -40.5t-98 -11.5zM288 43q40 0 72 7.5t53 30t32.5 67.5t11.5 119q0 75 -11.5 119.5t-32.5 67
t-53 30t-72 7.5q-41 0 -72 -7.5t-52.5 -30t-32.5 -67t-11 -119.5q0 -74 11 -119t32.5 -67.5t52.5 -30t72 -7.5zM289 631l-128 135h51l111 -135h-34z" />
    <glyph glyph-name="oacute" unicode="&#xf3;" 
d="M288 -6q-55 0 -97.5 11.5t-71.5 41t-43 83t-14 137.5q0 85 14.5 138.5t43 82.5t71 40t97.5 11t97.5 -11t71.5 -40t43.5 -82.5t14.5 -138.5q0 -84 -14.5 -138t-43 -83t-71.5 -40.5t-98 -11.5zM288 43q40 0 72 7.5t53 30t32.5 67.5t11.5 119q0 75 -11.5 119.5t-32.5 67
t-53 30t-72 7.5q-41 0 -72 -7.5t-52.5 -30t-32.5 -67t-11 -119.5q0 -74 11 -119t32.5 -67.5t52.5 -30t72 -7.5zM259 631l110 135h52l-128 -135h-34z" />
    <glyph glyph-name="ocircumflex" unicode="&#xf4;" 
d="M288 -6q-55 0 -97.5 11.5t-71.5 41t-43 83t-14 137.5q0 85 14.5 138.5t43 82.5t71 40t97.5 11t97.5 -11t71.5 -40t43.5 -82.5t14.5 -138.5q0 -84 -14.5 -138t-43 -83t-71.5 -40.5t-98 -11.5zM288 43q40 0 72 7.5t53 30t32.5 67.5t11.5 119q0 75 -11.5 119.5t-32.5 67
t-53 30t-72 7.5q-41 0 -72 -7.5t-52.5 -30t-32.5 -67t-11 -119.5q0 -74 11 -119t32.5 -67.5t52.5 -30t72 -7.5zM144 631l126 133h42l114 -133h-37l-99 104l-109 -104h-37z" />
    <glyph glyph-name="otilde" unicode="&#xf5;" 
d="M288 -6q-55 0 -97.5 11.5t-71.5 41t-43 83t-14 137.5q0 85 14.5 138.5t43 82.5t71 40t97.5 11t97.5 -11t71.5 -40t43.5 -82.5t14.5 -138.5q0 -84 -14.5 -138t-43 -83t-71.5 -40.5t-98 -11.5zM288 43q40 0 72 7.5t53 30t32.5 67.5t11.5 119q0 75 -11.5 119.5t-32.5 67
t-53 30t-72 7.5q-41 0 -72 -7.5t-52.5 -30t-32.5 -67t-11 -119.5q0 -74 11 -119t32.5 -67.5t52.5 -30t72 -7.5zM128 652q1 38 15 59.5t35 31t43 9.5q23 0 44 -9.5t40 -23t37 -23t37 -9.5q28 0 47 17t19 50h31q-1 -47 -25.5 -74t-69.5 -27q-22 0 -42 9.5t-39.5 23t-38.5 23
t-38 9.5q-26 0 -45 -15.5t-19 -50.5h-31z" />
    <glyph glyph-name="odieresis" unicode="&#xf6;" 
d="M288 -6q-55 0 -97.5 11.5t-71.5 41t-43 83t-14 137.5q0 85 14.5 138.5t43 82.5t71 40t97.5 11t97.5 -11t71.5 -40t43.5 -82.5t14.5 -138.5q0 -84 -14.5 -138t-43 -83t-71.5 -40.5t-98 -11.5zM288 43q40 0 72 7.5t53 30t32.5 67.5t11.5 119q0 75 -11.5 119.5t-32.5 67
t-53 30t-72 7.5q-41 0 -72 -7.5t-52.5 -30t-32.5 -67t-11 -119.5q0 -74 11 -119t32.5 -67.5t52.5 -30t72 -7.5zM371 658q-14 0 -14 14v72q0 15 14 15h27q7 0 10.5 -4.5t3.5 -10.5v-72q0 -14 -14 -14h-27zM177 658q-15 0 -15 14v72q0 15 15 15h26q7 0 11 -4.5t4 -10.5v-72
q0 -14 -15 -14h-26z" />
    <glyph glyph-name="divide" unicode="&#xf7;" horiz-adv-x="609" 
d="M288 509q-24 0 -24 23v41q0 25 24 25h32q25 0 25 -25v-41q0 -13 -7 -18t-18 -5h-32zM288 114q-24 0 -24 23v41q0 25 24 25h32q25 0 25 -25v-41q0 -13 -7 -18t-18 -5h-32zM80 331v50h448v-50h-448z" />
    <glyph glyph-name="oslash" unicode="&#xf8;" 
d="M59 0l425 533h35l-426 -533h-34zM288 -6q-55 0 -97.5 11.5t-71.5 41t-43 83t-14 137.5q0 85 14.5 138.5t43 82.5t71 40t97.5 11t97.5 -11t71.5 -40t43.5 -82.5t14.5 -138.5q0 -84 -14.5 -138t-43 -83t-71.5 -40.5t-98 -11.5zM288 43q40 0 72 7.5t53 30t32.5 67.5
t11.5 119q0 75 -11.5 119.5t-32.5 67t-53 30t-72 7.5q-41 0 -72 -7.5t-52.5 -30t-32.5 -67t-11 -119.5q0 -74 11 -119t32.5 -67.5t52.5 -30t72 -7.5z" />
    <glyph glyph-name="ugrave" unicode="&#xf9;" horiz-adv-x="586" 
d="M242 -6q-77 0 -119 39t-42 125v375h58v-362q0 -74 33 -99.5t95 -25.5q52 0 94 13.5t88 40.5v433h58v-533h-43l-15 60q-41 -27 -94.5 -46.5t-112.5 -19.5zM285 631l-128 135h51l111 -135h-34z" />
    <glyph glyph-name="uacute" unicode="&#xfa;" horiz-adv-x="586" 
d="M242 -6q-77 0 -119 39t-42 125v375h58v-362q0 -74 33 -99.5t95 -25.5q52 0 94 13.5t88 40.5v433h58v-533h-43l-15 60q-41 -27 -94.5 -46.5t-112.5 -19.5zM255 631l110 135h52l-128 -135h-34z" />
    <glyph glyph-name="ucircumflex" unicode="&#xfb;" horiz-adv-x="586" 
d="M242 -6q-77 0 -119 39t-42 125v375h58v-362q0 -74 33 -99.5t95 -25.5q52 0 94 13.5t88 40.5v433h58v-533h-43l-15 60q-41 -27 -94.5 -46.5t-112.5 -19.5zM140 631l126 133h42l114 -133h-37l-99 104l-109 -104h-37z" />
    <glyph glyph-name="udieresis" unicode="&#xfc;" horiz-adv-x="586" 
d="M242 -6q-77 0 -119 39t-42 125v375h58v-362q0 -74 33 -99.5t95 -25.5q52 0 94 13.5t88 40.5v433h58v-533h-43l-15 60q-41 -27 -94.5 -46.5t-112.5 -19.5zM367 658q-14 0 -14 14v72q0 15 14 15h27q7 0 10.5 -4.5t3.5 -10.5v-72q0 -14 -14 -14h-27zM173 658q-15 0 -15 14
v72q0 15 15 15h26q7 0 11 -4.5t4 -10.5v-72q0 -14 -15 -14h-26z" />
    <glyph glyph-name="yacute" unicode="&#xfd;" horiz-adv-x="533" 
d="M218 -237l71 237q-20 1 -45 10t-47.5 34.5t-39.5 74.5l-136 414h61l130 -401q12 -34 26.5 -50.5t28.5 -23t24 -7t11 -0.5l150 482h60l-206 -671l-46 -99h-42zM235 631l110 135h52l-128 -135h-34z" />
    <glyph glyph-name="thorn" unicode="&#xfe;" horiz-adv-x="576" 
d="M82 -237v1000h58v-286q17 12 47.5 27t66 25t68.5 10q52 0 88.5 -23t59.5 -62t33.5 -87t10.5 -99q0 -91 -21.5 -152.5t-64 -91.5t-106.5 -30q-46 0 -94 15.5t-88 39.5v-286h-58zM309 43q43 0 75.5 21t52 69.5t19.5 132.5q0 81 -21 130t-54.5 72t-71.5 23q-51 0 -93 -16.5
t-76 -33.5v-349q39 -22 82.5 -35.5t86.5 -13.5z" />
    <glyph glyph-name="ydieresis" unicode="&#xff;" horiz-adv-x="533" 
d="M218 -237l71 237q-20 1 -45 10t-47.5 34.5t-39.5 74.5l-136 414h61l130 -401q12 -34 26.5 -50.5t28.5 -23t24 -7t11 -0.5l150 482h60l-206 -671l-46 -99h-42zM347 658q-14 0 -14 14v72q0 15 14 15h27q7 0 10.5 -4.5t3.5 -10.5v-72q0 -14 -14 -14h-27zM153 658
q-15 0 -15 14v72q0 15 15 15h26q7 0 11 -4.5t4 -10.5v-72q0 -14 -15 -14h-26z" />
    <glyph glyph-name="Amacron" unicode="&#x100;" horiz-adv-x="671" 
d="M39 0l259 734h75l259 -734h-61l-81 228h-310l-80 -228h-61zM195 280h278l-138 402zM198 839v35h260v-35h-260z" />
    <glyph glyph-name="amacron" unicode="&#x101;" horiz-adv-x="543" 
d="M183 -6q-58 0 -96.5 34.5t-38.5 98.5v36q0 63 41.5 102t122.5 39h195v74q0 36 -12.5 62t-43.5 40t-89 14h-167v35q33 4 78.5 8t104.5 5q65 1 106.5 -16.5t61 -53.5t19.5 -91v-381h-44l-12 62q-3 -2 -24.5 -12.5t-55.5 -23.5t-72 -22.5t-74 -9.5zM203 40q20 -1 46.5 4.5
t53.5 13t50.5 15t38 13.5t15.5 6v181l-186 -7q-62 -2 -88.5 -31t-26.5 -73v-25q0 -36 15 -57.5t37.5 -30.5t44.5 -9zM138 679v35h260v-35h-260z" />
    <glyph glyph-name="Abreve" unicode="&#x102;" horiz-adv-x="671" 
d="M39 0l259 734h75l259 -734h-61l-81 228h-310l-80 -228h-61zM195 280h278l-138 402zM328 790q-33 0 -62.5 13t-47.5 43.5t-18 82.5h29q0 -61 29.5 -86t69.5 -24q44 1 72.5 25t28.5 85h29q0 -54 -18.5 -84t-48 -42.5t-63.5 -12.5z" />
    <glyph glyph-name="abreve" unicode="&#x103;" horiz-adv-x="543" 
d="M183 -6q-58 0 -96.5 34.5t-38.5 98.5v36q0 63 41.5 102t122.5 39h195v74q0 36 -12.5 62t-43.5 40t-89 14h-167v35q33 4 78.5 8t104.5 5q65 1 106.5 -16.5t61 -53.5t19.5 -91v-381h-44l-12 62q-3 -2 -24.5 -12.5t-55.5 -23.5t-72 -22.5t-74 -9.5zM203 40q20 -1 46.5 4.5
t53.5 13t50.5 15t38 13.5t15.5 6v181l-186 -7q-62 -2 -88.5 -31t-26.5 -73v-25q0 -36 15 -57.5t37.5 -30.5t44.5 -9zM263 630q-33 0 -62.5 13t-47.5 43.5t-18 82.5h29q0 -61 29.5 -86t69.5 -24q44 1 72.5 25t28.5 85h29q0 -54 -18.5 -84t-48 -42.5t-63.5 -12.5z" />
    <glyph glyph-name="Aogonek" unicode="&#x104;" horiz-adv-x="671" 
d="M39 0l259 734h75l259 -734h-61l-81 228h-310l-80 -228h-61zM195 280h278l-138 402zM599 -185q-32 0 -56 11.5t-37 31.5t-13 45q0 28 19 53.5t59 43.5h24q-34 -17 -51 -38.5t-17 -46.5q0 -32 23 -50.5t67 -18.5h6v-29q-6 -1 -12 -1.5t-12 -0.5z" />
    <glyph glyph-name="aogonek" unicode="&#x105;" horiz-adv-x="543" 
d="M183 -6q-58 0 -96.5 34.5t-38.5 98.5v36q0 63 41.5 102t122.5 39h195v74q0 36 -12.5 62t-43.5 40t-89 14h-167v35q33 4 78.5 8t104.5 5q65 1 106.5 -16.5t61 -53.5t19.5 -91v-381h-44l-12 62q-3 -2 -24.5 -12.5t-55.5 -23.5t-72 -22.5t-74 -9.5zM203 40q20 -1 46.5 4.5
t53.5 13t50.5 15t38 13.5t15.5 6v181l-186 -7q-62 -2 -88.5 -31t-26.5 -73v-25q0 -36 15 -57.5t37.5 -30.5t44.5 -9zM469 -185q-32 0 -56 11.5t-37 31.5t-13 45q0 28 19 53.5t59 43.5h24q-34 -17 -51 -38.5t-17 -46.5q0 -32 23 -50.5t67 -18.5h6v-29q-6 -1 -12 -1.5
t-12 -0.5z" />
    <glyph glyph-name="Cacute" unicode="&#x106;" horiz-adv-x="579" 
d="M320 -6q-67 0 -115.5 15t-80 54.5t-46.5 113.5t-15 192q0 111 15.5 183.5t47.5 113.5t82 57.5t119 16.5q26 0 61.5 -3t73.5 -8t70 -13v-43q-16 4 -48 7t-71.5 5.5t-78.5 2.5q-58 0 -98.5 -13.5t-65.5 -48t-37 -97t-12 -160.5q0 -103 11.5 -167t36 -97.5t64.5 -46
t97 -12.5q75 0 123.5 4.5t78.5 8.5v-43q-31 -6 -68 -11t-74 -8t-70 -3zM313 791l110 135h52l-128 -135h-34z" />
    <glyph glyph-name="cacute" unicode="&#x107;" horiz-adv-x="490" 
d="M272 -6q-45 0 -83 12t-66.5 41.5t-44.5 82.5t-16 136t15 136t42.5 83t66.5 41.5t87 11.5q37 0 84.5 -2.5t88.5 -8.5v-35h-160q-53 0 -89.5 -17.5t-56.5 -67t-20 -144.5q0 -90 21 -138.5t58 -66t87 -17.5h168v-35q-23 -3 -52 -6t-62 -4.5t-68 -1.5zM241 631l110 135h52
l-128 -135h-34z" />
    <glyph glyph-name="Ccircumflex" unicode="&#x108;" horiz-adv-x="579" 
d="M320 -6q-67 0 -115.5 15t-80 54.5t-46.5 113.5t-15 192q0 111 15.5 183.5t47.5 113.5t82 57.5t119 16.5q26 0 61.5 -3t73.5 -8t70 -13v-43q-16 4 -48 7t-71.5 5.5t-78.5 2.5q-58 0 -98.5 -13.5t-65.5 -48t-37 -97t-12 -160.5q0 -103 11.5 -167t36 -97.5t64.5 -46
t97 -12.5q75 0 123.5 4.5t78.5 8.5v-43q-31 -6 -68 -11t-74 -8t-70 -3zM182 791l126 133h42l114 -133h-37l-99 104l-109 -104h-37z" />
    <glyph glyph-name="ccircumflex" unicode="&#x109;" horiz-adv-x="490" 
d="M272 -6q-45 0 -83 12t-66.5 41.5t-44.5 82.5t-16 136t15 136t42.5 83t66.5 41.5t87 11.5q37 0 84.5 -2.5t88.5 -8.5v-35h-160q-53 0 -89.5 -17.5t-56.5 -67t-20 -144.5q0 -90 21 -138.5t58 -66t87 -17.5h168v-35q-23 -3 -52 -6t-62 -4.5t-68 -1.5zM126 631l126 133h42
l114 -133h-37l-99 104l-109 -104h-37z" />
    <glyph glyph-name="Cdotaccent" unicode="&#x10a;" horiz-adv-x="579" 
d="M320 -6q-67 0 -115.5 15t-80 54.5t-46.5 113.5t-15 192q0 111 15.5 183.5t47.5 113.5t82 57.5t119 16.5q26 0 61.5 -3t73.5 -8t70 -13v-43q-16 4 -48 7t-71.5 5.5t-78.5 2.5q-58 0 -98.5 -13.5t-65.5 -48t-37 -97t-12 -160.5q0 -103 11.5 -167t36 -97.5t64.5 -46
t97 -12.5q75 0 123.5 4.5t78.5 8.5v-43q-31 -6 -68 -11t-74 -8t-70 -3zM312 825q-15 0 -15 14v72q0 15 15 15h26q7 0 11 -4.5t4 -10.5v-72q0 -14 -15 -14h-26z" />
    <glyph glyph-name="cdotaccent" unicode="&#x10b;" horiz-adv-x="490" 
d="M272 -6q-45 0 -83 12t-66.5 41.5t-44.5 82.5t-16 136t15 136t42.5 83t66.5 41.5t87 11.5q37 0 84.5 -2.5t88.5 -8.5v-35h-160q-53 0 -89.5 -17.5t-56.5 -67t-20 -144.5q0 -90 21 -138.5t58 -66t87 -17.5h168v-35q-23 -3 -52 -6t-62 -4.5t-68 -1.5zM256 665q-15 0 -15 14
v72q0 15 15 15h26q7 0 11 -4.5t4 -10.5v-72q0 -14 -15 -14h-26z" />
    <glyph glyph-name="Ccaron" unicode="&#x10c;" horiz-adv-x="579" 
d="M320 -6q-67 0 -115.5 15t-80 54.5t-46.5 113.5t-15 192q0 111 15.5 183.5t47.5 113.5t82 57.5t119 16.5q26 0 61.5 -3t73.5 -8t70 -13v-43q-16 4 -48 7t-71.5 5.5t-78.5 2.5q-58 0 -98.5 -13.5t-65.5 -48t-37 -97t-12 -160.5q0 -103 11.5 -167t36 -97.5t64.5 -46
t97 -12.5q75 0 123.5 4.5t78.5 8.5v-43q-31 -6 -68 -11t-74 -8t-70 -3zM304 791l-114 133h37l99 -104l109 104h37l-126 -133h-42z" />
    <glyph glyph-name="ccaron" unicode="&#x10d;" horiz-adv-x="490" 
d="M272 -6q-45 0 -83 12t-66.5 41.5t-44.5 82.5t-16 136t15 136t42.5 83t66.5 41.5t87 11.5q37 0 84.5 -2.5t88.5 -8.5v-35h-160q-53 0 -89.5 -17.5t-56.5 -67t-20 -144.5q0 -90 21 -138.5t58 -66t87 -17.5h168v-35q-23 -3 -52 -6t-62 -4.5t-68 -1.5zM248 631l-114 133h37
l99 -104l109 104h37l-126 -133h-42z" />
    <glyph glyph-name="Dcaron" unicode="&#x10e;" horiz-adv-x="666" 
d="M81 0v734h284q65 0 109.5 -23t73 -69.5t41.5 -115t13 -159.5q0 -113 -26.5 -195t-79 -127t-131.5 -45h-284zM139 52h222q64 0 104 39.5t59.5 110.5t19.5 165q0 85 -10.5 145t-32.5 97.5t-56.5 55t-83.5 17.5h-222v-630zM293 791l-114 133h37l99 -104l109 104h37
l-126 -133h-42z" />
    <glyph glyph-name="dcaron" unicode="&#x10f;" horiz-adv-x="572" 
d="M254 -6q-67 0 -109.5 29t-62.5 89t-20 151q0 99 20.5 160t64.5 88.5t117 27.5q47 0 92.5 -10.5t79.5 -22.5v257h58v-763h-46l-12 55q-14 -13 -45 -27t-68 -24t-69 -10zM268 43q51 0 92.5 16t75.5 33v373q-41 12 -77 20t-82 8q-56 0 -90.5 -21t-50.5 -70.5t-16 -136.5
q0 -78 15 -127.5t47.5 -72t85.5 -22.5zM571 582l-5 142v59h54v-59l-5 -142h-44z" />
    <glyph glyph-name="Dcroat" unicode="&#x110;" horiz-adv-x="666" 
d="M16 351v42h308v-42h-308zM81 0v734h284q65 0 109.5 -23t73 -69.5t41.5 -115t13 -159.5q0 -113 -26.5 -195t-79 -127t-131.5 -45h-284zM139 52h222q64 0 104 39.5t59.5 110.5t19.5 165q0 85 -10.5 145t-32.5 97.5t-56.5 55t-83.5 17.5h-222v-630z" />
    <glyph glyph-name="dcroat" unicode="&#x111;" horiz-adv-x="572" 
d="M290 633v28h276v-28h-276zM254 -6q-67 0 -109.5 29t-62.5 89t-20 151q0 99 20.5 160t64.5 88.5t117 27.5q47 0 92.5 -10.5t79.5 -22.5v257h58v-763h-46l-12 55q-14 -13 -45 -27t-68 -24t-69 -10zM268 43q51 0 92.5 16t75.5 33v373q-41 12 -77 20t-82 8q-56 0 -90.5 -21
t-50.5 -70.5t-16 -136.5q0 -78 15 -127.5t47.5 -72t85.5 -22.5z" />
    <glyph glyph-name="Emacron" unicode="&#x112;" horiz-adv-x="584" 
d="M230 -4q-25 0 -50.5 4.5t-48 18t-36.5 41t-14 73.5v460q0 41 12 68t32 43t44.5 23t49.5 7q57 -1 108.5 -2t100 -2.5t94.5 -3.5v-45h-291q-42 0 -67 -22.5t-25 -72.5v-195l341 -5v-43l-341 -5v-194q0 -41 14.5 -61t37.5 -26.5t47 -6.5h284v-45q-46 -2 -95.5 -3.5t-98.5 -3
t-98 -2.5zM174 839v35h260v-35h-260z" />
    <glyph glyph-name="emacron" unicode="&#x113;" horiz-adv-x="542" 
d="M279 -6q-82 0 -129.5 25.5t-67.5 85.5t-20 163q0 105 21 164t69.5 83t129.5 24q68 0 111.5 -15.5t65 -53.5t21.5 -105q0 -45 -17.5 -72.5t-50.5 -39.5t-78 -12h-214q0 -73 14 -117t50.5 -64t107.5 -20h176v-35q-48 -5 -90.5 -8t-98.5 -3zM119 282h211q49 0 73 17.5
t24 65.5q0 50 -14.5 78t-46 39.5t-84.5 11.5q-63 0 -98.5 -18t-50 -64t-14.5 -130zM138 679v35h260v-35h-260z" />
    <glyph glyph-name="Ebreve" unicode="&#x114;" horiz-adv-x="584" 
d="M230 -4q-25 0 -50.5 4.5t-48 18t-36.5 41t-14 73.5v460q0 41 12 68t32 43t44.5 23t49.5 7q57 -1 108.5 -2t100 -2.5t94.5 -3.5v-45h-291q-42 0 -67 -22.5t-25 -72.5v-195l341 -5v-43l-341 -5v-194q0 -41 14.5 -61t37.5 -26.5t47 -6.5h284v-45q-46 -2 -95.5 -3.5t-98.5 -3
t-98 -2.5zM304 790q-33 0 -62.5 13t-47.5 43.5t-18 82.5h29q0 -61 29.5 -86t69.5 -24q44 1 72.5 25t28.5 85h29q0 -54 -18.5 -84t-48 -42.5t-63.5 -12.5z" />
    <glyph glyph-name="ebreve" unicode="&#x115;" horiz-adv-x="542" 
d="M279 -6q-82 0 -129.5 25.5t-67.5 85.5t-20 163q0 105 21 164t69.5 83t129.5 24q68 0 111.5 -15.5t65 -53.5t21.5 -105q0 -45 -17.5 -72.5t-50.5 -39.5t-78 -12h-214q0 -73 14 -117t50.5 -64t107.5 -20h176v-35q-48 -5 -90.5 -8t-98.5 -3zM119 282h211q49 0 73 17.5
t24 65.5q0 50 -14.5 78t-46 39.5t-84.5 11.5q-63 0 -98.5 -18t-50 -64t-14.5 -130zM263 630q-33 0 -62.5 13t-47.5 43.5t-18 82.5h29q0 -61 29.5 -86t69.5 -24q44 1 72.5 25t28.5 85h29q0 -54 -18.5 -84t-48 -42.5t-63.5 -12.5z" />
    <glyph glyph-name="Edotaccent" unicode="&#x116;" horiz-adv-x="584" 
d="M230 -4q-25 0 -50.5 4.5t-48 18t-36.5 41t-14 73.5v460q0 41 12 68t32 43t44.5 23t49.5 7q57 -1 108.5 -2t100 -2.5t94.5 -3.5v-45h-291q-42 0 -67 -22.5t-25 -72.5v-195l341 -5v-43l-341 -5v-194q0 -41 14.5 -61t37.5 -26.5t47 -6.5h284v-45q-46 -2 -95.5 -3.5t-98.5 -3
t-98 -2.5zM297 825q-15 0 -15 14v72q0 15 15 15h26q7 0 11 -4.5t4 -10.5v-72q0 -14 -15 -14h-26z" />
    <glyph glyph-name="edotaccent" unicode="&#x117;" horiz-adv-x="542" 
d="M279 -6q-82 0 -129.5 25.5t-67.5 85.5t-20 163q0 105 21 164t69.5 83t129.5 24q68 0 111.5 -15.5t65 -53.5t21.5 -105q0 -45 -17.5 -72.5t-50.5 -39.5t-78 -12h-214q0 -73 14 -117t50.5 -64t107.5 -20h176v-35q-48 -5 -90.5 -8t-98.5 -3zM119 282h211q49 0 73 17.5
t24 65.5q0 50 -14.5 78t-46 39.5t-84.5 11.5q-63 0 -98.5 -18t-50 -64t-14.5 -130zM256 665q-15 0 -15 14v72q0 15 15 15h26q7 0 11 -4.5t4 -10.5v-72q0 -14 -15 -14h-26z" />
    <glyph glyph-name="Eogonek" unicode="&#x118;" horiz-adv-x="584" 
d="M230 -4q-25 0 -50.5 4.5t-48 18t-36.5 41t-14 73.5v460q0 41 12 68t32 43t44.5 23t49.5 7q57 -1 108.5 -2t100 -2.5t94.5 -3.5v-45h-291q-42 0 -67 -22.5t-25 -72.5v-195l341 -5v-43l-341 -5v-194q0 -41 14.5 -61t37.5 -26.5t47 -6.5h284v-45q-46 -2 -95.5 -3.5t-98.5 -3
t-98 -2.5zM527 -180q-32 0 -56 11.5t-37 31.5t-13 45q0 28 19 53.5t59 43.5h24q-34 -17 -51 -38.5t-17 -46.5q0 -32 23 -50.5t67 -18.5h6v-29q-6 -1 -12 -1.5t-12 -0.5z" />
    <glyph glyph-name="eogonek" unicode="&#x119;" horiz-adv-x="542" 
d="M279 -6q-82 0 -129.5 25.5t-67.5 85.5t-20 163q0 105 21 164t69.5 83t129.5 24q68 0 111.5 -15.5t65 -53.5t21.5 -105q0 -45 -17.5 -72.5t-50.5 -39.5t-78 -12h-214q0 -73 14 -117t50.5 -64t107.5 -20h176v-35q-48 -5 -90.5 -8t-98.5 -3zM119 282h211q49 0 73 17.5
t24 65.5q0 50 -14.5 78t-46 39.5t-84.5 11.5q-63 0 -98.5 -18t-50 -64t-14.5 -130zM473 -162q-32 0 -56 11.5t-37 31.5t-13 45q0 28 19 53.5t59 43.5h24q-34 -17 -51 -38.5t-17 -46.5q0 -32 23 -50.5t67 -18.5h6v-29q-6 -1 -12 -1.5t-12 -0.5z" />
    <glyph glyph-name="Ecaron" unicode="&#x11a;" horiz-adv-x="584" 
d="M230 -4q-25 0 -50.5 4.5t-48 18t-36.5 41t-14 73.5v460q0 41 12 68t32 43t44.5 23t49.5 7q57 -1 108.5 -2t100 -2.5t94.5 -3.5v-45h-291q-42 0 -67 -22.5t-25 -72.5v-195l341 -5v-43l-341 -5v-194q0 -41 14.5 -61t37.5 -26.5t47 -6.5h284v-45q-46 -2 -95.5 -3.5t-98.5 -3
t-98 -2.5zM289 791l-114 133h37l99 -104l109 104h37l-126 -133h-42z" />
    <glyph glyph-name="ecaron" unicode="&#x11b;" horiz-adv-x="542" 
d="M279 -6q-82 0 -129.5 25.5t-67.5 85.5t-20 163q0 105 21 164t69.5 83t129.5 24q68 0 111.5 -15.5t65 -53.5t21.5 -105q0 -45 -17.5 -72.5t-50.5 -39.5t-78 -12h-214q0 -73 14 -117t50.5 -64t107.5 -20h176v-35q-48 -5 -90.5 -8t-98.5 -3zM119 282h211q49 0 73 17.5
t24 65.5q0 50 -14.5 78t-46 39.5t-84.5 11.5q-63 0 -98.5 -18t-50 -64t-14.5 -130zM248 631l-114 133h37l99 -104l109 104h37l-126 -133h-42z" />
    <glyph glyph-name="Gcircumflex" unicode="&#x11c;" horiz-adv-x="649" 
d="M302 -5q-70 -1 -116.5 20t-73.5 66.5t-38 117t-11 171.5q0 95 11.5 165t39 115.5t74.5 67.5t117 22q35 0 76.5 -2.5t82.5 -8t74 -12.5v-43q-19 2 -56 5.5t-81.5 6t-88.5 2.5q-74 0 -116 -32.5t-58.5 -102.5t-16.5 -185q0 -92 9 -153.5t30.5 -98.5t59 -52.5t95.5 -15.5
q50 0 103.5 14t92.5 30v239h-192v42q19 3 45 5t56 3.5t62 1.5q25 0 47 -1t38 -3v-379h-42l-10 52q-37 -18 -94 -37t-119 -20zM185 791l126 133h42l114 -133h-37l-99 104l-109 -104h-37z" />
    <glyph glyph-name="gcircumflex" unicode="&#x11d;" horiz-adv-x="574" 
d="M210 -244q-52 0 -91.5 14.5t-62 44t-22.5 74.5v26q0 48 26 78.5t65 46t79 15.5l12 -27q-32 0 -61 -11t-47.5 -33.5t-18.5 -60.5v-25q0 -54 36 -76t97 -22h129q68 0 106.5 26t38.5 79v23q0 30 -12 52.5t-40.5 35t-80.5 12.5h-173q-54 0 -85.5 24t-31.5 64t24 62t67 30
q-39 15 -60.5 40.5t-30 55.5t-8.5 59q0 63 25.5 100.5t71 54t104.5 16.5h284v-34l-132 -8q14 -9 32 -23.5t31.5 -43t13.5 -78.5q0 -39 -17 -76t-58 -61.5t-112 -24.5h-82q-48 0 -74.5 -13.5t-26.5 -48.5q0 -27 19 -38t40 -11h186q62 0 101.5 -16t59 -47.5t19.5 -78.5v-24
q0 -72 -49 -112t-145 -40h-146zM241 232h61q57 0 87 17.5t41 44.5t11 59q0 50 -17 79.5t-45.5 42.5t-66.5 13h-57q-63 0 -99.5 -28.5t-36.5 -98.5q0 -68 33 -98.5t89 -30.5zM145 631l126 133h42l114 -133h-37l-99 104l-109 -104h-37z" />
    <glyph glyph-name="Gbreve" unicode="&#x11e;" horiz-adv-x="649" 
d="M302 -5q-70 -1 -116.5 20t-73.5 66.5t-38 117t-11 171.5q0 95 11.5 165t39 115.5t74.5 67.5t117 22q35 0 76.5 -2.5t82.5 -8t74 -12.5v-43q-19 2 -56 5.5t-81.5 6t-88.5 2.5q-74 0 -116 -32.5t-58.5 -102.5t-16.5 -185q0 -92 9 -153.5t30.5 -98.5t59 -52.5t95.5 -15.5
q50 0 103.5 14t92.5 30v239h-192v42q19 3 45 5t56 3.5t62 1.5q25 0 47 -1t38 -3v-379h-42l-10 52q-37 -18 -94 -37t-119 -20zM322 790q-33 0 -62.5 13t-47.5 43.5t-18 82.5h29q0 -61 29.5 -86t69.5 -24q44 1 72.5 25t28.5 85h29q0 -54 -18.5 -84t-48 -42.5t-63.5 -12.5z" />
    <glyph glyph-name="gbreve" unicode="&#x11f;" horiz-adv-x="574" 
d="M210 -244q-52 0 -91.5 14.5t-62 44t-22.5 74.5v26q0 48 26 78.5t65 46t79 15.5l12 -27q-32 0 -61 -11t-47.5 -33.5t-18.5 -60.5v-25q0 -54 36 -76t97 -22h129q68 0 106.5 26t38.5 79v23q0 30 -12 52.5t-40.5 35t-80.5 12.5h-173q-54 0 -85.5 24t-31.5 64t24 62t67 30
q-39 15 -60.5 40.5t-30 55.5t-8.5 59q0 63 25.5 100.5t71 54t104.5 16.5h284v-34l-132 -8q14 -9 32 -23.5t31.5 -43t13.5 -78.5q0 -39 -17 -76t-58 -61.5t-112 -24.5h-82q-48 0 -74.5 -13.5t-26.5 -48.5q0 -27 19 -38t40 -11h186q62 0 101.5 -16t59 -47.5t19.5 -78.5v-24
q0 -72 -49 -112t-145 -40h-146zM241 232h61q57 0 87 17.5t41 44.5t11 59q0 50 -17 79.5t-45.5 42.5t-66.5 13h-57q-63 0 -99.5 -28.5t-36.5 -98.5q0 -68 33 -98.5t89 -30.5zM282 630q-33 0 -62.5 13t-47.5 43.5t-18 82.5h29q0 -61 29.5 -86t69.5 -24q44 1 72.5 25t28.5 85
h29q0 -54 -18.5 -84t-48 -42.5t-63.5 -12.5z" />
    <glyph glyph-name="Gdotaccent" unicode="&#x120;" horiz-adv-x="649" 
d="M302 -5q-70 -1 -116.5 20t-73.5 66.5t-38 117t-11 171.5q0 95 11.5 165t39 115.5t74.5 67.5t117 22q35 0 76.5 -2.5t82.5 -8t74 -12.5v-43q-19 2 -56 5.5t-81.5 6t-88.5 2.5q-74 0 -116 -32.5t-58.5 -102.5t-16.5 -185q0 -92 9 -153.5t30.5 -98.5t59 -52.5t95.5 -15.5
q50 0 103.5 14t92.5 30v239h-192v42q19 3 45 5t56 3.5t62 1.5q25 0 47 -1t38 -3v-379h-42l-10 52q-37 -18 -94 -37t-119 -20zM315 825q-15 0 -15 14v72q0 15 15 15h26q7 0 11 -4.5t4 -10.5v-72q0 -14 -15 -14h-26z" />
    <glyph glyph-name="gdotaccent" unicode="&#x121;" horiz-adv-x="574" 
d="M210 -244q-52 0 -91.5 14.5t-62 44t-22.5 74.5v26q0 48 26 78.5t65 46t79 15.5l12 -27q-32 0 -61 -11t-47.5 -33.5t-18.5 -60.5v-25q0 -54 36 -76t97 -22h129q68 0 106.5 26t38.5 79v23q0 30 -12 52.5t-40.5 35t-80.5 12.5h-173q-54 0 -85.5 24t-31.5 64t24 62t67 30
q-39 15 -60.5 40.5t-30 55.5t-8.5 59q0 63 25.5 100.5t71 54t104.5 16.5h284v-34l-132 -8q14 -9 32 -23.5t31.5 -43t13.5 -78.5q0 -39 -17 -76t-58 -61.5t-112 -24.5h-82q-48 0 -74.5 -13.5t-26.5 -48.5q0 -27 19 -38t40 -11h186q62 0 101.5 -16t59 -47.5t19.5 -78.5v-24
q0 -72 -49 -112t-145 -40h-146zM241 232h61q57 0 87 17.5t41 44.5t11 59q0 50 -17 79.5t-45.5 42.5t-66.5 13h-57q-63 0 -99.5 -28.5t-36.5 -98.5q0 -68 33 -98.5t89 -30.5zM275 665q-15 0 -15 14v72q0 15 15 15h26q7 0 11 -4.5t4 -10.5v-72q0 -14 -15 -14h-26z" />
    <glyph glyph-name="uni0122" unicode="&#x122;" horiz-adv-x="649" 
d="M302 -5q-70 -1 -116.5 20t-73.5 66.5t-38 117t-11 171.5q0 95 11.5 165t39 115.5t74.5 67.5t117 22q35 0 76.5 -2.5t82.5 -8t74 -12.5v-43q-19 2 -56 5.5t-81.5 6t-88.5 2.5q-74 0 -116 -32.5t-58.5 -102.5t-16.5 -185q0 -92 9 -153.5t30.5 -98.5t59 -52.5t95.5 -15.5
q50 0 103.5 14t92.5 30v239h-192v42q19 3 45 5t56 3.5t62 1.5q25 0 47 -1t38 -3v-379h-42l-10 52q-37 -18 -94 -37t-119 -20zM254 -198v24l31 4q25 4 41.5 11.5t24.5 29.5t7 69h37q0 -50 -8.5 -80.5t-31.5 -44t-67 -13.5h-34z" />
    <glyph glyph-name="uni0123" unicode="&#x123;" horiz-adv-x="574" 
d="M210 -244q-52 0 -91.5 14.5t-62 44t-22.5 74.5v26q0 48 26 78.5t65 46t79 15.5l12 -27q-32 0 -61 -11t-47.5 -33.5t-18.5 -60.5v-25q0 -54 36 -76t97 -22h129q68 0 106.5 26t38.5 79v23q0 30 -12 52.5t-40.5 35t-80.5 12.5h-173q-54 0 -85.5 24t-31.5 64t24 62t67 30
q-39 15 -60.5 40.5t-30 55.5t-8.5 59q0 63 25.5 100.5t71 54t104.5 16.5h284v-34l-132 -8q14 -9 32 -23.5t31.5 -43t13.5 -78.5q0 -39 -17 -76t-58 -61.5t-112 -24.5h-82q-48 0 -74.5 -13.5t-26.5 -48.5q0 -27 19 -38t40 -11h186q62 0 101.5 -16t59 -47.5t19.5 -78.5v-24
q0 -72 -49 -112t-145 -40h-146zM241 232h61q57 0 87 17.5t41 44.5t11 59q0 50 -17 79.5t-45.5 42.5t-66.5 13h-57q-63 0 -99.5 -28.5t-36.5 -98.5q0 -68 33 -98.5t89 -30.5zM240 612q0 50 9 80.5t32 44t67 13.5h34v-24l-31 -4q-24 -2 -41 -10.5t-25 -30.5t-8 -69h-37z" />
    <glyph glyph-name="Hcircumflex" unicode="&#x124;" horiz-adv-x="675" 
d="M81 0v734h58v-351h396v351h58v-734h-58v331h-396v-331h-58zM193 791l126 133h42l114 -133h-37l-99 104l-109 -104h-37z" />
    <glyph glyph-name="hcircumflex" unicode="&#x125;" horiz-adv-x="586" 
d="M82 0v763h58v-290q39 27 92.5 48t110.5 21q55 0 91.5 -24t55 -64.5t18.5 -87.5v-366h-58v361q0 36 -15 65t-42 46t-66 17q-38 0 -68.5 -7t-58.5 -19.5t-60 -29.5v-433h-58zM23 807l126 133h42l114 -133h-37l-99 104l-109 -104h-37z" />
    <glyph glyph-name="Hbar" unicode="&#x126;" horiz-adv-x="675" 
d="M16 527v37h643v-37h-643zM81 0v734h58v-351h396v351h58v-734h-58v331h-396v-331h-58z" />
    <glyph glyph-name="hbar" unicode="&#x127;" horiz-adv-x="586" 
d="M6 633v28h276v-28h-276zM82 0v763h58v-290q39 27 92.5 48t110.5 21q55 0 91.5 -24t55 -64.5t18.5 -87.5v-366h-58v361q0 36 -15 65t-42 46t-66 17q-38 0 -68.5 -7t-58.5 -19.5t-60 -29.5v-433h-58z" />
    <glyph glyph-name="Itilde" unicode="&#x128;" horiz-adv-x="221" 
d="M81 0v734h58v-734h-58zM-57 812q1 38 15 59.5t35 31t43 9.5q23 0 44 -9.5t40 -23t37 -23t37 -9.5q28 0 47 17t19 50h31q-1 -47 -25.5 -74t-69.5 -27q-22 0 -42 9.5t-39.5 23t-38.5 23t-38 9.5q-26 0 -45 -15.5t-19 -50.5h-31z" />
    <glyph glyph-name="itilde" unicode="&#x129;" horiz-adv-x="218" 
d="M82 0v533h58v-533h-58zM-50 652q1 38 15 59.5t35 31t43 9.5q23 0 44 -9.5t40 -23t37 -23t37 -9.5q28 0 47 17t19 50h31q-1 -47 -25.5 -74t-69.5 -27q-22 0 -42 9.5t-39.5 23t-38.5 23t-38 9.5q-26 0 -45 -15.5t-19 -50.5h-31z" />
    <glyph glyph-name="Imacron" unicode="&#x12a;" horiz-adv-x="221" 
d="M81 0v734h58v-734h-58zM-27 839v35h260v-35h-260z" />
    <glyph glyph-name="imacron" unicode="&#x12b;" horiz-adv-x="218" 
d="M82 0v533h58v-533h-58zM-21 679v35h260v-35h-260z" />
    <glyph glyph-name="Ibreve" unicode="&#x12c;" horiz-adv-x="221" 
d="M81 0v734h58v-734h-58zM103 790q-33 0 -62.5 13t-47.5 43.5t-18 82.5h29q0 -61 29.5 -86t69.5 -24q44 1 72.5 25t28.5 85h29q0 -54 -18.5 -84t-48 -42.5t-63.5 -12.5z" />
    <glyph glyph-name="ibreve" unicode="&#x12d;" horiz-adv-x="218" 
d="M82 0v533h58v-533h-58zM104 630q-33 0 -62.5 13t-47.5 43.5t-18 82.5h29q0 -61 29.5 -86t69.5 -24q44 1 72.5 25t28.5 85h29q0 -54 -18.5 -84t-48 -42.5t-63.5 -12.5z" />
    <glyph glyph-name="Iogonek" unicode="&#x12e;" horiz-adv-x="221" 
d="M81 0v734h58v-734h-58zM144 -185q-32 0 -56 11.5t-37 31.5t-13 45q0 28 19 53.5t59 43.5h24q-34 -17 -51 -38.5t-17 -46.5q0 -32 23 -50.5t67 -18.5h6v-29q-6 -1 -12 -1.5t-12 -0.5z" />
    <glyph glyph-name="iogonek" unicode="&#x12f;" horiz-adv-x="221" 
d="M92 633q-15 0 -15 15v71q0 15 15 15h39q7 0 10 -4t3 -11v-71q0 -15 -13 -15h-39zM82 0v533h58v-533h-58zM144 -185q-32 0 -56 11.5t-37 31.5t-13 45q0 28 19 53.5t59 43.5h24q-34 -17 -51 -38.5t-17 -46.5q0 -32 23 -50.5t67 -18.5h6v-29q-6 -1 -12 -1.5t-12 -0.5z" />
    <glyph glyph-name="Idotaccent" unicode="&#x130;" horiz-adv-x="221" 
d="M81 0v734h58v-734h-58zM96 825q-15 0 -15 14v72q0 15 15 15h26q7 0 11 -4.5t4 -10.5v-72q0 -14 -15 -14h-26z" />
    <glyph glyph-name="dotlessi" unicode="&#x131;" horiz-adv-x="218" 
d="M82 0v533h58v-533h-58z" />
    <glyph glyph-name="Jcircumflex" unicode="&#x134;" horiz-adv-x="379" 
d="M138 -6q-27 0 -59 7t-52 17v44q21 -6 50 -11t52 -5q33 0 57.5 9.5t38.5 34t14 71.5v573h58v-579q0 -60 -18 -95.5t-53 -50.5t-88 -15zM124 791l126 133h42l114 -133h-37l-99 104l-109 -104h-37z" />
    <glyph glyph-name="jcircumflex" unicode="&#x135;" horiz-adv-x="221" 
d="M82 -237v770h58v-512q0 -75 -5 -143.5t-11 -114.5h-42zM-33 631l126 133h42l114 -133h-37l-99 104l-109 -104h-37z" />
    <glyph glyph-name="uni0136" unicode="&#x136;" horiz-adv-x="593" 
d="M81 0v734h58v-341h140l216 341h62l-232 -367l234 -367h-63l-218 341h-139v-341h-58zM202 -198v24l31 4q25 4 41.5 11.5t24.5 29.5t7 69h37q0 -50 -8.5 -80.5t-31.5 -44t-67 -13.5h-34z" />
    <glyph glyph-name="uni0137" unicode="&#x137;" horiz-adv-x="492" 
d="M82 0v763h58v-451h80l177 221h63l-198 -248l209 -285h-64l-190 260h-77v-260h-58zM168 -198v24l31 4q25 4 41.5 11.5t24.5 29.5t7 69h37q0 -50 -8.5 -80.5t-31.5 -44t-67 -13.5h-34z" />
    <glyph glyph-name="kgreenlandic" unicode="&#x138;" horiz-adv-x="492" 
d="M82 0v541h58v-231h79l177 223h64l-198 -250l209 -283h-64l-190 257h-77v-257h-58z" />
    <glyph glyph-name="Lacute" unicode="&#x139;" horiz-adv-x="531" 
d="M221 0q-38 0 -70 12t-51 42.5t-19 84.5v595h58v-588q0 -39 13.5 -59t35 -26.5t43.5 -6.5h272v-54h-282zM97 791l110 135h52l-128 -135h-34z" />
    <glyph glyph-name="lacute" unicode="&#x13a;" horiz-adv-x="288" 
d="M213 -1q-42 0 -71.5 16t-44.5 53t-15 102v593h58v-587q0 -52 9.5 -79t28 -37t42.5 -13l58 -7v-41h-65zM82 871l110 135h52l-128 -135h-34z" />
    <glyph glyph-name="uni013B" unicode="&#x13b;" horiz-adv-x="531" 
d="M221 0q-38 0 -70 12t-51 42.5t-19 84.5v595h58v-588q0 -39 13.5 -59t35 -26.5t43.5 -6.5h272v-54h-282zM186 -198v24l31 4q25 4 41.5 11.5t24.5 29.5t7 69h37q0 -50 -8.5 -80.5t-31.5 -44t-67 -13.5h-34z" />
    <glyph glyph-name="uni013C" unicode="&#x13c;" horiz-adv-x="288" 
d="M213 -1q-42 0 -71.5 16t-44.5 53t-15 102v593h58v-587q0 -52 9.5 -79t28 -37t42.5 -13l58 -7v-41h-65zM78 -198v24l31 4q25 4 41.5 11.5t24.5 29.5t7 69h37q0 -50 -8.5 -80.5t-31.5 -44t-67 -13.5h-34z" />
    <glyph glyph-name="Lcaron" unicode="&#x13d;" horiz-adv-x="531" 
d="M221 0q-38 0 -70 12t-51 42.5t-19 84.5v595h58v-588q0 -39 13.5 -59t35 -26.5t43.5 -6.5h272v-54h-282zM236 582l-5 142v59h54v-59l-5 -142h-44z" />
    <glyph glyph-name="lcaron" unicode="&#x13e;" horiz-adv-x="288" 
d="M213 -1q-42 0 -71.5 16t-44.5 53t-15 102v593h58v-587q0 -52 9.5 -79t28 -37t42.5 -13l58 -7v-41h-65zM217 582l-5 142v59h54v-59l-5 -142h-44z" />
    <glyph glyph-name="Ldot" unicode="&#x13f;" horiz-adv-x="531" 
d="M221 0q-38 0 -70 12t-51 42.5t-19 84.5v595h58v-588q0 -39 13.5 -59t35 -26.5t43.5 -6.5h272v-54h-282zM369 356q-14 0 -14 14v33q0 15 14 15h31q15 0 15 -15v-33q0 -7 -4 -10.5t-11 -3.5h-31z" />
    <glyph glyph-name="ldot" unicode="&#x140;" horiz-adv-x="305" 
d="M213 -1q-42 0 -71.5 16t-44.5 53t-15 102v593h58v-587q0 -52 9.5 -79t28 -37t42.5 -13l58 -7v-41h-65zM248 348q-14 0 -14 14v33q0 15 14 15h31q15 0 15 -15v-33q0 -7 -4 -10.5t-11 -3.5h-31z" />
    <glyph glyph-name="Lslash" unicode="&#x141;" horiz-adv-x="531" 
d="M3 317v37l87 37l43 11l145 63v-36l-145 -63l-43 -12zM221 0q-38 0 -70 12t-51 42.5t-19 84.5v595h58v-588q0 -39 13.5 -59t35 -26.5t43.5 -6.5h272v-54h-282z" />
    <glyph glyph-name="lslash" unicode="&#x142;" horiz-adv-x="288" 
d="M6 362v37l76 27l58 19l106 36v-37l-106 -36l-58 -19zM213 -1q-42 0 -71.5 16t-44.5 53t-15 102v593h58v-587q0 -52 9.5 -79t28 -37t42.5 -13l58 -7v-41h-65z" />
    <glyph glyph-name="Nacute" unicode="&#x143;" horiz-adv-x="676" 
d="M97 0v734h49l406 -633v633h58v-734h-48l-407 633v-633h-58zM325 791l110 135h52l-128 -135h-34z" />
    <glyph glyph-name="nacute" unicode="&#x144;" horiz-adv-x="586" 
d="M82 0v533h43l15 -60q40 27 92.5 48t110.5 21q56 0 92.5 -24.5t54.5 -65t18 -86.5v-366h-58v360q0 37 -15 66t-42 46t-66 17q-38 0 -68.5 -6.5t-59 -19.5t-59.5 -30v-433h-58zM263 631l110 135h52l-128 -135h-34z" />
    <glyph glyph-name="uni0145" unicode="&#x145;" horiz-adv-x="676" 
d="M97 0v734h49l406 -633v633h58v-734h-48l-407 633v-633h-58zM256 -198v24l31 4q25 4 41.5 11.5t24.5 29.5t7 69h37q0 -50 -8.5 -80.5t-31.5 -44t-67 -13.5h-34z" />
    <glyph glyph-name="uni0146" unicode="&#x146;" horiz-adv-x="586" 
d="M82 0v533h43l15 -60q40 27 92.5 48t110.5 21q56 0 92.5 -24.5t54.5 -65t18 -86.5v-366h-58v360q0 37 -15 66t-42 46t-66 17q-38 0 -68.5 -6.5t-59 -19.5t-59.5 -30v-433h-58zM210 -198v24l31 4q25 4 41.5 11.5t24.5 29.5t7 69h37q0 -50 -8.5 -80.5t-31.5 -44t-67 -13.5
h-34z" />
    <glyph glyph-name="Ncaron" unicode="&#x147;" horiz-adv-x="676" 
d="M97 0v734h49l406 -633v633h58v-734h-48l-407 633v-633h-58zM316 791l-114 133h37l99 -104l109 104h37l-126 -133h-42z" />
    <glyph glyph-name="ncaron" unicode="&#x148;" horiz-adv-x="586" 
d="M82 0v533h43l15 -60q40 27 92.5 48t110.5 21q56 0 92.5 -24.5t54.5 -65t18 -86.5v-366h-58v360q0 37 -15 66t-42 46t-66 17q-38 0 -68.5 -6.5t-59 -19.5t-59.5 -30v-433h-58zM270 631l-114 133h37l99 -104l109 104h37l-126 -133h-42z" />
    <glyph glyph-name="Eng" unicode="&#x14a;" horiz-adv-x="674" 
d="M437 -243q-28 0 -59.5 7t-51.5 17v44q22 -6 51 -11t52 -5q37 0 64.5 9.5t43 34t15.5 71.5v109h58v-115q0 -60 -19.5 -95.5t-58.5 -50.5t-95 -15zM97 0v734h49l406 -633v633h58v-734h-48l-407 633v-633h-58z" />
    <glyph glyph-name="eng" unicode="&#x14b;" horiz-adv-x="586" 
d="M325 -237q37 27 65 60t44 78t16 105v191h58v-190q0 -66 -18 -113t-48 -78.5t-68 -52.5h-49zM82 0v533h43l15 -60q40 27 92.5 48t110.5 21q56 0 92.5 -24.5t54.5 -65t18 -86.5v-366h-58v360q0 37 -15 66t-42 46t-66 17q-38 0 -68.5 -6.5t-59 -19.5t-59.5 -30v-433h-58z
" />
    <glyph glyph-name="Omacron" unicode="&#x14c;" horiz-adv-x="682" 
d="M341 -6q-69 0 -121.5 13t-87 50.5t-52 111.5t-17.5 194q0 121 17.5 195.5t53 114t87.5 53.5t120 14q71 0 123.5 -14t87 -53.5t51 -114t16.5 -195.5q0 -120 -17 -194t-52 -111.5t-87 -50.5t-122 -13zM341 46q59 0 101 11.5t68.5 44.5t38.5 95.5t12 165.5q0 108 -12.5 173
t-39 97.5t-68 43.5t-100.5 11q-54 0 -95.5 -11t-69 -43.5t-41.5 -97.5t-14 -173q0 -103 11.5 -165.5t37.5 -95.5t68 -44.5t103 -11.5zM204 839v35h260v-35h-260z" />
    <glyph glyph-name="omacron" unicode="&#x14d;" 
d="M288 -6q-55 0 -97.5 11.5t-71.5 41t-43 83t-14 137.5q0 85 14.5 138.5t43 82.5t71 40t97.5 11t97.5 -11t71.5 -40t43.5 -82.5t14.5 -138.5q0 -84 -14.5 -138t-43 -83t-71.5 -40.5t-98 -11.5zM288 43q40 0 72 7.5t53 30t32.5 67.5t11.5 119q0 75 -11.5 119.5t-32.5 67
t-53 30t-72 7.5q-41 0 -72 -7.5t-52.5 -30t-32.5 -67t-11 -119.5q0 -74 11 -119t32.5 -67.5t52.5 -30t72 -7.5zM156 679v35h260v-35h-260z" />
    <glyph glyph-name="Obreve" unicode="&#x14e;" horiz-adv-x="682" 
d="M341 -6q-69 0 -121.5 13t-87 50.5t-52 111.5t-17.5 194q0 121 17.5 195.5t53 114t87.5 53.5t120 14q71 0 123.5 -14t87 -53.5t51 -114t16.5 -195.5q0 -120 -17 -194t-52 -111.5t-87 -50.5t-122 -13zM341 46q59 0 101 11.5t68.5 44.5t38.5 95.5t12 165.5q0 108 -12.5 173
t-39 97.5t-68 43.5t-100.5 11q-54 0 -95.5 -11t-69 -43.5t-41.5 -97.5t-14 -173q0 -103 11.5 -165.5t37.5 -95.5t68 -44.5t103 -11.5zM334 790q-33 0 -62.5 13t-47.5 43.5t-18 82.5h29q0 -61 29.5 -86t69.5 -24q44 1 72.5 25t28.5 85h29q0 -54 -18.5 -84t-48 -42.5
t-63.5 -12.5z" />
    <glyph glyph-name="obreve" unicode="&#x14f;" 
d="M288 -6q-55 0 -97.5 11.5t-71.5 41t-43 83t-14 137.5q0 85 14.5 138.5t43 82.5t71 40t97.5 11t97.5 -11t71.5 -40t43.5 -82.5t14.5 -138.5q0 -84 -14.5 -138t-43 -83t-71.5 -40.5t-98 -11.5zM288 43q40 0 72 7.5t53 30t32.5 67.5t11.5 119q0 75 -11.5 119.5t-32.5 67
t-53 30t-72 7.5q-41 0 -72 -7.5t-52.5 -30t-32.5 -67t-11 -119.5q0 -74 11 -119t32.5 -67.5t52.5 -30t72 -7.5zM281 630q-33 0 -62.5 13t-47.5 43.5t-18 82.5h29q0 -61 29.5 -86t69.5 -24q44 1 72.5 25t28.5 85h29q0 -54 -18.5 -84t-48 -42.5t-63.5 -12.5z" />
    <glyph glyph-name="Ohungarumlaut" unicode="&#x150;" horiz-adv-x="682" 
d="M341 -6q-69 0 -121.5 13t-87 50.5t-52 111.5t-17.5 194q0 121 17.5 195.5t53 114t87.5 53.5t120 14q71 0 123.5 -14t87 -53.5t51 -114t16.5 -195.5q0 -120 -17 -194t-52 -111.5t-87 -50.5t-122 -13zM341 46q59 0 101 11.5t68.5 44.5t38.5 95.5t12 165.5q0 108 -12.5 173
t-39 97.5t-68 43.5t-100.5 11q-54 0 -95.5 -11t-69 -43.5t-41.5 -97.5t-14 -173q0 -103 11.5 -165.5t37.5 -95.5t68 -44.5t103 -11.5zM374 791l108 135h50l-124 -135h-34zM228 791l108 135h50l-124 -135h-34z" />
    <glyph glyph-name="ohungarumlaut" unicode="&#x151;" 
d="M288 -6q-55 0 -97.5 11.5t-71.5 41t-43 83t-14 137.5q0 85 14.5 138.5t43 82.5t71 40t97.5 11t97.5 -11t71.5 -40t43.5 -82.5t14.5 -138.5q0 -84 -14.5 -138t-43 -83t-71.5 -40.5t-98 -11.5zM288 43q40 0 72 7.5t53 30t32.5 67.5t11.5 119q0 75 -11.5 119.5t-32.5 67
t-53 30t-72 7.5q-41 0 -72 -7.5t-52.5 -30t-32.5 -67t-11 -119.5q0 -74 11 -119t32.5 -67.5t52.5 -30t72 -7.5zM321 631l108 135h50l-124 -135h-34zM175 631l108 135h50l-124 -135h-34z" />
    <glyph glyph-name="OE" unicode="&#x152;" horiz-adv-x="1064" 
d="M341 -6q-69 0 -121.5 13t-87 50.5t-52 111.5t-17.5 194q0 121 17.5 195.5t53 114t87.5 53.5t120 14q71 0 123.5 -14t87 -53.5t51 -114t16.5 -195.5q0 -120 -17 -194t-52 -111.5t-87 -50.5t-122 -13zM341 46q59 0 101 11.5t68.5 44.5t38.5 95.5t12 165.5q0 108 -12.5 173
t-39 97.5t-68 43.5t-100.5 11q-54 0 -95.5 -11t-69 -43.5t-41.5 -97.5t-14 -173q0 -103 11.5 -165.5t37.5 -95.5t68 -44.5t103 -11.5zM710 -4q-25 0 -50.5 4.5t-48 18t-36.5 41t-14 73.5v460q0 41 12 68t32 43t44.5 23t49.5 7q57 -1 108.5 -2t100 -2.5t94.5 -3.5v-45h-291
q-42 0 -67 -22.5t-25 -72.5v-195l341 -5v-43l-341 -5v-194q0 -41 14.5 -61t37.5 -26.5t47 -6.5h284v-45q-46 -2 -95.5 -3.5t-98.5 -3t-98 -2.5z" />
    <glyph glyph-name="oe" unicode="&#x153;" horiz-adv-x="934" 
d="M285 -6q-55 0 -96.5 11.5t-70 41t-42.5 83t-14 137.5q0 85 14.5 138.5t43 82.5t71 40t97.5 11q53 0 93.5 -11t68 -40.5t42 -82.5t14.5 -138q0 -84 -14 -138t-42 -83t-69.5 -40.5t-95.5 -11.5zM288 41q40 0 72 7.5t53 30.5t32.5 68t11.5 120q0 76 -11.5 120.5t-32.5 67.5
t-53 30.5t-72 7.5q-41 0 -72 -7.5t-52.5 -30.5t-32.5 -67.5t-11 -120.5q0 -75 11 -120t32.5 -68t52.5 -30.5t72 -7.5zM668 -6q-69 0 -114.5 27t-68 87t-22.5 160q0 96 19.5 156t63.5 87.5t119 27.5q66 0 112 -13.5t70.5 -52t24.5 -112.5q0 -42 -17.5 -69t-49 -39t-73.5 -12
h-220q0 -106 40.5 -153.5t129.5 -47.5h178v-35q-45 -5 -91 -8t-101 -3zM511 282h211q29 0 50.5 6.5t34 24.5t12.5 52q0 56 -17 83.5t-51 36.5t-86 9q-59 0 -93 -22t-47.5 -69t-13.5 -121z" />
    <glyph glyph-name="Racute" unicode="&#x154;" horiz-adv-x="602" 
d="M81 0v734h285q33 0 66 -7.5t60 -29t43 -63.5t16 -110q0 -63 -14 -102.5t-36 -61.5t-48 -31.5t-49 -12.5l154 -316h-58l-151 310q-17 0 -44 0.5t-57 1t-59 1.5t-50 1v-314h-58zM139 358h220q27 0 51 6t43 23.5t29.5 50.5t10.5 86q0 51 -11 82t-30 47.5t-43 22.5t-50 6
h-220v-324zM278 791l110 135h52l-128 -135h-34z" />
    <glyph glyph-name="racute" unicode="&#x155;" horiz-adv-x="409" 
d="M82 0v533h43l15 -96q38 44 84.5 73t107.5 29q15 0 28 -1.5t24 -4.5v-59q-13 2 -27 4t-30 2q-39 0 -69.5 -10t-58.5 -29.5t-59 -48.5v-392h-58zM177 631l110 135h52l-128 -135h-34z" />
    <glyph glyph-name="uni0156" unicode="&#x156;" horiz-adv-x="602" 
d="M81 0v734h285q33 0 66 -7.5t60 -29t43 -63.5t16 -110q0 -63 -14 -102.5t-36 -61.5t-48 -31.5t-49 -12.5l154 -316h-58l-151 310q-17 0 -44 0.5t-57 1t-59 1.5t-50 1v-314h-58zM139 358h220q27 0 51 6t43 23.5t29.5 50.5t10.5 86q0 51 -11 82t-30 47.5t-43 22.5t-50 6
h-220v-324zM210 -198v24l31 4q25 4 41.5 11.5t24.5 29.5t7 69h37q0 -50 -8.5 -80.5t-31.5 -44t-67 -13.5h-34z" />
    <glyph glyph-name="uni0157" unicode="&#x157;" horiz-adv-x="409" 
d="M82 0v533h43l15 -96q38 44 84.5 73t107.5 29q15 0 28 -1.5t24 -4.5v-59q-13 2 -27 4t-30 2q-39 0 -69.5 -10t-58.5 -29.5t-59 -48.5v-392h-58zM29 -198v24l31 4q25 4 41.5 11.5t24.5 29.5t7 69h37q0 -50 -8.5 -80.5t-31.5 -44t-67 -13.5h-34z" />
    <glyph glyph-name="Rcaron" unicode="&#x158;" horiz-adv-x="602" 
d="M81 0v734h285q33 0 66 -7.5t60 -29t43 -63.5t16 -110q0 -63 -14 -102.5t-36 -61.5t-48 -31.5t-49 -12.5l154 -316h-58l-151 310q-17 0 -44 0.5t-57 1t-59 1.5t-50 1v-314h-58zM139 358h220q27 0 51 6t43 23.5t29.5 50.5t10.5 86q0 51 -11 82t-30 47.5t-43 22.5t-50 6
h-220v-324zM269 791l-114 133h37l99 -104l109 104h37l-126 -133h-42z" />
    <glyph glyph-name="rcaron" unicode="&#x159;" horiz-adv-x="409" 
d="M82 0v533h43l15 -96q38 44 84.5 73t107.5 29q15 0 28 -1.5t24 -4.5v-59q-13 2 -27 4t-30 2q-39 0 -69.5 -10t-58.5 -29.5t-59 -48.5v-392h-58zM184 631l-114 133h37l99 -104l109 104h37l-126 -133h-42z" />
    <glyph glyph-name="Sacute" unicode="&#x15a;" horiz-adv-x="575" 
d="M286 -6q-21 0 -50.5 1t-62 3.5t-61 5t-46.5 6.5v44q23 -2 58.5 -4t77 -3t82.5 -1q47 0 86 9.5t62 36t23 77.5v56q0 56 -28 86t-92 30h-85q-86 0 -135.5 37.5t-49.5 132.5v43q0 103 54 144.5t151 41.5q30 0 69.5 -3t77.5 -7t61 -8v-44q-43 3 -98 6.5t-105 3.5
q-48 0 -82.5 -11.5t-53 -41t-18.5 -83.5v-39q0 -67 34.5 -91.5t95.5 -24.5h89q59 0 97 -21.5t56 -59t18 -85.5v-61q0 -71 -31 -109t-82 -52.5t-112 -14.5zM268 791l110 135h52l-128 -135h-34z" />
    <glyph glyph-name="sacute" unicode="&#x15b;" horiz-adv-x="498" 
d="M262 -6q-18 0 -47 1t-61 2.5t-58 3.5t-39 4v35h213q37 0 64.5 6t43 25t15.5 59v26q0 39 -26 61.5t-82 22.5h-72q-49 0 -84.5 11.5t-55.5 39.5t-20 77v27q0 50 19.5 81t59 46.5t101.5 15.5q26 0 62 -1.5t72 -4t58 -6.5v-36h-200q-58 0 -89 -19.5t-31 -75.5v-23
q0 -35 14.5 -53t40.5 -23.5t60 -5.5h73q71 0 111.5 -33t40.5 -96v-34q0 -54 -24 -82.5t-65 -39.5t-94 -11zM209 631l110 135h52l-128 -135h-34z" />
    <glyph glyph-name="Scircumflex" unicode="&#x15c;" horiz-adv-x="575" 
d="M286 -6q-21 0 -50.5 1t-62 3.5t-61 5t-46.5 6.5v44q23 -2 58.5 -4t77 -3t82.5 -1q47 0 86 9.5t62 36t23 77.5v56q0 56 -28 86t-92 30h-85q-86 0 -135.5 37.5t-49.5 132.5v43q0 103 54 144.5t151 41.5q30 0 69.5 -3t77.5 -7t61 -8v-44q-43 3 -98 6.5t-105 3.5
q-48 0 -82.5 -11.5t-53 -41t-18.5 -83.5v-39q0 -67 34.5 -91.5t95.5 -24.5h89q59 0 97 -21.5t56 -59t18 -85.5v-61q0 -71 -31 -109t-82 -52.5t-112 -14.5zM137 791l126 133h42l114 -133h-37l-99 104l-109 -104h-37z" />
    <glyph glyph-name="scircumflex" unicode="&#x15d;" horiz-adv-x="498" 
d="M262 -6q-18 0 -47 1t-61 2.5t-58 3.5t-39 4v35h213q37 0 64.5 6t43 25t15.5 59v26q0 39 -26 61.5t-82 22.5h-72q-49 0 -84.5 11.5t-55.5 39.5t-20 77v27q0 50 19.5 81t59 46.5t101.5 15.5q26 0 62 -1.5t72 -4t58 -6.5v-36h-200q-58 0 -89 -19.5t-31 -75.5v-23
q0 -35 14.5 -53t40.5 -23.5t60 -5.5h73q71 0 111.5 -33t40.5 -96v-34q0 -54 -24 -82.5t-65 -39.5t-94 -11zM94 631l126 133h42l114 -133h-37l-99 104l-109 -104h-37z" />
    <glyph glyph-name="Scedilla" unicode="&#x15e;" horiz-adv-x="575" 
d="M286 -6q-21 0 -50.5 1t-62 3.5t-61 5t-46.5 6.5v44q23 -2 58.5 -4t77 -3t82.5 -1q47 0 86 9.5t62 36t23 77.5v56q0 56 -28 86t-92 30h-85q-86 0 -135.5 37.5t-49.5 132.5v43q0 103 54 144.5t151 41.5q30 0 69.5 -3t77.5 -7t61 -8v-44q-43 3 -98 6.5t-105 3.5
q-48 0 -82.5 -11.5t-53 -41t-18.5 -83.5v-39q0 -67 34.5 -91.5t95.5 -24.5h89q59 0 97 -21.5t56 -59t18 -85.5v-61q0 -71 -31 -109t-82 -52.5t-112 -14.5zM213 -187v24l24 2q29 2 44.5 13.5t15.5 35.5q0 18 -14 31t-59 14l26 11q45 0 64.5 -16t19.5 -47q0 -32 -24.5 -50
t-68.5 -18h-28zM224 -67l52 79h29l-53 -79h-28z" />
    <glyph glyph-name="scedilla" unicode="&#x15f;" horiz-adv-x="498" 
d="M262 -6q-18 0 -47 1t-61 2.5t-58 3.5t-39 4v35h213q37 0 64.5 6t43 25t15.5 59v26q0 39 -26 61.5t-82 22.5h-72q-49 0 -84.5 11.5t-55.5 39.5t-20 77v27q0 50 19.5 81t59 46.5t101.5 15.5q26 0 62 -1.5t72 -4t58 -6.5v-36h-200q-58 0 -89 -19.5t-31 -75.5v-23
q0 -35 14.5 -53t40.5 -23.5t60 -5.5h73q71 0 111.5 -33t40.5 -96v-34q0 -54 -24 -82.5t-65 -39.5t-94 -11zM170 -187v24l24 2q29 2 44.5 13.5t15.5 35.5q0 18 -14 31t-59 14l26 11q45 0 64.5 -16t19.5 -47q0 -32 -24.5 -50t-68.5 -18h-28zM181 -67l52 79h29l-53 -79h-28z
" />
    <glyph glyph-name="Scaron" unicode="&#x160;" horiz-adv-x="575" 
d="M286 -6q-21 0 -50.5 1t-62 3.5t-61 5t-46.5 6.5v44q23 -2 58.5 -4t77 -3t82.5 -1q47 0 86 9.5t62 36t23 77.5v56q0 56 -28 86t-92 30h-85q-86 0 -135.5 37.5t-49.5 132.5v43q0 103 54 144.5t151 41.5q30 0 69.5 -3t77.5 -7t61 -8v-44q-43 3 -98 6.5t-105 3.5
q-48 0 -82.5 -11.5t-53 -41t-18.5 -83.5v-39q0 -67 34.5 -91.5t95.5 -24.5h89q59 0 97 -21.5t56 -59t18 -85.5v-61q0 -71 -31 -109t-82 -52.5t-112 -14.5zM259 791l-114 133h37l99 -104l109 104h37l-126 -133h-42z" />
    <glyph glyph-name="scaron" unicode="&#x161;" horiz-adv-x="498" 
d="M262 -6q-18 0 -47 1t-61 2.5t-58 3.5t-39 4v35h213q37 0 64.5 6t43 25t15.5 59v26q0 39 -26 61.5t-82 22.5h-72q-49 0 -84.5 11.5t-55.5 39.5t-20 77v27q0 50 19.5 81t59 46.5t101.5 15.5q26 0 62 -1.5t72 -4t58 -6.5v-36h-200q-58 0 -89 -19.5t-31 -75.5v-23
q0 -35 14.5 -53t40.5 -23.5t60 -5.5h73q71 0 111.5 -33t40.5 -96v-34q0 -54 -24 -82.5t-65 -39.5t-94 -11zM216 631l-114 133h37l99 -104l109 104h37l-126 -133h-42z" />
    <glyph glyph-name="uni0162" unicode="&#x162;" horiz-adv-x="560" 
d="M251 0v682h-235v52h528v-52h-235v-682h-58zM212 -187v24l24 2q29 2 44.5 13.5t15.5 35.5q0 18 -14 31t-59 14l26 11q45 0 64.5 -16t19.5 -47q0 -32 -24.5 -50t-68.5 -18h-28zM223 -67l52 79h29l-53 -79h-28z" />
    <glyph glyph-name="uni0163" unicode="&#x163;" horiz-adv-x="361" 
d="M250 0q-48 0 -80.5 17t-48.5 54t-16 96l3 317h-85v38l85 11l11 149h44v-149h162v-49h-162v-317q0 -38 8.5 -61.5t22 -35.5t29 -16.5t29.5 -5.5l65 -6v-42h-67zM120 -187v24l24 2q29 2 44.5 13.5t15.5 35.5q0 18 -14 31t-59 14l26 11q45 0 64.5 -16t19.5 -47
q0 -32 -24.5 -50t-68.5 -18h-28zM131 -67l52 79h29l-53 -79h-28z" />
    <glyph glyph-name="Tcaron" unicode="&#x164;" horiz-adv-x="560" 
d="M251 0v682h-235v52h528v-52h-235v-682h-58zM258 791l-114 133h37l99 -104l109 104h37l-126 -133h-42z" />
    <glyph glyph-name="tcaron" unicode="&#x165;" horiz-adv-x="361" 
d="M250 0q-48 0 -80.5 17t-48.5 54t-16 96l3 317h-85v38l85 11l11 149h44v-149h162v-49h-162v-317q0 -38 8.5 -61.5t22 -35.5t29 -16.5t29.5 -5.5l65 -6v-42h-67zM240 582l-5 142v59h54v-59l-5 -142h-44z" />
    <glyph glyph-name="Tbar" unicode="&#x166;" horiz-adv-x="560" 
d="M70 371v37h420v-37h-420zM251 0v682h-235v52h528v-52h-235v-682h-58z" />
    <glyph glyph-name="tbar" unicode="&#x167;" horiz-adv-x="361" 
d="M23 304v27h286v-27h-286zM250 0q-48 0 -80.5 17t-48.5 54t-16 96l3 317h-85v38l85 11l11 149h44v-149h162v-49h-162v-317q0 -38 8.5 -61.5t22 -35.5t29 -16.5t29.5 -5.5l65 -6v-42h-67z" />
    <glyph glyph-name="Utilde" unicode="&#x168;" horiz-adv-x="673" 
d="M336 -6q-61 0 -110.5 11.5t-84 37.5t-52.5 70.5t-18 111.5v509h58v-509q0 -70 24.5 -108.5t71 -54t111.5 -15.5q66 0 112 15.5t70.5 54t24.5 108.5v509h58v-509q0 -67 -17.5 -111.5t-52 -70.5t-84 -37.5t-111.5 -11.5zM167 812q1 38 15 59.5t35 31t43 9.5q23 0 44 -9.5
t40 -23t37 -23t37 -9.5q28 0 47 17t19 50h31q-1 -47 -25.5 -74t-69.5 -27q-22 0 -42 9.5t-39.5 23t-38.5 23t-38 9.5q-26 0 -45 -15.5t-19 -50.5h-31z" />
    <glyph glyph-name="utilde" unicode="&#x169;" horiz-adv-x="586" 
d="M242 -6q-77 0 -119 39t-42 125v375h58v-362q0 -74 33 -99.5t95 -25.5q52 0 94 13.5t88 40.5v433h58v-533h-43l-15 60q-41 -27 -94.5 -46.5t-112.5 -19.5zM123 652q1 38 15 59.5t35 31t43 9.5q23 0 44 -9.5t40 -23t37 -23t37 -9.5q28 0 47 17t19 50h31q-1 -47 -25.5 -74
t-69.5 -27q-22 0 -42 9.5t-39.5 23t-38.5 23t-38 9.5q-26 0 -45 -15.5t-19 -50.5h-31z" />
    <glyph glyph-name="Umacron" unicode="&#x16a;" horiz-adv-x="673" 
d="M336 -6q-61 0 -110.5 11.5t-84 37.5t-52.5 70.5t-18 111.5v509h58v-509q0 -70 24.5 -108.5t71 -54t111.5 -15.5q66 0 112 15.5t70.5 54t24.5 108.5v509h58v-509q0 -67 -17.5 -111.5t-52 -70.5t-84 -37.5t-111.5 -11.5zM197 839v35h260v-35h-260z" />
    <glyph glyph-name="umacron" unicode="&#x16b;" horiz-adv-x="586" 
d="M242 -6q-77 0 -119 39t-42 125v375h58v-362q0 -74 33 -99.5t95 -25.5q52 0 94 13.5t88 40.5v433h58v-533h-43l-15 60q-41 -27 -94.5 -46.5t-112.5 -19.5zM152 679v35h260v-35h-260z" />
    <glyph glyph-name="Ubreve" unicode="&#x16c;" horiz-adv-x="673" 
d="M336 -6q-61 0 -110.5 11.5t-84 37.5t-52.5 70.5t-18 111.5v509h58v-509q0 -70 24.5 -108.5t71 -54t111.5 -15.5q66 0 112 15.5t70.5 54t24.5 108.5v509h58v-509q0 -67 -17.5 -111.5t-52 -70.5t-84 -37.5t-111.5 -11.5zM327 790q-33 0 -62.5 13t-47.5 43.5t-18 82.5h29
q0 -61 29.5 -86t69.5 -24q44 1 72.5 25t28.5 85h29q0 -54 -18.5 -84t-48 -42.5t-63.5 -12.5z" />
    <glyph glyph-name="ubreve" unicode="&#x16d;" horiz-adv-x="586" 
d="M242 -6q-77 0 -119 39t-42 125v375h58v-362q0 -74 33 -99.5t95 -25.5q52 0 94 13.5t88 40.5v433h58v-533h-43l-15 60q-41 -27 -94.5 -46.5t-112.5 -19.5zM277 630q-33 0 -62.5 13t-47.5 43.5t-18 82.5h29q0 -61 29.5 -86t69.5 -24q44 1 72.5 25t28.5 85h29
q0 -54 -18.5 -84t-48 -42.5t-63.5 -12.5z" />
    <glyph glyph-name="Uring" unicode="&#x16e;" horiz-adv-x="673" 
d="M336 -6q-61 0 -110.5 11.5t-84 37.5t-52.5 70.5t-18 111.5v509h58v-509q0 -70 24.5 -108.5t71 -54t111.5 -15.5q66 0 112 15.5t70.5 54t24.5 108.5v509h58v-509q0 -67 -17.5 -111.5t-52 -70.5t-84 -37.5t-111.5 -11.5zM334 762q-52 0 -80 22.5t-28 82.5t28 83t80 23
q53 0 79.5 -23t26.5 -83t-26.5 -82.5t-79.5 -22.5zM334 789q40 0 58 16t18 62t-18 62.5t-58 16.5q-39 0 -58.5 -16.5t-19.5 -62.5t19.5 -62t58.5 -16z" />
    <glyph glyph-name="uring" unicode="&#x16f;" horiz-adv-x="586" 
d="M242 -6q-77 0 -119 39t-42 125v375h58v-362q0 -74 33 -99.5t95 -25.5q52 0 94 13.5t88 40.5v433h58v-533h-43l-15 60q-41 -27 -94.5 -46.5t-112.5 -19.5zM284 596q-52 0 -80 22.5t-28 82.5t28 83t80 23q53 0 79.5 -23t26.5 -83t-26.5 -82.5t-79.5 -22.5zM284 623
q40 0 58 16t18 62t-18 62.5t-58 16.5q-39 0 -58.5 -16.5t-19.5 -62.5t19.5 -62t58.5 -16z" />
    <glyph glyph-name="Uhungarumlaut" unicode="&#x170;" horiz-adv-x="673" 
d="M336 -6q-61 0 -110.5 11.5t-84 37.5t-52.5 70.5t-18 111.5v509h58v-509q0 -70 24.5 -108.5t71 -54t111.5 -15.5q66 0 112 15.5t70.5 54t24.5 108.5v509h58v-509q0 -67 -17.5 -111.5t-52 -70.5t-84 -37.5t-111.5 -11.5zM367 791l108 135h50l-124 -135h-34zM221 791
l108 135h50l-124 -135h-34z" />
    <glyph glyph-name="uhungarumlaut" unicode="&#x171;" horiz-adv-x="586" 
d="M242 -6q-77 0 -119 39t-42 125v375h58v-362q0 -74 33 -99.5t95 -25.5q52 0 94 13.5t88 40.5v433h58v-533h-43l-15 60q-41 -27 -94.5 -46.5t-112.5 -19.5zM317 631l108 135h50l-124 -135h-34zM171 631l108 135h50l-124 -135h-34z" />
    <glyph glyph-name="Uogonek" unicode="&#x172;" horiz-adv-x="673" 
d="M336 -6q-61 0 -110.5 11.5t-84 37.5t-52.5 70.5t-18 111.5v509h58v-509q0 -70 24.5 -108.5t71 -54t111.5 -15.5q66 0 112 15.5t70.5 54t24.5 108.5v509h58v-509q0 -67 -17.5 -111.5t-52 -70.5t-84 -37.5t-111.5 -11.5zM424 -185q-32 0 -56 11.5t-37 31.5t-13 45
q0 28 19 53.5t59 43.5h24q-34 -17 -51 -38.5t-17 -46.5q0 -32 23 -50.5t67 -18.5h6v-29q-6 -1 -12 -1.5t-12 -0.5z" />
    <glyph glyph-name="uogonek" unicode="&#x173;" horiz-adv-x="586" 
d="M242 -6q-77 0 -119 39t-42 125v375h58v-362q0 -74 33 -99.5t95 -25.5q52 0 94 13.5t88 40.5v433h58v-533h-43l-15 60q-41 -27 -94.5 -46.5t-112.5 -19.5zM512 -185q-32 0 -56 11.5t-37 31.5t-13 45q0 28 19 53.5t59 43.5h24q-34 -17 -51 -38.5t-17 -46.5q0 -32 23 -50.5
t67 -18.5h6v-29q-6 -1 -12 -1.5t-12 -0.5z" />
    <glyph glyph-name="Wcircumflex" unicode="&#x174;" horiz-adv-x="991" 
d="M232 0l-193 734h61l170 -659l195 659h62l194 -659l171 659h60l-193 -734h-66l-197 657l-198 -657h-66zM356 791l126 133h42l114 -133h-37l-99 104l-109 -104h-37z" />
    <glyph glyph-name="wcircumflex" unicode="&#x175;" horiz-adv-x="788" 
d="M189 0l-168 533h59l145 -479l144 479h52l145 -479l142 479h59l-167 -533h-64l-142 459l-142 -459h-63zM254 631l126 133h42l114 -133h-37l-99 104l-109 -104h-37z" />
    <glyph glyph-name="Ycircumflex" unicode="&#x176;" horiz-adv-x="615" 
d="M278 0v250l-237 484h61l206 -426l206 426h60l-238 -484v-250h-58zM164 791l126 133h42l114 -133h-37l-99 104l-109 -104h-37z" />
    <glyph glyph-name="ycircumflex" unicode="&#x177;" horiz-adv-x="533" 
d="M218 -237l71 237q-20 1 -45 10t-47.5 34.5t-39.5 74.5l-136 414h61l130 -401q12 -34 26.5 -50.5t28.5 -23t24 -7t11 -0.5l150 482h60l-206 -671l-46 -99h-42zM120 631l126 133h42l114 -133h-37l-99 104l-109 -104h-37z" />
    <glyph glyph-name="Ydieresis" unicode="&#x178;" horiz-adv-x="615" 
d="M278 0v250l-237 484h61l206 -426l206 426h60l-238 -484v-250h-58zM408 818q-14 0 -14 14v72q0 15 14 15h27q7 0 10.5 -4.5t3.5 -10.5v-72q0 -14 -14 -14h-27zM165 818q-14 0 -14 14v72q0 15 14 15h27q7 0 10.5 -4.5t3.5 -10.5v-72q0 -14 -14 -14h-27z" />
    <glyph glyph-name="Zacute" unicode="&#x179;" horiz-adv-x="556" 
d="M45 0v48l402 634h-402v52h473v-48l-403 -634h403v-52h-473zM264 791l110 135h52l-128 -135h-34z" />
    <glyph glyph-name="zacute" unicode="&#x17a;" horiz-adv-x="491" 
d="M53 0v45l324 439h-331v49h399v-46l-326 -439h326v-48h-392zM205 631l110 135h52l-128 -135h-34z" />
    <glyph glyph-name="Zdotaccent" unicode="&#x17b;" horiz-adv-x="556" 
d="M45 0v48l402 634h-402v52h473v-48l-403 -634h403v-52h-473zM263 825q-15 0 -15 14v72q0 15 15 15h26q7 0 11 -4.5t4 -10.5v-72q0 -14 -15 -14h-26z" />
    <glyph glyph-name="zdotaccent" unicode="&#x17c;" horiz-adv-x="491" 
d="M53 0v45l324 439h-331v49h399v-46l-326 -439h326v-48h-392zM220 665q-15 0 -15 14v72q0 15 15 15h26q7 0 11 -4.5t4 -10.5v-72q0 -14 -15 -14h-26z" />
    <glyph glyph-name="Zcaron" unicode="&#x17d;" horiz-adv-x="556" 
d="M45 0v48l402 634h-402v52h473v-48l-403 -634h403v-52h-473zM255 791l-114 133h37l99 -104l109 104h37l-126 -133h-42z" />
    <glyph glyph-name="zcaron" unicode="&#x17e;" horiz-adv-x="491" 
d="M53 0v45l324 439h-331v49h399v-46l-326 -439h326v-48h-392zM212 631l-114 133h37l99 -104l109 104h37l-126 -133h-42z" />
    <glyph glyph-name="uni018F" unicode="&#x18f;" horiz-adv-x="606" 
d="M300 -6q-80 0 -132 33.5t-76.5 108t-24.5 198.5v46h417q0 95 -11.5 155.5t-38 93.5t-71.5 46t-114 13q-59 0 -96 -5t-59 -8v43q32 8 76 15t100 7q71 0 122.5 -14.5t85 -53.5t49.5 -111t16 -188q0 -114 -17 -188t-49 -115.5t-76.5 -58.5t-100.5 -17zM298 46q44 0 78 12.5
t57.5 44t36 87t13.5 142.5h-358q1 -105 16.5 -167.5t53.5 -90.5t103 -28z" />
    <glyph glyph-name="florin" unicode="&#x192;" horiz-adv-x="609" 
d="M107 -204q-23 0 -46.5 3t-37.5 7l7 36h68q37 0 62.5 21.5t44 73t32.5 141.5l53 332h-97l6 45h97l20 116q13 82 32.5 132t51.5 72.5t86 22.5q37 0 58.5 -3.5t31.5 -5.5l-6 -37h-70q-40 0 -64 -18t-38 -59t-26 -110l-18 -111h134l-7 -44h-133l-52 -322q-17 -105 -39.5 -169
t-57.5 -93.5t-92 -29.5z" />
    <glyph glyph-name="Ohorn" unicode="&#x1a0;" horiz-adv-x="682" 
d="M379 701v33h127q35 0 58 25t23 90h44q0 -57 -17 -89.5t-43.5 -45.5t-57.5 -13h-134zM341 -6q-69 0 -121.5 13t-87 50.5t-52 111.5t-17.5 194q0 121 17.5 195.5t53 114t87.5 53.5t120 14q71 0 123.5 -14t87 -53.5t51 -114t16.5 -195.5q0 -120 -17 -194t-52 -111.5
t-87 -50.5t-122 -13zM341 46q59 0 101 11.5t68.5 44.5t38.5 95.5t12 165.5q0 108 -12.5 173t-39 97.5t-68 43.5t-100.5 11q-54 0 -95.5 -11t-69 -43.5t-41.5 -97.5t-14 -173q0 -103 11.5 -165.5t37.5 -95.5t68 -44.5t103 -11.5z" />
    <glyph glyph-name="ohorn" unicode="&#x1a1;" 
d="M288 -6q-55 0 -97.5 11.5t-71.5 41t-43 83t-14 137.5q0 85 14.5 138.5t43 82.5t71 40t97.5 11t97.5 -11t71.5 -40t43.5 -82.5t14.5 -138.5q0 -84 -14.5 -138t-43 -83t-71.5 -40.5t-98 -11.5zM288 43q40 0 72 7.5t53 30t32.5 67.5t11.5 119q0 75 -11.5 119.5t-32.5 67
t-53 30t-72 7.5q-41 0 -72 -7.5t-52.5 -30t-32.5 -67t-11 -119.5q0 -74 11 -119t32.5 -67.5t52.5 -30t72 -7.5zM326 499v34h97q36 0 58.5 25t22.5 89h44q0 -57 -16.5 -89t-43.5 -45.5t-57 -13.5h-105z" />
    <glyph glyph-name="Uhorn" unicode="&#x1af;" horiz-adv-x="673" 
d="M551 701v33h25q35 0 58 25t23 90h44q0 -57 -17 -89.5t-43.5 -45.5t-57.5 -13h-32zM336 -6q-61 0 -110.5 11.5t-84 37.5t-52.5 70.5t-18 111.5v509h58v-509q0 -70 24.5 -108.5t71 -54t111.5 -15.5q66 0 112 15.5t70.5 54t24.5 108.5v509h58v-509q0 -67 -17.5 -111.5
t-52 -70.5t-84 -37.5t-111.5 -11.5z" />
    <glyph glyph-name="uhorn" unicode="&#x1b0;" horiz-adv-x="586" 
d="M462 499v34h17q36 0 58.5 25t22.5 89h44q0 -57 -16.5 -89t-43.5 -45.5t-57 -13.5h-25zM242 -6q-77 0 -119 39t-42 125v375h58v-362q0 -74 33 -99.5t95 -25.5q52 0 94 13.5t88 40.5v433h58v-533h-43l-15 60q-41 -27 -94.5 -46.5t-112.5 -19.5z" />
    <glyph glyph-name="Gcaron" unicode="&#x1e6;" horiz-adv-x="649" 
d="M302 -5q-70 -1 -116.5 20t-73.5 66.5t-38 117t-11 171.5q0 95 11.5 165t39 115.5t74.5 67.5t117 22q35 0 76.5 -2.5t82.5 -8t74 -12.5v-43q-19 2 -56 5.5t-81.5 6t-88.5 2.5q-74 0 -116 -32.5t-58.5 -102.5t-16.5 -185q0 -92 9 -153.5t30.5 -98.5t59 -52.5t95.5 -15.5
q50 0 103.5 14t92.5 30v239h-192v42q19 3 45 5t56 3.5t62 1.5q25 0 47 -1t38 -3v-379h-42l-10 52q-37 -18 -94 -37t-119 -20zM307 791l-114 133h37l99 -104l109 104h37l-126 -133h-42z" />
    <glyph glyph-name="gcaron" unicode="&#x1e7;" horiz-adv-x="574" 
d="M210 -244q-52 0 -91.5 14.5t-62 44t-22.5 74.5v26q0 48 26 78.5t65 46t79 15.5l12 -27q-32 0 -61 -11t-47.5 -33.5t-18.5 -60.5v-25q0 -54 36 -76t97 -22h129q68 0 106.5 26t38.5 79v23q0 30 -12 52.5t-40.5 35t-80.5 12.5h-173q-54 0 -85.5 24t-31.5 64t24 62t67 30
q-39 15 -60.5 40.5t-30 55.5t-8.5 59q0 63 25.5 100.5t71 54t104.5 16.5h284v-34l-132 -8q14 -9 32 -23.5t31.5 -43t13.5 -78.5q0 -39 -17 -76t-58 -61.5t-112 -24.5h-82q-48 0 -74.5 -13.5t-26.5 -48.5q0 -27 19 -38t40 -11h186q62 0 101.5 -16t59 -47.5t19.5 -78.5v-24
q0 -72 -49 -112t-145 -40h-146zM241 232h61q57 0 87 17.5t41 44.5t11 59q0 50 -17 79.5t-45.5 42.5t-66.5 13h-57q-63 0 -99.5 -28.5t-36.5 -98.5q0 -68 33 -98.5t89 -30.5zM267 631l-114 133h37l99 -104l109 104h37l-126 -133h-42z" />
    <glyph glyph-name="uni01EA" unicode="&#x1ea;" horiz-adv-x="682" 
d="M341 -6q-69 0 -121.5 13t-87 50.5t-52 111.5t-17.5 194q0 121 17.5 195.5t53 114t87.5 53.5t120 14q71 0 123.5 -14t87 -53.5t51 -114t16.5 -195.5q0 -120 -17 -194t-52 -111.5t-87 -50.5t-122 -13zM341 46q59 0 101 11.5t68.5 44.5t38.5 95.5t12 165.5q0 108 -12.5 173
t-39 97.5t-68 43.5t-100.5 11q-54 0 -95.5 -11t-69 -43.5t-41.5 -97.5t-14 -173q0 -103 11.5 -165.5t37.5 -95.5t68 -44.5t103 -11.5zM417 -185q-32 0 -56 11.5t-37 31.5t-13 45q0 28 19 53.5t59 43.5h24q-34 -17 -51 -38.5t-17 -46.5q0 -32 23 -50.5t67 -18.5h6v-29
q-6 -1 -12 -1.5t-12 -0.5z" />
    <glyph glyph-name="uni01EB" unicode="&#x1eb;" 
d="M288 -6q-55 0 -97.5 11.5t-71.5 41t-43 83t-14 137.5q0 85 14.5 138.5t43 82.5t71 40t97.5 11t97.5 -11t71.5 -40t43.5 -82.5t14.5 -138.5q0 -84 -14.5 -138t-43 -83t-71.5 -40.5t-98 -11.5zM288 43q40 0 72 7.5t53 30t32.5 67.5t11.5 119q0 75 -11.5 119.5t-32.5 67
t-53 30t-72 7.5q-41 0 -72 -7.5t-52.5 -30t-32.5 -67t-11 -119.5q0 -74 11 -119t32.5 -67.5t52.5 -30t72 -7.5zM341 -185q-32 0 -56 11.5t-37 31.5t-13 45q0 28 19 53.5t59 43.5h24q-34 -17 -51 -38.5t-17 -46.5q0 -32 23 -50.5t67 -18.5h6v-29q-6 -1 -12 -1.5t-12 -0.5z
" />
    <glyph glyph-name="Aringacute" unicode="&#x1fa;" horiz-adv-x="671" 
d="M39 0l259 734h75l259 -734h-61l-81 228h-310l-80 -228h-61zM195 280h278l-138 402zM335 762q-52 0 -80 22.5t-28 82.5t28 83t80 23q53 0 79.5 -23t26.5 -83t-26.5 -82.5t-79.5 -22.5zM335 789q40 0 58 16t18 62t-18 62.5t-58 16.5q-39 0 -58.5 -16.5t-19.5 -62.5
t19.5 -62t58.5 -16zM322 961l110 135h52l-128 -135h-34z" />
    <glyph glyph-name="aringacute" unicode="&#x1fb;" horiz-adv-x="543" 
d="M183 -6q-58 0 -96.5 34.5t-38.5 98.5v36q0 63 41.5 102t122.5 39h195v74q0 36 -12.5 62t-43.5 40t-89 14h-167v35q33 4 78.5 8t104.5 5q65 1 106.5 -16.5t61 -53.5t19.5 -91v-381h-44l-12 62q-3 -2 -24.5 -12.5t-55.5 -23.5t-72 -22.5t-74 -9.5zM203 40q20 -1 46.5 4.5
t53.5 13t50.5 15t38 13.5t15.5 6v181l-186 -7q-62 -2 -88.5 -31t-26.5 -73v-25q0 -36 15 -57.5t37.5 -30.5t44.5 -9zM270 596q-52 0 -80 22.5t-28 82.5t28 83t80 23q53 0 79.5 -23t26.5 -83t-26.5 -82.5t-79.5 -22.5zM270 623q40 0 58 16t18 62t-18 62.5t-58 16.5
q-39 0 -58.5 -16.5t-19.5 -62.5t19.5 -62t58.5 -16zM250 791l110 135h52l-128 -135h-34z" />
    <glyph glyph-name="AEacute" unicode="&#x1fc;" horiz-adv-x="958" 
d="M631 -4q-68 0 -107 26.5t-41 96.5v107h-244l-141 -226h-59l374 617q23 39 49.5 65.5t62.5 39.5t85 12q75 -1 148 -3t139 -5v-45h-284q-43 0 -59.5 -17t-16.5 -53v-220l318 -5v-43l-318 -5v-194q0 -34 12 -54.5t35 -30t55 -9.5h258v-45q-64 -2 -130 -4.5t-136 -4.5z
M266 276h217v355zM516 791l110 135h52l-128 -135h-34z" />
    <glyph glyph-name="aeacute" unicode="&#x1fd;" horiz-adv-x="890" 
d="M185 -6q-44 0 -74.5 16.5t-46 47.5t-15.5 73v30q0 42 18.5 72.5t54 47t87.5 16.5h199v82q0 32 -12.5 58t-42.5 41.5t-83 15.5h-174v35q35 6 74.5 9t104.5 4q58 1 104.5 -23.5t63.5 -76.5q19 56 66 76.5t113 20.5q68 0 113.5 -15.5t68 -53.5t22.5 -105q0 -65 -39 -87.5
t-110 -22.5h-212q-1 -66 12.5 -108t38.5 -65.5t58 -32.5t71 -9h168v-35q-45 -6 -95.5 -8.5t-92.5 -2.5q-58 0 -95 17t-59.5 43.5t-37.5 53.5q-26 -30 -64.5 -55.5t-85.5 -42t-98 -16.5zM204 40q58 0 115 26.5t102 74.5q-4 17 -8.5 47.5t-5.5 73.5l-190 -3q-61 0 -85.5 -29
t-24.5 -69v-23q0 -37 14 -58.5t36 -30.5t47 -9zM465 296h211q28 0 50 5t34.5 19.5t12.5 45.5q0 46 -14.5 73.5t-47.5 40.5t-92 13t-92.5 -16t-47.5 -58t-14 -123zM413 631l110 135h52l-128 -135h-34z" />
    <glyph glyph-name="Oslashacute" unicode="&#x1fe;" horiz-adv-x="682" 
d="M77 0l484 734h45l-484 -734h-45zM341 -6q-69 0 -121.5 13t-87 50.5t-52 111.5t-17.5 194q0 121 17.5 195.5t53 114t87.5 53.5t120 14q71 0 123.5 -14t87 -53.5t51 -114t16.5 -195.5q0 -120 -17 -194t-52 -111.5t-87 -50.5t-122 -13zM341 46q59 0 101 11.5t68.5 44.5
t38.5 95.5t12 165.5q0 108 -12.5 173t-39 97.5t-68 43.5t-100.5 11q-54 0 -95.5 -11t-69 -43.5t-41.5 -97.5t-14 -173q0 -103 11.5 -165.5t37.5 -95.5t68 -44.5t103 -11.5zM328 791l110 135h52l-128 -135h-34z" />
    <glyph glyph-name="oslashacute" unicode="&#x1ff;" 
d="M59 0l425 533h35l-426 -533h-34zM288 -6q-55 0 -97.5 11.5t-71.5 41t-43 83t-14 137.5q0 85 14.5 138.5t43 82.5t71 40t97.5 11t97.5 -11t71.5 -40t43.5 -82.5t14.5 -138.5q0 -84 -14.5 -138t-43 -83t-71.5 -40.5t-98 -11.5zM288 43q40 0 72 7.5t53 30t32.5 67.5
t11.5 119q0 75 -11.5 119.5t-32.5 67t-53 30t-72 7.5q-41 0 -72 -7.5t-52.5 -30t-32.5 -67t-11 -119.5q0 -74 11 -119t32.5 -67.5t52.5 -30t72 -7.5zM259 631l110 135h52l-128 -135h-34z" />
    <glyph glyph-name="uni0200" unicode="&#x200;" horiz-adv-x="671" 
d="M39 0l259 734h75l259 -734h-61l-81 228h-310l-80 -228h-61zM195 280h278l-138 402zM402 791l-128 135h51l111 -135h-34zM266 791l-128 135h51l111 -135h-34z" />
    <glyph glyph-name="uni0201" unicode="&#x201;" horiz-adv-x="543" 
d="M183 -6q-58 0 -96.5 34.5t-38.5 98.5v36q0 63 41.5 102t122.5 39h195v74q0 36 -12.5 62t-43.5 40t-89 14h-167v35q33 4 78.5 8t104.5 5q65 1 106.5 -16.5t61 -53.5t19.5 -91v-381h-44l-12 62q-3 -2 -24.5 -12.5t-55.5 -23.5t-72 -22.5t-74 -9.5zM203 40q20 -1 46.5 4.5
t53.5 13t50.5 15t38 13.5t15.5 6v181l-186 -7q-62 -2 -88.5 -31t-26.5 -73v-25q0 -36 15 -57.5t37.5 -30.5t44.5 -9zM342 631l-128 135h51l111 -135h-34zM206 631l-128 135h51l111 -135h-34z" />
    <glyph glyph-name="uni0202" unicode="&#x202;" horiz-adv-x="671" 
d="M39 0l259 734h75l259 -734h-61l-81 228h-310l-80 -228h-61zM195 280h278l-138 402zM332 930q33 0 62.5 -13t47.5 -43.5t18 -82.5h-29q0 61 -29.5 86t-69.5 24q-44 -1 -72.5 -25t-28.5 -85h-29q0 54 18.5 84t48 42.5t63.5 12.5z" />
    <glyph glyph-name="uni0203" unicode="&#x203;" horiz-adv-x="543" 
d="M183 -6q-58 0 -96.5 34.5t-38.5 98.5v36q0 63 41.5 102t122.5 39h195v74q0 36 -12.5 62t-43.5 40t-89 14h-167v35q33 4 78.5 8t104.5 5q65 1 106.5 -16.5t61 -53.5t19.5 -91v-381h-44l-12 62q-3 -2 -24.5 -12.5t-55.5 -23.5t-72 -22.5t-74 -9.5zM203 40q20 -1 46.5 4.5
t53.5 13t50.5 15t38 13.5t15.5 6v181l-186 -7q-62 -2 -88.5 -31t-26.5 -73v-25q0 -36 15 -57.5t37.5 -30.5t44.5 -9zM267 770q33 0 62.5 -13t47.5 -43.5t18 -82.5h-29q0 61 -29.5 86t-69.5 24q-44 -1 -72.5 -25t-28.5 -85h-29q0 54 18.5 84t48 42.5t63.5 12.5z" />
    <glyph glyph-name="uni0204" unicode="&#x204;" horiz-adv-x="584" 
d="M230 -4q-25 0 -50.5 4.5t-48 18t-36.5 41t-14 73.5v460q0 41 12 68t32 43t44.5 23t49.5 7q57 -1 108.5 -2t100 -2.5t94.5 -3.5v-45h-291q-42 0 -67 -22.5t-25 -72.5v-195l341 -5v-43l-341 -5v-194q0 -41 14.5 -61t37.5 -26.5t47 -6.5h284v-45q-46 -2 -95.5 -3.5t-98.5 -3
t-98 -2.5zM378 791l-128 135h51l111 -135h-34zM242 791l-128 135h51l111 -135h-34z" />
    <glyph glyph-name="uni0205" unicode="&#x205;" horiz-adv-x="542" 
d="M279 -6q-82 0 -129.5 25.5t-67.5 85.5t-20 163q0 105 21 164t69.5 83t129.5 24q68 0 111.5 -15.5t65 -53.5t21.5 -105q0 -45 -17.5 -72.5t-50.5 -39.5t-78 -12h-214q0 -73 14 -117t50.5 -64t107.5 -20h176v-35q-48 -5 -90.5 -8t-98.5 -3zM119 282h211q49 0 73 17.5
t24 65.5q0 50 -14.5 78t-46 39.5t-84.5 11.5q-63 0 -98.5 -18t-50 -64t-14.5 -130zM342 631l-128 135h51l111 -135h-34zM206 631l-128 135h51l111 -135h-34z" />
    <glyph glyph-name="uni0206" unicode="&#x206;" horiz-adv-x="584" 
d="M230 -4q-25 0 -50.5 4.5t-48 18t-36.5 41t-14 73.5v460q0 41 12 68t32 43t44.5 23t49.5 7q57 -1 108.5 -2t100 -2.5t94.5 -3.5v-45h-291q-42 0 -67 -22.5t-25 -72.5v-195l341 -5v-43l-341 -5v-194q0 -41 14.5 -61t37.5 -26.5t47 -6.5h284v-45q-46 -2 -95.5 -3.5t-98.5 -3
t-98 -2.5zM308 930q33 0 62.5 -13t47.5 -43.5t18 -82.5h-29q0 61 -29.5 86t-69.5 24q-44 -1 -72.5 -25t-28.5 -85h-29q0 54 18.5 84t48 42.5t63.5 12.5z" />
    <glyph glyph-name="uni0207" unicode="&#x207;" horiz-adv-x="542" 
d="M279 -6q-82 0 -129.5 25.5t-67.5 85.5t-20 163q0 105 21 164t69.5 83t129.5 24q68 0 111.5 -15.5t65 -53.5t21.5 -105q0 -45 -17.5 -72.5t-50.5 -39.5t-78 -12h-214q0 -73 14 -117t50.5 -64t107.5 -20h176v-35q-48 -5 -90.5 -8t-98.5 -3zM119 282h211q49 0 73 17.5
t24 65.5q0 50 -14.5 78t-46 39.5t-84.5 11.5q-63 0 -98.5 -18t-50 -64t-14.5 -130zM267 770q33 0 62.5 -13t47.5 -43.5t18 -82.5h-29q0 61 -29.5 86t-69.5 24q-44 -1 -72.5 -25t-28.5 -85h-29q0 54 18.5 84t48 42.5t63.5 12.5z" />
    <glyph glyph-name="uni0208" unicode="&#x208;" horiz-adv-x="221" 
d="M81 0v734h58v-734h-58zM178 791l-128 135h51l111 -135h-34zM42 791l-128 135h51l111 -135h-34z" />
    <glyph glyph-name="uni0209" unicode="&#x209;" horiz-adv-x="218" 
d="M82 0v533h58v-533h-58zM183 631l-128 135h51l111 -135h-34zM47 631l-128 135h51l111 -135h-34z" />
    <glyph glyph-name="uni020A" unicode="&#x20a;" horiz-adv-x="221" 
d="M81 0v734h58v-734h-58zM107 930q33 0 62.5 -13t47.5 -43.5t18 -82.5h-29q0 61 -29.5 86t-69.5 24q-44 -1 -72.5 -25t-28.5 -85h-29q0 54 18.5 84t48 42.5t63.5 12.5z" />
    <glyph glyph-name="uni020B" unicode="&#x20b;" horiz-adv-x="218" 
d="M82 0v533h58v-533h-58zM108 770q33 0 62.5 -13t47.5 -43.5t18 -82.5h-29q0 61 -29.5 86t-69.5 24q-44 -1 -72.5 -25t-28.5 -85h-29q0 54 18.5 84t48 42.5t63.5 12.5z" />
    <glyph glyph-name="uni020C" unicode="&#x20c;" horiz-adv-x="682" 
d="M341 -6q-69 0 -121.5 13t-87 50.5t-52 111.5t-17.5 194q0 121 17.5 195.5t53 114t87.5 53.5t120 14q71 0 123.5 -14t87 -53.5t51 -114t16.5 -195.5q0 -120 -17 -194t-52 -111.5t-87 -50.5t-122 -13zM341 46q59 0 101 11.5t68.5 44.5t38.5 95.5t12 165.5q0 108 -12.5 173
t-39 97.5t-68 43.5t-100.5 11q-54 0 -95.5 -11t-69 -43.5t-41.5 -97.5t-14 -173q0 -103 11.5 -165.5t37.5 -95.5t68 -44.5t103 -11.5zM408 791l-128 135h51l111 -135h-34zM272 791l-128 135h51l111 -135h-34z" />
    <glyph glyph-name="uni020D" unicode="&#x20d;" 
d="M288 -6q-55 0 -97.5 11.5t-71.5 41t-43 83t-14 137.5q0 85 14.5 138.5t43 82.5t71 40t97.5 11t97.5 -11t71.5 -40t43.5 -82.5t14.5 -138.5q0 -84 -14.5 -138t-43 -83t-71.5 -40.5t-98 -11.5zM288 43q40 0 72 7.5t53 30t32.5 67.5t11.5 119q0 75 -11.5 119.5t-32.5 67
t-53 30t-72 7.5q-41 0 -72 -7.5t-52.5 -30t-32.5 -67t-11 -119.5q0 -74 11 -119t32.5 -67.5t52.5 -30t72 -7.5zM360 631l-128 135h51l111 -135h-34zM224 631l-128 135h51l111 -135h-34z" />
    <glyph glyph-name="uni020E" unicode="&#x20e;" horiz-adv-x="682" 
d="M341 -6q-69 0 -121.5 13t-87 50.5t-52 111.5t-17.5 194q0 121 17.5 195.5t53 114t87.5 53.5t120 14q71 0 123.5 -14t87 -53.5t51 -114t16.5 -195.5q0 -120 -17 -194t-52 -111.5t-87 -50.5t-122 -13zM341 46q59 0 101 11.5t68.5 44.5t38.5 95.5t12 165.5q0 108 -12.5 173
t-39 97.5t-68 43.5t-100.5 11q-54 0 -95.5 -11t-69 -43.5t-41.5 -97.5t-14 -173q0 -103 11.5 -165.5t37.5 -95.5t68 -44.5t103 -11.5zM338 930q33 0 62.5 -13t47.5 -43.5t18 -82.5h-29q0 61 -29.5 86t-69.5 24q-44 -1 -72.5 -25t-28.5 -85h-29q0 54 18.5 84t48 42.5
t63.5 12.5z" />
    <glyph glyph-name="uni020F" unicode="&#x20f;" 
d="M288 -6q-55 0 -97.5 11.5t-71.5 41t-43 83t-14 137.5q0 85 14.5 138.5t43 82.5t71 40t97.5 11t97.5 -11t71.5 -40t43.5 -82.5t14.5 -138.5q0 -84 -14.5 -138t-43 -83t-71.5 -40.5t-98 -11.5zM288 43q40 0 72 7.5t53 30t32.5 67.5t11.5 119q0 75 -11.5 119.5t-32.5 67
t-53 30t-72 7.5q-41 0 -72 -7.5t-52.5 -30t-32.5 -67t-11 -119.5q0 -74 11 -119t32.5 -67.5t52.5 -30t72 -7.5zM285 770q33 0 62.5 -13t47.5 -43.5t18 -82.5h-29q0 61 -29.5 86t-69.5 24q-44 -1 -72.5 -25t-28.5 -85h-29q0 54 18.5 84t48 42.5t63.5 12.5z" />
    <glyph glyph-name="uni0210" unicode="&#x210;" horiz-adv-x="602" 
d="M81 0v734h285q33 0 66 -7.5t60 -29t43 -63.5t16 -110q0 -63 -14 -102.5t-36 -61.5t-48 -31.5t-49 -12.5l154 -316h-58l-151 310q-17 0 -44 0.5t-57 1t-59 1.5t-50 1v-314h-58zM139 358h220q27 0 51 6t43 23.5t29.5 50.5t10.5 86q0 51 -11 82t-30 47.5t-43 22.5t-50 6
h-220v-324zM358 791l-128 135h51l111 -135h-34zM222 791l-128 135h51l111 -135h-34z" />
    <glyph glyph-name="uni0211" unicode="&#x211;" horiz-adv-x="409" 
d="M82 0v533h43l15 -96q38 44 84.5 73t107.5 29q15 0 28 -1.5t24 -4.5v-59q-13 2 -27 4t-30 2q-39 0 -69.5 -10t-58.5 -29.5t-59 -48.5v-392h-58zM278 631l-128 135h51l111 -135h-34zM142 631l-128 135h51l111 -135h-34z" />
    <glyph glyph-name="uni0212" unicode="&#x212;" horiz-adv-x="602" 
d="M81 0v734h285q33 0 66 -7.5t60 -29t43 -63.5t16 -110q0 -63 -14 -102.5t-36 -61.5t-48 -31.5t-49 -12.5l154 -316h-58l-151 310q-17 0 -44 0.5t-57 1t-59 1.5t-50 1v-314h-58zM139 358h220q27 0 51 6t43 23.5t29.5 50.5t10.5 86q0 51 -11 82t-30 47.5t-43 22.5t-50 6
h-220v-324zM288 930q33 0 62.5 -13t47.5 -43.5t18 -82.5h-29q0 61 -29.5 86t-69.5 24q-44 -1 -72.5 -25t-28.5 -85h-29q0 54 18.5 84t48 42.5t63.5 12.5z" />
    <glyph glyph-name="uni0213" unicode="&#x213;" horiz-adv-x="409" 
d="M82 0v533h43l15 -96q38 44 84.5 73t107.5 29q15 0 28 -1.5t24 -4.5v-59q-13 2 -27 4t-30 2q-39 0 -69.5 -10t-58.5 -29.5t-59 -48.5v-392h-58zM203 770q33 0 62.5 -13t47.5 -43.5t18 -82.5h-29q0 61 -29.5 86t-69.5 24q-44 -1 -72.5 -25t-28.5 -85h-29q0 54 18.5 84
t48 42.5t63.5 12.5z" />
    <glyph glyph-name="uni0214" unicode="&#x214;" horiz-adv-x="673" 
d="M336 -6q-61 0 -110.5 11.5t-84 37.5t-52.5 70.5t-18 111.5v509h58v-509q0 -70 24.5 -108.5t71 -54t111.5 -15.5q66 0 112 15.5t70.5 54t24.5 108.5v509h58v-509q0 -67 -17.5 -111.5t-52 -70.5t-84 -37.5t-111.5 -11.5zM401 791l-128 135h51l111 -135h-34zM265 791
l-128 135h51l111 -135h-34z" />
    <glyph glyph-name="uni0215" unicode="&#x215;" horiz-adv-x="586" 
d="M242 -6q-77 0 -119 39t-42 125v375h58v-362q0 -74 33 -99.5t95 -25.5q52 0 94 13.5t88 40.5v433h58v-533h-43l-15 60q-41 -27 -94.5 -46.5t-112.5 -19.5zM356 631l-128 135h51l111 -135h-34zM220 631l-128 135h51l111 -135h-34z" />
    <glyph glyph-name="uni0216" unicode="&#x216;" horiz-adv-x="673" 
d="M336 -6q-61 0 -110.5 11.5t-84 37.5t-52.5 70.5t-18 111.5v509h58v-509q0 -70 24.5 -108.5t71 -54t111.5 -15.5q66 0 112 15.5t70.5 54t24.5 108.5v509h58v-509q0 -67 -17.5 -111.5t-52 -70.5t-84 -37.5t-111.5 -11.5zM331 930q33 0 62.5 -13t47.5 -43.5t18 -82.5h-29
q0 61 -29.5 86t-69.5 24q-44 -1 -72.5 -25t-28.5 -85h-29q0 54 18.5 84t48 42.5t63.5 12.5z" />
    <glyph glyph-name="uni0217" unicode="&#x217;" horiz-adv-x="586" 
d="M242 -6q-77 0 -119 39t-42 125v375h58v-362q0 -74 33 -99.5t95 -25.5q52 0 94 13.5t88 40.5v433h58v-533h-43l-15 60q-41 -27 -94.5 -46.5t-112.5 -19.5zM281 770q33 0 62.5 -13t47.5 -43.5t18 -82.5h-29q0 61 -29.5 86t-69.5 24q-44 -1 -72.5 -25t-28.5 -85h-29
q0 54 18.5 84t48 42.5t63.5 12.5z" />
    <glyph glyph-name="uni0218" unicode="&#x218;" horiz-adv-x="575" 
d="M286 -6q-21 0 -50.5 1t-62 3.5t-61 5t-46.5 6.5v44q23 -2 58.5 -4t77 -3t82.5 -1q47 0 86 9.5t62 36t23 77.5v56q0 56 -28 86t-92 30h-85q-86 0 -135.5 37.5t-49.5 132.5v43q0 103 54 144.5t151 41.5q30 0 69.5 -3t77.5 -7t61 -8v-44q-43 3 -98 6.5t-105 3.5
q-48 0 -82.5 -11.5t-53 -41t-18.5 -83.5v-39q0 -67 34.5 -91.5t95.5 -24.5h89q59 0 97 -21.5t56 -59t18 -85.5v-61q0 -71 -31 -109t-82 -52.5t-112 -14.5zM199 -198v24l31 4q25 4 41.5 11.5t24.5 29.5t7 69h37q0 -50 -8.5 -80.5t-31.5 -44t-67 -13.5h-34z" />
    <glyph glyph-name="uni0219" unicode="&#x219;" horiz-adv-x="498" 
d="M262 -6q-18 0 -47 1t-61 2.5t-58 3.5t-39 4v35h213q37 0 64.5 6t43 25t15.5 59v26q0 39 -26 61.5t-82 22.5h-72q-49 0 -84.5 11.5t-55.5 39.5t-20 77v27q0 50 19.5 81t59 46.5t101.5 15.5q26 0 62 -1.5t72 -4t58 -6.5v-36h-200q-58 0 -89 -19.5t-31 -75.5v-23
q0 -35 14.5 -53t40.5 -23.5t60 -5.5h73q71 0 111.5 -33t40.5 -96v-34q0 -54 -24 -82.5t-65 -39.5t-94 -11zM156 -198v24l31 4q25 4 41.5 11.5t24.5 29.5t7 69h37q0 -50 -8.5 -80.5t-31.5 -44t-67 -13.5h-34z" />
    <glyph glyph-name="uni021A" unicode="&#x21a;" horiz-adv-x="560" 
d="M251 0v682h-235v52h528v-52h-235v-682h-58zM162 -198v24l31 4q25 4 41.5 11.5t24.5 29.5t7 69h37q0 -50 -8.5 -80.5t-31.5 -44t-67 -13.5h-34z" />
    <glyph glyph-name="uni021B" unicode="&#x21b;" horiz-adv-x="361" 
d="M250 0q-48 0 -80.5 17t-48.5 54t-16 96l3 317h-85v38l85 11l11 149h44v-149h162v-49h-162v-317q0 -38 8.5 -61.5t22 -35.5t29 -16.5t29.5 -5.5l65 -6v-42h-67zM96 -198v24l31 4q25 4 41.5 11.5t24.5 29.5t7 69h37q0 -50 -8.5 -80.5t-31.5 -44t-67 -13.5h-34z" />
    <glyph glyph-name="uni022A" unicode="&#x22a;" horiz-adv-x="682" 
d="M341 -6q-69 0 -121.5 13t-87 50.5t-52 111.5t-17.5 194q0 121 17.5 195.5t53 114t87.5 53.5t120 14q71 0 123.5 -14t87 -53.5t51 -114t16.5 -195.5q0 -120 -17 -194t-52 -111.5t-87 -50.5t-122 -13zM341 46q59 0 101 11.5t68.5 44.5t38.5 95.5t12 165.5q0 108 -12.5 173
t-39 97.5t-68 43.5t-100.5 11q-54 0 -95.5 -11t-69 -43.5t-41.5 -97.5t-14 -173q0 -103 11.5 -165.5t37.5 -95.5t68 -44.5t103 -11.5zM457 818q-14 0 -14 14v72q0 15 14 15h27q7 0 10.5 -4.5t3.5 -10.5v-72q0 -14 -14 -14h-27zM214 818q-14 0 -14 14v72q0 15 14 15h27
q7 0 10.5 -4.5t3.5 -10.5v-72q0 -14 -14 -14h-27zM220 999v35h260v-35h-260z" />
    <glyph glyph-name="uni022B" unicode="&#x22b;" 
d="M288 -6q-55 0 -97.5 11.5t-71.5 41t-43 83t-14 137.5q0 85 14.5 138.5t43 82.5t71 40t97.5 11t97.5 -11t71.5 -40t43.5 -82.5t14.5 -138.5q0 -84 -14.5 -138t-43 -83t-71.5 -40.5t-98 -11.5zM288 43q40 0 72 7.5t53 30t32.5 67.5t11.5 119q0 75 -11.5 119.5t-32.5 67
t-53 30t-72 7.5q-41 0 -72 -7.5t-52.5 -30t-32.5 -67t-11 -119.5q0 -74 11 -119t32.5 -67.5t52.5 -30t72 -7.5zM371 658q-14 0 -14 14v72q0 15 14 15h27q7 0 10.5 -4.5t3.5 -10.5v-72q0 -14 -14 -14h-27zM177 658q-15 0 -15 14v72q0 15 15 15h26q7 0 11 -4.5t4 -10.5v-72
q0 -14 -15 -14h-26zM156 839v35h260v-35h-260z" />
    <glyph glyph-name="uni022C" unicode="&#x22c;" horiz-adv-x="682" 
d="M341 -6q-69 0 -121.5 13t-87 50.5t-52 111.5t-17.5 194q0 121 17.5 195.5t53 114t87.5 53.5t120 14q71 0 123.5 -14t87 -53.5t51 -114t16.5 -195.5q0 -120 -17 -194t-52 -111.5t-87 -50.5t-122 -13zM341 46q59 0 101 11.5t68.5 44.5t38.5 95.5t12 165.5q0 108 -12.5 173
t-39 97.5t-68 43.5t-100.5 11q-54 0 -95.5 -11t-69 -43.5t-41.5 -97.5t-14 -173q0 -103 11.5 -165.5t37.5 -95.5t68 -44.5t103 -11.5zM222 993v35h260v-35h-260zM174 812q1 38 15 59.5t35 31t43 9.5q23 0 44 -9.5t40 -23t37 -23t37 -9.5q28 0 47 17t19 50h31
q-1 -47 -25.5 -74t-69.5 -27q-22 0 -42 9.5t-39.5 23t-38.5 23t-38 9.5q-26 0 -45 -15.5t-19 -50.5h-31z" />
    <glyph glyph-name="uni022D" unicode="&#x22d;" 
d="M288 -6q-55 0 -97.5 11.5t-71.5 41t-43 83t-14 137.5q0 85 14.5 138.5t43 82.5t71 40t97.5 11t97.5 -11t71.5 -40t43.5 -82.5t14.5 -138.5q0 -84 -14.5 -138t-43 -83t-71.5 -40.5t-98 -11.5zM288 43q40 0 72 7.5t53 30t32.5 67.5t11.5 119q0 75 -11.5 119.5t-32.5 67
t-53 30t-72 7.5q-41 0 -72 -7.5t-52.5 -30t-32.5 -67t-11 -119.5q0 -74 11 -119t32.5 -67.5t52.5 -30t72 -7.5zM156 839v35h260v-35h-260zM119 652q1 38 15 59.5t35 31t43 9.5q23 0 44 -9.5t40 -23t37 -23t37 -9.5q28 0 47 17t19 50h31q-1 -47 -25.5 -74t-69.5 -27
q-22 0 -42 9.5t-39.5 23t-38.5 23t-38 9.5q-26 0 -45 -15.5t-19 -50.5h-31z" />
    <glyph glyph-name="uni0230" unicode="&#x230;" horiz-adv-x="682" 
d="M341 -6q-69 0 -121.5 13t-87 50.5t-52 111.5t-17.5 194q0 121 17.5 195.5t53 114t87.5 53.5t120 14q71 0 123.5 -14t87 -53.5t51 -114t16.5 -195.5q0 -120 -17 -194t-52 -111.5t-87 -50.5t-122 -13zM341 46q59 0 101 11.5t68.5 44.5t38.5 95.5t12 165.5q0 108 -12.5 173
t-39 97.5t-68 43.5t-100.5 11q-54 0 -95.5 -11t-69 -43.5t-41.5 -97.5t-14 -173q0 -103 11.5 -165.5t37.5 -95.5t68 -44.5t103 -11.5zM327 825q-15 0 -15 14v72q0 15 15 15h26q7 0 11 -4.5t4 -10.5v-72q0 -14 -15 -14h-26zM204 991v35h260v-35h-260z" />
    <glyph glyph-name="uni0231" unicode="&#x231;" 
d="M288 -6q-55 0 -97.5 11.5t-71.5 41t-43 83t-14 137.5q0 85 14.5 138.5t43 82.5t71 40t97.5 11t97.5 -11t71.5 -40t43.5 -82.5t14.5 -138.5q0 -84 -14.5 -138t-43 -83t-71.5 -40.5t-98 -11.5zM288 43q40 0 72 7.5t53 30t32.5 67.5t11.5 119q0 75 -11.5 119.5t-32.5 67
t-53 30t-72 7.5q-41 0 -72 -7.5t-52.5 -30t-32.5 -67t-11 -119.5q0 -74 11 -119t32.5 -67.5t52.5 -30t72 -7.5zM274 665q-15 0 -15 14v72q0 15 15 15h26q7 0 11 -4.5t4 -10.5v-72q0 -14 -15 -14h-26zM156 831v35h260v-35h-260z" />
    <glyph glyph-name="uni0232" unicode="&#x232;" horiz-adv-x="615" 
d="M278 0v250l-237 484h61l206 -426l206 426h60l-238 -484v-250h-58zM171 839v35h260v-35h-260z" />
    <glyph glyph-name="uni0233" unicode="&#x233;" horiz-adv-x="533" 
d="M218 -237l71 237q-20 1 -45 10t-47.5 34.5t-39.5 74.5l-136 414h61l130 -401q12 -34 26.5 -50.5t28.5 -23t24 -7t11 -0.5l150 482h60l-206 -671l-46 -99h-42zM132 679v35h260v-35h-260z" />
    <glyph glyph-name="uni0237" unicode="&#x237;" horiz-adv-x="221" 
d="M82 -237v770h58v-512q0 -75 -5 -143.5t-11 -114.5h-42z" />
    <glyph glyph-name="uni0259" unicode="&#x259;" horiz-adv-x="542" 
d="M263 539q82 0 129.5 -25.5t67.5 -85.5t20 -163q0 -105 -21 -164t-69.5 -83t-129.5 -24q-68 0 -111.5 15.5t-65 53.5t-21.5 105q0 45 17.5 72.5t50.5 39.5t78 12h214q0 73 -14 117t-50.5 64t-107.5 20h-176v35q48 5 90.5 8t98.5 3zM423 251h-211q-49 0 -73 -17.5
t-24 -65.5q0 -50 14.5 -78t46 -39.5t84.5 -11.5q63 0 98.5 18t50 64t14.5 130z" />
    <glyph glyph-name="uni02B9" unicode="&#x2b9;" horiz-adv-x="123" 
d="M43 763h54l-30 -296h-40z" />
    <glyph glyph-name="uni02BA" unicode="&#x2ba;" horiz-adv-x="231" 
d="M43 763h54l-30 -296h-40zM151 763h54l-30 -296h-40z" />
    <glyph glyph-name="uni02BB" unicode="&#x2bb;" horiz-adv-x="143" 
d="M81 741q7 0 12.5 -1.5l5.5 -1.5v-17q-11 0 -15 -3.5t-4 -12.5v-42h7q6 0 10 -4t4 -11v-68q0 -15 -14 -15h-31q-8 0 -11 4t-3 11v118q0 18 6 27.5t15 12.5t18 3z" />
    <glyph glyph-name="uni02BC" unicode="&#x2bc;" horiz-adv-x="185" 
d="M73 535q-5 0 -8 0.5t-7 1.5v20q12 0 16.5 6t4.5 15v57h-8q-7 0 -11.5 4.5t-4.5 13.5v73q0 18 16 18h34q7 0 9.5 -5t2.5 -13v-139q0 -23 -7.5 -34t-17.5 -14.5t-19 -3.5z" />
    <glyph glyph-name="uni02BE" unicode="&#x2be;" horiz-adv-x="196" 
d="M25 588v29q54 0 79.5 18t25.5 62q0 45 -25.5 63t-79.5 18v29q70 0 107 -24t37 -86q0 -61 -37 -85t-107 -24z" />
    <glyph glyph-name="uni02BF" unicode="&#x2bf;" horiz-adv-x="196" 
d="M171 588q-70 0 -107 24t-37 85q0 62 37 86t107 24v-29q-54 0 -79.5 -18t-25.5 -63q0 -44 25.5 -62t79.5 -18v-29z" />
    <glyph glyph-name="circumflex" unicode="&#x2c6;" horiz-adv-x="401" 
d="M60 631l126 133h42l114 -133h-37l-99 104l-109 -104h-37z" />
    <glyph glyph-name="caron" unicode="&#x2c7;" horiz-adv-x="401" 
d="M174 631l-114 133h37l99 -104l109 104h37l-126 -133h-42z" />
    <glyph glyph-name="uni02C8" unicode="&#x2c8;" horiz-adv-x="109" 
d="M30 763h49v-260h-49v260z" />
    <glyph glyph-name="uni02C9" unicode="&#x2c9;" horiz-adv-x="319" 
d="M30 679v35h260v-35h-260z" />
    <glyph glyph-name="uni02CA" unicode="&#x2ca;" horiz-adv-x="212" 
d="M24 631l110 135h52l-128 -135h-34z" />
    <glyph glyph-name="uni02CB" unicode="&#x2cb;" horiz-adv-x="212" 
d="M152 631l-128 135h51l111 -135h-34z" />
    <glyph glyph-name="uni02CC" unicode="&#x2cc;" horiz-adv-x="109" 
d="M30 23h49v-260h-49v260z" />
    <glyph glyph-name="breve" unicode="&#x2d8;" horiz-adv-x="360" 
d="M180 630q-33 0 -62.5 13t-47.5 43.5t-18 82.5h29q0 -61 29.5 -86t69.5 -24q44 1 72.5 25t28.5 85h29q0 -54 -18.5 -84t-48 -42.5t-63.5 -12.5z" />
    <glyph glyph-name="dotaccent" unicode="&#x2d9;" horiz-adv-x="175" 
d="M70 658q-15 0 -15 14v72q0 15 15 15h26q7 0 11 -4.5t4 -10.5v-72q0 -14 -15 -14h-26z" />
    <glyph glyph-name="ring" unicode="&#x2da;" horiz-adv-x="334" 
d="M168 596q-52 0 -80 22.5t-28 82.5t28 83t80 23q53 0 79.5 -23t26.5 -83t-26.5 -82.5t-79.5 -22.5zM168 623q40 0 58 16t18 62t-18 62.5t-58 16.5q-39 0 -58.5 -16.5t-19.5 -62.5t19.5 -62t58.5 -16z" />
    <glyph glyph-name="ogonek" unicode="&#x2db;" horiz-adv-x="246" 
d="M163 -185q-32 0 -56 11.5t-37 31.5t-13 45q0 28 19 53.5t59 43.5h24q-34 -17 -51 -38.5t-17 -46.5q0 -32 23 -50.5t67 -18.5h6v-29q-6 -1 -12 -1.5t-12 -0.5z" />
    <glyph glyph-name="tilde" unicode="&#x2dc;" horiz-adv-x="459" 
d="M57 652q1 38 15 59.5t35 31t43 9.5q23 0 44 -9.5t40 -23t37 -23t37 -9.5q28 0 47 17t19 50h31q-1 -47 -25.5 -74t-69.5 -27q-22 0 -42 9.5t-39.5 23t-38.5 23t-38 9.5q-26 0 -45 -15.5t-19 -50.5h-31z" />
    <glyph glyph-name="hungarumlaut" unicode="&#x2dd;" horiz-adv-x="359" 
d="M170 631l108 135h50l-124 -135h-34zM24 631l108 135h50l-124 -135h-34z" />
    <glyph glyph-name="gravecomb" unicode="&#x300;" horiz-adv-x="0" 
d="M-268 631l-128 135h51l111 -135h-34z" />
    <glyph glyph-name="acutecomb" unicode="&#x301;" horiz-adv-x="0" 
d="M-298 631l110 135h52l-128 -135h-34z" />
    <glyph glyph-name="uni0302" unicode="&#x302;" horiz-adv-x="0" 
d="M-413 631l126 133h42l114 -133h-37l-99 104l-109 -104h-37z" />
    <glyph glyph-name="tildecomb" unicode="&#x303;" horiz-adv-x="0" 
d="M-438 652q1 38 15 59.5t35 31t43 9.5q23 0 44 -9.5t40 -23t37 -23t37 -9.5q28 0 47 17t19 50h31q-1 -47 -25.5 -74t-69.5 -27q-22 0 -42 9.5t-39.5 23t-38.5 23t-38 9.5q-26 0 -45 -15.5t-19 -50.5h-31z" />
    <glyph glyph-name="uni0304" unicode="&#x304;" horiz-adv-x="0" 
d="M-401 679v35h260v-35h-260z" />
    <glyph glyph-name="uni0306" unicode="&#x306;" horiz-adv-x="0" 
d="M-276 630q-33 0 -62.5 13t-47.5 43.5t-18 82.5h29q0 -61 29.5 -86t69.5 -24q44 1 72.5 25t28.5 85h29q0 -54 -18.5 -84t-48 -42.5t-63.5 -12.5z" />
    <glyph glyph-name="uni0307" unicode="&#x307;" horiz-adv-x="0" 
d="M-283 665q-15 0 -15 14v72q0 15 15 15h26q7 0 11 -4.5t4 -10.5v-72q0 -14 -15 -14h-26z" />
    <glyph glyph-name="uni0308" unicode="&#x308;" horiz-adv-x="0" 
d="M-186 658q-14 0 -14 14v72q0 15 14 15h27q7 0 10.5 -4.5t3.5 -10.5v-72q0 -14 -14 -14h-27zM-380 658q-15 0 -15 14v72q0 15 15 15h26q7 0 11 -4.5t4 -10.5v-72q0 -14 -15 -14h-26z" />
    <glyph glyph-name="hookabovecomb" unicode="&#x309;" horiz-adv-x="0" 
d="M-326 606v28q35 10 48.5 28t13.5 36q0 23 -11.5 36.5t-41.5 13.5q-8 0 -17.5 -1.5t-18.5 -4.5v26q11 4 21.5 5.5t21.5 1.5q41 0 60 -21t19 -55q0 -29 -22.5 -54t-72.5 -39z" />
    <glyph glyph-name="uni030A" unicode="&#x30a;" horiz-adv-x="0" 
d="M-269 596q-52 0 -80 22.5t-28 82.5t28 83t80 23q53 0 79.5 -23t26.5 -83t-26.5 -82.5t-79.5 -22.5zM-269 623q40 0 58 16t18 62t-18 62.5t-58 16.5q-39 0 -58.5 -16.5t-19.5 -62.5t19.5 -62t58.5 -16z" />
    <glyph glyph-name="uni030B" unicode="&#x30b;" horiz-adv-x="0" 
d="M-236 631l108 135h50l-124 -135h-34zM-382 631l108 135h50l-124 -135h-34z" />
    <glyph glyph-name="uni030C" unicode="&#x30c;" horiz-adv-x="0" 
d="M-291 631l-114 133h37l99 -104l109 104h37l-126 -133h-42z" />
    <glyph glyph-name="uni030F" unicode="&#x30f;" horiz-adv-x="0" 
d="M-207 631l-128 135h51l111 -135h-34zM-343 631l-128 135h51l111 -135h-34z" />
    <glyph glyph-name="uni0311" unicode="&#x311;" horiz-adv-x="0" 
d="M-272 770q33 0 62.5 -13t47.5 -43.5t18 -82.5h-29q0 61 -29.5 86t-69.5 24q-44 -1 -72.5 -25t-28.5 -85h-29q0 54 18.5 84t48 42.5t63.5 12.5z" />
    <glyph glyph-name="uni0312" unicode="&#x312;" horiz-adv-x="0" 
d="M-377 612q0 50 9 80.5t32 44t67 13.5h34v-24l-31 -4q-24 -2 -41 -10.5t-25 -30.5t-8 -69h-37z" />
    <glyph glyph-name="uni031B" unicode="&#x31b;" horiz-adv-x="0" 
d="M-260 499v34h97q36 0 58.5 25t22.5 89h44q0 -57 -16.5 -89t-43.5 -45.5t-57 -13.5h-105z" />
    <glyph glyph-name="dotbelowcomb" unicode="&#x323;" horiz-adv-x="0" 
d="M-283 -205q-15 0 -15 14v72q0 15 15 15h26q7 0 11 -4.5t4 -10.5v-72q0 -14 -15 -14h-26z" />
    <glyph glyph-name="uni0324" unicode="&#x324;" horiz-adv-x="0" 
d="M-168 -192q-15 0 -15 14v72q0 15 15 15h26q7 0 11 -4.5t4 -10.5v-72q0 -14 -15 -14h-26zM-411 -192q-14 0 -14 14v72q0 15 14 15h27q7 0 10.5 -4.5t3.5 -10.5v-72q0 -14 -14 -14h-27z" />
    <glyph glyph-name="uni0326" unicode="&#x326;" horiz-adv-x="0" 
d="M-386 -198v24l31 4q25 4 41.5 11.5t24.5 29.5t7 69h37q0 -50 -8.5 -80.5t-31.5 -44t-67 -13.5h-34z" />
    <glyph glyph-name="uni0327" unicode="&#x327;" horiz-adv-x="0" 
d="M-337 -187v24l24 2q29 2 44.5 13.5t15.5 35.5q0 18 -14 31t-59 14l26 11q45 0 64.5 -16t19.5 -47q0 -32 -24.5 -50t-68.5 -18h-28zM-326 -67l52 79h29l-53 -79h-28z" />
    <glyph glyph-name="uni0328" unicode="&#x328;" horiz-adv-x="0" 
d="M-237 -185q-32 0 -56 11.5t-37 31.5t-13 45q0 28 19 53.5t59 43.5h24q-34 -17 -51 -38.5t-17 -46.5q0 -32 23 -50.5t67 -18.5h6v-29q-6 -1 -12 -1.5t-12 -0.5z" />
    <glyph glyph-name="uni032E" unicode="&#x32e;" horiz-adv-x="0" 
d="M-274 -220q-33 0 -62.5 13t-47.5 43.5t-18 82.5h29q0 -61 29.5 -86t69.5 -24q44 1 72.5 25t28.5 85h29q0 -54 -18.5 -84t-48 -42.5t-63.5 -12.5z" />
    <glyph glyph-name="uni0331" unicode="&#x331;" horiz-adv-x="0" 
d="M-404 -181v35h260v-35h-260z" />
    <glyph glyph-name="uni0335" unicode="&#x335;" horiz-adv-x="0" 
d="M-304 293v30h270v-30h-270z" />
    <glyph glyph-name="uni03A9" unicode="&#x3a9;" horiz-adv-x="785" 
d="M75 392q0 67 16 129t52.5 111.5t98 78t150.5 28.5q86 0 146.5 -25.5t98 -73t54.5 -111.5t17 -141q0 -59 -19 -120t-57.5 -116.5t-97.5 -99.5l189 -8v-44h-254v51q96 68 138.5 155t42.5 175q0 68 -14 124t-45 96.5t-80 63t-119 22.5q-69 0 -118.5 -21.5t-80.5 -61.5
t-45.5 -95t-14.5 -123q0 -70 19 -126t59 -106t106 -103v-51h-255v44l190 9q-67 51 -105.5 108t-55 115.5t-16.5 115.5z" />
    <glyph glyph-name="uni03BC" unicode="&#x3bc;" horiz-adv-x="586" 
d="M257 -6q-42 0 -74.5 13t-55.5 38t-34.5 60t-11.5 76v352h58v-362q0 -49 16.5 -76t45 -38t66.5 -11q54 0 95 13.5t87 40.5v433h58v-533h-43l-13 60q-38 -28 -87.5 -47t-106.5 -19zM81 -268v494h58v-494h-58z" />
    <glyph glyph-name="pi" unicode="&#x3c0;" horiz-adv-x="612" 
d="M24 533h518v-54h-117v-351q0 -46 16.5 -65t50.5 -19h58v-34q-13 -6 -32 -11t-42 -5q-54 0 -81.5 30.5t-27.5 101.5v353h-179v-479h-58v479h-106v54z" />
    <glyph glyph-name="uni1E02" unicode="&#x1e02;" horiz-adv-x="596" 
d="M81 0v734h259q89 0 136 -45.5t47 -141.5q0 -46 -14.5 -80.5t-38.5 -56t-51 -29.5q19 -4 41 -15.5t42.5 -32t33.5 -52.5t13 -77q0 -79 -24.5 -123.5t-70 -62.5t-106.5 -18h-267zM139 52h208q44 0 76.5 13.5t51 48t18.5 99.5q0 45 -19.5 77t-52.5 48.5t-74 16.5h-208v-303z
M139 402h206q52 0 86.5 37.5t35.5 100.5q3 79 -33.5 110.5t-94.5 31.5h-200v-280zM279 825q-15 0 -15 14v72q0 15 15 15h26q7 0 11 -4.5t4 -10.5v-72q0 -14 -15 -14h-26z" />
    <glyph glyph-name="uni1E03" unicode="&#x1e03;" horiz-adv-x="576" 
d="M324 -6q-38 0 -72.5 10t-63 24t-48.5 27l-13 -55h-45v763h58v-282q40 24 90.5 41t91.5 17q63 0 105.5 -26.5t64.5 -87t22 -162.5q0 -81 -19 -141.5t-60.5 -94t-110.5 -33.5zM309 43q49 0 81.5 25t49 75t16.5 122q0 94 -19 142t-52 66t-76 18q-50 0 -88.5 -14t-80.5 -36
v-349q34 -18 75.5 -33.5t93.5 -15.5zM97 865q-15 0 -15 14v72q0 15 15 15h26q7 0 11 -4.5t4 -10.5v-72q0 -14 -15 -14h-26z" />
    <glyph glyph-name="uni1E08" unicode="&#x1e08;" horiz-adv-x="579" 
d="M320 -6q-67 0 -115.5 15t-80 54.5t-46.5 113.5t-15 192q0 111 15.5 183.5t47.5 113.5t82 57.5t119 16.5q26 0 61.5 -3t73.5 -8t70 -13v-43q-16 4 -48 7t-71.5 5.5t-78.5 2.5q-58 0 -98.5 -13.5t-65.5 -48t-37 -97t-12 -160.5q0 -103 11.5 -167t36 -97.5t64.5 -46
t97 -12.5q75 0 123.5 4.5t78.5 8.5v-43q-31 -6 -68 -11t-74 -8t-70 -3zM264 -187v24l24 2q29 2 44.5 13.5t15.5 35.5q0 18 -14 31t-59 14l26 11q45 0 64.5 -16t19.5 -47q0 -32 -24.5 -50t-68.5 -18h-28zM275 -67l52 79h29l-53 -79h-28zM313 791l110 135h52l-128 -135h-34z
" />
    <glyph glyph-name="uni1E09" unicode="&#x1e09;" horiz-adv-x="490" 
d="M272 -6q-45 0 -83 12t-66.5 41.5t-44.5 82.5t-16 136t15 136t42.5 83t66.5 41.5t87 11.5q37 0 84.5 -2.5t88.5 -8.5v-35h-160q-53 0 -89.5 -17.5t-56.5 -67t-20 -144.5q0 -90 21 -138.5t58 -66t87 -17.5h168v-35q-23 -3 -52 -6t-62 -4.5t-68 -1.5zM202 -187v24l24 2
q29 2 44.5 13.5t15.5 35.5q0 18 -14 31t-59 14l26 11q45 0 64.5 -16t19.5 -47q0 -32 -24.5 -50t-68.5 -18h-28zM213 -67l52 79h29l-53 -79h-28zM241 631l110 135h52l-128 -135h-34z" />
    <glyph glyph-name="uni1E0A" unicode="&#x1e0a;" horiz-adv-x="666" 
d="M81 0v734h284q65 0 109.5 -23t73 -69.5t41.5 -115t13 -159.5q0 -113 -26.5 -195t-79 -127t-131.5 -45h-284zM139 52h222q64 0 104 39.5t59.5 110.5t19.5 165q0 85 -10.5 145t-32.5 97.5t-56.5 55t-83.5 17.5h-222v-630zM301 825q-15 0 -15 14v72q0 15 15 15h26
q7 0 11 -4.5t4 -10.5v-72q0 -14 -15 -14h-26z" />
    <glyph glyph-name="uni1E0B" unicode="&#x1e0b;" horiz-adv-x="572" 
d="M254 -6q-67 0 -109.5 29t-62.5 89t-20 151q0 99 20.5 160t64.5 88.5t117 27.5q47 0 92.5 -10.5t79.5 -22.5v257h58v-763h-46l-12 55q-14 -13 -45 -27t-68 -24t-69 -10zM268 43q51 0 92.5 16t75.5 33v373q-41 12 -77 20t-82 8q-56 0 -90.5 -21t-50.5 -70.5t-16 -136.5
q0 -78 15 -127.5t47.5 -72t85.5 -22.5zM451 865q-15 0 -15 14v72q0 15 15 15h26q7 0 11 -4.5t4 -10.5v-72q0 -14 -15 -14h-26z" />
    <glyph glyph-name="uni1E0C" unicode="&#x1e0c;" horiz-adv-x="666" 
d="M81 0v734h284q65 0 109.5 -23t73 -69.5t41.5 -115t13 -159.5q0 -113 -26.5 -195t-79 -127t-131.5 -45h-284zM139 52h222q64 0 104 39.5t59.5 110.5t19.5 165q0 85 -10.5 145t-32.5 97.5t-56.5 55t-83.5 17.5h-222v-630zM291 -205q-15 0 -15 14v72q0 15 15 15h26
q7 0 11 -4.5t4 -10.5v-72q0 -14 -15 -14h-26z" />
    <glyph glyph-name="uni1E0D" unicode="&#x1e0d;" horiz-adv-x="572" 
d="M254 -6q-67 0 -109.5 29t-62.5 89t-20 151q0 99 20.5 160t64.5 88.5t117 27.5q47 0 92.5 -10.5t79.5 -22.5v257h58v-763h-46l-12 55q-14 -13 -45 -27t-68 -24t-69 -10zM268 43q51 0 92.5 16t75.5 33v373q-41 12 -77 20t-82 8q-56 0 -90.5 -21t-50.5 -70.5t-16 -136.5
q0 -78 15 -127.5t47.5 -72t85.5 -22.5zM272 -205q-15 0 -15 14v72q0 15 15 15h26q7 0 11 -4.5t4 -10.5v-72q0 -14 -15 -14h-26z" />
    <glyph glyph-name="uni1E0E" unicode="&#x1e0e;" horiz-adv-x="666" 
d="M81 0v734h284q65 0 109.5 -23t73 -69.5t41.5 -115t13 -159.5q0 -113 -26.5 -195t-79 -127t-131.5 -45h-284zM139 52h222q64 0 104 39.5t59.5 110.5t19.5 165q0 85 -10.5 145t-32.5 97.5t-56.5 55t-83.5 17.5h-222v-630zM171 -181v35h260v-35h-260z" />
    <glyph glyph-name="uni1E0F" unicode="&#x1e0f;" horiz-adv-x="572" 
d="M254 -6q-67 0 -109.5 29t-62.5 89t-20 151q0 99 20.5 160t64.5 88.5t117 27.5q47 0 92.5 -10.5t79.5 -22.5v257h58v-763h-46l-12 55q-14 -13 -45 -27t-68 -24t-69 -10zM268 43q51 0 92.5 16t75.5 33v373q-41 12 -77 20t-82 8q-56 0 -90.5 -21t-50.5 -70.5t-16 -136.5
q0 -78 15 -127.5t47.5 -72t85.5 -22.5zM153 -181v35h260v-35h-260z" />
    <glyph glyph-name="uni1E14" unicode="&#x1e14;" horiz-adv-x="584" 
d="M230 -4q-25 0 -50.5 4.5t-48 18t-36.5 41t-14 73.5v460q0 41 12 68t32 43t44.5 23t49.5 7q57 -1 108.5 -2t100 -2.5t94.5 -3.5v-45h-291q-42 0 -67 -22.5t-25 -72.5v-195l341 -5v-43l-341 -5v-194q0 -41 14.5 -61t37.5 -26.5t47 -6.5h284v-45q-46 -2 -95.5 -3.5t-98.5 -3
t-98 -2.5zM174 839v35h260v-35h-260zM290 917l-128 135h51l111 -135h-34z" />
    <glyph glyph-name="uni1E15" unicode="&#x1e15;" horiz-adv-x="542" 
d="M279 -6q-82 0 -129.5 25.5t-67.5 85.5t-20 163q0 105 21 164t69.5 83t129.5 24q68 0 111.5 -15.5t65 -53.5t21.5 -105q0 -45 -17.5 -72.5t-50.5 -39.5t-78 -12h-214q0 -73 14 -117t50.5 -64t107.5 -20h176v-35q-48 -5 -90.5 -8t-98.5 -3zM119 282h211q49 0 73 17.5
t24 65.5q0 50 -14.5 78t-46 39.5t-84.5 11.5q-63 0 -98.5 -18t-50 -64t-14.5 -130zM138 679v35h260v-35h-260zM265 755l-128 135h51l111 -135h-34z" />
    <glyph glyph-name="uni1E16" unicode="&#x1e16;" horiz-adv-x="584" 
d="M230 -4q-25 0 -50.5 4.5t-48 18t-36.5 41t-14 73.5v460q0 41 12 68t32 43t44.5 23t49.5 7q57 -1 108.5 -2t100 -2.5t94.5 -3.5v-45h-291q-42 0 -67 -22.5t-25 -72.5v-195l341 -5v-43l-341 -5v-194q0 -41 14.5 -61t37.5 -26.5t47 -6.5h284v-45q-46 -2 -95.5 -3.5t-98.5 -3
t-98 -2.5zM174 839v35h260v-35h-260zM295 917l110 135h52l-128 -135h-34z" />
    <glyph glyph-name="uni1E17" unicode="&#x1e17;" horiz-adv-x="542" 
d="M279 -6q-82 0 -129.5 25.5t-67.5 85.5t-20 163q0 105 21 164t69.5 83t129.5 24q68 0 111.5 -15.5t65 -53.5t21.5 -105q0 -45 -17.5 -72.5t-50.5 -39.5t-78 -12h-214q0 -73 14 -117t50.5 -64t107.5 -20h176v-35q-48 -5 -90.5 -8t-98.5 -3zM119 282h211q49 0 73 17.5
t24 65.5q0 50 -14.5 78t-46 39.5t-84.5 11.5q-63 0 -98.5 -18t-50 -64t-14.5 -130zM138 679v35h260v-35h-260zM239 755l110 135h52l-128 -135h-34z" />
    <glyph glyph-name="uni1E1C" unicode="&#x1e1c;" horiz-adv-x="584" 
d="M230 -4q-25 0 -50.5 4.5t-48 18t-36.5 41t-14 73.5v460q0 41 12 68t32 43t44.5 23t49.5 7q57 -1 108.5 -2t100 -2.5t94.5 -3.5v-45h-291q-42 0 -67 -22.5t-25 -72.5v-195l341 -5v-43l-341 -5v-194q0 -41 14.5 -61t37.5 -26.5t47 -6.5h284v-45q-46 -2 -95.5 -3.5t-98.5 -3
t-98 -2.5zM248 -187v24l24 2q29 2 44.5 13.5t15.5 35.5q0 18 -14 31t-59 14l26 11q45 0 64.5 -16t19.5 -47q0 -32 -24.5 -50t-68.5 -18h-28zM259 -67l52 79h29l-53 -79h-28zM304 790q-33 0 -62.5 13t-47.5 43.5t-18 82.5h29q0 -61 29.5 -86t69.5 -24q44 1 72.5 25t28.5 85
h29q0 -54 -18.5 -84t-48 -42.5t-63.5 -12.5z" />
    <glyph glyph-name="uni1E1D" unicode="&#x1e1d;" horiz-adv-x="542" 
d="M279 -6q-82 0 -129.5 25.5t-67.5 85.5t-20 163q0 105 21 164t69.5 83t129.5 24q68 0 111.5 -15.5t65 -53.5t21.5 -105q0 -45 -17.5 -72.5t-50.5 -39.5t-78 -12h-214q0 -73 14 -117t50.5 -64t107.5 -20h176v-35q-48 -5 -90.5 -8t-98.5 -3zM119 282h211q49 0 73 17.5
t24 65.5q0 50 -14.5 78t-46 39.5t-84.5 11.5q-63 0 -98.5 -18t-50 -64t-14.5 -130zM202 -187v24l24 2q29 2 44.5 13.5t15.5 35.5q0 18 -14 31t-59 14l26 11q45 0 64.5 -16t19.5 -47q0 -32 -24.5 -50t-68.5 -18h-28zM213 -67l52 79h29l-53 -79h-28zM263 630q-33 0 -62.5 13
t-47.5 43.5t-18 82.5h29q0 -61 29.5 -86t69.5 -24q44 1 72.5 25t28.5 85h29q0 -54 -18.5 -84t-48 -42.5t-63.5 -12.5z" />
    <glyph glyph-name="uni1E1E" unicode="&#x1e1e;" horiz-adv-x="563" 
d="M81 0v593q0 41 12 68t32 43t44.5 23t49.5 7q46 -1 97 -1.5t103.5 -2t102.5 -4.5v-45h-292q-41 0 -66 -23.5t-25 -71.5v-210l341 -5v-43l-341 -5v-323h-58zM297 825q-15 0 -15 14v72q0 15 15 15h26q7 0 11 -4.5t4 -10.5v-72q0 -14 -15 -14h-26z" />
    <glyph glyph-name="uni1E1F" unicode="&#x1e1f;" horiz-adv-x="360" 
d="M109 0v484h-84v38l84 11v69q0 53 12.5 90t44 57t88.5 20q35 0 58 -3t42 -5v-41h-91q-41 0 -61.5 -13t-27.5 -39t-7 -64v-71h174v-49h-174v-484h-58zM242 871q-15 0 -15 14v72q0 15 15 15h26q7 0 11 -4.5t4 -10.5v-72q0 -14 -15 -14h-26z" />
    <glyph glyph-name="uni1E20" unicode="&#x1e20;" horiz-adv-x="649" 
d="M302 -5q-70 -1 -116.5 20t-73.5 66.5t-38 117t-11 171.5q0 95 11.5 165t39 115.5t74.5 67.5t117 22q35 0 76.5 -2.5t82.5 -8t74 -12.5v-43q-19 2 -56 5.5t-81.5 6t-88.5 2.5q-74 0 -116 -32.5t-58.5 -102.5t-16.5 -185q0 -92 9 -153.5t30.5 -98.5t59 -52.5t95.5 -15.5
q50 0 103.5 14t92.5 30v239h-192v42q19 3 45 5t56 3.5t62 1.5q25 0 47 -1t38 -3v-379h-42l-10 52q-37 -18 -94 -37t-119 -20zM192 839v35h260v-35h-260z" />
    <glyph glyph-name="uni1E21" unicode="&#x1e21;" horiz-adv-x="574" 
d="M210 -244q-52 0 -91.5 14.5t-62 44t-22.5 74.5v26q0 48 26 78.5t65 46t79 15.5l12 -27q-32 0 -61 -11t-47.5 -33.5t-18.5 -60.5v-25q0 -54 36 -76t97 -22h129q68 0 106.5 26t38.5 79v23q0 30 -12 52.5t-40.5 35t-80.5 12.5h-173q-54 0 -85.5 24t-31.5 64t24 62t67 30
q-39 15 -60.5 40.5t-30 55.5t-8.5 59q0 63 25.5 100.5t71 54t104.5 16.5h284v-34l-132 -8q14 -9 32 -23.5t31.5 -43t13.5 -78.5q0 -39 -17 -76t-58 -61.5t-112 -24.5h-82q-48 0 -74.5 -13.5t-26.5 -48.5q0 -27 19 -38t40 -11h186q62 0 101.5 -16t59 -47.5t19.5 -78.5v-24
q0 -72 -49 -112t-145 -40h-146zM241 232h61q57 0 87 17.5t41 44.5t11 59q0 50 -17 79.5t-45.5 42.5t-66.5 13h-57q-63 0 -99.5 -28.5t-36.5 -98.5q0 -68 33 -98.5t89 -30.5zM157 679v35h260v-35h-260z" />
    <glyph glyph-name="uni1E24" unicode="&#x1e24;" horiz-adv-x="675" 
d="M81 0v734h58v-351h396v351h58v-734h-58v331h-396v-331h-58zM322 -205q-15 0 -15 14v72q0 15 15 15h26q7 0 11 -4.5t4 -10.5v-72q0 -14 -15 -14h-26z" />
    <glyph glyph-name="uni1E25" unicode="&#x1e25;" horiz-adv-x="586" 
d="M82 0v763h58v-290q39 27 92.5 48t110.5 21q55 0 91.5 -24t55 -64.5t18.5 -87.5v-366h-58v361q0 36 -15 65t-42 46t-66 17q-38 0 -68.5 -7t-58.5 -19.5t-60 -29.5v-433h-58zM278 -205q-15 0 -15 14v72q0 15 15 15h26q7 0 11 -4.5t4 -10.5v-72q0 -14 -15 -14h-26z" />
    <glyph glyph-name="uni1E2A" unicode="&#x1e2a;" horiz-adv-x="675" 
d="M81 0v734h58v-351h396v351h58v-734h-58v331h-396v-331h-58zM332 -220q-33 0 -62.5 13t-47.5 43.5t-18 82.5h29q0 -61 29.5 -86t69.5 -24q44 1 72.5 25t28.5 85h29q0 -54 -18.5 -84t-48 -42.5t-63.5 -12.5z" />
    <glyph glyph-name="uni1E2B" unicode="&#x1e2b;" horiz-adv-x="586" 
d="M82 0v763h58v-290q39 27 92.5 48t110.5 21q55 0 91.5 -24t55 -64.5t18.5 -87.5v-366h-58v361q0 36 -15 65t-42 46t-66 17q-38 0 -68.5 -7t-58.5 -19.5t-60 -29.5v-433h-58zM289 -220q-33 0 -62.5 13t-47.5 43.5t-18 82.5h29q0 -61 29.5 -86t69.5 -24q44 1 72.5 25
t28.5 85h29q0 -54 -18.5 -84t-48 -42.5t-63.5 -12.5z" />
    <glyph glyph-name="uni1E2E" unicode="&#x1e2e;" horiz-adv-x="221" 
d="M81 0v734h58v-734h-58zM210 818q-14 0 -14 14v72q0 15 14 15h27q7 0 10.5 -4.5t3.5 -10.5v-72q0 -14 -14 -14h-27zM-33 818q-14 0 -14 14v72q0 15 14 15h27q7 0 10.5 -4.5t3.5 -10.5v-72q0 -14 -14 -14h-27zM95 949l110 135h52l-128 -135h-34z" />
    <glyph glyph-name="uni1E2F" unicode="&#x1e2f;" horiz-adv-x="218" 
d="M82 0v533h58v-533h-58zM194 658q-14 0 -14 14v72q0 15 14 15h27q7 0 10.5 -4.5t3.5 -10.5v-72q0 -14 -14 -14h-27zM0 658q-15 0 -15 14v72q0 15 15 15h26q7 0 11 -4.5t4 -10.5v-72q0 -14 -15 -14h-26zM80 791l110 135h52l-128 -135h-34z" />
    <glyph glyph-name="uni1E36" unicode="&#x1e36;" horiz-adv-x="531" 
d="M221 0q-38 0 -70 12t-51 42.5t-19 84.5v595h58v-588q0 -39 13.5 -59t35 -26.5t43.5 -6.5h272v-54h-282zM253 -205q-15 0 -15 14v72q0 15 15 15h26q7 0 11 -4.5t4 -10.5v-72q0 -14 -15 -14h-26z" />
    <glyph glyph-name="uni1E37" unicode="&#x1e37;" horiz-adv-x="288" 
d="M213 -1q-42 0 -71.5 16t-44.5 53t-15 102v593h58v-587q0 -52 9.5 -79t28 -37t42.5 -13l58 -7v-41h-65zM144 -205q-15 0 -15 14v72q0 15 15 15h26q7 0 11 -4.5t4 -10.5v-72q0 -14 -15 -14h-26z" />
    <glyph glyph-name="uni1E3A" unicode="&#x1e3a;" horiz-adv-x="531" 
d="M221 0q-38 0 -70 12t-51 42.5t-19 84.5v595h58v-588q0 -39 13.5 -59t35 -26.5t43.5 -6.5h272v-54h-282zM133 -181v35h260v-35h-260z" />
    <glyph glyph-name="uni1E3B" unicode="&#x1e3b;" horiz-adv-x="288" 
d="M213 -1q-42 0 -71.5 16t-44.5 53t-15 102v593h58v-587q0 -52 9.5 -79t28 -37t42.5 -13l58 -7v-41h-65zM25 -181v35h260v-35h-260z" />
    <glyph glyph-name="uni1E40" unicode="&#x1e40;" horiz-adv-x="821" 
d="M61 0l83 734h63l203 -657l200 657h64l85 -734h-56l-78 676l11 -2l-199 -674h-54l-203 673l12 2l-75 -675h-56zM394 825q-15 0 -15 14v72q0 15 15 15h26q7 0 11 -4.5t4 -10.5v-72q0 -14 -15 -14h-26z" />
    <glyph glyph-name="uni1E41" unicode="&#x1e41;" horiz-adv-x="954" 
d="M82 0v533h43l15 -60q41 28 93 48.5t113 20.5q50 0 86 -22.5t54 -58.5q25 20 62.5 38t80 30.5t80.5 12.5q56 0 93.5 -24.5t55.5 -65t18 -88.5v-364h-58v360q0 37 -15 66t-42.5 46t-66.5 17q-49 0 -101 -18.5t-98 -45.5q6 -15 9.5 -31.5t3.5 -33.5v-360h-58v360
q0 37 -15 66t-42 46t-66 17q-38 0 -68.5 -6.5t-59 -19.5t-59.5 -30v-433h-58zM466 665q-15 0 -15 14v72q0 15 15 15h26q7 0 11 -4.5t4 -10.5v-72q0 -14 -15 -14h-26z" />
    <glyph glyph-name="uni1E42" unicode="&#x1e42;" horiz-adv-x="821" 
d="M61 0l83 734h63l203 -657l200 657h64l85 -734h-56l-78 676l11 -2l-199 -674h-54l-203 673l12 2l-75 -675h-56zM393 -205q-15 0 -15 14v72q0 15 15 15h26q7 0 11 -4.5t4 -10.5v-72q0 -14 -15 -14h-26z" />
    <glyph glyph-name="uni1E43" unicode="&#x1e43;" horiz-adv-x="954" 
d="M82 0v533h43l15 -60q41 28 93 48.5t113 20.5q50 0 86 -22.5t54 -58.5q25 20 62.5 38t80 30.5t80.5 12.5q56 0 93.5 -24.5t55.5 -65t18 -88.5v-364h-58v360q0 37 -15 66t-42.5 46t-66.5 17q-49 0 -101 -18.5t-98 -45.5q6 -15 9.5 -31.5t3.5 -33.5v-360h-58v360
q0 37 -15 66t-42 46t-66 17q-38 0 -68.5 -6.5t-59 -19.5t-59.5 -30v-433h-58zM460 -205q-15 0 -15 14v72q0 15 15 15h26q7 0 11 -4.5t4 -10.5v-72q0 -14 -15 -14h-26z" />
    <glyph glyph-name="uni1E44" unicode="&#x1e44;" horiz-adv-x="676" 
d="M97 0v734h49l406 -633v633h58v-734h-48l-407 633v-633h-58zM323 -205q-15 0 -15 14v72q0 15 15 15h26q7 0 11 -4.5t4 -10.5v-72q0 -14 -15 -14h-26z" />
    <glyph glyph-name="uni1E45" unicode="&#x1e45;" horiz-adv-x="586" 
d="M82 0v533h43l15 -60q40 27 92.5 48t110.5 21q56 0 92.5 -24.5t54.5 -65t18 -86.5v-366h-58v360q0 37 -15 66t-42 46t-66 17q-38 0 -68.5 -6.5t-59 -19.5t-59.5 -30v-433h-58zM276 -205q-15 0 -15 14v72q0 15 15 15h26q7 0 11 -4.5t4 -10.5v-72q0 -14 -15 -14h-26z" />
    <glyph glyph-name="uni1E46" unicode="&#x1e46;" horiz-adv-x="676" 
d="M97 0v734h49l406 -633v633h58v-734h-48l-407 633v-633h-58zM323 -205q-15 0 -15 14v72q0 15 15 15h26q7 0 11 -4.5t4 -10.5v-72q0 -14 -15 -14h-26z" />
    <glyph glyph-name="uni1E47" unicode="&#x1e47;" horiz-adv-x="586" 
d="M82 0v533h43l15 -60q40 27 92.5 48t110.5 21q56 0 92.5 -24.5t54.5 -65t18 -86.5v-366h-58v360q0 37 -15 66t-42 46t-66 17q-38 0 -68.5 -6.5t-59 -19.5t-59.5 -30v-433h-58zM276 -205q-15 0 -15 14v72q0 15 15 15h26q7 0 11 -4.5t4 -10.5v-72q0 -14 -15 -14h-26z" />
    <glyph glyph-name="uni1E48" unicode="&#x1e48;" horiz-adv-x="676" 
d="M97 0v734h49l406 -633v633h58v-734h-48l-407 633v-633h-58zM203 -181v35h260v-35h-260z" />
    <glyph glyph-name="uni1E49" unicode="&#x1e49;" horiz-adv-x="586" 
d="M82 0v533h43l15 -60q40 27 92.5 48t110.5 21q56 0 92.5 -24.5t54.5 -65t18 -86.5v-366h-58v360q0 37 -15 66t-42 46t-66 17q-38 0 -68.5 -6.5t-59 -19.5t-59.5 -30v-433h-58zM157 -181v35h260v-35h-260z" />
    <glyph glyph-name="uni1E4C" unicode="&#x1e4c;" horiz-adv-x="682" 
d="M341 -6q-69 0 -121.5 13t-87 50.5t-52 111.5t-17.5 194q0 121 17.5 195.5t53 114t87.5 53.5t120 14q71 0 123.5 -14t87 -53.5t51 -114t16.5 -195.5q0 -120 -17 -194t-52 -111.5t-87 -50.5t-122 -13zM341 46q59 0 101 11.5t68.5 44.5t38.5 95.5t12 165.5q0 108 -12.5 173
t-39 97.5t-68 43.5t-100.5 11q-54 0 -95.5 -11t-69 -43.5t-41.5 -97.5t-14 -173q0 -103 11.5 -165.5t37.5 -95.5t68 -44.5t103 -11.5zM174 812q1 38 15 59.5t35 31t43 9.5q23 0 44 -9.5t40 -23t37 -23t37 -9.5q28 0 47 17t19 50h31q-1 -47 -25.5 -74t-69.5 -27
q-22 0 -42 9.5t-39.5 23t-38.5 23t-38 9.5q-26 0 -45 -15.5t-19 -50.5h-31zM322 945l110 135h52l-128 -135h-34z" />
    <glyph glyph-name="uni1E4D" unicode="&#x1e4d;" 
d="M288 -6q-55 0 -97.5 11.5t-71.5 41t-43 83t-14 137.5q0 85 14.5 138.5t43 82.5t71 40t97.5 11t97.5 -11t71.5 -40t43.5 -82.5t14.5 -138.5q0 -84 -14.5 -138t-43 -83t-71.5 -40.5t-98 -11.5zM288 43q40 0 72 7.5t53 30t32.5 67.5t11.5 119q0 75 -11.5 119.5t-32.5 67
t-53 30t-72 7.5q-41 0 -72 -7.5t-52.5 -30t-32.5 -67t-11 -119.5q0 -74 11 -119t32.5 -67.5t52.5 -30t72 -7.5zM128 652q1 38 15 59.5t35 31t43 9.5q23 0 44 -9.5t40 -23t37 -23t37 -9.5q28 0 47 17t19 50h31q-1 -47 -25.5 -74t-69.5 -27q-22 0 -42 9.5t-39.5 23t-38.5 23
t-38 9.5q-26 0 -45 -15.5t-19 -50.5h-31zM257 783l110 135h52l-128 -135h-34z" />
    <glyph glyph-name="uni1E4E" unicode="&#x1e4e;" horiz-adv-x="682" 
d="M341 -6q-69 0 -121.5 13t-87 50.5t-52 111.5t-17.5 194q0 121 17.5 195.5t53 114t87.5 53.5t120 14q71 0 123.5 -14t87 -53.5t51 -114t16.5 -195.5q0 -120 -17 -194t-52 -111.5t-87 -50.5t-122 -13zM341 46q59 0 101 11.5t68.5 44.5t38.5 95.5t12 165.5q0 108 -12.5 173
t-39 97.5t-68 43.5t-100.5 11q-54 0 -95.5 -11t-69 -43.5t-41.5 -97.5t-14 -173q0 -103 11.5 -165.5t37.5 -95.5t68 -44.5t103 -11.5zM174 812q1 38 15 59.5t35 31t43 9.5q23 0 44 -9.5t40 -23t37 -23t37 -9.5q28 0 47 17t19 50h31q-1 -47 -25.5 -74t-69.5 -27
q-22 0 -42 9.5t-39.5 23t-38.5 23t-38 9.5q-26 0 -45 -15.5t-19 -50.5h-31zM449 972q-14 0 -14 14v72q0 15 14 15h27q7 0 10.5 -4.5t3.5 -10.5v-72q0 -14 -14 -14h-27zM206 972q-14 0 -14 14v72q0 15 14 15h27q7 0 10.5 -4.5t3.5 -10.5v-72q0 -14 -14 -14h-27z" />
    <glyph glyph-name="uni1E4F" unicode="&#x1e4f;" 
d="M288 -6q-55 0 -97.5 11.5t-71.5 41t-43 83t-14 137.5q0 85 14.5 138.5t43 82.5t71 40t97.5 11t97.5 -11t71.5 -40t43.5 -82.5t14.5 -138.5q0 -84 -14.5 -138t-43 -83t-71.5 -40.5t-98 -11.5zM288 43q40 0 72 7.5t53 30t32.5 67.5t11.5 119q0 75 -11.5 119.5t-32.5 67
t-53 30t-72 7.5q-41 0 -72 -7.5t-52.5 -30t-32.5 -67t-11 -119.5q0 -74 11 -119t32.5 -67.5t52.5 -30t72 -7.5zM128 652q1 38 15 59.5t35 31t43 9.5q23 0 44 -9.5t40 -23t37 -23t37 -9.5q28 0 47 17t19 50h31q-1 -47 -25.5 -74t-69.5 -27q-22 0 -42 9.5t-39.5 23t-38.5 23
t-38 9.5q-26 0 -45 -15.5t-19 -50.5h-31zM381 812q-14 0 -14 14v72q0 15 14 15h27q7 0 10.5 -4.5t3.5 -10.5v-72q0 -14 -14 -14h-27zM187 812q-15 0 -15 14v72q0 15 15 15h26q7 0 11 -4.5t4 -10.5v-72q0 -14 -15 -14h-26z" />
    <glyph glyph-name="uni1E50" unicode="&#x1e50;" horiz-adv-x="682" 
d="M341 -6q-69 0 -121.5 13t-87 50.5t-52 111.5t-17.5 194q0 121 17.5 195.5t53 114t87.5 53.5t120 14q71 0 123.5 -14t87 -53.5t51 -114t16.5 -195.5q0 -120 -17 -194t-52 -111.5t-87 -50.5t-122 -13zM341 46q59 0 101 11.5t68.5 44.5t38.5 95.5t12 165.5q0 108 -12.5 173
t-39 97.5t-68 43.5t-100.5 11q-54 0 -95.5 -11t-69 -43.5t-41.5 -97.5t-14 -173q0 -103 11.5 -165.5t37.5 -95.5t68 -44.5t103 -11.5zM204 839v35h260v-35h-260zM320 919l-128 135h51l111 -135h-34z" />
    <glyph glyph-name="uni1E51" unicode="&#x1e51;" 
d="M288 -6q-55 0 -97.5 11.5t-71.5 41t-43 83t-14 137.5q0 85 14.5 138.5t43 82.5t71 40t97.5 11t97.5 -11t71.5 -40t43.5 -82.5t14.5 -138.5q0 -84 -14.5 -138t-43 -83t-71.5 -40.5t-98 -11.5zM288 43q40 0 72 7.5t53 30t32.5 67.5t11.5 119q0 75 -11.5 119.5t-32.5 67
t-53 30t-72 7.5q-41 0 -72 -7.5t-52.5 -30t-32.5 -67t-11 -119.5q0 -74 11 -119t32.5 -67.5t52.5 -30t72 -7.5zM156 679v35h260v-35h-260zM285 755l-128 135h51l111 -135h-34z" />
    <glyph glyph-name="uni1E52" unicode="&#x1e52;" horiz-adv-x="682" 
d="M341 -6q-69 0 -121.5 13t-87 50.5t-52 111.5t-17.5 194q0 121 17.5 195.5t53 114t87.5 53.5t120 14q71 0 123.5 -14t87 -53.5t51 -114t16.5 -195.5q0 -120 -17 -194t-52 -111.5t-87 -50.5t-122 -13zM341 46q59 0 101 11.5t68.5 44.5t38.5 95.5t12 165.5q0 108 -12.5 173
t-39 97.5t-68 43.5t-100.5 11q-54 0 -95.5 -11t-69 -43.5t-41.5 -97.5t-14 -173q0 -103 11.5 -165.5t37.5 -95.5t68 -44.5t103 -11.5zM204 839v35h260v-35h-260zM326 919l110 135h52l-128 -135h-34z" />
    <glyph glyph-name="uni1E53" unicode="&#x1e53;" 
d="M288 -6q-55 0 -97.5 11.5t-71.5 41t-43 83t-14 137.5q0 85 14.5 138.5t43 82.5t71 40t97.5 11t97.5 -11t71.5 -40t43.5 -82.5t14.5 -138.5q0 -84 -14.5 -138t-43 -83t-71.5 -40.5t-98 -11.5zM288 43q40 0 72 7.5t53 30t32.5 67.5t11.5 119q0 75 -11.5 119.5t-32.5 67
t-53 30t-72 7.5q-41 0 -72 -7.5t-52.5 -30t-32.5 -67t-11 -119.5q0 -74 11 -119t32.5 -67.5t52.5 -30t72 -7.5zM156 679v35h260v-35h-260zM257 755l110 135h52l-128 -135h-34z" />
    <glyph glyph-name="uni1E56" unicode="&#x1e56;" horiz-adv-x="599" 
d="M81 0v734h286q32 0 64.5 -8.5t60.5 -32t44.5 -69t16.5 -119.5q0 -75 -18 -121.5t-47 -71.5t-62.5 -34t-63.5 -9q-15 0 -45.5 0.5t-65.5 2t-65.5 3t-46.5 3.5v-278h-58zM139 321h216q38 0 70 16t51 55.5t19 112.5q0 71 -19 109.5t-48.5 53t-64.5 14.5h-224v-361zM271 825
q-15 0 -15 14v72q0 15 15 15h26q7 0 11 -4.5t4 -10.5v-72q0 -14 -15 -14h-26z" />
    <glyph glyph-name="uni1E57" unicode="&#x1e57;" horiz-adv-x="576" 
d="M82 -237v770h45l13 -56q17 12 47.5 27t66 25t68.5 10q53 0 89.5 -23t59.5 -62t33 -87t10 -99q0 -91 -21.5 -152.5t-63.5 -91.5t-107 -30q-46 0 -94 15.5t-88 39.5v-286h-58zM309 43q43 0 75.5 21.5t52 70.5t19.5 133q0 80 -21 129t-54.5 71.5t-71.5 22.5q-51 0 -93 -16.5
t-76 -33.5v-349q39 -22 82.5 -35.5t86.5 -13.5zM259 665q-15 0 -15 14v72q0 15 15 15h26q7 0 11 -4.5t4 -10.5v-72q0 -14 -15 -14h-26z" />
    <glyph glyph-name="uni1E5A" unicode="&#x1e5a;" horiz-adv-x="602" 
d="M81 0v734h285q33 0 66 -7.5t60 -29t43 -63.5t16 -110q0 -63 -14 -102.5t-36 -61.5t-48 -31.5t-49 -12.5l154 -316h-58l-151 310q-17 0 -44 0.5t-57 1t-59 1.5t-50 1v-314h-58zM139 358h220q27 0 51 6t43 23.5t29.5 50.5t10.5 86q0 51 -11 82t-30 47.5t-43 22.5t-50 6
h-220v-324zM277 -205q-15 0 -15 14v72q0 15 15 15h26q7 0 11 -4.5t4 -10.5v-72q0 -14 -15 -14h-26z" />
    <glyph glyph-name="uni1E5B" unicode="&#x1e5b;" horiz-adv-x="409" 
d="M82 0v533h43l15 -96q38 44 84.5 73t107.5 29q15 0 28 -1.5t24 -4.5v-59q-13 2 -27 4t-30 2q-39 0 -69.5 -10t-58.5 -29.5t-59 -48.5v-392h-58zM95 -205q-15 0 -15 14v72q0 15 15 15h26q7 0 11 -4.5t4 -10.5v-72q0 -14 -15 -14h-26z" />
    <glyph glyph-name="uni1E5E" unicode="&#x1e5e;" horiz-adv-x="602" 
d="M81 0v734h285q33 0 66 -7.5t60 -29t43 -63.5t16 -110q0 -63 -14 -102.5t-36 -61.5t-48 -31.5t-49 -12.5l154 -316h-58l-151 310q-17 0 -44 0.5t-57 1t-59 1.5t-50 1v-314h-58zM139 358h220q27 0 51 6t43 23.5t29.5 50.5t10.5 86q0 51 -11 82t-30 47.5t-43 22.5t-50 6
h-220v-324zM157 -181v35h260v-35h-260z" />
    <glyph glyph-name="uni1E5F" unicode="&#x1e5f;" horiz-adv-x="409" 
d="M82 0v533h43l15 -96q38 44 84.5 73t107.5 29q15 0 28 -1.5t24 -4.5v-59q-13 2 -27 4t-30 2q-39 0 -69.5 -10t-58.5 -29.5t-59 -48.5v-392h-58zM-24 -181v35h260v-35h-260z" />
    <glyph glyph-name="uni1E60" unicode="&#x1e60;" horiz-adv-x="575" 
d="M286 -6q-21 0 -50.5 1t-62 3.5t-61 5t-46.5 6.5v44q23 -2 58.5 -4t77 -3t82.5 -1q47 0 86 9.5t62 36t23 77.5v56q0 56 -28 86t-92 30h-85q-86 0 -135.5 37.5t-49.5 132.5v43q0 103 54 144.5t151 41.5q30 0 69.5 -3t77.5 -7t61 -8v-44q-43 3 -98 6.5t-105 3.5
q-48 0 -82.5 -11.5t-53 -41t-18.5 -83.5v-39q0 -67 34.5 -91.5t95.5 -24.5h89q59 0 97 -21.5t56 -59t18 -85.5v-61q0 -71 -31 -109t-82 -52.5t-112 -14.5zM267 825q-15 0 -15 14v72q0 15 15 15h26q7 0 11 -4.5t4 -10.5v-72q0 -14 -15 -14h-26z" />
    <glyph glyph-name="uni1E61" unicode="&#x1e61;" horiz-adv-x="498" 
d="M262 -6q-18 0 -47 1t-61 2.5t-58 3.5t-39 4v35h213q37 0 64.5 6t43 25t15.5 59v26q0 39 -26 61.5t-82 22.5h-72q-49 0 -84.5 11.5t-55.5 39.5t-20 77v27q0 50 19.5 81t59 46.5t101.5 15.5q26 0 62 -1.5t72 -4t58 -6.5v-36h-200q-58 0 -89 -19.5t-31 -75.5v-23
q0 -35 14.5 -53t40.5 -23.5t60 -5.5h73q71 0 111.5 -33t40.5 -96v-34q0 -54 -24 -82.5t-65 -39.5t-94 -11zM224 665q-15 0 -15 14v72q0 15 15 15h26q7 0 11 -4.5t4 -10.5v-72q0 -14 -15 -14h-26z" />
    <glyph glyph-name="uni1E62" unicode="&#x1e62;" horiz-adv-x="575" 
d="M286 -6q-21 0 -50.5 1t-62 3.5t-61 5t-46.5 6.5v44q23 -2 58.5 -4t77 -3t82.5 -1q47 0 86 9.5t62 36t23 77.5v56q0 56 -28 86t-92 30h-85q-86 0 -135.5 37.5t-49.5 132.5v43q0 103 54 144.5t151 41.5q30 0 69.5 -3t77.5 -7t61 -8v-44q-43 3 -98 6.5t-105 3.5
q-48 0 -82.5 -11.5t-53 -41t-18.5 -83.5v-39q0 -67 34.5 -91.5t95.5 -24.5h89q59 0 97 -21.5t56 -59t18 -85.5v-61q0 -71 -31 -109t-82 -52.5t-112 -14.5zM266 -205q-15 0 -15 14v72q0 15 15 15h26q7 0 11 -4.5t4 -10.5v-72q0 -14 -15 -14h-26z" />
    <glyph glyph-name="uni1E63" unicode="&#x1e63;" horiz-adv-x="498" 
d="M262 -6q-18 0 -47 1t-61 2.5t-58 3.5t-39 4v35h213q37 0 64.5 6t43 25t15.5 59v26q0 39 -26 61.5t-82 22.5h-72q-49 0 -84.5 11.5t-55.5 39.5t-20 77v27q0 50 19.5 81t59 46.5t101.5 15.5q26 0 62 -1.5t72 -4t58 -6.5v-36h-200q-58 0 -89 -19.5t-31 -75.5v-23
q0 -35 14.5 -53t40.5 -23.5t60 -5.5h73q71 0 111.5 -33t40.5 -96v-34q0 -54 -24 -82.5t-65 -39.5t-94 -11zM222 -205q-15 0 -15 14v72q0 15 15 15h26q7 0 11 -4.5t4 -10.5v-72q0 -14 -15 -14h-26z" />
    <glyph glyph-name="uni1E64" unicode="&#x1e64;" horiz-adv-x="575" 
d="M286 -6q-21 0 -50.5 1t-62 3.5t-61 5t-46.5 6.5v44q23 -2 58.5 -4t77 -3t82.5 -1q47 0 86 9.5t62 36t23 77.5v56q0 56 -28 86t-92 30h-85q-86 0 -135.5 37.5t-49.5 132.5v43q0 103 54 144.5t151 41.5q30 0 69.5 -3t77.5 -7t61 -8v-44q-43 3 -98 6.5t-105 3.5
q-48 0 -82.5 -11.5t-53 -41t-18.5 -83.5v-39q0 -67 34.5 -91.5t95.5 -24.5h89q59 0 97 -21.5t56 -59t18 -85.5v-61q0 -71 -31 -109t-82 -52.5t-112 -14.5zM232 791l110 135h52l-128 -135h-34zM301 955q-15 0 -15 14v72q0 15 15 15h26q7 0 11 -4.5t4 -10.5v-72q0 -14 -15 -14
h-26z" />
    <glyph glyph-name="uni1E65" unicode="&#x1e65;" horiz-adv-x="498" 
d="M262 -6q-18 0 -47 1t-61 2.5t-58 3.5t-39 4v35h213q37 0 64.5 6t43 25t15.5 59v26q0 39 -26 61.5t-82 22.5h-72q-49 0 -84.5 11.5t-55.5 39.5t-20 77v27q0 50 19.5 81t59 46.5t101.5 15.5q26 0 62 -1.5t72 -4t58 -6.5v-36h-200q-58 0 -89 -19.5t-31 -75.5v-23
q0 -35 14.5 -53t40.5 -23.5t60 -5.5h73q71 0 111.5 -33t40.5 -96v-34q0 -54 -24 -82.5t-65 -39.5t-94 -11zM171 631l110 135h52l-128 -135h-34zM238 795q-15 0 -15 14v72q0 15 15 15h26q7 0 11 -4.5t4 -10.5v-72q0 -14 -15 -14h-26z" />
    <glyph glyph-name="uni1E66" unicode="&#x1e66;" horiz-adv-x="575" 
d="M286 -6q-21 0 -50.5 1t-62 3.5t-61 5t-46.5 6.5v44q23 -2 58.5 -4t77 -3t82.5 -1q47 0 86 9.5t62 36t23 77.5v56q0 56 -28 86t-92 30h-85q-86 0 -135.5 37.5t-49.5 132.5v43q0 103 54 144.5t151 41.5q30 0 69.5 -3t77.5 -7t61 -8v-44q-43 3 -98 6.5t-105 3.5
q-48 0 -82.5 -11.5t-53 -41t-18.5 -83.5v-39q0 -67 34.5 -91.5t95.5 -24.5h89q59 0 97 -21.5t56 -59t18 -85.5v-61q0 -71 -31 -109t-82 -52.5t-112 -14.5zM259 791l-114 133h37l99 -104l109 104h37l-126 -133h-42zM267 957q-15 0 -15 14v72q0 15 15 15h26q7 0 11 -4.5
t4 -10.5v-72q0 -14 -15 -14h-26z" />
    <glyph glyph-name="uni1E67" unicode="&#x1e67;" horiz-adv-x="498" 
d="M262 -6q-18 0 -47 1t-61 2.5t-58 3.5t-39 4v35h213q37 0 64.5 6t43 25t15.5 59v26q0 39 -26 61.5t-82 22.5h-72q-49 0 -84.5 11.5t-55.5 39.5t-20 77v27q0 50 19.5 81t59 46.5t101.5 15.5q26 0 62 -1.5t72 -4t58 -6.5v-36h-200q-58 0 -89 -19.5t-31 -75.5v-23
q0 -35 14.5 -53t40.5 -23.5t60 -5.5h73q71 0 111.5 -33t40.5 -96v-34q0 -54 -24 -82.5t-65 -39.5t-94 -11zM216 631l-114 133h37l99 -104l109 104h37l-126 -133h-42zM224 797q-15 0 -15 14v72q0 15 15 15h26q7 0 11 -4.5t4 -10.5v-72q0 -14 -15 -14h-26z" />
    <glyph glyph-name="uni1E68" unicode="&#x1e68;" horiz-adv-x="575" 
d="M286 -6q-21 0 -50.5 1t-62 3.5t-61 5t-46.5 6.5v44q23 -2 58.5 -4t77 -3t82.5 -1q47 0 86 9.5t62 36t23 77.5v56q0 56 -28 86t-92 30h-85q-86 0 -135.5 37.5t-49.5 132.5v43q0 103 54 144.5t151 41.5q30 0 69.5 -3t77.5 -7t61 -8v-44q-43 3 -98 6.5t-105 3.5
q-48 0 -82.5 -11.5t-53 -41t-18.5 -83.5v-39q0 -67 34.5 -91.5t95.5 -24.5h89q59 0 97 -21.5t56 -59t18 -85.5v-61q0 -71 -31 -109t-82 -52.5t-112 -14.5zM266 -205q-15 0 -15 14v72q0 15 15 15h26q7 0 11 -4.5t4 -10.5v-72q0 -14 -15 -14h-26zM267 825q-15 0 -15 14v72
q0 15 15 15h26q7 0 11 -4.5t4 -10.5v-72q0 -14 -15 -14h-26z" />
    <glyph glyph-name="uni1E69" unicode="&#x1e69;" horiz-adv-x="498" 
d="M262 -6q-18 0 -47 1t-61 2.5t-58 3.5t-39 4v35h213q37 0 64.5 6t43 25t15.5 59v26q0 39 -26 61.5t-82 22.5h-72q-49 0 -84.5 11.5t-55.5 39.5t-20 77v27q0 50 19.5 81t59 46.5t101.5 15.5q26 0 62 -1.5t72 -4t58 -6.5v-36h-200q-58 0 -89 -19.5t-31 -75.5v-23
q0 -35 14.5 -53t40.5 -23.5t60 -5.5h73q71 0 111.5 -33t40.5 -96v-34q0 -54 -24 -82.5t-65 -39.5t-94 -11zM222 -205q-15 0 -15 14v72q0 15 15 15h26q7 0 11 -4.5t4 -10.5v-72q0 -14 -15 -14h-26zM224 665q-15 0 -15 14v72q0 15 15 15h26q7 0 11 -4.5t4 -10.5v-72
q0 -14 -15 -14h-26z" />
    <glyph glyph-name="uni1E6A" unicode="&#x1e6a;" horiz-adv-x="560" 
d="M251 0v682h-235v52h528v-52h-235v-682h-58zM266 825q-15 0 -15 14v72q0 15 15 15h26q7 0 11 -4.5t4 -10.5v-72q0 -14 -15 -14h-26z" />
    <glyph glyph-name="uni1E6B" unicode="&#x1e6b;" horiz-adv-x="361" 
d="M250 0q-48 0 -80.5 17t-48.5 54t-16 96l3 317h-85v38l85 11l11 149h44v-149h162v-49h-162v-317q0 -38 8.5 -61.5t22 -35.5t29 -16.5t29.5 -5.5l65 -6v-42h-67zM129 749q-15 0 -15 14v72q0 15 15 15h26q7 0 11 -4.5t4 -10.5v-72q0 -14 -15 -14h-26z" />
    <glyph glyph-name="uni1E6C" unicode="&#x1e6c;" horiz-adv-x="560" 
d="M251 0v682h-235v52h528v-52h-235v-682h-58zM265 -205q-15 0 -15 14v72q0 15 15 15h26q7 0 11 -4.5t4 -10.5v-72q0 -14 -15 -14h-26z" />
    <glyph glyph-name="uni1E6D" unicode="&#x1e6d;" horiz-adv-x="361" 
d="M250 0q-48 0 -80.5 17t-48.5 54t-16 96l3 317h-85v38l85 11l11 149h44v-149h162v-49h-162v-317q0 -38 8.5 -61.5t22 -35.5t29 -16.5t29.5 -5.5l65 -6v-42h-67zM172 -205q-15 0 -15 14v72q0 15 15 15h26q7 0 11 -4.5t4 -10.5v-72q0 -14 -15 -14h-26z" />
    <glyph glyph-name="uni1E6E" unicode="&#x1e6e;" horiz-adv-x="560" 
d="M251 0v682h-235v52h528v-52h-235v-682h-58zM145 -181v35h260v-35h-260z" />
    <glyph glyph-name="uni1E6F" unicode="&#x1e6f;" horiz-adv-x="361" 
d="M250 0q-48 0 -80.5 17t-48.5 54t-16 96l3 317h-85v38l85 11l11 149h44v-149h162v-49h-162v-317q0 -38 8.5 -61.5t22 -35.5t29 -16.5t29.5 -5.5l65 -6v-42h-67zM53 -181v35h260v-35h-260z" />
    <glyph glyph-name="uni1E78" unicode="&#x1e78;" horiz-adv-x="673" 
d="M336 -6q-61 0 -110.5 11.5t-84 37.5t-52.5 70.5t-18 111.5v509h58v-509q0 -70 24.5 -108.5t71 -54t111.5 -15.5q66 0 112 15.5t70.5 54t24.5 108.5v509h58v-509q0 -67 -17.5 -111.5t-52 -70.5t-84 -37.5t-111.5 -11.5zM167 812q1 38 15 59.5t35 31t43 9.5q23 0 44 -9.5
t40 -23t37 -23t37 -9.5q28 0 47 17t19 50h31q-1 -47 -25.5 -74t-69.5 -27q-22 0 -42 9.5t-39.5 23t-38.5 23t-38 9.5q-26 0 -45 -15.5t-19 -50.5h-31zM321 941l110 135h52l-128 -135h-34z" />
    <glyph glyph-name="uni1E79" unicode="&#x1e79;" horiz-adv-x="586" 
d="M242 -6q-77 0 -119 39t-42 125v375h58v-362q0 -74 33 -99.5t95 -25.5q52 0 94 13.5t88 40.5v433h58v-533h-43l-15 60q-41 -27 -94.5 -46.5t-112.5 -19.5zM123 652q1 38 15 59.5t35 31t43 9.5q23 0 44 -9.5t40 -23t37 -23t37 -9.5q28 0 47 17t19 50h31q-1 -47 -25.5 -74
t-69.5 -27q-22 0 -42 9.5t-39.5 23t-38.5 23t-38 9.5q-26 0 -45 -15.5t-19 -50.5h-31zM253 783l110 135h52l-128 -135h-34z" />
    <glyph glyph-name="uni1E7A" unicode="&#x1e7a;" horiz-adv-x="673" 
d="M336 -6q-61 0 -110.5 11.5t-84 37.5t-52.5 70.5t-18 111.5v509h58v-509q0 -70 24.5 -108.5t71 -54t111.5 -15.5q66 0 112 15.5t70.5 54t24.5 108.5v509h58v-509q0 -67 -17.5 -111.5t-52 -70.5t-84 -37.5t-111.5 -11.5zM197 839v35h260v-35h-260zM434 944q-14 0 -14 14v72
q0 15 14 15h27q7 0 10.5 -4.5t3.5 -10.5v-72q0 -14 -14 -14h-27zM191 944q-14 0 -14 14v72q0 15 14 15h27q7 0 10.5 -4.5t3.5 -10.5v-72q0 -14 -14 -14h-27z" />
    <glyph glyph-name="uni1E7B" unicode="&#x1e7b;" horiz-adv-x="586" 
d="M242 -6q-77 0 -119 39t-42 125v375h58v-362q0 -74 33 -99.5t95 -25.5q52 0 94 13.5t88 40.5v433h58v-533h-43l-15 60q-41 -27 -94.5 -46.5t-112.5 -19.5zM152 679v35h260v-35h-260zM367 786q-14 0 -14 14v72q0 15 14 15h27q7 0 10.5 -4.5t3.5 -10.5v-72q0 -14 -14 -14
h-27zM173 786q-15 0 -15 14v72q0 15 15 15h26q7 0 11 -4.5t4 -10.5v-72q0 -14 -15 -14h-26z" />
    <glyph glyph-name="Wgrave" unicode="&#x1e80;" horiz-adv-x="991" 
d="M232 0l-193 734h61l170 -659l195 659h62l194 -659l171 659h60l-193 -734h-66l-197 657l-198 -657h-66zM485 791l-128 135h51l111 -135h-34z" />
    <glyph glyph-name="wgrave" unicode="&#x1e81;" horiz-adv-x="788" 
d="M189 0l-168 533h59l145 -479l144 479h52l145 -479l142 479h59l-167 -533h-64l-142 459l-142 -459h-63zM399 631l-128 135h51l111 -135h-34z" />
    <glyph glyph-name="Wacute" unicode="&#x1e82;" horiz-adv-x="991" 
d="M232 0l-193 734h61l170 -659l195 659h62l194 -659l171 659h60l-193 -734h-66l-197 657l-198 -657h-66zM487 791l110 135h52l-128 -135h-34z" />
    <glyph glyph-name="wacute" unicode="&#x1e83;" horiz-adv-x="788" 
d="M189 0l-168 533h59l145 -479l144 479h52l145 -479l142 479h59l-167 -533h-64l-142 459l-142 -459h-63zM369 631l110 135h52l-128 -135h-34z" />
    <glyph glyph-name="Wdieresis" unicode="&#x1e84;" horiz-adv-x="991" 
d="M232 0l-193 734h61l170 -659l195 659h62l194 -659l171 659h60l-193 -734h-66l-197 657l-198 -657h-66zM600 818q-14 0 -14 14v72q0 15 14 15h27q7 0 10.5 -4.5t3.5 -10.5v-72q0 -14 -14 -14h-27zM357 818q-14 0 -14 14v72q0 15 14 15h27q7 0 10.5 -4.5t3.5 -10.5v-72
q0 -14 -14 -14h-27z" />
    <glyph glyph-name="wdieresis" unicode="&#x1e85;" horiz-adv-x="788" 
d="M189 0l-168 533h59l145 -479l144 479h52l145 -479l142 479h59l-167 -533h-64l-142 459l-142 -459h-63zM481 658q-14 0 -14 14v72q0 15 14 15h27q7 0 10.5 -4.5t3.5 -10.5v-72q0 -14 -14 -14h-27zM287 658q-15 0 -15 14v72q0 15 15 15h26q7 0 11 -4.5t4 -10.5v-72
q0 -14 -15 -14h-26z" />
    <glyph glyph-name="uni1E8E" unicode="&#x1e8e;" horiz-adv-x="615" 
d="M278 0v250l-237 484h61l206 -426l206 426h60l-238 -484v-250h-58zM293 -205q-15 0 -15 14v72q0 15 15 15h26q7 0 11 -4.5t4 -10.5v-72q0 -14 -15 -14h-26z" />
    <glyph glyph-name="uni1E8F" unicode="&#x1e8f;" horiz-adv-x="533" 
d="M218 -237l71 237q-20 1 -45 10t-47.5 34.5t-39.5 74.5l-136 414h61l130 -401q12 -34 26.5 -50.5t28.5 -23t24 -7t11 -0.5l150 482h60l-206 -671l-46 -99h-42zM424 -205q-15 0 -15 14v72q0 15 15 15h26q7 0 11 -4.5t4 -10.5v-72q0 -14 -15 -14h-26z" />
    <glyph glyph-name="uni1E92" unicode="&#x1e92;" horiz-adv-x="556" 
d="M45 0v48l402 634h-402v52h473v-48l-403 -634h403v-52h-473zM262 -205q-15 0 -15 14v72q0 15 15 15h26q7 0 11 -4.5t4 -10.5v-72q0 -14 -15 -14h-26z" />
    <glyph glyph-name="uni1E93" unicode="&#x1e93;" horiz-adv-x="491" 
d="M53 0v45l324 439h-331v49h399v-46l-326 -439h326v-48h-392zM218 -205q-15 0 -15 14v72q0 15 15 15h26q7 0 11 -4.5t4 -10.5v-72q0 -14 -15 -14h-26z" />
    <glyph glyph-name="uni1E97" unicode="&#x1e97;" horiz-adv-x="361" 
d="M250 0q-48 0 -80.5 17t-48.5 54t-16 96l3 317h-85v38l85 11l11 149h44v-149h162v-49h-162v-317q0 -38 8.5 -61.5t22 -35.5t29 -16.5t29.5 -5.5l65 -6v-42h-67zM232 742q-14 0 -14 14v72q0 15 14 15h27q7 0 10.5 -4.5t3.5 -10.5v-72q0 -14 -14 -14h-27zM38 742
q-15 0 -15 14v72q0 15 15 15h26q7 0 11 -4.5t4 -10.5v-72q0 -14 -15 -14h-26z" />
    <glyph glyph-name="uni1E9E" unicode="&#x1e9e;" horiz-adv-x="655" 
d="M81 0v569q0 62 23.5 98.5t61.5 51.5t81 15q56 0 108 -1t102.5 -2t100.5 -3l-19 -46h-291q-51 0 -80 -27t-29 -85v-570h-58zM372 -6q-18 0 -45.5 2t-54 5t-42.5 6v44q22 -2 59.5 -3t76.5 -1q46 0 84 9t60.5 35.5t22.5 77.5v55q0 57 -28.5 86.5t-95.5 29.5h-120v50h131
q87 0 129 -43.5t42 -119.5v-61q0 -69 -30.5 -106t-80 -51.5t-108.5 -14.5zM323 380l147 273l45 44l43 17l-181 -293z" />
    <glyph glyph-name="uni1EA0" unicode="&#x1ea0;" horiz-adv-x="671" 
d="M39 0l259 734h75l259 -734h-61l-81 228h-310l-80 -228h-61zM195 280h278l-138 402zM320 -205q-15 0 -15 14v72q0 15 15 15h26q7 0 11 -4.5t4 -10.5v-72q0 -14 -15 -14h-26z" />
    <glyph glyph-name="uni1EA1" unicode="&#x1ea1;" horiz-adv-x="543" 
d="M183 -6q-58 0 -96.5 34.5t-38.5 98.5v36q0 63 41.5 102t122.5 39h195v74q0 36 -12.5 62t-43.5 40t-89 14h-167v35q33 4 78.5 8t104.5 5q65 1 106.5 -16.5t61 -53.5t19.5 -91v-381h-44l-12 62q-3 -2 -24.5 -12.5t-55.5 -23.5t-72 -22.5t-74 -9.5zM203 40q20 -1 46.5 4.5
t53.5 13t50.5 15t38 13.5t15.5 6v181l-186 -7q-62 -2 -88.5 -31t-26.5 -73v-25q0 -36 15 -57.5t37.5 -30.5t44.5 -9zM254 -205q-15 0 -15 14v72q0 15 15 15h26q7 0 11 -4.5t4 -10.5v-72q0 -14 -15 -14h-26z" />
    <glyph glyph-name="uni1EA2" unicode="&#x1ea2;" horiz-adv-x="671" 
d="M39 0l259 734h75l259 -734h-61l-81 228h-310l-80 -228h-61zM195 280h278l-138 402zM314 770v28q35 10 48.5 28t13.5 36q0 23 -11.5 36.5t-41.5 13.5q-8 0 -17.5 -1.5t-18.5 -4.5v26q11 4 21.5 5.5t21.5 1.5q41 0 60 -21t19 -55q0 -29 -22.5 -54t-72.5 -39z" />
    <glyph glyph-name="uni1EA3" unicode="&#x1ea3;" horiz-adv-x="543" 
d="M183 -6q-58 0 -96.5 34.5t-38.5 98.5v36q0 63 41.5 102t122.5 39h195v74q0 36 -12.5 62t-43.5 40t-89 14h-167v35q33 4 78.5 8t104.5 5q65 1 106.5 -16.5t61 -53.5t19.5 -91v-381h-44l-12 62q-3 -2 -24.5 -12.5t-55.5 -23.5t-72 -22.5t-74 -9.5zM203 40q20 -1 46.5 4.5
t53.5 13t50.5 15t38 13.5t15.5 6v181l-186 -7q-62 -2 -88.5 -31t-26.5 -73v-25q0 -36 15 -57.5t37.5 -30.5t44.5 -9zM254 606v28q35 10 48.5 28t13.5 36q0 23 -11.5 36.5t-41.5 13.5q-8 0 -17.5 -1.5t-18.5 -4.5v26q11 4 21.5 5.5t21.5 1.5q41 0 60 -21t19 -55
q0 -29 -22.5 -54t-72.5 -39z" />
    <glyph glyph-name="uni1EA4" unicode="&#x1ea4;" horiz-adv-x="671" 
d="M39 0l259 734h75l259 -734h-61l-81 228h-310l-80 -228h-61zM195 280h278l-138 402zM316 886h42l115 -95h-37l-99 66l-110 -66h-36zM516 996h52l-118 -131h-34z" />
    <glyph glyph-name="uni1EA5" unicode="&#x1ea5;" horiz-adv-x="543" 
d="M183 -6q-58 0 -96.5 34.5t-38.5 98.5v36q0 63 41.5 102t122.5 39h195v74q0 36 -12.5 62t-43.5 40t-89 14h-167v35q33 4 78.5 8t104.5 5q65 1 106.5 -16.5t61 -53.5t19.5 -91v-381h-44l-12 62q-3 -2 -24.5 -12.5t-55.5 -23.5t-72 -22.5t-74 -9.5zM203 40q20 -1 46.5 4.5
t53.5 13t50.5 15t38 13.5t15.5 6v181l-186 -7q-62 -2 -88.5 -31t-26.5 -73v-25q0 -36 15 -57.5t37.5 -30.5t44.5 -9zM251 726h42l115 -95h-37l-99 66l-110 -66h-36zM451 836h52l-118 -131h-34z" />
    <glyph glyph-name="uni1EA6" unicode="&#x1ea6;" horiz-adv-x="671" 
d="M39 0l259 734h75l259 -734h-61l-81 228h-310l-80 -228h-61zM195 280h278l-138 402zM316 886h42l115 -95h-37l-99 66l-110 -66h-36zM102 996h51l101 -131h-34z" />
    <glyph glyph-name="uni1EA7" unicode="&#x1ea7;" horiz-adv-x="543" 
d="M183 -6q-58 0 -96.5 34.5t-38.5 98.5v36q0 63 41.5 102t122.5 39h195v74q0 36 -12.5 62t-43.5 40t-89 14h-167v35q33 4 78.5 8t104.5 5q65 1 106.5 -16.5t61 -53.5t19.5 -91v-381h-44l-12 62q-3 -2 -24.5 -12.5t-55.5 -23.5t-72 -22.5t-74 -9.5zM203 40q20 -1 46.5 4.5
t53.5 13t50.5 15t38 13.5t15.5 6v181l-186 -7q-62 -2 -88.5 -31t-26.5 -73v-25q0 -36 15 -57.5t37.5 -30.5t44.5 -9zM251 726h42l115 -95h-37l-99 66l-110 -66h-36zM37 836h51l101 -131h-34z" />
    <glyph glyph-name="uni1EA8" unicode="&#x1ea8;" horiz-adv-x="671" 
d="M39 0l259 734h75l259 -734h-61l-81 228h-310l-80 -228h-61zM195 280h278l-138 402zM191 791l125 95h42l115 -95h-37l-99 66l-110 -66h-36zM438 842v28q32 9 44 24.5t12 30.5q0 20 -10.5 30.5t-36.5 10.5q-8 0 -17.5 -1.5t-18.5 -4.5v24q11 4 21.5 5.5t21.5 1.5
q37 0 54 -17.5t17 -46.5q0 -27 -20.5 -49.5t-66.5 -35.5z" />
    <glyph glyph-name="uni1EA9" unicode="&#x1ea9;" horiz-adv-x="543" 
d="M183 -6q-58 0 -96.5 34.5t-38.5 98.5v36q0 63 41.5 102t122.5 39h195v74q0 36 -12.5 62t-43.5 40t-89 14h-167v35q33 4 78.5 8t104.5 5q65 1 106.5 -16.5t61 -53.5t19.5 -91v-381h-44l-12 62q-3 -2 -24.5 -12.5t-55.5 -23.5t-72 -22.5t-74 -9.5zM203 40q20 -1 46.5 4.5
t53.5 13t50.5 15t38 13.5t15.5 6v181l-186 -7q-62 -2 -88.5 -31t-26.5 -73v-25q0 -36 15 -57.5t37.5 -30.5t44.5 -9zM126 631l125 95h42l115 -95h-37l-99 66l-110 -66h-36zM373 682v28q32 9 44 24.5t12 30.5q0 20 -10.5 30.5t-36.5 10.5q-8 0 -17.5 -1.5t-18.5 -4.5v24
q11 4 21.5 5.5t21.5 1.5q37 0 54 -17.5t17 -46.5q0 -27 -20.5 -49.5t-66.5 -35.5z" />
    <glyph glyph-name="uni1EAA" unicode="&#x1eaa;" horiz-adv-x="671" 
d="M39 0l259 734h75l259 -734h-61l-81 228h-310l-80 -228h-61zM195 280h278l-138 402zM174 934q1 30 13 47t30.5 23.5t37.5 6.5q29 0 54 -11t48.5 -23t48.5 -12q24 0 40.5 12.5t16.5 35.5h31q-1 -26 -11 -43.5t-28 -26.5t-44 -9q-27 0 -52.5 12t-50 23t-50.5 11
q-21 0 -37 -11t-16 -35h-31zM358 886l115 -95h-37l-99 66l-110 -66h-36l125 95h42z" />
    <glyph glyph-name="uni1EAB" unicode="&#x1eab;" horiz-adv-x="543" 
d="M183 -6q-58 0 -96.5 34.5t-38.5 98.5v36q0 63 41.5 102t122.5 39h195v74q0 36 -12.5 62t-43.5 40t-89 14h-167v35q33 4 78.5 8t104.5 5q65 1 106.5 -16.5t61 -53.5t19.5 -91v-381h-44l-12 62q-3 -2 -24.5 -12.5t-55.5 -23.5t-72 -22.5t-74 -9.5zM203 40q20 -1 46.5 4.5
t53.5 13t50.5 15t38 13.5t15.5 6v181l-186 -7q-62 -2 -88.5 -31t-26.5 -73v-25q0 -36 15 -57.5t37.5 -30.5t44.5 -9zM109 774q1 30 13 47t30.5 23.5t37.5 6.5q29 0 54 -11t48.5 -23t48.5 -12q24 0 40.5 12.5t16.5 35.5h31q-1 -26 -11 -43.5t-28 -26.5t-44 -9q-27 0 -52.5 12
t-50 23t-50.5 11q-21 0 -37 -11t-16 -35h-31zM293 726l115 -95h-37l-99 66l-110 -66h-36l125 95h42z" />
    <glyph glyph-name="uni1EAC" unicode="&#x1eac;" horiz-adv-x="671" 
d="M39 0l259 734h75l259 -734h-61l-81 228h-310l-80 -228h-61zM195 280h278l-138 402zM191 791l126 133h42l114 -133h-37l-99 104l-109 -104h-37zM320 -205q-15 0 -15 14v72q0 15 15 15h26q7 0 11 -4.5t4 -10.5v-72q0 -14 -15 -14h-26z" />
    <glyph glyph-name="uni1EAD" unicode="&#x1ead;" horiz-adv-x="543" 
d="M183 -6q-58 0 -96.5 34.5t-38.5 98.5v36q0 63 41.5 102t122.5 39h195v74q0 36 -12.5 62t-43.5 40t-89 14h-167v35q33 4 78.5 8t104.5 5q65 1 106.5 -16.5t61 -53.5t19.5 -91v-381h-44l-12 62q-3 -2 -24.5 -12.5t-55.5 -23.5t-72 -22.5t-74 -9.5zM203 40q20 -1 46.5 4.5
t53.5 13t50.5 15t38 13.5t15.5 6v181l-186 -7q-62 -2 -88.5 -31t-26.5 -73v-25q0 -36 15 -57.5t37.5 -30.5t44.5 -9zM126 631l126 133h42l114 -133h-37l-99 104l-109 -104h-37zM254 -205q-15 0 -15 14v72q0 15 15 15h26q7 0 11 -4.5t4 -10.5v-72q0 -14 -15 -14h-26z" />
    <glyph glyph-name="uni1EAE" unicode="&#x1eae;" horiz-adv-x="671" 
d="M39 0l259 734h75l259 -734h-61l-81 228h-310l-80 -228h-61zM195 280h278l-138 402zM229 895q0 -45 30 -64t69 -18q44 1 72.5 18.5t28.5 63.5h29q0 -42 -18.5 -65.5t-48 -33.5t-63.5 -10q-33 0 -62.5 10.5t-47.5 34.5t-18 64h29zM304 897l110 135h52l-128 -135h-34z" />
    <glyph glyph-name="uni1EAF" unicode="&#x1eaf;" horiz-adv-x="543" 
d="M183 -6q-58 0 -96.5 34.5t-38.5 98.5v36q0 63 41.5 102t122.5 39h195v74q0 36 -12.5 62t-43.5 40t-89 14h-167v35q33 4 78.5 8t104.5 5q65 1 106.5 -16.5t61 -53.5t19.5 -91v-381h-44l-12 62q-3 -2 -24.5 -12.5t-55.5 -23.5t-72 -22.5t-74 -9.5zM203 40q20 -1 46.5 4.5
t53.5 13t50.5 15t38 13.5t15.5 6v181l-186 -7q-62 -2 -88.5 -31t-26.5 -73v-25q0 -36 15 -57.5t37.5 -30.5t44.5 -9zM164 735q0 -45 30 -64t69 -18q44 1 72.5 18.5t28.5 63.5h29q0 -42 -18.5 -65.5t-48 -33.5t-63.5 -10q-33 0 -62.5 10.5t-47.5 34.5t-18 64h29zM239 737
l110 135h52l-128 -135h-34z" />
    <glyph glyph-name="uni1EB0" unicode="&#x1eb0;" horiz-adv-x="671" 
d="M39 0l259 734h75l259 -734h-61l-81 228h-310l-80 -228h-61zM195 280h278l-138 402zM229 895q0 -45 30 -64t69 -18q44 1 72.5 18.5t28.5 63.5h29q0 -42 -18.5 -65.5t-48 -33.5t-63.5 -10q-33 0 -62.5 10.5t-47.5 34.5t-18 64h29zM330 897l-128 135h51l111 -135h-34z" />
    <glyph glyph-name="uni1EB1" unicode="&#x1eb1;" horiz-adv-x="543" 
d="M183 -6q-58 0 -96.5 34.5t-38.5 98.5v36q0 63 41.5 102t122.5 39h195v74q0 36 -12.5 62t-43.5 40t-89 14h-167v35q33 4 78.5 8t104.5 5q65 1 106.5 -16.5t61 -53.5t19.5 -91v-381h-44l-12 62q-3 -2 -24.5 -12.5t-55.5 -23.5t-72 -22.5t-74 -9.5zM203 40q20 -1 46.5 4.5
t53.5 13t50.5 15t38 13.5t15.5 6v181l-186 -7q-62 -2 -88.5 -31t-26.5 -73v-25q0 -36 15 -57.5t37.5 -30.5t44.5 -9zM164 735q0 -45 30 -64t69 -18q44 1 72.5 18.5t28.5 63.5h29q0 -42 -18.5 -65.5t-48 -33.5t-63.5 -10q-33 0 -62.5 10.5t-47.5 34.5t-18 64h29zM265 737
l-128 135h51l111 -135h-34z" />
    <glyph glyph-name="uni1EB2" unicode="&#x1eb2;" horiz-adv-x="671" 
d="M39 0l259 734h75l259 -734h-61l-81 228h-310l-80 -228h-61zM195 280h278l-138 402zM328 786q-33 0 -62.5 10.5t-47.5 34.5t-18 64h29q0 -45 30 -64t69 -18q44 1 72.5 18.5t28.5 63.5h29q0 -42 -18.5 -65.5t-48 -33.5t-63.5 -10zM313 856v28q35 10 48.5 28t13.5 36
q0 23 -12 36.5t-41 13.5q-9 0 -18.5 -1.5t-18.5 -4.5v26q11 4 21.5 5.5t22.5 1.5q40 0 59 -21t19 -55q0 -29 -22.5 -54t-71.5 -39z" />
    <glyph glyph-name="uni1EB3" unicode="&#x1eb3;" horiz-adv-x="543" 
d="M183 -6q-58 0 -96.5 34.5t-38.5 98.5v36q0 63 41.5 102t122.5 39h195v74q0 36 -12.5 62t-43.5 40t-89 14h-167v35q33 4 78.5 8t104.5 5q65 1 106.5 -16.5t61 -53.5t19.5 -91v-381h-44l-12 62q-3 -2 -24.5 -12.5t-55.5 -23.5t-72 -22.5t-74 -9.5zM203 40q20 -1 46.5 4.5
t53.5 13t50.5 15t38 13.5t15.5 6v181l-186 -7q-62 -2 -88.5 -31t-26.5 -73v-25q0 -36 15 -57.5t37.5 -30.5t44.5 -9zM263 626q-33 0 -62.5 10.5t-47.5 34.5t-18 64h29q0 -45 30 -64t69 -18q44 1 72.5 18.5t28.5 63.5h29q0 -42 -18.5 -65.5t-48 -33.5t-63.5 -10zM248 696v28
q35 10 48.5 28t13.5 36q0 23 -12 36.5t-41 13.5q-9 0 -18.5 -1.5t-18.5 -4.5v26q11 4 21.5 5.5t22.5 1.5q40 0 59 -21t19 -55q0 -29 -22.5 -54t-71.5 -39z" />
    <glyph glyph-name="uni1EB4" unicode="&#x1eb4;" horiz-adv-x="671" 
d="M39 0l259 734h75l259 -734h-61l-81 228h-310l-80 -228h-61zM195 280h278l-138 402zM229 895q0 -45 30 -64t69 -18q44 1 72.5 18.5t28.5 63.5h29q0 -42 -18.5 -65.5t-48 -33.5t-63.5 -10q-33 0 -62.5 10.5t-47.5 34.5t-18 64h29zM174 930q1 30 13 47t30.5 23.5t37.5 6.5
q29 0 54 -11t48.5 -23t48.5 -12q24 0 40.5 12.5t16.5 35.5h31q-1 -26 -11 -43.5t-28 -26.5t-44 -9q-27 0 -52 12t-49 23t-50 11q-22 0 -38.5 -11t-16.5 -35h-31z" />
    <glyph glyph-name="uni1EB5" unicode="&#x1eb5;" horiz-adv-x="543" 
d="M183 -6q-58 0 -96.5 34.5t-38.5 98.5v36q0 63 41.5 102t122.5 39h195v74q0 36 -12.5 62t-43.5 40t-89 14h-167v35q33 4 78.5 8t104.5 5q65 1 106.5 -16.5t61 -53.5t19.5 -91v-381h-44l-12 62q-3 -2 -24.5 -12.5t-55.5 -23.5t-72 -22.5t-74 -9.5zM203 40q20 -1 46.5 4.5
t53.5 13t50.5 15t38 13.5t15.5 6v181l-186 -7q-62 -2 -88.5 -31t-26.5 -73v-25q0 -36 15 -57.5t37.5 -30.5t44.5 -9zM164 735q0 -45 30 -64t69 -18q44 1 72.5 18.5t28.5 63.5h29q0 -42 -18.5 -65.5t-48 -33.5t-63.5 -10q-33 0 -62.5 10.5t-47.5 34.5t-18 64h29zM109 770
q1 30 13 47t30.5 23.5t37.5 6.5q29 0 54 -11t48.5 -23t48.5 -12q24 0 40.5 12.5t16.5 35.5h31q-1 -26 -11 -43.5t-28 -26.5t-44 -9q-27 0 -52 12t-49 23t-50 11q-22 0 -38.5 -11t-16.5 -35h-31z" />
    <glyph glyph-name="uni1EB6" unicode="&#x1eb6;" horiz-adv-x="671" 
d="M39 0l259 734h75l259 -734h-61l-81 228h-310l-80 -228h-61zM195 280h278l-138 402zM328 790q-33 0 -62.5 13t-47.5 43.5t-18 82.5h29q0 -61 29.5 -86t69.5 -24q44 1 72.5 25t28.5 85h29q0 -54 -18.5 -84t-48 -42.5t-63.5 -12.5zM320 -205q-15 0 -15 14v72q0 15 15 15h26
q7 0 11 -4.5t4 -10.5v-72q0 -14 -15 -14h-26z" />
    <glyph glyph-name="uni1EB7" unicode="&#x1eb7;" horiz-adv-x="543" 
d="M183 -6q-58 0 -96.5 34.5t-38.5 98.5v36q0 63 41.5 102t122.5 39h195v74q0 36 -12.5 62t-43.5 40t-89 14h-167v35q33 4 78.5 8t104.5 5q65 1 106.5 -16.5t61 -53.5t19.5 -91v-381h-44l-12 62q-3 -2 -24.5 -12.5t-55.5 -23.5t-72 -22.5t-74 -9.5zM203 40q20 -1 46.5 4.5
t53.5 13t50.5 15t38 13.5t15.5 6v181l-186 -7q-62 -2 -88.5 -31t-26.5 -73v-25q0 -36 15 -57.5t37.5 -30.5t44.5 -9zM263 630q-33 0 -62.5 13t-47.5 43.5t-18 82.5h29q0 -61 29.5 -86t69.5 -24q44 1 72.5 25t28.5 85h29q0 -54 -18.5 -84t-48 -42.5t-63.5 -12.5zM254 -205
q-15 0 -15 14v72q0 15 15 15h26q7 0 11 -4.5t4 -10.5v-72q0 -14 -15 -14h-26z" />
    <glyph glyph-name="uni1EB8" unicode="&#x1eb8;" horiz-adv-x="584" 
d="M230 -4q-25 0 -50.5 4.5t-48 18t-36.5 41t-14 73.5v460q0 41 12 68t32 43t44.5 23t49.5 7q57 -1 108.5 -2t100 -2.5t94.5 -3.5v-45h-291q-42 0 -67 -22.5t-25 -72.5v-195l341 -5v-43l-341 -5v-194q0 -41 14.5 -61t37.5 -26.5t47 -6.5h284v-45q-46 -2 -95.5 -3.5t-98.5 -3
t-98 -2.5zM301 -205q-15 0 -15 14v72q0 15 15 15h26q7 0 11 -4.5t4 -10.5v-72q0 -14 -15 -14h-26z" />
    <glyph glyph-name="uni1EB9" unicode="&#x1eb9;" horiz-adv-x="542" 
d="M279 -6q-82 0 -129.5 25.5t-67.5 85.5t-20 163q0 105 21 164t69.5 83t129.5 24q68 0 111.5 -15.5t65 -53.5t21.5 -105q0 -45 -17.5 -72.5t-50.5 -39.5t-78 -12h-214q0 -73 14 -117t50.5 -64t107.5 -20h176v-35q-48 -5 -90.5 -8t-98.5 -3zM119 282h211q49 0 73 17.5
t24 65.5q0 50 -14.5 78t-46 39.5t-84.5 11.5q-63 0 -98.5 -18t-50 -64t-14.5 -130zM254 -205q-15 0 -15 14v72q0 15 15 15h26q7 0 11 -4.5t4 -10.5v-72q0 -14 -15 -14h-26z" />
    <glyph glyph-name="uni1EBA" unicode="&#x1eba;" horiz-adv-x="584" 
d="M230 -4q-25 0 -50.5 4.5t-48 18t-36.5 41t-14 73.5v460q0 41 12 68t32 43t44.5 23t49.5 7q57 -1 108.5 -2t100 -2.5t94.5 -3.5v-45h-291q-42 0 -67 -22.5t-25 -72.5v-195l341 -5v-43l-341 -5v-194q0 -41 14.5 -61t37.5 -26.5t47 -6.5h284v-45q-46 -2 -95.5 -3.5t-98.5 -3
t-98 -2.5zM290 770v28q35 10 48.5 28t13.5 36q0 23 -11.5 36.5t-41.5 13.5q-8 0 -17.5 -1.5t-18.5 -4.5v26q11 4 21.5 5.5t21.5 1.5q41 0 60 -21t19 -55q0 -29 -22.5 -54t-72.5 -39z" />
    <glyph glyph-name="uni1EBB" unicode="&#x1ebb;" horiz-adv-x="542" 
d="M279 -6q-82 0 -129.5 25.5t-67.5 85.5t-20 163q0 105 21 164t69.5 83t129.5 24q68 0 111.5 -15.5t65 -53.5t21.5 -105q0 -45 -17.5 -72.5t-50.5 -39.5t-78 -12h-214q0 -73 14 -117t50.5 -64t107.5 -20h176v-35q-48 -5 -90.5 -8t-98.5 -3zM119 282h211q49 0 73 17.5
t24 65.5q0 50 -14.5 78t-46 39.5t-84.5 11.5q-63 0 -98.5 -18t-50 -64t-14.5 -130zM254 606v28q35 10 48.5 28t13.5 36q0 23 -11.5 36.5t-41.5 13.5q-8 0 -17.5 -1.5t-18.5 -4.5v26q11 4 21.5 5.5t21.5 1.5q41 0 60 -21t19 -55q0 -29 -22.5 -54t-72.5 -39z" />
    <glyph glyph-name="uni1EBC" unicode="&#x1ebc;" horiz-adv-x="584" 
d="M230 -4q-25 0 -50.5 4.5t-48 18t-36.5 41t-14 73.5v460q0 41 12 68t32 43t44.5 23t49.5 7q57 -1 108.5 -2t100 -2.5t94.5 -3.5v-45h-291q-42 0 -67 -22.5t-25 -72.5v-195l341 -5v-43l-341 -5v-194q0 -41 14.5 -61t37.5 -26.5t47 -6.5h284v-45q-46 -2 -95.5 -3.5t-98.5 -3
t-98 -2.5zM144 812q1 38 15 59.5t35 31t43 9.5q23 0 44 -9.5t40 -23t37 -23t37 -9.5q28 0 47 17t19 50h31q-1 -47 -25.5 -74t-69.5 -27q-22 0 -42 9.5t-39.5 23t-38.5 23t-38 9.5q-26 0 -45 -15.5t-19 -50.5h-31z" />
    <glyph glyph-name="uni1EBD" unicode="&#x1ebd;" horiz-adv-x="542" 
d="M279 -6q-82 0 -129.5 25.5t-67.5 85.5t-20 163q0 105 21 164t69.5 83t129.5 24q68 0 111.5 -15.5t65 -53.5t21.5 -105q0 -45 -17.5 -72.5t-50.5 -39.5t-78 -12h-214q0 -73 14 -117t50.5 -64t107.5 -20h176v-35q-48 -5 -90.5 -8t-98.5 -3zM119 282h211q49 0 73 17.5
t24 65.5q0 50 -14.5 78t-46 39.5t-84.5 11.5q-63 0 -98.5 -18t-50 -64t-14.5 -130zM110 652q1 38 15 59.5t35 31t43 9.5q23 0 44 -9.5t40 -23t37 -23t37 -9.5q28 0 47 17t19 50h31q-1 -47 -25.5 -74t-69.5 -27q-22 0 -42 9.5t-39.5 23t-38.5 23t-38 9.5q-26 0 -45 -15.5
t-19 -50.5h-31z" />
    <glyph glyph-name="uni1EBE" unicode="&#x1ebe;" horiz-adv-x="584" 
d="M230 -4q-25 0 -50.5 4.5t-48 18t-36.5 41t-14 73.5v460q0 41 12 68t32 43t44.5 23t49.5 7q57 -1 108.5 -2t100 -2.5t94.5 -3.5v-45h-291q-42 0 -67 -22.5t-25 -72.5v-195l341 -5v-43l-341 -5v-194q0 -41 14.5 -61t37.5 -26.5t47 -6.5h284v-45q-46 -2 -95.5 -3.5t-98.5 -3
t-98 -2.5zM292 886h42l115 -95h-37l-99 66l-110 -66h-36zM492 996h52l-118 -131h-34z" />
    <glyph glyph-name="uni1EBF" unicode="&#x1ebf;" horiz-adv-x="542" 
d="M279 -6q-82 0 -129.5 25.5t-67.5 85.5t-20 163q0 105 21 164t69.5 83t129.5 24q68 0 111.5 -15.5t65 -53.5t21.5 -105q0 -45 -17.5 -72.5t-50.5 -39.5t-78 -12h-214q0 -73 14 -117t50.5 -64t107.5 -20h176v-35q-48 -5 -90.5 -8t-98.5 -3zM119 282h211q49 0 73 17.5
t24 65.5q0 50 -14.5 78t-46 39.5t-84.5 11.5q-63 0 -98.5 -18t-50 -64t-14.5 -130zM251 726h42l115 -95h-37l-99 66l-110 -66h-36zM451 836h52l-118 -131h-34z" />
    <glyph glyph-name="uni1EC0" unicode="&#x1ec0;" horiz-adv-x="584" 
d="M230 -4q-25 0 -50.5 4.5t-48 18t-36.5 41t-14 73.5v460q0 41 12 68t32 43t44.5 23t49.5 7q57 -1 108.5 -2t100 -2.5t94.5 -3.5v-45h-291q-42 0 -67 -22.5t-25 -72.5v-195l341 -5v-43l-341 -5v-194q0 -41 14.5 -61t37.5 -26.5t47 -6.5h284v-45q-46 -2 -95.5 -3.5t-98.5 -3
t-98 -2.5zM292 886h42l115 -95h-37l-99 66l-110 -66h-36zM78 996h51l101 -131h-34z" />
    <glyph glyph-name="uni1EC1" unicode="&#x1ec1;" horiz-adv-x="542" 
d="M279 -6q-82 0 -129.5 25.5t-67.5 85.5t-20 163q0 105 21 164t69.5 83t129.5 24q68 0 111.5 -15.5t65 -53.5t21.5 -105q0 -45 -17.5 -72.5t-50.5 -39.5t-78 -12h-214q0 -73 14 -117t50.5 -64t107.5 -20h176v-35q-48 -5 -90.5 -8t-98.5 -3zM119 282h211q49 0 73 17.5
t24 65.5q0 50 -14.5 78t-46 39.5t-84.5 11.5q-63 0 -98.5 -18t-50 -64t-14.5 -130zM251 726h42l115 -95h-37l-99 66l-110 -66h-36zM37 836h51l101 -131h-34z" />
    <glyph glyph-name="uni1EC2" unicode="&#x1ec2;" horiz-adv-x="584" 
d="M230 -4q-25 0 -50.5 4.5t-48 18t-36.5 41t-14 73.5v460q0 41 12 68t32 43t44.5 23t49.5 7q57 -1 108.5 -2t100 -2.5t94.5 -3.5v-45h-291q-42 0 -67 -22.5t-25 -72.5v-195l341 -5v-43l-341 -5v-194q0 -41 14.5 -61t37.5 -26.5t47 -6.5h284v-45q-46 -2 -95.5 -3.5t-98.5 -3
t-98 -2.5zM167 791l125 95h42l115 -95h-37l-99 66l-110 -66h-36zM414 842v28q32 9 44 24.5t12 30.5q0 20 -10.5 30.5t-36.5 10.5q-8 0 -17.5 -1.5t-18.5 -4.5v24q11 4 21.5 5.5t21.5 1.5q37 0 54 -17.5t17 -46.5q0 -27 -20.5 -49.5t-66.5 -35.5z" />
    <glyph glyph-name="uni1EC3" unicode="&#x1ec3;" horiz-adv-x="542" 
d="M279 -6q-82 0 -129.5 25.5t-67.5 85.5t-20 163q0 105 21 164t69.5 83t129.5 24q68 0 111.5 -15.5t65 -53.5t21.5 -105q0 -45 -17.5 -72.5t-50.5 -39.5t-78 -12h-214q0 -73 14 -117t50.5 -64t107.5 -20h176v-35q-48 -5 -90.5 -8t-98.5 -3zM119 282h211q49 0 73 17.5
t24 65.5q0 50 -14.5 78t-46 39.5t-84.5 11.5q-63 0 -98.5 -18t-50 -64t-14.5 -130zM126 631l125 95h42l115 -95h-37l-99 66l-110 -66h-36zM373 682v28q32 9 44 24.5t12 30.5q0 20 -10.5 30.5t-36.5 10.5q-8 0 -17.5 -1.5t-18.5 -4.5v24q11 4 21.5 5.5t21.5 1.5
q37 0 54 -17.5t17 -46.5q0 -27 -20.5 -49.5t-66.5 -35.5z" />
    <glyph glyph-name="uni1EC4" unicode="&#x1ec4;" horiz-adv-x="584" 
d="M230 -4q-25 0 -50.5 4.5t-48 18t-36.5 41t-14 73.5v460q0 41 12 68t32 43t44.5 23t49.5 7q57 -1 108.5 -2t100 -2.5t94.5 -3.5v-45h-291q-42 0 -67 -22.5t-25 -72.5v-195l341 -5v-43l-341 -5v-194q0 -41 14.5 -61t37.5 -26.5t47 -6.5h284v-45q-46 -2 -95.5 -3.5t-98.5 -3
t-98 -2.5zM150 934q1 30 13 47t30.5 23.5t37.5 6.5q29 0 54 -11t48.5 -23t48.5 -12q24 0 40.5 12.5t16.5 35.5h31q-1 -26 -11 -43.5t-28 -26.5t-44 -9q-27 0 -52.5 12t-50 23t-50.5 11q-21 0 -37 -11t-16 -35h-31zM334 886l115 -95h-37l-99 66l-110 -66h-36l125 95h42z" />
    <glyph glyph-name="uni1EC5" unicode="&#x1ec5;" horiz-adv-x="542" 
d="M279 -6q-82 0 -129.5 25.5t-67.5 85.5t-20 163q0 105 21 164t69.5 83t129.5 24q68 0 111.5 -15.5t65 -53.5t21.5 -105q0 -45 -17.5 -72.5t-50.5 -39.5t-78 -12h-214q0 -73 14 -117t50.5 -64t107.5 -20h176v-35q-48 -5 -90.5 -8t-98.5 -3zM119 282h211q49 0 73 17.5
t24 65.5q0 50 -14.5 78t-46 39.5t-84.5 11.5q-63 0 -98.5 -18t-50 -64t-14.5 -130zM109 774q1 30 13 47t30.5 23.5t37.5 6.5q29 0 54 -11t48.5 -23t48.5 -12q24 0 40.5 12.5t16.5 35.5h31q-1 -26 -11 -43.5t-28 -26.5t-44 -9q-27 0 -52.5 12t-50 23t-50.5 11q-21 0 -37 -11
t-16 -35h-31zM293 726l115 -95h-37l-99 66l-110 -66h-36l125 95h42z" />
    <glyph glyph-name="uni1EC6" unicode="&#x1ec6;" horiz-adv-x="584" 
d="M230 -4q-25 0 -50.5 4.5t-48 18t-36.5 41t-14 73.5v460q0 41 12 68t32 43t44.5 23t49.5 7q57 -1 108.5 -2t100 -2.5t94.5 -3.5v-45h-291q-42 0 -67 -22.5t-25 -72.5v-195l341 -5v-43l-341 -5v-194q0 -41 14.5 -61t37.5 -26.5t47 -6.5h284v-45q-46 -2 -95.5 -3.5t-98.5 -3
t-98 -2.5zM167 791l126 133h42l114 -133h-37l-99 104l-109 -104h-37zM301 -205q-15 0 -15 14v72q0 15 15 15h26q7 0 11 -4.5t4 -10.5v-72q0 -14 -15 -14h-26z" />
    <glyph glyph-name="uni1EC7" unicode="&#x1ec7;" horiz-adv-x="542" 
d="M279 -6q-82 0 -129.5 25.5t-67.5 85.5t-20 163q0 105 21 164t69.5 83t129.5 24q68 0 111.5 -15.5t65 -53.5t21.5 -105q0 -45 -17.5 -72.5t-50.5 -39.5t-78 -12h-214q0 -73 14 -117t50.5 -64t107.5 -20h176v-35q-48 -5 -90.5 -8t-98.5 -3zM119 282h211q49 0 73 17.5
t24 65.5q0 50 -14.5 78t-46 39.5t-84.5 11.5q-63 0 -98.5 -18t-50 -64t-14.5 -130zM126 631l126 133h42l114 -133h-37l-99 104l-109 -104h-37zM254 -205q-15 0 -15 14v72q0 15 15 15h26q7 0 11 -4.5t4 -10.5v-72q0 -14 -15 -14h-26z" />
    <glyph glyph-name="uni1EC8" unicode="&#x1ec8;" horiz-adv-x="221" 
d="M81 0v734h58v-734h-58zM89 770v28q35 10 48.5 28t13.5 36q0 23 -11.5 36.5t-41.5 13.5q-8 0 -17.5 -1.5t-18.5 -4.5v26q11 4 21.5 5.5t21.5 1.5q41 0 60 -21t19 -55q0 -29 -22.5 -54t-72.5 -39z" />
    <glyph glyph-name="uni1EC9" unicode="&#x1ec9;" horiz-adv-x="218" 
d="M82 0v533h58v-533h-58zM95 606v28q35 10 48.5 28t13.5 36q0 23 -11.5 36.5t-41.5 13.5q-8 0 -17.5 -1.5t-18.5 -4.5v26q11 4 21.5 5.5t21.5 1.5q41 0 60 -21t19 -55q0 -29 -22.5 -54t-72.5 -39z" />
    <glyph glyph-name="uni1ECA" unicode="&#x1eca;" horiz-adv-x="221" 
d="M81 0v734h58v-734h-58zM95 -205q-15 0 -15 14v72q0 15 15 15h26q7 0 11 -4.5t4 -10.5v-72q0 -14 -15 -14h-26z" />
    <glyph glyph-name="uni1ECB" unicode="&#x1ecb;" horiz-adv-x="221" 
d="M92 633q-15 0 -15 15v71q0 15 15 15h39q7 0 10 -4t3 -11v-71q0 -15 -13 -15h-39zM82 0v533h58v-533h-58zM95 -205q-15 0 -15 14v72q0 15 15 15h26q7 0 11 -4.5t4 -10.5v-72q0 -14 -15 -14h-26z" />
    <glyph glyph-name="uni1ECC" unicode="&#x1ecc;" horiz-adv-x="682" 
d="M341 -6q-69 0 -121.5 13t-87 50.5t-52 111.5t-17.5 194q0 121 17.5 195.5t53 114t87.5 53.5t120 14q71 0 123.5 -14t87 -53.5t51 -114t16.5 -195.5q0 -120 -17 -194t-52 -111.5t-87 -50.5t-122 -13zM341 46q59 0 101 11.5t68.5 44.5t38.5 95.5t12 165.5q0 108 -12.5 173
t-39 97.5t-68 43.5t-100.5 11q-54 0 -95.5 -11t-69 -43.5t-41.5 -97.5t-14 -173q0 -103 11.5 -165.5t37.5 -95.5t68 -44.5t103 -11.5zM326 -205q-15 0 -15 14v72q0 15 15 15h26q7 0 11 -4.5t4 -10.5v-72q0 -14 -15 -14h-26z" />
    <glyph glyph-name="uni1ECD" unicode="&#x1ecd;" 
d="M288 -6q-55 0 -97.5 11.5t-71.5 41t-43 83t-14 137.5q0 85 14.5 138.5t43 82.5t71 40t97.5 11t97.5 -11t71.5 -40t43.5 -82.5t14.5 -138.5q0 -84 -14.5 -138t-43 -83t-71.5 -40.5t-98 -11.5zM288 43q40 0 72 7.5t53 30t32.5 67.5t11.5 119q0 75 -11.5 119.5t-32.5 67
t-53 30t-72 7.5q-41 0 -72 -7.5t-52.5 -30t-32.5 -67t-11 -119.5q0 -74 11 -119t32.5 -67.5t52.5 -30t72 -7.5zM272 -205q-15 0 -15 14v72q0 15 15 15h26q7 0 11 -4.5t4 -10.5v-72q0 -14 -15 -14h-26z" />
    <glyph glyph-name="uni1ECE" unicode="&#x1ece;" horiz-adv-x="682" 
d="M341 -6q-69 0 -121.5 13t-87 50.5t-52 111.5t-17.5 194q0 121 17.5 195.5t53 114t87.5 53.5t120 14q71 0 123.5 -14t87 -53.5t51 -114t16.5 -195.5q0 -120 -17 -194t-52 -111.5t-87 -50.5t-122 -13zM341 46q59 0 101 11.5t68.5 44.5t38.5 95.5t12 165.5q0 108 -12.5 173
t-39 97.5t-68 43.5t-100.5 11q-54 0 -95.5 -11t-69 -43.5t-41.5 -97.5t-14 -173q0 -103 11.5 -165.5t37.5 -95.5t68 -44.5t103 -11.5zM320 770v28q35 10 48.5 28t13.5 36q0 23 -11.5 36.5t-41.5 13.5q-8 0 -17.5 -1.5t-18.5 -4.5v26q11 4 21.5 5.5t21.5 1.5q41 0 60 -21
t19 -55q0 -29 -22.5 -54t-72.5 -39z" />
    <glyph glyph-name="uni1ECF" unicode="&#x1ecf;" 
d="M288 -6q-55 0 -97.5 11.5t-71.5 41t-43 83t-14 137.5q0 85 14.5 138.5t43 82.5t71 40t97.5 11t97.5 -11t71.5 -40t43.5 -82.5t14.5 -138.5q0 -84 -14.5 -138t-43 -83t-71.5 -40.5t-98 -11.5zM288 43q40 0 72 7.5t53 30t32.5 67.5t11.5 119q0 75 -11.5 119.5t-32.5 67
t-53 30t-72 7.5q-41 0 -72 -7.5t-52.5 -30t-32.5 -67t-11 -119.5q0 -74 11 -119t32.5 -67.5t52.5 -30t72 -7.5zM272 606v28q35 10 48.5 28t13.5 36q0 23 -11.5 36.5t-41.5 13.5q-8 0 -17.5 -1.5t-18.5 -4.5v26q11 4 21.5 5.5t21.5 1.5q41 0 60 -21t19 -55q0 -29 -22.5 -54
t-72.5 -39z" />
    <glyph glyph-name="uni1ED0" unicode="&#x1ed0;" horiz-adv-x="682" 
d="M341 -6q-69 0 -121.5 13t-87 50.5t-52 111.5t-17.5 194q0 121 17.5 195.5t53 114t87.5 53.5t120 14q71 0 123.5 -14t87 -53.5t51 -114t16.5 -195.5q0 -120 -17 -194t-52 -111.5t-87 -50.5t-122 -13zM341 46q59 0 101 11.5t68.5 44.5t38.5 95.5t12 165.5q0 108 -12.5 173
t-39 97.5t-68 43.5t-100.5 11q-54 0 -95.5 -11t-69 -43.5t-41.5 -97.5t-14 -173q0 -103 11.5 -165.5t37.5 -95.5t68 -44.5t103 -11.5zM322 886h42l115 -95h-37l-99 66l-110 -66h-36zM522 996h52l-118 -131h-34z" />
    <glyph glyph-name="uni1ED1" unicode="&#x1ed1;" 
d="M288 -6q-55 0 -97.5 11.5t-71.5 41t-43 83t-14 137.5q0 85 14.5 138.5t43 82.5t71 40t97.5 11t97.5 -11t71.5 -40t43.5 -82.5t14.5 -138.5q0 -84 -14.5 -138t-43 -83t-71.5 -40.5t-98 -11.5zM288 43q40 0 72 7.5t53 30t32.5 67.5t11.5 119q0 75 -11.5 119.5t-32.5 67
t-53 30t-72 7.5q-41 0 -72 -7.5t-52.5 -30t-32.5 -67t-11 -119.5q0 -74 11 -119t32.5 -67.5t52.5 -30t72 -7.5zM269 726h42l115 -95h-37l-99 66l-110 -66h-36zM469 836h52l-118 -131h-34z" />
    <glyph glyph-name="uni1ED2" unicode="&#x1ed2;" horiz-adv-x="682" 
d="M341 -6q-69 0 -121.5 13t-87 50.5t-52 111.5t-17.5 194q0 121 17.5 195.5t53 114t87.5 53.5t120 14q71 0 123.5 -14t87 -53.5t51 -114t16.5 -195.5q0 -120 -17 -194t-52 -111.5t-87 -50.5t-122 -13zM341 46q59 0 101 11.5t68.5 44.5t38.5 95.5t12 165.5q0 108 -12.5 173
t-39 97.5t-68 43.5t-100.5 11q-54 0 -95.5 -11t-69 -43.5t-41.5 -97.5t-14 -173q0 -103 11.5 -165.5t37.5 -95.5t68 -44.5t103 -11.5zM322 886h42l115 -95h-37l-99 66l-110 -66h-36zM108 996h51l101 -131h-34z" />
    <glyph glyph-name="uni1ED3" unicode="&#x1ed3;" 
d="M288 -6q-55 0 -97.5 11.5t-71.5 41t-43 83t-14 137.5q0 85 14.5 138.5t43 82.5t71 40t97.5 11t97.5 -11t71.5 -40t43.5 -82.5t14.5 -138.5q0 -84 -14.5 -138t-43 -83t-71.5 -40.5t-98 -11.5zM288 43q40 0 72 7.5t53 30t32.5 67.5t11.5 119q0 75 -11.5 119.5t-32.5 67
t-53 30t-72 7.5q-41 0 -72 -7.5t-52.5 -30t-32.5 -67t-11 -119.5q0 -74 11 -119t32.5 -67.5t52.5 -30t72 -7.5zM269 726h42l115 -95h-37l-99 66l-110 -66h-36zM55 836h51l101 -131h-34z" />
    <glyph glyph-name="uni1ED4" unicode="&#x1ed4;" horiz-adv-x="682" 
d="M341 -6q-69 0 -121.5 13t-87 50.5t-52 111.5t-17.5 194q0 121 17.5 195.5t53 114t87.5 53.5t120 14q71 0 123.5 -14t87 -53.5t51 -114t16.5 -195.5q0 -120 -17 -194t-52 -111.5t-87 -50.5t-122 -13zM341 46q59 0 101 11.5t68.5 44.5t38.5 95.5t12 165.5q0 108 -12.5 173
t-39 97.5t-68 43.5t-100.5 11q-54 0 -95.5 -11t-69 -43.5t-41.5 -97.5t-14 -173q0 -103 11.5 -165.5t37.5 -95.5t68 -44.5t103 -11.5zM197 791l125 95h42l115 -95h-37l-99 66l-110 -66h-36zM444 842v28q32 9 44 24.5t12 30.5q0 20 -10.5 30.5t-36.5 10.5q-8 0 -17.5 -1.5
t-18.5 -4.5v24q11 4 21.5 5.5t21.5 1.5q37 0 54 -17.5t17 -46.5q0 -27 -20.5 -49.5t-66.5 -35.5z" />
    <glyph glyph-name="uni1ED5" unicode="&#x1ed5;" 
d="M288 -6q-55 0 -97.5 11.5t-71.5 41t-43 83t-14 137.5q0 85 14.5 138.5t43 82.5t71 40t97.5 11t97.5 -11t71.5 -40t43.5 -82.5t14.5 -138.5q0 -84 -14.5 -138t-43 -83t-71.5 -40.5t-98 -11.5zM288 43q40 0 72 7.5t53 30t32.5 67.5t11.5 119q0 75 -11.5 119.5t-32.5 67
t-53 30t-72 7.5q-41 0 -72 -7.5t-52.5 -30t-32.5 -67t-11 -119.5q0 -74 11 -119t32.5 -67.5t52.5 -30t72 -7.5zM144 631l125 95h42l115 -95h-37l-99 66l-110 -66h-36zM391 682v28q32 9 44 24.5t12 30.5q0 20 -10.5 30.5t-36.5 10.5q-8 0 -17.5 -1.5t-18.5 -4.5v24
q11 4 21.5 5.5t21.5 1.5q37 0 54 -17.5t17 -46.5q0 -27 -20.5 -49.5t-66.5 -35.5z" />
    <glyph glyph-name="uni1ED6" unicode="&#x1ed6;" horiz-adv-x="682" 
d="M341 -6q-69 0 -121.5 13t-87 50.5t-52 111.5t-17.5 194q0 121 17.5 195.5t53 114t87.5 53.5t120 14q71 0 123.5 -14t87 -53.5t51 -114t16.5 -195.5q0 -120 -17 -194t-52 -111.5t-87 -50.5t-122 -13zM341 46q59 0 101 11.5t68.5 44.5t38.5 95.5t12 165.5q0 108 -12.5 173
t-39 97.5t-68 43.5t-100.5 11q-54 0 -95.5 -11t-69 -43.5t-41.5 -97.5t-14 -173q0 -103 11.5 -165.5t37.5 -95.5t68 -44.5t103 -11.5zM180 934q1 30 13 47t30.5 23.5t37.5 6.5q29 0 54 -11t48.5 -23t48.5 -12q24 0 40.5 12.5t16.5 35.5h31q-1 -26 -11 -43.5t-28 -26.5
t-44 -9q-27 0 -52.5 12t-50 23t-50.5 11q-21 0 -37 -11t-16 -35h-31zM364 886l115 -95h-37l-99 66l-110 -66h-36l125 95h42z" />
    <glyph glyph-name="uni1ED7" unicode="&#x1ed7;" 
d="M288 -6q-55 0 -97.5 11.5t-71.5 41t-43 83t-14 137.5q0 85 14.5 138.5t43 82.5t71 40t97.5 11t97.5 -11t71.5 -40t43.5 -82.5t14.5 -138.5q0 -84 -14.5 -138t-43 -83t-71.5 -40.5t-98 -11.5zM288 43q40 0 72 7.5t53 30t32.5 67.5t11.5 119q0 75 -11.5 119.5t-32.5 67
t-53 30t-72 7.5q-41 0 -72 -7.5t-52.5 -30t-32.5 -67t-11 -119.5q0 -74 11 -119t32.5 -67.5t52.5 -30t72 -7.5zM127 774q1 30 13 47t30.5 23.5t37.5 6.5q29 0 54 -11t48.5 -23t48.5 -12q24 0 40.5 12.5t16.5 35.5h31q-1 -26 -11 -43.5t-28 -26.5t-44 -9q-27 0 -52.5 12
t-50 23t-50.5 11q-21 0 -37 -11t-16 -35h-31zM311 726l115 -95h-37l-99 66l-110 -66h-36l125 95h42z" />
    </font>
</defs>
</svg>
