<?xml version="1.0" standalone="no"?>
<!DOCTYPE svg PUBLIC "-//W3C//DTD SVG 1.1//EN" "http://www.w3.org/Graphics/SVG/1.1/DTD/svg11.dtd" >
<svg xmlns="http://www.w3.org/2000/svg" xmlns:xlink="http://www.w3.org/1999/xlink" version="1.1">
<metadata>
Created by FontForge 20170731 at Sun Mar 22 17:41:25 2020
 By Aleksey,,,
Copyright 2017 The Exo Project Authors (https://github.com/NDISCOVER/Exo-1.0)
</metadata>
<defs>
<font id="Exo-ExtraLight" horiz-adv-x="0" >
  <font-face 
    font-family="Exo ExtraLight"
    font-weight="250"
    font-stretch="normal"
    units-per-em="1000"
    panose-1="0 0 0 0 0 0 0 0 0 0"
    ascent="800"
    descent="-200"
    x-height="532"
    cap-height="733"
    bbox="-498 -270 1326 1091"
    underline-thickness="50"
    underline-position="-175"
    unicode-range="U+000D-FB05"
  />
<missing-glyph horiz-adv-x="652" 
d="M59 533h534v-534h-534v534zM470 98l-144 144l-144 -144l-23 23l144 144l-144 144l23 23l144 -144l144 144l23 -23l-144 -144l144 -144zM563 29v474h-474v-474h474z" />
    <glyph glyph-name="f_f" unicode="ff" horiz-adv-x="754" 
d="M110 0v497h-85v26l85 9v79q0 49 11.5 84.5t41 54.5t84.5 19q36 0 58.5 -4t43.5 -9v-29q-23 3 -47 5t-47 2q-44 0 -66 -14.5t-30 -43t-8 -68.5v-76h358v-35h-358v-497h-41zM488 0v497h-85v26l85 9v76q0 49 11.5 85.5t41.5 56t86 19.5q35 0 57 -2.5t41 -4.5v-28h-93
q-43 0 -65.5 -14.5t-30 -42.5t-7.5 -68v-77h181v-35h-181v-497h-41z" />
    <glyph glyph-name="fi" unicode="fi" horiz-adv-x="590" 
d="M110 0v497h-85v26l85 9v79q0 49 11.5 84.5t41 54.5t84.5 19q36 0 58.5 -4t43.5 -9v-29q-23 3 -47 5t-47 2q-44 0 -66 -14.5t-30 -43t-8 -68.5v-76h332v-35h-332v-497h-41zM463 0v532h41v-532h-41zM472 637q-13 0 -13 13v67q0 13 13 13h25q6 0 9 -4t3 -9v-67
q0 -13 -12 -13h-25z" />
    <glyph glyph-name="fl" unicode="fl" horiz-adv-x="660" 
d="M110 0v497h-85v26l85 9v77q0 50 14.5 86t51.5 55t105 19q47 0 86.5 -3t73 -7.5t63.5 -6.5v-28q-34 3 -71.5 5.5t-75 3.5t-72.5 1q-56 0 -85 -14.5t-39 -43t-10 -68.5v-76h181v-35h-181v-497h-41zM588 0q-40 0 -68 15t-42.5 52t-14.5 103v578h41v-575q0 -57 10.5 -85.5
t30 -39t44.5 -13.5l61 -7v-28h-62z" />
    <glyph glyph-name="f_f_i" unicode="ffi" horiz-adv-x="967" 
d="M110 0v497h-85v26l85 9v79q0 49 11.5 84.5t41 54.5t84.5 19q36 0 58.5 -4t43.5 -9v-29q-23 3 -47 5t-47 2q-44 0 -66 -14.5t-30 -43t-8 -68.5v-76h356v-35h-356v-497h-41zM840 0v532h41v-532h-41zM849 637q-14 0 -14 13v67q0 13 14 13h25q6 0 9 -4t3 -9v-67
q0 -13 -12 -13h-25zM487 0v497h-85v26l85 9v79q0 49 11.5 84.5t41 54.5t84.5 19q36 0 58.5 -4t43.5 -9v-29q-23 3 -47 5t-47 2q-44 0 -66 -14.5t-30 -43t-8 -68.5v-76h332v-35h-332v-497h-41z" />
    <glyph glyph-name="f_f_l" unicode="ffl" horiz-adv-x="1037" 
d="M110 0v497h-85v26l85 9v79q0 49 11.5 84.5t41 54.5t84.5 19q36 0 58.5 -4t43.5 -9v-29q-23 3 -47 5t-47 2q-44 0 -66 -14.5t-30 -43t-8 -68.5v-76h357v-35h-357v-497h-41zM487 0v497h-85v26l85 9v77q0 50 14 86t51.5 55t105.5 19q47 0 86.5 -3t73 -7.5t63.5 -6.5v-28
q-34 3 -71.5 5.5t-75 3.5t-72.5 1q-56 0 -85 -14.5t-39 -43t-10 -68.5v-76h181v-35h-181v-497h-41zM965 0q-40 0 -68 15t-42.5 52t-14.5 103v578h41v-575q0 -57 10.5 -85.5t30 -39t44.5 -13.5l61 -7v-28h-62z" />
    <glyph glyph-name=".notdef" horiz-adv-x="652" 
d="M59 533h534v-534h-534v534zM470 98l-144 144l-144 -144l-23 23l144 144l-144 144l23 23l144 -144l144 144l23 -23l-144 -144l144 -144zM563 29v474h-474v-474h474z" />
    <glyph glyph-name=".null" 
 />
    <glyph glyph-name="nonmarkingreturn" horiz-adv-x="333" 
 />
    <glyph glyph-name="CR" unicode="&#xd;" horiz-adv-x="277" 
 />
    <glyph glyph-name="space" unicode=" " horiz-adv-x="277" 
 />
    <glyph glyph-name="exclam" unicode="!" horiz-adv-x="262" 
d="M114 197l-5 535h40l-6 -535h-29zM119 0q-14 0 -14 13v67q0 14 14 14h21q13 0 13 -14v-67q0 -7 -4 -10t-9 -3h-21z" />
    <glyph glyph-name="quotedbl" unicode="&#x22;" horiz-adv-x="221" 
d="M50 513l-7 162v67h41v-67l-7 -162h-27zM144 513l-7 162v67h41v-67l-7 -162h-27z" />
    <glyph glyph-name="numbersign" unicode="#" horiz-adv-x="663" 
d="M161 0l39 243h-174l4 24h175l30 194h-176l5 24h176l40 247h24l-40 -247h176l40 247h24l-40 -247h177l-4 -24h-178l-30 -194h177l-4 -24h-178l-39 -243h-24l39 243h-176l-39 -243h-24zM229 267h176l30 194h-176z" />
    <glyph glyph-name="dollar" unicode="$" horiz-adv-x="609" 
d="M294 731l-16 11l11 82l16 -11zM278 -88v92l27 -1v-91h-27zM285 -6q-18 0 -48 1t-62.5 3.5t-61 4.5t-45.5 6v29q21 -2 56 -3.5t77 -2.5t83 -1q50 0 90.5 10t65.5 38.5t25 82.5v63q0 60 -30 92t-99 32h-88q-83 0 -131.5 36t-48.5 127v45q0 102 52.5 142t147.5 40
q27 0 66 -2.5t77.5 -6.5t61.5 -8v-30q-44 3 -98.5 6.5t-104.5 3.5t-86.5 -12.5t-56 -44t-19.5 -89.5v-42q0 -73 37.5 -99t101.5 -26h91q59 0 95.5 -21t54 -57.5t17.5 -83.5v-64q0 -67 -31 -103.5t-81 -51t-108 -14.5z" />
    <glyph glyph-name="percent" unicode="%" horiz-adv-x="955" 
d="M237 0l440 732h31l-439 -732h-32zM182 349q-73 0 -100.5 31t-27.5 95v131q0 64 27 95t103 31h101q74 0 101 -31t27 -95v-131q0 -64 -27 -95t-103 -31h-101zM184 376h96q55 0 80.5 20t25.5 82v125q0 56 -21.5 79t-82.5 23h-96q-55 0 -80 -19.5t-25 -82.5v-125
q0 -59 24 -80.5t79 -21.5zM672 3q-73 0 -100.5 31t-27.5 95v131q0 64 27 95t103 31h101q74 0 101 -31t27 -95v-131q0 -64 -27 -95t-103 -31h-101zM674 30h96q55 0 80.5 20t25.5 82v125q0 56 -21.5 79t-82.5 23h-96q-55 0 -80 -19.5t-25 -82.5v-125q0 -59 24 -80.5t79 -21.5z
" />
    <glyph glyph-name="ampersand" unicode="&#x26;" horiz-adv-x="659" 
d="M238 -6q-55 0 -99 23.5t-69.5 67t-25.5 102.5q0 50 22.5 98t74.5 92l69 59l-22 31q-31 42 -42 77t-11 63q0 47 22.5 74.5t59 39.5t80.5 12q39 0 67 -1.5t49 -3t41 -4.5v-28h-152q-54 0 -90 -20.5t-36 -71.5q0 -29 11.5 -57.5t39.5 -67.5l232 -316l153 146l16 -17l-70 -87
l-75 -71l99 -134h-48l-80 108l-31 -28q-52 -47 -95 -66.5t-90 -19.5zM242 33q38 0 73 15t79 57l35 33l-198 268l-60 -50q-50 -41 -68.5 -83t-18.5 -83q0 -72 42.5 -114.5t115.5 -42.5z" />
    <glyph glyph-name="quotesingle" unicode="'" horiz-adv-x="127" 
d="M50 513l-7 162v67h41v-67l-7 -162h-27z" />
    <glyph glyph-name="parenleft" unicode="(" horiz-adv-x="325" 
d="M257 -210q-49 84 -85 168.5t-56.5 175t-20.5 192.5q0 100 21 190.5t57 175.5t84 168h41q-47 -84 -83.5 -170t-57.5 -175.5t-21 -188.5t20.5 -189t57.5 -175t85 -172h-42z" />
    <glyph glyph-name="parenright" unicode=")" horiz-adv-x="324" 
d="M25 -210q53 89 89.5 174.5t55 174t18.5 187.5q0 98 -18.5 185.5t-55 173t-89.5 175.5h42q52 -87 88.5 -171.5t55 -173t18.5 -189.5t-18 -190t-54.5 -173.5t-89.5 -172.5h-42z" />
    <glyph glyph-name="asterisk" unicode="*" horiz-adv-x="464" 
d="M300 530l-22 24l112 83l12 -17zM159 404l-18 6l32 134l33 -6zM206 584l-142 5v20l142 5v-30zM355 421l-122 70l16 29l117 -84zM256 592l-55 131l18 6l67 -124z" />
    <glyph glyph-name="plus" unicode="+" horiz-adv-x="609" 
d="M286 132v448h36v-448h-36zM80 338v36h448v-36h-448z" />
    <glyph glyph-name="comma" unicode="," horiz-adv-x="180" 
d="M82 -72q-6 0 -9.5 1l-3.5 1v12q10 0 14 3.5t4 11.5v44h-7q-5 0 -9 4t-4 11v63q0 15 13 15h20q8 0 10.5 -4t2.5 -11v-113q0 -17 -5 -25t-12.5 -10.5t-13.5 -2.5z" />
    <glyph glyph-name="hyphen" unicode="-" horiz-adv-x="340" 
d="M26 272v36h287v-36h-287z" />
    <glyph glyph-name="period" unicode="." horiz-adv-x="180" 
d="M80 0q-13 0 -13 13v67q0 14 13 14h21q14 0 14 -14v-67q0 -7 -4 -10t-10 -3h-21z" />
    <glyph glyph-name="slash" unicode="/" horiz-adv-x="369" 
d="M25 -72l281 842h37l-281 -842h-37z" />
    <glyph glyph-name="zero" unicode="0" horiz-adv-x="660" 
d="M264 -1q-48 0 -88 16.5t-63.5 53t-23.5 96.5v407q0 56 23 93t63 55.5t89 18.5h137q61 0 98.5 -22t54.5 -59.5t17 -85.5v-407q0 -89 -47 -127.5t-124 -38.5h-136zM268 37h127q73 0 104 35.5t31 95.5v402q0 65 -33.5 98.5t-100.5 33.5h-128q-63 0 -100.5 -34.5t-37.5 -97.5
v-402q0 -65 37.5 -98t100.5 -33z" />
    <glyph glyph-name="one" unicode="1" horiz-adv-x="356" 
d="M214 0v698l-163 -55v27l165 71h39v-741h-41z" />
    <glyph glyph-name="two" unicode="2" horiz-adv-x="596" 
d="M59 0v35l286 269q48 46 76 84.5t39.5 78.5t11.5 88q0 41 -15 74t-55.5 52.5t-116.5 19.5h-195v30q44 3 98 5.5t108 2.5q82 0 129.5 -23.5t67.5 -64.5t20 -94t-14 -97t-44 -86.5t-81 -90.5l-257 -244h425v-39h-483z" />
    <glyph glyph-name="three" unicode="3" horiz-adv-x="589" 
d="M305 -6q-80 0 -146 2t-112 6v30h248q45 0 82.5 11t61 40t23.5 84v58q0 47 -22.5 74t-56 38t-66.5 12l-192 8v27l191 7q59 2 97 27.5t38 85.5v63q0 63 -41.5 98.5t-121.5 35.5h-212v30q39 4 95 6t130 2q67 0 109 -22t62 -60t20 -85v-67q0 -38 -13 -63t-32 -40.5t-38 -22.5
t-31 -9q14 -2 35 -11.5t42 -26t35 -44t14 -65.5v-60q0 -83 -52 -126t-147 -43z" />
    <glyph glyph-name="four" unicode="4" horiz-adv-x="581" 
d="M400 2v203h-359l-13 29l298 499h42l-294 -492h326v225l11 59h30v-284h114v-28l-114 -8v-203h-41z" />
    <glyph glyph-name="five" unicode="5" horiz-adv-x="643" 
d="M351 -4q-71 0 -138 1.5t-116 5.5v30h253q49 0 89.5 16t64.5 47.5t24 77.5v98q0 60 -37.5 94.5t-111.5 34.5h-89q-53 0 -85.5 -24t-42.5 -76h-38l21 432h402v-37h-365l-16 -323q10 23 43 43.5t87 20.5h91q58 0 98.5 -20.5t62 -57t21.5 -82.5v-109q0 -56 -29 -94.5t-78 -58
t-111 -19.5z" />
    <glyph glyph-name="six" unicode="6" horiz-adv-x="632" 
d="M276 -1q-43 0 -78.5 16.5t-61 57t-39.5 113.5t-14 186q0 94 17 163t49 114.5t78.5 67.5t105.5 22q38 0 89.5 -2.5t90.5 -4.5v-30h-186q-92 0 -147.5 -76.5t-55.5 -234.5q34 3 76.5 4.5t82.5 2t64 0.5q63 0 110 -12t73.5 -43.5t26.5 -89.5v-102q0 -57 -22.5 -90.5
t-60 -47.5t-81.5 -14h-117zM279 36h109q34 0 63.5 9t47.5 34.5t18 73.5v96q0 48 -21 72.5t-60.5 32.5t-93.5 8h-218q0 -97 10.5 -161t31 -100t49 -50.5t64.5 -14.5z" />
    <glyph glyph-name="seven" unicode="7" horiz-adv-x="538" 
d="M161 0l279 692h-402v41h433l19 -28l-282 -705h-47z" />
    <glyph glyph-name="eight" unicode="8" horiz-adv-x="651" 
d="M265 -1q-40 0 -71 8.5t-53.5 25.5t-34 43t-11.5 61v108q0 40 17.5 66t41 40.5t42.5 18.5q-32 13 -51 33.5t-27.5 45.5t-8.5 51v85q0 55 20 88.5t55.5 49t79.5 15.5h137q46 0 77.5 -15.5t48 -49t16.5 -88.5v-85q0 -19 -5 -38t-15.5 -35.5t-25.5 -29t-34 -18.5
q32 -6 52 -24t31 -44.5t11 -57.5v-116q0 -47 -19 -77t-54 -45.5t-84 -15.5h-135zM269 36h126q60 0 90.5 25.5t30.5 76.5v108q0 61 -28.5 85.5t-98.5 24.5h-121q-17 0 -39.5 -5.5t-43.5 -18t-35 -33.5t-14 -53v-108q0 -55 38.5 -78.5t94.5 -23.5zM268 392h121q41 0 66 16.5
t36.5 41t11.5 46.5v82q0 68 -26.5 96t-80.5 28h-127q-64 0 -91.5 -30t-27.5 -94v-82q0 -42 28.5 -73t89.5 -31z" />
    <glyph glyph-name="nine" unicode="9" horiz-adv-x="632" 
d="M301 -4q-39 0 -90 2.5t-91 4.5v30h186q93 0 148 76.5t55 234.5q-33 -3 -76 -4.5t-82 -2.5t-65 -1q-62 0 -109.5 12.5t-74 44t-26.5 89.5v102q0 57 23 90t60.5 47.5t80.5 14.5h118q43 0 78 -16.5t60.5 -57t39.5 -113.5t14 -186q0 -94 -16.5 -163t-49 -114.5t-78.5 -67.5
t-105 -22zM291 373h218q0 97 -10.5 161t-31 100t-49 50.5t-64.5 14.5h-109q-34 0 -63.5 -9t-47.5 -34.5t-18 -73.5v-96q0 -48 22 -72t61 -32.5t92 -8.5z" />
    <glyph glyph-name="colon" unicode=":" horiz-adv-x="180" 
d="M80 0q-13 0 -13 13v67q0 14 13 14h21q14 0 14 -14v-67q0 -7 -4 -10t-10 -3h-21zM80 438q-13 0 -13 13v67q0 14 13 14h21q14 0 14 -14v-67q0 -7 -4 -10t-10 -3h-21z" />
    <glyph glyph-name="semicolon" unicode=";" horiz-adv-x="180" 
d="M80 438q-13 0 -13 13v67q0 14 13 14h21q14 0 14 -14v-67q0 -7 -4 -10t-10 -3h-21zM82 -72q-6 0 -9.5 1l-3.5 1v12q10 0 14 3.5t4 11.5v44h-7q-5 0 -9 4t-4 11v63q0 15 13 15h20q8 0 10.5 -4t2.5 -11v-113q0 -17 -5 -25t-12.5 -10.5t-13.5 -2.5z" />
    <glyph glyph-name="less" unicode="&#x3c;" horiz-adv-x="609" 
d="M511 193l-415 136v39l415 135v-35l-378 -119l378 -121v-35z" />
    <glyph glyph-name="equal" unicode="=" horiz-adv-x="609" 
d="M80 218v36h448v-36h-448zM80 458v36h448v-36h-448z" />
    <glyph glyph-name="greater" unicode="&#x3e;" horiz-adv-x="609" 
d="M98 193v35l378 120l-378 120v35l415 -135v-39z" />
    <glyph glyph-name="question" unicode="?" horiz-adv-x="532" 
d="M182 196v136h39q98 0 139.5 28.5t41.5 104.5v75q0 89 -35.5 125.5t-114.5 36.5q-55 0 -102.5 -9.5t-103.5 -31.5v27q50 28 103 39t109 12q72 1 111.5 -22.5t56 -67.5t16.5 -106v-78q0 -86 -52 -127.5t-174 -41.5v-100h-34zM188 0q-13 0 -13 13v67q0 14 13 14h21
q13 0 13 -14v-67q0 -7 -4 -10t-9 -3h-21z" />
    <glyph glyph-name="at" unicode="@" horiz-adv-x="868" 
d="M258 -153q-39 0 -71 11.5t-55.5 34.5t-36 58t-12.5 80v340q0 14 2.5 35t11 44.5t27.5 44t51.5 33.5t82.5 13h197q28 0 56 -6.5t51 -22t36.5 -43.5t13.5 -71v-369h-26l-9 63q-1 0 -21.5 -11t-52.5 -25t-70 -25t-72 -11q-38 0 -67 15.5t-45 43t-16 61.5v51q0 53 34.5 84.5
t97.5 31.5h211v88q0 58 -33.5 84t-89.5 26h-195q-41 0 -72.5 -12.5t-49 -42t-17.5 -80.5v-337q0 -58 21 -90.5t53 -45.5t65 -13h319q75 0 111.5 37.5t36.5 111.5v502q0 70 -36.5 115t-111.5 45h-391v24q24 5 69 7.5t102 3t120 0.5h100q40 0 73.5 -12t58.5 -36t38.5 -60.5
t13.5 -86.5v-502q0 -53 -17 -95.5t-57 -66.5t-109 -24h-320zM374 56q28 0 66.5 10t75.5 24t60 26v168l-203 -9q-20 -1 -44 -7t-41.5 -23.5t-17.5 -54.5v-42q0 -42 28 -67t76 -25z" />
    <glyph glyph-name="A" unicode="A" horiz-adv-x="669" 
d="M44 0l263 733h55l263 -733h-44l-87 241h-320l-87 -241h-43zM184 278h297l-147 417z" />
    <glyph glyph-name="B" unicode="B" horiz-adv-x="590" 
d="M85 0v733h252q86 0 132 -45t46 -140q0 -47 -15 -81.5t-39 -56t-51 -29.5q18 -5 40 -15.5t43.5 -31t35 -52.5t13.5 -78q0 -80 -25 -124t-69 -62t-103 -18h-260zM126 37h218q47 0 82.5 14t55.5 51t20 107q0 49 -21.5 83t-57.5 52t-79 18h-218v-325zM126 396h217q56 0 93 40
t39 108q3 85 -36 118.5t-102 33.5h-211v-300z" />
    <glyph glyph-name="C" unicode="C" horiz-adv-x="578" 
d="M322 -6q-68 0 -116.5 15t-79 54.5t-45 113t-14.5 192.5q0 110 14.5 182.5t46 113t81.5 57.5t120 17q21 0 55.5 -3t73 -7.5t72.5 -11.5v-29q-17 3 -48.5 6t-71.5 5.5t-79 2.5q-60 0 -103 -14t-69.5 -50.5t-38.5 -101.5t-12 -168q0 -107 12 -174t38 -102.5t67.5 -48
t101.5 -12.5q75 0 123.5 4.5t79.5 9.5v-30q-33 -6 -70.5 -11t-73.5 -7.5t-64 -2.5z" />
    <glyph glyph-name="D" unicode="D" horiz-adv-x="663" 
d="M85 0v733h278q62 0 106 -22.5t72 -68t41.5 -114.5t13.5 -162q0 -110 -26.5 -192.5t-78 -128t-128.5 -45.5h-278zM126 37h235q67 0 109.5 41.5t63.5 116t21 171.5q0 88 -11 150.5t-34 102.5t-60 58.5t-89 18.5h-235v-659z" />
    <glyph glyph-name="E" unicode="E" horiz-adv-x="581" 
d="M228 -3q-25 0 -50 4t-46 17t-34 39.5t-13 70.5v470q0 38 11 64.5t30 42t42.5 22t48.5 6.5q53 -1 103.5 -2t99.5 -2.5t97 -2.5v-31h-294q-44 0 -70.5 -24t-26.5 -77v-212l350 -3v-30l-350 -4v-212q0 -44 15 -65t39.5 -27t50.5 -6h286v-31q-47 -2 -95.5 -3l-97 -2t-96.5 -2
z" />
    <glyph glyph-name="F" unicode="F" horiz-adv-x="559" 
d="M85 0v598q0 38 11 64.5t30 42t42.5 22t48.5 6.5q48 -1 98 -2t101 -2t101 -3v-31h-295q-44 0 -70 -24.5t-26 -76.5v-226l350 -4v-30l-350 -3v-331h-41z" />
    <glyph glyph-name="G" unicode="G" horiz-adv-x="645" 
d="M308 -5q-71 -1 -117.5 19t-74 64.5t-38.5 116.5t-11 175q0 96 11.5 166t38 115t72.5 66.5t113 21.5q32 0 74 -2.5t83 -7.5t74 -11v-30q-20 2 -57 5.5t-81.5 6t-88.5 2.5q-77 0 -120 -34t-60.5 -107.5t-17.5 -192.5q0 -96 9.5 -160.5t32 -103t62.5 -55t102 -16.5
q52 0 108 15t98 32v258h-203v27q19 3 44.5 5t55.5 3.5t62 1.5q23 0 44.5 -0.5t37.5 -3.5v-371h-29l-8 53q-40 -19 -97 -38t-119 -20z" />
    <glyph glyph-name="H" unicode="H" horiz-adv-x="669" 
d="M85 0v733h41v-359h418v359h41v-733h-41v337h-418v-337h-41z" />
    <glyph glyph-name="I" unicode="I" horiz-adv-x="210" 
d="M85 0v733h41v-733h-41z" />
    <glyph glyph-name="J" unicode="J" horiz-adv-x="374" 
d="M136 -6q-26 0 -57.5 7.5t-51.5 16.5v30q22 -6 52 -11.5t52 -5.5q35 0 61 10t41 36t15 76v580h41v-583q0 -60 -18 -94t-51.5 -48t-83.5 -14z" />
    <glyph glyph-name="K" unicode="K" horiz-adv-x="583" 
d="M85 0v733h41v-347h147l229 347h44l-241 -366l242 -367h-45l-230 348h-146v-348h-41z" />
    <glyph glyph-name="L" unicode="L" horiz-adv-x="530" 
d="M217 0q-34 0 -64.5 11t-49 40t-18.5 82v600h41v-597q0 -41 14.5 -62t36.5 -28t46 -7h279v-39h-285z" />
    <glyph glyph-name="M" unicode="M" horiz-adv-x="809" 
d="M65 0l81 733h48l210 -674l206 674h50l84 -733h-40l-81 701l9 -3l-209 -698h-37l-215 698l10 1l-77 -699h-39z" />
    <glyph glyph-name="N" unicode="N" horiz-adv-x="670" 
d="M103 0v733h35l425 -661v661h41v-733h-35l-425 661v-661h-41z" />
    <glyph glyph-name="O" unicode="O" horiz-adv-x="679" 
d="M340 -6q-69 0 -120 13t-85.5 50t-51 110.5t-16.5 194.5q0 122 17 196.5t51.5 113.5t85.5 53t119 14q70 0 121 -14t85 -53t50.5 -113.5t16.5 -196.5q0 -121 -17 -194.5t-51 -110.5t-85 -50t-120 -13zM340 31q61 0 105.5 12t72 46t41 99.5t13.5 173.5q0 114 -14 182
t-41.5 102t-71.5 45t-105 11q-57 0 -100.5 -11t-73 -45t-44 -102t-14.5 -182q0 -108 12 -173.5t39.5 -99.5t72 -46t108.5 -12z" />
    <glyph glyph-name="P" unicode="P" horiz-adv-x="594" 
d="M85 0v733h281q30 0 61.5 -8.5t59 -32t44 -68t16.5 -115.5q0 -73 -18 -118.5t-47 -70.5t-62 -34t-62 -9q-15 0 -46.5 0.5t-68 2t-69 2.5t-48.5 2v-284h-41zM126 314h229q40 0 74 16.5t55 58t21 119.5q0 77 -20.5 117.5t-52.5 55.5t-68 15h-238v-382z" />
    <glyph glyph-name="Q" unicode="Q" horiz-adv-x="679" 
d="M502 -155q-31 0 -60.5 13.5t-51.5 41t-29 67.5h28q15 -45 47.5 -65.5t66.5 -20.5q13 0 25 2t23 6v-36q-12 -3 -24 -5.5t-25 -2.5zM340 -6q-69 0 -120 13t-85.5 50t-51 110.5t-16.5 194.5q0 122 17 196.5t51.5 113.5t85.5 53t119 14q70 0 121 -14t85 -53t50.5 -113.5
t16.5 -196.5q0 -121 -17 -194.5t-51 -110.5t-85 -50t-120 -13zM340 31q61 0 105.5 12t72 46t41 99.5t13.5 173.5q0 114 -14 182t-41.5 102t-71.5 45t-105 11q-57 0 -100.5 -11t-73 -45t-44 -102t-14.5 -182q0 -108 12 -173.5t39.5 -99.5t72 -46t108.5 -12z" />
    <glyph glyph-name="R" unicode="R" horiz-adv-x="597" 
d="M85 0v733h280q32 0 63.5 -7t58 -28t43 -61.5t16.5 -108.5q0 -65 -15 -105t-38.5 -62t-50 -30.5t-50.5 -10.5l158 -320h-41l-156 316q-19 0 -48 1t-62 1.5t-64 1.5t-53 2v-322h-41zM126 351h235q29 0 54.5 6.5t45.5 25t32 53.5t12 92q0 54 -12.5 87t-32.5 50.5t-45.5 24
t-53.5 6.5h-235v-345z" />
    <glyph glyph-name="S" unicode="S" horiz-adv-x="572" 
d="M285 -6q-18 0 -48 1t-62.5 3.5t-61 4.5t-45.5 6v29q21 -2 56 -3.5t77 -2.5t83 -1q50 0 90.5 10t65.5 38.5t25 82.5v63q0 60 -30 92t-99 32h-88q-83 0 -131.5 36t-48.5 127v45q0 102 52.5 142t147.5 40q27 0 66 -2.5t77.5 -6.5t61.5 -8v-30q-44 3 -98.5 6.5t-104.5 3.5
t-86.5 -12.5t-56 -44t-19.5 -89.5v-42q0 -73 37.5 -99t101.5 -26h91q59 0 95.5 -21t54 -57.5t17.5 -83.5v-64q0 -67 -31 -103.5t-81 -51t-108 -14.5z" />
    <glyph glyph-name="T" unicode="T" horiz-adv-x="555" 
d="M257 0v696h-241v37h523v-37h-241v-696h-41z" />
    <glyph glyph-name="U" unicode="U" horiz-adv-x="670" 
d="M335 -6q-62 0 -110.5 11.5t-82 37.5t-50.5 70t-17 109v511h41v-510q0 -76 26 -117.5t75 -58t118 -16.5t118.5 16.5t75.5 58t26 117.5v510h41v-511q0 -65 -17.5 -109t-51 -70t-82 -37.5t-110.5 -11.5z" />
    <glyph glyph-name="V" unicode="V" horiz-adv-x="669" 
d="M307 0l-263 733h42l248 -693l249 693h42l-263 -733h-55z" />
    <glyph glyph-name="W" unicode="W" horiz-adv-x="991" 
d="M239 0l-195 733h42l180 -685l206 685h48l205 -685l181 685h41l-195 -733h-50l-206 683l-207 -683h-50z" />
    <glyph glyph-name="X" unicode="X" horiz-adv-x="601" 
d="M510 0l-464 733h44l465 -733h-45zM49 0l235 375l20 -36l-211 -339h-44zM318 349l-17 42l210 342h44z" />
    <glyph glyph-name="Y" unicode="Y" horiz-adv-x="612" 
d="M286 0v255l-240 478h43l218 -437l217 437h43l-240 -478v-255h-41z" />
    <glyph glyph-name="Z" unicode="Z" horiz-adv-x="552" 
d="M46 0v35l418 661h-418v37h468v-35l-419 -661h419v-37h-468z" />
    <glyph glyph-name="bracketleft" unicode="[" horiz-adv-x="329" 
d="M250 -210q-46 0 -75 18t-43 46.5t-19 58.5t-5 54v700q0 26 5.5 55.5t20 57t43 45t73.5 17.5h54v-35h-48q-47 0 -77 -33t-30 -110v-696q0 -40 10.5 -72.5t34 -51.5t62.5 -19h48v-35h-54z" />
    <glyph glyph-name="backslash" unicode="\" horiz-adv-x="369" 
d="M306 -72l-281 842h37l281 -842h-37z" />
    <glyph glyph-name="bracketright" unicode="]" horiz-adv-x="329" 
d="M25 -210v35h48q40 0 63.5 19t33.5 51.5t10 72.5v696q0 77 -29.5 110t-77.5 33h-48v35h54q46 0 74.5 -17.5t43 -45t19.5 -57t5 -55.5v-700q0 -24 -4.5 -54t-19 -58.5t-43 -46.5t-75.5 -18h-54z" />
    <glyph glyph-name="asciicircum" unicode="^" horiz-adv-x="404" 
d="M64 531l129 131h31l117 -131h-27l-106 109l-117 -109h-27z" />
    <glyph glyph-name="underscore" unicode="_" horiz-adv-x="609" 
d="M0 -148v37h609v-37h-609z" />
    <glyph glyph-name="grave" unicode="`" horiz-adv-x="205" 
d="M156 631l-131 134h39l116 -134h-24z" />
    <glyph glyph-name="a" unicode="a" horiz-adv-x="541" 
d="M185 -6q-58 0 -96 34.5t-38 97.5v34q0 63 41 102t121 39h205v82q0 38 -13 65.5t-45 43t-92 15.5h-169v25q33 3 77 5.5t101 3.5q65 1 105 -16.5t58.5 -52.5t18.5 -88v-384h-30l-10 63q-2 -1 -24.5 -11.5t-58 -24t-75.5 -23.5t-76 -10zM195 29q22 -1 51 5t59 14t55.5 17
t41.5 15l16 6v191l-204 -6q-67 -3 -94.5 -34t-27.5 -77v-26q0 -39 16 -62.5t40 -32.5t47 -10z" />
    <glyph glyph-name="b" unicode="b" horiz-adv-x="574" 
d="M317 -6q-39 0 -74.5 10t-65 24.5t-50.5 27.5l-10 -56h-31v763h41v-286q43 25 95 43t94 18q62 0 104.5 -26t65 -86t22.5 -163q0 -79 -19 -139.5t-60.5 -95t-111.5 -34.5zM309 29q54 0 89 27.5t52 80t17 127.5q0 98 -20 149.5t-55 70.5t-83 19q-54 0 -94.5 -14.5
t-87.5 -38.5v-368q37 -18 82 -35.5t100 -17.5z" />
    <glyph glyph-name="c" unicode="c" horiz-adv-x="490" 
d="M273 -6q-44 0 -81.5 11.5t-66 41t-44 83t-15.5 136.5t15 136t42.5 82.5t65.5 41t85 11.5q35 0 83 -2t87 -6v-26h-164q-54 0 -92.5 -18.5t-59.5 -70.5t-21 -151q0 -95 22.5 -146t61 -70t89.5 -19h172v-25q-22 -2 -50.5 -4t-61 -3.5t-67.5 -1.5z" />
    <glyph glyph-name="d" unicode="d" horiz-adv-x="570" 
d="M258 -6q-67 0 -109.5 29.5t-62.5 89.5t-20 150q0 99 20.5 159.5t65 88t116.5 27.5q49 0 96.5 -11t82.5 -23v259h40v-763h-30l-10 56q-14 -12 -46.5 -26.5t-71 -25t-71.5 -10.5zM265 29q55 0 100 17.5t82 36.5v392q-45 12 -83.5 20.5t-88.5 8.5q-60 0 -97 -22.5t-54 -75
t-17 -142.5q0 -81 16 -133t51 -77t91 -25z" />
    <glyph glyph-name="e" unicode="e" horiz-adv-x="543" 
d="M279 -6q-81 0 -128 26t-66 85.5t-19 162.5q0 105 21 163.5t68.5 82.5t126.5 24q66 0 109 -15.5t64.5 -53t21.5 -103.5q0 -43 -17 -69.5t-48.5 -38.5t-75.5 -12h-229q0 -80 14.5 -127.5t53 -69t111.5 -21.5h180v-26q-49 -4 -91.5 -6t-95.5 -2zM107 277h227q53 0 79 19
t26 70q0 54 -15.5 84t-50 42.5t-91.5 12.5q-68 0 -106.5 -19.5t-53.5 -69t-15 -139.5z" />
    <glyph glyph-name="f" unicode="f" horiz-adv-x="354" 
d="M111 0v497h-85v26l85 9v76q0 49 11.5 85.5t41.5 56t86 19.5q35 0 57 -2.5t42 -4.5v-28h-94q-43 0 -65 -14.5t-30 -42.5t-8 -68v-77h181v-35h-181v-497h-41z" />
    <glyph glyph-name="g" unicode="g" horiz-adv-x="572" 
d="M213 -244q-52 0 -91.5 14.5t-62 44.5t-22.5 76v28q0 48 26 79t65 46t79 15l6 -24q-35 0 -66 -11t-51.5 -36t-20.5 -65v-28q0 -59 39.5 -82.5t104.5 -23.5h135q73 0 114.5 28t41.5 87v23q0 33 -12.5 57t-43 37.5t-87.5 13.5h-184q-46 0 -75.5 22.5t-29.5 61.5t24 60t68 29
q-41 14 -63 40t-30.5 56.5t-8.5 59.5q0 63 26 100.5t70.5 53.5t99.5 16h284v-25l-142 -8q15 -8 35 -22.5t34.5 -44.5t14.5 -83q0 -39 -16.5 -76t-57 -61.5t-112.5 -24.5h-80q-51 0 -79.5 -14.5t-28.5 -52.5q0 -28 20 -40.5t41 -12.5h194q61 0 100.5 -16t58 -46.5t18.5 -75.5
v-26q0 -70 -49 -109.5t-143 -39.5h-143zM238 223h62q62 0 94.5 19t44.5 48.5t12 62.5q0 54 -18.5 86.5t-49.5 46t-72 13.5h-57q-68 0 -107.5 -30.5t-39.5 -106.5q0 -73 35.5 -106t95.5 -33z" />
    <glyph glyph-name="h" unicode="h" horiz-adv-x="584" 
d="M86 0v763h41v-292q42 28 96.5 49t113.5 21q54 0 90.5 -24t55 -63.5t18.5 -85.5v-368h-41v365q0 38 -15.5 69.5t-44.5 50.5t-71 19q-41 0 -73.5 -7.5t-63 -20.5t-65.5 -32v-444h-41z" />
    <glyph glyph-name="i" unicode="i" horiz-adv-x="214" 
d="M95 637q-13 0 -13 13v67q0 13 13 13h25q6 0 9 -4t3 -9v-67q0 -13 -12 -13h-25zM86 0v532h41v-532h-41z" />
    <glyph glyph-name="j" unicode="j" horiz-adv-x="214" 
d="M95 637q-13 0 -13 13v67q0 13 13 13h25q6 0 9 -4t3 -9v-67q0 -13 -12 -13h-25zM86 -237v769h41v-508q0 -77 -4 -146t-8 -115h-29z" />
    <glyph glyph-name="k" unicode="k" horiz-adv-x="480" 
d="M86 0v763h41v-458h84l188 227h46l-204 -246l214 -286h-47l-201 268h-80v-268h-41z" />
    <glyph glyph-name="l" unicode="l" horiz-adv-x="283" 
d="M211 0q-39 0 -67 15t-43 51.5t-15 103.5v593h41v-590q0 -57 10.5 -85.5t30 -39t45.5 -13.5l60 -7v-28h-62z" />
    <glyph glyph-name="m" unicode="m" horiz-adv-x="958" 
d="M86 0v532h29l12 -61q43 28 96.5 49t114.5 21q51 0 87 -23t55 -58q26 19 64.5 37.5t82 31t83.5 12.5q54 0 91 -24t55.5 -64t18.5 -86v-367h-41v365q0 38 -15.5 69.5t-45 50.5t-71.5 19q-53 0 -109 -20t-106 -48q7 -17 10.5 -35t3.5 -36v-365h-41v365q0 38 -15.5 69.5
t-44.5 50.5t-71 19q-41 0 -74 -7.5t-63.5 -20.5t-64.5 -32v-444h-41z" />
    <glyph glyph-name="n" unicode="n" horiz-adv-x="584" 
d="M86 0v532h29l12 -61q42 28 96.5 49t113.5 21q55 0 91 -24.5t54.5 -64t18.5 -84.5v-368h-41v365q0 38 -15.5 69.5t-44.5 50.5t-71 19q-41 0 -74 -7.5t-63.5 -20.5t-64.5 -32v-444h-41z" />
    <glyph glyph-name="o" unicode="o" horiz-adv-x="578" 
d="M288 -6q-53 0 -94.5 11t-70 40t-43 83t-14.5 138q0 86 14.5 139.5t43 82.5t70 39.5t94.5 10.5t95 -11t70.5 -39.5t43.5 -82t15 -139.5q0 -85 -15 -139t-43.5 -82.5t-70.5 -39.5t-95 -11zM288 29q43 0 77 8t57.5 32.5t36 72t12.5 125.5q0 79 -12.5 126t-36 70.5
t-57.5 31.5t-77 8t-77 -8t-57 -31.5t-35 -70.5t-12 -126q0 -78 12 -125.5t35 -72t57 -32.5t77 -8z" />
    <glyph glyph-name="p" unicode="p" horiz-adv-x="574" 
d="M86 -237v769h31l10 -56q18 11 49.5 26t68.5 25.5t71 10.5q53 0 90 -23.5t59.5 -63t32.5 -87.5t10 -96q0 -92 -22 -153t-64.5 -91t-105.5 -30q-48 0 -97 16.5t-92 42.5v-290h-41zM309 29q47 0 82 23t55.5 75t20.5 141q0 83 -23 135t-58.5 76t-75.5 24q-56 0 -101 -17.5
t-82 -35.5v-368q44 -23 90 -38t92 -15z" />
    <glyph glyph-name="q" unicode="q" horiz-adv-x="570" 
d="M447 -237v293q-44 -28 -95.5 -45t-99.5 -17q-68 0 -109 31t-59 92t-18 151q0 87 20.5 147.5t64 91.5t111.5 31q48 0 89.5 -1.5t76 -3.5t59.5 -5v-765h-40zM258 29q51 0 96.5 14t92.5 40v421h-181q-61 0 -95.5 -31t-49 -84t-14.5 -120q0 -82 15.5 -135.5t48.5 -79
t87 -25.5z" />
    <glyph glyph-name="r" unicode="r" horiz-adv-x="407" 
d="M86 0v532h30l11 -99q40 46 89 75.5t112 29.5q15 0 28 -1.5t24 -4.5v-41q-11 2 -25 3.5t-30 1.5q-41 0 -72.5 -10.5t-61.5 -31.5t-64 -51v-403h-41z" />
    <glyph glyph-name="s" unicode="s" horiz-adv-x="497" 
d="M264 -6q-16 0 -45.5 0.5t-62 2t-59 3t-37.5 2.5v26h208q39 0 69.5 6t48 27.5t17.5 64.5v28q0 43 -28.5 67.5t-88.5 24.5h-71q-48 0 -84 11t-55 38t-19 75v27q0 49 19 80t57.5 45.5t95.5 14.5q26 0 61.5 -1t71.5 -3t59 -6v-25h-196q-62 0 -96 -21.5t-34 -83.5v-25
q0 -38 15.5 -57.5t44 -25.5t64.5 -6h71q68 0 109.5 -32t41.5 -94v-32q0 -54 -24 -82t-64 -38.5t-89 -10.5z" />
    <glyph glyph-name="t" unicode="t" horiz-adv-x="355" 
d="M248 0q-45 0 -77 16.5t-47.5 52.5t-15.5 93l3 335h-86v26l85 9l9 149h30v-149h168v-35h-168v-334q0 -42 9 -67t24 -37.5t31.5 -17.5t30.5 -6l65 -6v-29h-61z" />
    <glyph glyph-name="u" unicode="u" horiz-adv-x="584" 
d="M249 -6q-78 0 -120.5 38t-42.5 127v373h41v-367q0 -79 35.5 -106.5t101.5 -27.5q57 0 101.5 14.5t94.5 42.5v444h41v-532h-29l-12 61q-42 -27 -96.5 -47t-114.5 -20z" />
    <glyph glyph-name="v" unicode="v" horiz-adv-x="521" 
d="M235 0l-213 532h42l194 -493l199 493h41l-217 -532h-46z" />
    <glyph glyph-name="w" unicode="w" horiz-adv-x="781" 
d="M196 0l-174 532h42l156 -493l152 493h39l151 -493l155 493h42l-173 -532h-45l-150 483l-151 -483h-44z" />
    <glyph glyph-name="x" unicode="x" horiz-adv-x="488" 
d="M416 0l-387 532h44l387 -532h-44zM29 0l197 274l18 -33l-173 -241h-42zM261 255l-19 30l175 246l43 1z" />
    <glyph glyph-name="y" unicode="y" horiz-adv-x="526" 
d="M216 -237l74 237q-15 1 -38 9t-46 32t-40 74l-144 417h44l139 -408q13 -36 28.5 -54t31 -25t25.5 -7h10l161 494h42l-214 -670l-46 -99h-27z" />
    <glyph glyph-name="z" unicode="z" horiz-adv-x="489" 
d="M55 0v34l337 463h-344v35h393v-34l-340 -463h340v-35h-386z" />
    <glyph glyph-name="braceleft" unicode="{" horiz-adv-x="306" 
d="M280 -210q-57 0 -90.5 15t-50.5 40t-22.5 55.5t-5.5 61.5v280q0 23 -13 39.5t-33 25t-40 6.5v41q17 2 37.5 8t35 20.5t14.5 42.5v231q0 49 14 91.5t50.5 68.5t103.5 26v-35q-41 0 -69.5 -15t-43 -49.5t-14.5 -94.5v-226q0 -38 -24 -60.5t-58 -27.5q34 -5 57.5 -28.5
t23.5 -56.5v-280q0 -83 32 -114t96 -31v-34z" />
    <glyph glyph-name="bar" unicode="|" horiz-adv-x="254" 
d="M108 -72v842h37v-842h-37z" />
    <glyph glyph-name="braceright" unicode="}" horiz-adv-x="306" 
d="M25 -210v34q65 0 96.5 31t31.5 114v280q0 33 24 56.5t58 28.5q-34 5 -58.5 27.5t-24.5 60.5v226q0 60 -14 94.5t-42.5 49.5t-70.5 15v35q69 0 105 -26t49.5 -68.5t13.5 -91.5v-231q0 -28 15 -42.5t35.5 -20.5t36.5 -8v-41q-20 2 -39.5 -6.5t-33 -25t-13.5 -39.5v-280
q0 -31 -5 -61.5t-22 -55.5t-51 -40t-91 -15z" />
    <glyph glyph-name="asciitilde" unicode="~" horiz-adv-x="466" 
d="M296 540q-16 0 -33.5 10.5t-34 24t-31.5 24t-27 10.5q-27 0 -50 -14t-50 -34l-6 14q25 23 51 41t57 18q16 0 33 -10.5t33.5 -24t31.5 -24t27 -10.5q28 0 54.5 18.5t43.5 33.5l8 -14q-24 -25 -49 -44t-58 -19z" />
    <glyph glyph-name="uni00A0" unicode="&#xa0;" horiz-adv-x="277" 
 />
    <glyph glyph-name="exclamdown" unicode="&#xa1;" horiz-adv-x="262" 
d="M148 335l5 -535h-40l6 535h29zM143 532q14 0 14 -13v-67q0 -14 -14 -14h-21q-13 0 -13 14v67q0 7 4 10t9 3h21z" />
    <glyph glyph-name="cent" unicode="&#xa2;" horiz-adv-x="488" 
d="M248 -83v78q-41 0 -77 10t-62.5 38t-42 82t-15.5 141q0 88 14.5 141.5t40.5 81t62.5 37.5t79.5 10v84h27v-85q36 -2 78 -9t77 -17v-24q-38 7 -81.5 12t-101.5 5q-37 0 -66 -9t-49 -34t-30 -72.5t-10 -124.5q0 -73 11 -119t32 -71t50.5 -34t66.5 -9q40 0 69.5 3t57 7.5
t58.5 11.5v-26q-48 -16 -83.5 -21t-78.5 -8v-79h-27z" />
    <glyph glyph-name="sterling" unicode="&#xa3;" horiz-adv-x="609" 
d="M67 0v29l118 8v307l-118 4v23l118 6v153q0 84 24.5 128t68.5 60t102 16q37 0 75.5 -2.5t64.5 -4.5v-30h-138q-51 0 -86 -12.5t-52.5 -48t-17.5 -104.5v-155l232 -5v-24l-232 -4v-307h310v-37h-469z" />
    <glyph glyph-name="currency" unicode="&#xa4;" horiz-adv-x="609" 
d="M304 198q-43 0 -78.5 21.5t-57 57.5t-21.5 79q0 44 21.5 79.5t57 57t78.5 21.5q44 0 79.5 -21.5t57 -57t21.5 -79.5q0 -43 -21.5 -79t-57 -57.5t-79.5 -21.5zM107 136l-23 23l108 108l23 -23zM188 449l-104 104l23 23l104 -104zM501 136l-106 106l23 23l106 -106z
M304 229q35 0 64 17.5t46 46.5t17 63q0 35 -17 64t-46 46t-64 17q-34 0 -62.5 -17t-45.5 -46t-17 -64q0 -34 17 -63t45.5 -46.5t62.5 -17.5zM418 447l-23 23l106 106l23 -23z" />
    <glyph glyph-name="yen" unicode="&#xa5;" horiz-adv-x="609" 
d="M80 260v31h449v-31h-449zM80 141v31h449v-31h-449zM274 0v255l-241 478h44l217 -437l218 437h43l-241 -478v-255h-40z" />
    <glyph glyph-name="brokenbar" unicode="&#xa6;" horiz-adv-x="254" 
d="M108 429v341h37v-341h-37zM108 -72v328h37v-328h-37z" />
    <glyph glyph-name="section" unicode="&#xa7;" horiz-adv-x="556" 
d="M317 -6q-18 0 -47 0.5t-61.5 1.5t-60.5 2.5t-41 2.5v28h206q56 0 84 11.5t38.5 31t10.5 44.5v67q0 26 -6 40.5t-27.5 20.5t-66.5 6h-142q-52 0 -83.5 9.5t-45.5 31.5t-14 59v59q0 49 17 67.5t49 24.5q-33 8 -44.5 34t-11.5 55v68q0 48 18.5 75.5t52.5 39t83 11.5
q18 0 49 -0.5t66.5 -1t65.5 -2t44 -3.5v-28h-222q-36 0 -62.5 -6.5t-40.5 -27t-14 -60.5v-64q0 -43 24.5 -55t73.5 -12h142q60 0 91 -10.5t42.5 -33.5t11.5 -61v-59q0 -44 -13.5 -63.5t-48.5 -24.5q24 -5 35 -19t14 -32t3 -36v-70q0 -45 -19.5 -71.5t-57.5 -38t-92 -11.5z
M209 284h137q50 0 73 4t30 19t7 49v59q0 30 -8.5 46t-32.5 22t-69 6h-137q-63 0 -85.5 -15t-22.5 -61v-58q0 -23 8.5 -38.5t31.5 -24t68 -8.5z" />
    <glyph glyph-name="dieresis" unicode="&#xa8;" horiz-adv-x="421" 
d="M299 662q-14 0 -14 13v67q0 13 14 13h18q7 0 10 -3.5t3 -9.5v-67q0 -13 -13 -13h-18zM104 662q-13 0 -13 13v67q0 13 13 13h19q7 0 10 -3.5t3 -9.5v-67q0 -13 -13 -13h-19z" />
    <glyph glyph-name="copyright" unicode="&#xa9;" horiz-adv-x="857" 
d="M314 0q-55 0 -96 24t-69.5 64.5t-46 89t-25 98t-7.5 92.5q0 62 11 126t37.5 118t74.5 87t121 33h251q59 0 99 -24.5t64.5 -65t37.5 -89t17 -97t4 -88.5q0 -74 -13.5 -141t-41 -118t-69 -80t-98.5 -29h-251zM392 147q-39 0 -72.5 17.5t-53.5 65t-20 135.5q0 81 19 128.5
t52.5 68.5t74.5 21q21 0 52 -2t64 -6t61 -10v-17q-30 5 -64 7.5t-63 3.5t-46 1q-38 0 -66.5 -19.5t-44 -63t-15.5 -115.5q0 -92 28.5 -142t97.5 -50q52 0 98.5 4t80.5 12v-17q-47 -14 -90 -18t-93 -4zM314 23h250q56 0 101 39t71.5 115.5t26.5 190.5q0 69 -10 130.5t-33 109
t-61 74.5t-94 27h-251q-41 0 -80 -16.5t-70 -54.5t-50 -104t-20 -166q-1 -59 12 -119.5t40 -112t69.5 -82.5t98.5 -31z" />
    <glyph glyph-name="ordfeminine" unicode="&#xaa;" horiz-adv-x="407" 
d="M38 269v26h318v-26h-318zM73 460q0 -28 11.5 -44.5t28.5 -23.5t35 -7q20 0 47.5 5.5t53.5 14t43.5 14.5l17.5 6v138l-149 -6q-48 -1 -68 -24t-20 -55v-18zM38 479q0 47 30.5 74t89.5 27h152v60q0 40 -22.5 64t-87.5 24h-127v23q25 3 58.5 5t77.5 3q48 1 78.5 -12t45 -39
t14.5 -66v-282h-27l-9 46q-2 -1 -19 -9t-42.5 -17.5t-55 -16.5t-56.5 -7q-43 0 -71.5 25t-28.5 72v26z" />
    <glyph glyph-name="guillemotleft" unicode="&#xab;" horiz-adv-x="606" 
d="M276 69l-212 210l208 205l24 -24l-184 -181l190 -185zM526 69l-212 210l208 205l24 -24l-184 -181l190 -185z" />
    <glyph glyph-name="logicalnot" unicode="&#xac;" horiz-adv-x="609" 
d="M491 218v249h37v-249h-37zM80 458v36h448v-36h-448z" />
    <glyph glyph-name="uni00AD" unicode="&#xad;" horiz-adv-x="340" 
d="M26 272v36h287v-36h-287z" />
    <glyph glyph-name="registered" unicode="&#xae;" horiz-adv-x="857" 
d="M314 0q-55 0 -96 24t-69.5 64.5t-46 89t-25 98t-7.5 92.5q0 62 11 126t37.5 118t74.5 87t121 33h251q59 0 99 -24.5t64.5 -65t37.5 -89t17 -97t4 -88.5q0 -74 -13.5 -141t-41 -118t-69 -80t-98.5 -29h-251zM314 23h250q56 0 101 39t71.5 115.5t26.5 190.5q0 69 -10 130.5
t-33 109t-61 74.5t-94 27h-251q-41 0 -80 -16.5t-70 -54.5t-50 -104t-20 -166q-1 -59 12 -119.5t40 -112t69.5 -82.5t98.5 -31zM280 153v427h178q33 0 61.5 -9.5t46 -37t17.5 -80.5q0 -42 -11.5 -64.5t-28.5 -31t-35.5 -11t-30.5 -3.5l108 -190h-26l-108 189l-147 5v-194
h-24zM304 363h159q47 0 71.5 16t24.5 73q0 60 -25.5 82.5t-70.5 22.5h-159v-194z" />
    <glyph glyph-name="macron" unicode="&#xaf;" horiz-adv-x="383" 
d="M64 685v25h256v-25h-256z" />
    <glyph glyph-name="degree" unicode="&#xb0;" horiz-adv-x="335" 
d="M169 506q-54 0 -89.5 35.5t-35.5 89.5q0 37 16 65t44.5 44.5t64.5 16.5q54 0 88.5 -36t34.5 -90t-34.5 -89.5t-88.5 -35.5zM169 527q45 0 73 30t28 74q0 45 -28 75t-73 30t-74.5 -30t-29.5 -75q0 -44 29.5 -74t74.5 -30z" />
    <glyph glyph-name="plusminus" unicode="&#xb1;" horiz-adv-x="609" 
d="M80 138v36h448v-36h-448zM286 282v448h36v-448h-36zM80 488v36h448v-36h-448z" />
    <glyph glyph-name="uni00B2" unicode="&#xb2;" horiz-adv-x="457" 
d="M52 280v30l211 197q52 49 72.5 89t20.5 91q0 29 -11 52.5t-40.5 37.5t-84.5 14h-146v26q33 3 74 5t81 2q62 0 98 -17.5t51 -47.5t15 -69t-10 -71.5t-33 -63.5t-61 -67l-186 -174h312v-34h-363z" />
    <glyph glyph-name="uni00B3" unicode="&#xb3;" horiz-adv-x="457" 
d="M236 276q-59 0 -108.5 1.5t-85.5 5.5v26h185q33 0 60.5 8t45 29t17.5 59v42q0 33 -16.5 52t-41 27t-48.5 9l-143 5v25l142 5q43 2 71 20.5t28 60.5v45q0 44 -30.5 69.5t-89.5 25.5h-158v26q31 4 72.5 5.5t97.5 1.5q74 0 109 -35t35 -89v-48q0 -37 -15.5 -57.5t-35.5 -30
t-33 -11.5q15 -3 37 -14.5t39.5 -34t17.5 -59.5v-44q0 -61 -40.5 -93t-111.5 -32z" />
    <glyph glyph-name="acute" unicode="&#xb4;" horiz-adv-x="205" 
d="M25 631l116 134h39l-131 -134h-24z" />
    <glyph glyph-name="uni00B5" unicode="&#xb5;" horiz-adv-x="584" 
d="M256 -6q-43 0 -75 13.5t-53 38.5t-31.5 59t-10.5 75v353h41v-368q0 -53 17.5 -82t48.5 -40.5t71 -11.5q58 0 102 14.5t94 42.5v445h41v-533h-29l-11 61q-40 -28 -93 -47.5t-112 -19.5zM86 -268v491h41v-491h-41z" />
    <glyph glyph-name="paragraph" unicode="&#xb6;" horiz-adv-x="572" 
d="M288 -270v594q-7 -5 -28 -8t-55 -2q-54 0 -90.5 21t-54.5 55.5t-18 76.5v126q0 48 24 79t61.5 46t79.5 15h342v-36h-85v-697h-34v699h-108v-969h-34zM208 348h80v351h-80q-65 0 -98.5 -31.5t-33.5 -79.5v-117q0 -42 16 -66.5t39 -37t44.5 -16t32.5 -3.5z" />
    <glyph glyph-name="periodcentered" unicode="&#xb7;" horiz-adv-x="263" 
d="M122 354q-14 0 -14 13v23q0 13 14 13h21q13 0 13 -13v-23q0 -6 -4 -9.5t-9 -3.5h-21z" />
    <glyph glyph-name="cedilla" unicode="&#xb8;" horiz-adv-x="264" 
d="M64 -185v17l25 2q30 2 46.5 14t16.5 37q0 19 -14.5 33t-62.5 15l20 10q46 0 64.5 -16t18.5 -46q0 -32 -23.5 -49t-66.5 -17h-24zM75 -67l52 78h21l-52 -78h-21z" />
    <glyph glyph-name="uni00B9" unicode="&#xb9;" horiz-adv-x="457" 
d="M218 280v509l-136 -40v25l138 52h34v-546h-36zM74 280v33h324v-33h-324z" />
    <glyph glyph-name="ordmasculine" unicode="&#xba;" horiz-adv-x="434" 
d="M57 269v26h320v-26h-320zM85 556q0 -75 15.5 -111.5t45 -48t71.5 -11.5q41 0 70.5 11.5t45.5 48t16 111.5q0 76 -16 112.5t-45.5 47.5t-70.5 11q-42 0 -71.5 -11t-45 -47.5t-15.5 -112.5zM48 556q0 84 19.5 127t57 58t92.5 15q54 0 91.5 -15t57 -58t19.5 -127
q0 -83 -19.5 -126t-57 -58.5t-91.5 -15.5q-55 0 -92.5 15.5t-57 58.5t-19.5 126z" />
    <glyph glyph-name="guillemotright" unicode="&#xbb;" horiz-adv-x="606" 
d="M84 69l-24 24l185 181l-190 185l26 25l212 -210zM334 69l-24 24l185 181l-190 185l26 25l212 -210z" />
    <glyph glyph-name="onequarter" unicode="&#xbc;" horiz-adv-x="1275" 
d="M430 0l379 770h34l-378 -770h-35zM1111 1v147h-267l-9 27l219 365h37l-216 -361h236v158l10 49h26v-207h83v-24l-83 -7v-147h-36zM227 280v509l-136 -40v25l138 52h34v-546h-36zM83 280v33h324v-33h-324z" />
    <glyph glyph-name="onehalf" unicode="&#xbd;" horiz-adv-x="1275" 
d="M430 0l379 770h34l-378 -770h-35zM847 0v30l211 197q52 49 72.5 89t20.5 91q0 29 -11 52.5t-40.5 37.5t-84.5 14h-146v26q33 3 74 5t81 2q62 0 98 -17.5t51 -47.5t15 -69t-10 -71.5t-33 -63.5t-61 -67l-186 -174h312v-34h-363zM227 280v509l-136 -40v25l138 52h34v-546
h-36zM83 280v33h324v-33h-324z" />
    <glyph glyph-name="threequarters" unicode="&#xbe;" horiz-adv-x="1275" 
d="M430 0l379 770h34l-378 -770h-35zM1111 1v147h-267l-9 27l219 365h37l-216 -361h236v158l10 49h26v-207h83v-24l-83 -7v-147h-36zM246 276q-59 0 -108.5 1.5t-85.5 5.5v26h185q33 0 60.5 8t45 29t17.5 59v42q0 33 -16.5 52t-41 27t-48.5 9l-143 5v25l142 5q43 2 71 20.5
t28 60.5v45q0 44 -30.5 69.5t-89.5 25.5h-158v26q31 4 72.5 5.5t97.5 1.5q74 0 109 -35t35 -89v-48q0 -37 -15.5 -57.5t-35.5 -30t-33 -11.5q15 -3 37 -14.5t39.5 -34t17.5 -59.5v-44q0 -61 -40.5 -93t-111.5 -32z" />
    <glyph glyph-name="questiondown" unicode="&#xbf;" horiz-adv-x="532" 
d="M350 336v-136h-39q-98 0 -139.5 -28.5t-41.5 -104.5v-75q0 -89 35.5 -125.5t114.5 -36.5q55 0 102.5 9.5t103.5 31.5v-27q-50 -28 -103 -39t-109 -12q-72 -1 -111.5 22.5t-56 67.5t-16.5 106v78q0 86 52 127.5t174 41.5v100h34zM344 532q13 0 13 -13v-67q0 -14 -13 -14
h-21q-13 0 -13 14v67q0 7 4 10t9 3h21z" />
    <glyph glyph-name="Agrave" unicode="&#xc0;" horiz-adv-x="669" 
d="M44 0l263 733h55l263 -733h-44l-87 241h-320l-87 -241h-43zM184 278h297l-147 417zM321 791l-131 134h39l116 -134h-24z" />
    <glyph glyph-name="Aacute" unicode="&#xc1;" horiz-adv-x="669" 
d="M44 0l263 733h55l263 -733h-44l-87 241h-320l-87 -241h-43zM184 278h297l-147 417zM325 791l116 134h39l-131 -134h-24z" />
    <glyph glyph-name="Acircumflex" unicode="&#xc2;" horiz-adv-x="669" 
d="M44 0l263 733h55l263 -733h-44l-87 241h-320l-87 -241h-43zM184 278h297l-147 417zM192 791l129 132h31l117 -132h-27l-106 110l-117 -110h-27z" />
    <glyph glyph-name="Atilde" unicode="&#xc3;" horiz-adv-x="669" 
d="M44 0l263 733h55l263 -733h-44l-87 241h-320l-87 -241h-43zM184 278h297l-147 417zM171 817q1 36 14.5 56t34.5 29t41 9q24 0 44.5 -10.5t40 -24t38 -24t38.5 -10.5q30 0 50.5 17.5t20.5 52.5h22q0 -43 -24.5 -69t-68.5 -26q-22 0 -42 10.5t-39.5 24t-39 24t-40.5 10.5
q-26 0 -47 -16t-21 -53h-22z" />
    <glyph glyph-name="Adieresis" unicode="&#xc4;" horiz-adv-x="669" 
d="M44 0l263 733h55l263 -733h-44l-87 241h-320l-87 -241h-43zM184 278h297l-147 417zM441 822q-14 0 -14 13v67q0 13 14 13h18q7 0 10 -3.5t3 -9.5v-67q0 -13 -13 -13h-18zM192 822q-13 0 -13 13v67q0 13 13 13h19q7 0 10 -3.5t3 -9.5v-67q0 -13 -13 -13h-19z" />
    <glyph glyph-name="Aring" unicode="&#xc5;" horiz-adv-x="669" 
d="M44 0l263 733h55l263 -733h-44l-87 241h-320l-87 -241h-43zM184 278h297l-147 417zM334 761q-50 0 -77.5 22.5t-27.5 81.5q0 58 27.5 81t77.5 23q51 0 77 -23t26 -81q0 -59 -25.5 -81.5t-77.5 -22.5zM334 782q42 0 61 17t19 66q0 48 -19 65.5t-61 17.5q-41 0 -61.5 -17.5
t-20.5 -65.5q0 -49 20.5 -66t61.5 -17z" />
    <glyph glyph-name="AE" unicode="&#xc6;" horiz-adv-x="954" 
d="M627 -3q-65 -1 -102.5 26t-38.5 97v120h-250l-150 -240h-42l387 630q20 32 43 55.5t55.5 36t75.5 11.5q73 -1 144.5 -3t139.5 -4v-31h-286q-44 0 -61.5 -17t-17.5 -55v-241l324 -3v-30l-324 -4v-212q0 -35 12.5 -56.5t36.5 -31.5t58 -10h258v-31q-64 -2 -129 -3.5
t-133 -3.5zM256 276h230v368z" />
    <glyph glyph-name="Ccedilla" unicode="&#xc7;" horiz-adv-x="578" 
d="M322 -6q-68 0 -116.5 15t-79 54.5t-45 113t-14.5 192.5q0 110 14.5 182.5t46 113t81.5 57.5t120 17q21 0 55.5 -3t73 -7.5t72.5 -11.5v-29q-17 3 -48.5 6t-71.5 5.5t-79 2.5q-60 0 -103 -14t-69.5 -50.5t-38.5 -101.5t-12 -168q0 -107 12 -174t38 -102.5t67.5 -48
t101.5 -12.5q75 0 123.5 4.5t79.5 9.5v-30q-33 -6 -70.5 -11t-73.5 -7.5t-64 -2.5zM265 -185v17l25 2q30 2 46.5 14t16.5 37q0 19 -14.5 33t-62.5 15l20 10q46 0 64.5 -16t18.5 -46q0 -32 -23.5 -49t-66.5 -17h-24zM276 -67l52 78h21l-52 -78h-21z" />
    <glyph glyph-name="Egrave" unicode="&#xc8;" horiz-adv-x="581" 
d="M228 -3q-25 0 -50 4t-46 17t-34 39.5t-13 70.5v470q0 38 11 64.5t30 42t42.5 22t48.5 6.5q53 -1 103.5 -2t99.5 -2.5t97 -2.5v-31h-294q-44 0 -70.5 -24t-26.5 -77v-212l350 -3v-30l-350 -4v-212q0 -44 15 -65t39.5 -27t50.5 -6h286v-31q-47 -2 -95.5 -3l-97 -2t-96.5 -2
zM297 791l-131 134h39l116 -134h-24z" />
    <glyph glyph-name="Eacute" unicode="&#xc9;" horiz-adv-x="581" 
d="M228 -3q-25 0 -50 4t-46 17t-34 39.5t-13 70.5v470q0 38 11 64.5t30 42t42.5 22t48.5 6.5q53 -1 103.5 -2t99.5 -2.5t97 -2.5v-31h-294q-44 0 -70.5 -24t-26.5 -77v-212l350 -3v-30l-350 -4v-212q0 -44 15 -65t39.5 -27t50.5 -6h286v-31q-47 -2 -95.5 -3l-97 -2t-96.5 -2
zM301 791l116 134h39l-131 -134h-24z" />
    <glyph glyph-name="Ecircumflex" unicode="&#xca;" horiz-adv-x="581" 
d="M228 -3q-25 0 -50 4t-46 17t-34 39.5t-13 70.5v470q0 38 11 64.5t30 42t42.5 22t48.5 6.5q53 -1 103.5 -2t99.5 -2.5t97 -2.5v-31h-294q-44 0 -70.5 -24t-26.5 -77v-212l350 -3v-30l-350 -4v-212q0 -44 15 -65t39.5 -27t50.5 -6h286v-31q-47 -2 -95.5 -3l-97 -2t-96.5 -2
zM168 791l129 132h31l117 -132h-27l-106 110l-117 -110h-27z" />
    <glyph glyph-name="Edieresis" unicode="&#xcb;" horiz-adv-x="581" 
d="M228 -3q-25 0 -50 4t-46 17t-34 39.5t-13 70.5v470q0 38 11 64.5t30 42t42.5 22t48.5 6.5q53 -1 103.5 -2t99.5 -2.5t97 -2.5v-31h-294q-44 0 -70.5 -24t-26.5 -77v-212l350 -3v-30l-350 -4v-212q0 -44 15 -65t39.5 -27t50.5 -6h286v-31q-47 -2 -95.5 -3l-97 -2t-96.5 -2
zM417 822q-14 0 -14 13v67q0 13 14 13h18q7 0 10 -3.5t3 -9.5v-67q0 -13 -13 -13h-18zM168 822q-13 0 -13 13v67q0 13 13 13h19q7 0 10 -3.5t3 -9.5v-67q0 -13 -13 -13h-19z" />
    <glyph glyph-name="Igrave" unicode="&#xcc;" horiz-adv-x="210" 
d="M85 0v733h41v-733h-41zM92 791l-131 134h39l116 -134h-24z" />
    <glyph glyph-name="Iacute" unicode="&#xcd;" horiz-adv-x="210" 
d="M85 0v733h41v-733h-41zM96 791l116 134h39l-131 -134h-24z" />
    <glyph glyph-name="Icircumflex" unicode="&#xce;" horiz-adv-x="210" 
d="M85 0v733h41v-733h-41zM-37 791l129 132h31l117 -132h-27l-106 110l-117 -110h-27z" />
    <glyph glyph-name="Idieresis" unicode="&#xcf;" horiz-adv-x="210" 
d="M85 0v733h41v-733h-41zM212 822q-14 0 -14 13v67q0 13 14 13h18q7 0 10 -3.5t3 -9.5v-67q0 -13 -13 -13h-18zM-37 822q-13 0 -13 13v67q0 13 13 13h19q7 0 10 -3.5t3 -9.5v-67q0 -13 -13 -13h-19z" />
    <glyph glyph-name="Eth" unicode="&#xd0;" horiz-adv-x="663" 
d="M16 356v32h306v-32h-306zM85 0v733h278q62 0 106 -22.5t72 -68t41.5 -114.5t13.5 -162q0 -110 -26.5 -192.5t-78 -128t-128.5 -45.5h-278zM126 37h235q67 0 109.5 41.5t63.5 116t21 171.5q0 88 -11 150.5t-34 102.5t-60 58.5t-89 18.5h-235v-659z" />
    <glyph glyph-name="Ntilde" unicode="&#xd1;" horiz-adv-x="670" 
d="M103 0v733h35l425 -661v661h41v-733h-35l-425 661v-661h-41zM175 817q1 36 14.5 56t34.5 29t41 9q24 0 44.5 -10.5t40 -24t38 -24t38.5 -10.5q30 0 50.5 17.5t20.5 52.5h22q0 -43 -24.5 -69t-68.5 -26q-22 0 -42 10.5t-39.5 24t-39 24t-40.5 10.5q-26 0 -47 -16t-21 -53
h-22z" />
    <glyph glyph-name="Ograve" unicode="&#xd2;" horiz-adv-x="679" 
d="M340 -6q-69 0 -120 13t-85.5 50t-51 110.5t-16.5 194.5q0 122 17 196.5t51.5 113.5t85.5 53t119 14q70 0 121 -14t85 -53t50.5 -113.5t16.5 -196.5q0 -121 -17 -194.5t-51 -110.5t-85 -50t-120 -13zM340 31q61 0 105.5 12t72 46t41 99.5t13.5 173.5q0 114 -14 182
t-41.5 102t-71.5 45t-105 11q-57 0 -100.5 -11t-73 -45t-44 -102t-14.5 -182q0 -108 12 -173.5t39.5 -99.5t72 -46t108.5 -12zM327 791l-131 134h39l116 -134h-24z" />
    <glyph glyph-name="Oacute" unicode="&#xd3;" horiz-adv-x="679" 
d="M340 -6q-69 0 -120 13t-85.5 50t-51 110.5t-16.5 194.5q0 122 17 196.5t51.5 113.5t85.5 53t119 14q70 0 121 -14t85 -53t50.5 -113.5t16.5 -196.5q0 -121 -17 -194.5t-51 -110.5t-85 -50t-120 -13zM340 31q61 0 105.5 12t72 46t41 99.5t13.5 173.5q0 114 -14 182
t-41.5 102t-71.5 45t-105 11q-57 0 -100.5 -11t-73 -45t-44 -102t-14.5 -182q0 -108 12 -173.5t39.5 -99.5t72 -46t108.5 -12zM331 791l116 134h39l-131 -134h-24z" />
    <glyph glyph-name="Ocircumflex" unicode="&#xd4;" horiz-adv-x="679" 
d="M340 -6q-69 0 -120 13t-85.5 50t-51 110.5t-16.5 194.5q0 122 17 196.5t51.5 113.5t85.5 53t119 14q70 0 121 -14t85 -53t50.5 -113.5t16.5 -196.5q0 -121 -17 -194.5t-51 -110.5t-85 -50t-120 -13zM340 31q61 0 105.5 12t72 46t41 99.5t13.5 173.5q0 114 -14 182
t-41.5 102t-71.5 45t-105 11q-57 0 -100.5 -11t-73 -45t-44 -102t-14.5 -182q0 -108 12 -173.5t39.5 -99.5t72 -46t108.5 -12zM198 791l129 132h31l117 -132h-27l-106 110l-117 -110h-27z" />
    <glyph glyph-name="Otilde" unicode="&#xd5;" horiz-adv-x="679" 
d="M340 -6q-69 0 -120 13t-85.5 50t-51 110.5t-16.5 194.5q0 122 17 196.5t51.5 113.5t85.5 53t119 14q70 0 121 -14t85 -53t50.5 -113.5t16.5 -196.5q0 -121 -17 -194.5t-51 -110.5t-85 -50t-120 -13zM340 31q61 0 105.5 12t72 46t41 99.5t13.5 173.5q0 114 -14 182
t-41.5 102t-71.5 45t-105 11q-57 0 -100.5 -11t-73 -45t-44 -102t-14.5 -182q0 -108 12 -173.5t39.5 -99.5t72 -46t108.5 -12zM177 817q1 36 14.5 56t34.5 29t41 9q24 0 44.5 -10.5t40 -24t38 -24t38.5 -10.5q30 0 50.5 17.5t20.5 52.5h22q0 -43 -24.5 -69t-68.5 -26
q-22 0 -42 10.5t-39.5 24t-39 24t-40.5 10.5q-26 0 -47 -16t-21 -53h-22z" />
    <glyph glyph-name="Odieresis" unicode="&#xd6;" horiz-adv-x="679" 
d="M340 -6q-69 0 -120 13t-85.5 50t-51 110.5t-16.5 194.5q0 122 17 196.5t51.5 113.5t85.5 53t119 14q70 0 121 -14t85 -53t50.5 -113.5t16.5 -196.5q0 -121 -17 -194.5t-51 -110.5t-85 -50t-120 -13zM340 31q61 0 105.5 12t72 46t41 99.5t13.5 173.5q0 114 -14 182
t-41.5 102t-71.5 45t-105 11q-57 0 -100.5 -11t-73 -45t-44 -102t-14.5 -182q0 -108 12 -173.5t39.5 -99.5t72 -46t108.5 -12zM447 822q-14 0 -14 13v67q0 13 14 13h18q7 0 10 -3.5t3 -9.5v-67q0 -13 -13 -13h-18zM198 822q-13 0 -13 13v67q0 13 13 13h19q7 0 10 -3.5
t3 -9.5v-67q0 -13 -13 -13h-19z" />
    <glyph glyph-name="multiply" unicode="&#xd7;" horiz-adv-x="609" 
d="M449 184l27 27l-317 317l-27 -27zM159 184l-27 27l317 317l27 -27z" />
    <glyph glyph-name="Oslash" unicode="&#xd8;" horiz-adv-x="679" 
d="M81 0l482 733h35l-482 -733h-35zM340 -6q-69 0 -120 13t-85.5 50t-51 110.5t-16.5 194.5q0 122 17 196.5t51.5 113.5t85.5 53t119 14q70 0 121 -14t85 -53t50.5 -113.5t16.5 -196.5q0 -121 -17 -194.5t-51 -110.5t-85 -50t-120 -13zM340 31q61 0 105.5 12t72 46t41 99.5
t13.5 173.5q0 114 -14 182t-41.5 102t-71.5 45t-105 11q-57 0 -100.5 -11t-73 -45t-44 -102t-14.5 -182q0 -108 12 -173.5t39.5 -99.5t72 -46t108.5 -12z" />
    <glyph glyph-name="Ugrave" unicode="&#xd9;" horiz-adv-x="670" 
d="M335 -6q-62 0 -110.5 11.5t-82 37.5t-50.5 70t-17 109v511h41v-510q0 -76 26 -117.5t75 -58t118 -16.5t118.5 16.5t75.5 58t26 117.5v510h41v-511q0 -65 -17.5 -109t-51 -70t-82 -37.5t-110.5 -11.5zM321 791l-131 134h39l116 -134h-24z" />
    <glyph glyph-name="Uacute" unicode="&#xda;" horiz-adv-x="670" 
d="M335 -6q-62 0 -110.5 11.5t-82 37.5t-50.5 70t-17 109v511h41v-510q0 -76 26 -117.5t75 -58t118 -16.5t118.5 16.5t75.5 58t26 117.5v510h41v-511q0 -65 -17.5 -109t-51 -70t-82 -37.5t-110.5 -11.5zM325 791l116 134h39l-131 -134h-24z" />
    <glyph glyph-name="Ucircumflex" unicode="&#xdb;" horiz-adv-x="670" 
d="M335 -6q-62 0 -110.5 11.5t-82 37.5t-50.5 70t-17 109v511h41v-510q0 -76 26 -117.5t75 -58t118 -16.5t118.5 16.5t75.5 58t26 117.5v510h41v-511q0 -65 -17.5 -109t-51 -70t-82 -37.5t-110.5 -11.5zM192 791l129 132h31l117 -132h-27l-106 110l-117 -110h-27z" />
    <glyph glyph-name="Udieresis" unicode="&#xdc;" horiz-adv-x="670" 
d="M335 -6q-62 0 -110.5 11.5t-82 37.5t-50.5 70t-17 109v511h41v-510q0 -76 26 -117.5t75 -58t118 -16.5t118.5 16.5t75.5 58t26 117.5v510h41v-511q0 -65 -17.5 -109t-51 -70t-82 -37.5t-110.5 -11.5zM441 822q-14 0 -14 13v67q0 13 14 13h18q7 0 10 -3.5t3 -9.5v-67
q0 -13 -13 -13h-18zM192 822q-13 0 -13 13v67q0 13 13 13h19q7 0 10 -3.5t3 -9.5v-67q0 -13 -13 -13h-19z" />
    <glyph glyph-name="Yacute" unicode="&#xdd;" horiz-adv-x="612" 
d="M286 0v255l-240 478h43l218 -437l217 437h43l-240 -478v-255h-41zM298 791l116 134h39l-131 -134h-24z" />
    <glyph glyph-name="Thorn" unicode="&#xde;" horiz-adv-x="546" 
d="M85 0v733h41v-143h192q30 0 61.5 -8t59 -29.5t44 -62.5t16.5 -106q0 -66 -18 -108t-47 -64.5t-62 -31t-62 -8.5q-12 0 -37 0.5t-54.5 2t-55 2.5t-37.5 2v-179h-41zM126 209h181q39 0 73.5 14.5t55.5 53t21 107.5t-20.5 105.5t-52.5 50t-68 13.5h-190v-344z" />
    <glyph glyph-name="germandbls" unicode="&#xdf;" horiz-adv-x="571" 
d="M386 -8q-50 0 -97 5t-73 10v26q28 -1 72 -3t93 -2q53 0 80.5 18.5t36.5 43.5t9 44v29q0 29 -16.5 44t-42 23.5t-54.5 15.5t-55 17.5t-42.5 29.5t-16.5 54t18 61.5t44.5 49t52 45t43.5 49.5t18 62q0 58 -42.5 88t-122.5 30q-82 0 -128 -46.5t-46 -132.5v-553h-41v555
q0 59 23.5 107.5t70.5 77.5t121 29q75 0 120 -21.5t64.5 -56t19.5 -75.5t-18 -70.5t-43.5 -53t-51.5 -44.5t-44 -44t-18 -54q0 -26 16.5 -41t42.5 -23t55 -15t54.5 -18.5t42 -31.5t16.5 -56v-31q0 -35 -12 -61.5t-33.5 -44.5t-51 -27t-64.5 -9z" />
    <glyph glyph-name="agrave" unicode="&#xe0;" horiz-adv-x="541" 
d="M185 -6q-58 0 -96 34.5t-38 97.5v34q0 63 41 102t121 39h205v82q0 38 -13 65.5t-45 43t-92 15.5h-169v25q33 3 77 5.5t101 3.5q65 1 105 -16.5t58.5 -52.5t18.5 -88v-384h-30l-10 63q-2 -1 -24.5 -11.5t-58 -24t-75.5 -23.5t-76 -10zM195 29q22 -1 51 5t59 14t55.5 17
t41.5 15l16 6v191l-204 -6q-67 -3 -94.5 -34t-27.5 -77v-26q0 -39 16 -62.5t40 -32.5t47 -10zM275 631l-131 134h39l116 -134h-24z" />
    <glyph glyph-name="aacute" unicode="&#xe1;" horiz-adv-x="541" 
d="M185 -6q-58 0 -96 34.5t-38 97.5v34q0 63 41 102t121 39h205v82q0 38 -13 65.5t-45 43t-92 15.5h-169v25q33 3 77 5.5t101 3.5q65 1 105 -16.5t58.5 -52.5t18.5 -88v-384h-30l-10 63q-2 -1 -24.5 -11.5t-58 -24t-75.5 -23.5t-76 -10zM195 29q22 -1 51 5t59 14t55.5 17
t41.5 15l16 6v191l-204 -6q-67 -3 -94.5 -34t-27.5 -77v-26q0 -39 16 -62.5t40 -32.5t47 -10zM243 631l116 134h39l-131 -134h-24z" />
    <glyph glyph-name="acircumflex" unicode="&#xe2;" horiz-adv-x="541" 
d="M185 -6q-58 0 -96 34.5t-38 97.5v34q0 63 41 102t121 39h205v82q0 38 -13 65.5t-45 43t-92 15.5h-169v25q33 3 77 5.5t101 3.5q65 1 105 -16.5t58.5 -52.5t18.5 -88v-384h-30l-10 63q-2 -1 -24.5 -11.5t-58 -24t-75.5 -23.5t-76 -10zM195 29q22 -1 51 5t59 14t55.5 17
t41.5 15l16 6v191l-204 -6q-67 -3 -94.5 -34t-27.5 -77v-26q0 -39 16 -62.5t40 -32.5t47 -10zM128 631l129 132h31l117 -132h-27l-106 110l-117 -110h-27z" />
    <glyph glyph-name="atilde" unicode="&#xe3;" horiz-adv-x="541" 
d="M185 -6q-58 0 -96 34.5t-38 97.5v34q0 63 41 102t121 39h205v82q0 38 -13 65.5t-45 43t-92 15.5h-169v25q33 3 77 5.5t101 3.5q65 1 105 -16.5t58.5 -52.5t18.5 -88v-384h-30l-10 63q-2 -1 -24.5 -11.5t-58 -24t-75.5 -23.5t-76 -10zM195 29q22 -1 51 5t59 14t55.5 17
t41.5 15l16 6v191l-204 -6q-67 -3 -94.5 -34t-27.5 -77v-26q0 -39 16 -62.5t40 -32.5t47 -10zM113 657q1 36 14.5 56t34.5 29t41 9q24 0 44.5 -10.5t40 -24t38 -24t38.5 -10.5q30 0 50.5 17.5t20.5 52.5h22q0 -43 -24.5 -69t-68.5 -26q-22 0 -42 10.5t-39.5 24t-39 24
t-40.5 10.5q-26 0 -47 -16t-21 -53h-22z" />
    <glyph glyph-name="adieresis" unicode="&#xe4;" horiz-adv-x="541" 
d="M185 -6q-58 0 -96 34.5t-38 97.5v34q0 63 41 102t121 39h205v82q0 38 -13 65.5t-45 43t-92 15.5h-169v25q33 3 77 5.5t101 3.5q65 1 105 -16.5t58.5 -52.5t18.5 -88v-384h-30l-10 63q-2 -1 -24.5 -11.5t-58 -24t-75.5 -23.5t-76 -10zM195 29q22 -1 51 5t59 14t55.5 17
t41.5 15l16 6v191l-204 -6q-67 -3 -94.5 -34t-27.5 -77v-26q0 -39 16 -62.5t40 -32.5t47 -10zM358 662q-14 0 -14 13v67q0 13 14 13h18q7 0 10.5 -3.5t3.5 -9.5v-67q0 -13 -14 -13h-18zM163 662q-13 0 -13 13v67q0 13 13 13h19q7 0 10 -3.5t3 -9.5v-67q0 -13 -13 -13h-19z
" />
    <glyph glyph-name="aring" unicode="&#xe5;" horiz-adv-x="541" 
d="M185 -6q-58 0 -96 34.5t-38 97.5v34q0 63 41 102t121 39h205v82q0 38 -13 65.5t-45 43t-92 15.5h-169v25q33 3 77 5.5t101 3.5q65 1 105 -16.5t58.5 -52.5t18.5 -88v-384h-30l-10 63q-2 -1 -24.5 -11.5t-58 -24t-75.5 -23.5t-76 -10zM195 29q22 -1 51 5t59 14t55.5 17
t41.5 15l16 6v191l-204 -6q-67 -3 -94.5 -34t-27.5 -77v-26q0 -39 16 -62.5t40 -32.5t47 -10zM270 598q-50 0 -77.5 22.5t-27.5 81.5q0 58 27.5 81t77.5 23q51 0 77 -23t26 -81q0 -59 -25.5 -81.5t-77.5 -22.5zM270 619q42 0 61 17t19 66q0 48 -19 65.5t-61 17.5
q-41 0 -61.5 -17.5t-20.5 -65.5q0 -49 20.5 -66t61.5 -17z" />
    <glyph glyph-name="ae" unicode="&#xe6;" horiz-adv-x="898" 
d="M186 -6q-43 0 -73 16t-45.5 46.5t-15.5 73.5v28q0 42 18 72.5t53.5 47t84.5 16.5h210v89q0 34 -12.5 62t-43.5 45t-88 17h-174v25q34 4 73 6t104 3q59 1 106 -24.5t62 -82.5q19 61 67 82.5t115 21.5q68 0 113 -15.5t68 -52.5t23 -103q0 -63 -37.5 -84t-105.5 -21h-229
q-1 -72 13.5 -118t40 -71.5t59.5 -35t74 -9.5h172v-26q-44 -4 -93.5 -6t-88.5 -2q-61 0 -99 18t-59.5 45.5t-35.5 55.5q-28 -31 -68 -58t-87.5 -44t-100.5 -17zM195 29q63 0 126 29t112 82q-4 17 -9 49t-6 76l-206 -1q-67 -1 -93 -31.5t-26 -74.5v-24q0 -39 14.5 -62.5
t38 -33t49.5 -9.5zM459 293h228q30 0 53.5 4.5t37.5 20t14 50.5q0 48 -15 78t-51 44t-100 14t-100.5 -16.5t-51 -61.5t-15.5 -133z" />
    <glyph glyph-name="ccedilla" unicode="&#xe7;" horiz-adv-x="490" 
d="M273 -6q-44 0 -81.5 11.5t-66 41t-44 83t-15.5 136.5t15 136t42.5 82.5t65.5 41t85 11.5q35 0 83 -2t87 -6v-26h-164q-54 0 -92.5 -18.5t-59.5 -70.5t-21 -151q0 -95 22.5 -146t61 -70t89.5 -19h172v-25q-22 -2 -50.5 -4t-61 -3.5t-67.5 -1.5zM204 -185v17l25 2
q30 2 46.5 14t16.5 37q0 19 -14.5 33t-62.5 15l20 10q46 0 64.5 -16t18.5 -46q0 -32 -23.5 -49t-66.5 -17h-24zM215 -67l52 78h21l-52 -78h-21z" />
    <glyph glyph-name="egrave" unicode="&#xe8;" horiz-adv-x="543" 
d="M279 -6q-81 0 -128 26t-66 85.5t-19 162.5q0 105 21 163.5t68.5 82.5t126.5 24q66 0 109 -15.5t64.5 -53t21.5 -103.5q0 -43 -17 -69.5t-48.5 -38.5t-75.5 -12h-229q0 -80 14.5 -127.5t53 -69t111.5 -21.5h180v-26q-49 -4 -91.5 -6t-95.5 -2zM107 277h227q53 0 79 19
t26 70q0 54 -15.5 84t-50 42.5t-91.5 12.5q-68 0 -106.5 -19.5t-53.5 -69t-15 -139.5zM275 631l-131 134h39l116 -134h-24z" />
    <glyph glyph-name="eacute" unicode="&#xe9;" horiz-adv-x="543" 
d="M279 -6q-81 0 -128 26t-66 85.5t-19 162.5q0 105 21 163.5t68.5 82.5t126.5 24q66 0 109 -15.5t64.5 -53t21.5 -103.5q0 -43 -17 -69.5t-48.5 -38.5t-75.5 -12h-229q0 -80 14.5 -127.5t53 -69t111.5 -21.5h180v-26q-49 -4 -91.5 -6t-95.5 -2zM107 277h227q53 0 79 19
t26 70q0 54 -15.5 84t-50 42.5t-91.5 12.5q-68 0 -106.5 -19.5t-53.5 -69t-15 -139.5zM243 631l116 134h39l-131 -134h-24z" />
    <glyph glyph-name="ecircumflex" unicode="&#xea;" horiz-adv-x="543" 
d="M279 -6q-81 0 -128 26t-66 85.5t-19 162.5q0 105 21 163.5t68.5 82.5t126.5 24q66 0 109 -15.5t64.5 -53t21.5 -103.5q0 -43 -17 -69.5t-48.5 -38.5t-75.5 -12h-229q0 -80 14.5 -127.5t53 -69t111.5 -21.5h180v-26q-49 -4 -91.5 -6t-95.5 -2zM107 277h227q53 0 79 19
t26 70q0 54 -15.5 84t-50 42.5t-91.5 12.5q-68 0 -106.5 -19.5t-53.5 -69t-15 -139.5zM128 631l129 132h31l117 -132h-27l-106 110l-117 -110h-27z" />
    <glyph glyph-name="edieresis" unicode="&#xeb;" horiz-adv-x="543" 
d="M279 -6q-81 0 -128 26t-66 85.5t-19 162.5q0 105 21 163.5t68.5 82.5t126.5 24q66 0 109 -15.5t64.5 -53t21.5 -103.5q0 -43 -17 -69.5t-48.5 -38.5t-75.5 -12h-229q0 -80 14.5 -127.5t53 -69t111.5 -21.5h180v-26q-49 -4 -91.5 -6t-95.5 -2zM107 277h227q53 0 79 19
t26 70q0 54 -15.5 84t-50 42.5t-91.5 12.5q-68 0 -106.5 -19.5t-53.5 -69t-15 -139.5zM358 662q-14 0 -14 13v67q0 13 14 13h18q7 0 10.5 -3.5t3.5 -9.5v-67q0 -13 -14 -13h-18zM163 662q-13 0 -13 13v67q0 13 13 13h19q7 0 10 -3.5t3 -9.5v-67q0 -13 -13 -13h-19z" />
    <glyph glyph-name="igrave" unicode="&#xec;" horiz-adv-x="210" 
d="M86 0v532h41v-532h-41zM112 631l-131 134h39l116 -134h-24z" />
    <glyph glyph-name="iacute" unicode="&#xed;" horiz-adv-x="210" 
d="M86 0v532h41v-532h-41zM80 631l116 134h39l-131 -134h-24z" />
    <glyph glyph-name="icircumflex" unicode="&#xee;" horiz-adv-x="210" 
d="M86 0v532h41v-532h-41zM-35 631l129 132h31l117 -132h-27l-106 110l-117 -110h-27z" />
    <glyph glyph-name="idieresis" unicode="&#xef;" horiz-adv-x="210" 
d="M86 0v532h41v-532h-41zM195 662q-14 0 -14 13v67q0 13 14 13h18q7 0 10.5 -3.5t3.5 -9.5v-67q0 -13 -14 -13h-18zM0 662q-13 0 -13 13v67q0 13 13 13h19q7 0 10 -3.5t3 -9.5v-67q0 -13 -13 -13h-19z" />
    <glyph glyph-name="eth" unicode="&#xf0;" horiz-adv-x="578" 
d="M288 -6q-53 0 -94.5 11t-70 39.5t-43 82.5t-14.5 139t14.5 138t43 82t69.5 39.5t92 10.5q48 0 84.5 -9.5t62.5 -34.5t41 -71q9 -20 17.5 -42t15 -49.5t6.5 -63.5q0 -85 -15 -139t-43.5 -82.5t-70.5 -39.5t-95 -11zM288 29q43 0 77 8t57.5 32t36 71.5t12.5 125.5
t-12.5 125t-36 70.5t-57.5 31.5t-77 8t-77 -8t-57 -31.5t-35 -70.5t-12 -125t12 -125.5t35 -71.5t57 -32t77 -8zM512 265l-38 7q0 130 -22 216.5t-64 138.5t-100 78t-129 34v29q78 -8 142.5 -35.5t112 -84.5t73 -150.5t25.5 -232.5zM198 598l-6 20l314 124l8 -20z" />
    <glyph glyph-name="ntilde" unicode="&#xf1;" horiz-adv-x="584" 
d="M86 0v532h29l12 -61q42 28 96.5 49t113.5 21q55 0 91 -24.5t54.5 -64t18.5 -84.5v-368h-41v365q0 38 -15.5 69.5t-44.5 50.5t-71 19q-41 0 -74 -7.5t-63.5 -20.5t-64.5 -32v-444h-41zM134 657q1 36 14.5 56t34.5 29t41 9q24 0 44.5 -10.5t40 -24t38 -24t38.5 -10.5
q30 0 50.5 17.5t20.5 52.5h22q0 -43 -24.5 -69t-68.5 -26q-22 0 -42 10.5t-39.5 24t-39 24t-40.5 10.5q-26 0 -47 -16t-21 -53h-22z" />
    <glyph glyph-name="ograve" unicode="&#xf2;" horiz-adv-x="578" 
d="M288 -6q-53 0 -94.5 11t-70 40t-43 83t-14.5 138q0 86 14.5 139.5t43 82.5t70 39.5t94.5 10.5t95 -11t70.5 -39.5t43.5 -82t15 -139.5q0 -85 -15 -139t-43.5 -82.5t-70.5 -39.5t-95 -11zM288 29q43 0 77 8t57.5 32.5t36 72t12.5 125.5q0 79 -12.5 126t-36 70.5
t-57.5 31.5t-77 8t-77 -8t-57 -31.5t-35 -70.5t-12 -126q0 -78 12 -125.5t35 -72t57 -32.5t77 -8zM293 631l-131 134h39l116 -134h-24z" />
    <glyph glyph-name="oacute" unicode="&#xf3;" horiz-adv-x="578" 
d="M288 -6q-53 0 -94.5 11t-70 40t-43 83t-14.5 138q0 86 14.5 139.5t43 82.5t70 39.5t94.5 10.5t95 -11t70.5 -39.5t43.5 -82t15 -139.5q0 -85 -15 -139t-43.5 -82.5t-70.5 -39.5t-95 -11zM288 29q43 0 77 8t57.5 32.5t36 72t12.5 125.5q0 79 -12.5 126t-36 70.5
t-57.5 31.5t-77 8t-77 -8t-57 -31.5t-35 -70.5t-12 -126q0 -78 12 -125.5t35 -72t57 -32.5t77 -8zM261 631l116 134h39l-131 -134h-24z" />
    <glyph glyph-name="ocircumflex" unicode="&#xf4;" horiz-adv-x="578" 
d="M288 -6q-53 0 -94.5 11t-70 40t-43 83t-14.5 138q0 86 14.5 139.5t43 82.5t70 39.5t94.5 10.5t95 -11t70.5 -39.5t43.5 -82t15 -139.5q0 -85 -15 -139t-43.5 -82.5t-70.5 -39.5t-95 -11zM288 29q43 0 77 8t57.5 32.5t36 72t12.5 125.5q0 79 -12.5 126t-36 70.5
t-57.5 31.5t-77 8t-77 -8t-57 -31.5t-35 -70.5t-12 -126q0 -78 12 -125.5t35 -72t57 -32.5t77 -8zM146 631l129 132h31l117 -132h-27l-106 110l-117 -110h-27z" />
    <glyph glyph-name="otilde" unicode="&#xf5;" horiz-adv-x="578" 
d="M288 -6q-53 0 -94.5 11t-70 40t-43 83t-14.5 138q0 86 14.5 139.5t43 82.5t70 39.5t94.5 10.5t95 -11t70.5 -39.5t43.5 -82t15 -139.5q0 -85 -15 -139t-43.5 -82.5t-70.5 -39.5t-95 -11zM288 29q43 0 77 8t57.5 32.5t36 72t12.5 125.5q0 79 -12.5 126t-36 70.5
t-57.5 31.5t-77 8t-77 -8t-57 -31.5t-35 -70.5t-12 -126q0 -78 12 -125.5t35 -72t57 -32.5t77 -8zM131 657q1 36 14.5 56t34.5 29t41 9q24 0 44.5 -10.5t40 -24t38 -24t38.5 -10.5q30 0 50.5 17.5t20.5 52.5h22q0 -43 -24.5 -69t-68.5 -26q-22 0 -42 10.5t-39.5 24t-39 24
t-40.5 10.5q-26 0 -47 -16t-21 -53h-22z" />
    <glyph glyph-name="odieresis" unicode="&#xf6;" horiz-adv-x="578" 
d="M288 -6q-53 0 -94.5 11t-70 40t-43 83t-14.5 138q0 86 14.5 139.5t43 82.5t70 39.5t94.5 10.5t95 -11t70.5 -39.5t43.5 -82t15 -139.5q0 -85 -15 -139t-43.5 -82.5t-70.5 -39.5t-95 -11zM288 29q43 0 77 8t57.5 32.5t36 72t12.5 125.5q0 79 -12.5 126t-36 70.5
t-57.5 31.5t-77 8t-77 -8t-57 -31.5t-35 -70.5t-12 -126q0 -78 12 -125.5t35 -72t57 -32.5t77 -8zM376 662q-14 0 -14 13v67q0 13 14 13h18q7 0 10.5 -3.5t3.5 -9.5v-67q0 -13 -14 -13h-18zM181 662q-13 0 -13 13v67q0 13 13 13h19q7 0 10 -3.5t3 -9.5v-67q0 -13 -13 -13
h-19z" />
    <glyph glyph-name="divide" unicode="&#xf7;" horiz-adv-x="609" 
d="M293 511q-24 0 -24 23v34q0 25 24 25h22q25 0 25 -25v-34q0 -13 -7 -18t-18 -5h-22zM293 119q-24 0 -24 23v34q0 25 24 25h22q25 0 25 -25v-34q0 -13 -7 -18t-18 -5h-22zM80 338v36h448v-36h-448z" />
    <glyph glyph-name="oslash" unicode="&#xf8;" horiz-adv-x="578" 
d="M64 0l421 532h28l-420 -532h-29zM288 -6q-53 0 -94.5 11t-70 40t-43 83t-14.5 138q0 86 14.5 139.5t43 82.5t70 39.5t94.5 10.5t95 -11t70.5 -39.5t43.5 -82t15 -139.5q0 -85 -15 -139t-43.5 -82.5t-70.5 -39.5t-95 -11zM288 29q43 0 77 8t57.5 32.5t36 72t12.5 125.5
q0 79 -12.5 126t-36 70.5t-57.5 31.5t-77 8t-77 -8t-57 -31.5t-35 -70.5t-12 -126q0 -78 12 -125.5t35 -72t57 -32.5t77 -8z" />
    <glyph glyph-name="ugrave" unicode="&#xf9;" horiz-adv-x="584" 
d="M249 -6q-78 0 -120.5 38t-42.5 127v373h41v-367q0 -79 35.5 -106.5t101.5 -27.5q57 0 101.5 14.5t94.5 42.5v444h41v-532h-29l-12 61q-42 -27 -96.5 -47t-114.5 -20zM287 631l-131 134h39l116 -134h-24z" />
    <glyph glyph-name="uacute" unicode="&#xfa;" horiz-adv-x="584" 
d="M249 -6q-78 0 -120.5 38t-42.5 127v373h41v-367q0 -79 35.5 -106.5t101.5 -27.5q57 0 101.5 14.5t94.5 42.5v444h41v-532h-29l-12 61q-42 -27 -96.5 -47t-114.5 -20zM255 631l116 134h39l-131 -134h-24z" />
    <glyph glyph-name="ucircumflex" unicode="&#xfb;" horiz-adv-x="584" 
d="M249 -6q-78 0 -120.5 38t-42.5 127v373h41v-367q0 -79 35.5 -106.5t101.5 -27.5q57 0 101.5 14.5t94.5 42.5v444h41v-532h-29l-12 61q-42 -27 -96.5 -47t-114.5 -20zM140 631l129 132h31l117 -132h-27l-106 110l-117 -110h-27z" />
    <glyph glyph-name="udieresis" unicode="&#xfc;" horiz-adv-x="584" 
d="M249 -6q-78 0 -120.5 38t-42.5 127v373h41v-367q0 -79 35.5 -106.5t101.5 -27.5q57 0 101.5 14.5t94.5 42.5v444h41v-532h-29l-12 61q-42 -27 -96.5 -47t-114.5 -20zM370 662q-14 0 -14 13v67q0 13 14 13h18q7 0 10.5 -3.5t3.5 -9.5v-67q0 -13 -14 -13h-18zM175 662
q-13 0 -13 13v67q0 13 13 13h19q7 0 10 -3.5t3 -9.5v-67q0 -13 -13 -13h-19z" />
    <glyph glyph-name="yacute" unicode="&#xfd;" horiz-adv-x="526" 
d="M216 -237l74 237q-15 1 -38 9t-46 32t-40 74l-144 417h44l139 -408q13 -36 28.5 -54t31 -25t25.5 -7h10l161 494h42l-214 -670l-46 -99h-27zM235 631l116 134h39l-131 -134h-24z" />
    <glyph glyph-name="thorn" unicode="&#xfe;" horiz-adv-x="574" 
d="M86 -237v1000h41v-287q18 11 49.5 26t68.5 25.5t71 10.5q53 0 90 -23.5t59.5 -63t32.5 -87.5t10 -96q0 -92 -22 -153t-64.5 -91t-105.5 -30q-48 0 -97 16.5t-92 42.5v-290h-41zM309 29q47 0 82 23t55.5 75t20.5 140q0 84 -23 136t-58.5 76t-75.5 24q-56 0 -101 -17.5
t-82 -35.5v-368q44 -23 90 -38t92 -15z" />
    <glyph glyph-name="ydieresis" unicode="&#xff;" horiz-adv-x="526" 
d="M216 -237l74 237q-15 1 -38 9t-46 32t-40 74l-144 417h44l139 -408q13 -36 28.5 -54t31 -25t25.5 -7h10l161 494h42l-214 -670l-46 -99h-27zM350 662q-14 0 -14 13v67q0 13 14 13h18q7 0 10.5 -3.5t3.5 -9.5v-67q0 -13 -14 -13h-18zM155 662q-13 0 -13 13v67q0 13 13 13
h19q7 0 10 -3.5t3 -9.5v-67q0 -13 -13 -13h-19z" />
    <glyph glyph-name="Amacron" unicode="&#x100;" horiz-adv-x="669" 
d="M44 0l263 733h55l263 -733h-44l-87 241h-320l-87 -241h-43zM184 278h297l-147 417zM199 845v25h256v-25h-256z" />
    <glyph glyph-name="amacron" unicode="&#x101;" horiz-adv-x="541" 
d="M185 -6q-58 0 -96 34.5t-38 97.5v34q0 63 41 102t121 39h205v82q0 38 -13 65.5t-45 43t-92 15.5h-169v25q33 3 77 5.5t101 3.5q65 1 105 -16.5t58.5 -52.5t18.5 -88v-384h-30l-10 63q-2 -1 -24.5 -11.5t-58 -24t-75.5 -23.5t-76 -10zM195 29q22 -1 51 5t59 14t55.5 17
t41.5 15l16 6v191l-204 -6q-67 -3 -94.5 -34t-27.5 -77v-26q0 -39 16 -62.5t40 -32.5t47 -10zM141 685v25h256v-25h-256z" />
    <glyph glyph-name="Abreve" unicode="&#x102;" horiz-adv-x="669" 
d="M44 0l263 733h55l263 -733h-44l-87 241h-320l-87 -241h-43zM184 278h297l-147 417zM327 792q-32 0 -60.5 12t-47 42t-18.5 82h21q0 -63 31 -89.5t74 -25.5q47 1 76.5 26t29.5 89h22q0 -54 -19 -83.5t-48 -41t-61 -11.5z" />
    <glyph glyph-name="abreve" unicode="&#x103;" horiz-adv-x="541" 
d="M185 -6q-58 0 -96 34.5t-38 97.5v34q0 63 41 102t121 39h205v82q0 38 -13 65.5t-45 43t-92 15.5h-169v25q33 3 77 5.5t101 3.5q65 1 105 -16.5t58.5 -52.5t18.5 -88v-384h-30l-10 63q-2 -1 -24.5 -11.5t-58 -24t-75.5 -23.5t-76 -10zM195 29q22 -1 51 5t59 14t55.5 17
t41.5 15l16 6v191l-204 -6q-67 -3 -94.5 -34t-27.5 -77v-26q0 -39 16 -62.5t40 -32.5t47 -10zM263 632q-32 0 -60.5 12t-47 42t-18.5 82h21q0 -63 31 -89.5t74 -25.5q47 1 76.5 26t29.5 89h22q0 -54 -19 -83.5t-48 -41t-61 -11.5z" />
    <glyph glyph-name="Aogonek" unicode="&#x104;" horiz-adv-x="669" 
d="M44 0l263 733h55l263 -733h-44l-87 241h-320l-87 -241h-43zM184 278h297l-147 417zM606 -183q-31 0 -55 10.5t-37 30.5t-13 46t19 51.5t61 44.5h18q-35 -18 -53.5 -40.5t-18.5 -47.5q0 -34 24.5 -53t71.5 -19h6v-22q-6 -1 -11.5 -1h-11.5z" />
    <glyph glyph-name="aogonek" unicode="&#x105;" horiz-adv-x="541" 
d="M185 -6q-58 0 -96 34.5t-38 97.5v34q0 63 41 102t121 39h205v82q0 38 -13 65.5t-45 43t-92 15.5h-169v25q33 3 77 5.5t101 3.5q65 1 105 -16.5t58.5 -52.5t18.5 -88v-384h-30l-10 63q-2 -1 -24.5 -11.5t-58 -24t-75.5 -23.5t-76 -10zM195 29q22 -1 51 5t59 14t55.5 17
t41.5 15l16 6v191l-204 -6q-67 -3 -94.5 -34t-27.5 -77v-26q0 -39 16 -62.5t40 -32.5t47 -10zM466 -183q-31 0 -55 10.5t-37 30.5t-13 46t19 51.5t61 44.5h18q-35 -18 -53.5 -40.5t-18.5 -47.5q0 -34 24.5 -53t71.5 -19h6v-22q-6 -1 -11.5 -1h-11.5z" />
    <glyph glyph-name="Cacute" unicode="&#x106;" horiz-adv-x="578" 
d="M322 -6q-68 0 -116.5 15t-79 54.5t-45 113t-14.5 192.5q0 110 14.5 182.5t46 113t81.5 57.5t120 17q21 0 55.5 -3t73 -7.5t72.5 -11.5v-29q-17 3 -48.5 6t-71.5 5.5t-79 2.5q-60 0 -103 -14t-69.5 -50.5t-38.5 -101.5t-12 -168q0 -107 12 -174t38 -102.5t67.5 -48
t101.5 -12.5q75 0 123.5 4.5t79.5 9.5v-30q-33 -6 -70.5 -11t-73.5 -7.5t-64 -2.5zM319 791l116 134h39l-131 -134h-24z" />
    <glyph glyph-name="cacute" unicode="&#x107;" horiz-adv-x="490" 
d="M273 -6q-44 0 -81.5 11.5t-66 41t-44 83t-15.5 136.5t15 136t42.5 82.5t65.5 41t85 11.5q35 0 83 -2t87 -6v-26h-164q-54 0 -92.5 -18.5t-59.5 -70.5t-21 -151q0 -95 22.5 -146t61 -70t89.5 -19h172v-25q-22 -2 -50.5 -4t-61 -3.5t-67.5 -1.5zM243 631l116 134h39
l-131 -134h-24z" />
    <glyph glyph-name="Ccircumflex" unicode="&#x108;" horiz-adv-x="578" 
d="M322 -6q-68 0 -116.5 15t-79 54.5t-45 113t-14.5 192.5q0 110 14.5 182.5t46 113t81.5 57.5t120 17q21 0 55.5 -3t73 -7.5t72.5 -11.5v-29q-17 3 -48.5 6t-71.5 5.5t-79 2.5q-60 0 -103 -14t-69.5 -50.5t-38.5 -101.5t-12 -168q0 -107 12 -174t38 -102.5t67.5 -48
t101.5 -12.5q75 0 123.5 4.5t79.5 9.5v-30q-33 -6 -70.5 -11t-73.5 -7.5t-64 -2.5zM186 791l129 132h31l117 -132h-27l-106 110l-117 -110h-27z" />
    <glyph glyph-name="ccircumflex" unicode="&#x109;" horiz-adv-x="490" 
d="M273 -6q-44 0 -81.5 11.5t-66 41t-44 83t-15.5 136.5t15 136t42.5 82.5t65.5 41t85 11.5q35 0 83 -2t87 -6v-26h-164q-54 0 -92.5 -18.5t-59.5 -70.5t-21 -151q0 -95 22.5 -146t61 -70t89.5 -19h172v-25q-22 -2 -50.5 -4t-61 -3.5t-67.5 -1.5zM128 631l129 132h31
l117 -132h-27l-106 110l-117 -110h-27z" />
    <glyph glyph-name="Cdotaccent" unicode="&#x10a;" horiz-adv-x="578" 
d="M322 -6q-68 0 -116.5 15t-79 54.5t-45 113t-14.5 192.5q0 110 14.5 182.5t46 113t81.5 57.5t120 17q21 0 55.5 -3t73 -7.5t72.5 -11.5v-29q-17 3 -48.5 6t-71.5 5.5t-79 2.5q-60 0 -103 -14t-69.5 -50.5t-38.5 -101.5t-12 -168q0 -107 12 -174t38 -102.5t67.5 -48
t101.5 -12.5q75 0 123.5 4.5t79.5 9.5v-30q-33 -6 -70.5 -11t-73.5 -7.5t-64 -2.5zM318 829q-13 0 -13 13v67q0 13 13 13h19q6 0 9.5 -3.5t3.5 -9.5v-67q0 -13 -13 -13h-19z" />
    <glyph glyph-name="cdotaccent" unicode="&#x10b;" horiz-adv-x="490" 
d="M273 -6q-44 0 -81.5 11.5t-66 41t-44 83t-15.5 136.5t15 136t42.5 82.5t65.5 41t85 11.5q35 0 83 -2t87 -6v-26h-164q-54 0 -92.5 -18.5t-59.5 -70.5t-21 -151q0 -95 22.5 -146t61 -70t89.5 -19h172v-25q-22 -2 -50.5 -4t-61 -3.5t-67.5 -1.5zM260 669q-13 0 -13 13v67
q0 13 13 13h19q6 0 9.5 -3.5t3.5 -9.5v-67q0 -13 -13 -13h-19z" />
    <glyph glyph-name="Ccaron" unicode="&#x10c;" horiz-adv-x="578" 
d="M322 -6q-68 0 -116.5 15t-79 54.5t-45 113t-14.5 192.5q0 110 14.5 182.5t46 113t81.5 57.5t120 17q21 0 55.5 -3t73 -7.5t72.5 -11.5v-29q-17 3 -48.5 6t-71.5 5.5t-79 2.5q-60 0 -103 -14t-69.5 -50.5t-38.5 -101.5t-12 -168q0 -107 12 -174t38 -102.5t67.5 -48
t101.5 -12.5q75 0 123.5 4.5t79.5 9.5v-30q-33 -6 -70.5 -11t-73.5 -7.5t-64 -2.5zM312 791l-117 132h27l106 -110l117 110h27l-129 -132h-31z" />
    <glyph glyph-name="ccaron" unicode="&#x10d;" horiz-adv-x="490" 
d="M273 -6q-44 0 -81.5 11.5t-66 41t-44 83t-15.5 136.5t15 136t42.5 82.5t65.5 41t85 11.5q35 0 83 -2t87 -6v-26h-164q-54 0 -92.5 -18.5t-59.5 -70.5t-21 -151q0 -95 22.5 -146t61 -70t89.5 -19h172v-25q-22 -2 -50.5 -4t-61 -3.5t-67.5 -1.5zM254 631l-117 132h27
l106 -110l117 110h27l-129 -132h-31z" />
    <glyph glyph-name="Dcaron" unicode="&#x10e;" horiz-adv-x="663" 
d="M85 0v733h278q62 0 106 -22.5t72 -68t41.5 -114.5t13.5 -162q0 -110 -26.5 -192.5t-78 -128t-128.5 -45.5h-278zM126 37h235q67 0 109.5 41.5t63.5 116t21 171.5q0 88 -11 150.5t-34 102.5t-60 58.5t-89 18.5h-235v-659zM296 791l-117 132h27l106 -110l117 110h27
l-129 -132h-31z" />
    <glyph glyph-name="dcaron" unicode="&#x10f;" horiz-adv-x="570" 
d="M258 -6q-67 0 -109.5 29.5t-62.5 89.5t-20 150q0 99 20.5 159.5t65 88t116.5 27.5q49 0 96.5 -11t82.5 -23v259h40v-763h-30l-10 56q-14 -12 -46.5 -26.5t-71 -25t-71.5 -10.5zM265 29q55 0 100 17.5t82 36.5v392q-45 12 -83.5 20.5t-88.5 8.5q-60 0 -97 -22.5t-54 -75
t-17 -142.5q0 -81 16 -133t51 -77t91 -25zM569 582l-5 143v58h39v-58l-5 -143h-29z" />
    <glyph glyph-name="Dcroat" unicode="&#x110;" horiz-adv-x="663" 
d="M16 356v32h306v-32h-306zM85 0v733h278q62 0 106 -22.5t72 -68t41.5 -114.5t13.5 -162q0 -110 -26.5 -192.5t-78 -128t-128.5 -45.5h-278zM126 37h235q67 0 109.5 41.5t63.5 116t21 171.5q0 88 -11 150.5t-34 102.5t-60 58.5t-89 18.5h-235v-659z" />
    <glyph glyph-name="dcroat" unicode="&#x111;" horiz-adv-x="570" 
d="M295 637v21h267v-21h-267zM258 -6q-67 0 -109.5 29.5t-62.5 89.5t-20 150q0 99 20.5 159.5t65 88t116.5 27.5q49 0 96.5 -11t82.5 -23v259h40v-763h-30l-10 56q-14 -12 -46.5 -26.5t-71 -25t-71.5 -10.5zM265 29q55 0 100 17.5t82 36.5v392q-45 12 -83.5 20.5t-88.5 8.5
q-60 0 -97 -22.5t-54 -75t-17 -142.5q0 -81 16 -133t51 -77t91 -25z" />
    <glyph glyph-name="Emacron" unicode="&#x112;" horiz-adv-x="581" 
d="M228 -3q-25 0 -50 4t-46 17t-34 39.5t-13 70.5v470q0 38 11 64.5t30 42t42.5 22t48.5 6.5q53 -1 103.5 -2t99.5 -2.5t97 -2.5v-31h-294q-44 0 -70.5 -24t-26.5 -77v-212l350 -3v-30l-350 -4v-212q0 -44 15 -65t39.5 -27t50.5 -6h286v-31q-47 -2 -95.5 -3l-97 -2t-96.5 -2
zM175 845v25h256v-25h-256z" />
    <glyph glyph-name="emacron" unicode="&#x113;" horiz-adv-x="543" 
d="M279 -6q-81 0 -128 26t-66 85.5t-19 162.5q0 105 21 163.5t68.5 82.5t126.5 24q66 0 109 -15.5t64.5 -53t21.5 -103.5q0 -43 -17 -69.5t-48.5 -38.5t-75.5 -12h-229q0 -80 14.5 -127.5t53 -69t111.5 -21.5h180v-26q-49 -4 -91.5 -6t-95.5 -2zM107 277h227q53 0 79 19
t26 70q0 54 -15.5 84t-50 42.5t-91.5 12.5q-68 0 -106.5 -19.5t-53.5 -69t-15 -139.5zM141 685v25h256v-25h-256z" />
    <glyph glyph-name="Ebreve" unicode="&#x114;" horiz-adv-x="581" 
d="M228 -3q-25 0 -50 4t-46 17t-34 39.5t-13 70.5v470q0 38 11 64.5t30 42t42.5 22t48.5 6.5q53 -1 103.5 -2t99.5 -2.5t97 -2.5v-31h-294q-44 0 -70.5 -24t-26.5 -77v-212l350 -3v-30l-350 -4v-212q0 -44 15 -65t39.5 -27t50.5 -6h286v-31q-47 -2 -95.5 -3l-97 -2t-96.5 -2
zM303 792q-32 0 -60.5 12t-47 42t-18.5 82h21q0 -63 31 -89.5t74 -25.5q47 1 76.5 26t29.5 89h22q0 -54 -19 -83.5t-48 -41t-61 -11.5z" />
    <glyph glyph-name="ebreve" unicode="&#x115;" horiz-adv-x="543" 
d="M279 -6q-81 0 -128 26t-66 85.5t-19 162.5q0 105 21 163.5t68.5 82.5t126.5 24q66 0 109 -15.5t64.5 -53t21.5 -103.5q0 -43 -17 -69.5t-48.5 -38.5t-75.5 -12h-229q0 -80 14.5 -127.5t53 -69t111.5 -21.5h180v-26q-49 -4 -91.5 -6t-95.5 -2zM107 277h227q53 0 79 19
t26 70q0 54 -15.5 84t-50 42.5t-91.5 12.5q-68 0 -106.5 -19.5t-53.5 -69t-15 -139.5zM263 632q-32 0 -60.5 12t-47 42t-18.5 82h21q0 -63 31 -89.5t74 -25.5q47 1 76.5 26t29.5 89h22q0 -54 -19 -83.5t-48 -41t-61 -11.5z" />
    <glyph glyph-name="Edotaccent" unicode="&#x116;" horiz-adv-x="581" 
d="M228 -3q-25 0 -50 4t-46 17t-34 39.5t-13 70.5v470q0 38 11 64.5t30 42t42.5 22t48.5 6.5q53 -1 103.5 -2t99.5 -2.5t97 -2.5v-31h-294q-44 0 -70.5 -24t-26.5 -77v-212l350 -3v-30l-350 -4v-212q0 -44 15 -65t39.5 -27t50.5 -6h286v-31q-47 -2 -95.5 -3l-97 -2t-96.5 -2
zM300 829q-13 0 -13 13v67q0 13 13 13h19q6 0 9.5 -3.5t3.5 -9.5v-67q0 -13 -13 -13h-19z" />
    <glyph glyph-name="edotaccent" unicode="&#x117;" horiz-adv-x="543" 
d="M279 -6q-81 0 -128 26t-66 85.5t-19 162.5q0 105 21 163.5t68.5 82.5t126.5 24q66 0 109 -15.5t64.5 -53t21.5 -103.5q0 -43 -17 -69.5t-48.5 -38.5t-75.5 -12h-229q0 -80 14.5 -127.5t53 -69t111.5 -21.5h180v-26q-49 -4 -91.5 -6t-95.5 -2zM107 277h227q53 0 79 19
t26 70q0 54 -15.5 84t-50 42.5t-91.5 12.5q-68 0 -106.5 -19.5t-53.5 -69t-15 -139.5zM260 669q-13 0 -13 13v67q0 13 13 13h19q6 0 9.5 -3.5t3.5 -9.5v-67q0 -13 -13 -13h-19z" />
    <glyph glyph-name="Eogonek" unicode="&#x118;" horiz-adv-x="581" 
d="M228 -3q-25 0 -50 4t-46 17t-34 39.5t-13 70.5v470q0 38 11 64.5t30 42t42.5 22t48.5 6.5q53 -1 103.5 -2t99.5 -2.5t97 -2.5v-31h-294q-44 0 -70.5 -24t-26.5 -77v-212l350 -3v-30l-350 -4v-212q0 -44 15 -65t39.5 -27t50.5 -6h286v-31q-47 -2 -95.5 -3l-97 -2t-96.5 -2
zM524 -179q-31 0 -55 10.5t-37 30.5t-13 46t19 51.5t61 44.5h18q-35 -18 -53.5 -40.5t-18.5 -47.5q0 -34 24.5 -53t71.5 -19h6v-22q-6 -1 -11.5 -1h-11.5z" />
    <glyph glyph-name="eogonek" unicode="&#x119;" horiz-adv-x="543" 
d="M279 -6q-81 0 -128 26t-66 85.5t-19 162.5q0 105 21 163.5t68.5 82.5t126.5 24q66 0 109 -15.5t64.5 -53t21.5 -103.5q0 -43 -17 -69.5t-48.5 -38.5t-75.5 -12h-229q0 -80 14.5 -127.5t53 -69t111.5 -21.5h180v-26q-49 -4 -91.5 -6t-95.5 -2zM107 277h227q53 0 79 19
t26 70q0 54 -15.5 84t-50 42.5t-91.5 12.5q-68 0 -106.5 -19.5t-53.5 -69t-15 -139.5zM473 -160q-31 0 -55 10.5t-37 30.5t-13 46t19 51.5t61 44.5h18q-35 -18 -53.5 -40.5t-18.5 -47.5q0 -34 24.5 -53t71.5 -19h6v-22q-6 -1 -11.5 -1h-11.5z" />
    <glyph glyph-name="Ecaron" unicode="&#x11a;" horiz-adv-x="581" 
d="M228 -3q-25 0 -50 4t-46 17t-34 39.5t-13 70.5v470q0 38 11 64.5t30 42t42.5 22t48.5 6.5q53 -1 103.5 -2t99.5 -2.5t97 -2.5v-31h-294q-44 0 -70.5 -24t-26.5 -77v-212l350 -3v-30l-350 -4v-212q0 -44 15 -65t39.5 -27t50.5 -6h286v-31q-47 -2 -95.5 -3l-97 -2t-96.5 -2
zM294 791l-117 132h27l106 -110l117 110h27l-129 -132h-31z" />
    <glyph glyph-name="ecaron" unicode="&#x11b;" horiz-adv-x="543" 
d="M279 -6q-81 0 -128 26t-66 85.5t-19 162.5q0 105 21 163.5t68.5 82.5t126.5 24q66 0 109 -15.5t64.5 -53t21.5 -103.5q0 -43 -17 -69.5t-48.5 -38.5t-75.5 -12h-229q0 -80 14.5 -127.5t53 -69t111.5 -21.5h180v-26q-49 -4 -91.5 -6t-95.5 -2zM107 277h227q53 0 79 19
t26 70q0 54 -15.5 84t-50 42.5t-91.5 12.5q-68 0 -106.5 -19.5t-53.5 -69t-15 -139.5zM254 631l-117 132h27l106 -110l117 110h27l-129 -132h-31z" />
    <glyph glyph-name="Gcircumflex" unicode="&#x11c;" horiz-adv-x="645" 
d="M308 -5q-71 -1 -117.5 19t-74 64.5t-38.5 116.5t-11 175q0 96 11.5 166t38 115t72.5 66.5t113 21.5q32 0 74 -2.5t83 -7.5t74 -11v-30q-20 2 -57 5.5t-81.5 6t-88.5 2.5q-77 0 -120 -34t-60.5 -107.5t-17.5 -192.5q0 -96 9.5 -160.5t32 -103t62.5 -55t102 -16.5
q52 0 108 15t98 32v258h-203v27q19 3 44.5 5t55.5 3.5t62 1.5q23 0 44.5 -0.5t37.5 -3.5v-371h-29l-8 53q-40 -19 -97 -38t-119 -20zM187 791l129 132h31l117 -132h-27l-106 110l-117 -110h-27z" />
    <glyph glyph-name="gcircumflex" unicode="&#x11d;" horiz-adv-x="572" 
d="M213 -244q-52 0 -91.5 14.5t-62 44.5t-22.5 76v28q0 48 26 79t65 46t79 15l6 -24q-35 0 -66 -11t-51.5 -36t-20.5 -65v-28q0 -59 39.5 -82.5t104.5 -23.5h135q73 0 114.5 28t41.5 87v23q0 33 -12.5 57t-43 37.5t-87.5 13.5h-184q-46 0 -75.5 22.5t-29.5 61.5t24 60t68 29
q-41 14 -63 40t-30.5 56.5t-8.5 59.5q0 63 26 100.5t70.5 53.5t99.5 16h284v-25l-142 -8q15 -8 35 -22.5t34.5 -44.5t14.5 -83q0 -39 -16.5 -76t-57 -61.5t-112.5 -24.5h-80q-51 0 -79.5 -14.5t-28.5 -52.5q0 -28 20 -40.5t41 -12.5h194q61 0 100.5 -16t58 -46.5t18.5 -75.5
v-26q0 -70 -49 -109.5t-143 -39.5h-143zM238 223h62q62 0 94.5 19t44.5 48.5t12 62.5q0 54 -18.5 86.5t-49.5 46t-72 13.5h-57q-68 0 -107.5 -30.5t-39.5 -106.5q0 -73 35.5 -106t95.5 -33zM146 631l129 132h31l117 -132h-27l-106 110l-117 -110h-27z" />
    <glyph glyph-name="Gbreve" unicode="&#x11e;" horiz-adv-x="645" 
d="M308 -5q-71 -1 -117.5 19t-74 64.5t-38.5 116.5t-11 175q0 96 11.5 166t38 115t72.5 66.5t113 21.5q32 0 74 -2.5t83 -7.5t74 -11v-30q-20 2 -57 5.5t-81.5 6t-88.5 2.5q-77 0 -120 -34t-60.5 -107.5t-17.5 -192.5q0 -96 9.5 -160.5t32 -103t62.5 -55t102 -16.5
q52 0 108 15t98 32v258h-203v27q19 3 44.5 5t55.5 3.5t62 1.5q23 0 44.5 -0.5t37.5 -3.5v-371h-29l-8 53q-40 -19 -97 -38t-119 -20zM322 792q-32 0 -60.5 12t-47 42t-18.5 82h21q0 -63 31 -89.5t74 -25.5q47 1 76.5 26t29.5 89h22q0 -54 -19 -83.5t-48 -41t-61 -11.5z" />
    <glyph glyph-name="gbreve" unicode="&#x11f;" horiz-adv-x="572" 
d="M213 -244q-52 0 -91.5 14.5t-62 44.5t-22.5 76v28q0 48 26 79t65 46t79 15l6 -24q-35 0 -66 -11t-51.5 -36t-20.5 -65v-28q0 -59 39.5 -82.5t104.5 -23.5h135q73 0 114.5 28t41.5 87v23q0 33 -12.5 57t-43 37.5t-87.5 13.5h-184q-46 0 -75.5 22.5t-29.5 61.5t24 60t68 29
q-41 14 -63 40t-30.5 56.5t-8.5 59.5q0 63 26 100.5t70.5 53.5t99.5 16h284v-25l-142 -8q15 -8 35 -22.5t34.5 -44.5t14.5 -83q0 -39 -16.5 -76t-57 -61.5t-112.5 -24.5h-80q-51 0 -79.5 -14.5t-28.5 -52.5q0 -28 20 -40.5t41 -12.5h194q61 0 100.5 -16t58 -46.5t18.5 -75.5
v-26q0 -70 -49 -109.5t-143 -39.5h-143zM238 223h62q62 0 94.5 19t44.5 48.5t12 62.5q0 54 -18.5 86.5t-49.5 46t-72 13.5h-57q-68 0 -107.5 -30.5t-39.5 -106.5q0 -73 35.5 -106t95.5 -33zM281 632q-32 0 -60.5 12t-47 42t-18.5 82h21q0 -63 31 -89.5t74 -25.5
q47 1 76.5 26t29.5 89h22q0 -54 -19 -83.5t-48 -41t-61 -11.5z" />
    <glyph glyph-name="Gdotaccent" unicode="&#x120;" horiz-adv-x="645" 
d="M308 -5q-71 -1 -117.5 19t-74 64.5t-38.5 116.5t-11 175q0 96 11.5 166t38 115t72.5 66.5t113 21.5q32 0 74 -2.5t83 -7.5t74 -11v-30q-20 2 -57 5.5t-81.5 6t-88.5 2.5q-77 0 -120 -34t-60.5 -107.5t-17.5 -192.5q0 -96 9.5 -160.5t32 -103t62.5 -55t102 -16.5
q52 0 108 15t98 32v258h-203v27q19 3 44.5 5t55.5 3.5t62 1.5q23 0 44.5 -0.5t37.5 -3.5v-371h-29l-8 53q-40 -19 -97 -38t-119 -20zM319 829q-13 0 -13 13v67q0 13 13 13h19q6 0 9.5 -3.5t3.5 -9.5v-67q0 -13 -13 -13h-19z" />
    <glyph glyph-name="gdotaccent" unicode="&#x121;" horiz-adv-x="572" 
d="M213 -244q-52 0 -91.5 14.5t-62 44.5t-22.5 76v28q0 48 26 79t65 46t79 15l6 -24q-35 0 -66 -11t-51.5 -36t-20.5 -65v-28q0 -59 39.5 -82.5t104.5 -23.5h135q73 0 114.5 28t41.5 87v23q0 33 -12.5 57t-43 37.5t-87.5 13.5h-184q-46 0 -75.5 22.5t-29.5 61.5t24 60t68 29
q-41 14 -63 40t-30.5 56.5t-8.5 59.5q0 63 26 100.5t70.5 53.5t99.5 16h284v-25l-142 -8q15 -8 35 -22.5t34.5 -44.5t14.5 -83q0 -39 -16.5 -76t-57 -61.5t-112.5 -24.5h-80q-51 0 -79.5 -14.5t-28.5 -52.5q0 -28 20 -40.5t41 -12.5h194q61 0 100.5 -16t58 -46.5t18.5 -75.5
v-26q0 -70 -49 -109.5t-143 -39.5h-143zM238 223h62q62 0 94.5 19t44.5 48.5t12 62.5q0 54 -18.5 86.5t-49.5 46t-72 13.5h-57q-68 0 -107.5 -30.5t-39.5 -106.5q0 -73 35.5 -106t95.5 -33zM278 669q-13 0 -13 13v67q0 13 13 13h19q6 0 9.5 -3.5t3.5 -9.5v-67q0 -13 -13 -13
h-19z" />
    <glyph glyph-name="uni0122" unicode="&#x122;" horiz-adv-x="645" 
d="M308 -5q-71 -1 -117.5 19t-74 64.5t-38.5 116.5t-11 175q0 96 11.5 166t38 115t72.5 66.5t113 21.5q32 0 74 -2.5t83 -7.5t74 -11v-30q-20 2 -57 5.5t-81.5 6t-88.5 2.5q-77 0 -120 -34t-60.5 -107.5t-17.5 -192.5q0 -96 9.5 -160.5t32 -103t62.5 -55t102 -16.5
q52 0 108 15t98 32v258h-203v27q19 3 44.5 5t55.5 3.5t62 1.5q23 0 44.5 -0.5t37.5 -3.5v-371h-29l-8 53q-40 -19 -97 -38t-119 -20zM252 -194v16l32 4q25 3 42.5 11t26.5 31.5t8 74.5h27q0 -50 -8 -80.5t-31 -43.5t-67 -13h-30z" />
    <glyph glyph-name="uni0123" unicode="&#x123;" horiz-adv-x="572" 
d="M213 -244q-52 0 -91.5 14.5t-62 44.5t-22.5 76v28q0 48 26 79t65 46t79 15l6 -24q-35 0 -66 -11t-51.5 -36t-20.5 -65v-28q0 -59 39.5 -82.5t104.5 -23.5h135q73 0 114.5 28t41.5 87v23q0 33 -12.5 57t-43 37.5t-87.5 13.5h-184q-46 0 -75.5 22.5t-29.5 61.5t24 60t68 29
q-41 14 -63 40t-30.5 56.5t-8.5 59.5q0 63 26 100.5t70.5 53.5t99.5 16h284v-25l-142 -8q15 -8 35 -22.5t34.5 -44.5t14.5 -83q0 -39 -16.5 -76t-57 -61.5t-112.5 -24.5h-80q-51 0 -79.5 -14.5t-28.5 -52.5q0 -28 20 -40.5t41 -12.5h194q61 0 100.5 -16t58 -46.5t18.5 -75.5
v-26q0 -70 -49 -109.5t-143 -39.5h-143zM238 223h62q62 0 94.5 19t44.5 48.5t12 62.5q0 54 -18.5 86.5t-49.5 46t-72 13.5h-57q-68 0 -107.5 -30.5t-39.5 -106.5q0 -73 35.5 -106t95.5 -33zM243 611q0 50 8.5 80t31.5 43.5t66 13.5h30v-17l-31 -4q-25 -2 -43 -10.5t-27 -32
t-8 -73.5h-27z" />
    <glyph glyph-name="Hcircumflex" unicode="&#x124;" horiz-adv-x="669" 
d="M85 0v733h41v-359h418v359h41v-733h-41v337h-418v-337h-41zM193 791l129 132h31l117 -132h-27l-106 110l-117 -110h-27z" />
    <glyph glyph-name="hcircumflex" unicode="&#x125;" horiz-adv-x="584" 
d="M86 0v763h41v-292q42 28 96.5 49t113.5 21q54 0 90.5 -24t55 -63.5t18.5 -85.5v-368h-41v365q0 38 -15.5 69.5t-44.5 50.5t-71 19q-41 0 -73.5 -7.5t-63 -20.5t-65.5 -32v-444h-41zM28 804l129 132h31l117 -132h-27l-106 110l-117 -110h-27z" />
    <glyph glyph-name="Hbar" unicode="&#x126;" horiz-adv-x="669" 
d="M16 529v29h637v-29h-637zM85 0v733h41v-359h418v359h41v-733h-41v337h-418v-337h-41z" />
    <glyph glyph-name="hbar" unicode="&#x127;" horiz-adv-x="584" 
d="M8 637v21h267v-21h-267zM86 0v763h41v-292q42 28 96.5 49t113.5 21q54 0 90.5 -24t55 -63.5t18.5 -85.5v-368h-41v365q0 38 -15.5 69.5t-44.5 50.5t-71 19q-41 0 -73.5 -7.5t-63 -20.5t-65.5 -32v-444h-41z" />
    <glyph glyph-name="Itilde" unicode="&#x128;" horiz-adv-x="210" 
d="M85 0v733h41v-733h-41zM-58 817q1 36 14.5 56t34.5 29t41 9q24 0 44.5 -10.5t40 -24t38 -24t38.5 -10.5q30 0 50.5 17.5t20.5 52.5h22q0 -43 -24.5 -69t-68.5 -26q-22 0 -42 10.5t-39.5 24t-39 24t-40.5 10.5q-26 0 -47 -16t-21 -53h-22z" />
    <glyph glyph-name="itilde" unicode="&#x129;" horiz-adv-x="210" 
d="M86 0v532h41v-532h-41zM-50 657q1 36 14.5 56t34.5 29t41 9q24 0 44.5 -10.5t40 -24t38 -24t38.5 -10.5q30 0 50.5 17.5t20.5 52.5h22q0 -43 -24.5 -69t-68.5 -26q-22 0 -42 10.5t-39.5 24t-39 24t-40.5 10.5q-26 0 -47 -16t-21 -53h-22z" />
    <glyph glyph-name="Imacron" unicode="&#x12a;" horiz-adv-x="210" 
d="M85 0v733h41v-733h-41zM-30 845v25h256v-25h-256z" />
    <glyph glyph-name="imacron" unicode="&#x12b;" horiz-adv-x="210" 
d="M86 0v532h41v-532h-41zM-22 685v25h256v-25h-256z" />
    <glyph glyph-name="Ibreve" unicode="&#x12c;" horiz-adv-x="210" 
d="M85 0v733h41v-733h-41zM98 792q-32 0 -60.5 12t-47 42t-18.5 82h21q0 -63 31 -89.5t74 -25.5q47 1 76.5 26t29.5 89h22q0 -54 -19 -83.5t-48 -41t-61 -11.5z" />
    <glyph glyph-name="ibreve" unicode="&#x12d;" horiz-adv-x="210" 
d="M86 0v532h41v-532h-41zM100 632q-32 0 -60.5 12t-47 42t-18.5 82h21q0 -63 31 -89.5t74 -25.5q47 1 76.5 26t29.5 89h22q0 -54 -19 -83.5t-48 -41t-61 -11.5z" />
    <glyph glyph-name="Iogonek" unicode="&#x12e;" horiz-adv-x="210" 
d="M85 0v733h41v-733h-41zM133 -183q-31 0 -55 10.5t-37 30.5t-13 46t19 51.5t61 44.5h18q-35 -18 -53.5 -40.5t-18.5 -47.5q0 -34 24.5 -53t71.5 -19h6v-22q-6 -1 -11.5 -1h-11.5z" />
    <glyph glyph-name="iogonek" unicode="&#x12f;" horiz-adv-x="214" 
d="M95 637q-13 0 -13 13v67q0 13 13 13h25q6 0 9 -4t3 -9v-67q0 -13 -12 -13h-25zM86 0v532h41v-532h-41zM134 -183q-31 0 -55 10.5t-37 30.5t-13 46t19 51.5t61 44.5h18q-35 -18 -53.5 -40.5t-18.5 -47.5q0 -34 24.5 -53t71.5 -19h6v-22q-6 -1 -11.5 -1h-11.5z" />
    <glyph glyph-name="Idotaccent" unicode="&#x130;" horiz-adv-x="210" 
d="M85 0v733h41v-733h-41zM95 829q-13 0 -13 13v67q0 13 13 13h19q6 0 9.5 -3.5t3.5 -9.5v-67q0 -13 -13 -13h-19z" />
    <glyph glyph-name="dotlessi" unicode="&#x131;" horiz-adv-x="210" 
d="M86 0v532h41v-532h-41z" />
    <glyph glyph-name="Jcircumflex" unicode="&#x134;" horiz-adv-x="374" 
d="M136 -6q-26 0 -57.5 7.5t-51.5 16.5v30q22 -6 52 -11.5t52 -5.5q35 0 61 10t41 36t15 76v580h41v-583q0 -60 -18 -94t-51.5 -48t-83.5 -14zM127 791l129 132h31l117 -132h-27l-106 110l-117 -110h-27z" />
    <glyph glyph-name="jcircumflex" unicode="&#x135;" horiz-adv-x="214" 
d="M86 -237v769h41v-508q0 -77 -4 -146t-8 -115h-29zM-35 631l129 132h31l117 -132h-27l-106 110l-117 -110h-27z" />
    <glyph glyph-name="uni0136" unicode="&#x136;" horiz-adv-x="583" 
d="M85 0v733h41v-347h147l229 347h44l-241 -366l242 -367h-45l-230 348h-146v-348h-41zM196 -194v16l32 4q25 3 42.5 11t26.5 31.5t8 74.5h27q0 -50 -8 -80.5t-31 -43.5t-67 -13h-30z" />
    <glyph glyph-name="uni0137" unicode="&#x137;" horiz-adv-x="480" 
d="M86 0v763h41v-458h84l188 227h46l-204 -246l214 -286h-47l-201 268h-80v-268h-41zM164 -194v16l32 4q25 3 42.5 11t26.5 31.5t8 74.5h27q0 -50 -8 -80.5t-31 -43.5t-67 -13h-30z" />
    <glyph glyph-name="kgreenlandic" unicode="&#x138;" horiz-adv-x="480" 
d="M86 0v541h41v-237h83l188 228h47l-204 -248l214 -284h-47l-201 267h-80v-267h-41z" />
    <glyph glyph-name="Lacute" unicode="&#x139;" horiz-adv-x="530" 
d="M217 0q-34 0 -64.5 11t-49 40t-18.5 82v600h41v-597q0 -41 14.5 -62t36.5 -28t46 -7h279v-39h-285zM96 791l116 134h39l-131 -134h-24z" />
    <glyph glyph-name="lacute" unicode="&#x13a;" horiz-adv-x="283" 
d="M211 0q-39 0 -67 15t-43 51.5t-15 103.5v593h41v-590q0 -57 10.5 -85.5t30 -39t45.5 -13.5l60 -7v-28h-62zM80 876l116 134h39l-131 -134h-24z" />
    <glyph glyph-name="uni013B" unicode="&#x13b;" horiz-adv-x="530" 
d="M217 0q-34 0 -64.5 11t-49 40t-18.5 82v600h41v-597q0 -41 14.5 -62t36.5 -28t46 -7h279v-39h-285zM183 -194v16l32 4q25 3 42.5 11t26.5 31.5t8 74.5h27q0 -50 -8 -80.5t-31 -43.5t-67 -13h-30z" />
    <glyph glyph-name="uni013C" unicode="&#x13c;" horiz-adv-x="283" 
d="M211 0q-39 0 -67 15t-43 51.5t-15 103.5v593h41v-590q0 -57 10.5 -85.5t30 -39t45.5 -13.5l60 -7v-28h-62zM74 -194v16l32 4q25 3 42.5 11t26.5 31.5t8 74.5h27q0 -50 -8 -80.5t-31 -43.5t-67 -13h-30z" />
    <glyph glyph-name="Lcaron" unicode="&#x13d;" horiz-adv-x="530" 
d="M217 0q-34 0 -64.5 11t-49 40t-18.5 82v600h41v-597q0 -41 14.5 -62t36.5 -28t46 -7h279v-39h-285zM227 582l-5 143v58h39v-58l-5 -143h-29z" />
    <glyph glyph-name="lcaron" unicode="&#x13e;" horiz-adv-x="283" 
d="M211 0q-39 0 -67 15t-43 51.5t-15 103.5v593h41v-590q0 -57 10.5 -85.5t30 -39t45.5 -13.5l60 -7v-28h-62zM208 582l-5 143v58h39v-58l-5 -143h-29z" />
    <glyph glyph-name="Ldot" unicode="&#x13f;" horiz-adv-x="530" 
d="M217 0q-34 0 -64.5 11t-49 40t-18.5 82v600h41v-597q0 -41 14.5 -62t36.5 -28t46 -7h279v-39h-285zM368 360q-14 0 -14 13v23q0 13 14 13h21q13 0 13 -13v-23q0 -6 -4 -9.5t-9 -3.5h-21z" />
    <glyph glyph-name="ldot" unicode="&#x140;" horiz-adv-x="291" 
d="M211 0q-39 0 -67 15t-43 51.5t-15 103.5v593h41v-590q0 -57 10.5 -85.5t30 -39t45.5 -13.5l60 -7v-28h-62zM243 356q-14 0 -14 13v23q0 13 14 13h21q13 0 13 -13v-23q0 -6 -4 -9.5t-9 -3.5h-21z" />
    <glyph glyph-name="Lslash" unicode="&#x141;" horiz-adv-x="530" 
d="M5 320v28l86 37l30 8l145 63v-28l-145 -63l-30 -9zM217 0q-34 0 -64.5 11t-49 40t-18.5 82v600h41v-597q0 -41 14.5 -62t36.5 -28t46 -7h279v-39h-285z" />
    <glyph glyph-name="lslash" unicode="&#x142;" horiz-adv-x="283" 
d="M7 367v28l79 28l41 13l111 37v-29l-111 -37l-41 -13zM211 0q-39 0 -67 15t-43 51.5t-15 103.5v593h41v-590q0 -57 10.5 -85.5t30 -39t45.5 -13.5l60 -7v-28h-62z" />
    <glyph glyph-name="Nacute" unicode="&#x143;" horiz-adv-x="670" 
d="M103 0v733h35l425 -661v661h41v-733h-35l-425 661v-661h-41zM329 791l116 134h39l-131 -134h-24z" />
    <glyph glyph-name="nacute" unicode="&#x144;" horiz-adv-x="584" 
d="M86 0v532h29l12 -61q42 28 96.5 49t113.5 21q55 0 91 -24.5t54.5 -64t18.5 -84.5v-368h-41v365q0 38 -15.5 69.5t-44.5 50.5t-71 19q-41 0 -74 -7.5t-63.5 -20.5t-64.5 -32v-444h-41zM264 631l116 134h39l-131 -134h-24z" />
    <glyph glyph-name="uni0145" unicode="&#x145;" horiz-adv-x="670" 
d="M103 0v733h35l425 -661v661h41v-733h-35l-425 661v-661h-41zM257 -194v16l32 4q25 3 42.5 11t26.5 31.5t8 74.5h27q0 -50 -8 -80.5t-31 -43.5t-67 -13h-30z" />
    <glyph glyph-name="uni0146" unicode="&#x146;" horiz-adv-x="584" 
d="M86 0v532h29l12 -61q42 28 96.5 49t113.5 21q55 0 91 -24.5t54.5 -64t18.5 -84.5v-368h-41v365q0 38 -15.5 69.5t-44.5 50.5t-71 19q-41 0 -74 -7.5t-63.5 -20.5t-64.5 -32v-444h-41zM210 -194v16l32 4q25 3 42.5 11t26.5 31.5t8 74.5h27q0 -50 -8 -80.5t-31 -43.5
t-67 -13h-30z" />
    <glyph glyph-name="Ncaron" unicode="&#x147;" horiz-adv-x="670" 
d="M103 0v733h35l425 -661v661h41v-733h-35l-425 661v-661h-41zM322 791l-117 132h27l106 -110l117 110h27l-129 -132h-31z" />
    <glyph glyph-name="ncaron" unicode="&#x148;" horiz-adv-x="584" 
d="M86 0v532h29l12 -61q42 28 96.5 49t113.5 21q55 0 91 -24.5t54.5 -64t18.5 -84.5v-368h-41v365q0 38 -15.5 69.5t-44.5 50.5t-71 19q-41 0 -74 -7.5t-63.5 -20.5t-64.5 -32v-444h-41zM275 631l-117 132h27l106 -110l117 110h27l-129 -132h-31z" />
    <glyph glyph-name="Eng" unicode="&#x14a;" horiz-adv-x="669" 
d="M434 -243q-26 0 -57 7.5t-52 16.5v30q22 -6 52.5 -11.5t52.5 -5.5q39 0 68.5 10t47 36t17.5 76v112h41v-115q0 -60 -20 -94t-57.5 -48t-92.5 -14zM103 0v733h35l425 -661v661h41v-733h-35l-425 661v-661h-41z" />
    <glyph glyph-name="eng" unicode="&#x14b;" horiz-adv-x="584" 
d="M328 -237q40 28 70 62.5t46 80.5t16 107v191h41v-190q0 -68 -18 -116t-49 -81t-71 -54h-35zM86 0v532h29l12 -61q42 28 96.5 49t113.5 21q55 0 91 -24.5t54.5 -64t18.5 -84.5v-368h-41v365q0 38 -15.5 69.5t-44.5 50.5t-71 19q-41 0 -74 -7.5t-63.5 -20.5t-64.5 -32v-444
h-41z" />
    <glyph glyph-name="Omacron" unicode="&#x14c;" horiz-adv-x="679" 
d="M340 -6q-69 0 -120 13t-85.5 50t-51 110.5t-16.5 194.5q0 122 17 196.5t51.5 113.5t85.5 53t119 14q70 0 121 -14t85 -53t50.5 -113.5t16.5 -196.5q0 -121 -17 -194.5t-51 -110.5t-85 -50t-120 -13zM340 31q61 0 105.5 12t72 46t41 99.5t13.5 173.5q0 114 -14 182
t-41.5 102t-71.5 45t-105 11q-57 0 -100.5 -11t-73 -45t-44 -102t-14.5 -182q0 -108 12 -173.5t39.5 -99.5t72 -46t108.5 -12zM205 845v25h256v-25h-256z" />
    <glyph glyph-name="omacron" unicode="&#x14d;" horiz-adv-x="578" 
d="M288 -6q-53 0 -94.5 11t-70 40t-43 83t-14.5 138q0 86 14.5 139.5t43 82.5t70 39.5t94.5 10.5t95 -11t70.5 -39.5t43.5 -82t15 -139.5q0 -85 -15 -139t-43.5 -82.5t-70.5 -39.5t-95 -11zM288 29q43 0 77 8t57.5 32.5t36 72t12.5 125.5q0 79 -12.5 126t-36 70.5
t-57.5 31.5t-77 8t-77 -8t-57 -31.5t-35 -70.5t-12 -126q0 -78 12 -125.5t35 -72t57 -32.5t77 -8zM159 685v25h256v-25h-256z" />
    <glyph glyph-name="Obreve" unicode="&#x14e;" horiz-adv-x="679" 
d="M340 -6q-69 0 -120 13t-85.5 50t-51 110.5t-16.5 194.5q0 122 17 196.5t51.5 113.5t85.5 53t119 14q70 0 121 -14t85 -53t50.5 -113.5t16.5 -196.5q0 -121 -17 -194.5t-51 -110.5t-85 -50t-120 -13zM340 31q61 0 105.5 12t72 46t41 99.5t13.5 173.5q0 114 -14 182
t-41.5 102t-71.5 45t-105 11q-57 0 -100.5 -11t-73 -45t-44 -102t-14.5 -182q0 -108 12 -173.5t39.5 -99.5t72 -46t108.5 -12zM333 792q-32 0 -60.5 12t-47 42t-18.5 82h21q0 -63 31 -89.5t74 -25.5q47 1 76.5 26t29.5 89h22q0 -54 -19 -83.5t-48 -41t-61 -11.5z" />
    <glyph glyph-name="obreve" unicode="&#x14f;" horiz-adv-x="578" 
d="M288 -6q-53 0 -94.5 11t-70 40t-43 83t-14.5 138q0 86 14.5 139.5t43 82.5t70 39.5t94.5 10.5t95 -11t70.5 -39.5t43.5 -82t15 -139.5q0 -85 -15 -139t-43.5 -82.5t-70.5 -39.5t-95 -11zM288 29q43 0 77 8t57.5 32.5t36 72t12.5 125.5q0 79 -12.5 126t-36 70.5
t-57.5 31.5t-77 8t-77 -8t-57 -31.5t-35 -70.5t-12 -126q0 -78 12 -125.5t35 -72t57 -32.5t77 -8zM281 632q-32 0 -60.5 12t-47 42t-18.5 82h21q0 -63 31 -89.5t74 -25.5q47 1 76.5 26t29.5 89h22q0 -54 -19 -83.5t-48 -41t-61 -11.5z" />
    <glyph glyph-name="Ohungarumlaut" unicode="&#x150;" horiz-adv-x="679" 
d="M340 -6q-69 0 -120 13t-85.5 50t-51 110.5t-16.5 194.5q0 122 17 196.5t51.5 113.5t85.5 53t119 14q70 0 121 -14t85 -53t50.5 -113.5t16.5 -196.5q0 -121 -17 -194.5t-51 -110.5t-85 -50t-120 -13zM340 31q61 0 105.5 12t72 46t41 99.5t13.5 173.5q0 114 -14 182
t-41.5 102t-71.5 45t-105 11q-57 0 -100.5 -11t-73 -45t-44 -102t-14.5 -182q0 -108 12 -173.5t39.5 -99.5t72 -46t108.5 -12zM374 791l115 134h37l-128 -134h-24zM231 791l115 134h38l-129 -134h-24z" />
    <glyph glyph-name="ohungarumlaut" unicode="&#x151;" horiz-adv-x="578" 
d="M288 -6q-53 0 -94.5 11t-70 40t-43 83t-14.5 138q0 86 14.5 139.5t43 82.5t70 39.5t94.5 10.5t95 -11t70.5 -39.5t43.5 -82t15 -139.5q0 -85 -15 -139t-43.5 -82.5t-70.5 -39.5t-95 -11zM288 29q43 0 77 8t57.5 32.5t36 72t12.5 125.5q0 79 -12.5 126t-36 70.5
t-57.5 31.5t-77 8t-77 -8t-57 -31.5t-35 -70.5t-12 -126q0 -78 12 -125.5t35 -72t57 -32.5t77 -8zM322 631l115 134h37l-128 -134h-24zM179 631l115 134h38l-129 -134h-24z" />
    <glyph glyph-name="OE" unicode="&#x152;" horiz-adv-x="1068" 
d="M340 -6q-69 0 -120 13t-85.5 50t-51 110.5t-16.5 194.5q0 122 17 196.5t51.5 113.5t85.5 53t119 14q70 0 121 -14t85 -53t50.5 -113.5t16.5 -196.5q0 -121 -17 -194.5t-51 -110.5t-85 -50t-120 -13zM340 31q61 0 105.5 12t72 46t41 99.5t13.5 173.5q0 114 -14 182
t-41.5 102t-71.5 45t-105 11q-57 0 -100.5 -11t-73 -45t-44 -102t-14.5 -182q0 -108 12 -173.5t39.5 -99.5t72 -46t108.5 -12zM715 -3q-25 0 -50 4t-46 17t-34 39.5t-13 70.5v470q0 38 11 64.5t30 42t42.5 22t48.5 6.5q53 -1 103.5 -2t99.5 -2.5t97 -2.5v-31h-294
q-44 0 -70.5 -24t-26.5 -77v-212l350 -3v-30l-350 -4v-212q0 -44 15 -65t39.5 -27t50.5 -6h286v-31q-47 -2 -95.5 -3l-97 -2t-96.5 -2z" />
    <glyph glyph-name="oe" unicode="&#x153;" horiz-adv-x="945" 
d="M285 -6q-53 0 -93.5 11t-68.5 40t-42.5 83t-14.5 138q0 86 14.5 139.5t43 82.5t70 39.5t94.5 10.5q51 0 91.5 -11t68.5 -39.5t42.5 -82t14.5 -139.5q0 -85 -14.5 -139t-43 -82.5t-69 -39.5t-93.5 -11zM288 28q43 0 77 8t57.5 32.5t36 72t12.5 126.5t-12.5 126t-36 71
t-57.5 32t-77 8t-77 -8t-57 -32t-35 -71t-12 -126t12 -126.5t35 -72t57 -32.5t77 -8zM679 -6q-68 0 -113.5 26.5t-68 86.5t-22.5 161q0 96 19.5 155.5t63 87t116.5 27.5q64 0 109.5 -13t70.5 -50.5t25 -110.5q0 -41 -16.5 -67.5t-47.5 -38.5t-72 -12h-234
q0 -115 42.5 -166.5t135.5 -51.5h181v-26q-46 -3 -90.5 -5.5t-98.5 -2.5zM509 277h227q31 0 54.5 7t37 26.5t13.5 55.5q0 61 -19 90.5t-55.5 39t-91.5 9.5q-65 0 -101 -24t-50.5 -74.5t-14.5 -129.5z" />
    <glyph glyph-name="Racute" unicode="&#x154;" horiz-adv-x="597" 
d="M85 0v733h280q32 0 63.5 -7t58 -28t43 -61.5t16.5 -108.5q0 -65 -15 -105t-38.5 -62t-50 -30.5t-50.5 -10.5l158 -320h-41l-156 316q-19 0 -48 1t-62 1.5t-64 1.5t-53 2v-322h-41zM126 351h235q29 0 54.5 6.5t45.5 25t32 53.5t12 92q0 54 -12.5 87t-32.5 50.5t-45.5 24
t-53.5 6.5h-235v-345zM281 791l116 134h39l-131 -134h-24z" />
    <glyph glyph-name="racute" unicode="&#x155;" horiz-adv-x="407" 
d="M86 0v532h30l11 -99q40 46 89 75.5t112 29.5q15 0 28 -1.5t24 -4.5v-41q-11 2 -25 3.5t-30 1.5q-41 0 -72.5 -10.5t-61.5 -31.5t-64 -51v-403h-41zM176 631l116 134h39l-131 -134h-24z" />
    <glyph glyph-name="uni0156" unicode="&#x156;" horiz-adv-x="597" 
d="M85 0v733h280q32 0 63.5 -7t58 -28t43 -61.5t16.5 -108.5q0 -65 -15 -105t-38.5 -62t-50 -30.5t-50.5 -10.5l158 -320h-41l-156 316q-19 0 -48 1t-62 1.5t-64 1.5t-53 2v-322h-41zM126 351h235q29 0 54.5 6.5t45.5 25t32 53.5t12 92q0 54 -12.5 87t-32.5 50.5t-45.5 24
t-53.5 6.5h-235v-345zM209 -194v16l32 4q25 3 42.5 11t26.5 31.5t8 74.5h27q0 -50 -8 -80.5t-31 -43.5t-67 -13h-30z" />
    <glyph glyph-name="uni0157" unicode="&#x157;" horiz-adv-x="407" 
d="M86 0v532h30l11 -99q40 46 89 75.5t112 29.5q15 0 28 -1.5t24 -4.5v-41q-11 2 -25 3.5t-30 1.5q-41 0 -72.5 -10.5t-61.5 -31.5t-64 -51v-403h-41zM26 -194v16l32 4q25 3 42.5 11t26.5 31.5t8 74.5h27q0 -50 -8 -80.5t-31 -43.5t-67 -13h-30z" />
    <glyph glyph-name="Rcaron" unicode="&#x158;" horiz-adv-x="597" 
d="M85 0v733h280q32 0 63.5 -7t58 -28t43 -61.5t16.5 -108.5q0 -65 -15 -105t-38.5 -62t-50 -30.5t-50.5 -10.5l158 -320h-41l-156 316q-19 0 -48 1t-62 1.5t-64 1.5t-53 2v-322h-41zM126 351h235q29 0 54.5 6.5t45.5 25t32 53.5t12 92q0 54 -12.5 87t-32.5 50.5t-45.5 24
t-53.5 6.5h-235v-345zM274 791l-117 132h27l106 -110l117 110h27l-129 -132h-31z" />
    <glyph glyph-name="rcaron" unicode="&#x159;" horiz-adv-x="407" 
d="M86 0v532h30l11 -99q40 46 89 75.5t112 29.5q15 0 28 -1.5t24 -4.5v-41q-11 2 -25 3.5t-30 1.5q-41 0 -72.5 -10.5t-61.5 -31.5t-64 -51v-403h-41zM187 631l-117 132h27l106 -110l117 110h27l-129 -132h-31z" />
    <glyph glyph-name="Sacute" unicode="&#x15a;" horiz-adv-x="572" 
d="M285 -6q-18 0 -48 1t-62.5 3.5t-61 4.5t-45.5 6v29q21 -2 56 -3.5t77 -2.5t83 -1q50 0 90.5 10t65.5 38.5t25 82.5v63q0 60 -30 92t-99 32h-88q-83 0 -131.5 36t-48.5 127v45q0 102 52.5 142t147.5 40q27 0 66 -2.5t77.5 -6.5t61.5 -8v-30q-44 3 -98.5 6.5t-104.5 3.5
t-86.5 -12.5t-56 -44t-19.5 -89.5v-42q0 -73 37.5 -99t101.5 -26h91q59 0 95.5 -21t54 -57.5t17.5 -83.5v-64q0 -67 -31 -103.5t-81 -51t-108 -14.5zM271 791l116 134h39l-131 -134h-24z" />
    <glyph glyph-name="sacute" unicode="&#x15b;" horiz-adv-x="497" 
d="M264 -6q-16 0 -45.5 0.5t-62 2t-59 3t-37.5 2.5v26h208q39 0 69.5 6t48 27.5t17.5 64.5v28q0 43 -28.5 67.5t-88.5 24.5h-71q-48 0 -84 11t-55 38t-19 75v27q0 49 19 80t57.5 45.5t95.5 14.5q26 0 61.5 -1t71.5 -3t59 -6v-25h-196q-62 0 -96 -21.5t-34 -83.5v-25
q0 -38 15.5 -57.5t44 -25.5t64.5 -6h71q68 0 109.5 -32t41.5 -94v-32q0 -54 -24 -82t-64 -38.5t-89 -10.5zM209 631l116 134h39l-131 -134h-24z" />
    <glyph glyph-name="Scircumflex" unicode="&#x15c;" horiz-adv-x="572" 
d="M285 -6q-18 0 -48 1t-62.5 3.5t-61 4.5t-45.5 6v29q21 -2 56 -3.5t77 -2.5t83 -1q50 0 90.5 10t65.5 38.5t25 82.5v63q0 60 -30 92t-99 32h-88q-83 0 -131.5 36t-48.5 127v45q0 102 52.5 142t147.5 40q27 0 66 -2.5t77.5 -6.5t61.5 -8v-30q-44 3 -98.5 6.5t-104.5 3.5
t-86.5 -12.5t-56 -44t-19.5 -89.5v-42q0 -73 37.5 -99t101.5 -26h91q59 0 95.5 -21t54 -57.5t17.5 -83.5v-64q0 -67 -31 -103.5t-81 -51t-108 -14.5zM138 791l129 132h31l117 -132h-27l-106 110l-117 -110h-27z" />
    <glyph glyph-name="scircumflex" unicode="&#x15d;" horiz-adv-x="497" 
d="M264 -6q-16 0 -45.5 0.5t-62 2t-59 3t-37.5 2.5v26h208q39 0 69.5 6t48 27.5t17.5 64.5v28q0 43 -28.5 67.5t-88.5 24.5h-71q-48 0 -84 11t-55 38t-19 75v27q0 49 19 80t57.5 45.5t95.5 14.5q26 0 61.5 -1t71.5 -3t59 -6v-25h-196q-62 0 -96 -21.5t-34 -83.5v-25
q0 -38 15.5 -57.5t44 -25.5t64.5 -6h71q68 0 109.5 -32t41.5 -94v-32q0 -54 -24 -82t-64 -38.5t-89 -10.5zM94 631l129 132h31l117 -132h-27l-106 110l-117 -110h-27z" />
    <glyph glyph-name="Scedilla" unicode="&#x15e;" horiz-adv-x="572" 
d="M285 -6q-18 0 -48 1t-62.5 3.5t-61 4.5t-45.5 6v29q21 -2 56 -3.5t77 -2.5t83 -1q50 0 90.5 10t65.5 38.5t25 82.5v63q0 60 -30 92t-99 32h-88q-83 0 -131.5 36t-48.5 127v45q0 102 52.5 142t147.5 40q27 0 66 -2.5t77.5 -6.5t61.5 -8v-30q-44 3 -98.5 6.5t-104.5 3.5
t-86.5 -12.5t-56 -44t-19.5 -89.5v-42q0 -73 37.5 -99t101.5 -26h91q59 0 95.5 -21t54 -57.5t17.5 -83.5v-64q0 -67 -31 -103.5t-81 -51t-108 -14.5zM214 -185v17l25 2q30 2 46.5 14t16.5 37q0 19 -14.5 33t-62.5 15l20 10q46 0 64.5 -16t18.5 -46q0 -32 -23.5 -49
t-66.5 -17h-24zM225 -67l52 78h21l-52 -78h-21z" />
    <glyph glyph-name="scedilla" unicode="&#x15f;" horiz-adv-x="497" 
d="M264 -6q-16 0 -45.5 0.5t-62 2t-59 3t-37.5 2.5v26h208q39 0 69.5 6t48 27.5t17.5 64.5v28q0 43 -28.5 67.5t-88.5 24.5h-71q-48 0 -84 11t-55 38t-19 75v27q0 49 19 80t57.5 45.5t95.5 14.5q26 0 61.5 -1t71.5 -3t59 -6v-25h-196q-62 0 -96 -21.5t-34 -83.5v-25
q0 -38 15.5 -57.5t44 -25.5t64.5 -6h71q68 0 109.5 -32t41.5 -94v-32q0 -54 -24 -82t-64 -38.5t-89 -10.5zM170 -185v17l25 2q30 2 46.5 14t16.5 37q0 19 -14.5 33t-62.5 15l20 10q46 0 64.5 -16t18.5 -46q0 -32 -23.5 -49t-66.5 -17h-24zM181 -67l52 78h21l-52 -78h-21z
" />
    <glyph glyph-name="Scaron" unicode="&#x160;" horiz-adv-x="572" 
d="M285 -6q-18 0 -48 1t-62.5 3.5t-61 4.5t-45.5 6v29q21 -2 56 -3.5t77 -2.5t83 -1q50 0 90.5 10t65.5 38.5t25 82.5v63q0 60 -30 92t-99 32h-88q-83 0 -131.5 36t-48.5 127v45q0 102 52.5 142t147.5 40q27 0 66 -2.5t77.5 -6.5t61.5 -8v-30q-44 3 -98.5 6.5t-104.5 3.5
t-86.5 -12.5t-56 -44t-19.5 -89.5v-42q0 -73 37.5 -99t101.5 -26h91q59 0 95.5 -21t54 -57.5t17.5 -83.5v-64q0 -67 -31 -103.5t-81 -51t-108 -14.5zM264 791l-117 132h27l106 -110l117 110h27l-129 -132h-31z" />
    <glyph glyph-name="scaron" unicode="&#x161;" horiz-adv-x="497" 
d="M264 -6q-16 0 -45.5 0.5t-62 2t-59 3t-37.5 2.5v26h208q39 0 69.5 6t48 27.5t17.5 64.5v28q0 43 -28.5 67.5t-88.5 24.5h-71q-48 0 -84 11t-55 38t-19 75v27q0 49 19 80t57.5 45.5t95.5 14.5q26 0 61.5 -1t71.5 -3t59 -6v-25h-196q-62 0 -96 -21.5t-34 -83.5v-25
q0 -38 15.5 -57.5t44 -25.5t64.5 -6h71q68 0 109.5 -32t41.5 -94v-32q0 -54 -24 -82t-64 -38.5t-89 -10.5zM220 631l-117 132h27l106 -110l117 110h27l-129 -132h-31z" />
    <glyph glyph-name="uni0162" unicode="&#x162;" horiz-adv-x="555" 
d="M257 0v696h-241v37h523v-37h-241v-696h-41zM211 -185v17l25 2q30 2 46.5 14t16.5 37q0 19 -14.5 33t-62.5 15l20 10q46 0 64.5 -16t18.5 -46q0 -32 -23.5 -49t-66.5 -17h-24zM222 -67l52 78h21l-52 -78h-21z" />
    <glyph glyph-name="uni0163" unicode="&#x163;" horiz-adv-x="355" 
d="M248 0q-45 0 -77 16.5t-47.5 52.5t-15.5 93l3 335h-86v26l85 9l9 149h30v-149h168v-35h-168v-334q0 -42 9 -67t24 -37.5t31.5 -17.5t30.5 -6l65 -6v-29h-61zM118 -185v17l25 2q30 2 46.5 14t16.5 37q0 19 -14.5 33t-62.5 15l20 10q46 0 64.5 -16t18.5 -46
q0 -32 -23.5 -49t-66.5 -17h-24zM129 -67l52 78h21l-52 -78h-21z" />
    <glyph glyph-name="Tcaron" unicode="&#x164;" horiz-adv-x="555" 
d="M257 0v696h-241v37h523v-37h-241v-696h-41zM261 791l-117 132h27l106 -110l117 110h27l-129 -132h-31z" />
    <glyph glyph-name="tcaron" unicode="&#x165;" horiz-adv-x="355" 
d="M248 0q-45 0 -77 16.5t-47.5 52.5t-15.5 93l3 335h-86v26l85 9l9 149h30v-149h168v-35h-168v-334q0 -42 9 -67t24 -37.5t31.5 -17.5t30.5 -6l65 -6v-29h-61zM230 582l-5 143v58h39v-58l-5 -143h-29z" />
    <glyph glyph-name="Tbar" unicode="&#x166;" horiz-adv-x="555" 
d="M73 376v29h408v-29h-408zM257 0v696h-241v37h523v-37h-241v-696h-41z" />
    <glyph glyph-name="tbar" unicode="&#x167;" horiz-adv-x="355" 
d="M25 311v22h274v-22h-274zM248 0q-45 0 -77 16.5t-47.5 52.5t-15.5 93l3 335h-86v26l85 9l9 149h30v-149h168v-35h-168v-334q0 -42 9 -67t24 -37.5t31.5 -17.5t30.5 -6l65 -6v-29h-61z" />
    <glyph glyph-name="Utilde" unicode="&#x168;" horiz-adv-x="670" 
d="M335 -6q-62 0 -110.5 11.5t-82 37.5t-50.5 70t-17 109v511h41v-510q0 -76 26 -117.5t75 -58t118 -16.5t118.5 16.5t75.5 58t26 117.5v510h41v-511q0 -65 -17.5 -109t-51 -70t-82 -37.5t-110.5 -11.5zM171 817q1 36 14.5 56t34.5 29t41 9q24 0 44.5 -10.5t40 -24t38 -24
t38.5 -10.5q30 0 50.5 17.5t20.5 52.5h22q0 -43 -24.5 -69t-68.5 -26q-22 0 -42 10.5t-39.5 24t-39 24t-40.5 10.5q-26 0 -47 -16t-21 -53h-22z" />
    <glyph glyph-name="utilde" unicode="&#x169;" horiz-adv-x="584" 
d="M249 -6q-78 0 -120.5 38t-42.5 127v373h41v-367q0 -79 35.5 -106.5t101.5 -27.5q57 0 101.5 14.5t94.5 42.5v444h41v-532h-29l-12 61q-42 -27 -96.5 -47t-114.5 -20zM125 657q1 36 14.5 56t34.5 29t41 9q24 0 44.5 -10.5t40 -24t38 -24t38.5 -10.5q30 0 50.5 17.5
t20.5 52.5h22q0 -43 -24.5 -69t-68.5 -26q-22 0 -42 10.5t-39.5 24t-39 24t-40.5 10.5q-26 0 -47 -16t-21 -53h-22z" />
    <glyph glyph-name="Umacron" unicode="&#x16a;" horiz-adv-x="670" 
d="M335 -6q-62 0 -110.5 11.5t-82 37.5t-50.5 70t-17 109v511h41v-510q0 -76 26 -117.5t75 -58t118 -16.5t118.5 16.5t75.5 58t26 117.5v510h41v-511q0 -65 -17.5 -109t-51 -70t-82 -37.5t-110.5 -11.5zM199 845v25h256v-25h-256z" />
    <glyph glyph-name="umacron" unicode="&#x16b;" horiz-adv-x="584" 
d="M249 -6q-78 0 -120.5 38t-42.5 127v373h41v-367q0 -79 35.5 -106.5t101.5 -27.5q57 0 101.5 14.5t94.5 42.5v444h41v-532h-29l-12 61q-42 -27 -96.5 -47t-114.5 -20zM153 685v25h256v-25h-256z" />
    <glyph glyph-name="Ubreve" unicode="&#x16c;" horiz-adv-x="670" 
d="M335 -6q-62 0 -110.5 11.5t-82 37.5t-50.5 70t-17 109v511h41v-510q0 -76 26 -117.5t75 -58t118 -16.5t118.5 16.5t75.5 58t26 117.5v510h41v-511q0 -65 -17.5 -109t-51 -70t-82 -37.5t-110.5 -11.5zM327 792q-32 0 -60.5 12t-47 42t-18.5 82h21q0 -63 31 -89.5t74 -25.5
q47 1 76.5 26t29.5 89h22q0 -54 -19 -83.5t-48 -41t-61 -11.5z" />
    <glyph glyph-name="ubreve" unicode="&#x16d;" horiz-adv-x="584" 
d="M249 -6q-78 0 -120.5 38t-42.5 127v373h41v-367q0 -79 35.5 -106.5t101.5 -27.5q57 0 101.5 14.5t94.5 42.5v444h41v-532h-29l-12 61q-42 -27 -96.5 -47t-114.5 -20zM275 632q-32 0 -60.5 12t-47 42t-18.5 82h21q0 -63 31 -89.5t74 -25.5q47 1 76.5 26t29.5 89h22
q0 -54 -19 -83.5t-48 -41t-61 -11.5z" />
    <glyph glyph-name="Uring" unicode="&#x16e;" horiz-adv-x="670" 
d="M335 -6q-62 0 -110.5 11.5t-82 37.5t-50.5 70t-17 109v511h41v-510q0 -76 26 -117.5t75 -58t118 -16.5t118.5 16.5t75.5 58t26 117.5v510h41v-511q0 -65 -17.5 -109t-51 -70t-82 -37.5t-110.5 -11.5zM334 761q-50 0 -77.5 22.5t-27.5 81.5q0 58 27.5 81t77.5 23
q51 0 77 -23t26 -81q0 -59 -25.5 -81.5t-77.5 -22.5zM334 782q42 0 61 17t19 66q0 48 -19 65.5t-61 17.5q-41 0 -61.5 -17.5t-20.5 -65.5q0 -49 20.5 -66t61.5 -17z" />
    <glyph glyph-name="uring" unicode="&#x16f;" horiz-adv-x="584" 
d="M249 -6q-78 0 -120.5 38t-42.5 127v373h41v-367q0 -79 35.5 -106.5t101.5 -27.5q57 0 101.5 14.5t94.5 42.5v444h41v-532h-29l-12 61q-42 -27 -96.5 -47t-114.5 -20zM282 598q-50 0 -77.5 22.5t-27.5 81.5q0 58 27.5 81t77.5 23q51 0 77 -23t26 -81q0 -59 -25.5 -81.5
t-77.5 -22.5zM282 619q42 0 61 17t19 66q0 48 -19 65.5t-61 17.5q-41 0 -61.5 -17.5t-20.5 -65.5q0 -49 20.5 -66t61.5 -17z" />
    <glyph glyph-name="Uhungarumlaut" unicode="&#x170;" horiz-adv-x="670" 
d="M335 -6q-62 0 -110.5 11.5t-82 37.5t-50.5 70t-17 109v511h41v-510q0 -76 26 -117.5t75 -58t118 -16.5t118.5 16.5t75.5 58t26 117.5v510h41v-511q0 -65 -17.5 -109t-51 -70t-82 -37.5t-110.5 -11.5zM368 791l115 134h37l-128 -134h-24zM225 791l115 134h38l-129 -134
h-24z" />
    <glyph glyph-name="uhungarumlaut" unicode="&#x171;" horiz-adv-x="584" 
d="M249 -6q-78 0 -120.5 38t-42.5 127v373h41v-367q0 -79 35.5 -106.5t101.5 -27.5q57 0 101.5 14.5t94.5 42.5v444h41v-532h-29l-12 61q-42 -27 -96.5 -47t-114.5 -20zM316 631l115 134h37l-128 -134h-24zM173 631l115 134h38l-129 -134h-24z" />
    <glyph glyph-name="Uogonek" unicode="&#x172;" horiz-adv-x="670" 
d="M335 -6q-62 0 -110.5 11.5t-82 37.5t-50.5 70t-17 109v511h41v-510q0 -76 26 -117.5t75 -58t118 -16.5t118.5 16.5t75.5 58t26 117.5v510h41v-511q0 -65 -17.5 -109t-51 -70t-82 -37.5t-110.5 -11.5zM426 -183q-31 0 -55 10.5t-37 30.5t-13 46t19 51.5t61 44.5h18
q-35 -18 -53.5 -40.5t-18.5 -47.5q0 -34 24.5 -53t71.5 -19h6v-22q-6 -1 -11.5 -1h-11.5z" />
    <glyph glyph-name="uogonek" unicode="&#x173;" horiz-adv-x="584" 
d="M249 -6q-78 0 -120.5 38t-42.5 127v373h41v-367q0 -79 35.5 -106.5t101.5 -27.5q57 0 101.5 14.5t94.5 42.5v444h41v-532h-29l-12 61q-42 -27 -96.5 -47t-114.5 -20zM508 -183q-31 0 -55 10.5t-37 30.5t-13 46t19 51.5t61 44.5h18q-35 -18 -53.5 -40.5t-18.5 -47.5
q0 -34 24.5 -53t71.5 -19h6v-22q-6 -1 -11.5 -1h-11.5z" />
    <glyph glyph-name="Wcircumflex" unicode="&#x174;" horiz-adv-x="991" 
d="M239 0l-195 733h42l180 -685l206 685h48l205 -685l181 685h41l-195 -733h-50l-206 683l-207 -683h-50zM354 791l129 132h31l117 -132h-27l-106 110l-117 -110h-27z" />
    <glyph glyph-name="wcircumflex" unicode="&#x175;" horiz-adv-x="781" 
d="M196 0l-174 532h42l156 -493l152 493h39l151 -493l155 493h42l-173 -532h-45l-150 483l-151 -483h-44zM252 631l129 132h31l117 -132h-27l-106 110l-117 -110h-27z" />
    <glyph glyph-name="Ycircumflex" unicode="&#x176;" horiz-adv-x="612" 
d="M286 0v255l-240 478h43l218 -437l217 437h43l-240 -478v-255h-41zM165 791l129 132h31l117 -132h-27l-106 110l-117 -110h-27z" />
    <glyph glyph-name="ycircumflex" unicode="&#x177;" horiz-adv-x="526" 
d="M216 -237l74 237q-15 1 -38 9t-46 32t-40 74l-144 417h44l139 -408q13 -36 28.5 -54t31 -25t25.5 -7h10l161 494h42l-214 -670l-46 -99h-27zM120 631l129 132h31l117 -132h-27l-106 110l-117 -110h-27z" />
    <glyph glyph-name="Ydieresis" unicode="&#x178;" horiz-adv-x="612" 
d="M286 0v255l-240 478h43l218 -437l217 437h43l-240 -478v-255h-41zM414 822q-14 0 -14 13v67q0 13 14 13h18q7 0 10 -3.5t3 -9.5v-67q0 -13 -13 -13h-18zM165 822q-13 0 -13 13v67q0 13 13 13h19q7 0 10 -3.5t3 -9.5v-67q0 -13 -13 -13h-19z" />
    <glyph glyph-name="Zacute" unicode="&#x179;" horiz-adv-x="552" 
d="M46 0v35l418 661h-418v37h468v-35l-419 -661h419v-37h-468zM267 791l116 134h39l-131 -134h-24z" />
    <glyph glyph-name="zacute" unicode="&#x17a;" horiz-adv-x="489" 
d="M55 0v34l337 463h-344v35h393v-34l-340 -463h340v-35h-386zM205 631l116 134h39l-131 -134h-24z" />
    <glyph glyph-name="Zdotaccent" unicode="&#x17b;" horiz-adv-x="552" 
d="M46 0v35l418 661h-418v37h468v-35l-419 -661h419v-37h-468zM266 829q-13 0 -13 13v67q0 13 13 13h19q6 0 9.5 -3.5t3.5 -9.5v-67q0 -13 -13 -13h-19z" />
    <glyph glyph-name="zdotaccent" unicode="&#x17c;" horiz-adv-x="489" 
d="M55 0v34l337 463h-344v35h393v-34l-340 -463h340v-35h-386zM222 669q-13 0 -13 13v67q0 13 13 13h19q6 0 9.5 -3.5t3.5 -9.5v-67q0 -13 -13 -13h-19z" />
    <glyph glyph-name="Zcaron" unicode="&#x17d;" horiz-adv-x="552" 
d="M46 0v35l418 661h-418v37h468v-35l-419 -661h419v-37h-468zM260 791l-117 132h27l106 -110l117 110h27l-129 -132h-31z" />
    <glyph glyph-name="zcaron" unicode="&#x17e;" horiz-adv-x="489" 
d="M55 0v34l337 463h-344v35h393v-34l-340 -463h340v-35h-386zM216 631l-117 132h27l106 -110l117 110h27l-129 -132h-31z" />
    <glyph glyph-name="uni018F" unicode="&#x18f;" horiz-adv-x="603" 
d="M300 -6q-81 0 -131 33.5t-73 108.5t-23 200v36h421q0 102 -11 166.5t-38 100.5t-74 49.5t-119 13.5q-59 0 -95.5 -5t-58.5 -8v29q32 8 75.5 14.5t96.5 6.5q71 0 121 -14.5t82.5 -53.5t47.5 -111.5t15 -187.5q0 -113 -16 -187t-47 -115.5t-74.5 -58.5t-98.5 -17zM297 31
q47 0 83 13t61.5 47t38.5 93.5t13 152.5h-380q0 -113 16.5 -180t57 -96.5t110.5 -29.5z" />
    <glyph glyph-name="florin" unicode="&#x192;" horiz-adv-x="609" 
d="M104 -204q-21 0 -43 2t-36 6l5 26h72q38 0 64.5 22.5t45.5 78t34 152.5l54 333h-100l5 34h99l19 114q14 86 33 138t50 74t83 22q36 0 56 -3t30 -5l-5 -26h-74q-40 0 -65.5 -19t-40 -62.5t-26.5 -119.5l-19 -113h139l-5 -34h-139l-52 -328q-17 -107 -39 -171t-56 -92.5
t-89 -28.5z" />
    <glyph glyph-name="Ohorn" unicode="&#x1a0;" horiz-adv-x="679" 
d="M380 708v25h128q35 0 58.5 25.5t23.5 89.5h33q0 -55 -16.5 -85.5t-42 -42.5t-53.5 -12h-131zM340 -6q-69 0 -120 13t-85.5 50t-51 110.5t-16.5 194.5q0 122 17 196.5t51.5 113.5t85.5 53t119 14q70 0 121 -14t85 -53t50.5 -113.5t16.5 -196.5q0 -121 -17 -194.5
t-51 -110.5t-85 -50t-120 -13zM340 31q61 0 105.5 12t72 46t41 99.5t13.5 173.5q0 114 -14 182t-41.5 102t-71.5 45t-105 11q-57 0 -100.5 -11t-73 -45t-44 -102t-14.5 -182q0 -108 12 -173.5t39.5 -99.5t72 -46t108.5 -12z" />
    <glyph glyph-name="ohorn" unicode="&#x1a1;" horiz-adv-x="578" 
d="M288 -6q-53 0 -94.5 11t-70 40t-43 83t-14.5 138q0 86 14.5 139.5t43 82.5t70 39.5t94.5 10.5t95 -11t70.5 -39.5t43.5 -82t15 -139.5q0 -85 -15 -139t-43.5 -82.5t-70.5 -39.5t-95 -11zM288 29q43 0 77 8t57.5 32.5t36 72t12.5 125.5q0 79 -12.5 126t-36 70.5
t-57.5 31.5t-77 8t-77 -8t-57 -31.5t-35 -70.5t-12 -126q0 -78 12 -125.5t35 -72t57 -32.5t77 -8zM328 507v25h101q35 0 58.5 25t23.5 90h33q0 -55 -16.5 -85.5t-42 -42.5t-53.5 -12h-104z" />
    <glyph glyph-name="Uhorn" unicode="&#x1af;" horiz-adv-x="670" 
d="M560 708v25h22q35 0 58.5 25.5t23.5 89.5h33q0 -55 -16.5 -85.5t-42 -42.5t-53.5 -12h-25zM335 -6q-62 0 -110.5 11.5t-82 37.5t-50.5 70t-17 109v511h41v-510q0 -76 26 -117.5t75 -58t118 -16.5t118.5 16.5t75.5 58t26 117.5v510h41v-511q0 -65 -17.5 -109t-51 -70
t-82 -37.5t-110.5 -11.5z" />
    <glyph glyph-name="uhorn" unicode="&#x1b0;" horiz-adv-x="584" 
d="M471 507v25h13q36 0 59.5 25t23.5 90h32q0 -55 -16 -85.5t-42 -42.5t-53 -12h-17zM249 -6q-78 0 -120.5 38t-42.5 127v373h41v-367q0 -79 35.5 -106.5t101.5 -27.5q57 0 101.5 14.5t94.5 42.5v444h41v-532h-29l-12 61q-42 -27 -96.5 -47t-114.5 -20z" />
    <glyph glyph-name="Gcaron" unicode="&#x1e6;" horiz-adv-x="645" 
d="M308 -5q-71 -1 -117.5 19t-74 64.5t-38.5 116.5t-11 175q0 96 11.5 166t38 115t72.5 66.5t113 21.5q32 0 74 -2.5t83 -7.5t74 -11v-30q-20 2 -57 5.5t-81.5 6t-88.5 2.5q-77 0 -120 -34t-60.5 -107.5t-17.5 -192.5q0 -96 9.5 -160.5t32 -103t62.5 -55t102 -16.5
q52 0 108 15t98 32v258h-203v27q19 3 44.5 5t55.5 3.5t62 1.5q23 0 44.5 -0.5t37.5 -3.5v-371h-29l-8 53q-40 -19 -97 -38t-119 -20zM313 791l-117 132h27l106 -110l117 110h27l-129 -132h-31z" />
    <glyph glyph-name="gcaron" unicode="&#x1e7;" horiz-adv-x="572" 
d="M213 -244q-52 0 -91.5 14.5t-62 44.5t-22.5 76v28q0 48 26 79t65 46t79 15l6 -24q-35 0 -66 -11t-51.5 -36t-20.5 -65v-28q0 -59 39.5 -82.5t104.5 -23.5h135q73 0 114.5 28t41.5 87v23q0 33 -12.5 57t-43 37.5t-87.5 13.5h-184q-46 0 -75.5 22.5t-29.5 61.5t24 60t68 29
q-41 14 -63 40t-30.5 56.5t-8.5 59.5q0 63 26 100.5t70.5 53.5t99.5 16h284v-25l-142 -8q15 -8 35 -22.5t34.5 -44.5t14.5 -83q0 -39 -16.5 -76t-57 -61.5t-112.5 -24.5h-80q-51 0 -79.5 -14.5t-28.5 -52.5q0 -28 20 -40.5t41 -12.5h194q61 0 100.5 -16t58 -46.5t18.5 -75.5
v-26q0 -70 -49 -109.5t-143 -39.5h-143zM238 223h62q62 0 94.5 19t44.5 48.5t12 62.5q0 54 -18.5 86.5t-49.5 46t-72 13.5h-57q-68 0 -107.5 -30.5t-39.5 -106.5q0 -73 35.5 -106t95.5 -33zM272 631l-117 132h27l106 -110l117 110h27l-129 -132h-31z" />
    <glyph glyph-name="uni01EA" unicode="&#x1ea;" horiz-adv-x="679" 
d="M340 -6q-69 0 -120 13t-85.5 50t-51 110.5t-16.5 194.5q0 122 17 196.5t51.5 113.5t85.5 53t119 14q70 0 121 -14t85 -53t50.5 -113.5t16.5 -196.5q0 -121 -17 -194.5t-51 -110.5t-85 -50t-120 -13zM340 31q61 0 105.5 12t72 46t41 99.5t13.5 173.5q0 114 -14 182
t-41.5 102t-71.5 45t-105 11q-57 0 -100.5 -11t-73 -45t-44 -102t-14.5 -182q0 -108 12 -173.5t39.5 -99.5t72 -46t108.5 -12zM417 -183q-31 0 -55 10.5t-37 30.5t-13 46t19 51.5t61 44.5h18q-35 -18 -53.5 -40.5t-18.5 -47.5q0 -34 24.5 -53t71.5 -19h6v-22q-6 -1 -11.5 -1
h-11.5z" />
    <glyph glyph-name="uni01EB" unicode="&#x1eb;" horiz-adv-x="578" 
d="M288 -6q-53 0 -94.5 11t-70 40t-43 83t-14.5 138q0 86 14.5 139.5t43 82.5t70 39.5t94.5 10.5t95 -11t70.5 -39.5t43.5 -82t15 -139.5q0 -85 -15 -139t-43.5 -82.5t-70.5 -39.5t-95 -11zM288 29q43 0 77 8t57.5 32.5t36 72t12.5 125.5q0 79 -12.5 126t-36 70.5
t-57.5 31.5t-77 8t-77 -8t-57 -31.5t-35 -70.5t-12 -126q0 -78 12 -125.5t35 -72t57 -32.5t77 -8zM342 -183q-31 0 -55 10.5t-37 30.5t-13 46t19 51.5t61 44.5h18q-35 -18 -53.5 -40.5t-18.5 -47.5q0 -34 24.5 -53t71.5 -19h6v-22q-6 -1 -11.5 -1h-11.5z" />
    <glyph glyph-name="Aringacute" unicode="&#x1fa;" horiz-adv-x="669" 
d="M44 0l263 733h55l263 -733h-44l-87 241h-320l-87 -241h-43zM184 278h297l-147 417zM334 761q-50 0 -77.5 22.5t-27.5 81.5q0 58 27.5 81t77.5 23q51 0 77 -23t26 -81q0 -59 -25.5 -81.5t-77.5 -22.5zM334 782q42 0 61 17t19 66q0 48 -19 65.5t-61 17.5q-41 0 -61.5 -17.5
t-20.5 -65.5q0 -49 20.5 -66t61.5 -17zM325 957l116 134h39l-131 -134h-24z" />
    <glyph glyph-name="aringacute" unicode="&#x1fb;" horiz-adv-x="541" 
d="M185 -6q-58 0 -96 34.5t-38 97.5v34q0 63 41 102t121 39h205v82q0 38 -13 65.5t-45 43t-92 15.5h-169v25q33 3 77 5.5t101 3.5q65 1 105 -16.5t58.5 -52.5t18.5 -88v-384h-30l-10 63q-2 -1 -24.5 -11.5t-58 -24t-75.5 -23.5t-76 -10zM195 29q22 -1 51 5t59 14t55.5 17
t41.5 15l16 6v191l-204 -6q-67 -3 -94.5 -34t-27.5 -77v-26q0 -39 16 -62.5t40 -32.5t47 -10zM270 598q-50 0 -77.5 22.5t-27.5 81.5q0 58 27.5 81t77.5 23q51 0 77 -23t26 -81q0 -59 -25.5 -81.5t-77.5 -22.5zM270 619q42 0 61 17t19 66q0 48 -19 65.5t-61 17.5
q-41 0 -61.5 -17.5t-20.5 -65.5q0 -49 20.5 -66t61.5 -17zM253 791l116 134h39l-131 -134h-24z" />
    <glyph glyph-name="AEacute" unicode="&#x1fc;" horiz-adv-x="954" 
d="M627 -3q-65 -1 -102.5 26t-38.5 97v120h-250l-150 -240h-42l387 630q20 32 43 55.5t55.5 36t75.5 11.5q73 -1 144.5 -3t139.5 -4v-31h-286q-44 0 -61.5 -17t-17.5 -55v-241l324 -3v-30l-324 -4v-212q0 -35 12.5 -56.5t36.5 -31.5t58 -10h258v-31q-64 -2 -129 -3.5
t-133 -3.5zM256 276h230v368zM520 791l116 134h39l-131 -134h-24z" />
    <glyph glyph-name="aeacute" unicode="&#x1fd;" horiz-adv-x="898" 
d="M186 -6q-43 0 -73 16t-45.5 46.5t-15.5 73.5v28q0 42 18 72.5t53.5 47t84.5 16.5h210v89q0 34 -12.5 62t-43.5 45t-88 17h-174v25q34 4 73 6t104 3q59 1 106 -24.5t62 -82.5q19 61 67 82.5t115 21.5q68 0 113 -15.5t68 -52.5t23 -103q0 -63 -37.5 -84t-105.5 -21h-229
q-1 -72 13.5 -118t40 -71.5t59.5 -35t74 -9.5h172v-26q-44 -4 -93.5 -6t-88.5 -2q-61 0 -99 18t-59.5 45.5t-35.5 55.5q-28 -31 -68 -58t-87.5 -44t-100.5 -17zM195 29q63 0 126 29t112 82q-4 17 -9 49t-6 76l-206 -1q-67 -1 -93 -31.5t-26 -74.5v-24q0 -39 14.5 -62.5
t38 -33t49.5 -9.5zM459 293h228q30 0 53.5 4.5t37.5 20t14 50.5q0 48 -15 78t-51 44t-100 14t-100.5 -16.5t-51 -61.5t-15.5 -133zM418 631l116 134h39l-131 -134h-24z" />
    <glyph glyph-name="Oslashacute" unicode="&#x1fe;" horiz-adv-x="679" 
d="M81 0l482 733h35l-482 -733h-35zM340 -6q-69 0 -120 13t-85.5 50t-51 110.5t-16.5 194.5q0 122 17 196.5t51.5 113.5t85.5 53t119 14q70 0 121 -14t85 -53t50.5 -113.5t16.5 -196.5q0 -121 -17 -194.5t-51 -110.5t-85 -50t-120 -13zM340 31q61 0 105.5 12t72 46t41 99.5
t13.5 173.5q0 114 -14 182t-41.5 102t-71.5 45t-105 11q-57 0 -100.5 -11t-73 -45t-44 -102t-14.5 -182q0 -108 12 -173.5t39.5 -99.5t72 -46t108.5 -12zM331 791l116 134h39l-131 -134h-24z" />
    <glyph glyph-name="oslashacute" unicode="&#x1ff;" horiz-adv-x="578" 
d="M64 0l421 532h28l-420 -532h-29zM288 -6q-53 0 -94.5 11t-70 40t-43 83t-14.5 138q0 86 14.5 139.5t43 82.5t70 39.5t94.5 10.5t95 -11t70.5 -39.5t43.5 -82t15 -139.5q0 -85 -15 -139t-43.5 -82.5t-70.5 -39.5t-95 -11zM288 29q43 0 77 8t57.5 32.5t36 72t12.5 125.5
q0 79 -12.5 126t-36 70.5t-57.5 31.5t-77 8t-77 -8t-57 -31.5t-35 -70.5t-12 -126q0 -78 12 -125.5t35 -72t57 -32.5t77 -8zM261 631l116 134h39l-131 -134h-24z" />
    <glyph glyph-name="uni0200" unicode="&#x200;" horiz-adv-x="669" 
d="M44 0l263 733h55l263 -733h-44l-87 241h-320l-87 -241h-43zM184 278h297l-147 417zM402 791l-131 134h39l116 -134h-24zM274 791l-131 134h39l116 -134h-24z" />
    <glyph glyph-name="uni0201" unicode="&#x201;" horiz-adv-x="541" 
d="M185 -6q-58 0 -96 34.5t-38 97.5v34q0 63 41 102t121 39h205v82q0 38 -13 65.5t-45 43t-92 15.5h-169v25q33 3 77 5.5t101 3.5q65 1 105 -16.5t58.5 -52.5t18.5 -88v-384h-30l-10 63q-2 -1 -24.5 -11.5t-58 -24t-75.5 -23.5t-76 -10zM195 29q22 -1 51 5t59 14t55.5 17
t41.5 15l16 6v191l-204 -6q-67 -3 -94.5 -34t-27.5 -77v-26q0 -39 16 -62.5t40 -32.5t47 -10zM343 631l-130 134h39l115 -134h-24zM215 631l-130 134h39l115 -134h-24z" />
    <glyph glyph-name="uni0202" unicode="&#x202;" horiz-adv-x="669" 
d="M44 0l263 733h55l263 -733h-44l-87 241h-320l-87 -241h-43zM184 278h297l-147 417zM330 928q32 0 60.5 -12t47 -42t18.5 -82h-21q0 63 -31 89.5t-74 25.5q-47 -1 -76.5 -26t-29.5 -89h-22q0 54 19 83.5t48 41t61 11.5z" />
    <glyph glyph-name="uni0203" unicode="&#x203;" horiz-adv-x="541" 
d="M185 -6q-58 0 -96 34.5t-38 97.5v34q0 63 41 102t121 39h205v82q0 38 -13 65.5t-45 43t-92 15.5h-169v25q33 3 77 5.5t101 3.5q65 1 105 -16.5t58.5 -52.5t18.5 -88v-384h-30l-10 63q-2 -1 -24.5 -11.5t-58 -24t-75.5 -23.5t-76 -10zM195 29q22 -1 51 5t59 14t55.5 17
t41.5 15l16 6v191l-204 -6q-67 -3 -94.5 -34t-27.5 -77v-26q0 -39 16 -62.5t40 -32.5t47 -10zM266 768q32 0 60.5 -12t47 -42t18.5 -82h-21q0 63 -31 89.5t-74 25.5q-47 -1 -76.5 -26t-29.5 -89h-22q0 54 19 83.5t48 41t61 11.5z" />
    <glyph glyph-name="uni0204" unicode="&#x204;" horiz-adv-x="581" 
d="M228 -3q-25 0 -50 4t-46 17t-34 39.5t-13 70.5v470q0 38 11 64.5t30 42t42.5 22t48.5 6.5q53 -1 103.5 -2t99.5 -2.5t97 -2.5v-31h-294q-44 0 -70.5 -24t-26.5 -77v-212l350 -3v-30l-350 -4v-212q0 -44 15 -65t39.5 -27t50.5 -6h286v-31q-47 -2 -95.5 -3l-97 -2t-96.5 -2
zM378 791l-131 134h39l116 -134h-24zM250 791l-131 134h39l116 -134h-24z" />
    <glyph glyph-name="uni0205" unicode="&#x205;" horiz-adv-x="543" 
d="M279 -6q-81 0 -128 26t-66 85.5t-19 162.5q0 105 21 163.5t68.5 82.5t126.5 24q66 0 109 -15.5t64.5 -53t21.5 -103.5q0 -43 -17 -69.5t-48.5 -38.5t-75.5 -12h-229q0 -80 14.5 -127.5t53 -69t111.5 -21.5h180v-26q-49 -4 -91.5 -6t-95.5 -2zM107 277h227q53 0 79 19
t26 70q0 54 -15.5 84t-50 42.5t-91.5 12.5q-68 0 -106.5 -19.5t-53.5 -69t-15 -139.5zM343 631l-130 134h39l115 -134h-24zM215 631l-130 134h39l115 -134h-24z" />
    <glyph glyph-name="uni0206" unicode="&#x206;" horiz-adv-x="581" 
d="M228 -3q-25 0 -50 4t-46 17t-34 39.5t-13 70.5v470q0 38 11 64.5t30 42t42.5 22t48.5 6.5q53 -1 103.5 -2t99.5 -2.5t97 -2.5v-31h-294q-44 0 -70.5 -24t-26.5 -77v-212l350 -3v-30l-350 -4v-212q0 -44 15 -65t39.5 -27t50.5 -6h286v-31q-47 -2 -95.5 -3l-97 -2t-96.5 -2
zM306 928q32 0 60.5 -12t47 -42t18.5 -82h-21q0 63 -31 89.5t-74 25.5q-47 -1 -76.5 -26t-29.5 -89h-22q0 54 19 83.5t48 41t61 11.5z" />
    <glyph glyph-name="uni0207" unicode="&#x207;" horiz-adv-x="543" 
d="M279 -6q-81 0 -128 26t-66 85.5t-19 162.5q0 105 21 163.5t68.5 82.5t126.5 24q66 0 109 -15.5t64.5 -53t21.5 -103.5q0 -43 -17 -69.5t-48.5 -38.5t-75.5 -12h-229q0 -80 14.5 -127.5t53 -69t111.5 -21.5h180v-26q-49 -4 -91.5 -6t-95.5 -2zM107 277h227q53 0 79 19
t26 70q0 54 -15.5 84t-50 42.5t-91.5 12.5q-68 0 -106.5 -19.5t-53.5 -69t-15 -139.5zM266 768q32 0 60.5 -12t47 -42t18.5 -82h-21q0 63 -31 89.5t-74 25.5q-47 -1 -76.5 -26t-29.5 -89h-22q0 54 19 83.5t48 41t61 11.5z" />
    <glyph glyph-name="uni0208" unicode="&#x208;" horiz-adv-x="210" 
d="M85 0v733h41v-733h-41zM173 791l-131 134h39l116 -134h-24zM45 791l-131 134h39l116 -134h-24z" />
    <glyph glyph-name="uni0209" unicode="&#x209;" horiz-adv-x="210" 
d="M86 0v532h41v-532h-41zM180 631l-130 134h39l115 -134h-24zM52 631l-130 134h39l115 -134h-24z" />
    <glyph glyph-name="uni020A" unicode="&#x20a;" horiz-adv-x="210" 
d="M85 0v733h41v-733h-41zM101 928q32 0 60.5 -12t47 -42t18.5 -82h-21q0 63 -31 89.5t-74 25.5q-47 -1 -76.5 -26t-29.5 -89h-22q0 54 19 83.5t48 41t61 11.5z" />
    <glyph glyph-name="uni020B" unicode="&#x20b;" horiz-adv-x="210" 
d="M86 0v532h41v-532h-41zM103 768q32 0 60.5 -12t47 -42t18.5 -82h-21q0 63 -31 89.5t-74 25.5q-47 -1 -76.5 -26t-29.5 -89h-22q0 54 19 83.5t48 41t61 11.5z" />
    <glyph glyph-name="uni020C" unicode="&#x20c;" horiz-adv-x="679" 
d="M340 -6q-69 0 -120 13t-85.5 50t-51 110.5t-16.5 194.5q0 122 17 196.5t51.5 113.5t85.5 53t119 14q70 0 121 -14t85 -53t50.5 -113.5t16.5 -196.5q0 -121 -17 -194.5t-51 -110.5t-85 -50t-120 -13zM340 31q61 0 105.5 12t72 46t41 99.5t13.5 173.5q0 114 -14 182
t-41.5 102t-71.5 45t-105 11q-57 0 -100.5 -11t-73 -45t-44 -102t-14.5 -182q0 -108 12 -173.5t39.5 -99.5t72 -46t108.5 -12zM408 791l-131 134h39l116 -134h-24zM280 791l-131 134h39l116 -134h-24z" />
    <glyph glyph-name="uni020D" unicode="&#x20d;" horiz-adv-x="578" 
d="M288 -6q-53 0 -94.5 11t-70 40t-43 83t-14.5 138q0 86 14.5 139.5t43 82.5t70 39.5t94.5 10.5t95 -11t70.5 -39.5t43.5 -82t15 -139.5q0 -85 -15 -139t-43.5 -82.5t-70.5 -39.5t-95 -11zM288 29q43 0 77 8t57.5 32.5t36 72t12.5 125.5q0 79 -12.5 126t-36 70.5
t-57.5 31.5t-77 8t-77 -8t-57 -31.5t-35 -70.5t-12 -126q0 -78 12 -125.5t35 -72t57 -32.5t77 -8zM361 631l-130 134h39l115 -134h-24zM233 631l-130 134h39l115 -134h-24z" />
    <glyph glyph-name="uni020E" unicode="&#x20e;" horiz-adv-x="679" 
d="M340 -6q-69 0 -120 13t-85.5 50t-51 110.5t-16.5 194.5q0 122 17 196.5t51.5 113.5t85.5 53t119 14q70 0 121 -14t85 -53t50.5 -113.5t16.5 -196.5q0 -121 -17 -194.5t-51 -110.5t-85 -50t-120 -13zM340 31q61 0 105.5 12t72 46t41 99.5t13.5 173.5q0 114 -14 182
t-41.5 102t-71.5 45t-105 11q-57 0 -100.5 -11t-73 -45t-44 -102t-14.5 -182q0 -108 12 -173.5t39.5 -99.5t72 -46t108.5 -12zM336 928q32 0 60.5 -12t47 -42t18.5 -82h-21q0 63 -31 89.5t-74 25.5q-47 -1 -76.5 -26t-29.5 -89h-22q0 54 19 83.5t48 41t61 11.5z" />
    <glyph glyph-name="uni020F" unicode="&#x20f;" horiz-adv-x="578" 
d="M288 -6q-53 0 -94.5 11t-70 40t-43 83t-14.5 138q0 86 14.5 139.5t43 82.5t70 39.5t94.5 10.5t95 -11t70.5 -39.5t43.5 -82t15 -139.5q0 -85 -15 -139t-43.5 -82.5t-70.5 -39.5t-95 -11zM288 29q43 0 77 8t57.5 32.5t36 72t12.5 125.5q0 79 -12.5 126t-36 70.5
t-57.5 31.5t-77 8t-77 -8t-57 -31.5t-35 -70.5t-12 -126q0 -78 12 -125.5t35 -72t57 -32.5t77 -8zM284 768q32 0 60.5 -12t47 -42t18.5 -82h-21q0 63 -31 89.5t-74 25.5q-47 -1 -76.5 -26t-29.5 -89h-22q0 54 19 83.5t48 41t61 11.5z" />
    <glyph glyph-name="uni0210" unicode="&#x210;" horiz-adv-x="597" 
d="M85 0v733h280q32 0 63.5 -7t58 -28t43 -61.5t16.5 -108.5q0 -65 -15 -105t-38.5 -62t-50 -30.5t-50.5 -10.5l158 -320h-41l-156 316q-19 0 -48 1t-62 1.5t-64 1.5t-53 2v-322h-41zM126 351h235q29 0 54.5 6.5t45.5 25t32 53.5t12 92q0 54 -12.5 87t-32.5 50.5t-45.5 24
t-53.5 6.5h-235v-345zM358 791l-131 134h39l116 -134h-24zM230 791l-131 134h39l116 -134h-24z" />
    <glyph glyph-name="uni0211" unicode="&#x211;" horiz-adv-x="407" 
d="M86 0v532h30l11 -99q40 46 89 75.5t112 29.5q15 0 28 -1.5t24 -4.5v-41q-11 2 -25 3.5t-30 1.5q-41 0 -72.5 -10.5t-61.5 -31.5t-64 -51v-403h-41zM276 631l-130 134h39l115 -134h-24zM148 631l-130 134h39l115 -134h-24z" />
    <glyph glyph-name="uni0212" unicode="&#x212;" horiz-adv-x="597" 
d="M85 0v733h280q32 0 63.5 -7t58 -28t43 -61.5t16.5 -108.5q0 -65 -15 -105t-38.5 -62t-50 -30.5t-50.5 -10.5l158 -320h-41l-156 316q-19 0 -48 1t-62 1.5t-64 1.5t-53 2v-322h-41zM126 351h235q29 0 54.5 6.5t45.5 25t32 53.5t12 92q0 54 -12.5 87t-32.5 50.5t-45.5 24
t-53.5 6.5h-235v-345zM286 928q32 0 60.5 -12t47 -42t18.5 -82h-21q0 63 -31 89.5t-74 25.5q-47 -1 -76.5 -26t-29.5 -89h-22q0 54 19 83.5t48 41t61 11.5z" />
    <glyph glyph-name="uni0213" unicode="&#x213;" horiz-adv-x="407" 
d="M86 0v532h30l11 -99q40 46 89 75.5t112 29.5q15 0 28 -1.5t24 -4.5v-41q-11 2 -25 3.5t-30 1.5q-41 0 -72.5 -10.5t-61.5 -31.5t-64 -51v-403h-41zM199 768q32 0 60.5 -12t47 -42t18.5 -82h-21q0 63 -31 89.5t-74 25.5q-47 -1 -76.5 -26t-29.5 -89h-22q0 54 19 83.5
t48 41t61 11.5z" />
    <glyph glyph-name="uni0214" unicode="&#x214;" horiz-adv-x="670" 
d="M335 -6q-62 0 -110.5 11.5t-82 37.5t-50.5 70t-17 109v511h41v-510q0 -76 26 -117.5t75 -58t118 -16.5t118.5 16.5t75.5 58t26 117.5v510h41v-511q0 -65 -17.5 -109t-51 -70t-82 -37.5t-110.5 -11.5zM402 791l-131 134h39l116 -134h-24zM274 791l-131 134h39l116 -134
h-24z" />
    <glyph glyph-name="uni0215" unicode="&#x215;" horiz-adv-x="584" 
d="M249 -6q-78 0 -120.5 38t-42.5 127v373h41v-367q0 -79 35.5 -106.5t101.5 -27.5q57 0 101.5 14.5t94.5 42.5v444h41v-532h-29l-12 61q-42 -27 -96.5 -47t-114.5 -20zM355 631l-130 134h39l115 -134h-24zM227 631l-130 134h39l115 -134h-24z" />
    <glyph glyph-name="uni0216" unicode="&#x216;" horiz-adv-x="670" 
d="M335 -6q-62 0 -110.5 11.5t-82 37.5t-50.5 70t-17 109v511h41v-510q0 -76 26 -117.5t75 -58t118 -16.5t118.5 16.5t75.5 58t26 117.5v510h41v-511q0 -65 -17.5 -109t-51 -70t-82 -37.5t-110.5 -11.5zM330 928q32 0 60.5 -12t47 -42t18.5 -82h-21q0 63 -31 89.5t-74 25.5
q-47 -1 -76.5 -26t-29.5 -89h-22q0 54 19 83.5t48 41t61 11.5z" />
    <glyph glyph-name="uni0217" unicode="&#x217;" horiz-adv-x="584" 
d="M249 -6q-78 0 -120.5 38t-42.5 127v373h41v-367q0 -79 35.5 -106.5t101.5 -27.5q57 0 101.5 14.5t94.5 42.5v444h41v-532h-29l-12 61q-42 -27 -96.5 -47t-114.5 -20zM278 768q32 0 60.5 -12t47 -42t18.5 -82h-21q0 63 -31 89.5t-74 25.5q-47 -1 -76.5 -26t-29.5 -89h-22
q0 54 19 83.5t48 41t61 11.5z" />
    <glyph glyph-name="uni0218" unicode="&#x218;" horiz-adv-x="572" 
d="M285 -6q-18 0 -48 1t-62.5 3.5t-61 4.5t-45.5 6v29q21 -2 56 -3.5t77 -2.5t83 -1q50 0 90.5 10t65.5 38.5t25 82.5v63q0 60 -30 92t-99 32h-88q-83 0 -131.5 36t-48.5 127v45q0 102 52.5 142t147.5 40q27 0 66 -2.5t77.5 -6.5t61.5 -8v-30q-44 3 -98.5 6.5t-104.5 3.5
t-86.5 -12.5t-56 -44t-19.5 -89.5v-42q0 -73 37.5 -99t101.5 -26h91q59 0 95.5 -21t54 -57.5t17.5 -83.5v-64q0 -67 -31 -103.5t-81 -51t-108 -14.5zM199 -194v16l32 4q25 3 42.5 11t26.5 31.5t8 74.5h27q0 -50 -8 -80.5t-31 -43.5t-67 -13h-30z" />
    <glyph glyph-name="uni0219" unicode="&#x219;" horiz-adv-x="497" 
d="M264 -6q-16 0 -45.5 0.5t-62 2t-59 3t-37.5 2.5v26h208q39 0 69.5 6t48 27.5t17.5 64.5v28q0 43 -28.5 67.5t-88.5 24.5h-71q-48 0 -84 11t-55 38t-19 75v27q0 49 19 80t57.5 45.5t95.5 14.5q26 0 61.5 -1t71.5 -3t59 -6v-25h-196q-62 0 -96 -21.5t-34 -83.5v-25
q0 -38 15.5 -57.5t44 -25.5t64.5 -6h71q68 0 109.5 -32t41.5 -94v-32q0 -54 -24 -82t-64 -38.5t-89 -10.5zM155 -194v16l32 4q25 3 42.5 11t26.5 31.5t8 74.5h27q0 -50 -8 -80.5t-31 -43.5t-67 -13h-30z" />
    <glyph glyph-name="uni021A" unicode="&#x21a;" horiz-adv-x="555" 
d="M257 0v696h-241v37h523v-37h-241v-696h-41zM160 -194v16l32 4q25 3 42.5 11t26.5 31.5t8 74.5h27q0 -50 -8 -80.5t-31 -43.5t-67 -13h-30z" />
    <glyph glyph-name="uni021B" unicode="&#x21b;" horiz-adv-x="355" 
d="M248 0q-45 0 -77 16.5t-47.5 52.5t-15.5 93l3 335h-86v26l85 9l9 149h30v-149h168v-35h-168v-334q0 -42 9 -67t24 -37.5t31.5 -17.5t30.5 -6l65 -6v-29h-61zM93 -194v16l32 4q25 3 42.5 11t26.5 31.5t8 74.5h27q0 -50 -8 -80.5t-31 -43.5t-67 -13h-30z" />
    <glyph glyph-name="uni022A" unicode="&#x22a;" horiz-adv-x="679" 
d="M340 -6q-69 0 -120 13t-85.5 50t-51 110.5t-16.5 194.5q0 122 17 196.5t51.5 113.5t85.5 53t119 14q70 0 121 -14t85 -53t50.5 -113.5t16.5 -196.5q0 -121 -17 -194.5t-51 -110.5t-85 -50t-120 -13zM340 31q61 0 105.5 12t72 46t41 99.5t13.5 173.5q0 114 -14 182
t-41.5 102t-71.5 45t-105 11q-57 0 -100.5 -11t-73 -45t-44 -102t-14.5 -182q0 -108 12 -173.5t39.5 -99.5t72 -46t108.5 -12zM465 822q-14 0 -14 13v67q0 13 14 13h18q7 0 10 -3.5t3 -9.5v-67q0 -13 -13 -13h-18zM216 822q-13 0 -13 13v67q0 13 13 13h19q7 0 10 -3.5
t3 -9.5v-67q0 -13 -13 -13h-19zM223 1000v25h256v-25h-256z" />
    <glyph glyph-name="uni022B" unicode="&#x22b;" horiz-adv-x="578" 
d="M288 -6q-53 0 -94.5 11t-70 40t-43 83t-14.5 138q0 86 14.5 139.5t43 82.5t70 39.5t94.5 10.5t95 -11t70.5 -39.5t43.5 -82t15 -139.5q0 -85 -15 -139t-43.5 -82.5t-70.5 -39.5t-95 -11zM288 29q43 0 77 8t57.5 32.5t36 72t12.5 125.5q0 79 -12.5 126t-36 70.5
t-57.5 31.5t-77 8t-77 -8t-57 -31.5t-35 -70.5t-12 -126q0 -78 12 -125.5t35 -72t57 -32.5t77 -8zM376 662q-14 0 -14 13v67q0 13 14 13h18q7 0 10.5 -3.5t3.5 -9.5v-67q0 -13 -14 -13h-18zM181 662q-13 0 -13 13v67q0 13 13 13h19q7 0 10 -3.5t3 -9.5v-67q0 -13 -13 -13
h-19zM159 840v25h256v-25h-256z" />
    <glyph glyph-name="uni022C" unicode="&#x22c;" horiz-adv-x="679" 
d="M340 -6q-69 0 -120 13t-85.5 50t-51 110.5t-16.5 194.5q0 122 17 196.5t51.5 113.5t85.5 53t119 14q70 0 121 -14t85 -53t50.5 -113.5t16.5 -196.5q0 -121 -17 -194.5t-51 -110.5t-85 -50t-120 -13zM340 31q61 0 105.5 12t72 46t41 99.5t13.5 173.5q0 114 -14 182
t-41.5 102t-71.5 45t-105 11q-57 0 -100.5 -11t-73 -45t-44 -102t-14.5 -182q0 -108 12 -173.5t39.5 -99.5t72 -46t108.5 -12zM224 997v25h256v-25h-256zM177 817q1 36 14.5 56t34.5 29t41 9q24 0 44.5 -10.5t40 -24t38 -24t38.5 -10.5q30 0 50.5 17.5t20.5 52.5h22
q0 -43 -24.5 -69t-68.5 -26q-22 0 -42 10.5t-39.5 24t-39 24t-40.5 10.5q-26 0 -47 -16t-21 -53h-22z" />
    <glyph glyph-name="uni022D" unicode="&#x22d;" horiz-adv-x="578" 
d="M288 -6q-53 0 -94.5 11t-70 40t-43 83t-14.5 138q0 86 14.5 139.5t43 82.5t70 39.5t94.5 10.5t95 -11t70.5 -39.5t43.5 -82t15 -139.5q0 -85 -15 -139t-43.5 -82.5t-70.5 -39.5t-95 -11zM288 29q43 0 77 8t57.5 32.5t36 72t12.5 125.5q0 79 -12.5 126t-36 70.5
t-57.5 31.5t-77 8t-77 -8t-57 -31.5t-35 -70.5t-12 -126q0 -78 12 -125.5t35 -72t57 -32.5t77 -8zM159 840v25h256v-25h-256zM124 657q1 36 14.5 56t34.5 29t41 9q24 0 44.5 -10.5t40 -24t38 -24t38.5 -10.5q30 0 50.5 17.5t20.5 52.5h22q0 -43 -24.5 -69t-68.5 -26
q-22 0 -42 10.5t-39.5 24t-39 24t-40.5 10.5q-26 0 -47 -16t-21 -53h-22z" />
    <glyph glyph-name="uni0230" unicode="&#x230;" horiz-adv-x="679" 
d="M340 -6q-69 0 -120 13t-85.5 50t-51 110.5t-16.5 194.5q0 122 17 196.5t51.5 113.5t85.5 53t119 14q70 0 121 -14t85 -53t50.5 -113.5t16.5 -196.5q0 -121 -17 -194.5t-51 -110.5t-85 -50t-120 -13zM340 31q61 0 105.5 12t72 46t41 99.5t13.5 173.5q0 114 -14 182
t-41.5 102t-71.5 45t-105 11q-57 0 -100.5 -11t-73 -45t-44 -102t-14.5 -182q0 -108 12 -173.5t39.5 -99.5t72 -46t108.5 -12zM330 829q-13 0 -13 13v67q0 13 13 13h19q6 0 9.5 -3.5t3.5 -9.5v-67q0 -13 -13 -13h-19zM205 991v25h256v-25h-256z" />
    <glyph glyph-name="uni0231" unicode="&#x231;" horiz-adv-x="578" 
d="M288 -6q-53 0 -94.5 11t-70 40t-43 83t-14.5 138q0 86 14.5 139.5t43 82.5t70 39.5t94.5 10.5t95 -11t70.5 -39.5t43.5 -82t15 -139.5q0 -85 -15 -139t-43.5 -82.5t-70.5 -39.5t-95 -11zM288 29q43 0 77 8t57.5 32.5t36 72t12.5 125.5q0 79 -12.5 126t-36 70.5
t-57.5 31.5t-77 8t-77 -8t-57 -31.5t-35 -70.5t-12 -126q0 -78 12 -125.5t35 -72t57 -32.5t77 -8zM278 669q-13 0 -13 13v67q0 13 13 13h19q6 0 9.5 -3.5t3.5 -9.5v-67q0 -13 -13 -13h-19zM159 831v25h256v-25h-256z" />
    <glyph glyph-name="uni0232" unicode="&#x232;" horiz-adv-x="612" 
d="M286 0v255l-240 478h43l218 -437l217 437h43l-240 -478v-255h-41zM172 845v25h256v-25h-256z" />
    <glyph glyph-name="uni0233" unicode="&#x233;" horiz-adv-x="526" 
d="M216 -237l74 237q-15 1 -38 9t-46 32t-40 74l-144 417h44l139 -408q13 -36 28.5 -54t31 -25t25.5 -7h10l161 494h42l-214 -670l-46 -99h-27zM133 685v25h256v-25h-256z" />
    <glyph glyph-name="uni0237" unicode="&#x237;" horiz-adv-x="214" 
d="M86 -237v769h41v-508q0 -77 -4 -146t-8 -115h-29z" />
    <glyph glyph-name="uni0259" unicode="&#x259;" horiz-adv-x="543" 
d="M264 538q81 0 128 -26t66 -85.5t19 -162.5q0 -105 -21 -163.5t-68.5 -82.5t-126.5 -24q-66 0 -109 15.5t-64.5 53t-21.5 103.5q0 43 17 69.5t48.5 38.5t75.5 12h229q0 80 -14.5 127.5t-53 69t-111.5 21.5h-180v26q49 4 91.5 6t95.5 2zM436 255h-227q-53 0 -79 -19
t-26 -70q0 -54 15.5 -84t50 -42.5t91.5 -12.5q68 0 106.5 19.5t53.5 69t15 139.5z" />
    <glyph glyph-name="uni02B9" unicode="&#x2b9;" horiz-adv-x="114" 
d="M47 763h39l-29 -292h-28z" />
    <glyph glyph-name="uni02BA" unicode="&#x2ba;" horiz-adv-x="208" 
d="M47 763h39l-29 -292h-28zM141 763h39l-29 -292h-28z" />
    <glyph glyph-name="uni02BB" unicode="&#x2bb;" horiz-adv-x="128" 
d="M72 738q6 0 9.5 -1l3.5 -1v-12q-10 0 -14 -3.5t-4 -11.5v-44h7q5 0 9 -4t4 -11v-63q0 -15 -13 -15h-20q-8 0 -10.5 4t-2.5 11v113q0 17 5 25t12.5 10.5t13.5 2.5z" />
    <glyph glyph-name="uni02BC" unicode="&#x2bc;" horiz-adv-x="177" 
d="M71 543h-5t-6 1v14q11 0 15.5 5t4.5 15v62h-7q-7 0 -11 4.5t-4 12.5v68q0 17 15 17h22q6 0 8.5 -5t2.5 -12v-137q0 -19 -6 -29t-14 -13t-15 -3z" />
    <glyph glyph-name="uni02BE" unicode="&#x2be;" horiz-adv-x="194" 
d="M25 589v22q58 0 85 19.5t27 66.5q0 48 -27 67.5t-85 19.5v22q69 0 106 -24t37 -85t-37 -84.5t-106 -23.5z" />
    <glyph glyph-name="uni02BF" unicode="&#x2bf;" horiz-adv-x="194" 
d="M169 589q-69 0 -106 23.5t-37 84.5t37 85t106 24v-22q-58 0 -85 -19.5t-27 -67.5q0 -47 27 -66.5t85 -19.5v-22z" />
    <glyph glyph-name="circumflex" unicode="&#x2c6;" horiz-adv-x="404" 
d="M64 631l129 132h31l117 -132h-27l-106 110l-117 -110h-27z" />
    <glyph glyph-name="caron" unicode="&#x2c7;" horiz-adv-x="404" 
d="M181 631l-117 132h27l106 -110l117 110h27l-129 -132h-31z" />
    <glyph glyph-name="uni02C8" unicode="&#x2c8;" horiz-adv-x="97" 
d="M30 763h37v-260h-37v260z" />
    <glyph glyph-name="uni02C9" unicode="&#x2c9;" horiz-adv-x="316" 
d="M30 685v25h256v-25h-256z" />
    <glyph glyph-name="uni02CA" unicode="&#x2ca;" horiz-adv-x="208" 
d="M25 631l116 134h39l-131 -134h-24z" />
    <glyph glyph-name="uni02CB" unicode="&#x2cb;" horiz-adv-x="208" 
d="M156 631l-131 134h39l116 -134h-24z" />
    <glyph glyph-name="uni02CC" unicode="&#x2cc;" horiz-adv-x="97" 
d="M30 23h37v-260h-37v260z" />
    <glyph glyph-name="breve" unicode="&#x2d8;" horiz-adv-x="361" 
d="M181 632q-32 0 -60.5 12t-47 42t-18.5 82h21q0 -63 31 -89.5t74 -25.5q47 1 76.5 26t29.5 89h22q0 -54 -19 -83.5t-48 -41t-61 -11.5z" />
    <glyph glyph-name="dotaccent" unicode="&#x2d9;" horiz-adv-x="172" 
d="M72 662q-13 0 -13 13v67q0 13 13 13h19q6 0 9.5 -3.5t3.5 -9.5v-67q0 -13 -13 -13h-19z" />
    <glyph glyph-name="ring" unicode="&#x2da;" horiz-adv-x="336" 
d="M169 598q-50 0 -77.5 22.5t-27.5 81.5q0 58 27.5 81t77.5 23q51 0 77 -23t26 -81q0 -59 -25.5 -81.5t-77.5 -22.5zM169 619q42 0 61 17t19 66q0 48 -19 65.5t-61 17.5q-41 0 -61.5 -17.5t-20.5 -65.5q0 -49 20.5 -66t61.5 -17z" />
    <glyph glyph-name="ogonek" unicode="&#x2db;" horiz-adv-x="252" 
d="M166 -183q-31 0 -55 10.5t-37 30.5t-13 46t19 51.5t61 44.5h18q-35 -18 -53.5 -40.5t-18.5 -47.5q0 -34 24.5 -53t71.5 -19h6v-22q-6 -1 -11.5 -1h-11.5z" />
    <glyph glyph-name="tilde" unicode="&#x2dc;" horiz-adv-x="466" 
d="M62 657q1 36 14.5 56t34.5 29t41 9q24 0 44.5 -10.5t40 -24t38 -24t38.5 -10.5q30 0 50.5 17.5t20.5 52.5h22q0 -43 -24.5 -69t-68.5 -26q-22 0 -42 10.5t-39.5 24t-39 24t-40.5 10.5q-26 0 -47 -16t-21 -53h-22z" />
    <glyph glyph-name="hungarumlaut" unicode="&#x2dd;" horiz-adv-x="351" 
d="M168 631l115 134h37l-128 -134h-24zM25 631l115 134h38l-129 -134h-24z" />
    <glyph glyph-name="gravecomb" unicode="&#x300;" 
d="M-264 631l-131 134h39l116 -134h-24z" />
    <glyph glyph-name="acutecomb" unicode="&#x301;" 
d="M-296 631l116 134h39l-131 -134h-24z" />
    <glyph glyph-name="uni0302" unicode="&#x302;" 
d="M-411 631l129 132h31l117 -132h-27l-106 110l-117 -110h-27z" />
    <glyph glyph-name="tildecomb" unicode="&#x303;" 
d="M-433 657q1 36 14.5 56t34.5 29t41 9q24 0 44.5 -10.5t40 -24t38 -24t38.5 -10.5q30 0 50.5 17.5t20.5 52.5h22q0 -43 -24.5 -69t-68.5 -26q-22 0 -42 10.5t-39.5 24t-39 24t-40.5 10.5q-26 0 -47 -16t-21 -53h-22z" />
    <glyph glyph-name="uni0304" unicode="&#x304;" 
d="M-398 685v25h256v-25h-256z" />
    <glyph glyph-name="uni0306" unicode="&#x306;" 
d="M-276 632q-32 0 -60.5 12t-47 42t-18.5 82h21q0 -63 31 -89.5t74 -25.5q47 1 76.5 26t29.5 89h22q0 -54 -19 -83.5t-48 -41t-61 -11.5z" />
    <glyph glyph-name="uni0307" unicode="&#x307;" 
d="M-279 669q-13 0 -13 13v67q0 13 13 13h19q6 0 9.5 -3.5t3.5 -9.5v-67q0 -13 -13 -13h-19z" />
    <glyph glyph-name="uni0308" unicode="&#x308;" 
d="M-181 662q-14 0 -14 13v67q0 13 14 13h18q7 0 10.5 -3.5t3.5 -9.5v-67q0 -13 -14 -13h-18zM-376 662q-13 0 -13 13v67q0 13 13 13h19q7 0 10 -3.5t3 -9.5v-67q0 -13 -13 -13h-19z" />
    <glyph glyph-name="hookabovecomb" unicode="&#x309;" 
d="M-323 608v21q37 11 51.5 30t14.5 39q0 25 -13 39.5t-44 14.5q-9 0 -18.5 -1.5t-18.5 -4.5v20q11 4 21 5t21 1q39 0 57.5 -20.5t18.5 -53.5q0 -27 -21.5 -52t-68.5 -38z" />
    <glyph glyph-name="uni030A" unicode="&#x30a;" 
d="M-269 598q-50 0 -77.5 22.5t-27.5 81.5q0 58 27.5 81t77.5 23q51 0 77 -23t26 -81q0 -59 -25.5 -81.5t-77.5 -22.5zM-269 619q42 0 61 17t19 66q0 48 -19 65.5t-61 17.5q-41 0 -61.5 -17.5t-20.5 -65.5q0 -49 20.5 -66t61.5 -17z" />
    <glyph glyph-name="uni030B" unicode="&#x30b;" 
d="M-235 631l115 134h37l-128 -134h-24zM-378 631l115 134h38l-129 -134h-24z" />
    <glyph glyph-name="uni030C" unicode="&#x30c;" 
d="M-285 631l-117 132h27l106 -110l117 110h27l-129 -132h-31z" />
    <glyph glyph-name="uni030F" unicode="&#x30f;" 
d="M-201 631l-130 134h39l115 -134h-24zM-329 631l-130 134h39l115 -134h-24z" />
    <glyph glyph-name="uni0311" unicode="&#x311;" 
d="M-273 768q32 0 60.5 -12t47 -42t18.5 -82h-21q0 63 -31 89.5t-74 25.5q-47 -1 -76.5 -26t-29.5 -89h-22q0 54 19 83.5t48 41t61 11.5z" />
    <glyph glyph-name="uni0312" unicode="&#x312;" 
d="M-374 611q0 50 8.5 80t31.5 43.5t66 13.5h30v-17l-31 -4q-25 -2 -43 -10.5t-27 -32t-8 -73.5h-27z" />
    <glyph glyph-name="uni031B" unicode="&#x31b;" 
d="M-260 507v25h101q35 0 58.5 25t23.5 90h33q0 -55 -16.5 -85.5t-42 -42.5t-53.5 -12h-104z" />
    <glyph glyph-name="dotbelowcomb" unicode="&#x323;" 
d="M-279 -201q-13 0 -13 13v67q0 13 13 13h19q6 0 9.5 -3.5t3.5 -9.5v-67q0 -13 -13 -13h-19z" />
    <glyph glyph-name="uni0324" unicode="&#x324;" 
d="M-162 -188q-13 0 -13 13v67q0 13 13 13h19q6 0 9.5 -3.5t3.5 -9.5v-67q0 -13 -13 -13h-19zM-410 -188q-14 0 -14 13v67q0 13 14 13h18q7 0 10 -3.5t3 -9.5v-67q0 -13 -13 -13h-18z" />
    <glyph glyph-name="uni0326" unicode="&#x326;" 
d="M-383 -194v16l32 4q25 3 42.5 11t26.5 31.5t8 74.5h27q0 -50 -8 -80.5t-31 -43.5t-67 -13h-30z" />
    <glyph glyph-name="uni0327" unicode="&#x327;" 
d="M-335 -185v17l25 2q30 2 46.5 14t16.5 37q0 19 -14.5 33t-62.5 15l20 10q46 0 64.5 -16t18.5 -46q0 -32 -23.5 -49t-66.5 -17h-24zM-324 -67l52 78h21l-52 -78h-21z" />
    <glyph glyph-name="uni0328" unicode="&#x328;" 
d="M-234 -183q-31 0 -55 10.5t-37 30.5t-13 46t19 51.5t61 44.5h18q-35 -18 -53.5 -40.5t-18.5 -47.5q0 -34 24.5 -53t71.5 -19h6v-22q-6 -1 -11.5 -1h-11.5z" />
    <glyph glyph-name="uni032E" unicode="&#x32e;" 
d="M-275 -218q-32 0 -60.5 12t-47 42t-18.5 82h21q0 -63 31 -89.5t74 -25.5q47 1 76.5 26t29.5 89h22q0 -54 -19 -83.5t-48 -41t-61 -11.5z" />
    <glyph glyph-name="uni0331" unicode="&#x331;" 
d="M-403 -175v25h256v-25h-256z" />
    <glyph glyph-name="uni0335" unicode="&#x335;" 
d="M-301 297v22h264v-22h-264z" />
    <glyph glyph-name="uni03A9" unicode="&#x3a9;" horiz-adv-x="789" 
d="M80 390q0 68 16 130.5t52.5 112t97 78t148.5 28.5q85 0 145 -25.5t97.5 -73t54.5 -112t17 -142.5q0 -59 -20 -122t-60 -121.5t-104 -105.5l199 -7v-30h-250v37q103 70 148.5 160.5t45.5 181.5q0 73 -15 133t-48 102t-85 65t-125 23q-72 0 -123.5 -22t-84.5 -63.5
t-49 -100t-16 -131.5t20 -131t63 -110t112 -107v-37h-250v30l199 8q-71 56 -111.5 115.5t-57 119.5t-16.5 117z" />
    <glyph glyph-name="uni03BC" unicode="&#x3bc;" horiz-adv-x="584" 
d="M256 -6q-43 0 -75 13.5t-53 38.5t-31.5 59t-10.5 75v353h41v-368q0 -53 17.5 -82t48.5 -40.5t71 -11.5q58 0 102 14.5t94 42.5v445h41v-533h-29l-11 61q-40 -28 -93 -47.5t-112 -19.5zM86 -268v491h41v-491h-41z" />
    <glyph glyph-name="pi" unicode="&#x3c0;" horiz-adv-x="608" 
d="M25 532h509v-39h-123v-371q0 -49 17.5 -69.5t53.5 -20.5h60v-24q-12 -6 -29.5 -10t-38.5 -4q-51 0 -77.5 28.5t-26.5 98.5v372h-193v-493h-41v493h-111v39z" />
    <glyph glyph-name="uni1E02" unicode="&#x1e02;" horiz-adv-x="590" 
d="M85 0v733h252q86 0 132 -45t46 -140q0 -47 -15 -81.5t-39 -56t-51 -29.5q18 -5 40 -15.5t43.5 -31t35 -52.5t13.5 -78q0 -80 -25 -124t-69 -62t-103 -18h-260zM126 37h218q47 0 82.5 14t55.5 51t20 107q0 49 -21.5 83t-57.5 52t-79 18h-218v-325zM126 396h217q56 0 93 40
t39 108q3 85 -36 118.5t-102 33.5h-211v-300zM283 829q-13 0 -13 13v67q0 13 13 13h19q6 0 9.5 -3.5t3.5 -9.5v-67q0 -13 -13 -13h-19z" />
    <glyph glyph-name="uni1E03" unicode="&#x1e03;" horiz-adv-x="574" 
d="M317 -6q-39 0 -74.5 10t-65 24.5t-50.5 27.5l-10 -56h-31v763h41v-286q43 25 95 43t94 18q62 0 104.5 -26t65 -86t22.5 -163q0 -79 -19 -139.5t-60.5 -95t-111.5 -34.5zM309 29q54 0 89 27.5t52 80t17 127.5q0 98 -20 149.5t-55 70.5t-83 19q-54 0 -94.5 -14.5
t-87.5 -38.5v-368q37 -18 82 -35.5t100 -17.5zM97 869q-13 0 -13 13v67q0 13 13 13h19q6 0 9.5 -3.5t3.5 -9.5v-67q0 -13 -13 -13h-19z" />
    <glyph glyph-name="uni1E08" unicode="&#x1e08;" horiz-adv-x="578" 
d="M322 -6q-68 0 -116.5 15t-79 54.5t-45 113t-14.5 192.5q0 110 14.5 182.5t46 113t81.5 57.5t120 17q21 0 55.5 -3t73 -7.5t72.5 -11.5v-29q-17 3 -48.5 6t-71.5 5.5t-79 2.5q-60 0 -103 -14t-69.5 -50.5t-38.5 -101.5t-12 -168q0 -107 12 -174t38 -102.5t67.5 -48
t101.5 -12.5q75 0 123.5 4.5t79.5 9.5v-30q-33 -6 -70.5 -11t-73.5 -7.5t-64 -2.5zM265 -185v17l25 2q30 2 46.5 14t16.5 37q0 19 -14.5 33t-62.5 15l20 10q46 0 64.5 -16t18.5 -46q0 -32 -23.5 -49t-66.5 -17h-24zM276 -67l52 78h21l-52 -78h-21zM319 791l116 134h39
l-131 -134h-24z" />
    <glyph glyph-name="uni1E09" unicode="&#x1e09;" horiz-adv-x="490" 
d="M273 -6q-44 0 -81.5 11.5t-66 41t-44 83t-15.5 136.5t15 136t42.5 82.5t65.5 41t85 11.5q35 0 83 -2t87 -6v-26h-164q-54 0 -92.5 -18.5t-59.5 -70.5t-21 -151q0 -95 22.5 -146t61 -70t89.5 -19h172v-25q-22 -2 -50.5 -4t-61 -3.5t-67.5 -1.5zM204 -185v17l25 2
q30 2 46.5 14t16.5 37q0 19 -14.5 33t-62.5 15l20 10q46 0 64.5 -16t18.5 -46q0 -32 -23.5 -49t-66.5 -17h-24zM215 -67l52 78h21l-52 -78h-21zM243 631l116 134h39l-131 -134h-24z" />
    <glyph glyph-name="uni1E0A" unicode="&#x1e0a;" horiz-adv-x="663" 
d="M85 0v733h278q62 0 106 -22.5t72 -68t41.5 -114.5t13.5 -162q0 -110 -26.5 -192.5t-78 -128t-128.5 -45.5h-278zM126 37h235q67 0 109.5 41.5t63.5 116t21 171.5q0 88 -11 150.5t-34 102.5t-60 58.5t-89 18.5h-235v-659zM302 829q-13 0 -13 13v67q0 13 13 13h19
q6 0 9.5 -3.5t3.5 -9.5v-67q0 -13 -13 -13h-19z" />
    <glyph glyph-name="uni1E0B" unicode="&#x1e0b;" horiz-adv-x="570" 
d="M258 -6q-67 0 -109.5 29.5t-62.5 89.5t-20 150q0 99 20.5 159.5t65 88t116.5 27.5q49 0 96.5 -11t82.5 -23v259h40v-763h-30l-10 56q-14 -12 -46.5 -26.5t-71 -25t-71.5 -10.5zM265 29q55 0 100 17.5t82 36.5v392q-45 12 -83.5 20.5t-88.5 8.5q-60 0 -97 -22.5t-54 -75
t-17 -142.5q0 -81 16 -133t51 -77t91 -25zM457 869q-13 0 -13 13v67q0 13 13 13h19q6 0 9.5 -3.5t3.5 -9.5v-67q0 -13 -13 -13h-19z" />
    <glyph glyph-name="uni1E0C" unicode="&#x1e0c;" horiz-adv-x="663" 
d="M85 0v733h278q62 0 106 -22.5t72 -68t41.5 -114.5t13.5 -162q0 -110 -26.5 -192.5t-78 -128t-128.5 -45.5h-278zM126 37h235q67 0 109.5 41.5t63.5 116t21 171.5q0 88 -11 150.5t-34 102.5t-60 58.5t-89 18.5h-235v-659zM296 -201q-13 0 -13 13v67q0 13 13 13h19
q6 0 9.5 -3.5t3.5 -9.5v-67q0 -13 -13 -13h-19z" />
    <glyph glyph-name="uni1E0D" unicode="&#x1e0d;" horiz-adv-x="570" 
d="M258 -6q-67 0 -109.5 29.5t-62.5 89.5t-20 150q0 99 20.5 159.5t65 88t116.5 27.5q49 0 96.5 -11t82.5 -23v259h40v-763h-30l-10 56q-14 -12 -46.5 -26.5t-71 -25t-71.5 -10.5zM265 29q55 0 100 17.5t82 36.5v392q-45 12 -83.5 20.5t-88.5 8.5q-60 0 -97 -22.5t-54 -75
t-17 -142.5q0 -81 16 -133t51 -77t91 -25zM277 -201q-13 0 -13 13v67q0 13 13 13h19q6 0 9.5 -3.5t3.5 -9.5v-67q0 -13 -13 -13h-19z" />
    <glyph glyph-name="uni1E0E" unicode="&#x1e0e;" horiz-adv-x="663" 
d="M85 0v733h278q62 0 106 -22.5t72 -68t41.5 -114.5t13.5 -162q0 -110 -26.5 -192.5t-78 -128t-128.5 -45.5h-278zM126 37h235q67 0 109.5 41.5t63.5 116t21 171.5q0 88 -11 150.5t-34 102.5t-60 58.5t-89 18.5h-235v-659zM174 -175v25h256v-25h-256z" />
    <glyph glyph-name="uni1E0F" unicode="&#x1e0f;" horiz-adv-x="570" 
d="M258 -6q-67 0 -109.5 29.5t-62.5 89.5t-20 150q0 99 20.5 159.5t65 88t116.5 27.5q49 0 96.5 -11t82.5 -23v259h40v-763h-30l-10 56q-14 -12 -46.5 -26.5t-71 -25t-71.5 -10.5zM265 29q55 0 100 17.5t82 36.5v392q-45 12 -83.5 20.5t-88.5 8.5q-60 0 -97 -22.5t-54 -75
t-17 -142.5q0 -81 16 -133t51 -77t91 -25zM155 -175v25h256v-25h-256z" />
    <glyph glyph-name="uni1E14" unicode="&#x1e14;" horiz-adv-x="581" 
d="M228 -3q-25 0 -50 4t-46 17t-34 39.5t-13 70.5v470q0 38 11 64.5t30 42t42.5 22t48.5 6.5q53 -1 103.5 -2t99.5 -2.5t97 -2.5v-31h-294q-44 0 -70.5 -24t-26.5 -77v-212l350 -3v-30l-350 -4v-212q0 -44 15 -65t39.5 -27t50.5 -6h286v-31q-47 -2 -95.5 -3l-97 -2t-96.5 -2
zM175 845v25h256v-25h-256zM294 914l-131 134h39l116 -134h-24z" />
    <glyph glyph-name="uni1E15" unicode="&#x1e15;" horiz-adv-x="543" 
d="M279 -6q-81 0 -128 26t-66 85.5t-19 162.5q0 105 21 163.5t68.5 82.5t126.5 24q66 0 109 -15.5t64.5 -53t21.5 -103.5q0 -43 -17 -69.5t-48.5 -38.5t-75.5 -12h-229q0 -80 14.5 -127.5t53 -69t111.5 -21.5h180v-26q-49 -4 -91.5 -6t-95.5 -2zM107 277h227q53 0 79 19
t26 70q0 54 -15.5 84t-50 42.5t-91.5 12.5q-68 0 -106.5 -19.5t-53.5 -69t-15 -139.5zM141 685v25h256v-25h-256zM272 753l-131 134h39l116 -134h-24z" />
    <glyph glyph-name="uni1E16" unicode="&#x1e16;" horiz-adv-x="581" 
d="M228 -3q-25 0 -50 4t-46 17t-34 39.5t-13 70.5v470q0 38 11 64.5t30 42t42.5 22t48.5 6.5q53 -1 103.5 -2t99.5 -2.5t97 -2.5v-31h-294q-44 0 -70.5 -24t-26.5 -77v-212l350 -3v-30l-350 -4v-212q0 -44 15 -65t39.5 -27t50.5 -6h286v-31q-47 -2 -95.5 -3l-97 -2t-96.5 -2
zM175 845v25h256v-25h-256zM300 914l116 134h39l-131 -134h-24z" />
    <glyph glyph-name="uni1E17" unicode="&#x1e17;" horiz-adv-x="543" 
d="M279 -6q-81 0 -128 26t-66 85.5t-19 162.5q0 105 21 163.5t68.5 82.5t126.5 24q66 0 109 -15.5t64.5 -53t21.5 -103.5q0 -43 -17 -69.5t-48.5 -38.5t-75.5 -12h-229q0 -80 14.5 -127.5t53 -69t111.5 -21.5h180v-26q-49 -4 -91.5 -6t-95.5 -2zM107 277h227q53 0 79 19
t26 70q0 54 -15.5 84t-50 42.5t-91.5 12.5q-68 0 -106.5 -19.5t-53.5 -69t-15 -139.5zM141 685v25h256v-25h-256zM242 753l116 134h39l-131 -134h-24z" />
    <glyph glyph-name="uni1E1C" unicode="&#x1e1c;" horiz-adv-x="581" 
d="M228 -3q-25 0 -50 4t-46 17t-34 39.5t-13 70.5v470q0 38 11 64.5t30 42t42.5 22t48.5 6.5q53 -1 103.5 -2t99.5 -2.5t97 -2.5v-31h-294q-44 0 -70.5 -24t-26.5 -77v-212l350 -3v-30l-350 -4v-212q0 -44 15 -65t39.5 -27t50.5 -6h286v-31q-47 -2 -95.5 -3l-97 -2t-96.5 -2
zM247 -185v17l25 2q30 2 46.5 14t16.5 37q0 19 -14.5 33t-62.5 15l20 10q46 0 64.5 -16t18.5 -46q0 -32 -23.5 -49t-66.5 -17h-24zM258 -67l52 78h21l-52 -78h-21zM303 792q-32 0 -60.5 12t-47 42t-18.5 82h21q0 -63 31 -89.5t74 -25.5q47 1 76.5 26t29.5 89h22
q0 -54 -19 -83.5t-48 -41t-61 -11.5z" />
    <glyph glyph-name="uni1E1D" unicode="&#x1e1d;" horiz-adv-x="543" 
d="M279 -6q-81 0 -128 26t-66 85.5t-19 162.5q0 105 21 163.5t68.5 82.5t126.5 24q66 0 109 -15.5t64.5 -53t21.5 -103.5q0 -43 -17 -69.5t-48.5 -38.5t-75.5 -12h-229q0 -80 14.5 -127.5t53 -69t111.5 -21.5h180v-26q-49 -4 -91.5 -6t-95.5 -2zM107 277h227q53 0 79 19
t26 70q0 54 -15.5 84t-50 42.5t-91.5 12.5q-68 0 -106.5 -19.5t-53.5 -69t-15 -139.5zM204 -185v17l25 2q30 2 46.5 14t16.5 37q0 19 -14.5 33t-62.5 15l20 10q46 0 64.5 -16t18.5 -46q0 -32 -23.5 -49t-66.5 -17h-24zM215 -67l52 78h21l-52 -78h-21zM263 632
q-32 0 -60.5 12t-47 42t-18.5 82h21q0 -63 31 -89.5t74 -25.5q47 1 76.5 26t29.5 89h22q0 -54 -19 -83.5t-48 -41t-61 -11.5z" />
    <glyph glyph-name="uni1E1E" unicode="&#x1e1e;" horiz-adv-x="559" 
d="M85 0v598q0 38 11 64.5t30 42t42.5 22t48.5 6.5q48 -1 98 -2t101 -2t101 -3v-31h-295q-44 0 -70 -24.5t-26 -76.5v-226l350 -4v-30l-350 -3v-331h-41zM300 829q-13 0 -13 13v67q0 13 13 13h19q6 0 9.5 -3.5t3.5 -9.5v-67q0 -13 -13 -13h-19z" />
    <glyph glyph-name="uni1E1F" unicode="&#x1e1f;" horiz-adv-x="354" 
d="M111 0v497h-85v26l85 9v76q0 49 11.5 85.5t41.5 56t86 19.5q35 0 57 -2.5t42 -4.5v-28h-94q-43 0 -65 -14.5t-30 -42.5t-8 -68v-77h181v-35h-181v-497h-41zM243 872q-13 0 -13 13v67q0 13 13 13h19q6 0 9.5 -3.5t3.5 -9.5v-67q0 -13 -13 -13h-19z" />
    <glyph glyph-name="uni1E20" unicode="&#x1e20;" horiz-adv-x="645" 
d="M308 -5q-71 -1 -117.5 19t-74 64.5t-38.5 116.5t-11 175q0 96 11.5 166t38 115t72.5 66.5t113 21.5q32 0 74 -2.5t83 -7.5t74 -11v-30q-20 2 -57 5.5t-81.5 6t-88.5 2.5q-77 0 -120 -34t-60.5 -107.5t-17.5 -192.5q0 -96 9.5 -160.5t32 -103t62.5 -55t102 -16.5
q52 0 108 15t98 32v258h-203v27q19 3 44.5 5t55.5 3.5t62 1.5q23 0 44.5 -0.5t37.5 -3.5v-371h-29l-8 53q-40 -19 -97 -38t-119 -20zM194 845v25h256v-25h-256z" />
    <glyph glyph-name="uni1E21" unicode="&#x1e21;" horiz-adv-x="572" 
d="M213 -244q-52 0 -91.5 14.5t-62 44.5t-22.5 76v28q0 48 26 79t65 46t79 15l6 -24q-35 0 -66 -11t-51.5 -36t-20.5 -65v-28q0 -59 39.5 -82.5t104.5 -23.5h135q73 0 114.5 28t41.5 87v23q0 33 -12.5 57t-43 37.5t-87.5 13.5h-184q-46 0 -75.5 22.5t-29.5 61.5t24 60t68 29
q-41 14 -63 40t-30.5 56.5t-8.5 59.5q0 63 26 100.5t70.5 53.5t99.5 16h284v-25l-142 -8q15 -8 35 -22.5t34.5 -44.5t14.5 -83q0 -39 -16.5 -76t-57 -61.5t-112.5 -24.5h-80q-51 0 -79.5 -14.5t-28.5 -52.5q0 -28 20 -40.5t41 -12.5h194q61 0 100.5 -16t58 -46.5t18.5 -75.5
v-26q0 -70 -49 -109.5t-143 -39.5h-143zM238 223h62q62 0 94.5 19t44.5 48.5t12 62.5q0 54 -18.5 86.5t-49.5 46t-72 13.5h-57q-68 0 -107.5 -30.5t-39.5 -106.5q0 -73 35.5 -106t95.5 -33zM159 685v25h256v-25h-256z" />
    <glyph glyph-name="uni1E24" unicode="&#x1e24;" horiz-adv-x="669" 
d="M85 0v733h41v-359h418v359h41v-733h-41v337h-418v-337h-41zM323 -201q-13 0 -13 13v67q0 13 13 13h19q6 0 9.5 -3.5t3.5 -9.5v-67q0 -13 -13 -13h-19z" />
    <glyph glyph-name="uni1E25" unicode="&#x1e25;" horiz-adv-x="584" 
d="M86 0v763h41v-292q42 28 96.5 49t113.5 21q54 0 90.5 -24t55 -63.5t18.5 -85.5v-368h-41v365q0 38 -15.5 69.5t-44.5 50.5t-71 19q-41 0 -73.5 -7.5t-63 -20.5t-65.5 -32v-444h-41zM282 -201q-13 0 -13 13v67q0 13 13 13h19q6 0 9.5 -3.5t3.5 -9.5v-67q0 -13 -13 -13h-19
z" />
    <glyph glyph-name="uni1E2A" unicode="&#x1e2a;" horiz-adv-x="669" 
d="M85 0v733h41v-359h418v359h41v-733h-41v337h-418v-337h-41zM329 -218q-32 0 -60.5 12t-47 42t-18.5 82h21q0 -63 31 -89.5t74 -25.5q47 1 76.5 26t29.5 89h22q0 -54 -19 -83.5t-48 -41t-61 -11.5z" />
    <glyph glyph-name="uni1E2B" unicode="&#x1e2b;" horiz-adv-x="584" 
d="M86 0v763h41v-292q42 28 96.5 49t113.5 21q54 0 90.5 -24t55 -63.5t18.5 -85.5v-368h-41v365q0 38 -15.5 69.5t-44.5 50.5t-71 19q-41 0 -73.5 -7.5t-63 -20.5t-65.5 -32v-444h-41zM288 -218q-32 0 -60.5 12t-47 42t-18.5 82h21q0 -63 31 -89.5t74 -25.5q47 1 76.5 26
t29.5 89h22q0 -54 -19 -83.5t-48 -41t-61 -11.5z" />
    <glyph glyph-name="uni1E2E" unicode="&#x1e2e;" horiz-adv-x="210" 
d="M85 0v733h41v-733h-41zM212 822q-14 0 -14 13v67q0 13 14 13h18q7 0 10 -3.5t3 -9.5v-67q0 -13 -13 -13h-18zM-37 822q-13 0 -13 13v67q0 13 13 13h19q7 0 10 -3.5t3 -9.5v-67q0 -13 -13 -13h-19zM95 945l116 134h39l-131 -134h-24z" />
    <glyph glyph-name="uni1E2F" unicode="&#x1e2f;" horiz-adv-x="210" 
d="M86 0v532h41v-532h-41zM195 662q-14 0 -14 13v67q0 13 14 13h18q7 0 10.5 -3.5t3.5 -9.5v-67q0 -13 -14 -13h-18zM0 662q-13 0 -13 13v67q0 13 13 13h19q7 0 10 -3.5t3 -9.5v-67q0 -13 -13 -13h-19zM79 786l116 134h39l-131 -134h-24z" />
    <glyph glyph-name="uni1E36" unicode="&#x1e36;" horiz-adv-x="530" 
d="M217 0q-34 0 -64.5 11t-49 40t-18.5 82v600h41v-597q0 -41 14.5 -62t36.5 -28t46 -7h279v-39h-285zM252 -201q-13 0 -13 13v67q0 13 13 13h19q6 0 9.5 -3.5t3.5 -9.5v-67q0 -13 -13 -13h-19z" />
    <glyph glyph-name="uni1E37" unicode="&#x1e37;" horiz-adv-x="283" 
d="M211 0q-39 0 -67 15t-43 51.5t-15 103.5v593h41v-590q0 -57 10.5 -85.5t30 -39t45.5 -13.5l60 -7v-28h-62zM143 -201q-13 0 -13 13v67q0 13 13 13h19q6 0 9.5 -3.5t3.5 -9.5v-67q0 -13 -13 -13h-19z" />
    <glyph glyph-name="uni1E3A" unicode="&#x1e3a;" horiz-adv-x="530" 
d="M217 0q-34 0 -64.5 11t-49 40t-18.5 82v600h41v-597q0 -41 14.5 -62t36.5 -28t46 -7h279v-39h-285zM130 -175v25h256v-25h-256z" />
    <glyph glyph-name="uni1E3B" unicode="&#x1e3b;" horiz-adv-x="283" 
d="M211 0q-39 0 -67 15t-43 51.5t-15 103.5v593h41v-590q0 -57 10.5 -85.5t30 -39t45.5 -13.5l60 -7v-28h-62zM21 -175v25h256v-25h-256z" />
    <glyph glyph-name="uni1E40" unicode="&#x1e40;" horiz-adv-x="809" 
d="M65 0l81 733h48l210 -674l206 674h50l84 -733h-40l-81 701l9 -3l-209 -698h-37l-215 698l10 1l-77 -699h-39zM393 829q-13 0 -13 13v67q0 13 13 13h19q6 0 9.5 -3.5t3.5 -9.5v-67q0 -13 -13 -13h-19z" />
    <glyph glyph-name="uni1E41" unicode="&#x1e41;" horiz-adv-x="958" 
d="M86 0v532h29l12 -61q43 28 96.5 49t114.5 21q51 0 87 -23t55 -58q26 19 64.5 37.5t82 31t83.5 12.5q54 0 91 -24t55.5 -64t18.5 -86v-367h-41v365q0 38 -15.5 69.5t-45 50.5t-71.5 19q-53 0 -109 -20t-106 -48q7 -17 10.5 -35t3.5 -36v-365h-41v365q0 38 -15.5 69.5
t-44.5 50.5t-71 19q-41 0 -74 -7.5t-63.5 -20.5t-64.5 -32v-444h-41zM470 669q-13 0 -13 13v67q0 13 13 13h19q6 0 9.5 -3.5t3.5 -9.5v-67q0 -13 -13 -13h-19z" />
    <glyph glyph-name="uni1E42" unicode="&#x1e42;" horiz-adv-x="809" 
d="M65 0l81 733h48l210 -674l206 674h50l84 -733h-40l-81 701l9 -3l-209 -698h-37l-215 698l10 1l-77 -699h-39zM391 -201q-13 0 -13 13v67q0 13 13 13h19q6 0 9.5 -3.5t3.5 -9.5v-67q0 -13 -13 -13h-19z" />
    <glyph glyph-name="uni1E43" unicode="&#x1e43;" horiz-adv-x="958" 
d="M86 0v532h29l12 -61q43 28 96.5 49t114.5 21q51 0 87 -23t55 -58q26 19 64.5 37.5t82 31t83.5 12.5q54 0 91 -24t55.5 -64t18.5 -86v-367h-41v365q0 38 -15.5 69.5t-45 50.5t-71.5 19q-53 0 -109 -20t-106 -48q7 -17 10.5 -35t3.5 -36v-365h-41v365q0 38 -15.5 69.5
t-44.5 50.5t-71 19q-41 0 -74 -7.5t-63.5 -20.5t-64.5 -32v-444h-41zM466 -201q-13 0 -13 13v67q0 13 13 13h19q6 0 9.5 -3.5t3.5 -9.5v-67q0 -13 -13 -13h-19z" />
    <glyph glyph-name="uni1E44" unicode="&#x1e44;" horiz-adv-x="670" 
d="M103 0v733h35l425 -661v661h41v-733h-35l-425 661v-661h-41zM326 -201q-13 0 -13 13v67q0 13 13 13h19q6 0 9.5 -3.5t3.5 -9.5v-67q0 -13 -13 -13h-19z" />
    <glyph glyph-name="uni1E45" unicode="&#x1e45;" horiz-adv-x="584" 
d="M86 0v532h29l12 -61q42 28 96.5 49t113.5 21q55 0 91 -24.5t54.5 -64t18.5 -84.5v-368h-41v365q0 38 -15.5 69.5t-44.5 50.5t-71 19q-41 0 -74 -7.5t-63.5 -20.5t-64.5 -32v-444h-41zM279 -201q-13 0 -13 13v67q0 13 13 13h19q6 0 9.5 -3.5t3.5 -9.5v-67q0 -13 -13 -13
h-19z" />
    <glyph glyph-name="uni1E46" unicode="&#x1e46;" horiz-adv-x="670" 
d="M103 0v733h35l425 -661v661h41v-733h-35l-425 661v-661h-41zM326 -201q-13 0 -13 13v67q0 13 13 13h19q6 0 9.5 -3.5t3.5 -9.5v-67q0 -13 -13 -13h-19z" />
    <glyph glyph-name="uni1E47" unicode="&#x1e47;" horiz-adv-x="584" 
d="M86 0v532h29l12 -61q42 28 96.5 49t113.5 21q55 0 91 -24.5t54.5 -64t18.5 -84.5v-368h-41v365q0 38 -15.5 69.5t-44.5 50.5t-71 19q-41 0 -74 -7.5t-63.5 -20.5t-64.5 -32v-444h-41zM279 -201q-13 0 -13 13v67q0 13 13 13h19q6 0 9.5 -3.5t3.5 -9.5v-67q0 -13 -13 -13
h-19z" />
    <glyph glyph-name="uni1E48" unicode="&#x1e48;" horiz-adv-x="670" 
d="M103 0v733h35l425 -661v661h41v-733h-35l-425 661v-661h-41zM204 -175v25h256v-25h-256z" />
    <glyph glyph-name="uni1E49" unicode="&#x1e49;" horiz-adv-x="584" 
d="M86 0v532h29l12 -61q42 28 96.5 49t113.5 21q55 0 91 -24.5t54.5 -64t18.5 -84.5v-368h-41v365q0 38 -15.5 69.5t-44.5 50.5t-71 19q-41 0 -74 -7.5t-63.5 -20.5t-64.5 -32v-444h-41zM157 -175v25h256v-25h-256z" />
    <glyph glyph-name="uni1E4C" unicode="&#x1e4c;" horiz-adv-x="679" 
d="M340 -6q-69 0 -120 13t-85.5 50t-51 110.5t-16.5 194.5q0 122 17 196.5t51.5 113.5t85.5 53t119 14q70 0 121 -14t85 -53t50.5 -113.5t16.5 -196.5q0 -121 -17 -194.5t-51 -110.5t-85 -50t-120 -13zM340 31q61 0 105.5 12t72 46t41 99.5t13.5 173.5q0 114 -14 182
t-41.5 102t-71.5 45t-105 11q-57 0 -100.5 -11t-73 -45t-44 -102t-14.5 -182q0 -108 12 -173.5t39.5 -99.5t72 -46t108.5 -12zM177 817q1 36 14.5 56t34.5 29t41 9q24 0 44.5 -10.5t40 -24t38 -24t38.5 -10.5q30 0 50.5 17.5t20.5 52.5h22q0 -43 -24.5 -69t-68.5 -26
q-22 0 -42 10.5t-39.5 24t-39 24t-40.5 10.5q-26 0 -47 -16t-21 -53h-22zM328 943l116 134h39l-131 -134h-24z" />
    <glyph glyph-name="uni1E4D" unicode="&#x1e4d;" horiz-adv-x="578" 
d="M288 -6q-53 0 -94.5 11t-70 40t-43 83t-14.5 138q0 86 14.5 139.5t43 82.5t70 39.5t94.5 10.5t95 -11t70.5 -39.5t43.5 -82t15 -139.5q0 -85 -15 -139t-43.5 -82.5t-70.5 -39.5t-95 -11zM288 29q43 0 77 8t57.5 32.5t36 72t12.5 125.5q0 79 -12.5 126t-36 70.5
t-57.5 31.5t-77 8t-77 -8t-57 -31.5t-35 -70.5t-12 -126q0 -78 12 -125.5t35 -72t57 -32.5t77 -8zM131 657q1 36 14.5 56t34.5 29t41 9q24 0 44.5 -10.5t40 -24t38 -24t38.5 -10.5q30 0 50.5 17.5t20.5 52.5h22q0 -43 -24.5 -69t-68.5 -26q-22 0 -42 10.5t-39.5 24t-39 24
t-40.5 10.5q-26 0 -47 -16t-21 -53h-22zM260 782l116 134h39l-131 -134h-24z" />
    <glyph glyph-name="uni1E4E" unicode="&#x1e4e;" horiz-adv-x="679" 
d="M340 -6q-69 0 -120 13t-85.5 50t-51 110.5t-16.5 194.5q0 122 17 196.5t51.5 113.5t85.5 53t119 14q70 0 121 -14t85 -53t50.5 -113.5t16.5 -196.5q0 -121 -17 -194.5t-51 -110.5t-85 -50t-120 -13zM340 31q61 0 105.5 12t72 46t41 99.5t13.5 173.5q0 114 -14 182
t-41.5 102t-71.5 45t-105 11q-57 0 -100.5 -11t-73 -45t-44 -102t-14.5 -182q0 -108 12 -173.5t39.5 -99.5t72 -46t108.5 -12zM177 817q1 36 14.5 56t34.5 29t41 9q24 0 44.5 -10.5t40 -24t38 -24t38.5 -10.5q30 0 50.5 17.5t20.5 52.5h22q0 -43 -24.5 -69t-68.5 -26
q-22 0 -42 10.5t-39.5 24t-39 24t-40.5 10.5q-26 0 -47 -16t-21 -53h-22zM456 974q-14 0 -14 13v67q0 13 14 13h18q7 0 10 -3.5t3 -9.5v-67q0 -13 -13 -13h-18zM207 974q-13 0 -13 13v67q0 13 13 13h19q7 0 10 -3.5t3 -9.5v-67q0 -13 -13 -13h-19z" />
    <glyph glyph-name="uni1E4F" unicode="&#x1e4f;" horiz-adv-x="578" 
d="M288 -6q-53 0 -94.5 11t-70 40t-43 83t-14.5 138q0 86 14.5 139.5t43 82.5t70 39.5t94.5 10.5t95 -11t70.5 -39.5t43.5 -82t15 -139.5q0 -85 -15 -139t-43.5 -82.5t-70.5 -39.5t-95 -11zM288 29q43 0 77 8t57.5 32.5t36 72t12.5 125.5q0 79 -12.5 126t-36 70.5
t-57.5 31.5t-77 8t-77 -8t-57 -31.5t-35 -70.5t-12 -126q0 -78 12 -125.5t35 -72t57 -32.5t77 -8zM131 657q1 36 14.5 56t34.5 29t41 9q24 0 44.5 -10.5t40 -24t38 -24t38.5 -10.5q30 0 50.5 17.5t20.5 52.5h22q0 -43 -24.5 -69t-68.5 -26q-22 0 -42 10.5t-39.5 24t-39 24
t-40.5 10.5q-26 0 -47 -16t-21 -53h-22zM386 814q-14 0 -14 13v67q0 13 14 13h18q7 0 10.5 -3.5t3.5 -9.5v-67q0 -13 -14 -13h-18zM191 814q-13 0 -13 13v67q0 13 13 13h19q7 0 10 -3.5t3 -9.5v-67q0 -13 -13 -13h-19z" />
    <glyph glyph-name="uni1E50" unicode="&#x1e50;" horiz-adv-x="679" 
d="M340 -6q-69 0 -120 13t-85.5 50t-51 110.5t-16.5 194.5q0 122 17 196.5t51.5 113.5t85.5 53t119 14q70 0 121 -14t85 -53t50.5 -113.5t16.5 -196.5q0 -121 -17 -194.5t-51 -110.5t-85 -50t-120 -13zM340 31q61 0 105.5 12t72 46t41 99.5t13.5 173.5q0 114 -14 182
t-41.5 102t-71.5 45t-105 11q-57 0 -100.5 -11t-73 -45t-44 -102t-14.5 -182q0 -108 12 -173.5t39.5 -99.5t72 -46t108.5 -12zM205 845v25h256v-25h-256zM324 915l-131 134h39l116 -134h-24z" />
    <glyph glyph-name="uni1E51" unicode="&#x1e51;" horiz-adv-x="578" 
d="M288 -6q-53 0 -94.5 11t-70 40t-43 83t-14.5 138q0 86 14.5 139.5t43 82.5t70 39.5t94.5 10.5t95 -11t70.5 -39.5t43.5 -82t15 -139.5q0 -85 -15 -139t-43.5 -82.5t-70.5 -39.5t-95 -11zM288 29q43 0 77 8t57.5 32.5t36 72t12.5 125.5q0 79 -12.5 126t-36 70.5
t-57.5 31.5t-77 8t-77 -8t-57 -31.5t-35 -70.5t-12 -126q0 -78 12 -125.5t35 -72t57 -32.5t77 -8zM159 685v25h256v-25h-256zM291 753l-131 134h39l116 -134h-24z" />
    <glyph glyph-name="uni1E52" unicode="&#x1e52;" horiz-adv-x="679" 
d="M340 -6q-69 0 -120 13t-85.5 50t-51 110.5t-16.5 194.5q0 122 17 196.5t51.5 113.5t85.5 53t119 14q70 0 121 -14t85 -53t50.5 -113.5t16.5 -196.5q0 -121 -17 -194.5t-51 -110.5t-85 -50t-120 -13zM340 31q61 0 105.5 12t72 46t41 99.5t13.5 173.5q0 114 -14 182
t-41.5 102t-71.5 45t-105 11q-57 0 -100.5 -11t-73 -45t-44 -102t-14.5 -182q0 -108 12 -173.5t39.5 -99.5t72 -46t108.5 -12zM205 845v25h256v-25h-256zM330 915l116 134h39l-131 -134h-24z" />
    <glyph glyph-name="uni1E53" unicode="&#x1e53;" horiz-adv-x="578" 
d="M288 -6q-53 0 -94.5 11t-70 40t-43 83t-14.5 138q0 86 14.5 139.5t43 82.5t70 39.5t94.5 10.5t95 -11t70.5 -39.5t43.5 -82t15 -139.5q0 -85 -15 -139t-43.5 -82.5t-70.5 -39.5t-95 -11zM288 29q43 0 77 8t57.5 32.5t36 72t12.5 125.5q0 79 -12.5 126t-36 70.5
t-57.5 31.5t-77 8t-77 -8t-57 -31.5t-35 -70.5t-12 -126q0 -78 12 -125.5t35 -72t57 -32.5t77 -8zM159 685v25h256v-25h-256zM260 753l116 134h39l-131 -134h-24z" />
    <glyph glyph-name="uni1E56" unicode="&#x1e56;" horiz-adv-x="594" 
d="M85 0v733h281q30 0 61.5 -8.5t59 -32t44 -68t16.5 -115.5q0 -73 -18 -118.5t-47 -70.5t-62 -34t-62 -9q-15 0 -46.5 0.5t-68 2t-69 2.5t-48.5 2v-284h-41zM126 314h229q40 0 74 16.5t55 58t21 119.5q0 77 -20.5 117.5t-52.5 55.5t-68 15h-238v-382zM272 829q-13 0 -13 13
v67q0 13 13 13h19q6 0 9.5 -3.5t3.5 -9.5v-67q0 -13 -13 -13h-19z" />
    <glyph glyph-name="uni1E57" unicode="&#x1e57;" horiz-adv-x="574" 
d="M86 -237v769h31l10 -56q18 11 49.5 26t68.5 25.5t71 10.5q53 0 90 -23.5t59.5 -63t32.5 -87.5t10 -96q0 -92 -22 -153t-64.5 -91t-105.5 -30q-48 0 -97 16.5t-92 42.5v-290h-41zM309 29q47 0 82 23t55.5 75t20.5 141q0 83 -23 135t-58.5 76t-75.5 24q-56 0 -101 -17.5
t-82 -35.5v-368q44 -23 90 -38t92 -15zM262 669q-13 0 -13 13v67q0 13 13 13h19q6 0 9.5 -3.5t3.5 -9.5v-67q0 -13 -13 -13h-19z" />
    <glyph glyph-name="uni1E5A" unicode="&#x1e5a;" horiz-adv-x="597" 
d="M85 0v733h280q32 0 63.5 -7t58 -28t43 -61.5t16.5 -108.5q0 -65 -15 -105t-38.5 -62t-50 -30.5t-50.5 -10.5l158 -320h-41l-156 316q-19 0 -48 1t-62 1.5t-64 1.5t-53 2v-322h-41zM126 351h235q29 0 54.5 6.5t45.5 25t32 53.5t12 92q0 54 -12.5 87t-32.5 50.5t-45.5 24
t-53.5 6.5h-235v-345zM278 -201q-13 0 -13 13v67q0 13 13 13h19q6 0 9.5 -3.5t3.5 -9.5v-67q0 -13 -13 -13h-19z" />
    <glyph glyph-name="uni1E5B" unicode="&#x1e5b;" horiz-adv-x="407" 
d="M86 0v532h30l11 -99q40 46 89 75.5t112 29.5q15 0 28 -1.5t24 -4.5v-41q-11 2 -25 3.5t-30 1.5q-41 0 -72.5 -10.5t-61.5 -31.5t-64 -51v-403h-41zM95 -201q-13 0 -13 13v67q0 13 13 13h19q6 0 9.5 -3.5t3.5 -9.5v-67q0 -13 -13 -13h-19z" />
    <glyph glyph-name="uni1E5E" unicode="&#x1e5e;" horiz-adv-x="597" 
d="M85 0v733h280q32 0 63.5 -7t58 -28t43 -61.5t16.5 -108.5q0 -65 -15 -105t-38.5 -62t-50 -30.5t-50.5 -10.5l158 -320h-41l-156 316q-19 0 -48 1t-62 1.5t-64 1.5t-53 2v-322h-41zM126 351h235q29 0 54.5 6.5t45.5 25t32 53.5t12 92q0 54 -12.5 87t-32.5 50.5t-45.5 24
t-53.5 6.5h-235v-345zM156 -175v25h256v-25h-256z" />
    <glyph glyph-name="uni1E5F" unicode="&#x1e5f;" horiz-adv-x="407" 
d="M86 0v532h30l11 -99q40 46 89 75.5t112 29.5q15 0 28 -1.5t24 -4.5v-41q-11 2 -25 3.5t-30 1.5q-41 0 -72.5 -10.5t-61.5 -31.5t-64 -51v-403h-41zM-27 -175v25h256v-25h-256z" />
    <glyph glyph-name="uni1E60" unicode="&#x1e60;" horiz-adv-x="572" 
d="M285 -6q-18 0 -48 1t-62.5 3.5t-61 4.5t-45.5 6v29q21 -2 56 -3.5t77 -2.5t83 -1q50 0 90.5 10t65.5 38.5t25 82.5v63q0 60 -30 92t-99 32h-88q-83 0 -131.5 36t-48.5 127v45q0 102 52.5 142t147.5 40q27 0 66 -2.5t77.5 -6.5t61.5 -8v-30q-44 3 -98.5 6.5t-104.5 3.5
t-86.5 -12.5t-56 -44t-19.5 -89.5v-42q0 -73 37.5 -99t101.5 -26h91q59 0 95.5 -21t54 -57.5t17.5 -83.5v-64q0 -67 -31 -103.5t-81 -51t-108 -14.5zM270 829q-13 0 -13 13v67q0 13 13 13h19q6 0 9.5 -3.5t3.5 -9.5v-67q0 -13 -13 -13h-19z" />
    <glyph glyph-name="uni1E61" unicode="&#x1e61;" horiz-adv-x="497" 
d="M264 -6q-16 0 -45.5 0.5t-62 2t-59 3t-37.5 2.5v26h208q39 0 69.5 6t48 27.5t17.5 64.5v28q0 43 -28.5 67.5t-88.5 24.5h-71q-48 0 -84 11t-55 38t-19 75v27q0 49 19 80t57.5 45.5t95.5 14.5q26 0 61.5 -1t71.5 -3t59 -6v-25h-196q-62 0 -96 -21.5t-34 -83.5v-25
q0 -38 15.5 -57.5t44 -25.5t64.5 -6h71q68 0 109.5 -32t41.5 -94v-32q0 -54 -24 -82t-64 -38.5t-89 -10.5zM226 669q-13 0 -13 13v67q0 13 13 13h19q6 0 9.5 -3.5t3.5 -9.5v-67q0 -13 -13 -13h-19z" />
    <glyph glyph-name="uni1E62" unicode="&#x1e62;" horiz-adv-x="572" 
d="M285 -6q-18 0 -48 1t-62.5 3.5t-61 4.5t-45.5 6v29q21 -2 56 -3.5t77 -2.5t83 -1q50 0 90.5 10t65.5 38.5t25 82.5v63q0 60 -30 92t-99 32h-88q-83 0 -131.5 36t-48.5 127v45q0 102 52.5 142t147.5 40q27 0 66 -2.5t77.5 -6.5t61.5 -8v-30q-44 3 -98.5 6.5t-104.5 3.5
t-86.5 -12.5t-56 -44t-19.5 -89.5v-42q0 -73 37.5 -99t101.5 -26h91q59 0 95.5 -21t54 -57.5t17.5 -83.5v-64q0 -67 -31 -103.5t-81 -51t-108 -14.5zM268 -201q-13 0 -13 13v67q0 13 13 13h19q6 0 9.5 -3.5t3.5 -9.5v-67q0 -13 -13 -13h-19z" />
    <glyph glyph-name="uni1E63" unicode="&#x1e63;" horiz-adv-x="497" 
d="M264 -6q-16 0 -45.5 0.5t-62 2t-59 3t-37.5 2.5v26h208q39 0 69.5 6t48 27.5t17.5 64.5v28q0 43 -28.5 67.5t-88.5 24.5h-71q-48 0 -84 11t-55 38t-19 75v27q0 49 19 80t57.5 45.5t95.5 14.5q26 0 61.5 -1t71.5 -3t59 -6v-25h-196q-62 0 -96 -21.5t-34 -83.5v-25
q0 -38 15.5 -57.5t44 -25.5t64.5 -6h71q68 0 109.5 -32t41.5 -94v-32q0 -54 -24 -82t-64 -38.5t-89 -10.5zM224 -201q-13 0 -13 13v67q0 13 13 13h19q6 0 9.5 -3.5t3.5 -9.5v-67q0 -13 -13 -13h-19z" />
    <glyph glyph-name="uni1E64" unicode="&#x1e64;" horiz-adv-x="572" 
d="M285 -6q-18 0 -48 1t-62.5 3.5t-61 4.5t-45.5 6v29q21 -2 56 -3.5t77 -2.5t83 -1q50 0 90.5 10t65.5 38.5t25 82.5v63q0 60 -30 92t-99 32h-88q-83 0 -131.5 36t-48.5 127v45q0 102 52.5 142t147.5 40q27 0 66 -2.5t77.5 -6.5t61.5 -8v-30q-44 3 -98.5 6.5t-104.5 3.5
t-86.5 -12.5t-56 -44t-19.5 -89.5v-42q0 -73 37.5 -99t101.5 -26h91q59 0 95.5 -21t54 -57.5t17.5 -83.5v-64q0 -67 -31 -103.5t-81 -51t-108 -14.5zM233 791l116 134h39l-131 -134h-24zM302 954q-13 0 -13 13v67q0 13 13 13h19q6 0 9.5 -3.5t3.5 -9.5v-67q0 -13 -13 -13
h-19z" />
    <glyph glyph-name="uni1E65" unicode="&#x1e65;" horiz-adv-x="497" 
d="M264 -6q-16 0 -45.5 0.5t-62 2t-59 3t-37.5 2.5v26h208q39 0 69.5 6t48 27.5t17.5 64.5v28q0 43 -28.5 67.5t-88.5 24.5h-71q-48 0 -84 11t-55 38t-19 75v27q0 49 19 80t57.5 45.5t95.5 14.5q26 0 61.5 -1t71.5 -3t59 -6v-25h-196q-62 0 -96 -21.5t-34 -83.5v-25
q0 -38 15.5 -57.5t44 -25.5t64.5 -6h71q68 0 109.5 -32t41.5 -94v-32q0 -54 -24 -82t-64 -38.5t-89 -10.5zM170 631l116 134h39l-131 -134h-24zM238 794q-13 0 -13 13v67q0 13 13 13h19q6 0 9.5 -3.5t3.5 -9.5v-67q0 -13 -13 -13h-19z" />
    <glyph glyph-name="uni1E66" unicode="&#x1e66;" horiz-adv-x="572" 
d="M285 -6q-18 0 -48 1t-62.5 3.5t-61 4.5t-45.5 6v29q21 -2 56 -3.5t77 -2.5t83 -1q50 0 90.5 10t65.5 38.5t25 82.5v63q0 60 -30 92t-99 32h-88q-83 0 -131.5 36t-48.5 127v45q0 102 52.5 142t147.5 40q27 0 66 -2.5t77.5 -6.5t61.5 -8v-30q-44 3 -98.5 6.5t-104.5 3.5
t-86.5 -12.5t-56 -44t-19.5 -89.5v-42q0 -73 37.5 -99t101.5 -26h91q59 0 95.5 -21t54 -57.5t17.5 -83.5v-64q0 -67 -31 -103.5t-81 -51t-108 -14.5zM264 791l-117 132h27l106 -110l117 110h27l-129 -132h-31zM270 955q-13 0 -13 13v67q0 13 13 13h19q6 0 9.5 -3.5t3.5 -9.5
v-67q0 -13 -13 -13h-19z" />
    <glyph glyph-name="uni1E67" unicode="&#x1e67;" horiz-adv-x="497" 
d="M264 -6q-16 0 -45.5 0.5t-62 2t-59 3t-37.5 2.5v26h208q39 0 69.5 6t48 27.5t17.5 64.5v28q0 43 -28.5 67.5t-88.5 24.5h-71q-48 0 -84 11t-55 38t-19 75v27q0 49 19 80t57.5 45.5t95.5 14.5q26 0 61.5 -1t71.5 -3t59 -6v-25h-196q-62 0 -96 -21.5t-34 -83.5v-25
q0 -38 15.5 -57.5t44 -25.5t64.5 -6h71q68 0 109.5 -32t41.5 -94v-32q0 -54 -24 -82t-64 -38.5t-89 -10.5zM220 631l-117 132h27l106 -110l117 110h27l-129 -132h-31zM226 795q-13 0 -13 13v67q0 13 13 13h19q6 0 9.5 -3.5t3.5 -9.5v-67q0 -13 -13 -13h-19z" />
    <glyph glyph-name="uni1E68" unicode="&#x1e68;" horiz-adv-x="572" 
d="M285 -6q-18 0 -48 1t-62.5 3.5t-61 4.5t-45.5 6v29q21 -2 56 -3.5t77 -2.5t83 -1q50 0 90.5 10t65.5 38.5t25 82.5v63q0 60 -30 92t-99 32h-88q-83 0 -131.5 36t-48.5 127v45q0 102 52.5 142t147.5 40q27 0 66 -2.5t77.5 -6.5t61.5 -8v-30q-44 3 -98.5 6.5t-104.5 3.5
t-86.5 -12.5t-56 -44t-19.5 -89.5v-42q0 -73 37.5 -99t101.5 -26h91q59 0 95.5 -21t54 -57.5t17.5 -83.5v-64q0 -67 -31 -103.5t-81 -51t-108 -14.5zM268 -201q-13 0 -13 13v67q0 13 13 13h19q6 0 9.5 -3.5t3.5 -9.5v-67q0 -13 -13 -13h-19zM270 829q-13 0 -13 13v67
q0 13 13 13h19q6 0 9.5 -3.5t3.5 -9.5v-67q0 -13 -13 -13h-19z" />
    <glyph glyph-name="uni1E69" unicode="&#x1e69;" horiz-adv-x="497" 
d="M264 -6q-16 0 -45.5 0.5t-62 2t-59 3t-37.5 2.5v26h208q39 0 69.5 6t48 27.5t17.5 64.5v28q0 43 -28.5 67.5t-88.5 24.5h-71q-48 0 -84 11t-55 38t-19 75v27q0 49 19 80t57.5 45.5t95.5 14.5q26 0 61.5 -1t71.5 -3t59 -6v-25h-196q-62 0 -96 -21.5t-34 -83.5v-25
q0 -38 15.5 -57.5t44 -25.5t64.5 -6h71q68 0 109.5 -32t41.5 -94v-32q0 -54 -24 -82t-64 -38.5t-89 -10.5zM224 -201q-13 0 -13 13v67q0 13 13 13h19q6 0 9.5 -3.5t3.5 -9.5v-67q0 -13 -13 -13h-19zM226 669q-13 0 -13 13v67q0 13 13 13h19q6 0 9.5 -3.5t3.5 -9.5v-67
q0 -13 -13 -13h-19z" />
    <glyph glyph-name="uni1E6A" unicode="&#x1e6a;" horiz-adv-x="555" 
d="M257 0v696h-241v37h523v-37h-241v-696h-41zM267 829q-13 0 -13 13v67q0 13 13 13h19q6 0 9.5 -3.5t3.5 -9.5v-67q0 -13 -13 -13h-19z" />
    <glyph glyph-name="uni1E6B" unicode="&#x1e6b;" horiz-adv-x="355" 
d="M248 0q-45 0 -77 16.5t-47.5 52.5t-15.5 93l3 335h-86v26l85 9l9 149h30v-149h168v-35h-168v-334q0 -42 9 -67t24 -37.5t31.5 -17.5t30.5 -6l65 -6v-29h-61zM127 751q-13 0 -13 13v67q0 13 13 13h19q6 0 9.5 -3.5t3.5 -9.5v-67q0 -13 -13 -13h-19z" />
    <glyph glyph-name="uni1E6C" unicode="&#x1e6c;" horiz-adv-x="555" 
d="M257 0v696h-241v37h523v-37h-241v-696h-41zM265 -201q-13 0 -13 13v67q0 13 13 13h19q6 0 9.5 -3.5t3.5 -9.5v-67q0 -13 -13 -13h-19z" />
    <glyph glyph-name="uni1E6D" unicode="&#x1e6d;" horiz-adv-x="355" 
d="M248 0q-45 0 -77 16.5t-47.5 52.5t-15.5 93l3 335h-86v26l85 9l9 149h30v-149h168v-35h-168v-334q0 -42 9 -67t24 -37.5t31.5 -17.5t30.5 -6l65 -6v-29h-61zM172 -201q-13 0 -13 13v67q0 13 13 13h19q6 0 9.5 -3.5t3.5 -9.5v-67q0 -13 -13 -13h-19z" />
    <glyph glyph-name="uni1E6E" unicode="&#x1e6e;" horiz-adv-x="555" 
d="M257 0v696h-241v37h523v-37h-241v-696h-41zM143 -175v25h256v-25h-256z" />
    <glyph glyph-name="uni1E6F" unicode="&#x1e6f;" horiz-adv-x="355" 
d="M248 0q-45 0 -77 16.5t-47.5 52.5t-15.5 93l3 335h-86v26l85 9l9 149h30v-149h168v-35h-168v-334q0 -42 9 -67t24 -37.5t31.5 -17.5t30.5 -6l65 -6v-29h-61zM50 -175v25h256v-25h-256z" />
    <glyph glyph-name="uni1E78" unicode="&#x1e78;" horiz-adv-x="670" 
d="M335 -6q-62 0 -110.5 11.5t-82 37.5t-50.5 70t-17 109v511h41v-510q0 -76 26 -117.5t75 -58t118 -16.5t118.5 16.5t75.5 58t26 117.5v510h41v-511q0 -65 -17.5 -109t-51 -70t-82 -37.5t-110.5 -11.5zM171 817q1 36 14.5 56t34.5 29t41 9q24 0 44.5 -10.5t40 -24t38 -24
t38.5 -10.5q30 0 50.5 17.5t20.5 52.5h22q0 -43 -24.5 -69t-68.5 -26q-22 0 -42 10.5t-39.5 24t-39 24t-40.5 10.5q-26 0 -47 -16t-21 -53h-22zM325 941l116 134h39l-131 -134h-24z" />
    <glyph glyph-name="uni1E79" unicode="&#x1e79;" horiz-adv-x="584" 
d="M249 -6q-78 0 -120.5 38t-42.5 127v373h41v-367q0 -79 35.5 -106.5t101.5 -27.5q57 0 101.5 14.5t94.5 42.5v444h41v-532h-29l-12 61q-42 -27 -96.5 -47t-114.5 -20zM125 657q1 36 14.5 56t34.5 29t41 9q24 0 44.5 -10.5t40 -24t38 -24t38.5 -10.5q30 0 50.5 17.5
t20.5 52.5h22q0 -43 -24.5 -69t-68.5 -26q-22 0 -42 10.5t-39.5 24t-39 24t-40.5 10.5q-26 0 -47 -16t-21 -53h-22zM254 782l116 134h39l-131 -134h-24z" />
    <glyph glyph-name="uni1E7A" unicode="&#x1e7a;" horiz-adv-x="670" 
d="M335 -6q-62 0 -110.5 11.5t-82 37.5t-50.5 70t-17 109v511h41v-510q0 -76 26 -117.5t75 -58t118 -16.5t118.5 16.5t75.5 58t26 117.5v510h41v-511q0 -65 -17.5 -109t-51 -70t-82 -37.5t-110.5 -11.5zM199 845v25h256v-25h-256zM441 945q-14 0 -14 13v67q0 13 14 13h18
q7 0 10 -3.5t3 -9.5v-67q0 -13 -13 -13h-18zM192 945q-13 0 -13 13v67q0 13 13 13h19q7 0 10 -3.5t3 -9.5v-67q0 -13 -13 -13h-19z" />
    <glyph glyph-name="uni1E7B" unicode="&#x1e7b;" horiz-adv-x="584" 
d="M249 -6q-78 0 -120.5 38t-42.5 127v373h41v-367q0 -79 35.5 -106.5t101.5 -27.5q57 0 101.5 14.5t94.5 42.5v444h41v-532h-29l-12 61q-42 -27 -96.5 -47t-114.5 -20zM153 685v25h256v-25h-256zM370 786q-14 0 -14 13v67q0 13 14 13h18q7 0 10.5 -3.5t3.5 -9.5v-67
q0 -13 -14 -13h-18zM175 786q-13 0 -13 13v67q0 13 13 13h19q7 0 10 -3.5t3 -9.5v-67q0 -13 -13 -13h-19z" />
    <glyph glyph-name="Wgrave" unicode="&#x1e80;" horiz-adv-x="991" 
d="M239 0l-195 733h42l180 -685l206 685h48l205 -685l181 685h41l-195 -733h-50l-206 683l-207 -683h-50zM483 791l-131 134h39l116 -134h-24z" />
    <glyph glyph-name="wgrave" unicode="&#x1e81;" horiz-adv-x="781" 
d="M196 0l-174 532h42l156 -493l152 493h39l151 -493l155 493h42l-173 -532h-45l-150 483l-151 -483h-44zM399 631l-131 134h39l116 -134h-24z" />
    <glyph glyph-name="Wacute" unicode="&#x1e82;" horiz-adv-x="991" 
d="M239 0l-195 733h42l180 -685l206 685h48l205 -685l181 685h41l-195 -733h-50l-206 683l-207 -683h-50zM487 791l116 134h39l-131 -134h-24z" />
    <glyph glyph-name="wacute" unicode="&#x1e83;" horiz-adv-x="781" 
d="M196 0l-174 532h42l156 -493l152 493h39l151 -493l155 493h42l-173 -532h-45l-150 483l-151 -483h-44zM367 631l116 134h39l-131 -134h-24z" />
    <glyph glyph-name="Wdieresis" unicode="&#x1e84;" horiz-adv-x="991" 
d="M239 0l-195 733h42l180 -685l206 685h48l205 -685l181 685h41l-195 -733h-50l-206 683l-207 -683h-50zM603 822q-14 0 -14 13v67q0 13 14 13h18q7 0 10 -3.5t3 -9.5v-67q0 -13 -13 -13h-18zM354 822q-13 0 -13 13v67q0 13 13 13h19q7 0 10 -3.5t3 -9.5v-67q0 -13 -13 -13
h-19z" />
    <glyph glyph-name="wdieresis" unicode="&#x1e85;" horiz-adv-x="781" 
d="M196 0l-174 532h42l156 -493l152 493h39l151 -493l155 493h42l-173 -532h-45l-150 483l-151 -483h-44zM482 662q-14 0 -14 13v67q0 13 14 13h18q7 0 10.5 -3.5t3.5 -9.5v-67q0 -13 -14 -13h-18zM287 662q-13 0 -13 13v67q0 13 13 13h19q7 0 10 -3.5t3 -9.5v-67
q0 -13 -13 -13h-19z" />
    <glyph glyph-name="uni1E8E" unicode="&#x1e8e;" horiz-adv-x="612" 
d="M286 0v255l-240 478h43l218 -437l217 437h43l-240 -478v-255h-41zM295 -201q-13 0 -13 13v67q0 13 13 13h19q6 0 9.5 -3.5t3.5 -9.5v-67q0 -13 -13 -13h-19z" />
    <glyph glyph-name="uni1E8F" unicode="&#x1e8f;" horiz-adv-x="526" 
d="M216 -237l74 237q-15 1 -38 9t-46 32t-40 74l-144 417h44l139 -408q13 -36 28.5 -54t31 -25t25.5 -7h10l161 494h42l-214 -670l-46 -99h-27zM413 -201q-13 0 -13 13v67q0 13 13 13h19q6 0 9.5 -3.5t3.5 -9.5v-67q0 -13 -13 -13h-19z" />
    <glyph glyph-name="uni1E92" unicode="&#x1e92;" horiz-adv-x="552" 
d="M46 0v35l418 661h-418v37h468v-35l-419 -661h419v-37h-468zM264 -201q-13 0 -13 13v67q0 13 13 13h19q6 0 9.5 -3.5t3.5 -9.5v-67q0 -13 -13 -13h-19z" />
    <glyph glyph-name="uni1E93" unicode="&#x1e93;" horiz-adv-x="489" 
d="M55 0v34l337 463h-344v35h393v-34l-340 -463h340v-35h-386zM220 -201q-13 0 -13 13v67q0 13 13 13h19q6 0 9.5 -3.5t3.5 -9.5v-67q0 -13 -13 -13h-19z" />
    <glyph glyph-name="uni1E97" unicode="&#x1e97;" horiz-adv-x="355" 
d="M248 0q-45 0 -77 16.5t-47.5 52.5t-15.5 93l3 335h-86v26l85 9l9 149h30v-149h168v-35h-168v-334q0 -42 9 -67t24 -37.5t31.5 -17.5t30.5 -6l65 -6v-29h-61zM227 744q-14 0 -14 13v67q0 13 14 13h18q7 0 10.5 -3.5t3.5 -9.5v-67q0 -13 -14 -13h-18zM32 744q-13 0 -13 13
v67q0 13 13 13h19q7 0 10 -3.5t3 -9.5v-67q0 -13 -13 -13h-19z" />
    <glyph glyph-name="uni1E9E" unicode="&#x1e9e;" horiz-adv-x="642" 
d="M85 0v576q0 59 22 93.5t57.5 49t75.5 14.5q54 0 104.5 -1t100.5 -1.5t100 -2.5l-10 -32h-294q-53 0 -84 -29t-31 -91v-576h-41zM358 -6q-15 0 -42.5 2t-54 5t-41.5 5v30q20 -2 58 -3.5t77 -1.5q49 0 89.5 10t65 38.5t24.5 82.5v62q0 61 -30 92.5t-101 31.5h-120v37h125
q86 0 126.5 -43t40.5 -117v-64q0 -66 -31 -102.5t-80 -50.5t-106 -14zM301 381l186 300l36 32l22 -1l-204 -311z" />
    <glyph glyph-name="uni1EA0" unicode="&#x1ea0;" horiz-adv-x="669" 
d="M44 0l263 733h55l263 -733h-44l-87 241h-320l-87 -241h-43zM184 278h297l-147 417zM322 -201q-13 0 -13 13v67q0 13 13 13h19q6 0 9.5 -3.5t3.5 -9.5v-67q0 -13 -13 -13h-19z" />
    <glyph glyph-name="uni1EA1" unicode="&#x1ea1;" horiz-adv-x="541" 
d="M185 -6q-58 0 -96 34.5t-38 97.5v34q0 63 41 102t121 39h205v82q0 38 -13 65.5t-45 43t-92 15.5h-169v25q33 3 77 5.5t101 3.5q65 1 105 -16.5t58.5 -52.5t18.5 -88v-384h-30l-10 63q-2 -1 -24.5 -11.5t-58 -24t-75.5 -23.5t-76 -10zM195 29q22 -1 51 5t59 14t55.5 17
t41.5 15l16 6v191l-204 -6q-67 -3 -94.5 -34t-27.5 -77v-26q0 -39 16 -62.5t40 -32.5t47 -10zM258 -201q-13 0 -13 13v67q0 13 13 13h19q6 0 9.5 -3.5t3.5 -9.5v-67q0 -13 -13 -13h-19z" />
    <glyph glyph-name="uni1EA2" unicode="&#x1ea2;" horiz-adv-x="669" 
d="M44 0l263 733h55l263 -733h-44l-87 241h-320l-87 -241h-43zM184 278h297l-147 417zM316 770v21q37 11 51.5 30t14.5 39q0 25 -13 39.5t-44 14.5q-9 0 -18.5 -1.5t-18.5 -4.5v20q11 4 21 5t21 1q39 0 57.5 -20.5t18.5 -53.5q0 -27 -21.5 -52t-68.5 -38z" />
    <glyph glyph-name="uni1EA3" unicode="&#x1ea3;" horiz-adv-x="541" 
d="M185 -6q-58 0 -96 34.5t-38 97.5v34q0 63 41 102t121 39h205v82q0 38 -13 65.5t-45 43t-92 15.5h-169v25q33 3 77 5.5t101 3.5q65 1 105 -16.5t58.5 -52.5t18.5 -88v-384h-30l-10 63q-2 -1 -24.5 -11.5t-58 -24t-75.5 -23.5t-76 -10zM195 29q22 -1 51 5t59 14t55.5 17
t41.5 15l16 6v191l-204 -6q-67 -3 -94.5 -34t-27.5 -77v-26q0 -39 16 -62.5t40 -32.5t47 -10zM257 608v21q37 11 51.5 30t14.5 39q0 25 -13 39.5t-44 14.5q-9 0 -18.5 -1.5t-18.5 -4.5v20q11 4 21 5t21 1q39 0 57.5 -20.5t18.5 -53.5q0 -27 -21.5 -52t-68.5 -38z" />
    <glyph glyph-name="uni1EA4" unicode="&#x1ea4;" horiz-adv-x="669" 
d="M44 0l263 733h55l263 -733h-44l-87 241h-320l-87 -241h-43zM184 278h297l-147 417zM321 884h31l117 -93h-27l-106 71l-117 -71h-27zM523 995h39l-126 -132h-24z" />
    <glyph glyph-name="uni1EA5" unicode="&#x1ea5;" horiz-adv-x="541" 
d="M185 -6q-58 0 -96 34.5t-38 97.5v34q0 63 41 102t121 39h205v82q0 38 -13 65.5t-45 43t-92 15.5h-169v25q33 3 77 5.5t101 3.5q65 1 105 -16.5t58.5 -52.5t18.5 -88v-384h-30l-10 63q-2 -1 -24.5 -11.5t-58 -24t-75.5 -23.5t-76 -10zM195 29q22 -1 51 5t59 14t55.5 17
t41.5 15l16 6v191l-204 -6q-67 -3 -94.5 -34t-27.5 -77v-26q0 -39 16 -62.5t40 -32.5t47 -10zM257 724h31l117 -93h-27l-106 71l-117 -71h-27zM459 835h39l-126 -132h-24z" />
    <glyph glyph-name="uni1EA6" unicode="&#x1ea6;" horiz-adv-x="669" 
d="M44 0l263 733h55l263 -733h-44l-87 241h-320l-87 -241h-43zM184 278h297l-147 417zM321 884h31l117 -93h-27l-106 71l-117 -71h-27zM105 995h39l111 -132h-24z" />
    <glyph glyph-name="uni1EA7" unicode="&#x1ea7;" horiz-adv-x="541" 
d="M185 -6q-58 0 -96 34.5t-38 97.5v34q0 63 41 102t121 39h205v82q0 38 -13 65.5t-45 43t-92 15.5h-169v25q33 3 77 5.5t101 3.5q65 1 105 -16.5t58.5 -52.5t18.5 -88v-384h-30l-10 63q-2 -1 -24.5 -11.5t-58 -24t-75.5 -23.5t-76 -10zM195 29q22 -1 51 5t59 14t55.5 17
t41.5 15l16 6v191l-204 -6q-67 -3 -94.5 -34t-27.5 -77v-26q0 -39 16 -62.5t40 -32.5t47 -10zM257 724h31l117 -93h-27l-106 71l-117 -71h-27zM41 835h39l111 -132h-24z" />
    <glyph glyph-name="uni1EA8" unicode="&#x1ea8;" horiz-adv-x="669" 
d="M44 0l263 733h55l263 -733h-44l-87 241h-320l-87 -241h-43zM184 278h297l-147 417zM192 791l129 93h31l117 -93h-27l-106 71l-117 -71h-27zM435 841v21q33 10 46.5 26.5t13.5 33.5q0 21 -11.5 32.5t-39.5 11.5q-9 0 -18.5 -1.5t-18.5 -4.5v19q11 4 21 5t21 1
q36 0 52.5 -17.5t16.5 -45.5q0 -24 -20 -46.5t-63 -34.5z" />
    <glyph glyph-name="uni1EA9" unicode="&#x1ea9;" horiz-adv-x="541" 
d="M185 -6q-58 0 -96 34.5t-38 97.5v34q0 63 41 102t121 39h205v82q0 38 -13 65.5t-45 43t-92 15.5h-169v25q33 3 77 5.5t101 3.5q65 1 105 -16.5t58.5 -52.5t18.5 -88v-384h-30l-10 63q-2 -1 -24.5 -11.5t-58 -24t-75.5 -23.5t-76 -10zM195 29q22 -1 51 5t59 14t55.5 17
t41.5 15l16 6v191l-204 -6q-67 -3 -94.5 -34t-27.5 -77v-26q0 -39 16 -62.5t40 -32.5t47 -10zM128 631l129 93h31l117 -93h-27l-106 71l-117 -71h-27zM371 681v21q33 10 46.5 26.5t13.5 33.5q0 21 -11.5 32.5t-39.5 11.5q-9 0 -18.5 -1.5t-18.5 -4.5v19q11 4 21 5t21 1
q36 0 52.5 -17.5t16.5 -45.5q0 -24 -20 -46.5t-63 -34.5z" />
    <glyph glyph-name="uni1EAA" unicode="&#x1eaa;" horiz-adv-x="669" 
d="M44 0l263 733h55l263 -733h-44l-87 241h-320l-87 -241h-43zM184 278h297l-147 417zM174 932q1 29 13 44.5t30.5 22.5t35.5 7q31 0 56.5 -12.5t50 -25t50.5 -12.5t44 13t18 37h22q0 -22 -10 -38.5t-28 -25.5t-44 -9q-28 0 -53.5 12.5t-51 24.5t-53.5 12q-23 0 -40.5 -11.5
t-17.5 -38.5h-22zM352 884l117 -93h-27l-106 71l-117 -71h-27l129 93h31z" />
    <glyph glyph-name="uni1EAB" unicode="&#x1eab;" horiz-adv-x="541" 
d="M185 -6q-58 0 -96 34.5t-38 97.5v34q0 63 41 102t121 39h205v82q0 38 -13 65.5t-45 43t-92 15.5h-169v25q33 3 77 5.5t101 3.5q65 1 105 -16.5t58.5 -52.5t18.5 -88v-384h-30l-10 63q-2 -1 -24.5 -11.5t-58 -24t-75.5 -23.5t-76 -10zM195 29q22 -1 51 5t59 14t55.5 17
t41.5 15l16 6v191l-204 -6q-67 -3 -94.5 -34t-27.5 -77v-26q0 -39 16 -62.5t40 -32.5t47 -10zM110 772q1 29 13 44.5t30.5 22.5t35.5 7q31 0 56.5 -12.5t50 -25t50.5 -12.5t44 13t18 37h22q0 -22 -10 -38.5t-28 -25.5t-44 -9q-28 0 -53.5 12.5t-51 24.5t-53.5 12
q-23 0 -40.5 -11.5t-17.5 -38.5h-22zM288 724l117 -93h-27l-106 71l-117 -71h-27l129 93h31z" />
    <glyph glyph-name="uni1EAC" unicode="&#x1eac;" horiz-adv-x="669" 
d="M44 0l263 733h55l263 -733h-44l-87 241h-320l-87 -241h-43zM184 278h297l-147 417zM192 791l129 132h31l117 -132h-27l-106 110l-117 -110h-27zM322 -201q-13 0 -13 13v67q0 13 13 13h19q6 0 9.5 -3.5t3.5 -9.5v-67q0 -13 -13 -13h-19z" />
    <glyph glyph-name="uni1EAD" unicode="&#x1ead;" horiz-adv-x="541" 
d="M185 -6q-58 0 -96 34.5t-38 97.5v34q0 63 41 102t121 39h205v82q0 38 -13 65.5t-45 43t-92 15.5h-169v25q33 3 77 5.5t101 3.5q65 1 105 -16.5t58.5 -52.5t18.5 -88v-384h-30l-10 63q-2 -1 -24.5 -11.5t-58 -24t-75.5 -23.5t-76 -10zM195 29q22 -1 51 5t59 14t55.5 17
t41.5 15l16 6v191l-204 -6q-67 -3 -94.5 -34t-27.5 -77v-26q0 -39 16 -62.5t40 -32.5t47 -10zM128 631l129 132h31l117 -132h-27l-106 110l-117 -110h-27zM258 -201q-13 0 -13 13v67q0 13 13 13h19q6 0 9.5 -3.5t3.5 -9.5v-67q0 -13 -13 -13h-19z" />
    <glyph glyph-name="uni1EAE" unicode="&#x1eae;" horiz-adv-x="669" 
d="M44 0l263 733h55l263 -733h-44l-87 241h-320l-87 -241h-43zM184 278h297l-147 417zM222 896q0 -47 31.5 -67t73.5 -19q47 1 76.5 19.5t29.5 66.5h22q0 -42 -19 -65t-48 -32t-61 -9t-60.5 9.5t-47 33t-18.5 63.5h21zM306 894l116 134h39l-131 -134h-24z" />
    <glyph glyph-name="uni1EAF" unicode="&#x1eaf;" horiz-adv-x="541" 
d="M185 -6q-58 0 -96 34.5t-38 97.5v34q0 63 41 102t121 39h205v82q0 38 -13 65.5t-45 43t-92 15.5h-169v25q33 3 77 5.5t101 3.5q65 1 105 -16.5t58.5 -52.5t18.5 -88v-384h-30l-10 63q-2 -1 -24.5 -11.5t-58 -24t-75.5 -23.5t-76 -10zM195 29q22 -1 51 5t59 14t55.5 17
t41.5 15l16 6v191l-204 -6q-67 -3 -94.5 -34t-27.5 -77v-26q0 -39 16 -62.5t40 -32.5t47 -10zM158 736q0 -47 31.5 -67t73.5 -19q47 1 76.5 19.5t29.5 66.5h22q0 -42 -19 -65t-48 -32t-61 -9t-60.5 9.5t-47 33t-18.5 63.5h21zM242 734l116 134h39l-131 -134h-24z" />
    <glyph glyph-name="uni1EB0" unicode="&#x1eb0;" horiz-adv-x="669" 
d="M44 0l263 733h55l263 -733h-44l-87 241h-320l-87 -241h-43zM184 278h297l-147 417zM222 896q0 -47 31.5 -67t73.5 -19q47 1 76.5 19.5t29.5 66.5h22q0 -42 -19 -65t-48 -32t-61 -9t-60.5 9.5t-47 33t-18.5 63.5h21zM336 894l-131 134h39l116 -134h-24z" />
    <glyph glyph-name="uni1EB1" unicode="&#x1eb1;" horiz-adv-x="541" 
d="M185 -6q-58 0 -96 34.5t-38 97.5v34q0 63 41 102t121 39h205v82q0 38 -13 65.5t-45 43t-92 15.5h-169v25q33 3 77 5.5t101 3.5q65 1 105 -16.5t58.5 -52.5t18.5 -88v-384h-30l-10 63q-2 -1 -24.5 -11.5t-58 -24t-75.5 -23.5t-76 -10zM195 29q22 -1 51 5t59 14t55.5 17
t41.5 15l16 6v191l-204 -6q-67 -3 -94.5 -34t-27.5 -77v-26q0 -39 16 -62.5t40 -32.5t47 -10zM158 736q0 -47 31.5 -67t73.5 -19q47 1 76.5 19.5t29.5 66.5h22q0 -42 -19 -65t-48 -32t-61 -9t-60.5 9.5t-47 33t-18.5 63.5h21zM272 734l-131 134h39l116 -134h-24z" />
    <glyph glyph-name="uni1EB2" unicode="&#x1eb2;" horiz-adv-x="669" 
d="M44 0l263 733h55l263 -733h-44l-87 241h-320l-87 -241h-43zM184 278h297l-147 417zM327 790q-32 0 -60.5 9.5t-47 33t-18.5 63.5h21q0 -47 31.5 -67t73.5 -19q47 1 76.5 19.5t29.5 66.5h22q0 -42 -19 -65t-48 -32t-61 -9zM313 853v21q37 11 51.5 30t14.5 39
q0 25 -12.5 39.5t-44.5 14.5q-8 0 -18 -1.5t-19 -4.5v20q11 4 21 5t21 1q39 0 57.5 -20.5t18.5 -53.5q0 -27 -21.5 -52t-68.5 -38z" />
    <glyph glyph-name="uni1EB3" unicode="&#x1eb3;" horiz-adv-x="541" 
d="M185 -6q-58 0 -96 34.5t-38 97.5v34q0 63 41 102t121 39h205v82q0 38 -13 65.5t-45 43t-92 15.5h-169v25q33 3 77 5.5t101 3.5q65 1 105 -16.5t58.5 -52.5t18.5 -88v-384h-30l-10 63q-2 -1 -24.5 -11.5t-58 -24t-75.5 -23.5t-76 -10zM195 29q22 -1 51 5t59 14t55.5 17
t41.5 15l16 6v191l-204 -6q-67 -3 -94.5 -34t-27.5 -77v-26q0 -39 16 -62.5t40 -32.5t47 -10zM263 630q-32 0 -60.5 9.5t-47 33t-18.5 63.5h21q0 -47 31.5 -67t73.5 -19q47 1 76.5 19.5t29.5 66.5h22q0 -42 -19 -65t-48 -32t-61 -9zM249 693v21q37 11 51.5 30t14.5 39
q0 25 -12.5 39.5t-44.5 14.5q-8 0 -18 -1.5t-19 -4.5v20q11 4 21 5t21 1q39 0 57.5 -20.5t18.5 -53.5q0 -27 -21.5 -52t-68.5 -38z" />
    <glyph glyph-name="uni1EB4" unicode="&#x1eb4;" horiz-adv-x="669" 
d="M44 0l263 733h55l263 -733h-44l-87 241h-320l-87 -241h-43zM184 278h297l-147 417zM222 896q0 -47 31.5 -67t73.5 -19q47 1 76.5 19.5t29.5 66.5h22q0 -42 -19 -65t-48 -32t-61 -9t-60.5 9.5t-47 33t-18.5 63.5h21zM174 930q1 29 13 44.5t30.5 22.5t35.5 7
q31 0 56.5 -12.5t50 -25t50.5 -12.5t44 13t18 37h22q0 -22 -10 -38.5t-28 -25.5t-44 -9q-28 0 -53.5 12.5t-50.5 24.5t-53 12q-23 0 -41 -11.5t-18 -38.5h-22z" />
    <glyph glyph-name="uni1EB5" unicode="&#x1eb5;" horiz-adv-x="541" 
d="M185 -6q-58 0 -96 34.5t-38 97.5v34q0 63 41 102t121 39h205v82q0 38 -13 65.5t-45 43t-92 15.5h-169v25q33 3 77 5.5t101 3.5q65 1 105 -16.5t58.5 -52.5t18.5 -88v-384h-30l-10 63q-2 -1 -24.5 -11.5t-58 -24t-75.5 -23.5t-76 -10zM195 29q22 -1 51 5t59 14t55.5 17
t41.5 15l16 6v191l-204 -6q-67 -3 -94.5 -34t-27.5 -77v-26q0 -39 16 -62.5t40 -32.5t47 -10zM158 736q0 -47 31.5 -67t73.5 -19q47 1 76.5 19.5t29.5 66.5h22q0 -42 -19 -65t-48 -32t-61 -9t-60.5 9.5t-47 33t-18.5 63.5h21zM110 770q1 29 13 44.5t30.5 22.5t35.5 7
q31 0 56.5 -12.5t50 -25t50.5 -12.5t44 13t18 37h22q0 -22 -10 -38.5t-28 -25.5t-44 -9q-28 0 -53.5 12.5t-50.5 24.5t-53 12q-23 0 -41 -11.5t-18 -38.5h-22z" />
    <glyph glyph-name="uni1EB6" unicode="&#x1eb6;" horiz-adv-x="669" 
d="M44 0l263 733h55l263 -733h-44l-87 241h-320l-87 -241h-43zM184 278h297l-147 417zM327 792q-32 0 -60.5 12t-47 42t-18.5 82h21q0 -63 31 -89.5t74 -25.5q47 1 76.5 26t29.5 89h22q0 -54 -19 -83.5t-48 -41t-61 -11.5zM322 -201q-13 0 -13 13v67q0 13 13 13h19
q6 0 9.5 -3.5t3.5 -9.5v-67q0 -13 -13 -13h-19z" />
    <glyph glyph-name="uni1EB7" unicode="&#x1eb7;" horiz-adv-x="541" 
d="M185 -6q-58 0 -96 34.5t-38 97.5v34q0 63 41 102t121 39h205v82q0 38 -13 65.5t-45 43t-92 15.5h-169v25q33 3 77 5.5t101 3.5q65 1 105 -16.5t58.5 -52.5t18.5 -88v-384h-30l-10 63q-2 -1 -24.5 -11.5t-58 -24t-75.5 -23.5t-76 -10zM195 29q22 -1 51 5t59 14t55.5 17
t41.5 15l16 6v191l-204 -6q-67 -3 -94.5 -34t-27.5 -77v-26q0 -39 16 -62.5t40 -32.5t47 -10zM263 632q-32 0 -60.5 12t-47 42t-18.5 82h21q0 -63 31 -89.5t74 -25.5q47 1 76.5 26t29.5 89h22q0 -54 -19 -83.5t-48 -41t-61 -11.5zM258 -201q-13 0 -13 13v67q0 13 13 13h19
q6 0 9.5 -3.5t3.5 -9.5v-67q0 -13 -13 -13h-19z" />
    <glyph glyph-name="uni1EB8" unicode="&#x1eb8;" horiz-adv-x="581" 
d="M228 -3q-25 0 -50 4t-46 17t-34 39.5t-13 70.5v470q0 38 11 64.5t30 42t42.5 22t48.5 6.5q53 -1 103.5 -2t99.5 -2.5t97 -2.5v-31h-294q-44 0 -70.5 -24t-26.5 -77v-212l350 -3v-30l-350 -4v-212q0 -44 15 -65t39.5 -27t50.5 -6h286v-31q-47 -2 -95.5 -3l-97 -2t-96.5 -2
zM301 -201q-13 0 -13 13v67q0 13 13 13h19q6 0 9.5 -3.5t3.5 -9.5v-67q0 -13 -13 -13h-19z" />
    <glyph glyph-name="uni1EB9" unicode="&#x1eb9;" horiz-adv-x="543" 
d="M279 -6q-81 0 -128 26t-66 85.5t-19 162.5q0 105 21 163.5t68.5 82.5t126.5 24q66 0 109 -15.5t64.5 -53t21.5 -103.5q0 -43 -17 -69.5t-48.5 -38.5t-75.5 -12h-229q0 -80 14.5 -127.5t53 -69t111.5 -21.5h180v-26q-49 -4 -91.5 -6t-95.5 -2zM107 277h227q53 0 79 19
t26 70q0 54 -15.5 84t-50 42.5t-91.5 12.5q-68 0 -106.5 -19.5t-53.5 -69t-15 -139.5zM258 -201q-13 0 -13 13v67q0 13 13 13h19q6 0 9.5 -3.5t3.5 -9.5v-67q0 -13 -13 -13h-19z" />
    <glyph glyph-name="uni1EBA" unicode="&#x1eba;" horiz-adv-x="581" 
d="M228 -3q-25 0 -50 4t-46 17t-34 39.5t-13 70.5v470q0 38 11 64.5t30 42t42.5 22t48.5 6.5q53 -1 103.5 -2t99.5 -2.5t97 -2.5v-31h-294q-44 0 -70.5 -24t-26.5 -77v-212l350 -3v-30l-350 -4v-212q0 -44 15 -65t39.5 -27t50.5 -6h286v-31q-47 -2 -95.5 -3l-97 -2t-96.5 -2
zM292 770v21q37 11 51.5 30t14.5 39q0 25 -13 39.5t-44 14.5q-9 0 -18.5 -1.5t-18.5 -4.5v20q11 4 21 5t21 1q39 0 57.5 -20.5t18.5 -53.5q0 -27 -21.5 -52t-68.5 -38z" />
    <glyph glyph-name="uni1EBB" unicode="&#x1ebb;" horiz-adv-x="543" 
d="M279 -6q-81 0 -128 26t-66 85.5t-19 162.5q0 105 21 163.5t68.5 82.5t126.5 24q66 0 109 -15.5t64.5 -53t21.5 -103.5q0 -43 -17 -69.5t-48.5 -38.5t-75.5 -12h-229q0 -80 14.5 -127.5t53 -69t111.5 -21.5h180v-26q-49 -4 -91.5 -6t-95.5 -2zM107 277h227q53 0 79 19
t26 70q0 54 -15.5 84t-50 42.5t-91.5 12.5q-68 0 -106.5 -19.5t-53.5 -69t-15 -139.5zM257 608v21q37 11 51.5 30t14.5 39q0 25 -13 39.5t-44 14.5q-9 0 -18.5 -1.5t-18.5 -4.5v20q11 4 21 5t21 1q39 0 57.5 -20.5t18.5 -53.5q0 -27 -21.5 -52t-68.5 -38z" />
    <glyph glyph-name="uni1EBC" unicode="&#x1ebc;" horiz-adv-x="581" 
d="M228 -3q-25 0 -50 4t-46 17t-34 39.5t-13 70.5v470q0 38 11 64.5t30 42t42.5 22t48.5 6.5q53 -1 103.5 -2t99.5 -2.5t97 -2.5v-31h-294q-44 0 -70.5 -24t-26.5 -77v-212l350 -3v-30l-350 -4v-212q0 -44 15 -65t39.5 -27t50.5 -6h286v-31q-47 -2 -95.5 -3l-97 -2t-96.5 -2
zM147 817q1 36 14.5 56t34.5 29t41 9q24 0 44.5 -10.5t40 -24t38 -24t38.5 -10.5q30 0 50.5 17.5t20.5 52.5h22q0 -43 -24.5 -69t-68.5 -26q-22 0 -42 10.5t-39.5 24t-39 24t-40.5 10.5q-26 0 -47 -16t-21 -53h-22z" />
    <glyph glyph-name="uni1EBD" unicode="&#x1ebd;" horiz-adv-x="543" 
d="M279 -6q-81 0 -128 26t-66 85.5t-19 162.5q0 105 21 163.5t68.5 82.5t126.5 24q66 0 109 -15.5t64.5 -53t21.5 -103.5q0 -43 -17 -69.5t-48.5 -38.5t-75.5 -12h-229q0 -80 14.5 -127.5t53 -69t111.5 -21.5h180v-26q-49 -4 -91.5 -6t-95.5 -2zM107 277h227q53 0 79 19
t26 70q0 54 -15.5 84t-50 42.5t-91.5 12.5q-68 0 -106.5 -19.5t-53.5 -69t-15 -139.5zM113 657q1 36 14.5 56t34.5 29t41 9q24 0 44.5 -10.5t40 -24t38 -24t38.5 -10.5q30 0 50.5 17.5t20.5 52.5h22q0 -43 -24.5 -69t-68.5 -26q-22 0 -42 10.5t-39.5 24t-39 24t-40.5 10.5
q-26 0 -47 -16t-21 -53h-22z" />
    <glyph glyph-name="uni1EBE" unicode="&#x1ebe;" horiz-adv-x="581" 
d="M228 -3q-25 0 -50 4t-46 17t-34 39.5t-13 70.5v470q0 38 11 64.5t30 42t42.5 22t48.5 6.5q53 -1 103.5 -2t99.5 -2.5t97 -2.5v-31h-294q-44 0 -70.5 -24t-26.5 -77v-212l350 -3v-30l-350 -4v-212q0 -44 15 -65t39.5 -27t50.5 -6h286v-31q-47 -2 -95.5 -3l-97 -2t-96.5 -2
zM297 884h31l117 -93h-27l-106 71l-117 -71h-27zM499 995h39l-126 -132h-24z" />
    <glyph glyph-name="uni1EBF" unicode="&#x1ebf;" horiz-adv-x="543" 
d="M279 -6q-81 0 -128 26t-66 85.5t-19 162.5q0 105 21 163.5t68.5 82.5t126.5 24q66 0 109 -15.5t64.5 -53t21.5 -103.5q0 -43 -17 -69.5t-48.5 -38.5t-75.5 -12h-229q0 -80 14.5 -127.5t53 -69t111.5 -21.5h180v-26q-49 -4 -91.5 -6t-95.5 -2zM107 277h227q53 0 79 19
t26 70q0 54 -15.5 84t-50 42.5t-91.5 12.5q-68 0 -106.5 -19.5t-53.5 -69t-15 -139.5zM257 724h31l117 -93h-27l-106 71l-117 -71h-27zM459 835h39l-126 -132h-24z" />
    <glyph glyph-name="uni1EC0" unicode="&#x1ec0;" horiz-adv-x="581" 
d="M228 -3q-25 0 -50 4t-46 17t-34 39.5t-13 70.5v470q0 38 11 64.5t30 42t42.5 22t48.5 6.5q53 -1 103.5 -2t99.5 -2.5t97 -2.5v-31h-294q-44 0 -70.5 -24t-26.5 -77v-212l350 -3v-30l-350 -4v-212q0 -44 15 -65t39.5 -27t50.5 -6h286v-31q-47 -2 -95.5 -3l-97 -2t-96.5 -2
zM297 884h31l117 -93h-27l-106 71l-117 -71h-27zM81 995h39l111 -132h-24z" />
    <glyph glyph-name="uni1EC1" unicode="&#x1ec1;" horiz-adv-x="543" 
d="M279 -6q-81 0 -128 26t-66 85.5t-19 162.5q0 105 21 163.5t68.5 82.5t126.5 24q66 0 109 -15.5t64.5 -53t21.5 -103.5q0 -43 -17 -69.5t-48.5 -38.5t-75.5 -12h-229q0 -80 14.5 -127.5t53 -69t111.5 -21.5h180v-26q-49 -4 -91.5 -6t-95.5 -2zM107 277h227q53 0 79 19
t26 70q0 54 -15.5 84t-50 42.5t-91.5 12.5q-68 0 -106.5 -19.5t-53.5 -69t-15 -139.5zM257 724h31l117 -93h-27l-106 71l-117 -71h-27zM41 835h39l111 -132h-24z" />
    <glyph glyph-name="uni1EC2" unicode="&#x1ec2;" horiz-adv-x="581" 
d="M228 -3q-25 0 -50 4t-46 17t-34 39.5t-13 70.5v470q0 38 11 64.5t30 42t42.5 22t48.5 6.5q53 -1 103.5 -2t99.5 -2.5t97 -2.5v-31h-294q-44 0 -70.5 -24t-26.5 -77v-212l350 -3v-30l-350 -4v-212q0 -44 15 -65t39.5 -27t50.5 -6h286v-31q-47 -2 -95.5 -3l-97 -2t-96.5 -2
zM168 791l129 93h31l117 -93h-27l-106 71l-117 -71h-27zM411 841v21q33 10 46.5 26.5t13.5 33.5q0 21 -11.5 32.5t-39.5 11.5q-9 0 -18.5 -1.5t-18.5 -4.5v19q11 4 21 5t21 1q36 0 52.5 -17.5t16.5 -45.5q0 -24 -20 -46.5t-63 -34.5z" />
    <glyph glyph-name="uni1EC3" unicode="&#x1ec3;" horiz-adv-x="543" 
d="M279 -6q-81 0 -128 26t-66 85.5t-19 162.5q0 105 21 163.5t68.5 82.5t126.5 24q66 0 109 -15.5t64.5 -53t21.5 -103.5q0 -43 -17 -69.5t-48.5 -38.5t-75.5 -12h-229q0 -80 14.5 -127.5t53 -69t111.5 -21.5h180v-26q-49 -4 -91.5 -6t-95.5 -2zM107 277h227q53 0 79 19
t26 70q0 54 -15.5 84t-50 42.5t-91.5 12.5q-68 0 -106.5 -19.5t-53.5 -69t-15 -139.5zM128 631l129 93h31l117 -93h-27l-106 71l-117 -71h-27zM371 681v21q33 10 46.5 26.5t13.5 33.5q0 21 -11.5 32.5t-39.5 11.5q-9 0 -18.5 -1.5t-18.5 -4.5v19q11 4 21 5t21 1
q36 0 52.5 -17.5t16.5 -45.5q0 -24 -20 -46.5t-63 -34.5z" />
    <glyph glyph-name="uni1EC4" unicode="&#x1ec4;" horiz-adv-x="581" 
d="M228 -3q-25 0 -50 4t-46 17t-34 39.5t-13 70.5v470q0 38 11 64.5t30 42t42.5 22t48.5 6.5q53 -1 103.5 -2t99.5 -2.5t97 -2.5v-31h-294q-44 0 -70.5 -24t-26.5 -77v-212l350 -3v-30l-350 -4v-212q0 -44 15 -65t39.5 -27t50.5 -6h286v-31q-47 -2 -95.5 -3l-97 -2t-96.5 -2
zM150 932q1 29 13 44.5t30.5 22.5t35.5 7q31 0 56.5 -12.5t50 -25t50.5 -12.5t44 13t18 37h22q0 -22 -10 -38.5t-28 -25.5t-44 -9q-28 0 -53.5 12.5t-51 24.5t-53.5 12q-23 0 -40.5 -11.5t-17.5 -38.5h-22zM328 884l117 -93h-27l-106 71l-117 -71h-27l129 93h31z" />
    <glyph glyph-name="uni1EC5" unicode="&#x1ec5;" horiz-adv-x="543" 
d="M279 -6q-81 0 -128 26t-66 85.5t-19 162.5q0 105 21 163.5t68.5 82.5t126.5 24q66 0 109 -15.5t64.5 -53t21.5 -103.5q0 -43 -17 -69.5t-48.5 -38.5t-75.5 -12h-229q0 -80 14.5 -127.5t53 -69t111.5 -21.5h180v-26q-49 -4 -91.5 -6t-95.5 -2zM107 277h227q53 0 79 19
t26 70q0 54 -15.5 84t-50 42.5t-91.5 12.5q-68 0 -106.5 -19.5t-53.5 -69t-15 -139.5zM110 772q1 29 13 44.5t30.5 22.5t35.5 7q31 0 56.5 -12.5t50 -25t50.5 -12.5t44 13t18 37h22q0 -22 -10 -38.5t-28 -25.5t-44 -9q-28 0 -53.5 12.5t-51 24.5t-53.5 12q-23 0 -40.5 -11.5
t-17.5 -38.5h-22zM288 724l117 -93h-27l-106 71l-117 -71h-27l129 93h31z" />
    <glyph glyph-name="uni1EC6" unicode="&#x1ec6;" horiz-adv-x="581" 
d="M228 -3q-25 0 -50 4t-46 17t-34 39.5t-13 70.5v470q0 38 11 64.5t30 42t42.5 22t48.5 6.5q53 -1 103.5 -2t99.5 -2.5t97 -2.5v-31h-294q-44 0 -70.5 -24t-26.5 -77v-212l350 -3v-30l-350 -4v-212q0 -44 15 -65t39.5 -27t50.5 -6h286v-31q-47 -2 -95.5 -3l-97 -2t-96.5 -2
zM168 791l129 132h31l117 -132h-27l-106 110l-117 -110h-27zM301 -201q-13 0 -13 13v67q0 13 13 13h19q6 0 9.5 -3.5t3.5 -9.5v-67q0 -13 -13 -13h-19z" />
    <glyph glyph-name="uni1EC7" unicode="&#x1ec7;" horiz-adv-x="543" 
d="M279 -6q-81 0 -128 26t-66 85.5t-19 162.5q0 105 21 163.5t68.5 82.5t126.5 24q66 0 109 -15.5t64.5 -53t21.5 -103.5q0 -43 -17 -69.5t-48.5 -38.5t-75.5 -12h-229q0 -80 14.5 -127.5t53 -69t111.5 -21.5h180v-26q-49 -4 -91.5 -6t-95.5 -2zM107 277h227q53 0 79 19
t26 70q0 54 -15.5 84t-50 42.5t-91.5 12.5q-68 0 -106.5 -19.5t-53.5 -69t-15 -139.5zM128 631l129 132h31l117 -132h-27l-106 110l-117 -110h-27zM258 -201q-13 0 -13 13v67q0 13 13 13h19q6 0 9.5 -3.5t3.5 -9.5v-67q0 -13 -13 -13h-19z" />
    <glyph glyph-name="uni1EC8" unicode="&#x1ec8;" horiz-adv-x="210" 
d="M85 0v733h41v-733h-41zM87 770v21q37 11 51.5 30t14.5 39q0 25 -13 39.5t-44 14.5q-9 0 -18.5 -1.5t-18.5 -4.5v20q11 4 21 5t21 1q39 0 57.5 -20.5t18.5 -53.5q0 -27 -21.5 -52t-68.5 -38z" />
    <glyph glyph-name="uni1EC9" unicode="&#x1ec9;" horiz-adv-x="210" 
d="M86 0v532h41v-532h-41zM94 608v21q37 11 51.5 30t14.5 39q0 25 -13 39.5t-44 14.5q-9 0 -18.5 -1.5t-18.5 -4.5v20q11 4 21 5t21 1q39 0 57.5 -20.5t18.5 -53.5q0 -27 -21.5 -52t-68.5 -38z" />
    <glyph glyph-name="uni1ECA" unicode="&#x1eca;" horiz-adv-x="210" 
d="M85 0v733h41v-733h-41zM93 -201q-13 0 -13 13v67q0 13 13 13h19q6 0 9.5 -3.5t3.5 -9.5v-67q0 -13 -13 -13h-19z" />
    <glyph glyph-name="uni1ECB" unicode="&#x1ecb;" horiz-adv-x="214" 
d="M95 637q-13 0 -13 13v67q0 13 13 13h25q6 0 9 -4t3 -9v-67q0 -13 -12 -13h-25zM86 0v532h41v-532h-41zM95 -201q-13 0 -13 13v67q0 13 13 13h19q6 0 9.5 -3.5t3.5 -9.5v-67q0 -13 -13 -13h-19z" />
    <glyph glyph-name="uni1ECC" unicode="&#x1ecc;" horiz-adv-x="679" 
d="M340 -6q-69 0 -120 13t-85.5 50t-51 110.5t-16.5 194.5q0 122 17 196.5t51.5 113.5t85.5 53t119 14q70 0 121 -14t85 -53t50.5 -113.5t16.5 -196.5q0 -121 -17 -194.5t-51 -110.5t-85 -50t-120 -13zM340 31q61 0 105.5 12t72 46t41 99.5t13.5 173.5q0 114 -14 182
t-41.5 102t-71.5 45t-105 11q-57 0 -100.5 -11t-73 -45t-44 -102t-14.5 -182q0 -108 12 -173.5t39.5 -99.5t72 -46t108.5 -12zM328 -201q-13 0 -13 13v67q0 13 13 13h19q6 0 9.5 -3.5t3.5 -9.5v-67q0 -13 -13 -13h-19z" />
    <glyph glyph-name="uni1ECD" unicode="&#x1ecd;" horiz-adv-x="578" 
d="M288 -6q-53 0 -94.5 11t-70 40t-43 83t-14.5 138q0 86 14.5 139.5t43 82.5t70 39.5t94.5 10.5t95 -11t70.5 -39.5t43.5 -82t15 -139.5q0 -85 -15 -139t-43.5 -82.5t-70.5 -39.5t-95 -11zM288 29q43 0 77 8t57.5 32.5t36 72t12.5 125.5q0 79 -12.5 126t-36 70.5
t-57.5 31.5t-77 8t-77 -8t-57 -31.5t-35 -70.5t-12 -126q0 -78 12 -125.5t35 -72t57 -32.5t77 -8zM276 -201q-13 0 -13 13v67q0 13 13 13h19q6 0 9.5 -3.5t3.5 -9.5v-67q0 -13 -13 -13h-19z" />
    <glyph glyph-name="uni1ECE" unicode="&#x1ece;" horiz-adv-x="679" 
d="M340 -6q-69 0 -120 13t-85.5 50t-51 110.5t-16.5 194.5q0 122 17 196.5t51.5 113.5t85.5 53t119 14q70 0 121 -14t85 -53t50.5 -113.5t16.5 -196.5q0 -121 -17 -194.5t-51 -110.5t-85 -50t-120 -13zM340 31q61 0 105.5 12t72 46t41 99.5t13.5 173.5q0 114 -14 182
t-41.5 102t-71.5 45t-105 11q-57 0 -100.5 -11t-73 -45t-44 -102t-14.5 -182q0 -108 12 -173.5t39.5 -99.5t72 -46t108.5 -12zM322 770v21q37 11 51.5 30t14.5 39q0 25 -13 39.5t-44 14.5q-9 0 -18.5 -1.5t-18.5 -4.5v20q11 4 21 5t21 1q39 0 57.5 -20.5t18.5 -53.5
q0 -27 -21.5 -52t-68.5 -38z" />
    <glyph glyph-name="uni1ECF" unicode="&#x1ecf;" horiz-adv-x="578" 
d="M288 -6q-53 0 -94.5 11t-70 40t-43 83t-14.5 138q0 86 14.5 139.5t43 82.5t70 39.5t94.5 10.5t95 -11t70.5 -39.5t43.5 -82t15 -139.5q0 -85 -15 -139t-43.5 -82.5t-70.5 -39.5t-95 -11zM288 29q43 0 77 8t57.5 32.5t36 72t12.5 125.5q0 79 -12.5 126t-36 70.5
t-57.5 31.5t-77 8t-77 -8t-57 -31.5t-35 -70.5t-12 -126q0 -78 12 -125.5t35 -72t57 -32.5t77 -8zM275 608v21q37 11 51.5 30t14.5 39q0 25 -13 39.5t-44 14.5q-9 0 -18.5 -1.5t-18.5 -4.5v20q11 4 21 5t21 1q39 0 57.5 -20.5t18.5 -53.5q0 -27 -21.5 -52t-68.5 -38z" />
    <glyph glyph-name="uni1ED0" unicode="&#x1ed0;" horiz-adv-x="679" 
d="M340 -6q-69 0 -120 13t-85.5 50t-51 110.5t-16.5 194.5q0 122 17 196.5t51.5 113.5t85.5 53t119 14q70 0 121 -14t85 -53t50.5 -113.5t16.5 -196.5q0 -121 -17 -194.5t-51 -110.5t-85 -50t-120 -13zM340 31q61 0 105.5 12t72 46t41 99.5t13.5 173.5q0 114 -14 182
t-41.5 102t-71.5 45t-105 11q-57 0 -100.5 -11t-73 -45t-44 -102t-14.5 -182q0 -108 12 -173.5t39.5 -99.5t72 -46t108.5 -12zM327 884h31l117 -93h-27l-106 71l-117 -71h-27zM529 995h39l-126 -132h-24z" />
    <glyph glyph-name="uni1ED1" unicode="&#x1ed1;" horiz-adv-x="578" 
d="M288 -6q-53 0 -94.5 11t-70 40t-43 83t-14.5 138q0 86 14.5 139.5t43 82.5t70 39.5t94.5 10.5t95 -11t70.5 -39.5t43.5 -82t15 -139.5q0 -85 -15 -139t-43.5 -82.5t-70.5 -39.5t-95 -11zM288 29q43 0 77 8t57.5 32.5t36 72t12.5 125.5q0 79 -12.5 126t-36 70.5
t-57.5 31.5t-77 8t-77 -8t-57 -31.5t-35 -70.5t-12 -126q0 -78 12 -125.5t35 -72t57 -32.5t77 -8zM275 724h31l117 -93h-27l-106 71l-117 -71h-27zM477 835h39l-126 -132h-24z" />
    <glyph glyph-name="uni1ED2" unicode="&#x1ed2;" horiz-adv-x="679" 
d="M340 -6q-69 0 -120 13t-85.5 50t-51 110.5t-16.5 194.5q0 122 17 196.5t51.5 113.5t85.5 53t119 14q70 0 121 -14t85 -53t50.5 -113.5t16.5 -196.5q0 -121 -17 -194.5t-51 -110.5t-85 -50t-120 -13zM340 31q61 0 105.5 12t72 46t41 99.5t13.5 173.5q0 114 -14 182
t-41.5 102t-71.5 45t-105 11q-57 0 -100.5 -11t-73 -45t-44 -102t-14.5 -182q0 -108 12 -173.5t39.5 -99.5t72 -46t108.5 -12zM327 884h31l117 -93h-27l-106 71l-117 -71h-27zM111 995h39l111 -132h-24z" />
    <glyph glyph-name="uni1ED3" unicode="&#x1ed3;" horiz-adv-x="578" 
d="M288 -6q-53 0 -94.5 11t-70 40t-43 83t-14.5 138q0 86 14.5 139.5t43 82.5t70 39.5t94.5 10.5t95 -11t70.5 -39.5t43.5 -82t15 -139.5q0 -85 -15 -139t-43.5 -82.5t-70.5 -39.5t-95 -11zM288 29q43 0 77 8t57.5 32.5t36 72t12.5 125.5q0 79 -12.5 126t-36 70.5
t-57.5 31.5t-77 8t-77 -8t-57 -31.5t-35 -70.5t-12 -126q0 -78 12 -125.5t35 -72t57 -32.5t77 -8zM275 724h31l117 -93h-27l-106 71l-117 -71h-27zM59 835h39l111 -132h-24z" />
    <glyph glyph-name="uni1ED4" unicode="&#x1ed4;" horiz-adv-x="679" 
d="M340 -6q-69 0 -120 13t-85.5 50t-51 110.5t-16.5 194.5q0 122 17 196.5t51.5 113.5t85.5 53t119 14q70 0 121 -14t85 -53t50.5 -113.5t16.5 -196.5q0 -121 -17 -194.5t-51 -110.5t-85 -50t-120 -13zM340 31q61 0 105.5 12t72 46t41 99.5t13.5 173.5q0 114 -14 182
t-41.5 102t-71.5 45t-105 11q-57 0 -100.5 -11t-73 -45t-44 -102t-14.5 -182q0 -108 12 -173.5t39.5 -99.5t72 -46t108.5 -12zM198 791l129 93h31l117 -93h-27l-106 71l-117 -71h-27zM441 841v21q33 10 46.5 26.5t13.5 33.5q0 21 -11.5 32.5t-39.5 11.5q-9 0 -18.5 -1.5
t-18.5 -4.5v19q11 4 21 5t21 1q36 0 52.5 -17.5t16.5 -45.5q0 -24 -20 -46.5t-63 -34.5z" />
    <glyph glyph-name="uni1ED5" unicode="&#x1ed5;" horiz-adv-x="578" 
d="M288 -6q-53 0 -94.5 11t-70 40t-43 83t-14.5 138q0 86 14.5 139.5t43 82.5t70 39.5t94.5 10.5t95 -11t70.5 -39.5t43.5 -82t15 -139.5q0 -85 -15 -139t-43.5 -82.5t-70.5 -39.5t-95 -11zM288 29q43 0 77 8t57.5 32.5t36 72t12.5 125.5q0 79 -12.5 126t-36 70.5
t-57.5 31.5t-77 8t-77 -8t-57 -31.5t-35 -70.5t-12 -126q0 -78 12 -125.5t35 -72t57 -32.5t77 -8zM146 631l129 93h31l117 -93h-27l-106 71l-117 -71h-27zM389 681v21q33 10 46.5 26.5t13.5 33.5q0 21 -11.5 32.5t-39.5 11.5q-9 0 -18.5 -1.5t-18.5 -4.5v19q11 4 21 5t21 1
q36 0 52.5 -17.5t16.5 -45.5q0 -24 -20 -46.5t-63 -34.5z" />
    <glyph glyph-name="uni1ED6" unicode="&#x1ed6;" horiz-adv-x="679" 
d="M340 -6q-69 0 -120 13t-85.5 50t-51 110.5t-16.5 194.5q0 122 17 196.5t51.5 113.5t85.5 53t119 14q70 0 121 -14t85 -53t50.5 -113.5t16.5 -196.5q0 -121 -17 -194.5t-51 -110.5t-85 -50t-120 -13zM340 31q61 0 105.5 12t72 46t41 99.5t13.5 173.5q0 114 -14 182
t-41.5 102t-71.5 45t-105 11q-57 0 -100.5 -11t-73 -45t-44 -102t-14.5 -182q0 -108 12 -173.5t39.5 -99.5t72 -46t108.5 -12zM180 932q1 29 13 44.5t30.5 22.5t35.5 7q31 0 56.5 -12.5t50 -25t50.5 -12.5t44 13t18 37h22q0 -22 -10 -38.5t-28 -25.5t-44 -9
q-28 0 -53.5 12.5t-51 24.5t-53.5 12q-23 0 -40.5 -11.5t-17.5 -38.5h-22zM358 884l117 -93h-27l-106 71l-117 -71h-27l129 93h31z" />
    <glyph glyph-name="uni1ED7" unicode="&#x1ed7;" horiz-adv-x="578" 
d="M288 -6q-53 0 -94.5 11t-70 40t-43 83t-14.5 138q0 86 14.5 139.5t43 82.5t70 39.5t94.5 10.5t95 -11t70.5 -39.5t43.5 -82t15 -139.5q0 -85 -15 -139t-43.5 -82.5t-70.5 -39.5t-95 -11zM288 29q43 0 77 8t57.5 32.5t36 72t12.5 125.5q0 79 -12.5 126t-36 70.5
t-57.5 31.5t-77 8t-77 -8t-57 -31.5t-35 -70.5t-12 -126q0 -78 12 -125.5t35 -72t57 -32.5t77 -8zM128 772q1 29 13 44.5t30.5 22.5t35.5 7q31 0 56.5 -12.5t50 -25t50.5 -12.5t44 13t18 37h22q0 -22 -10 -38.5t-28 -25.5t-44 -9q-28 0 -53.5 12.5t-51 24.5t-53.5 12
q-23 0 -40.5 -11.5t-17.5 -38.5h-22zM306 724l117 -93h-27l-106 71l-117 -71h-27l129 93h31z" />
    <glyph glyph-name="uni1ED8" unicode="&#x1ed8;" horiz-adv-x="679" 
d="M340 -6q-69 0 -120 13t-85.5 50t-51 110.5t-16.5 194.5q0 122 17 196.5t51.5 113.5t85.5 53t119 14q70 0 121 -14t85 -53t50.5 -113.5t16.5 -196.5q0 -121 -17 -194.5t-51 -110.5t-85 -50t-120 -13zM340 31q61 0 105.5 12t72 46t41 99.5t13.5 173.5q0 114 -14 182
t-41.5 102t-71.5 45t-105 11q-57 0 -100.5 -11t-73 -45t-44 -102t-14.5 -182q0 -108 12 -173.5t39.5 -99.5t72 -46t108.5 -12zM198 791l129 132h31l117 -132h-27l-106 110l-117 -110h-27zM328 -201q-13 0 -13 13v67q0 13 13 13h19q6 0 9.5 -3.5t3.5 -9.5v-67q0 -13 -13 -13
h-19z" />
    <glyph glyph-name="uni1ED9" unicode="&#x1ed9;" horiz-adv-x="578" 
d="M288 -6q-53 0 -94.5 11t-70 40t-43 83t-14.5 138q0 86 14.5 139.5t43 82.5t70 39.5t94.5 10.5t95 -11t70.5 -39.5t43.5 -82t15 -139.5q0 -85 -15 -139t-43.5 -82.5t-70.5 -39.5t-95 -11zM288 29q43 0 77 8t57.5 32.5t36 72t12.5 125.5q0 79 -12.5 126t-36 70.5
t-57.5 31.5t-77 8t-77 -8t-57 -31.5t-35 -70.5t-12 -126q0 -78 12 -125.5t35 -72t57 -32.5t77 -8zM146 631l129 132h31l117 -132h-27l-106 110l-117 -110h-27zM276 -201q-13 0 -13 13v67q0 13 13 13h19q6 0 9.5 -3.5t3.5 -9.5v-67q0 -13 -13 -13h-19z" />
    </font>
</defs>
</svg>
