<?xml version="1.0" standalone="no"?>
<!DOCTYPE svg PUBLIC "-//W3C//DTD SVG 1.1//EN" "http://www.w3.org/Graphics/SVG/1.1/DTD/svg11.dtd" >
<svg xmlns="http://www.w3.org/2000/svg" xmlns:xlink="http://www.w3.org/1999/xlink" version="1.1">
<metadata>
Created by FontForge 20170731 at Mon Jan 29 12:58:47 2018
 By Aleksey,,,
Alice Savoie. Le caractere Faune est une commande du Centre national des arts plastiques.
</metadata>
<defs>
<font id="Faune-TextBold" horiz-adv-x="603" >
  <font-face 
    font-family="Faune Text"
    font-weight="700"
    font-stretch="normal"
    units-per-em="1000"
    panose-1="2 0 0 0 0 0 0 0 0 0"
    ascent="800"
    descent="-200"
    x-height="478"
    cap-height="690"
    bbox="-39 -250 1099 1040"
    underline-thickness="110"
    underline-position="-415"
    unicode-range="U+0020-FB02"
  />
<missing-glyph horiz-adv-x="500" 
d="M60 0v690h380v-690h-380zM151 630l99 -215l99 215h-198zM124 550v-410l94 205zM282 345l94 -205v410zM151 60h198l-99 215z" />
    <glyph glyph-name="fi" unicode="fi" horiz-adv-x="584" 
d="M387 603v122h135v-122h-135zM75 0v413h-68v49l67 15q-2 67 -2 77q7 69 45 113t111 44q104 0 113 -94q3 -22 -3 -48h-31q-6 47 -54 47q-60 0 -60 -67q0 -13 12 -71h172l140 7v-485h-140v413h-164q2 -30 2 -53v-360h-140z" />
    <glyph glyph-name="fl" unicode="fl" horiz-adv-x="593" 
d="M75 0v413h-68v49l67 15q-4 50 -3 72q6 71 44.5 116.5t112.5 45.5q104 0 113 -94q3 -22 -3 -48h-31q-6 47 -54 47q-60 0 -60 -67q0 -13 12 -71h112v-65h-104q2 -30 2 -53v-360h-140zM390 702l141 8v-710h-141v702z" />
    <glyph glyph-name=".notdef" horiz-adv-x="500" 
d="M60 0v690h380v-690h-380zM151 630l99 -215l99 215h-198zM124 550v-410l94 205zM282 345l94 -205v410zM151 60h198l-99 215z" />
    <glyph glyph-name=".null" horiz-adv-x="0" 
 />
    <glyph glyph-name="nonmarkingreturn" horiz-adv-x="333" 
 />
    <glyph glyph-name="space" unicode=" " horiz-adv-x="231" 
 />
    <glyph glyph-name="exclam" unicode="!" horiz-adv-x="303" 
d="M210 200h-117l-23 490h163zM75 59q0 32 21 50.5t58 18.5q34 0 54 -19t20 -50q0 -33 -20 -52.5t-54 -19.5q-37 0 -58 19.5t-21 52.5z" />
    <glyph glyph-name="quotedbl" unicode="&#x22;" horiz-adv-x="320" 
d="M132 532h-97v178h97v-178zM292 532h-97v178h97v-178z" />
    <glyph glyph-name="numbersign" unicode="#" horiz-adv-x="663" 
d="M228 0h-128l25 171h-102v90h115l22 147h-99v90h112l25 167h128l-25 -167h113l25 167h128l-25 -167h99v-90h-112l-22 -147h96v-90h-110l-25 -171h-128l25 171h-112zM266 261h113l22 147h-113z" />
    <glyph glyph-name="dollar" unicode="$" 
d="M339 -91h-88v80q-99 11 -150.5 66.5t-51.5 148.5h60q8 -59 52.5 -88t112.5 -29q51 0 80 22.5t29 63.5q0 18 -9 33.5t-19 25t-35.5 21t-39.5 16.5t-50 17q-78 25 -120.5 69.5t-42.5 127.5q0 80 49.5 132.5t134.5 64.5v75h88v-74q93 -10 141.5 -65.5t48.5 -142.5h-65
q-4 52 -42 80t-90 28q-51 0 -79 -21.5t-28 -62.5q0 -38 34.5 -60.5t102.5 -42.5q86 -26 136 -72.5t50 -131.5t-57.5 -138t-151.5 -63v-80z" />
    <glyph glyph-name="percent" unicode="%" horiz-adv-x="701" 
d="M155 435q-61 0 -98 35.5t-37 94.5q0 61 37 96t98 35t97.5 -35t36.5 -96q0 -58 -37 -94t-97 -36zM454 673h109l-342 -673h-110zM155 517q21 0 34.5 14t13.5 33q0 20 -13.5 34t-34.5 14t-34 -14t-13 -34q0 -19 13 -33t34 -14zM548 -13q-61 0 -98 36t-37 95q0 61 36.5 95.5
t98.5 34.5q61 0 97 -34.5t36 -95.5q0 -59 -36.5 -95t-96.5 -36zM547 70q21 0 34.5 13.5t13.5 33.5t-13.5 34t-34.5 14t-34 -13.5t-13 -34.5q0 -20 13 -33.5t34 -13.5z" />
    <glyph glyph-name="ampersand" unicode="&#x26;" horiz-adv-x="764" 
d="M746 141q0 -73 -40 -113.5t-117 -40.5q-70 0 -126 41q-77 -41 -164 -41q-125 0 -196 54t-71 152q0 48 16 85t46.5 61.5t60.5 39.5t72 28q-32 74 -32 119q0 88 59 130.5t147 42.5q83 0 127 -41t44 -98q0 -122 -178 -170q4 -7 31 -55t41 -75q28 -54 49 -92q66 66 76 181h61
q0 -145 -92 -245q29 -32 71 -32q63 0 67 69h48zM340 538q0 -35 25 -90q52 17 80.5 40.5t28.5 62.5q0 31 -16 49t-47 18q-33 0 -52 -20.5t-19 -59.5zM324 214q-11 22 -34.5 67t-34.5 67q-69 -38 -69 -125q0 -62 37.5 -96t97.5 -34q33 0 71 8q-36 49 -68 113z" />
    <glyph glyph-name="quotesingle" unicode="'" horiz-adv-x="167" 
d="M132 532h-97v178h97v-178z" />
    <glyph glyph-name="parenleft" unicode="(" horiz-adv-x="363" 
d="M207 270q0 -236 136 -411l-70 -62q-88 68 -155.5 191t-67.5 281q0 159 68 287t155 195l70 -62q-136 -175 -136 -419z" />
    <glyph glyph-name="parenright" unicode=")" horiz-adv-x="363" 
d="M156 278q0 236 -136 411l70 62q88 -68 155.5 -191t67.5 -281q0 -159 -68 -287t-155 -195l-70 62q136 175 136 419z" />
    <glyph glyph-name="asterisk" unicode="*" horiz-adv-x="474" 
d="M407 380l-111 -78l-59 165l-56 -166l-112 77l140 113l-167 -8l32 131l142 -86l-47 162h136l-47 -162l142 86l32 -131l-167 8z" />
    <glyph glyph-name="plus" unicode="+" 
d="M358 89h-113v168h-165v112h165v168h113v-168h165v-112h-165v-168z" />
    <glyph glyph-name="comma" unicode="," horiz-adv-x="283" 
d="M55 -138q29 19 55 56.5t30 73.5q-74 0 -74 72q0 32 21.5 53.5t53.5 21.5q38 0 58.5 -23t20.5 -60q0 -80 -45 -145.5t-93 -87.5z" />
    <glyph glyph-name="hyphen" unicode="-" horiz-adv-x="382" 
d="M60 361h262v-110h-262v110z" />
    <glyph glyph-name="period" unicode="." horiz-adv-x="283" 
d="M65 65q0 31 21.5 53.5t56.5 22.5q33 0 54 -22.5t21 -53.5q0 -34 -20 -56t-54 -22q-36 0 -57.5 22t-21.5 56z" />
    <glyph glyph-name="slash" unicode="/" horiz-adv-x="448" 
d="M143 -88h-136l298 798h136z" />
    <glyph glyph-name="zero" unicode="0" horiz-adv-x="607" 
d="M304 -13q-124 0 -198 87t-74 261q0 172 73 260t199 88q124 0 198 -86.5t74 -259.5t-73.5 -261.5t-198.5 -88.5zM317 108q61 0 95 57.5t34 172.5q0 116 -35 171t-94 55q-128 0 -128 -228t128 -228z" />
    <glyph glyph-name="one" unicode="1" horiz-adv-x="433" 
d="M264 680h84v-680h-147v530l-144 -62l-23 67z" />
    <glyph glyph-name="two" unicode="2" horiz-adv-x="580" 
d="M535 1h-475v70l77 66.5t75.5 66t58 57t52.5 62.5t28 57t13 65q0 52 -26 84.5t-76 32.5q-68 0 -99 -50t-17 -124h-81q-18 48 -9.5 99.5t33 95t78 71.5t125.5 28q109 0 169 -60t60 -160q0 -54 -19 -100.5t-61.5 -92t-78.5 -75.5t-102 -80h275v-113z" />
    <glyph glyph-name="three" unicode="3" horiz-adv-x="571" 
d="M526 189q0 -94 -66.5 -148t-178.5 -54q-75 0 -129 22t-85.5 75.5t-25.5 134.5h76q4 -53 39 -82.5t90 -29.5q57 0 89.5 27t32.5 76q0 94 -137 94h-54v81h46q131 0 131 89q0 44 -27.5 68.5t-78.5 24.5q-54 0 -84 -29t-34 -77h-71q-7 107 59 164.5t167 57.5q98 0 160 -47
t62 -134q0 -118 -133 -156q152 -31 152 -157z" />
    <glyph glyph-name="four" unicode="4" 
d="M581 168h-106v-168h-145v168h-303v95l307 412h141v-397h106v-110zM144 278h186v249z" />
    <glyph glyph-name="five" unicode="5" horiz-adv-x="573" 
d="M530 235q0 -116 -63 -182t-175 -66q-51 0 -94 12t-78.5 37t-53.5 69.5t-13 103.5h74q5 -49 39 -75.5t90 -26.5q57 0 90.5 33t33.5 90q0 56 -33.5 85t-88.5 29q-80 0 -118 -56l-72 28l17 357h404v-113h-285l-12 -169q54 52 136 52q95 0 148.5 -54.5t53.5 -153.5z" />
    <glyph glyph-name="six" unicode="6" horiz-adv-x="585" 
d="M312 683q117 0 172 -58t48 -157h-76q-5 42 -33 70.5t-86 28.5q-156 0 -156 -231q0 -22 1 -39q14 55 58 88t114 33q82 0 133.5 -52.5t51.5 -150.5q0 -110 -64 -169t-165 -59q-139 0 -205.5 90.5t-66.5 249.5q0 153 70.5 254.5t203.5 101.5zM307 320q-48 0 -75 -28.5
t-27 -78.5q0 -48 25.5 -77.5t73.5 -29.5t74.5 30.5t26.5 77.5q0 50 -26 78t-72 28z" />
    <glyph glyph-name="seven" unicode="7" horiz-adv-x="520" 
d="M500 673v-79q-122 -172 -173.5 -313t-65.5 -281h-155q11 150 70 284t183 276h-319v113h460z" />
    <glyph glyph-name="eight" unicode="8" horiz-adv-x="594" 
d="M297 -13q-126 0 -190 51t-64 144q0 134 138 171q-118 33 -118 154q0 81 58 128.5t175 47.5t176 -47.5t59 -128.5q0 -121 -118 -154q138 -37 138 -171q0 -92 -64 -143.5t-190 -51.5zM297 394q92 0 92 90q0 38 -23.5 62t-68.5 24t-68.5 -24t-23.5 -62q0 -90 92 -90z
M297 100q46 0 75 27.5t29 76.5q0 51 -27.5 77t-76.5 26q-47 0 -75.5 -27t-28.5 -76q0 -51 28 -77.5t76 -26.5z" />
    <glyph glyph-name="nine" unicode="9" horiz-adv-x="585" 
d="M275 -13q-117 0 -172 58t-48 157h76q5 -42 33 -70.5t86 -28.5q156 0 156 231q0 22 -1 39q-14 -55 -58 -88t-114 -33q-82 0 -133.5 52.5t-51.5 150.5q0 110 64 169t165 59q139 0 205.5 -90.5t66.5 -249.5q0 -153 -70.5 -254.5t-203.5 -101.5zM280 350q48 0 75 28.5
t27 78.5q0 48 -25.5 77.5t-73.5 29.5t-74.5 -30.5t-26.5 -77.5q0 -50 26 -78t72 -28z" />
    <glyph glyph-name="colon" unicode=":" horiz-adv-x="283" 
d="M65 412q0 29 22 52t57 23q33 0 53.5 -23t20.5 -52q0 -32 -20.5 -55.5t-53.5 -23.5q-35 0 -57 23.5t-22 55.5zM65 66q0 29 22 52t57 23q33 0 53.5 -23t20.5 -52q0 -32 -20.5 -55.5t-53.5 -23.5q-35 0 -57 23.5t-22 55.5z" />
    <glyph glyph-name="semicolon" unicode=";" horiz-adv-x="285" 
d="M65 410q0 30 22 52.5t57 22.5q33 0 53.5 -22.5t20.5 -52.5q0 -32 -20.5 -55t-53.5 -23q-35 0 -57 23t-22 55zM55 -137q29 19 54.5 56.5t29.5 73.5q-73 0 -73 72q0 32 21 53t53 21q38 0 59 -22.5t21 -59.5q0 -80 -45 -145.5t-93 -87.5z" />
    <glyph glyph-name="less" unicode="&#x3c;" horiz-adv-x="588" 
d="M495 186l-43 -95l-375 174v88l375 174l43 -95l-277 -123z" />
    <glyph glyph-name="equal" unicode="=" 
d="M523 485v-112h-443v112h443zM523 253v-112h-443v112h443z" />
    <glyph glyph-name="greater" unicode="&#x3e;" horiz-adv-x="588" 
d="M511 265l-375 -174l-43 95l277 123l-277 123l43 95l375 -174v-88z" />
    <glyph glyph-name="question" unicode="?" horiz-adv-x="516" 
d="M253 288l-10 -88h-75l-10 135q164 0 164 134q0 50 -27 78.5t-78 28.5q-47 0 -75.5 -27t-34.5 -73h-64q-6 116 53.5 169.5t155.5 53.5q94 0 154 -51t60 -148q0 -58 -20 -100t-54 -64t-67.5 -33t-71.5 -15zM135 59q0 32 21 50.5t58 18.5q34 0 54.5 -18.5t20.5 -50.5
q0 -33 -20.5 -52.5t-54.5 -19.5q-37 0 -58 19.5t-21 52.5z" />
    <glyph glyph-name="at" unicode="@" horiz-adv-x="870" 
d="M689 25l52 -66q-42 -40 -115.5 -73.5t-178.5 -33.5q-206 0 -309 107.5t-103 289.5q0 83 28 160t79.5 139t134.5 99t185 37q172 0 272.5 -95.5t100.5 -248.5q0 -60 -15.5 -108.5t-40 -79t-57 -51.5t-64 -29.5t-62.5 -8.5q-88 0 -99 75q-46 -74 -126 -74q-64 0 -101 42
t-37 123q0 98 53 171.5t145 73.5q76 0 98 -64l16 53h87l-23 -133l-8 -47q-8 -47 -9 -51q-8 -53 -2 -72t29 -19q45 0 82.5 49t37.5 150q0 122 -72 190t-207 68q-82 0 -146.5 -30.5t-102.5 -81t-57.5 -111t-19.5 -126.5q0 -150 83 -231t240 -81q138 0 232 88zM499 305
q0 33 -14 54t-42 21q-46 0 -69 -45.5t-23 -99.5q0 -76 53 -76q43 0 69 43.5t26 102.5z" />
    <glyph glyph-name="A" unicode="A" horiz-adv-x="637" 
d="M121 0h-114l241 690h155l219 -690h-174l-46 165h-227zM206 260h169l-77 277z" />
    <glyph glyph-name="B" unicode="B" horiz-adv-x="612" 
d="M70 690h243q113 0 177.5 -42.5t64.5 -132.5q0 -125 -147 -156q178 -23 178 -168q0 -93 -66 -142t-172 -49h-278v690zM291 587h-73v-188h72q121 0 121 95q0 93 -120 93zM317 311h-99v-208h98q126 0 126 104t-125 104z" />
    <glyph glyph-name="C" unicode="C" horiz-adv-x="614" 
d="M32 339q0 166 89 263t224 97q64 0 111.5 -21.5t71.5 -55.5t34 -70t7 -71h-74q-6 33 -38 62t-91 29q-80 0 -127.5 -61.5t-47.5 -171.5q0 -115 48 -173.5t125 -58.5q66 0 105.5 32.5t44.5 75.5h68q0 -39 -12.5 -76.5t-38.5 -73t-75.5 -57t-115.5 -21.5q-139 0 -223.5 89.5
t-84.5 262.5z" />
    <glyph glyph-name="D" unicode="D" horiz-adv-x="668" 
d="M70 690h210q173 0 264 -92.5t91 -248.5q0 -96 -29 -166t-80.5 -108.5t-112 -56.5t-133.5 -18h-210v690zM282 582h-64v-474h64q101 0 148.5 64.5t47.5 175.5q0 113 -49.5 173.5t-146.5 60.5z" />
    <glyph glyph-name="E" unicode="E" horiz-adv-x="536" 
d="M440 309h-222v-202h278v-106h-426v688h415v-106h-267v-169h222v-105z" />
    <glyph glyph-name="F" unicode="F" horiz-adv-x="494" 
d="M429 290h-211v-290h-148v689h416v-106h-268v-188h211v-105z" />
    <glyph glyph-name="G" unicode="G" horiz-adv-x="647" 
d="M32 342q0 86 26 154.5t71 112.5t103 67t123 23t114 -21.5t74.5 -55.5t36 -70.5t6.5 -70.5h-74q-6 33 -41 62t-98 29q-80 0 -131 -62.5t-51 -176.5q0 -109 45.5 -171t129.5 -62q56 0 87 22.5t36 54.5v77h-94v98h217v-168q-12 -91 -80 -144t-179 -53q-152 0 -236.5 92.5
t-84.5 262.5z" />
    <glyph glyph-name="H" unicode="H" horiz-adv-x="692" 
d="M70 690h148v-281h256v281h148v-690h-148v304h-256v-304h-148v690z" />
    <glyph glyph-name="I" unicode="I" horiz-adv-x="292" 
d="M72 690h148v-690h-148v690z" />
    <glyph glyph-name="J" unicode="J" horiz-adv-x="455" 
d="M12 202h68q10 -94 81 -94q46 0 64 36t18 109v437h147v-447q0 -256 -191 -256q-55 0 -93 17t-58 48t-28 67t-8 83z" />
    <glyph glyph-name="K" unicode="K" horiz-adv-x="635" 
d="M70 0v690h148v-300l256 300h127l-239 -276l269 -414h-184l-185 297l-44 -50v-247h-148z" />
    <glyph glyph-name="L" unicode="L" horiz-adv-x="514" 
d="M70 690h148v-579h286v-110h-434v689z" />
    <glyph glyph-name="M" unicode="M" horiz-adv-x="833" 
d="M182 0h-117l13 691h159l194 -468l197 468h127l13 -691h-124l-9 439l-181 -433h-80l-183 441z" />
    <glyph glyph-name="N" unicode="N" horiz-adv-x="682" 
d="M612 690v-695h-117l-310 477v-472h-115v690h145l281 -443v443h116z" />
    <glyph glyph-name="O" unicode="O" horiz-adv-x="700" 
d="M32 344q0 162 86.5 258.5t233.5 96.5q134 0 225 -89t91 -257q0 -169 -83 -267.5t-233 -98.5q-144 0 -232 92t-88 265zM535 347q0 104 -47.5 163t-118.5 59q-81 0 -129.5 -60t-48.5 -165q0 -117 51 -176.5t127 -59.5q73 0 119.5 61.5t46.5 177.5z" />
    <glyph glyph-name="P" unicode="P" horiz-adv-x="593" 
d="M70 690h261q108 0 175.5 -58.5t67.5 -157.5q0 -113 -67 -171t-178 -58h-111v-245h-148v690zM296 584h-78v-233h81q58 0 94.5 28t36.5 89q0 58 -37 87t-97 29z" />
    <glyph glyph-name="Q" unicode="Q" horiz-adv-x="700" 
d="M32 344q0 162 86.5 258.5t233.5 96.5q134 0 225 -89t91 -257q0 -147 -62.5 -241t-177.5 -118q8 -70 93 -70q66 0 73 49h42q0 -65 -42 -99.5t-111 -34.5q-87 0 -137 41t-57 112q-118 20 -187.5 109.5t-69.5 242.5zM535 347q0 104 -47.5 163t-118.5 59q-81 0 -129.5 -60
t-48.5 -165q0 -117 51 -176.5t127 -59.5q73 0 119.5 61.5t46.5 177.5z" />
    <glyph glyph-name="R" unicode="R" horiz-adv-x="622" 
d="M602 23q-29 -31 -88 -31q-72 0 -98.5 41.5t-26.5 142.5q0 60 -22 83.5t-75 23.5h-74v-283h-148v690h251q112 0 177.5 -44.5t65.5 -134.5q0 -77 -44.5 -120.5t-121.5 -57.5q145 -8 145 -149q0 -85 9 -108q11 -29 45 -29zM297 584h-79v-205h73q57 0 93 25t36 78
q0 52 -33 77t-90 25z" />
    <glyph glyph-name="S" unicode="S" horiz-adv-x="565" 
d="M37 214h71q18 -124 162 -124q111 0 111 87q0 52 -64 83q-22 10 -91 34q-82 28 -127 72t-45 128q0 92 66 148.5t173 56.5q114 0 173.5 -57t49.5 -158h-74q-6 51 -43 79.5t-90 28.5q-49 0 -77.5 -22t-28.5 -63q0 -38 35.5 -60t109.5 -45q88 -28 137 -74.5t49 -133.5
q0 -96 -69 -151.5t-178 -55.5q-121 0 -185.5 59t-64.5 168z" />
    <glyph glyph-name="T" unicode="T" horiz-adv-x="562" 
d="M355 0h-148v580h-207v109h562v-109h-207v-580z" />
    <glyph glyph-name="U" unicode="U" horiz-adv-x="667" 
d="M65 313v377h159v-351q0 -120 30 -174.5t108 -54.5q74 0 102 52.5t28 169.5v358h110v-368q0 -335 -257 -335q-68 0 -118 16.5t-80.5 44t-49 70t-25.5 89t-7 106.5z" />
    <glyph glyph-name="V" unicode="V" horiz-adv-x="624" 
d="M4 690h182l158 -516l170 516h113l-233 -691h-155z" />
    <glyph glyph-name="W" unicode="W" horiz-adv-x="966" 
d="M11 690h168l131 -511l153 510h109l139 -500l132 501h118l-190 -691h-151l-131 415l-131 -415h-150z" />
    <glyph glyph-name="X" unicode="X" horiz-adv-x="616" 
d="M9 690h197l120 -218l131 218h122l-195 -305l228 -385h-198l-136 259l-150 -259h-123l208 341z" />
    <glyph glyph-name="Y" unicode="Y" horiz-adv-x="574" 
d="M584 690l-215 -408v-282h-148v281l-228 409h179l150 -283l146 283h116z" />
    <glyph glyph-name="Z" unicode="Z" horiz-adv-x="566" 
d="M37 100l305 483h-286v106h467v-98l-309 -484h314v-106h-491v99z" />
    <glyph glyph-name="bracketleft" unicode="[" horiz-adv-x="343" 
d="M324 -121v-73h-239v939h239v-73h-99v-793h99z" />
    <glyph glyph-name="backslash" unicode="\" horiz-adv-x="448" 
d="M143 710l298 -798h-136l-298 798h136z" />
    <glyph glyph-name="bracketright" unicode="]" horiz-adv-x="343" 
d="M258 745v-939h-239v73h99v793h-99v73h239z" />
    <glyph glyph-name="asciicircum" unicode="^" horiz-adv-x="592" 
d="M239 687h75l168 -274l-64 -38l-142 209l-142 -209l-63 38z" />
    <glyph glyph-name="underscore" unicode="_" horiz-adv-x="546" 
d="M0 -140h545v-110h-545v110z" />
    <glyph glyph-name="grave" unicode="`" horiz-adv-x="500" 
d="M135 704l84 76l135 -192l-52 -43z" />
    <glyph glyph-name="a" unicode="a" horiz-adv-x="489" 
d="M29 116q0 64 43 106t135 42q54 0 88 -17v43q0 105 -95 105q-40 0 -66 -23t-33 -56h-43q0 77 46.5 128t140.5 51q89 0 136 -46.5t47 -131.5v-166q0 -79 25 -101q10 -14 22 -17l4 -20q-19 -23 -69 -23q-97 0 -112 79q-43 -82 -136 -82q-65 0 -99 36t-34 93zM162 133
q0 -56 57 -56q40 0 58 33.5t18 84.5v5q-24 8 -52 8q-39 0 -60 -19.5t-21 -55.5z" />
    <glyph glyph-name="b" unicode="b" horiz-adv-x="562" 
d="M61 702l141 8v-315q38 100 138 100q80 0 134.5 -64.5t54.5 -185.5q0 -114 -53 -186t-136 -72q-116 0 -147 130l-13 -117h-119v702zM386 229q0 79 -25 117.5t-68 38.5q-91 0 -91 -157q0 -61 25 -101.5t67 -40.5q43 0 67.5 40t24.5 103z" />
    <glyph glyph-name="c" unicode="c" horiz-adv-x="471" 
d="M32 227q0 114 62.5 191t163.5 77q85 0 125.5 -39.5t43.5 -96.5q1 -23 -3 -44h-61q-11 74 -84 74q-49 0 -76 -43t-27 -110q0 -74 31 -114.5t85 -40.5q90 0 107 90h42q0 -81 -47.5 -132.5t-135.5 -51.5q-43 0 -80.5 12t-71.5 38t-54 75t-20 115z" />
    <glyph glyph-name="d" unicode="d" horiz-adv-x="562" 
d="M32 239q0 113 53 184.5t136 71.5q101 0 139 -106v313l141 8v-710h-111l-15 133q-11 -73 -47 -109.5t-107 -36.5q-80 0 -134.5 65t-54.5 187zM360 243q0 61 -25 101t-67 40q-43 0 -67.5 -39.5t-24.5 -102.5q0 -79 25 -118t68 -39q91 0 91 158z" />
    <glyph glyph-name="e" unicode="e" horiz-adv-x="485" 
d="M32 224q0 114 62.5 192.5t160.5 78.5q92 0 138.5 -48.5t46.5 -122.5q0 -50 -7 -90h-262q2 -154 125 -154q51 0 80.5 25.5t34.5 67.5h41q0 -81 -51 -133.5t-139 -52.5q-112 0 -171 61t-59 176zM263 393q-36 0 -60 -27.5t-30 -78.5l153 3q3 12 3 32q0 71 -66 71z" />
    <glyph glyph-name="f" unicode="f" horiz-adv-x="317" 
d="M75 0v413h-68v49l67 15q-2 65 1 89q11 65 50 104.5t109 39.5q57 0 88 -25.5t35 -67.5q2 -27 -3 -48h-34q-6 47 -61 47q-33 0 -49.5 -18t-16.5 -49q0 -13 12 -71h119v-65h-111q2 -30 2 -53v-360h-140z" />
    <glyph glyph-name="g" unicode="g" horiz-adv-x="513" 
d="M38 323q0 76 55.5 124t150.5 48q98 0 157 -65q5 36 22.5 50.5t38.5 14.5q60 0 62 -57q0 -20 -7 -36h-19q0 28 -24 28q-34 0 -34 -58v-48q-2 -81 -52.5 -129.5t-143.5 -48.5q-45 0 -81 10q-28 -14 -28 -40q0 -44 100 -44q1 0 31 0.5t32 0.5q196 0 196 -145
q0 -85 -67.5 -131.5t-193.5 -46.5q-103 0 -154 35.5t-51 97.5q0 27 19 56h39q-5 -18 -5 -29q0 -78 148 -78q131 0 131 65q0 48 -83 48h-82q-155 0 -155 118q0 66 81 110q-83 47 -83 150zM312 314q0 36 -19 61t-52 25q-35 0 -54.5 -26t-19.5 -62q0 -44 20 -66.5t53 -22.5
t52.5 24t19.5 67z" />
    <glyph glyph-name="h" unicode="h" horiz-adv-x="556" 
d="M501 0h-140v238q0 79 -16.5 109.5t-55.5 30.5q-45 0 -65.5 -51.5t-21.5 -160.5v-166h-141v702l141 8v-368q26 153 149 153q83 0 116.5 -48.5t33.5 -141.5v-305z" />
    <glyph glyph-name="i" unicode="i" horiz-adv-x="270" 
d="M65 603v122h145v-122h-145zM63 478l140 7v-485h-140v478z" />
    <glyph glyph-name="j" unicode="j" horiz-adv-x="281" 
d="M84 603v122h145v-122h-145zM-34 -112h34q7 -43 43 -43q42 0 42 72q0 12 -3.5 82.5t-3.5 101.5v377l141 7v-507q0 -116 -33 -171.5t-111 -55.5q-109 0 -109 137z" />
    <glyph glyph-name="k" unicode="k" horiz-adv-x="526" 
d="M61 702l141 8v-400l166 168h129l-159 -155l179 -323h-156l-117 231l-42 -41v-190h-141v702z" />
    <glyph glyph-name="l" unicode="l" horiz-adv-x="265" 
d="M62 702l141 8v-710h-141v702z" />
    <glyph glyph-name="m" unicode="m" horiz-adv-x="837" 
d="M60 478l120 7l15 -158v-1q19 169 151 169q77 0 109 -41.5t35 -122.5q26 164 152 164q82 0 111 -47t29 -143v-305h-140v238q0 80 -14.5 110t-52.5 30q-45 0 -64.5 -52.5t-19.5 -161.5v-164h-140v238q0 80 -14.5 110t-52.5 30q-44 0 -64 -51.5t-20 -160.5v-166h-140v478z
" />
    <glyph glyph-name="n" unicode="n" horiz-adv-x="554" 
d="M60 478l120 7l15 -157q9 78 44 122.5t111 44.5q83 0 116.5 -48.5t33.5 -141.5v-305h-141v238q0 79 -16 109.5t-55 30.5q-88 0 -88 -212v-166h-140v478z" />
    <glyph glyph-name="o" unicode="o" horiz-adv-x="530" 
d="M32 239q0 114 65 185t169 71q101 0 166.5 -68t65.5 -191q0 -116 -61 -182.5t-171 -66.5q-105 0 -169.5 65.5t-64.5 186.5zM358 242q0 65 -23.5 104.5t-69.5 39.5q-44 0 -68 -38.5t-24 -104.5q0 -158 93 -158q92 0 92 157z" />
    <glyph glyph-name="p" unicode="p" horiz-adv-x="560" 
d="M60 478l117 7l12 -127q30 137 150 137q80 0 134.5 -64.5t54.5 -185.5q0 -114 -53 -186t-136 -72q-103 0 -139 102v-329h-140v718zM384 227q0 80 -25 119.5t-67 39.5q-92 0 -92 -160q0 -61 25.5 -100.5t66.5 -39.5q44 0 68 39t24 102z" />
    <glyph glyph-name="q" unicode="q" horiz-adv-x="561" 
d="M32 239q0 113 53 184.5t136 71.5q112 0 148 -123l15 106l118 7v-725h-142v315q-36 -88 -139 -88q-80 0 -134.5 65t-54.5 187zM360 243q0 61 -25 101.5t-67 40.5q-43 0 -67.5 -39.5t-24.5 -102.5q0 -79 25.5 -118.5t67.5 -39.5q91 0 91 158z" />
    <glyph glyph-name="r" unicode="r" horiz-adv-x="424" 
d="M60 478l118 7l12 -144q24 154 124 154q50 0 74.5 -36.5t24.5 -82.5q0 -31 -9 -63h-56q0 18 -5 31q-12 38 -52 38q-46 0 -68.5 -52t-22.5 -169v-161h-140v478z" />
    <glyph glyph-name="s" unicode="s" horiz-adv-x="446" 
d="M36 153h49q21 -97 117 -97q78 0 78 53q0 27 -18 41.5t-66 27.5q-74 21 -111 57.5t-37 99.5q0 70 51.5 115t137.5 45q84 0 128.5 -42t33.5 -114h-57q-4 30 -25.5 52.5t-58.5 22.5q-33 0 -52 -14t-19 -39q0 -26 18 -38.5t76 -29.5q72 -21 104.5 -57t32.5 -93
q0 -70 -51 -113t-144 -43q-91 0 -139 43.5t-48 122.5z" />
    <glyph glyph-name="t" unicode="t" horiz-adv-x="357" 
d="M70 168v245h-68v49l68 15v104l140 11v-114h115v-65h-115v-266q0 -66 50 -66q45 0 45 39h31q0 -133 -120 -133q-74 0 -110 41t-36 140z" />
    <glyph glyph-name="u" unicode="u" horiz-adv-x="554" 
d="M359 134v7q-26 -154 -154 -154q-83 0 -116.5 48.5t-33.5 141.5v300l140 8v-241q0 -79 16.5 -109t55.5 -30q87 0 87 212v160l141 8v-485h-129z" />
    <glyph glyph-name="v" unicode="v" horiz-adv-x="466" 
d="M-1 478h154l95 -320l98 320h121l-162 -478h-142z" />
    <glyph glyph-name="w" unicode="w" horiz-adv-x="707" 
d="M0 478h155l84 -305l89 290h95l92 -290l79 305h113l-140 -478h-120l-93 274l-93 -274h-119z" />
    <glyph glyph-name="x" unicode="x" horiz-adv-x="474" 
d="M300 0l-89 173l-91 -173h-116l144 238l-134 240h169l78 -149l81 149h114l-138 -222l152 -256h-170z" />
    <glyph glyph-name="y" unicode="y" horiz-adv-x="479" 
d="M12 -111h32q0 -20 13 -32.5t40 -12.5t43.5 20.5t36.5 76.5l16 44l-197 493h165l96 -312l100 312h123l-227 -601q-49 -127 -136 -127q-39 0 -64 15.5t-31.5 37t-10 43.5t0.5 36v7z" />
    <glyph glyph-name="z" unicode="z" horiz-adv-x="442" 
d="M32 74l224 294h-213v110h363v-94l-216 -284h219v-100h-377v74z" />
    <glyph glyph-name="braceleft" unicode="{" horiz-adv-x="374" 
d="M269 137q0 -51 -5 -119t-5 -111q0 -41 16 -56.5t49 -15.5h23v-66h-69q-70 0 -116.5 32t-46.5 99q0 28 5 107.5t5 129.5q0 32 -15.5 54.5t-31.5 28.5l-16 7v57q3 1 7 2.5t15 8.5t19 16t15 26t7 37q0 50 -5 129.5t-5 107.5q0 67 46.5 99t116.5 32h69v-67h-23
q-33 0 -49 -15.5t-16 -56.5q0 -43 5 -110.5t5 -118.5q0 -90 -97 -119q97 -29 97 -118z" />
    <glyph glyph-name="bar" unicode="|" horiz-adv-x="279" 
d="M200 -153h-120v893h120v-893z" />
    <glyph glyph-name="braceright" unicode="}" horiz-adv-x="374" 
d="M105 374q0 51 5 119t5 111q0 41 -16 56.5t-49 15.5h-23v66h69q70 0 116.5 -32t46.5 -99q0 -28 -5 -107.5t-5 -129.5q0 -32 15.5 -54.5t31.5 -29.5l16 -6v-57q-3 -1 -7 -2.5t-15 -8.5t-19 -16t-15 -26t-7 -37q0 -50 5 -129.5t5 -107.5q0 -67 -46.5 -99t-116.5 -32h-69v67
h23q33 0 49 15.5t16 56.5q0 43 -5 110.5t-5 118.5q0 90 97 119q-97 29 -97 118z" />
    <glyph glyph-name="asciitilde" unicode="~" 
d="M206 399q50 0 103 -32q56 -32 88 -32q35 0 47.5 16t14.5 48h66q-2 -172 -128 -172q-48 0 -104 32q-54 32 -87 32q-60 0 -62 -64h-67q2 172 129 172z" />
    <glyph glyph-name="exclamdown" unicode="&#xa1;" horiz-adv-x="303" 
d="M228 416q0 -32 -21 -50.5t-58 -18.5q-34 0 -54 19t-20 50q0 33 20 52.5t54 19.5q37 0 58 -19.5t21 -52.5zM93 275h117l23 -490h-163z" />
    <glyph glyph-name="cent" unicode="&#xa2;" horiz-adv-x="596" 
d="M84 332q0 102 50 176t134 89v93h87v-93q65 -10 96.5 -48.5t34.5 -87.5q1 -22 -3 -41h-62q-8 74 -87 74q-51 0 -78.5 -43t-27.5 -110q0 -74 31.5 -113.5t89.5 -39.5q43 0 72.5 22.5t36.5 66.5h42q0 -71 -38 -119.5t-107 -60.5v-97h-87v96q-79 12 -131.5 69t-52.5 167z" />
    <glyph glyph-name="sterling" unicode="&#xa3;" 
d="M433 378v-82h-146q7 -33 7 -61q0 -43 -21.5 -75.5t-64.5 -68.5q73 44 128 44q40 0 77 -17.5t58 -17.5q38 0 65 30l28 -27q-15 -48 -50.5 -80t-85.5 -32q-39 0 -89.5 18t-96.5 18q-33 0 -78.5 -11t-73.5 -23l-29 74q4 2 10.5 6.5t23 19.5t29 31t23 42t10.5 53q0 37 -10 77
h-95v82h76q-10 47 -10 100q0 86 58.5 145.5t162.5 59.5q91 0 145.5 -50t58.5 -150h-77q-25 83 -107 83q-48 0 -77 -27.5t-29 -82.5q0 -34 11 -78h169z" />
    <glyph glyph-name="currency" unicode="&#xa4;" horiz-adv-x="588" 
d="M61 128l60 62q-25 45 -25 98q0 57 30 106l-65 66l63 63l66 -67q46 27 102 27q58 0 105 -28l67 68l64 -63l-68 -69q28 -47 28 -103q0 -52 -23 -95l63 -65l-64 -63l-59 61q-50 -34 -113 -34q-61 0 -110 33l-58 -60zM293 197q38 0 62 26.5t24 64.5t-24 63.5t-62 25.5
q-39 0 -62.5 -25.5t-23.5 -63.5q0 -39 23.5 -65t62.5 -26z" />
    <glyph glyph-name="yen" unicode="&#xa5;" 
d="M527 216v-79h-149v-137h-138v137h-151v79h151v55l-7 13h-144v79h98l-179 310h176l152 -278l147 278h112l-169 -310h101v-79h-144l-5 -8v-60h149z" />
    <glyph glyph-name="brokenbar" unicode="&#xa6;" horiz-adv-x="279" 
d="M200 417h-120v323h120v-323zM200 -153h-120v323h120v-323z" />
    <glyph glyph-name="section" unicode="&#xa7;" horiz-adv-x="535" 
d="M117 17q6 -39 33.5 -66t80.5 -27q96 0 96 68q0 16 -7.5 29t-25 23.5t-33.5 18t-44 18.5q-4 1 -6 2t-5.5 2.5t-6.5 2.5q-68 28 -104 64t-36 98q0 88 85 143q-78 49 -78 130q0 76 53.5 121.5t150.5 45.5q90 0 140 -45t50 -117h-52q-6 36 -34 60t-76 24q-39 0 -60 -18
t-21 -50q0 -30 24.5 -47t76.5 -38l9 -3q73 -28 112 -64t39 -102q0 -46 -24.5 -83.5t-60.5 -59.5q84 -51 84 -134q0 -80 -58.5 -124t-158.5 -44q-91 0 -143 48t-52 124h52zM292 194q6 -2 18 -7t14 -6q29 26 29 66q0 36 -26 56t-84 43q-20 8 -29 12q-30 -27 -30 -67
q0 -35 26 -55t82 -42z" />
    <glyph glyph-name="dieresis" unicode="&#xa8;" horiz-adv-x="500" 
d="M103 605v120h113v-120h-113zM285 605v120h113v-120h-113z" />
    <glyph glyph-name="copyright" unicode="&#xa9;" horiz-adv-x="771" 
d="M385 -14q-156 0 -250 97t-94 260q0 161 98 258t246 97q149 0 247 -97t98 -258t-98 -259t-247 -98zM386 57q120 0 193 79t73 207q0 125 -73.5 204.5t-192.5 79.5q-120 0 -192 -78.5t-72 -205.5t69.5 -206.5t194.5 -79.5zM483 393q-7 53 -63 53q-35 0 -55 -29.5t-20 -78.5
q0 -53 23 -82t63 -29q69 0 81 65h33q0 -62 -37.5 -101t-108.5 -39q-35 0 -64.5 8t-57.5 26.5t-44 55.5t-16 90q0 94 49 147.5t131 53.5q71 0 105 -33t34 -79q0 -15 -4 -28h-49z" />
    <glyph glyph-name="ordfeminine" unicode="&#xaa;" horiz-adv-x="337" 
d="M273 400q-63 0 -74 48q-28 -51 -87 -51q-43 0 -65.5 22t-22.5 56q0 40 28 65t89 25q33 0 53 -9v22q0 58 -57 58q-46 0 -58 -45h-36q0 47 28.5 77.5t94.5 30.5q121 0 121 -107v-89q0 -52 10 -63q6 -7 18 -7l3 -18q-15 -15 -45 -15zM149 452q45 0 45 68v4q-12 5 -29 5
q-49 0 -49 -44q0 -33 33 -33z" />
    <glyph glyph-name="guillemotleft" unicode="&#xab;" horiz-adv-x="539" 
d="M273 429l-118 -180l118 -180h-127l-109 169v22l109 169h127zM502 429l-118 -180l118 -180h-127l-109 169v22l109 169h127z" />
    <glyph glyph-name="logicalnot" unicode="&#xac;" 
d="M515 170h-112v173h-331v112h443v-285z" />
    <glyph glyph-name="registered" unicode="&#xae;" horiz-adv-x="572" 
d="M286 210q-113 0 -183.5 71t-70.5 179q0 109 70.5 179.5t183.5 70.5t183.5 -70.5t70.5 -179.5q0 -108 -70.5 -179t-183.5 -71zM286 265q95 0 143.5 55t48.5 140q0 84 -51 139t-141 55q-95 0 -144 -54.5t-49 -139.5t49 -140t144 -55zM370 327q-31 0 -43 14.5t-12 52.5
q0 21 -7.5 30t-25.5 9h-23v-102h-74v260h113q99 0 99 -69q0 -52 -58 -65q27 -2 39 -15.5t12 -42.5t7 -29q2 -16 12 -19l3 -11q-13 -13 -42 -13zM284 542h-25v-68h24q43 0 43 34t-42 34z" />
    <glyph glyph-name="macron" unicode="&#xaf;" horiz-adv-x="500" 
d="M102 723h296v-88h-296v88z" />
    <glyph glyph-name="degree" unicode="&#xb0;" horiz-adv-x="396" 
d="M198 386q-77 0 -120 42t-43 110t43 110t120 42t120 -42t43 -110t-43 -110t-120 -42zM198 463q29 0 48 20t19 55q0 36 -19 56t-48 20q-28 0 -47 -20.5t-19 -55.5t19 -55t47 -20z" />
    <glyph glyph-name="plusminus" unicode="&#xb1;" 
d="M358 94h166v-105h-443v105h164v180h-165v105h165v165h113v-165h165v-105h-165v-180z" />
    <glyph glyph-name="twosuperior" unicode="&#xb2;" horiz-adv-x="363" 
d="M337 405h-301v43q103 86 131 116q50 57 51 105q0 63 -57 63q-39 0 -56 -27.5t-11 -71.5h-56q-12 29 -6.5 61t21 59t50 44.5t80.5 17.5q69 0 107.5 -36.5t38.5 -98.5q0 -59 -37 -103t-110 -95h155v-77z" />
    <glyph glyph-name="threesuperior" unicode="&#xb3;" horiz-adv-x="357" 
d="M331 518q0 -57 -42 -90t-113 -33q-73 0 -116 34.5t-38 109.5h52q4 -30 24.5 -46t52.5 -16t50.5 14.5t18.5 41.5q0 50 -80 50h-31v54h27q76 0 76 49t-61 49q-30 0 -48 -15.5t-21 -41.5h-49q-4 67 39 102t106 35q62 0 102 -28.5t40 -81.5q0 -70 -80 -93q91 -20 91 -94z" />
    <glyph glyph-name="acute" unicode="&#xb4;" horiz-adv-x="500" 
d="M141 588l135 192l84 -76l-167 -159z" />
    <glyph glyph-name="mu" unicode="&#xb5;" horiz-adv-x="606" 
d="M200 -250h-140v728l140 7v-241q0 -78 17 -108.5t56 -30.5q45 0 65.5 51.5t20.5 160.5v160l141 8v-338q0 -35 6.5 -50.5t27.5 -15.5q27 0 27 34h32q0 -128 -110 -128q-51 0 -80.5 32.5t-34.5 90.5q-23 -123 -96 -123q-45 0 -72 36v-273z" />
    <glyph glyph-name="paragraph" unicode="&#xb6;" horiz-adv-x="639" 
d="M311 -113h-67v410q-93 0 -148.5 52.5t-55.5 143.5q0 92 58.5 144.5t145.5 52.5h352v-104h-57v-699h-148v699h-80v-699z" />
    <glyph glyph-name="periodcentered" unicode="&#xb7;" horiz-adv-x="253" 
d="M50 344q0 31 21.5 53.5t56.5 22.5q33 0 54 -22.5t21 -53.5q0 -34 -20 -56t-54 -22q-36 0 -57.5 22t-21.5 56z" />
    <glyph glyph-name="cedilla" unicode="&#xb8;" horiz-adv-x="500" 
d="M178 -116h28q-1 -38 33 -38q14 0 23 9.5t9 26.5q0 44 -52 36l-20 13l20 72l36 -3l-2 -41q42 5 69 -15t27 -62t-25 -65t-64 -23q-48 0 -68 25t-14 65z" />
    <glyph glyph-name="onesuperior" unicode="&#xb9;" horiz-adv-x="273" 
d="M164 812h59v-408h-105v307l-82 -30l-16 46z" />
    <glyph glyph-name="ordmasculine" unicode="&#xba;" horiz-adv-x="348" 
d="M175 397q-67 0 -110.5 38t-43.5 111q0 68 43.5 110.5t110.5 42.5q63 0 107.5 -40t44.5 -114q0 -70 -40.5 -109t-111.5 -39zM175 463q56 0 56 85q0 36 -15 57t-42 21q-26 0 -41 -20.5t-15 -57.5q0 -85 57 -85z" />
    <glyph glyph-name="guillemotright" unicode="&#xbb;" horiz-adv-x="539" 
d="M502 238l-109 -169h-127l118 180l-118 180h127l109 -169v-22zM273 238l-109 -169h-127l118 180l-118 180h127l109 -169v-22z" />
    <glyph glyph-name="onequarter" unicode="&#xbc;" horiz-adv-x="721" 
d="M20 602l115 71h52v-316h-96v224l-57 -19zM475 673h109l-342 -673h-110zM568 0v71h-134v61l140 184h87v-180h47v-65h-47v-71h-93zM495 136h73v96z" />
    <glyph glyph-name="onehalf" unicode="&#xbd;" horiz-adv-x="743" 
d="M20 602l115 71h52v-316h-96v224l-57 -19zM475 673h109l-342 -673h-110zM484 174q-17 50 12 97.5t100 47.5q54 0 84 -28t30 -75q0 -44 -26 -76.5t-78 -69.5h111v-70h-235v41q45 37 64.5 54t41.5 47.5t22 57.5q0 42 -35 42q-24 0 -35 -18.5t-6 -49.5h-50z" />
    <glyph glyph-name="threequarters" unicode="&#xbe;" horiz-adv-x="755" 
d="M32 568q-5 55 29.5 82t82.5 27q47 0 78.5 -23t31.5 -64q0 -55 -58 -71q67 -16 67 -73q0 -43 -33 -69t-89 -26q-57 0 -90 27.5t-28 88.5h46q2 -42 47 -42t45 38q0 32 -50 32h-22v44h19q47 0 47 33q0 14 -10 23t-27 9q-41 0 -43 -36h-43zM509 673h109l-342 -673h-110z
M602 0v71h-134v61l140 184h87v-180h47v-65h-47v-71h-93zM529 136h73v96z" />
    <glyph glyph-name="questiondown" unicode="&#xbf;" horiz-adv-x="508" 
d="M373 416q0 -32 -21 -50.5t-58 -18.5q-34 0 -54.5 18.5t-20.5 50.5q0 33 20.5 52.5t54.5 19.5q37 0 58 -19.5t21 -52.5zM255 187l10 88h75l10 -135q-164 0 -164 -134q0 -50 27 -78.5t78 -28.5q47 0 75.5 27t34.5 73h64q6 -116 -53.5 -169.5t-155.5 -53.5q-94 0 -154 51
t-60 148q0 58 20 100t54 64t67.5 33t71.5 15z" />
    <glyph glyph-name="Agrave" unicode="&#xc0;" horiz-adv-x="637" 
d="M203 805l79 96l163 -136l-36 -35zM121 0h-114l241 690h155l219 -690h-174l-46 165h-227zM206 260h169l-77 277z" />
    <glyph glyph-name="Aacute" unicode="&#xc1;" horiz-adv-x="637" 
d="M210 765l163 136l79 -96l-206 -75zM121 0h-114l241 690h155l219 -690h-174l-46 165h-227zM206 260h169l-77 277z" />
    <glyph glyph-name="Acircumflex" unicode="&#xc2;" horiz-adv-x="637" 
d="M147 769l139 128h67l141 -128l-33 -41l-141 74l-141 -74zM121 0h-114l241 690h155l219 -690h-174l-46 165h-227zM206 260h169l-77 277z" />
    <glyph glyph-name="Atilde" unicode="&#xc3;" horiz-adv-x="637" 
d="M395 832q45 0 34 65h32q24 -68 1.5 -112.5t-80.5 -44.5q-34 0 -59 16t-45.5 32t-42.5 16q-47 0 -34 -64h-32q-23 70 -0.5 113t80.5 43q35 0 60.5 -16t45 -32t40.5 -16zM121 0h-114l241 690h155l219 -690h-174l-46 165h-227zM206 260h169l-77 277z" />
    <glyph glyph-name="Adieresis" unicode="&#xc4;" horiz-adv-x="637" 
d="M181 747v121h113v-121h-113zM363 747v121h113v-121h-113zM121 0h-114l241 690h155l219 -690h-174l-46 165h-227zM206 260h169l-77 277z" />
    <glyph glyph-name="Aring" unicode="&#xc5;" horiz-adv-x="637" 
d="M197 828q0 49 35 82.5t88 33.5q55 0 89.5 -33t34.5 -83q0 -49 -34.5 -82.5t-89.5 -33.5q-54 0 -88.5 33.5t-34.5 82.5zM369 818q0 22 -14 36.5t-34 14.5q-22 0 -35.5 -14.5t-13.5 -36.5q0 -21 14 -35.5t35 -14.5q20 0 34 14.5t14 35.5zM121 0h-114l241 690h155l219 -690
h-174l-46 165h-227zM206 260h169l-77 277z" />
    <glyph glyph-name="AE" unicode="&#xc6;" horiz-adv-x="853" 
d="M411 689h391v-106h-243v-186h198v-106h-198v-184h254v-106h-401v199h-180l-116 -200h-116zM287 295h125v216z" />
    <glyph glyph-name="Ccedilla" unicode="&#xc7;" horiz-adv-x="614" 
d="M263 -116h28q-1 -38 33 -38q14 0 23 9.5t9 26.5q0 44 -52 36l-20 13l16 58q-123 13 -195.5 101.5t-72.5 248.5q0 166 89 263t224 97q64 0 111.5 -21.5t71.5 -55.5t34 -70t7 -71h-74q-6 33 -38 62t-91 29q-80 0 -127.5 -61.5t-47.5 -171.5q0 -115 48 -173.5t125 -58.5
q66 0 105.5 32.5t44.5 75.5h68q0 -39 -12.5 -76.5t-38.5 -73t-75.5 -57t-115.5 -21.5h-1l-1 -28q42 5 69 -15t27 -62t-25 -65t-64 -23q-48 0 -68 25t-14 65z" />
    <glyph glyph-name="Egrave" unicode="&#xc8;" horiz-adv-x="536" 
d="M154 805l79 96l163 -136l-36 -35zM440 309h-222v-202h278v-106h-426v688h415v-106h-267v-169h222v-105z" />
    <glyph glyph-name="Eacute" unicode="&#xc9;" horiz-adv-x="536" 
d="M175 765l163 136l79 -96l-206 -75zM440 309h-222v-202h278v-106h-426v688h415v-106h-267v-169h222v-105z" />
    <glyph glyph-name="Ecircumflex" unicode="&#xca;" horiz-adv-x="536" 
d="M112 769l139 128h67l141 -128l-33 -41l-141 74l-141 -74zM440 309h-222v-202h278v-106h-426v688h415v-106h-267v-169h222v-105z" />
    <glyph glyph-name="Edieresis" unicode="&#xcb;" horiz-adv-x="536" 
d="M135 747v121h113v-121h-113zM317 747v121h113v-121h-113zM440 309h-222v-202h278v-106h-426v688h415v-106h-267v-169h222v-105z" />
    <glyph glyph-name="Igrave" unicode="&#xcc;" horiz-adv-x="292" 
d="M1 805l79 96l163 -136l-36 -35zM72 690h148v-690h-148v690z" />
    <glyph glyph-name="Iacute" unicode="&#xcd;" horiz-adv-x="292" 
d="M49 765l163 136l79 -96l-206 -75zM72 690h148v-690h-148v690z" />
    <glyph glyph-name="Icircumflex" unicode="&#xce;" horiz-adv-x="292" 
d="M147 804l-116 -75l-33 38l115 130h66l116 -130l-33 -38zM72 690h148v-690h-148v690z" />
    <glyph glyph-name="Idieresis" unicode="&#xcf;" horiz-adv-x="292" 
d="M-2 747v121h113v-121h-113zM180 747v121h113v-121h-113zM72 690h148v-690h-148v690z" />
    <glyph glyph-name="Eth" unicode="&#xd0;" horiz-adv-x="668" 
d="M5 392h65v298h210q173 0 264 -92.5t91 -248.5q0 -96 -29 -166t-80.5 -108.5t-112 -56.5t-133.5 -18h-210v326h-65v66zM342 326h-124v-218h64q101 0 148.5 64.5t47.5 175.5q0 113 -49.5 173.5t-146.5 60.5h-64v-190h124v-66z" />
    <glyph glyph-name="Ntilde" unicode="&#xd1;" horiz-adv-x="682" 
d="M443 832q45 0 34 65h32q24 -68 1.5 -112.5t-80.5 -44.5q-34 0 -59 16t-45.5 32t-42.5 16q-47 0 -34 -64h-32q-23 70 -0.5 113t80.5 43q35 0 60.5 -16t45 -32t40.5 -16zM612 690v-695h-117l-310 477v-472h-115v690h145l281 -443v443h116z" />
    <glyph glyph-name="Ograve" unicode="&#xd2;" horiz-adv-x="700" 
d="M223 805l79 96l163 -136l-36 -35zM32 344q0 162 86.5 258.5t233.5 96.5q134 0 225 -89t91 -257q0 -169 -83 -267.5t-233 -98.5q-144 0 -232 92t-88 265zM535 347q0 104 -47.5 163t-118.5 59q-81 0 -129.5 -60t-48.5 -165q0 -117 51 -176.5t127 -59.5q73 0 119.5 61.5
t46.5 177.5z" />
    <glyph glyph-name="Oacute" unicode="&#xd3;" horiz-adv-x="700" 
d="M253 765l163 136l79 -96l-206 -75zM32 344q0 162 86.5 258.5t233.5 96.5q134 0 225 -89t91 -257q0 -169 -83 -267.5t-233 -98.5q-144 0 -232 92t-88 265zM535 347q0 104 -47.5 163t-118.5 59q-81 0 -129.5 -60t-48.5 -165q0 -117 51 -176.5t127 -59.5q73 0 119.5 61.5
t46.5 177.5z" />
    <glyph glyph-name="Ocircumflex" unicode="&#xd4;" horiz-adv-x="700" 
d="M179 769l139 128h67l141 -128l-33 -41l-141 74l-141 -74zM32 344q0 162 86.5 258.5t233.5 96.5q134 0 225 -89t91 -257q0 -169 -83 -267.5t-233 -98.5q-144 0 -232 92t-88 265zM535 347q0 104 -47.5 163t-118.5 59q-81 0 -129.5 -60t-48.5 -165q0 -117 51 -176.5
t127 -59.5q73 0 119.5 61.5t46.5 177.5z" />
    <glyph glyph-name="Otilde" unicode="&#xd5;" horiz-adv-x="700" 
d="M434 832q45 0 34 65h32q24 -68 1.5 -112.5t-80.5 -44.5q-34 0 -59 16t-45.5 32t-42.5 16q-47 0 -34 -64h-32q-23 70 -0.5 113t80.5 43q35 0 60.5 -16t45 -32t40.5 -16zM32 344q0 162 86.5 258.5t233.5 96.5q134 0 225 -89t91 -257q0 -169 -83 -267.5t-233 -98.5
q-144 0 -232 92t-88 265zM535 347q0 104 -47.5 163t-118.5 59q-81 0 -129.5 -60t-48.5 -165q0 -117 51 -176.5t127 -59.5q73 0 119.5 61.5t46.5 177.5z" />
    <glyph glyph-name="Odieresis" unicode="&#xd6;" horiz-adv-x="700" 
d="M200 747v121h113v-121h-113zM382 747v121h113v-121h-113zM32 344q0 162 86.5 258.5t233.5 96.5q134 0 225 -89t91 -257q0 -169 -83 -267.5t-233 -98.5q-144 0 -232 92t-88 265zM535 347q0 104 -47.5 163t-118.5 59q-81 0 -129.5 -60t-48.5 -165q0 -117 51 -176.5
t127 -59.5q73 0 119.5 61.5t46.5 177.5z" />
    <glyph glyph-name="multiply" unicode="&#xd7;" 
d="M106 180l117 117l-117 117l79 78l117 -117l117 117l79 -78l-117 -117l117 -117l-79 -80l-117 117l-117 -117z" />
    <glyph glyph-name="Oslash" unicode="&#xd8;" horiz-adv-x="700" 
d="M32 344q0 162 86.5 258.5t233.5 96.5q114 0 196 -63l49 62h71l-79 -100q79 -94 79 -245q0 -169 -83 -267.5t-233 -98.5q-119 0 -198 61l-48 -60h-74l80 100q-80 94 -80 256zM191 344q0 -75 22 -128l253 317q-42 36 -97 36q-81 0 -129.5 -60t-48.5 -165zM535 347
q0 84 -33 141l-257 -324q49 -56 124 -56q73 0 119.5 61.5t46.5 177.5z" />
    <glyph glyph-name="Ugrave" unicode="&#xd9;" horiz-adv-x="667" 
d="M225 805l79 96l163 -136l-36 -35zM65 313v377h159v-351q0 -120 30 -174.5t108 -54.5q74 0 102 52.5t28 169.5v358h110v-368q0 -335 -257 -335q-68 0 -118 16.5t-80.5 44t-49 70t-25.5 89t-7 106.5z" />
    <glyph glyph-name="Uacute" unicode="&#xda;" horiz-adv-x="667" 
d="M263 765l163 136l79 -96l-206 -75zM65 313v377h159v-351q0 -120 30 -174.5t108 -54.5q74 0 102 52.5t28 169.5v358h110v-368q0 -335 -257 -335q-68 0 -118 16.5t-80.5 44t-49 70t-25.5 89t-7 106.5z" />
    <glyph glyph-name="Ucircumflex" unicode="&#xdb;" horiz-adv-x="667" 
d="M183 769l139 128h67l141 -128l-33 -41l-141 74l-141 -74zM65 313v377h159v-351q0 -120 30 -174.5t108 -54.5q74 0 102 52.5t28 169.5v358h110v-368q0 -335 -257 -335q-68 0 -118 16.5t-80.5 44t-49 70t-25.5 89t-7 106.5z" />
    <glyph glyph-name="Udieresis" unicode="&#xdc;" horiz-adv-x="667" 
d="M211 747v121h113v-121h-113zM393 747v121h113v-121h-113zM65 313v377h159v-351q0 -120 30 -174.5t108 -54.5q74 0 102 52.5t28 169.5v358h110v-368q0 -335 -257 -335q-68 0 -118 16.5t-80.5 44t-49 70t-25.5 89t-7 106.5z" />
    <glyph glyph-name="Yacute" unicode="&#xdd;" horiz-adv-x="574" 
d="M233 765l163 136l79 -96l-206 -75zM584 690l-215 -408v-282h-148v281l-228 409h179l150 -283l146 283h116z" />
    <glyph glyph-name="Thorn" unicode="&#xde;" horiz-adv-x="593" 
d="M70 690h148v-116h113q108 0 175.5 -58.5t67.5 -157.5q0 -113 -67 -171t-178 -58h-111v-129h-148v690zM296 468h-78v-234h81q58 0 94.5 29t36.5 89q0 56 -37.5 86t-96.5 30z" />
    <glyph glyph-name="germandbls" unicode="&#xdf;" horiz-adv-x="615" 
d="M62 455q0 113 60 184t191 71q93 0 146.5 -43.5t53.5 -108.5q0 -62 -51 -103q-3 -3 -12.5 -10.5t-13 -10.5t-10 -10t-9 -11.5t-5 -12t-2.5 -14.5q0 -14 7.5 -25.5t16.5 -17.5t28.5 -18t30.5 -20q91 -58 91 -152q0 -77 -51 -121.5t-131 -44.5q-72 0 -110 34.5t-38 100.5h44
q10 -73 72 -73q29 0 48.5 18t19.5 47q0 18 -8 32.5t-14.5 21t-28 21.5t-29.5 21q-40 31 -57 56.5t-17 58.5q0 26 13 50.5t22.5 34.5t35.5 35q17 17 24.5 25.5t16.5 27.5t9 39q0 36 -23 57.5t-62 21.5q-60 0 -88.5 -45.5t-28.5 -143.5v-427h-141v455z" />
    <glyph glyph-name="agrave" unicode="&#xe0;" horiz-adv-x="489" 
d="M120 704l84 76l135 -192l-52 -43zM29 116q0 64 43 106t135 42q54 0 88 -17v43q0 105 -95 105q-40 0 -66 -23t-33 -56h-43q0 77 46.5 128t140.5 51q89 0 136 -46.5t47 -131.5v-166q0 -79 25 -101q10 -14 22 -17l4 -20q-19 -23 -69 -23q-97 0 -112 79q-43 -82 -136 -82
q-65 0 -99 36t-34 93zM162 133q0 -56 57 -56q40 0 58 33.5t18 84.5v5q-24 8 -52 8q-39 0 -60 -19.5t-21 -55.5z" />
    <glyph glyph-name="aacute" unicode="&#xe1;" horiz-adv-x="489" 
d="M179 588l135 192l84 -76l-167 -159zM29 116q0 64 43 106t135 42q54 0 88 -17v43q0 105 -95 105q-40 0 -66 -23t-33 -56h-43q0 77 46.5 128t140.5 51q89 0 136 -46.5t47 -131.5v-166q0 -79 25 -101q10 -14 22 -17l4 -20q-19 -23 -69 -23q-97 0 -112 79q-43 -82 -136 -82
q-65 0 -99 36t-34 93zM162 133q0 -56 57 -56q40 0 58 33.5t18 84.5v5q-24 8 -52 8q-39 0 -60 -19.5t-21 -55.5z" />
    <glyph glyph-name="acircumflex" unicode="&#xe2;" horiz-adv-x="489" 
d="M81 586l136 178h75l136 -178l-43 -40l-131 118l-131 -118zM29 116q0 64 43 106t135 42q54 0 88 -17v43q0 105 -95 105q-40 0 -66 -23t-33 -56h-43q0 77 46.5 128t140.5 51q89 0 136 -46.5t47 -131.5v-166q0 -79 25 -101q10 -14 22 -17l4 -20q-19 -23 -69 -23
q-97 0 -112 79q-43 -82 -136 -82q-65 0 -99 36t-34 93zM162 133q0 -56 57 -56q40 0 58 33.5t18 84.5v5q-24 8 -52 8q-39 0 -60 -19.5t-21 -55.5z" />
    <glyph glyph-name="atilde" unicode="&#xe3;" horiz-adv-x="489" 
d="M101 576q-25 78 -2.5 125t79.5 47q29 0 51.5 -11.5t34 -25t28 -25t33.5 -11.5q47 0 32 74h33q24 -75 1.5 -123.5t-79.5 -48.5q-34 0 -59 18.5t-44.5 36.5t-42.5 18q-25 0 -33 -20.5t-1 -53.5h-31zM29 116q0 64 43 106t135 42q54 0 88 -17v43q0 105 -95 105q-40 0 -66 -23
t-33 -56h-43q0 77 46.5 128t140.5 51q89 0 136 -46.5t47 -131.5v-166q0 -79 25 -101q10 -14 22 -17l4 -20q-19 -23 -69 -23q-97 0 -112 79q-43 -82 -136 -82q-65 0 -99 36t-34 93zM162 133q0 -56 57 -56q40 0 58 33.5t18 84.5v5q-24 8 -52 8q-39 0 -60 -19.5t-21 -55.5z" />
    <glyph glyph-name="adieresis" unicode="&#xe4;" horiz-adv-x="489" 
d="M110 605v120h113v-120h-113zM292 605v120h113v-120h-113zM29 116q0 64 43 106t135 42q54 0 88 -17v43q0 105 -95 105q-40 0 -66 -23t-33 -56h-43q0 77 46.5 128t140.5 51q89 0 136 -46.5t47 -131.5v-166q0 -79 25 -101q10 -14 22 -17l4 -20q-19 -23 -69 -23
q-97 0 -112 79q-43 -82 -136 -82q-65 0 -99 36t-34 93zM162 133q0 -56 57 -56q40 0 58 33.5t18 84.5v5q-24 8 -52 8q-39 0 -60 -19.5t-21 -55.5z" />
    <glyph glyph-name="aring" unicode="&#xe5;" horiz-adv-x="489" 
d="M133 688q0 50 35 83.5t89 33.5q57 0 91.5 -33.5t34.5 -83.5q0 -51 -34.5 -84.5t-91.5 -33.5q-55 0 -89.5 34t-34.5 84zM308 677q0 22 -14.5 37.5t-35.5 15.5q-22 0 -36.5 -15t-14.5 -38q0 -22 14.5 -37t36.5 -15q21 0 35.5 15t14.5 37zM29 116q0 64 43 106t135 42
q54 0 88 -17v43q0 105 -95 105q-40 0 -66 -23t-33 -56h-43q0 77 46.5 128t140.5 51q89 0 136 -46.5t47 -131.5v-166q0 -79 25 -101q10 -14 22 -17l4 -20q-19 -23 -69 -23q-97 0 -112 79q-43 -82 -136 -82q-65 0 -99 36t-34 93zM162 133q0 -56 57 -56q40 0 58 33.5t18 84.5v5
q-24 8 -52 8q-39 0 -60 -19.5t-21 -55.5z" />
    <glyph glyph-name="ae" unicode="&#xe6;" horiz-adv-x="741" 
d="M709 173q0 -81 -51 -133.5t-139 -52.5q-116 0 -171 75q-68 -75 -168 -75q-77 0 -114 36t-37 93q0 64 43 106t135 42q54 0 88 -17v43q0 106 -98 106q-42 0 -68 -23t-33 -57h-38q0 77 43.5 128t133.5 51q92 0 136 -64q56 64 147 64q88 0 133.5 -48.5t45.5 -122.5
q0 -50 -7 -90h-262q0 -154 126 -154q51 0 81.5 25.5t34.5 67.5h39zM520 393q-36 0 -60 -27.5t-30 -79.5l153 4q3 12 3 32q0 71 -66 71zM219 77q40 0 58 33t18 85v5q-26 8 -52 8q-39 0 -60 -19.5t-21 -55.5q0 -56 57 -56z" />
    <glyph glyph-name="ccedilla" unicode="&#xe7;" horiz-adv-x="471" 
d="M181 -116h28q-1 -38 33 -38q14 0 23 9.5t9 26.5q0 44 -52 36l-20 13l16 59q-80 11 -133 68t-53 169q0 114 62.5 191t163.5 77q85 0 125.5 -39.5t43.5 -96.5q1 -23 -3 -44h-61q-11 74 -84 74q-49 0 -76 -43t-27 -110q0 -74 31 -114.5t85 -40.5q90 0 107 90h42
q0 -81 -47.5 -132.5t-135.5 -51.5h-1l-1 -28q42 5 69 -15t27 -62t-25 -65t-64 -23q-48 0 -68 25t-14 65z" />
    <glyph glyph-name="egrave" unicode="&#xe8;" horiz-adv-x="485" 
d="M130 704l84 76l135 -192l-52 -43zM32 224q0 114 62.5 192.5t160.5 78.5q92 0 138.5 -48.5t46.5 -122.5q0 -50 -7 -90h-262q2 -154 125 -154q51 0 80.5 25.5t34.5 67.5h41q0 -81 -51 -133.5t-139 -52.5q-112 0 -171 61t-59 176zM263 393q-36 0 -60 -27.5t-30 -78.5l153 3
q3 12 3 32q0 71 -66 71z" />
    <glyph glyph-name="eacute" unicode="&#xe9;" horiz-adv-x="485" 
d="M188 588l135 192l84 -76l-167 -159zM32 224q0 114 62.5 192.5t160.5 78.5q92 0 138.5 -48.5t46.5 -122.5q0 -50 -7 -90h-262q2 -154 125 -154q51 0 80.5 25.5t34.5 67.5h41q0 -81 -51 -133.5t-139 -52.5q-112 0 -171 61t-59 176zM263 393q-36 0 -60 -27.5t-30 -78.5
l153 3q3 12 3 32q0 71 -66 71z" />
    <glyph glyph-name="ecircumflex" unicode="&#xea;" horiz-adv-x="485" 
d="M92 586l136 178h75l136 -178l-43 -40l-131 118l-131 -118zM32 224q0 114 62.5 192.5t160.5 78.5q92 0 138.5 -48.5t46.5 -122.5q0 -50 -7 -90h-262q2 -154 125 -154q51 0 80.5 25.5t34.5 67.5h41q0 -81 -51 -133.5t-139 -52.5q-112 0 -171 61t-59 176zM263 393
q-36 0 -60 -27.5t-30 -78.5l153 3q3 12 3 32q0 71 -66 71z" />
    <glyph glyph-name="edieresis" unicode="&#xeb;" horiz-adv-x="485" 
d="M118 605v120h113v-120h-113zM300 605v120h113v-120h-113zM32 224q0 114 62.5 192.5t160.5 78.5q92 0 138.5 -48.5t46.5 -122.5q0 -50 -7 -90h-262q2 -154 125 -154q51 0 80.5 25.5t34.5 67.5h41q0 -81 -51 -133.5t-139 -52.5q-112 0 -171 61t-59 176zM263 393
q-36 0 -60 -27.5t-30 -78.5l153 3q3 12 3 32q0 71 -66 71z" />
    <glyph glyph-name="igrave" unicode="&#xec;" horiz-adv-x="266" 
d="M5 704l84 76l135 -192l-52 -43zM63 478l140 7v-485h-140v478z" />
    <glyph glyph-name="iacute" unicode="&#xed;" horiz-adv-x="266" 
d="M48 588l135 192l84 -76l-167 -159zM63 478l140 7v-485h-140v478z" />
    <glyph glyph-name="icircumflex" unicode="&#xee;" horiz-adv-x="266" 
d="M-36 586l136 178h75l136 -178l-43 -40l-131 118l-131 -118zM63 478l140 7v-485h-140v478z" />
    <glyph glyph-name="idieresis" unicode="&#xef;" horiz-adv-x="266" 
d="M-11 605v120h113v-120h-113zM171 605v120h113v-120h-113zM63 478l140 7v-485h-140v478z" />
    <glyph glyph-name="eth" unicode="&#xf0;" horiz-adv-x="531" 
d="M265 -13q-108 0 -170.5 66.5t-62.5 179.5q0 112 50 178.5t131 66.5q102 0 144 -100l3 1q-19 113 -115 196l-54 -52h-68l85 82q-46 33 -107 57l77 48q54 -21 94 -44l45 43h67l-72 -69q187 -133 187 -382q0 -132 -63 -201.5t-171 -69.5zM268 84q41 0 66 37.5t25 104.5
q0 64 -23.5 104.5t-69.5 40.5q-47 0 -70 -40.5t-23 -104.5q0 -62 22.5 -102t72.5 -40z" />
    <glyph glyph-name="ntilde" unicode="&#xf1;" horiz-adv-x="554" 
d="M123 576q-25 78 -2.5 125t79.5 47q29 0 51.5 -11.5t34 -25t28 -25t33.5 -11.5q47 0 32 74h33q24 -75 1.5 -123.5t-79.5 -48.5q-34 0 -59 18.5t-44.5 36.5t-42.5 18q-25 0 -33 -20.5t-1 -53.5h-31zM60 478l120 7l15 -157q9 78 44 122.5t111 44.5q83 0 116.5 -48.5
t33.5 -141.5v-305h-141v238q0 79 -16 109.5t-55 30.5q-88 0 -88 -212v-166h-140v478z" />
    <glyph glyph-name="ograve" unicode="&#xf2;" horiz-adv-x="530" 
d="M135 704l84 76l135 -192l-52 -43zM32 239q0 114 65 185t169 71q101 0 166.5 -68t65.5 -191q0 -116 -61 -182.5t-171 -66.5q-105 0 -169.5 65.5t-64.5 186.5zM358 242q0 65 -23.5 104.5t-69.5 39.5q-44 0 -68 -38.5t-24 -104.5q0 -158 93 -158q92 0 92 157z" />
    <glyph glyph-name="oacute" unicode="&#xf3;" horiz-adv-x="530" 
d="M176 588l135 192l84 -76l-167 -159zM32 239q0 114 65 185t169 71q101 0 166.5 -68t65.5 -191q0 -116 -61 -182.5t-171 -66.5q-105 0 -169.5 65.5t-64.5 186.5zM358 242q0 65 -23.5 104.5t-69.5 39.5q-44 0 -68 -38.5t-24 -104.5q0 -158 93 -158q92 0 92 157z" />
    <glyph glyph-name="ocircumflex" unicode="&#xf4;" horiz-adv-x="530" 
d="M96 586l136 178h75l136 -178l-43 -40l-131 118l-131 -118zM32 239q0 114 65 185t169 71q101 0 166.5 -68t65.5 -191q0 -116 -61 -182.5t-171 -66.5q-105 0 -169.5 65.5t-64.5 186.5zM358 242q0 65 -23.5 104.5t-69.5 39.5q-44 0 -68 -38.5t-24 -104.5q0 -158 93 -158
q92 0 92 157z" />
    <glyph glyph-name="otilde" unicode="&#xf5;" horiz-adv-x="530" 
d="M121 576q-25 78 -2.5 125t79.5 47q29 0 51.5 -11.5t34 -25t28 -25t33.5 -11.5q47 0 32 74h33q24 -75 1.5 -123.5t-79.5 -48.5q-34 0 -59 18.5t-44.5 36.5t-42.5 18q-25 0 -33 -20.5t-1 -53.5h-31zM32 239q0 114 65 185t169 71q101 0 166.5 -68t65.5 -191
q0 -116 -61 -182.5t-171 -66.5q-105 0 -169.5 65.5t-64.5 186.5zM358 242q0 65 -23.5 104.5t-69.5 39.5q-44 0 -68 -38.5t-24 -104.5q0 -158 93 -158q92 0 92 157z" />
    <glyph glyph-name="odieresis" unicode="&#xf6;" horiz-adv-x="530" 
d="M122 605v120h113v-120h-113zM304 605v120h113v-120h-113zM32 239q0 114 65 185t169 71q101 0 166.5 -68t65.5 -191q0 -116 -61 -182.5t-171 -66.5q-105 0 -169.5 65.5t-64.5 186.5zM358 242q0 65 -23.5 104.5t-69.5 39.5q-44 0 -68 -38.5t-24 -104.5q0 -158 93 -158
q92 0 92 157z" />
    <glyph glyph-name="divide" unicode="&#xf7;" 
d="M232 531q0 29 19.5 49.5t52.5 20.5q30 0 49.5 -21t19.5 -49q0 -32 -18.5 -52t-49.5 -20q-34 0 -53.5 20t-19.5 52zM523 369v-112h-443v112h443zM232 99q0 29 19.5 49.5t52.5 20.5q30 0 49.5 -21t19.5 -49q0 -32 -18.5 -52t-49.5 -20q-34 0 -53.5 20t-19.5 52z" />
    <glyph glyph-name="oslash" unicode="&#xf8;" horiz-adv-x="534" 
d="M32 239q0 114 65 185t169 71q82 0 141 -45l34 43h61l-61 -76q57 -68 57 -181q0 -116 -61 -182.5t-171 -66.5q-79 0 -137 38l-30 -37h-63l56 69q-60 66 -60 182zM173 243q0 -46 7 -75l149 186q-24 32 -64 32q-44 0 -68 -38.5t-24 -104.5zM358 242q0 37 -7 62l-149 -187
q23 -32 64 -32q92 0 92 157z" />
    <glyph glyph-name="ugrave" unicode="&#xf9;" horiz-adv-x="554" 
d="M150 704l84 76l135 -192l-52 -43zM359 134v7q-26 -154 -154 -154q-83 0 -116.5 48.5t-33.5 141.5v300l140 8v-241q0 -79 16.5 -109t55.5 -30q87 0 87 212v160l141 8v-485h-129z" />
    <glyph glyph-name="uacute" unicode="&#xfa;" horiz-adv-x="554" 
d="M199 588l135 192l84 -76l-167 -159zM359 134v7q-26 -154 -154 -154q-83 0 -116.5 48.5t-33.5 141.5v300l140 8v-241q0 -79 16.5 -109t55.5 -30q87 0 87 212v160l141 8v-485h-129z" />
    <glyph glyph-name="ucircumflex" unicode="&#xfb;" horiz-adv-x="554" 
d="M108 586l136 178h75l136 -178l-43 -40l-131 118l-131 -118zM359 134v7q-26 -154 -154 -154q-83 0 -116.5 48.5t-33.5 141.5v300l140 8v-241q0 -79 16.5 -109t55.5 -30q87 0 87 212v160l141 8v-485h-129z" />
    <glyph glyph-name="udieresis" unicode="&#xfc;" horiz-adv-x="554" 
d="M139 605v120h113v-120h-113zM321 605v120h113v-120h-113zM359 134v7q-26 -154 -154 -154q-83 0 -116.5 48.5t-33.5 141.5v300l140 8v-241q0 -79 16.5 -109t55.5 -30q87 0 87 212v160l141 8v-485h-129z" />
    <glyph glyph-name="yacute" unicode="&#xfd;" horiz-adv-x="479" 
d="M165 588l135 192l84 -76l-167 -159zM12 -111h32q0 -20 13 -32.5t40 -12.5t43.5 20.5t36.5 76.5l16 44l-197 493h165l96 -312l100 312h123l-227 -601q-49 -127 -136 -127q-39 0 -64 15.5t-31.5 37t-10 43.5t0.5 36v7z" />
    <glyph glyph-name="thorn" unicode="&#xfe;" horiz-adv-x="560" 
d="M60 702l141 8v-312q37 96 138 96q80 0 134.5 -64.5t54.5 -185.5q0 -114 -53 -186t-136 -72q-102 0 -138 100v-86h-1v-241h-140v943zM384 226q0 80 -25 119.5t-67 39.5q-82 0 -91 -130v-52q5 -53 29 -85.5t62 -32.5q44 0 68 39t24 102z" />
    <glyph glyph-name="ydieresis" unicode="&#xff;" horiz-adv-x="479" 
d="M111 605v120h113v-120h-113zM293 605v120h113v-120h-113zM12 -111h32q0 -20 13 -32.5t40 -12.5t43.5 20.5t36.5 76.5l16 44l-197 493h165l96 -312l100 312h123l-227 -601q-49 -127 -136 -127q-39 0 -64 15.5t-31.5 37t-10 43.5t0.5 36v7z" />
    <glyph glyph-name="Amacron" unicode="&#x100;" horiz-adv-x="637" 
d="M173 862h296v-88h-296v88zM121 0h-114l241 690h155l219 -690h-174l-46 165h-227zM206 260h169l-77 277z" />
    <glyph glyph-name="amacron" unicode="&#x101;" horiz-adv-x="489" 
d="M108 723h296v-88h-296v88zM29 116q0 64 43 106t135 42q54 0 88 -17v43q0 105 -95 105q-40 0 -66 -23t-33 -56h-43q0 77 46.5 128t140.5 51q89 0 136 -46.5t47 -131.5v-166q0 -79 25 -101q10 -14 22 -17l4 -20q-19 -23 -69 -23q-97 0 -112 79q-43 -82 -136 -82
q-65 0 -99 36t-34 93zM162 133q0 -56 57 -56q40 0 58 33.5t18 84.5v5q-24 8 -52 8q-39 0 -60 -19.5t-21 -55.5z" />
    <glyph glyph-name="Abreve" unicode="&#x102;" horiz-adv-x="637" 
d="M176 898h45q6 -30 29.5 -48.5t79.5 -18.5q94 0 108 67h45q6 -69 -32.5 -114.5t-120.5 -45.5q-83 0 -121.5 45.5t-32.5 114.5zM121 0h-114l241 690h155l219 -690h-174l-46 165h-227zM206 260h169l-77 277z" />
    <glyph glyph-name="abreve" unicode="&#x103;" horiz-adv-x="489" 
d="M265 567q-83 0 -120.5 53t-31.5 133h46q14 -89 106 -89q55 0 77.5 25.5t29.5 63.5h45q6 -80 -31.5 -133t-120.5 -53zM29 116q0 64 43 106t135 42q54 0 88 -17v43q0 105 -95 105q-40 0 -66 -23t-33 -56h-43q0 77 46.5 128t140.5 51q89 0 136 -46.5t47 -131.5v-166
q0 -79 25 -101q10 -14 22 -17l4 -20q-19 -23 -69 -23q-97 0 -112 79q-43 -82 -136 -82q-65 0 -99 36t-34 93zM162 133q0 -56 57 -56q40 0 58 33.5t18 84.5v5q-24 8 -52 8q-39 0 -60 -19.5t-21 -55.5z" />
    <glyph glyph-name="Aogonek" unicode="&#x104;" horiz-adv-x="637" 
d="M121 0h-114l241 690h155l219 -690h-76q-43 -5 -71 -40.5t-28 -80.5q0 -35 29 -35q15 0 22.5 12t7.5 29h29q3 -46 -17.5 -74.5t-69.5 -28.5q-44 0 -66.5 23t-22.5 60q0 76 90 135h-1l-46 165h-227zM206 260h169l-77 277z" />
    <glyph glyph-name="aogonek" unicode="&#x105;" horiz-adv-x="489" 
d="M29 116q0 64 43 106t135 42q54 0 88 -17v43q0 105 -95 105q-40 0 -66 -23t-33 -56h-43q0 77 46.5 128t140.5 51q89 0 136 -46.5t47 -131.5v-166q0 -79 25 -101q10 -14 22 -17l4 -20q-5 -6 -20 -13l1 -1q-81 -30 -81 -115q0 -40 34 -40q15 0 22.5 12t7.5 29h29
q3 -46 -18 -74.5t-70 -28.5q-44 0 -67 23.5t-23 61.5q0 72 93 124q-76 7 -89 78q-43 -82 -136 -82q-65 0 -99 36t-34 93zM162 133q0 -56 57 -56q40 0 58 33.5t18 84.5v5q-24 8 -52 8q-39 0 -60 -19.5t-21 -55.5z" />
    <glyph glyph-name="Cacute" unicode="&#x106;" horiz-adv-x="614" 
d="M257 765l163 136l79 -96l-206 -75zM32 339q0 166 89 263t224 97q64 0 111.5 -21.5t71.5 -55.5t34 -70t7 -71h-74q-6 33 -38 62t-91 29q-80 0 -127.5 -61.5t-47.5 -171.5q0 -115 48 -173.5t125 -58.5q66 0 105.5 32.5t44.5 75.5h68q0 -39 -12.5 -76.5t-38.5 -73t-75.5 -57
t-115.5 -21.5q-139 0 -223.5 89.5t-84.5 262.5z" />
    <glyph glyph-name="cacute" unicode="&#x107;" horiz-adv-x="471" 
d="M170 588l135 192l84 -76l-167 -159zM32 227q0 114 62.5 191t163.5 77q85 0 125.5 -39.5t43.5 -96.5q1 -23 -3 -44h-61q-11 74 -84 74q-49 0 -76 -43t-27 -110q0 -74 31 -114.5t85 -40.5q90 0 107 90h42q0 -81 -47.5 -132.5t-135.5 -51.5q-43 0 -80.5 12t-71.5 38t-54 75
t-20 115z" />
    <glyph glyph-name="Ccircumflex" unicode="&#x108;" horiz-adv-x="614" 
d="M165 769l139 128h67l141 -128l-33 -41l-141 74l-141 -74zM32 339q0 166 89 263t224 97q64 0 111.5 -21.5t71.5 -55.5t34 -70t7 -71h-74q-6 33 -38 62t-91 29q-80 0 -127.5 -61.5t-47.5 -171.5q0 -115 48 -173.5t125 -58.5q66 0 105.5 32.5t44.5 75.5h68
q0 -39 -12.5 -76.5t-38.5 -73t-75.5 -57t-115.5 -21.5q-139 0 -223.5 89.5t-84.5 262.5z" />
    <glyph glyph-name="ccircumflex" unicode="&#x109;" horiz-adv-x="471" 
d="M92 586l136 178h75l136 -178l-43 -40l-131 118l-131 -118zM32 227q0 114 62.5 191t163.5 77q85 0 125.5 -39.5t43.5 -96.5q1 -23 -3 -44h-61q-11 74 -84 74q-49 0 -76 -43t-27 -110q0 -74 31 -114.5t85 -40.5q90 0 107 90h42q0 -81 -47.5 -132.5t-135.5 -51.5
q-43 0 -80.5 12t-71.5 38t-54 75t-20 115z" />
    <glyph glyph-name="Cdotaccent" unicode="&#x10a;" horiz-adv-x="614" 
d="M270 746v123h145v-123h-145zM32 339q0 166 89 263t224 97q64 0 111.5 -21.5t71.5 -55.5t34 -70t7 -71h-74q-6 33 -38 62t-91 29q-80 0 -127.5 -61.5t-47.5 -171.5q0 -115 48 -173.5t125 -58.5q66 0 105.5 32.5t44.5 75.5h68q0 -39 -12.5 -76.5t-38.5 -73t-75.5 -57
t-115.5 -21.5q-139 0 -223.5 89.5t-84.5 262.5z" />
    <glyph glyph-name="cdotaccent" unicode="&#x10b;" horiz-adv-x="471" 
d="M192 603v122h145v-122h-145zM32 227q0 114 62.5 191t163.5 77q85 0 125.5 -39.5t43.5 -96.5q1 -23 -3 -44h-61q-11 74 -84 74q-49 0 -76 -43t-27 -110q0 -74 31 -114.5t85 -40.5q90 0 107 90h42q0 -81 -47.5 -132.5t-135.5 -51.5q-43 0 -80.5 12t-71.5 38t-54 75t-20 115
z" />
    <glyph glyph-name="Ccaron" unicode="&#x10c;" horiz-adv-x="614" 
d="M170 859l32 41l141 -73l142 73l32 -41l-140 -128h-67zM32 339q0 166 89 263t224 97q64 0 111.5 -21.5t71.5 -55.5t34 -70t7 -71h-74q-6 33 -38 62t-91 29q-80 0 -127.5 -61.5t-47.5 -171.5q0 -115 48 -173.5t125 -58.5q66 0 105.5 32.5t44.5 75.5h68q0 -39 -12.5 -76.5
t-38.5 -73t-75.5 -57t-115.5 -21.5q-139 0 -223.5 89.5t-84.5 262.5z" />
    <glyph glyph-name="ccaron" unicode="&#x10d;" horiz-adv-x="472" 
d="M90 734l44 37l129 -118l130 118l44 -37l-136 -180h-75zM32 227q0 114 62.5 191t163.5 77q85 0 125.5 -39.5t43.5 -96.5q1 -23 -3 -44h-61q-11 74 -84 74q-49 0 -76 -43t-27 -110q0 -74 31 -114.5t85 -40.5q90 0 107 90h42q0 -81 -47.5 -132.5t-135.5 -51.5
q-43 0 -80.5 12t-71.5 38t-54 75t-20 115z" />
    <glyph glyph-name="Dcaron" unicode="&#x10e;" horiz-adv-x="668" 
d="M119 859l32 41l141 -73l142 73l32 -41l-140 -128h-67zM70 690h210q173 0 264 -92.5t91 -248.5q0 -96 -29 -166t-80.5 -108.5t-112 -56.5t-133.5 -18h-210v690zM282 582h-64v-474h64q101 0 148.5 64.5t47.5 175.5q0 113 -49.5 173.5t-146.5 60.5z" />
    <glyph glyph-name="dcaron" unicode="&#x10f;" horiz-adv-x="692" 
d="M32 239q0 113 53 184.5t136 71.5q101 0 139 -106v313l141 8v-710h-111l-15 133q-11 -73 -47 -109.5t-107 -36.5q-80 0 -134.5 65t-54.5 187zM570 500l19 210h115l-56 -210h-78zM360 243q0 61 -25 101t-67 40q-43 0 -67.5 -39.5t-24.5 -102.5q0 -79 25 -118t68 -39
q91 0 91 158z" />
    <glyph glyph-name="Dcroat" unicode="&#x110;" horiz-adv-x="668" 
d="M5 392h65v298h210q173 0 264 -92.5t91 -248.5q0 -96 -29 -166t-80.5 -108.5t-112 -56.5t-133.5 -18h-210v326h-65v66zM342 326h-124v-218h64q101 0 148.5 64.5t47.5 175.5q0 113 -49.5 173.5t-146.5 60.5h-64v-190h124v-66z" />
    <glyph glyph-name="dcroat" unicode="&#x111;" horiz-adv-x="574" 
d="M32 239q0 113 53 184.5t136 71.5q101 0 139 -106v178h-141v65h141v70l141 8v-78h67v-65h-67v-567h-111l-15 133q-11 -73 -47 -109.5t-107 -36.5q-80 0 -134.5 65t-54.5 187zM360 243q0 61 -25 101t-67 40q-43 0 -67.5 -39.5t-24.5 -102.5q0 -79 25 -118t68 -39
q91 0 91 158z" />
    <glyph glyph-name="Emacron" unicode="&#x112;" horiz-adv-x="536" 
d="M133 862h296v-88h-296v88zM440 309h-222v-202h278v-106h-426v688h415v-106h-267v-169h222v-105z" />
    <glyph glyph-name="emacron" unicode="&#x113;" horiz-adv-x="485" 
d="M117 723h296v-88h-296v88zM32 224q0 114 62.5 192.5t160.5 78.5q92 0 138.5 -48.5t46.5 -122.5q0 -50 -7 -90h-262q2 -154 125 -154q51 0 80.5 25.5t34.5 67.5h41q0 -81 -51 -133.5t-139 -52.5q-112 0 -171 61t-59 176zM263 393q-36 0 -60 -27.5t-30 -78.5l153 3
q3 12 3 32q0 71 -66 71z" />
    <glyph glyph-name="Ebreve" unicode="&#x114;" horiz-adv-x="536" 
d="M129 898h45q6 -30 29.5 -48.5t79.5 -18.5q94 0 108 67h45q6 -69 -32.5 -114.5t-120.5 -45.5q-83 0 -121.5 45.5t-32.5 114.5zM440 309h-222v-202h278v-106h-426v688h415v-106h-267v-169h222v-105z" />
    <glyph glyph-name="ebreve" unicode="&#x115;" horiz-adv-x="485" 
d="M267 567q-83 0 -120.5 53t-31.5 133h46q14 -89 106 -89q55 0 77.5 25.5t29.5 63.5h45q6 -80 -31.5 -133t-120.5 -53zM32 224q0 114 62.5 192.5t160.5 78.5q92 0 138.5 -48.5t46.5 -122.5q0 -50 -7 -90h-262q2 -154 125 -154q51 0 80.5 25.5t34.5 67.5h41
q0 -81 -51 -133.5t-139 -52.5q-112 0 -171 61t-59 176zM263 393q-36 0 -60 -27.5t-30 -78.5l153 3q3 12 3 32q0 71 -66 71z" />
    <glyph glyph-name="Edotaccent" unicode="&#x116;" horiz-adv-x="536" 
d="M211 746v123h145v-123h-145zM440 309h-222v-202h278v-106h-426v688h415v-106h-267v-169h222v-105z" />
    <glyph glyph-name="edotaccent" unicode="&#x117;" horiz-adv-x="485" 
d="M193 603v122h145v-122h-145zM32 224q0 114 62.5 192.5t160.5 78.5q92 0 138.5 -48.5t46.5 -122.5q0 -50 -7 -90h-262q2 -154 125 -154q51 0 80.5 25.5t34.5 67.5h41q0 -81 -51 -133.5t-139 -52.5q-112 0 -171 61t-59 176zM263 393q-36 0 -60 -27.5t-30 -78.5l153 3
q3 12 3 32q0 71 -66 71z" />
    <glyph glyph-name="Eogonek" unicode="&#x118;" horiz-adv-x="536" 
d="M301 -131q0 78 83 132h-314v688h415v-106h-267v-169h222v-105h-222v-202h278v-106h-6q-47 0 -74.5 -36.5t-27.5 -82.5q0 -38 31 -38q15 0 22.5 12t7.5 29h30q3 -46 -18.5 -74.5t-70.5 -28.5q-44 0 -66.5 23.5t-22.5 63.5z" />
    <glyph glyph-name="eogonek" unicode="&#x119;" horiz-adv-x="485" 
d="M32 224q0 114 62.5 192.5t160.5 78.5q92 0 138.5 -48.5t46.5 -122.5q0 -50 -7 -90h-262q2 -154 125 -154q51 0 80.5 25.5t34.5 67.5h41q0 -74 -43 -125q-54 -88 -54 -165q0 -38 32 -38q13 0 20.5 12t7.5 28h31q2 -46 -18.5 -74.5t-69.5 -28.5q-94 0 -94 88q0 60 64 126
q-30 -9 -66 -9q-112 0 -171 61t-59 176zM263 393q-36 0 -60 -27.5t-30 -78.5l153 3q3 12 3 32q0 71 -66 71z" />
    <glyph glyph-name="Ecaron" unicode="&#x11a;" horiz-adv-x="536" 
d="M112 859l32 41l141 -73l142 73l32 -41l-140 -128h-67zM440 309h-222v-202h278v-106h-426v688h415v-106h-267v-169h222v-105z" />
    <glyph glyph-name="ecaron" unicode="&#x11b;" horiz-adv-x="485" 
d="M84 734l44 37l129 -118l130 118l44 -37l-136 -180h-75zM32 224q0 114 62.5 192.5t160.5 78.5q92 0 138.5 -48.5t46.5 -122.5q0 -50 -7 -90h-262q2 -154 125 -154q51 0 80.5 25.5t34.5 67.5h41q0 -81 -51 -133.5t-139 -52.5q-112 0 -171 61t-59 176zM263 393
q-36 0 -60 -27.5t-30 -78.5l153 3q3 12 3 32q0 71 -66 71z" />
    <glyph glyph-name="Gcircumflex" unicode="&#x11c;" horiz-adv-x="647" 
d="M171 769l139 128h67l141 -128l-33 -41l-141 74l-141 -74zM32 342q0 86 26 154.5t71 112.5t103 67t123 23t114 -21.5t74.5 -55.5t36 -70.5t6.5 -70.5h-74q-6 33 -41 62t-98 29q-80 0 -131 -62.5t-51 -176.5q0 -109 45.5 -171t129.5 -62q56 0 87 22.5t36 54.5v77h-94v98
h217v-168q-12 -91 -80 -144t-179 -53q-152 0 -236.5 92.5t-84.5 262.5z" />
    <glyph glyph-name="gcircumflex" unicode="&#x11d;" horiz-adv-x="513" 
d="M76 586l136 178h75l136 -178l-43 -40l-131 118l-131 -118zM38 323q0 76 55.5 124t150.5 48q98 0 157 -65q5 36 22.5 50.5t38.5 14.5q60 0 62 -57q0 -20 -7 -36h-19q0 28 -24 28q-34 0 -34 -58v-48q-2 -81 -52.5 -129.5t-143.5 -48.5q-45 0 -81 10q-28 -14 -28 -40
q0 -44 100 -44q1 0 31 0.5t32 0.5q196 0 196 -145q0 -85 -67.5 -131.5t-193.5 -46.5q-103 0 -154 35.5t-51 97.5q0 27 19 56h39q-5 -18 -5 -29q0 -78 148 -78q131 0 131 65q0 48 -83 48h-82q-155 0 -155 118q0 66 81 110q-83 47 -83 150zM312 314q0 36 -19 61t-52 25
q-35 0 -54.5 -26t-19.5 -62q0 -44 20 -66.5t53 -22.5t52.5 24t19.5 67z" />
    <glyph glyph-name="Gbreve" unicode="&#x11e;" horiz-adv-x="647" 
d="M186 898h45q6 -30 29.5 -48.5t79.5 -18.5q94 0 108 67h45q6 -69 -32.5 -114.5t-120.5 -45.5q-83 0 -121.5 45.5t-32.5 114.5zM32 342q0 86 26 154.5t71 112.5t103 67t123 23t114 -21.5t74.5 -55.5t36 -70.5t6.5 -70.5h-74q-6 33 -41 62t-98 29q-80 0 -131 -62.5
t-51 -176.5q0 -109 45.5 -171t129.5 -62q56 0 87 22.5t36 54.5v77h-94v98h217v-168q-12 -91 -80 -144t-179 -53q-152 0 -236.5 92.5t-84.5 262.5z" />
    <glyph glyph-name="gbreve" unicode="&#x11f;" horiz-adv-x="513" 
d="M248 567q-83 0 -120.5 53t-31.5 133h46q14 -89 106 -89q55 0 77.5 25.5t29.5 63.5h45q6 -80 -31.5 -133t-120.5 -53zM38 323q0 76 55.5 124t150.5 48q98 0 157 -65q5 36 22.5 50.5t38.5 14.5q60 0 62 -57q0 -20 -7 -36h-19q0 28 -24 28q-34 0 -34 -58v-48
q-2 -81 -52.5 -129.5t-143.5 -48.5q-45 0 -81 10q-28 -14 -28 -40q0 -44 100 -44q1 0 31 0.5t32 0.5q196 0 196 -145q0 -85 -67.5 -131.5t-193.5 -46.5q-103 0 -154 35.5t-51 97.5q0 27 19 56h39q-5 -18 -5 -29q0 -78 148 -78q131 0 131 65q0 48 -83 48h-82q-155 0 -155 118
q0 66 81 110q-83 47 -83 150zM312 314q0 36 -19 61t-52 25q-35 0 -54.5 -26t-19.5 -62q0 -44 20 -66.5t53 -22.5t52.5 24t19.5 67z" />
    <glyph glyph-name="Gdotaccent" unicode="&#x120;" horiz-adv-x="647" 
d="M273 746v123h145v-123h-145zM32 342q0 86 26 154.5t71 112.5t103 67t123 23t114 -21.5t74.5 -55.5t36 -70.5t6.5 -70.5h-74q-6 33 -41 62t-98 29q-80 0 -131 -62.5t-51 -176.5q0 -109 45.5 -171t129.5 -62q56 0 87 22.5t36 54.5v77h-94v98h217v-168q-12 -91 -80 -144
t-179 -53q-152 0 -236.5 92.5t-84.5 262.5z" />
    <glyph glyph-name="gdotaccent" unicode="&#x121;" horiz-adv-x="513" 
d="M176 603v122h145v-122h-145zM38 323q0 76 55.5 124t150.5 48q98 0 157 -65q5 36 22.5 50.5t38.5 14.5q60 0 62 -57q0 -20 -7 -36h-19q0 28 -24 28q-34 0 -34 -58v-48q-2 -81 -52.5 -129.5t-143.5 -48.5q-45 0 -81 10q-28 -14 -28 -40q0 -44 100 -44q1 0 31 0.5t32 0.5
q196 0 196 -145q0 -85 -67.5 -131.5t-193.5 -46.5q-103 0 -154 35.5t-51 97.5q0 27 19 56h39q-5 -18 -5 -29q0 -78 148 -78q131 0 131 65q0 48 -83 48h-82q-155 0 -155 118q0 66 81 110q-83 47 -83 150zM312 314q0 36 -19 61t-52 25q-35 0 -54.5 -26t-19.5 -62
q0 -44 20 -66.5t53 -22.5t52.5 24t19.5 67z" />
    <glyph glyph-name="Gcommaaccent" unicode="&#x122;" horiz-adv-x="647" 
d="M32 342q0 86 26 154.5t71 112.5t103 67t123 23t114 -21.5t74.5 -55.5t36 -70.5t6.5 -70.5h-74q-6 33 -41 62t-98 29q-80 0 -131 -62.5t-51 -176.5q0 -109 45.5 -171t129.5 -62q56 0 87 22.5t36 54.5v77h-94v98h217v-168q-12 -91 -80 -144t-179 -53q-152 0 -236.5 92.5
t-84.5 262.5zM268 -227l37 171h112l-81 -184z" />
    <glyph glyph-name="gcommaaccent" unicode="&#x123;" horiz-adv-x="513" 
d="M209 563l76 182l69 -13l-36 -169h-109zM38 323q0 76 55.5 124t150.5 48q98 0 157 -65q5 36 22.5 50.5t38.5 14.5q60 0 62 -57q0 -20 -7 -36h-19q0 28 -24 28q-34 0 -34 -58v-48q-2 -81 -52.5 -129.5t-143.5 -48.5q-45 0 -81 10q-28 -14 -28 -40q0 -44 100 -44q1 0 31 0.5
t32 0.5q196 0 196 -145q0 -85 -67.5 -131.5t-193.5 -46.5q-103 0 -154 35.5t-51 97.5q0 27 19 56h39q-5 -18 -5 -29q0 -78 148 -78q131 0 131 65q0 48 -83 48h-82q-155 0 -155 118q0 66 81 110q-83 47 -83 150zM312 314q0 36 -19 61t-52 25q-35 0 -54.5 -26t-19.5 -62
q0 -44 20 -66.5t53 -22.5t52.5 24t19.5 67z" />
    <glyph glyph-name="Hcircumflex" unicode="&#x124;" horiz-adv-x="692" 
d="M173 769l139 128h67l141 -128l-33 -41l-141 74l-141 -74zM70 690h148v-281h256v281h148v-690h-148v304h-256v-304h-148v690z" />
    <glyph glyph-name="hcircumflex" unicode="&#x125;" horiz-adv-x="556" 
d="M139 805l-123 -80l-34 38l128 130h58l127 -130l-33 -38zM501 0h-140v238q0 79 -16.5 109.5t-55.5 30.5q-45 0 -65.5 -51.5t-21.5 -160.5v-166h-141v702l141 8v-368q26 153 149 153q83 0 116.5 -48.5t33.5 -141.5v-305z" />
    <glyph glyph-name="Hbar" unicode="&#x126;" horiz-adv-x="692" 
d="M70 690h148v-90h256v90h148v-90h65v-66h-65v-534h-148v304h-256v-304h-148v534h-65v66h65v90zM218 409h256v125h-256v-125z" />
    <glyph glyph-name="hbar" unicode="&#x127;" horiz-adv-x="556" 
d="M501 0h-140v238q0 79 -16.5 109.5t-55.5 30.5q-45 0 -65.5 -51.5t-21.5 -160.5v-166h-141v567h-55v65h55v70l141 8v-78h154v-65h-154v-225q26 153 149 153q83 0 116.5 -48.5t33.5 -141.5v-305z" />
    <glyph glyph-name="Itilde" unicode="&#x128;" horiz-adv-x="292" 
d="M228 832q45 0 34 65h32q24 -68 1.5 -112.5t-80.5 -44.5q-34 0 -59 16t-45.5 32t-42.5 16q-47 0 -34 -64h-32q-23 70 -0.5 113t80.5 43q35 0 60.5 -16t45 -32t40.5 -16zM72 690h148v-690h-148v690z" />
    <glyph glyph-name="itilde" unicode="&#x129;" horiz-adv-x="266" 
d="M-7 576q-25 78 -2.5 125t79.5 47q29 0 51.5 -11.5t34 -25t28 -25t33.5 -11.5q47 0 32 74h33q24 -75 1.5 -123.5t-79.5 -48.5q-34 0 -59 18.5t-44.5 36.5t-42.5 18q-25 0 -33 -20.5t-1 -53.5h-31zM63 478l140 7v-485h-140v478z" />
    <glyph glyph-name="Imacron" unicode="&#x12a;" horiz-adv-x="292" 
d="M21 862h251v-88h-251v88zM72 690h148v-690h-148v690z" />
    <glyph glyph-name="imacron" unicode="&#x12b;" horiz-adv-x="266" 
d="M-11 723h296v-88h-296v88zM63 478l140 7v-485h-140v478z" />
    <glyph glyph-name="Ibreve" unicode="&#x12c;" horiz-adv-x="292" 
d="M-7 898h45q6 -30 29.5 -48.5t79.5 -18.5q94 0 108 67h45q6 -69 -32.5 -114.5t-120.5 -45.5q-83 0 -121.5 45.5t-32.5 114.5zM72 690h148v-690h-148v690z" />
    <glyph glyph-name="ibreve" unicode="&#x12d;" horiz-adv-x="266" 
d="M137 567q-83 0 -120.5 53t-31.5 133h46q14 -89 106 -89q55 0 77.5 25.5t29.5 63.5h45q6 -80 -31.5 -133t-120.5 -53zM63 478l140 7v-485h-140v478z" />
    <glyph glyph-name="Iogonek" unicode="&#x12e;" horiz-adv-x="292" 
d="M47 -131q0 71 80 131h-55v690h148v-690h-1q-39 -6 -61.5 -40.5t-22.5 -76.5q0 -39 32 -39q14 0 22 12.5t8 28.5h29q3 -46 -18 -74.5t-70 -28.5q-45 0 -68 23.5t-23 63.5z" />
    <glyph glyph-name="iogonek" unicode="&#x12f;" horiz-adv-x="266" 
d="M65 603v122h145v-122h-145zM41 -130q0 69 81 130h-59v478l140 7v-485h-3q-32 -4 -52.5 -38t-20.5 -76t33 -42q15 0 23 12.5t8 28.5h29q3 -46 -18 -74.5t-70 -28.5q-45 0 -68 23.5t-23 64.5z" />
    <glyph glyph-name="Idotaccent" unicode="&#x130;" horiz-adv-x="292" 
d="M74 746v123h145v-123h-145zM72 690h148v-690h-148v690z" />
    <glyph glyph-name="dotlessi" unicode="&#x131;" horiz-adv-x="266" 
d="M63 478l140 7v-485h-140v478z" />
    <glyph glyph-name="IJ" unicode="&#x132;" horiz-adv-x="748" 
d="M72 690h148v-690h-148v690zM305 202h68q10 -94 81 -94q46 0 64 36t18 109v437h147v-447q0 -256 -191 -256q-55 0 -93 17t-58 48t-28 67t-8 83z" />
    <glyph glyph-name="ij" unicode="&#x133;" horiz-adv-x="551" 
d="M65 603v122h145v-122h-145zM353 603v122h145v-122h-145zM63 478l140 7v-485h-140v478zM235 -112h34q7 -43 43 -43q42 0 42 72q0 12 -3.5 82.5t-3.5 101.5v377l141 7v-507q0 -116 -33 -171.5t-111 -55.5q-109 0 -109 137z" />
    <glyph glyph-name="Jcircumflex" unicode="&#x134;" horiz-adv-x="455" 
d="M311 804l-115 -75l-33 38l115 130h66l116 -130l-33 -38zM12 202h68q10 -94 81 -94q46 0 64 36t18 109v437h147v-447q0 -256 -191 -256q-55 0 -93 17t-58 48t-28 67t-8 83z" />
    <glyph glyph-name="jcircumflex" unicode="&#x135;" horiz-adv-x="281" 
d="M-28 586l136 178h75l136 -178l-43 -40l-131 118l-131 -118zM-34 -112h34q7 -43 43 -43q42 0 42 72q0 12 -3.5 82.5t-3.5 101.5v377l141 7v-507q0 -116 -33 -171.5t-111 -55.5q-109 0 -109 137z" />
    <glyph glyph-name="Kcommaaccent" unicode="&#x136;" horiz-adv-x="635" 
d="M70 0v690h148v-300l256 300h127l-239 -276l269 -414h-184l-185 297l-44 -50v-247h-148zM229 -227l37 171h112l-81 -184z" />
    <glyph glyph-name="kcommaaccent" unicode="&#x137;" horiz-adv-x="526" 
d="M61 702l141 8v-400l166 168h129l-159 -155l179 -323h-156l-117 231l-42 -41v-190h-141v702zM191 -227l37 171h112l-81 -184z" />
    <glyph glyph-name="Lacute" unicode="&#x139;" horiz-adv-x="514" 
d="M100 765l163 136l79 -96l-206 -75zM70 690h148v-579h286v-110h-434v689z" />
    <glyph glyph-name="lacute" unicode="&#x13a;" horiz-adv-x="265" 
d="M23 765l163 136l79 -96l-206 -75zM62 702l141 8v-710h-141v702z" />
    <glyph glyph-name="Lcommaaccent" unicode="&#x13b;" horiz-adv-x="514" 
d="M70 690h148v-579h286v-110h-434v689zM219 -227l37 171h112l-81 -184z" />
    <glyph glyph-name="lcommaaccent" unicode="&#x13c;" horiz-adv-x="265" 
d="M62 702l141 8v-710h-141v702zM56 -227l37 171h112l-81 -184z" />
    <glyph glyph-name="Lcaron" unicode="&#x13d;" horiz-adv-x="514" 
d="M321 485l19 210h115l-56 -210h-78zM70 690h148v-579h286v-110h-434v689z" />
    <glyph glyph-name="lcaron" unicode="&#x13e;" horiz-adv-x="400" 
d="M62 702l141 8v-710h-141v702zM276 500l19 210h115l-56 -210h-78z" />
    <glyph glyph-name="Ldot" unicode="&#x13f;" horiz-adv-x="514" 
d="M70 690h148v-579h286v-110h-434v689zM328 315v122h145v-122h-145z" />
    <glyph glyph-name="ldot" unicode="&#x140;" horiz-adv-x="392" 
d="M62 702l141 8v-710h-141v702zM262 291v118h125v-118h-125z" />
    <glyph glyph-name="Lslash" unicode="&#x141;" horiz-adv-x="514" 
d="M7 141v110l63 46v393h148v-285l105 77v-109l-105 -77v-185h286v-110h-434v186z" />
    <glyph glyph-name="lslash" unicode="&#x142;" horiz-adv-x="265" 
d="M-1 149v110l63 52v391l141 8v-282l73 60v-110l-73 -60v-318h-141v201z" />
    <glyph glyph-name="Nacute" unicode="&#x143;" horiz-adv-x="682" 
d="M235 765l163 136l79 -96l-206 -75zM612 690v-695h-117l-310 477v-472h-115v690h145l281 -443v443h116z" />
    <glyph glyph-name="nacute" unicode="&#x144;" horiz-adv-x="554" 
d="M199 588l135 192l84 -76l-167 -159zM60 478l120 7l15 -157q9 78 44 122.5t111 44.5q83 0 116.5 -48.5t33.5 -141.5v-305h-141v238q0 79 -16 109.5t-55 30.5q-88 0 -88 -212v-166h-140v478z" />
    <glyph glyph-name="Ncommaaccent" unicode="&#x145;" horiz-adv-x="682" 
d="M612 690v-695h-117l-310 477v-472h-115v690h145l281 -443v443h116zM251 -227l37 171h112l-81 -184z" />
    <glyph glyph-name="ncommaaccent" unicode="&#x146;" horiz-adv-x="554" 
d="M60 478l120 7l15 -157q9 78 44 122.5t111 44.5q83 0 116.5 -48.5t33.5 -141.5v-305h-141v238q0 79 -16 109.5t-55 30.5q-88 0 -88 -212v-166h-140v478zM198 -227l37 171h112l-81 -184z" />
    <glyph glyph-name="Ncaron" unicode="&#x147;" horiz-adv-x="682" 
d="M184 859l32 41l141 -73l142 73l32 -41l-140 -128h-67zM612 690v-695h-117l-310 477v-472h-115v690h145l281 -443v443h116z" />
    <glyph glyph-name="ncaron" unicode="&#x148;" horiz-adv-x="554" 
d="M117 734l44 37l129 -118l130 118l44 -37l-136 -180h-75zM60 478l120 7l15 -157q9 78 44 122.5t111 44.5q83 0 116.5 -48.5t33.5 -141.5v-305h-141v238q0 79 -16 109.5t-55 30.5q-88 0 -88 -212v-166h-140v478z" />
    <glyph glyph-name="Eng" unicode="&#x14a;" horiz-adv-x="682" 
d="M435 -249q-167 0 -167 175h66q5 -76 75 -76q45 0 66 32.5t21 112.5l-311 463v-458h-115v690h145l281 -425v425h116v-695q-1 -118 -41.5 -181t-135.5 -63z" />
    <glyph glyph-name="eng" unicode="&#x14b;" horiz-adv-x="554" 
d="M356 -212q-107 0 -107 132h31q5 -39 45 -39q44 0 44 72q0 17 -5 78t-5 107v100q0 79 -16 109.5t-55 30.5q-88 0 -88 -212v-166h-140v478l120 7l14 -156q20 166 156 166q83 0 116.5 -48.5t33.5 -141.5v-290q0 -116 -33 -171.5t-111 -55.5z" />
    <glyph glyph-name="Omacron" unicode="&#x14c;" horiz-adv-x="700" 
d="M210 862h296v-88h-296v88zM32 344q0 162 86.5 258.5t233.5 96.5q134 0 225 -89t91 -257q0 -169 -83 -267.5t-233 -98.5q-144 0 -232 92t-88 265zM535 347q0 104 -47.5 163t-118.5 59q-81 0 -129.5 -60t-48.5 -165q0 -117 51 -176.5t127 -59.5q73 0 119.5 61.5t46.5 177.5
z" />
    <glyph glyph-name="omacron" unicode="&#x14d;" horiz-adv-x="530" 
d="M121 723h296v-88h-296v88zM32 239q0 114 65 185t169 71q101 0 166.5 -68t65.5 -191q0 -116 -61 -182.5t-171 -66.5q-105 0 -169.5 65.5t-64.5 186.5zM358 242q0 65 -23.5 104.5t-69.5 39.5q-44 0 -68 -38.5t-24 -104.5q0 -158 93 -158q92 0 92 157z" />
    <glyph glyph-name="Obreve" unicode="&#x14e;" horiz-adv-x="700" 
d="M197 898h45q6 -30 29.5 -48.5t79.5 -18.5q94 0 108 67h45q6 -69 -32.5 -114.5t-120.5 -45.5q-83 0 -121.5 45.5t-32.5 114.5zM32 344q0 162 86.5 258.5t233.5 96.5q134 0 225 -89t91 -257q0 -169 -83 -267.5t-233 -98.5q-144 0 -232 92t-88 265zM535 347q0 104 -47.5 163
t-118.5 59q-81 0 -129.5 -60t-48.5 -165q0 -117 51 -176.5t127 -59.5q73 0 119.5 61.5t46.5 177.5z" />
    <glyph glyph-name="obreve" unicode="&#x14f;" horiz-adv-x="530" 
d="M269 567q-83 0 -120.5 53t-31.5 133h46q14 -89 106 -89q55 0 77.5 25.5t29.5 63.5h45q6 -80 -31.5 -133t-120.5 -53zM32 239q0 114 65 185t169 71q101 0 166.5 -68t65.5 -191q0 -116 -61 -182.5t-171 -66.5q-105 0 -169.5 65.5t-64.5 186.5zM358 242q0 65 -23.5 104.5
t-69.5 39.5q-44 0 -68 -38.5t-24 -104.5q0 -158 93 -158q92 0 92 157z" />
    <glyph glyph-name="Ohungarumlaut" unicode="&#x150;" horiz-adv-x="700" 
d="M212 765l143 147l61 -64l-155 -130zM397 765l144 147l60 -64l-155 -130zM32 344q0 162 86.5 258.5t233.5 96.5q134 0 225 -89t91 -257q0 -169 -83 -267.5t-233 -98.5q-144 0 -232 92t-88 265zM535 347q0 104 -47.5 163t-118.5 59q-81 0 -129.5 -60t-48.5 -165
q0 -117 51 -176.5t127 -59.5q73 0 119.5 61.5t46.5 177.5z" />
    <glyph glyph-name="ohungarumlaut" unicode="&#x151;" horiz-adv-x="530" 
d="M118 579l89 199l91 -37l-114 -194zM303 579l98 194l87 -43l-118 -183zM32 239q0 114 65 185t169 71q101 0 166.5 -68t65.5 -191q0 -116 -61 -182.5t-171 -66.5q-105 0 -169.5 65.5t-64.5 186.5zM358 242q0 65 -23.5 104.5t-69.5 39.5q-44 0 -68 -38.5t-24 -104.5
q0 -158 93 -158q92 0 92 157z" />
    <glyph glyph-name="OE" unicode="&#x152;" horiz-adv-x="949" 
d="M32 344q0 162 83 258.5t223 96.5q107 0 180 -70v60h380v-106h-248v-169h203v-105h-203v-202h259v-106h-391v61q-70 -75 -180 -75q-138 0 -222 91.5t-84 265.5zM515 347q0 105 -45 162.5t-120 57.5q-74 0 -117 -59.5t-43 -163.5q0 -117 45.5 -176.5t114.5 -59.5
q77 0 121 58t44 181z" />
    <glyph glyph-name="oe" unicode="&#x153;" horiz-adv-x="801" 
d="M32 239q0 114 65 185t169 71q110 0 165 -82q54 82 145 82q89 0 134.5 -48.5t45.5 -122.5q0 -50 -7 -90h-262q2 -154 127 -154q51 0 81.5 25.5t33.5 67.5h39q0 -81 -51 -133.5t-139 -52.5q-106 0 -156 66q-53 -66 -156 -66q-105 0 -169.5 65.5t-64.5 186.5zM579 393
q-36 0 -60 -27.5t-30 -78.5l153 3q3 12 3 32q0 71 -66 71zM358 242q0 65 -23.5 104.5t-69.5 39.5q-44 0 -68 -38.5t-24 -104.5q0 -158 93 -158q92 0 92 157z" />
    <glyph glyph-name="Racute" unicode="&#x154;" horiz-adv-x="622" 
d="M183 765l163 136l79 -96l-206 -75zM602 23q-29 -31 -88 -31q-72 0 -98.5 41.5t-26.5 142.5q0 60 -22 83.5t-75 23.5h-74v-283h-148v690h251q112 0 177.5 -44.5t65.5 -134.5q0 -77 -44.5 -120.5t-121.5 -57.5q145 -8 145 -149q0 -85 9 -108q11 -29 45 -29zM297 584h-79
v-205h73q57 0 93 25t36 78q0 52 -33 77t-90 25z" />
    <glyph glyph-name="racute" unicode="&#x155;" horiz-adv-x="424" 
d="M149 588l135 192l84 -76l-167 -159zM60 478l118 7l12 -144q24 154 124 154q50 0 74.5 -36.5t24.5 -82.5q0 -31 -9 -63h-56q0 18 -5 31q-12 38 -52 38q-46 0 -68.5 -52t-22.5 -169v-161h-140v478z" />
    <glyph glyph-name="Rcommaaccent" unicode="&#x156;" horiz-adv-x="622" 
d="M602 23q-29 -31 -88 -31q-72 0 -98.5 41.5t-26.5 142.5q0 60 -22 83.5t-75 23.5h-74v-283h-148v690h251q112 0 177.5 -44.5t65.5 -134.5q0 -77 -44.5 -120.5t-121.5 -57.5q145 -8 145 -149q0 -85 9 -108q11 -29 45 -29zM297 584h-79v-205h73q57 0 93 25t36 78
q0 52 -33 77t-90 25zM233 -227l37 171h112l-81 -184z" />
    <glyph glyph-name="rcommaaccent" unicode="&#x157;" horiz-adv-x="424" 
d="M60 478l118 7l12 -144q24 154 124 154q50 0 74.5 -36.5t24.5 -82.5q0 -31 -9 -63h-56q0 18 -5 31q-12 38 -52 38q-46 0 -68.5 -52t-22.5 -169v-161h-140v478zM52 -227l37 171h112l-81 -184z" />
    <glyph glyph-name="Rcaron" unicode="&#x158;" horiz-adv-x="622" 
d="M132 859l32 41l141 -73l142 73l32 -41l-140 -128h-67zM602 23q-29 -31 -88 -31q-72 0 -98.5 41.5t-26.5 142.5q0 60 -22 83.5t-75 23.5h-74v-283h-148v690h251q112 0 177.5 -44.5t65.5 -134.5q0 -77 -44.5 -120.5t-121.5 -57.5q145 -8 145 -149q0 -85 9 -108
q11 -29 45 -29zM297 584h-79v-205h73q57 0 93 25t36 78q0 52 -33 77t-90 25z" />
    <glyph glyph-name="rcaron" unicode="&#x159;" horiz-adv-x="424" 
d="M50 734l44 37l129 -118l130 118l44 -37l-136 -180h-75zM60 478l118 7l12 -144q24 154 124 154q50 0 74.5 -36.5t24.5 -82.5q0 -31 -9 -63h-56q0 18 -5 31q-12 38 -52 38q-46 0 -68.5 -52t-22.5 -169v-161h-140v478z" />
    <glyph glyph-name="Sacute" unicode="&#x15a;" horiz-adv-x="565" 
d="M184 765l163 136l79 -96l-206 -75zM37 214h71q18 -124 162 -124q111 0 111 87q0 52 -64 83q-22 10 -91 34q-82 28 -127 72t-45 128q0 92 66 148.5t173 56.5q114 0 173.5 -57t49.5 -158h-74q-6 51 -43 79.5t-90 28.5q-49 0 -77.5 -22t-28.5 -63q0 -38 35.5 -60t109.5 -45
q88 -28 137 -74.5t49 -133.5q0 -96 -69 -151.5t-178 -55.5q-121 0 -185.5 59t-64.5 168z" />
    <glyph glyph-name="sacute" unicode="&#x15b;" horiz-adv-x="446" 
d="M141 588l135 192l84 -76l-167 -159zM36 153h49q21 -97 117 -97q78 0 78 53q0 27 -18 41.5t-66 27.5q-74 21 -111 57.5t-37 99.5q0 70 51.5 115t137.5 45q84 0 128.5 -42t33.5 -114h-57q-4 30 -25.5 52.5t-58.5 22.5q-33 0 -52 -14t-19 -39q0 -26 18 -38.5t76 -29.5
q72 -21 104.5 -57t32.5 -93q0 -70 -51 -113t-144 -43q-91 0 -139 43.5t-48 122.5z" />
    <glyph glyph-name="Scircumflex" unicode="&#x15c;" horiz-adv-x="565" 
d="M112 769l139 128h67l141 -128l-33 -41l-141 74l-141 -74zM37 214h71q18 -124 162 -124q111 0 111 87q0 52 -64 83q-22 10 -91 34q-82 28 -127 72t-45 128q0 92 66 148.5t173 56.5q114 0 173.5 -57t49.5 -158h-74q-6 51 -43 79.5t-90 28.5q-49 0 -77.5 -22t-28.5 -63
q0 -38 35.5 -60t109.5 -45q88 -28 137 -74.5t49 -133.5q0 -96 -69 -151.5t-178 -55.5q-121 0 -185.5 59t-64.5 168z" />
    <glyph glyph-name="scircumflex" unicode="&#x15d;" horiz-adv-x="446" 
d="M55 586l136 178h75l136 -178l-43 -40l-131 118l-131 -118zM36 153h49q21 -97 117 -97q78 0 78 53q0 27 -18 41.5t-66 27.5q-74 21 -111 57.5t-37 99.5q0 70 51.5 115t137.5 45q84 0 128.5 -42t33.5 -114h-57q-4 30 -25.5 52.5t-58.5 22.5q-33 0 -52 -14t-19 -39
q0 -26 18 -38.5t76 -29.5q72 -21 104.5 -57t32.5 -93q0 -70 -51 -113t-144 -43q-91 0 -139 43.5t-48 122.5z" />
    <glyph glyph-name="Scedilla" unicode="&#x15e;" horiz-adv-x="565" 
d="M37 214h71q18 -124 162 -124q111 0 111 87q0 52 -64 83q-22 10 -91 34q-82 28 -127 72t-45 128q0 92 66 148.5t173 56.5q114 0 173.5 -57t49.5 -158h-74q-6 51 -43 79.5t-90 28.5q-49 0 -77.5 -22t-28.5 -63q0 -38 35.5 -60t109.5 -45q88 -28 137 -74.5t49 -133.5
q0 -93 -65 -148t-170 -59l-1 -28q42 5 69 -15t27 -62t-25 -65t-64 -23q-48 0 -68 25t-14 65h28q-1 -38 33 -38q14 0 23 9.5t9 26.5q0 44 -52 36l-20 13l16 57q-108 7 -165.5 65t-57.5 161z" />
    <glyph glyph-name="scedilla" unicode="&#x15f;" horiz-adv-x="446" 
d="M36 153h49q21 -97 117 -97q78 0 78 53q0 27 -18 41.5t-66 27.5q-74 21 -111 57.5t-37 99.5q0 70 51.5 115t137.5 45q84 0 128.5 -42t33.5 -114h-57q-4 30 -25.5 52.5t-58.5 22.5q-33 0 -52 -14t-19 -39q0 -26 18 -38.5t76 -29.5q72 -21 104.5 -57t32.5 -93
q0 -67 -48 -110t-136 -46l-1 -28q42 5 69 -15t27 -62t-25 -65t-64 -23q-48 0 -68 25t-14 65h28q-1 -38 33 -38q14 0 23 9.5t9 26.5q0 44 -52 36l-20 13l16 57q-77 7 -118 49.5t-41 115.5z" />
    <glyph glyph-name="Scaron" unicode="&#x160;" horiz-adv-x="565" 
d="M107 859l32 41l141 -73l142 73l32 -41l-140 -128h-67zM37 214h71q18 -124 162 -124q111 0 111 87q0 52 -64 83q-22 10 -91 34q-82 28 -127 72t-45 128q0 92 66 148.5t173 56.5q114 0 173.5 -57t49.5 -158h-74q-6 51 -43 79.5t-90 28.5q-49 0 -77.5 -22t-28.5 -63
q0 -38 35.5 -60t109.5 -45q88 -28 137 -74.5t49 -133.5q0 -96 -69 -151.5t-178 -55.5q-121 0 -185.5 59t-64.5 168z" />
    <glyph glyph-name="scaron" unicode="&#x161;" horiz-adv-x="446" 
d="M53 734l44 37l129 -118l130 118l44 -37l-136 -180h-75zM36 153h49q21 -97 117 -97q78 0 78 53q0 27 -18 41.5t-66 27.5q-74 21 -111 57.5t-37 99.5q0 70 51.5 115t137.5 45q84 0 128.5 -42t33.5 -114h-57q-4 30 -25.5 52.5t-58.5 22.5q-33 0 -52 -14t-19 -39
q0 -26 18 -38.5t76 -29.5q72 -21 104.5 -57t32.5 -93q0 -70 -51 -113t-144 -43q-91 0 -139 43.5t-48 122.5z" />
    <glyph glyph-name="Tcedilla" unicode="&#x162;" horiz-adv-x="562" 
d="M207 -116h28q-1 -38 33 -38q14 0 23 9.5t9 26.5q0 44 -52 36l-20 13l19 69h-40v580h-207v109h562v-109h-207v-580h-71l-2 -41q42 5 69 -15t27 -62t-25 -65t-64 -23q-48 0 -68 25t-14 65z" />
    <glyph glyph-name="tcedilla" unicode="&#x163;" horiz-adv-x="357" 
d="M130 -116h28q-1 -38 33 -38q14 0 23 9.5t9 26.5q0 44 -52 36l-20 13l17 61q-49 12 -73.5 53.5t-24.5 122.5v245h-68v49l68 15v104l140 11v-114h115v-65h-115v-266q0 -66 50 -66q45 0 45 39h31q0 -133 -120 -133h-10l-1 -28q42 5 69 -15t27 -62t-25 -65t-64 -23
q-48 0 -68 25t-14 65z" />
    <glyph glyph-name="Tcaron" unicode="&#x164;" horiz-adv-x="562" 
d="M108 859l32 41l141 -73l142 73l32 -41l-140 -128h-67zM355 0h-148v580h-207v109h562v-109h-207v-580z" />
    <glyph glyph-name="tcaron" unicode="&#x165;" horiz-adv-x="364" 
d="M291 523l18 187h116l-56 -187h-78zM70 168v245h-68v49l68 15v104l140 11v-114h115v-65h-115v-266q0 -66 50 -66q45 0 45 39h31q0 -133 -120 -133q-74 0 -110 41t-36 140z" />
    <glyph glyph-name="Tbar" unicode="&#x166;" horiz-adv-x="562" 
d="M355 0h-148v294h-114v66h114v220h-207v109h562v-109h-207v-220h114v-66h-114v-294z" />
    <glyph glyph-name="tbar" unicode="&#x167;" horiz-adv-x="364" 
d="M74 168v65h-62v65h62v115h-68v49l68 15v104l140 11v-114h115v-65h-115v-115h115v-65h-115v-86q0 -66 50 -66q45 0 45 39h31q0 -133 -120 -133q-74 0 -110 41t-36 140z" />
    <glyph glyph-name="Utilde" unicode="&#x168;" horiz-adv-x="667" 
d="M440 832q45 0 34 65h32q24 -68 1.5 -112.5t-80.5 -44.5q-34 0 -59 16t-45.5 32t-42.5 16q-47 0 -34 -64h-32q-23 70 -0.5 113t80.5 43q35 0 60.5 -16t45 -32t40.5 -16zM65 313v377h159v-351q0 -120 30 -174.5t108 -54.5q74 0 102 52.5t28 169.5v358h110v-368
q0 -335 -257 -335q-68 0 -118 16.5t-80.5 44t-49 70t-25.5 89t-7 106.5z" />
    <glyph glyph-name="utilde" unicode="&#x169;" horiz-adv-x="554" 
d="M142 576q-25 78 -2.5 125t79.5 47q29 0 51.5 -11.5t34 -25t28 -25t33.5 -11.5q47 0 32 74h33q24 -75 1.5 -123.5t-79.5 -48.5q-34 0 -59 18.5t-44.5 36.5t-42.5 18q-25 0 -33 -20.5t-1 -53.5h-31zM359 134v7q-26 -154 -154 -154q-83 0 -116.5 48.5t-33.5 141.5v300l140 8
v-241q0 -79 16.5 -109t55.5 -30q87 0 87 212v160l141 8v-485h-129z" />
    <glyph glyph-name="Umacron" unicode="&#x16a;" horiz-adv-x="667" 
d="M210 862h296v-88h-296v88zM65 313v377h159v-351q0 -120 30 -174.5t108 -54.5q74 0 102 52.5t28 169.5v358h110v-368q0 -335 -257 -335q-68 0 -118 16.5t-80.5 44t-49 70t-25.5 89t-7 106.5z" />
    <glyph glyph-name="umacron" unicode="&#x16b;" horiz-adv-x="554" 
d="M132 723h296v-88h-296v88zM359 134v7q-26 -154 -154 -154q-83 0 -116.5 48.5t-33.5 141.5v300l140 8v-241q0 -79 16.5 -109t55.5 -30q87 0 87 212v160l141 8v-485h-129z" />
    <glyph glyph-name="Ubreve" unicode="&#x16c;" horiz-adv-x="667" 
d="M204 898h45q6 -30 29.5 -48.5t79.5 -18.5q94 0 108 67h45q6 -69 -32.5 -114.5t-120.5 -45.5q-83 0 -121.5 45.5t-32.5 114.5zM65 313v377h159v-351q0 -120 30 -174.5t108 -54.5q74 0 102 52.5t28 169.5v358h110v-368q0 -335 -257 -335q-68 0 -118 16.5t-80.5 44t-49 70
t-25.5 89t-7 106.5z" />
    <glyph glyph-name="ubreve" unicode="&#x16d;" horiz-adv-x="554" 
d="M283 567q-83 0 -120.5 53t-31.5 133h46q14 -89 106 -89q55 0 77.5 25.5t29.5 63.5h45q6 -80 -31.5 -133t-120.5 -53zM359 134v7q-26 -154 -154 -154q-83 0 -116.5 48.5t-33.5 141.5v300l140 8v-241q0 -79 16.5 -109t55.5 -30q87 0 87 212v160l141 8v-485h-129z" />
    <glyph glyph-name="Uring" unicode="&#x16e;" horiz-adv-x="667" 
d="M239 828q0 49 35 82.5t88 33.5q55 0 89.5 -33t34.5 -83q0 -49 -34.5 -82.5t-89.5 -33.5q-54 0 -88.5 33.5t-34.5 82.5zM411 818q0 22 -14 36.5t-34 14.5q-22 0 -35.5 -14.5t-13.5 -36.5q0 -21 14 -35.5t35 -14.5q20 0 34 14.5t14 35.5zM65 313v377h159v-351
q0 -120 30 -174.5t108 -54.5q74 0 102 52.5t28 169.5v358h110v-368q0 -335 -257 -335q-68 0 -118 16.5t-80.5 44t-49 70t-25.5 89t-7 106.5z" />
    <glyph glyph-name="uring" unicode="&#x16f;" horiz-adv-x="554" 
d="M157 688q0 50 35 83.5t89 33.5q57 0 91.5 -33.5t34.5 -83.5q0 -51 -34.5 -84.5t-91.5 -33.5q-55 0 -89.5 34t-34.5 84zM332 677q0 22 -14.5 37.5t-35.5 15.5q-22 0 -36.5 -15t-14.5 -38q0 -22 14.5 -37t36.5 -15q21 0 35.5 15t14.5 37zM359 134v7q-26 -154 -154 -154
q-83 0 -116.5 48.5t-33.5 141.5v300l140 8v-241q0 -79 16.5 -109t55.5 -30q87 0 87 212v160l141 8v-485h-129z" />
    <glyph glyph-name="Uhungarumlaut" unicode="&#x170;" horiz-adv-x="667" 
d="M199 765l143 147l61 -64l-155 -130zM384 765l144 147l60 -64l-155 -130zM65 313v377h159v-351q0 -120 30 -174.5t108 -54.5q74 0 102 52.5t28 169.5v358h110v-368q0 -335 -257 -335q-68 0 -118 16.5t-80.5 44t-49 70t-25.5 89t-7 106.5z" />
    <glyph glyph-name="uhungarumlaut" unicode="&#x171;" horiz-adv-x="554" 
d="M132 579l89 199l91 -37l-114 -194zM317 579l98 194l87 -43l-118 -183zM359 134v7q-26 -154 -154 -154q-83 0 -116.5 48.5t-33.5 141.5v300l140 8v-241q0 -79 16.5 -109t55.5 -30q87 0 87 212v160l141 8v-485h-129z" />
    <glyph glyph-name="Uogonek" unicode="&#x172;" horiz-adv-x="667" 
d="M65 313v377h159v-351q0 -120 30 -174.5t108 -54.5q74 0 102 52.5t28 169.5v358h110v-368q0 -175 -70 -258q-64 -98 -64 -181q0 -38 32 -38q13 0 20.5 12t7.5 28h31q2 -46 -18.5 -74.5t-69.5 -28.5q-94 0 -94 88q0 64 73 135q-45 -18 -105 -18q-68 0 -118 16.5t-80.5 44
t-49 70t-25.5 89t-7 106.5z" />
    <glyph glyph-name="uogonek" unicode="&#x173;" horiz-adv-x="554" 
d="M319 -135q0 76 89 135h-42l-7 134v7q-26 -154 -154 -154q-83 0 -116.5 48.5t-33.5 141.5v300l140 8v-241q0 -79 16.5 -109t55.5 -30q87 0 87 212v160l141 8v-485h-3q-37 -6 -62.5 -40t-25.5 -78q0 -38 32 -38q14 0 21.5 12t7.5 29h30q3 -46 -18 -74.5t-70 -28.5
q-44 0 -66 23t-22 60z" />
    <glyph glyph-name="Wcircumflex" unicode="&#x174;" horiz-adv-x="966" 
d="M350 769l139 128h67l141 -128l-33 -41l-141 74l-141 -74zM11 690h168l131 -511l153 510h109l139 -500l132 501h118l-190 -691h-151l-131 415l-131 -415h-150z" />
    <glyph glyph-name="wcircumflex" unicode="&#x175;" horiz-adv-x="707" 
d="M216 586l136 178h75l136 -178l-43 -40l-131 118l-131 -118zM0 478h155l84 -305l89 290h95l92 -290l79 305h113l-140 -478h-120l-93 274l-93 -274h-119z" />
    <glyph glyph-name="Ycircumflex" unicode="&#x176;" horiz-adv-x="574" 
d="M145 769l139 128h67l141 -128l-33 -41l-141 74l-141 -74zM584 690l-215 -408v-282h-148v281l-228 409h179l150 -283l146 283h116z" />
    <glyph glyph-name="ycircumflex" unicode="&#x177;" horiz-adv-x="479" 
d="M84 586l136 178h75l136 -178l-43 -40l-131 118l-131 -118zM12 -111h32q0 -20 13 -32.5t40 -12.5t43.5 20.5t36.5 76.5l16 44l-197 493h165l96 -312l100 312h123l-227 -601q-49 -127 -136 -127q-39 0 -64 15.5t-31.5 37t-10 43.5t0.5 36v7z" />
    <glyph glyph-name="Ydieresis" unicode="&#x178;" horiz-adv-x="574" 
d="M164 747v121h113v-121h-113zM346 747v121h113v-121h-113zM584 690l-215 -408v-282h-148v281l-228 409h179l150 -283l146 283h116z" />
    <glyph glyph-name="Zacute" unicode="&#x179;" horiz-adv-x="566" 
d="M202 764l163 136l79 -96l-206 -75zM37 100l305 483h-286v106h467v-98l-309 -484h314v-106h-491v99z" />
    <glyph glyph-name="zacute" unicode="&#x17a;" horiz-adv-x="442" 
d="M144 588l135 192l84 -76l-167 -159zM32 74l224 294h-213v110h363v-94l-216 -284h219v-100h-377v74z" />
    <glyph glyph-name="Zdotaccent" unicode="&#x17b;" horiz-adv-x="566" 
d="M220 746v123h145v-123h-145zM37 100l305 483h-286v106h467v-98l-309 -484h314v-106h-491v99z" />
    <glyph glyph-name="zdotaccent" unicode="&#x17c;" horiz-adv-x="442" 
d="M162 603v122h145v-122h-145zM32 74l224 294h-213v110h363v-94l-216 -284h219v-100h-377v74z" />
    <glyph glyph-name="Zcaron" unicode="&#x17d;" horiz-adv-x="566" 
d="M126 859l32 41l141 -73l142 73l32 -41l-140 -128h-67zM37 100l305 483h-286v106h467v-98l-309 -484h314v-106h-491v99z" />
    <glyph glyph-name="zcaron" unicode="&#x17e;" horiz-adv-x="442" 
d="M61 734l44 37l129 -118l130 118l44 -37l-136 -180h-75zM32 74l224 294h-213v110h363v-94l-216 -284h219v-100h-377v74z" />
    <glyph glyph-name="Schwa" unicode="&#x18f;" horiz-adv-x="679" 
d="M641 349q0 -166 -86.5 -264t-232.5 -98q-64 0 -114 17.5t-80 45t-49 66t-26 75.5t-7 78q0 35 4 73h434v7q-1 110 -53.5 164t-130.5 54q-72 0 -117.5 -29.5t-64.5 -73.5h-64q7 61 32 107.5t63 73.5t83 40.5t96 13.5q142 0 227.5 -93.5t85.5 -256.5zM325 108
q63 0 103.5 39.5t51.5 116.5l-289 -4q-1 -12 0 -27t8 -38.5t20 -41.5t40.5 -31.5t65.5 -13.5z" />
    <glyph glyph-name="florin" unicode="&#x192;" 
d="M258 481q33 202 192 202q59 0 91 -33t34 -72l-41 -23q-18 33 -57 33q-40 0 -59 -34.5t-32 -118.5l-5 -27h109v-79h-122l-41 -247q-33 -202 -192 -202q-60 0 -92 32.5t-34 71.5l40 24q18 -34 59 -34q40 0 58.5 34t32.5 120l34 201h-87v79h100z" />
    <glyph glyph-name="Aringacute" unicode="&#x1fa;" horiz-adv-x="637" 
d="M203 904l163 136l79 -96l-206 -75zM121 0h-114l232 664q-40 34 -40 87q0 49 35 82.5t88 33.5q55 0 89.5 -33t34.5 -83q0 -51 -36 -84l212 -667h-174l-46 165h-227zM371 741q0 22 -14 36.5t-34 14.5q-22 0 -35.5 -14.5t-13.5 -36.5q0 -21 14 -35.5t35 -14.5q20 0 34 14.5
t14 35.5zM206 260h169l-77 277z" />
    <glyph glyph-name="aringacute" unicode="&#x1fb;" horiz-adv-x="489" 
d="M143 845l163 136l79 -96l-206 -75zM129 653q0 50 35 83.5t89 33.5q57 0 91.5 -33.5t34.5 -83.5q0 -51 -34.5 -84.5t-91.5 -33.5q-55 0 -89.5 34t-34.5 84zM304 642q0 22 -14.5 37.5t-35.5 15.5q-22 0 -36.5 -15t-14.5 -38q0 -22 14.5 -37t36.5 -15q21 0 35.5 15t14.5 37z
M29 116q0 64 43 106t135 42q54 0 88 -17v43q0 105 -95 105q-40 0 -66 -23t-33 -56h-43q0 77 46.5 128t140.5 51q89 0 136 -46.5t47 -131.5v-166q0 -79 25 -101q10 -14 22 -17l4 -20q-19 -23 -69 -23q-97 0 -112 79q-43 -82 -136 -82q-65 0 -99 36t-34 93zM162 133
q0 -56 57 -56q40 0 58 33.5t18 84.5v5q-24 8 -52 8q-39 0 -60 -19.5t-21 -55.5z" />
    <glyph glyph-name="AEacute" unicode="&#x1fc;" horiz-adv-x="853" 
d="M490 765l163 136l79 -96l-206 -75zM411 689h391v-106h-243v-186h198v-106h-198v-184h254v-106h-401v199h-180l-116 -200h-116zM287 295h125v216z" />
    <glyph glyph-name="aeacute" unicode="&#x1fd;" horiz-adv-x="741" 
d="M348 588l135 192l84 -76l-167 -159zM709 173q0 -81 -51 -133.5t-139 -52.5q-116 0 -171 75q-68 -75 -168 -75q-77 0 -114 36t-37 93q0 64 43 106t135 42q54 0 88 -17v43q0 106 -98 106q-42 0 -68 -23t-33 -57h-38q0 77 43.5 128t133.5 51q92 0 136 -64q56 64 147 64
q88 0 133.5 -48.5t45.5 -122.5q0 -50 -7 -90h-262q0 -154 126 -154q51 0 81.5 25.5t34.5 67.5h39zM520 393q-36 0 -60 -27.5t-30 -79.5l153 4q3 12 3 32q0 71 -66 71zM219 77q40 0 58 33t18 85v5q-26 8 -52 8q-39 0 -60 -19.5t-21 -55.5q0 -56 57 -56z" />
    <glyph glyph-name="Oslashacute" unicode="&#x1fe;" horiz-adv-x="700" 
d="M257 765l163 136l79 -96l-206 -75zM32 344q0 162 86.5 258.5t233.5 96.5q114 0 196 -63l49 62h71l-79 -100q79 -94 79 -245q0 -169 -83 -267.5t-233 -98.5q-119 0 -198 61l-48 -60h-74l80 100q-80 94 -80 256zM191 344q0 -75 22 -128l253 317q-42 36 -97 36
q-81 0 -129.5 -60t-48.5 -165zM535 347q0 84 -33 141l-257 -324q49 -56 124 -56q73 0 119.5 61.5t46.5 177.5z" />
    <glyph glyph-name="oslashacute" unicode="&#x1ff;" horiz-adv-x="534" 
d="M180 588l135 192l84 -76l-167 -159zM32 239q0 114 65 185t169 71q82 0 141 -45l34 43h61l-61 -76q57 -68 57 -181q0 -116 -61 -182.5t-171 -66.5q-79 0 -137 38l-30 -37h-63l56 69q-60 66 -60 182zM173 243q0 -46 7 -75l149 186q-24 32 -64 32q-44 0 -68 -38.5
t-24 -104.5zM358 242q0 37 -7 62l-149 -187q23 -32 64 -32q92 0 92 157z" />
    <glyph glyph-name="Scommaaccent" unicode="&#x218;" horiz-adv-x="565" 
d="M37 214h71q18 -124 162 -124q111 0 111 87q0 52 -64 83q-22 10 -91 34q-82 28 -127 72t-45 128q0 92 66 148.5t173 56.5q114 0 173.5 -57t49.5 -158h-74q-6 51 -43 79.5t-90 28.5q-49 0 -77.5 -22t-28.5 -63q0 -38 35.5 -60t109.5 -45q88 -28 137 -74.5t49 -133.5
q0 -96 -69 -151.5t-178 -55.5q-121 0 -185.5 59t-64.5 168zM200 -227l37 171h112l-81 -184z" />
    <glyph glyph-name="scommaaccent" unicode="&#x219;" horiz-adv-x="446" 
d="M36 153h49q21 -97 117 -97q78 0 78 53q0 27 -18 41.5t-66 27.5q-74 21 -111 57.5t-37 99.5q0 70 51.5 115t137.5 45q84 0 128.5 -42t33.5 -114h-57q-4 30 -25.5 52.5t-58.5 22.5q-33 0 -52 -14t-19 -39q0 -26 18 -38.5t76 -29.5q72 -21 104.5 -57t32.5 -93
q0 -70 -51 -113t-144 -43q-91 0 -139 43.5t-48 122.5zM130 -227l37 171h112l-81 -184z" />
    <glyph glyph-name="Tcommaaccent" unicode="&#x21a;" horiz-adv-x="562" 
d="M355 0h-148v580h-207v109h562v-109h-207v-580zM193 -227l37 171h112l-81 -184z" />
    <glyph glyph-name="tcommaaccent" unicode="&#x21b;" horiz-adv-x="357" 
d="M70 168v245h-68v49l68 15v104l140 11v-114h115v-65h-115v-266q0 -66 50 -66q45 0 45 39h31q0 -133 -120 -133q-74 0 -110 41t-36 140zM126 -227l37 171h112l-81 -184z" />
    <glyph glyph-name="dotlessj" unicode="&#x237;" horiz-adv-x="281" 
d="M-34 -112h34q7 -43 43 -43q42 0 42 72q0 12 -3.5 82.5t-3.5 101.5v377l141 7v-507q0 -116 -33 -171.5t-111 -55.5q-109 0 -109 137z" />
    <glyph glyph-name="schwa" unicode="&#x259;" horiz-adv-x="485" 
d="M453 251q0 -114 -62.5 -192.5t-160.5 -78.5q-92 0 -138.5 48.5t-46.5 122.5q0 50 7 90h262q-2 154 -125 154q-51 0 -80.5 -25.5t-34.5 -67.5h-41q0 81 51 133.5t139 52.5q112 0 171 -61t59 -176zM156 153q0 -71 66 -71q36 0 60 27.5t30 78.5l-153 -3q-3 -12 -3 -32z" />
    <glyph glyph-name="circumflex" unicode="&#x2c6;" horiz-adv-x="500" 
d="M77 586l136 178h75l136 -178l-43 -40l-131 118l-131 -118z" />
    <glyph glyph-name="caron" unicode="&#x2c7;" horiz-adv-x="500" 
d="M81 734l44 37l129 -118l130 118l44 -37l-136 -180h-75z" />
    <glyph glyph-name="breve" unicode="&#x2d8;" horiz-adv-x="500" 
d="M250 567q-83 0 -120.5 53t-31.5 133h46q14 -89 106 -89q55 0 77.5 25.5t29.5 63.5h45q6 -80 -31.5 -133t-120.5 -53z" />
    <glyph glyph-name="dotaccent" unicode="&#x2d9;" horiz-adv-x="500" 
d="M178 603v122h145v-122h-145z" />
    <glyph glyph-name="ring" unicode="&#x2da;" horiz-adv-x="500" 
d="M125 688q0 50 35 83.5t89 33.5q57 0 91.5 -33.5t34.5 -83.5q0 -51 -34.5 -84.5t-91.5 -33.5q-55 0 -89.5 34t-34.5 84zM300 677q0 22 -14.5 37.5t-35.5 15.5q-22 0 -36.5 -15t-14.5 -38q0 -22 14.5 -37t36.5 -15q21 0 35.5 15t14.5 37z" />
    <glyph glyph-name="ogonek" unicode="&#x2db;" horiz-adv-x="500" 
d="M269 -130q0 24 8 46.5t27 46t32.5 37.5t43 40.5t40.5 36.5l12 -2q-72 -100 -72 -192q0 -38 32 -38q13 0 20.5 12t7.5 28h31q2 -46 -18.5 -74.5t-69.5 -28.5q-94 0 -94 88z" />
    <glyph glyph-name="tilde" unicode="&#x2dc;" horiz-adv-x="500" 
d="M106 576q-25 78 -2.5 125t79.5 47q29 0 51.5 -11.5t34 -25t28 -25t33.5 -11.5q47 0 32 74h33q24 -75 1.5 -123.5t-79.5 -48.5q-34 0 -59 18.5t-44.5 36.5t-42.5 18q-25 0 -33 -20.5t-1 -53.5h-31z" />
    <glyph glyph-name="hungarumlaut" unicode="&#x2dd;" horiz-adv-x="500" 
d="M77 579l89 199l91 -37l-114 -194zM262 579l98 194l87 -43l-118 -183z" />
    <glyph glyph-name="pi" unicode="&#x3c0;" horiz-adv-x="641" 
d="M366 150v255h-117v-191q0 -144 -60 -214h-95q15 76 15 217v188h-99v73h603v-73h-106v-257q0 -34 8.5 -50.5t31.5 -16.5q35 0 36 38h31q0 -132 -113 -132q-135 0 -135 163z" />
    <glyph glyph-name="Wgrave" unicode="&#x1e80;" horiz-adv-x="966" 
d="M356 805l79 96l163 -136l-36 -35zM11 690h168l131 -511l153 510h109l139 -500l132 501h118l-190 -691h-151l-131 415l-131 -415h-150z" />
    <glyph glyph-name="wgrave" unicode="&#x1e81;" horiz-adv-x="707" 
d="M233 704l84 76l135 -192l-52 -43zM0 478h155l84 -305l89 290h95l92 -290l79 305h113l-140 -478h-120l-93 274l-93 -274h-119z" />
    <glyph glyph-name="Wacute" unicode="&#x1e82;" horiz-adv-x="966" 
d="M463 765l163 136l79 -96l-206 -75zM11 690h168l131 -511l153 510h109l139 -500l132 501h118l-190 -691h-151l-131 415l-131 -415h-150z" />
    <glyph glyph-name="wacute" unicode="&#x1e83;" horiz-adv-x="707" 
d="M336 588l135 192l84 -76l-167 -159zM0 478h155l84 -305l89 290h95l92 -290l79 305h113l-140 -478h-120l-93 274l-93 -274h-119z" />
    <glyph glyph-name="Wdieresis" unicode="&#x1e84;" horiz-adv-x="966" 
d="M365 747v121h113v-121h-113zM547 747v121h113v-121h-113zM11 690h168l131 -511l153 510h109l139 -500l132 501h118l-190 -691h-151l-131 415l-131 -415h-150z" />
    <glyph glyph-name="wdieresis" unicode="&#x1e85;" horiz-adv-x="707" 
d="M243 605v120h113v-120h-113zM425 605v120h113v-120h-113zM0 478h155l84 -305l89 290h95l92 -290l79 305h113l-140 -478h-120l-93 274l-93 -274h-119z" />
    <glyph glyph-name="Ygrave" unicode="&#x1ef2;" horiz-adv-x="574" 
d="M178 805l79 96l163 -136l-36 -35zM584 690l-215 -408v-282h-148v281l-228 409h179l150 -283l146 283h116z" />
    <glyph glyph-name="ygrave" unicode="&#x1ef3;" horiz-adv-x="479" 
d="M137 704l84 76l135 -192l-52 -43zM12 -111h32q0 -20 13 -32.5t40 -12.5t43.5 20.5t36.5 76.5l16 44l-197 493h165l96 -312l100 312h123l-227 -601q-49 -127 -136 -127q-39 0 -64 15.5t-31.5 37t-10 43.5t0.5 36v7z" />
    <glyph glyph-name="endash" unicode="&#x2013;" horiz-adv-x="599" 
d="M30 361h538v-110h-538v110z" />
    <glyph glyph-name="emdash" unicode="&#x2014;" horiz-adv-x="1000" 
d="M30 338h940v-110h-940v110z" />
    <glyph glyph-name="quoteleft" unicode="&#x2018;" horiz-adv-x="223" 
d="M184 669q-62 -44 -73 -106q73 0 73 -71q0 -32 -21.5 -53.5t-53.5 -21.5q-37 0 -58 23.5t-21 59.5q0 70 38.5 127t86.5 83z" />
    <glyph glyph-name="quoteright" unicode="&#x2019;" horiz-adv-x="223" 
d="M39 458q62 44 73 106q-73 0 -73 72q0 32 21 53t53 21q38 0 59 -23t21 -59q0 -70 -38.5 -127.5t-87.5 -83.5z" />
    <glyph glyph-name="quotesinglbase" unicode="&#x201a;" horiz-adv-x="226" 
d="M54 -138q29 19 55 56.5t30 73.5q-74 0 -74 72q0 32 21.5 53.5t53.5 21.5q38 0 58.5 -23t20.5 -60q0 -80 -45 -145.5t-93 -87.5z" />
    <glyph glyph-name="quotedblleft" unicode="&#x201c;" horiz-adv-x="436" 
d="M184 669q-62 -44 -73 -106q73 0 73 -71q0 -32 -21.5 -53.5t-53.5 -21.5q-37 0 -58 23.5t-21 59.5q0 70 38.5 127t86.5 83zM397 669q-62 -44 -73 -106q73 0 73 -71q0 -32 -21.5 -53.5t-53.5 -21.5q-37 0 -58 23.5t-21 59.5q0 70 38.5 127t86.5 83z" />
    <glyph glyph-name="quotedblright" unicode="&#x201d;" horiz-adv-x="436" 
d="M39 458q62 44 73 106q-73 0 -73 72q0 32 21 53t53 21q38 0 59 -23t21 -59q0 -70 -38.5 -127.5t-87.5 -83.5zM252 458q62 44 73 106q-73 0 -73 72q0 32 21 53t53 21q38 0 59 -23t21 -59q0 -70 -38.5 -127.5t-87.5 -83.5z" />
    <glyph glyph-name="quotedblbase" unicode="&#x201e;" horiz-adv-x="439" 
d="M54 -138q29 19 55 56.5t30 73.5q-74 0 -74 72q0 32 21.5 53.5t53.5 21.5q38 0 58.5 -23t20.5 -60q0 -80 -45 -145.5t-93 -87.5zM268 -138q29 19 55 56.5t30 73.5q-74 0 -74 72q0 32 21.5 53.5t53.5 21.5q38 0 58.5 -23t20.5 -60q0 -80 -45 -145.5t-93 -87.5z" />
    <glyph glyph-name="dagger" unicode="&#x2020;" horiz-adv-x="466" 
d="M206 -72q-12 32 -25 86t-18.5 84.5t-19 107.5t-13.5 78l64 166l-159 -61v165l162 -56l-61 192h193l-61 -192l163 56v-165l-162 62l57 -167q-2 -13 -10.5 -63t-14 -80t-14.5 -74t-18.5 -78.5t-19.5 -60.5h-43z" />
    <glyph glyph-name="daggerdbl" unicode="&#x2021;" horiz-adv-x="466" 
d="M136 -72l61 190l-162 -55v166l158 -61l-58 140l58 142l-158 -60v165l162 -56l-61 191h193l-61 -191l163 56v-165l-159 60l58 -142l-58 -140l159 61v-166l-163 56l61 -191h-193z" />
    <glyph glyph-name="bullet" unicode="&#x2022;" horiz-adv-x="395" 
d="M197 167q-65 0 -110 43.5t-45 112.5q0 68 45 111.5t110 43.5q66 0 111 -43.5t45 -111.5q0 -69 -45 -112.5t-111 -43.5z" />
    <glyph glyph-name="ellipsis" unicode="&#x2026;" horiz-adv-x="764" 
d="M65 65q0 31 21.5 53.5t56.5 22.5q33 0 54 -22.5t21 -53.5q0 -34 -20 -56t-54 -22q-36 0 -57.5 22t-21.5 56zM306 65q0 31 21.5 53.5t56.5 22.5q33 0 54 -22.5t21 -53.5q0 -34 -20 -56t-54 -22q-36 0 -57.5 22t-21.5 56zM546 65q0 31 21.5 53.5t56.5 22.5q33 0 54 -22.5
t21 -53.5q0 -34 -20 -56t-54 -22q-36 0 -57.5 22t-21.5 56z" />
    <glyph glyph-name="perthousand" unicode="&#x2030;" horiz-adv-x="1019" 
d="M155 435q-61 0 -98 35.5t-37 94.5q0 61 37 96t98 35t97.5 -35t36.5 -96q0 -58 -37 -94t-97 -36zM454 673h109l-342 -673h-110zM155 517q21 0 34.5 14t13.5 33q0 20 -13.5 34t-34.5 14t-34 -14t-13 -34q0 -19 13 -33t34 -14zM548 -13q-61 0 -98 36t-37 95q0 61 36.5 95.5
t98.5 34.5q61 0 97 -34.5t36 -95.5q0 -59 -36.5 -95t-96.5 -36zM866 -13q-61 0 -98 36t-37 95q0 61 36.5 95.5t98.5 34.5q61 0 97 -34.5t36 -95.5q0 -59 -36.5 -95t-96.5 -36zM547 70q21 0 34.5 13.5t13.5 33.5t-13.5 34t-34.5 14t-34 -13.5t-13 -34.5q0 -20 13 -33.5
t34 -13.5zM865 70q21 0 34.5 13.5t13.5 33.5t-13.5 34t-34.5 14t-34 -13.5t-13 -34.5q0 -20 13 -33.5t34 -13.5z" />
    <glyph glyph-name="guilsinglleft" unicode="&#x2039;" horiz-adv-x="310" 
d="M273 429l-118 -180l118 -180h-127l-109 169v22l109 169h127z" />
    <glyph glyph-name="guilsinglright" unicode="&#x203a;" horiz-adv-x="310" 
d="M273 238l-109 -169h-127l118 180l-118 180h127l109 -169v-22z" />
    <glyph glyph-name="fraction" unicode="&#x2044;" horiz-adv-x="467" 
d="M350 673h109l-342 -673h-110z" />
    <glyph glyph-name="zerosuperior" unicode="&#x2070;" horiz-adv-x="383" 
d="M192 396q-80 0 -126.5 52t-46.5 157t46.5 157.5t126.5 52.5q79 0 125.5 -52.5t46.5 -157.5q0 -104 -46 -156.5t-126 -52.5zM201 479q72 0 72 127t-72 127q-71 0 -71 -128q0 -69 18 -97.5t53 -28.5z" />
    <glyph glyph-name="i.superior" unicode="&#x2071;" horiz-adv-x="179" 
d="M37 759v81h103v-81h-103zM38 688l99 5v-289h-99v284z" />
    <glyph glyph-name="foursuperior" unicode="&#x2074;" horiz-adv-x="378" 
d="M365 500h-62v-96h-102v96h-187v65l190 243h99v-233h62v-75zM96 575h105v135z" />
    <glyph glyph-name="fivesuperior" unicode="&#x2075;" horiz-adv-x="359" 
d="M333 546q0 -71 -39.5 -111t-111.5 -40q-69 0 -114 32.5t-39 104.5h53q8 -56 74 -56q33 0 52 17.5t19 48.5t-19 46t-49 15q-45 0 -70 -32l-50 19l11 218h257v-79h-173l-8 -88q33 29 81 29q59 0 92.5 -32.5t33.5 -91.5z" />
    <glyph glyph-name="sixsuperior" unicode="&#x2076;" horiz-adv-x="367" 
d="M195 815q73 0 109 -35.5t31 -98.5h-53q-8 54 -69 54q-92 0 -92 -128v-17q23 66 104 66q51 0 82.5 -32t31.5 -90q0 -67 -40.5 -103t-103.5 -36q-89 0 -131.5 55t-42.5 150q0 92 45 153.5t129 61.5zM192 589q-26 0 -40.5 -14.5t-14.5 -41.5q0 -56 53 -56q26 0 40.5 16
t14.5 40q0 56 -53 56z" />
    <glyph glyph-name="sevensuperior" unicode="&#x2077;" horiz-adv-x="335" 
d="M313 809v-55q-74 -102 -104 -183t-39 -167h-109q8 93 42.5 169.5t108.5 156.5h-190v79h291z" />
    <glyph glyph-name="eightsuperior" unicode="&#x2078;" horiz-adv-x="373" 
d="M186 398q-81 0 -121.5 31t-40.5 86q0 81 86 103q-74 20 -74 92q0 49 37 78t112 29t113 -29.5t38 -77.5q0 -72 -75 -92q41 -10 64 -36.5t23 -66.5q0 -55 -40.5 -86t-121.5 -31zM186 644q49 0 49 50q0 20 -12.5 33t-36.5 13t-36.5 -13t-12.5 -33q0 -50 49 -50zM186 475
q25 0 40.5 14.5t15.5 41.5q0 57 -56 57q-25 0 -40.5 -15t-15.5 -42q0 -56 56 -56z" />
    <glyph glyph-name="ninesuperior" unicode="&#x2079;" horiz-adv-x="367" 
d="M172 395q-74 0 -110 35.5t-31 98.5h53q10 -53 69 -53q91 0 91 127v16q-23 -65 -103 -65q-51 0 -82.5 31.5t-31.5 90.5q0 67 40.5 103t104.5 36q89 0 131 -55t42 -150q0 -91 -45 -153t-128 -62zM175 621q26 0 40.5 14.5t14.5 41.5q0 25 -13.5 40.5t-39.5 15.5
q-27 0 -41 -16t-14 -40q0 -56 53 -56z" />
    <glyph glyph-name="n.superior" unicode="&#x207f;" horiz-adv-x="356" 
d="M322 404h-99v138q0 45 -8.5 62t-29.5 17q-49 0 -49 -124v-93h-99v284l84 5l11 -95q11 101 95 101q53 0 74 -28.5t21 -83.5v-183z" />
    <glyph glyph-name="zeroinferior" unicode="&#x2080;" horiz-adv-x="383" 
d="M192 -108q-80 0 -126.5 52t-46.5 157t46.5 157.5t126.5 52.5q79 0 125.5 -52.5t46.5 -157.5q0 -104 -46 -156.5t-126 -52.5zM201 -25q72 0 72 127t-72 127q-71 0 -71 -128q0 -69 18 -97.5t53 -28.5z" />
    <glyph glyph-name="oneinferior" unicode="&#x2081;" horiz-adv-x="273" 
d="M164 308h59v-408h-105v307l-82 -30l-16 46z" />
    <glyph glyph-name="twoinferior" unicode="&#x2082;" horiz-adv-x="363" 
d="M337 -99h-301v43q103 86 131 116q50 57 51 105q0 63 -57 63q-39 0 -56 -27.5t-11 -71.5h-56q-12 29 -6.5 61t21 59t50 44.5t80.5 17.5q69 0 107.5 -36.5t38.5 -98.5q0 -59 -37 -103t-110 -95h155v-77z" />
    <glyph glyph-name="threeinferior" unicode="&#x2083;" horiz-adv-x="357" 
d="M331 14q0 -57 -42 -90t-113 -33q-73 0 -116 34.5t-38 109.5h52q4 -30 24.5 -46t52.5 -16t50.5 14.5t18.5 41.5q0 50 -80 50h-31v54h27q76 0 76 49t-61 49q-30 0 -48 -15.5t-21 -41.5h-49q-4 67 39 102t106 35q62 0 102 -28.5t40 -81.5q0 -70 -80 -93q91 -20 91 -94z" />
    <glyph glyph-name="fourinferior" unicode="&#x2084;" horiz-adv-x="378" 
d="M365 -4h-62v-96h-102v96h-187v65l190 243h99v-233h62v-75zM96 71h105v135z" />
    <glyph glyph-name="fiveinferior" unicode="&#x2085;" horiz-adv-x="359" 
d="M333 42q0 -71 -39.5 -111t-111.5 -40q-69 0 -114 32.5t-39 104.5h53q8 -56 74 -56q33 0 52 17.5t19 48.5t-19 46t-49 15q-45 0 -70 -32l-50 19l11 218h257v-79h-173l-8 -88q33 29 81 29q59 0 92.5 -32.5t33.5 -91.5z" />
    <glyph glyph-name="sixinferior" unicode="&#x2086;" horiz-adv-x="367" 
d="M195 311q73 0 109 -35.5t31 -98.5h-53q-8 54 -69 54q-92 0 -92 -128v-17q23 66 104 66q51 0 82.5 -32t31.5 -90q0 -67 -40.5 -103t-103.5 -36q-89 0 -131.5 55t-42.5 150q0 92 45 153.5t129 61.5zM192 85q-26 0 -40.5 -14.5t-14.5 -41.5q0 -56 53 -56q26 0 40.5 16
t14.5 40q0 56 -53 56z" />
    <glyph glyph-name="seveninferior" unicode="&#x2087;" horiz-adv-x="335" 
d="M313 305v-55q-74 -102 -104 -183t-39 -167h-109q8 93 42.5 169.5t108.5 156.5h-190v79h291z" />
    <glyph glyph-name="eightinferior" unicode="&#x2088;" horiz-adv-x="373" 
d="M186 -106q-81 0 -121.5 31t-40.5 86q0 81 86 103q-74 20 -74 92q0 49 37 78t112 29t113 -29.5t38 -77.5q0 -72 -75 -92q41 -10 64 -36.5t23 -66.5q0 -55 -40.5 -86t-121.5 -31zM186 140q49 0 49 50q0 20 -12.5 33t-36.5 13t-36.5 -13t-12.5 -33q0 -50 49 -50zM186 -29
q25 0 40.5 14.5t15.5 41.5q0 57 -56 57q-25 0 -40.5 -15t-15.5 -42q0 -56 56 -56z" />
    <glyph glyph-name="nineinferior" unicode="&#x2089;" horiz-adv-x="367" 
d="M172 -109q-74 0 -110 35.5t-31 98.5h53q10 -53 69 -53q91 0 91 127v16q-23 -65 -103 -65q-51 0 -82.5 31.5t-31.5 90.5q0 67 40.5 103t104.5 36q89 0 131 -55t42 -150q0 -91 -45 -153t-128 -62zM175 117q26 0 40.5 14.5t14.5 41.5q0 25 -13.5 40.5t-39.5 15.5
q-27 0 -41 -16t-14 -40q0 -56 53 -56z" />
    <glyph glyph-name="Euro" unicode="&#x20ac;" 
d="M451 302l-20 -79h-154q20 -134 142 -134q79 0 133 50l39 -53q-69 -99 -199 -99q-110 0 -180 59.5t-88 176.5h-104l20 79h78v49v19h-73l20 79h62q23 113 95.5 173.5t178.5 60.5q68 0 117 -28.5t73 -66.5l-49 -56q-54 47 -120 47q-57 0 -93 -34t-49 -96h198l-19 -79h-186
v-68h178z" />
    <glyph glyph-name="litre" unicode="&#x2113;" horiz-adv-x="448" 
d="M388 117q-5 -130 -126 -130q-77 0 -114 46t-36 156q-33 -16 -81 -34l-24 66q54 20 105 44l1 219q0 111 44 167t128 56q63 0 99 -40t36 -112q0 -169 -171 -289v-99q0 -46 14 -65.5t44 -19.5q43 0 51 35h30zM249 527v-173q99 90 99 203q0 69 -48 69q-51 0 -51 -99z" />
    <glyph glyph-name="numero" unicode="&#x2116;" horiz-adv-x="1068" 
d="M612 690v-695h-117l-310 477v-472h-115v690h145l281 -443v443h116zM838 386q-77 0 -120 42t-43 110t43 110t120 42t120 -42t43 -110t-43 -110t-120 -42zM838 463q29 0 48 20t19 55q0 36 -19 56t-48 20q-28 0 -47 -20.5t-19 -55.5t19 -55t47 -20zM701 324h314v-110h-314
v110z" />
    <glyph glyph-name="uni2117" unicode="&#x2117;" horiz-adv-x="771" 
d="M385 -14q-156 0 -250 97t-94 260q0 161 98 258t246 97q149 0 247 -97t98 -258t-98 -259t-247 -98zM386 57q120 0 193 79t73 207q0 125 -73.5 204.5t-192.5 79.5q-120 0 -192 -78.5t-72 -205.5t69.5 -206.5t194.5 -79.5zM252 532h171q68 0 107.5 -32.5t39.5 -91.5
q0 -64 -40 -98.5t-110 -34.5h-59v-119h-109v376zM390 456h-29v-107h30q71 0 71 54q0 53 -72 53z" />
    <glyph glyph-name="trademark" unicode="&#x2122;" horiz-adv-x="854" 
d="M469 320h-87l7 370h125l95 -215l102 215h101l6 -370h-86l-5 222l-105 -219h-52l-97 216zM235 320h-114v291h-109v78h328v-78h-105v-291z" />
    <glyph glyph-name="Omega" unicode="&#x2126;" horiz-adv-x="740" 
d="M326 139v-139h-274v105h195q-25 6 -47.5 15t-54 30.5t-54 50t-38.5 76.5t-16 107q0 138 91 226.5t242 88.5q158 0 245 -87.5t87 -227.5q0 -59 -15.5 -107t-37 -76.5t-52 -50t-52.5 -30t-46 -15.5h186v-105h-252v139q4 1 14.5 7t31 23.5t37.5 41t30 62.5t13 85
q0 89 -46.5 150t-133.5 61t-133.5 -57.5t-46.5 -153.5q0 -46 13 -85t30.5 -62.5t38 -41t31 -23.5t14.5 -7z" />
    <glyph glyph-name="estimated" unicode="&#x212e;" horiz-adv-x="760" 
d="M709 281h-528v-187q73 -68 199 -68q95 0 158.5 29t109.5 91l25 -21q-93 -130 -293 -130q-151 0 -240.5 88.5t-89.5 217.5t91.5 217.5t238.5 88.5q146 0 237.5 -88.5t91.5 -217.5v-20zM380 576q-126 0 -199 -70v-197h398v197q-75 70 -199 70z" />
    <glyph glyph-name="arrowleft" unicode="&#x2190;" horiz-adv-x="703" 
d="M269 503l72 -69l-128 -119h440v-105h-439l127 -119l-72 -70l-242 241z" />
    <glyph glyph-name="arrowup" unicode="&#x2191;" horiz-adv-x="576" 
d="M341 0h-105v513l-120 -128l-69 72l241 242l241 -242l-69 -72l-119 127v-512z" />
    <glyph glyph-name="arrowright" unicode="&#x2192;" horiz-adv-x="703" 
d="M50 315h440l-128 119l72 69l242 -241l-242 -241l-72 70l127 119h-439v105z" />
    <glyph glyph-name="arrowdown" unicode="&#x2193;" horiz-adv-x="576" 
d="M235 690h105v-513l120 128l69 -72l-241 -242l-241 242l69 72l119 -127v512z" />
    <glyph glyph-name="arrowupleft" unicode="&#x2196;" horiz-adv-x="621" 
d="M85 478h341v-101l-171 6l319 -319l-74 -76l-320 321l6 -172h-101v341z" />
    <glyph glyph-name="arrowupright" unicode="&#x2197;" horiz-adv-x="621" 
d="M47 64l319 319l-171 -6v101h341v-341h-101l6 172l-320 -321z" />
    <glyph glyph-name="arrowdownright" unicode="&#x2198;" horiz-adv-x="621" 
d="M47 414l74 76l320 -321l-6 172h101v-341h-341v101l171 -6z" />
    <glyph glyph-name="arrowdownleft" unicode="&#x2199;" horiz-adv-x="621" 
d="M85 0v341h101l-6 -172l320 321l74 -76l-319 -319l171 6v-101h-341z" />
    <glyph glyph-name="partialdiff" unicode="&#x2202;" horiz-adv-x="556" 
d="M260 699q115 0 189.5 -91.5t74.5 -257.5q0 -159 -66.5 -261t-194.5 -102q-110 0 -170.5 64.5t-60.5 170.5q0 110 53.5 182t155.5 72q96 0 138 -77q-5 113 -49.5 161t-105.5 47q-46 -1 -89 -21l-34 72q59 41 159 41zM173 222q0 -64 23.5 -100t65.5 -36q46 0 73 34.5
t38 121.5q-8 131 -96 131q-104 0 -104 -151z" />
    <glyph glyph-name="Delta" unicode="&#x2206;" horiz-adv-x="638" 
d="M17 0v47l234 644h154l215 -644v-47h-603zM437 90l-139 453l-157 -453h296z" />
    <glyph glyph-name="product" unicode="&#x220f;" horiz-adv-x="692" 
d="M70 690h552v-820h-147v715h-257v-715h-148v820z" />
    <glyph glyph-name="summation" unicode="&#x2211;" horiz-adv-x="628" 
d="M62 -127v91l239 313l-236 320v93h501v-105h-337l202 -270v-67l-206 -270h341v-105h-504z" />
    <glyph glyph-name="minus" unicode="&#x2212;" 
d="M523 369v-112h-443v112h443z" />
    <glyph glyph-name="radical" unicode="&#x221a;" horiz-adv-x="591" 
d="M193 287l87 -271l181 694h138l-247 -858h-150l-128 365h-79v70h198z" />
    <glyph glyph-name="infinity" unicode="&#x221e;" 
d="M441 166q-85 0 -146 93q-34 -47 -65.5 -70t-76.5 -23q-68 0 -99.5 40t-31.5 101q0 63 35.5 103t104.5 40q85 0 146 -92q34 47 65 69.5t76 22.5q69 0 100.5 -39t31.5 -101q0 -60 -35.5 -102t-104.5 -42zM169 252q40 0 71 57q-31 55 -71 55q-24 0 -36.5 -16t-12.5 -39
t12 -40t37 -17zM433 252q25 0 37.5 16t12.5 39t-12.5 39.5t-37.5 16.5q-41 0 -70 -56q29 -55 70 -55z" />
    <glyph glyph-name="integral" unicode="&#x222b;" horiz-adv-x="392" 
d="M315 656q-31 0 -44 -22t-13 -74v-18l16 -499v-17q0 -187 -154 -187q-88 0 -125 74l40 38q20 -18 42 -18q32 0 44.5 23t12.5 73v20l-18 491v22q0 188 156 188q87 0 125 -73l-40 -39q-18 18 -42 18z" />
    <glyph glyph-name="approxequal" unicode="&#x2248;" 
d="M152 343h-67q2 158 129 158q49 0 107 -30q54 -27 84 -27q31 0 45 13.5t16 43.5h67q-3 -159 -128 -159q-49 0 -97 26q-3 2 -17 9t-19 9t-16.5 6t-21 5.5t-20.5 1.5q-55 0 -62 -56zM152 117h-67q2 158 129 158q49 0 101 -28q3 -1 14 -6.5t14.5 -7.5t13.5 -5.5t16 -5
t14.5 -3t17.5 -1.5q57 0 61 57h67q-3 -158 -128 -158q-48 0 -104 28q-54 29 -87 29q-55 0 -62 -57z" />
    <glyph glyph-name="notequal" unicode="&#x2260;" 
d="M523 250v-105h-263l-52 -96h-99l52 96h-81v105h138l68 126h-206v104h262l53 98h97l-53 -98h84v-104h-139l-68 -126h207z" />
    <glyph glyph-name="lessequal" unicode="&#x2264;" 
d="M507 264l-36 -100l-386 164v88l386 171l36 -100l-288 -115zM523 105v-105h-443v105h443z" />
    <glyph glyph-name="greaterequal" unicode="&#x2265;" horiz-adv-x="596" 
d="M518 328l-386 -164l-36 100l288 108l-288 115l36 100l386 -171v-88zM80 105h443v-105h-443v105z" />
    <glyph glyph-name="lozenge" unicode="&#x25ca;" horiz-adv-x="574" 
d="M529 372v-62l-185 -318h-114l-185 318v62l185 322h114zM288 124l112 220l-112 219l-112 -219z" />
    <glyph glyph-name="commaaccent" unicode="&#xf6c3;" horiz-adv-x="500" 
d="M131 -227l37 171h112l-81 -184z" />
    <glyph glyph-name="fi.cap" horiz-adv-x="784" 
d="M564 690h148v-690h-148v690zM429 290h-211v-290h-148v689h416v-106h-268v-188h211v-105z" />
    <glyph glyph-name="fl.cap" horiz-adv-x="1008" 
d="M564 690h148v-579h286v-110h-434v689zM429 290h-211v-290h-148v689h416v-106h-268v-188h211v-105z" />
    <glyph glyph-name="germandbls.cap" horiz-adv-x="1130" 
d="M37 214h71q18 -124 162 -124q111 0 111 87q0 52 -64 83q-22 10 -91 34q-82 28 -127 72t-45 128q0 92 66 148.5t173 56.5q114 0 173.5 -57t49.5 -158h-74q-6 51 -43 79.5t-90 28.5q-49 0 -77.5 -22t-28.5 -63q0 -38 35.5 -60t109.5 -45q88 -28 137 -74.5t49 -133.5
q0 -96 -69 -151.5t-178 -55.5q-121 0 -185.5 59t-64.5 168zM602 214h71q18 -124 162 -124q111 0 111 87q0 52 -64 83q-22 10 -91 34q-82 28 -127 72t-45 128q0 92 66 148.5t173 56.5q114 0 173.5 -57t49.5 -158h-74q-6 51 -43 79.5t-90 28.5q-49 0 -77.5 -22t-28.5 -63
q0 -38 35.5 -60t109.5 -45q88 -28 137 -74.5t49 -133.5q0 -96 -69 -151.5t-178 -55.5q-121 0 -185.5 59t-64.5 168z" />
    <glyph glyph-name="i.TRK" horiz-adv-x="270" 
d="M65 603v122h145v-122h-145zM63 478l140 7v-485h-140v478z" />
    <glyph glyph-name="A.small" horiz-adv-x="555" 
d="M119 0h-109l202 528h149l184 -528h-164l-37 119h-185zM186 198h134l-64 207z" />
    <glyph glyph-name="B.small" horiz-adv-x="546" 
d="M64 0v528h225q206 0 206 -134q0 -92 -119 -114q145 -23 145 -133q0 -71 -54.5 -109t-155.5 -38h-247zM257 438h-51v-130h52q100 0 100 65t-101 65zM278 231h-72v-141h69q105 0 105 71q0 70 -102 70z" />
    <glyph glyph-name="C.small" horiz-adv-x="524" 
d="M34 260q0 129 71 203t191 74q56 0 97 -17t62 -44.5t29.5 -58t4.5 -60.5h-71q-14 68 -98 68q-63 0 -98 -43t-35 -122q0 -84 36.5 -126t100.5 -42q51 0 82.5 24t37.5 59h57q0 -34 -10 -64.5t-31.5 -59.5t-64 -46.5t-99.5 -17.5q-120 0 -191 70t-71 203z" />
    <glyph glyph-name="D.small" horiz-adv-x="585" 
d="M64 528h185q150 0 227.5 -69.5t77.5 -190.5q0 -141 -84.5 -204.5t-218.5 -63.5h-187v528zM254 432h-48v-337h51q72 0 108 45t36 128q0 164 -147 164z" />
    <glyph glyph-name="E.small" horiz-adv-x="483" 
d="M398 226h-192v-132h243v-93h-385v526h374v-93h-232v-116h192v-92z" />
    <glyph glyph-name="F.small" horiz-adv-x="447" 
d="M64 527h375v-95h-233v-126h184v-95h-184v-211h-142v527z" />
    <glyph glyph-name="G.small" horiz-adv-x="568" 
d="M31 259q0 131 74.5 204.5t190.5 73.5q58 0 101 -17.5t64 -45t29.5 -57.5t4.5 -60h-71q-16 68 -102 68q-60 0 -99 -48t-39 -126q0 -76 34.5 -120.5t97.5 -44.5q42 0 65.5 15.5t26.5 36.5v48h-73v85h187v-118q-10 -81 -67.5 -123.5t-152.5 -42.5q-130 0 -200.5 71.5
t-70.5 200.5z" />
    <glyph glyph-name="H.small" horiz-adv-x="610" 
d="M64 528h142v-209h198v209h142v-528h-142v222h-198v-222h-142v528z" />
    <glyph glyph-name="I.small" horiz-adv-x="275" 
d="M66 528h143v-528h-143v528z" />
    <glyph glyph-name="J.small" horiz-adv-x="406" 
d="M12 161h59q2 -31 20 -49.5t49 -18.5q36 0 50 26t14 78v331h142v-343q0 -90 -40 -144t-129 -54q-95 0 -130 46.5t-35 127.5z" />
    <glyph glyph-name="K.small" horiz-adv-x="575" 
d="M64 528h142v-224l206 224h124l-200 -210l225 -318h-178l-143 216l-30 -31l-4 8v-193h-142v528z" />
    <glyph glyph-name="L.small" horiz-adv-x="453" 
d="M64 528h142v-428h237v-99h-379v527z" />
    <glyph glyph-name="M.small" horiz-adv-x="712" 
d="M70 528h156l143 -325l155 325h119l11 -528h-106l-8 335l-156 -331h-64l-149 340l-8 -344h-104z" />
    <glyph glyph-name="N.small" 
d="M64 528h132l232 -309v309h112v-528h-105l-260 339v-339h-111v528z" />
    <glyph glyph-name="O.small" horiz-adv-x="600" 
d="M31 263q0 125 74 199.5t197 74.5q112 0 189.5 -70.5t77.5 -200.5q0 -131 -70.5 -205t-196.5 -74q-123 0 -197 71.5t-74 204.5zM447 264q0 73 -38 115.5t-93 42.5q-61 0 -96.5 -41.5t-35.5 -116.5q0 -86 37 -128.5t94 -42.5q56 0 94 43t38 128z" />
    <glyph glyph-name="P.small" horiz-adv-x="527" 
d="M64 528h235q95 0 152 -47t57 -131q0 -88 -57.5 -133t-155.5 -45h-89v-172h-142v528zM264 430h-58v-162h59q101 0 101 82q0 39 -27.5 59.5t-74.5 20.5z" />
    <glyph glyph-name="Q.small" horiz-adv-x="600" 
d="M31 263q0 123 73 198.5t198 75.5q112 0 189.5 -71.5t77.5 -194.5q0 -106 -49.5 -179t-139.5 -96q8 -52 74 -52q52 0 58 36h37q0 -53 -36.5 -81.5t-95.5 -28.5q-74 0 -117 33t-52 88q-101 15 -159 84t-58 188zM447 264q0 73 -38 115.5t-93 42.5q-61 0 -96.5 -41.5
t-35.5 -116.5q0 -86 37 -128.5t94 -42.5q56 0 94 43t38 128z" />
    <glyph glyph-name="R.small" horiz-adv-x="549" 
d="M526 34l3 -21q-27 -20 -83 -20q-60 0 -82 30.5t-24 102.5q-2 44 -18 62.5t-56 18.5h-60v-207h-142v528h232q202 0 202 -139q0 -105 -113 -132q49 -7 72 -36.5t25 -86.5q4 -47 10 -54q4 -25 11.5 -34.5t22.5 -11.5zM267 432h-61v-141h60q94 0 94 73q0 68 -93 68z" />
    <glyph glyph-name="S.small" horiz-adv-x="489" 
d="M220 72q41 0 63.5 14.5t22.5 41.5q0 13 -5.5 23.5t-12 17.5t-21.5 14t-24.5 10.5t-32 10.5t-32.5 10q-66 22 -100 54.5t-34 102.5q0 71 55.5 118.5t150.5 47.5q101 0 153.5 -45.5t45.5 -125.5h-71q-6 36 -34 58t-67 22q-83 0 -83 -59q0 -9 2.5 -17t9.5 -14t12 -10.5
t18 -9.5t19.5 -7t24.5 -8t25 -8q36 -10 59 -20t48.5 -27.5t37.5 -45.5t12 -66q0 -77 -59.5 -122t-156.5 -45q-108 0 -161 47.5t-53 132.5h61q15 -95 127 -95z" />
    <glyph glyph-name="T.small" horiz-adv-x="501" 
d="M6 527h489v-99h-174v-428h-141v428h-174v99z" />
    <glyph glyph-name="U.small" horiz-adv-x="578" 
d="M59 237v291h154v-271q0 -89 22.5 -126t79.5 -37q55 0 76 34.5t21 122.5v277h107v-284q0 -257 -219 -257q-72 0 -121 18t-74.5 53.5t-35.5 77.5t-10 101z" />
    <glyph glyph-name="V.small" horiz-adv-x="541" 
d="M4 528h175l118 -369l124 369h116l-192 -528h-148z" />
    <glyph glyph-name="W.small" horiz-adv-x="845" 
d="M6 528h168l109 -371l120 369h100l116 -363l108 365h112l-165 -528h-138l-110 300l-110 -300h-141z" />
    <glyph glyph-name="X.small" horiz-adv-x="555" 
d="M21 528h184l91 -159l97 159h124l-158 -237l182 -291h-183l-106 190l-116 -190h-124l173 265z" />
    <glyph glyph-name="Y.small" horiz-adv-x="524" 
d="M519 528l-179 -318v-210h-143v205l-192 323h165l123 -215l117 215h109z" />
    <glyph glyph-name="Z.small" horiz-adv-x="495" 
d="M32 87l260 348h-248v92h415v-86l-263 -348h266v-92h-430v86z" />
    <glyph glyph-name="Agrave.small" horiz-adv-x="555" 
d="M141 754l84 76l135 -192l-52 -43zM119 0h-109l202 528h149l184 -528h-164l-37 119h-185zM186 198h134l-64 207z" />
    <glyph glyph-name="Aacute.small" horiz-adv-x="555" 
d="M211 638l135 192l84 -76l-167 -159zM119 0h-109l202 528h149l184 -528h-164l-37 119h-185zM186 198h134l-64 207z" />
    <glyph glyph-name="Acircumflex.small" horiz-adv-x="555" 
d="M100 636l136 178h75l136 -178l-43 -40l-131 118l-131 -118zM119 0h-109l202 528h149l184 -528h-164l-37 119h-185zM186 198h134l-64 207z" />
    <glyph glyph-name="Atilde.small" horiz-adv-x="555" 
d="M129 626q-25 78 -2.5 125t79.5 47q29 0 51.5 -11.5t34 -25t28 -25t33.5 -11.5q47 0 32 74h33q24 -75 1.5 -123.5t-79.5 -48.5q-34 0 -59 18.5t-44.5 36.5t-42.5 18q-25 0 -33 -20.5t-1 -53.5h-31zM119 0h-109l202 528h149l184 -528h-164l-37 119h-185zM186 198h134
l-64 207z" />
    <glyph glyph-name="Adieresis.small" horiz-adv-x="555" 
d="M126 655v120h113v-120h-113zM308 655v120h113v-120h-113zM119 0h-109l202 528h149l184 -528h-164l-37 119h-185zM186 198h134l-64 207z" />
    <glyph glyph-name="Amacron.small" horiz-adv-x="555" 
d="M125 773h296v-88h-296v88zM119 0h-109l202 528h149l184 -528h-164l-37 119h-185zM186 198h134l-64 207z" />
    <glyph glyph-name="Abreve.small" horiz-adv-x="555" 
d="M273 617q-83 0 -120.5 53t-31.5 133h46q14 -89 106 -89q55 0 77.5 25.5t29.5 63.5h45q6 -80 -31.5 -133t-120.5 -53zM119 0h-109l202 528h149l184 -528h-164l-37 119h-185zM186 198h134l-64 207z" />
    <glyph glyph-name="Aring.small" horiz-adv-x="555" 
d="M149 738q0 50 35 83.5t89 33.5q57 0 91.5 -33.5t34.5 -83.5q0 -51 -34.5 -84.5t-91.5 -33.5q-55 0 -89.5 34t-34.5 84zM324 727q0 22 -14.5 37.5t-35.5 15.5q-22 0 -36.5 -15t-14.5 -38q0 -22 14.5 -37t36.5 -15q21 0 35.5 15t14.5 37zM119 0h-109l202 528h149l184 -528
h-164l-37 119h-185zM186 198h134l-64 207z" />
    <glyph glyph-name="Aringacute.small" horiz-adv-x="555" 
d="M168 883l163 136l79 -96l-206 -75zM155 705q0 50 35 83.5t89 33.5q57 0 91.5 -33.5t34.5 -83.5q0 -51 -34.5 -84.5t-91.5 -33.5q-55 0 -89.5 34t-34.5 84zM330 694q0 22 -14.5 37.5t-35.5 15.5q-22 0 -36.5 -15t-14.5 -38q0 -22 14.5 -37t36.5 -15q21 0 35.5 15t14.5 37z
M119 0h-109l202 528h149l184 -528h-164l-37 119h-185zM186 198h134l-64 207z" />
    <glyph glyph-name="Aogonek.small" horiz-adv-x="555" 
d="M119 0h-109l202 528h149l184 -528h-59q-47 0 -78 -37t-31 -84q0 -35 28 -35q15 0 22.5 12t7.5 29h30q3 -46 -18 -74.5t-70 -28.5q-44 0 -66 23t-22 60q0 77 92 136l-37 118h-185zM186 198h134l-64 207z" />
    <glyph glyph-name="AE.small" horiz-adv-x="745" 
d="M122 0h-116l300 527h394v-92h-212v-122h172v-92h-172v-129h223v-91h-366v145h-143zM246 225h99v181z" />
    <glyph glyph-name="AEacute.small" horiz-adv-x="745" 
d="M414 638l135 192l84 -76l-167 -159zM122 0h-116l300 527h394v-92h-212v-122h172v-92h-172v-129h223v-91h-366v145h-143zM246 225h99v181z" />
    <glyph glyph-name="Cacute.small" horiz-adv-x="520" 
d="M222 638l135 192l84 -76l-167 -159zM34 260q0 129 71 203t191 74q56 0 97 -17t62 -44.5t29.5 -58t4.5 -60.5h-71q-14 68 -98 68q-63 0 -98 -43t-35 -122q0 -84 36.5 -126t100.5 -42q51 0 82.5 24t37.5 59h57q0 -34 -10 -64.5t-31.5 -59.5t-64 -46.5t-99.5 -17.5
q-120 0 -191 70t-71 203z" />
    <glyph glyph-name="Ccircumflex.small" horiz-adv-x="520" 
d="M110 636l136 178h75l136 -178l-43 -40l-131 118l-131 -118zM34 260q0 129 71 203t191 74q56 0 97 -17t62 -44.5t29.5 -58t4.5 -60.5h-71q-14 68 -98 68q-63 0 -98 -43t-35 -122q0 -84 36.5 -126t100.5 -42q51 0 82.5 24t37.5 59h57q0 -34 -10 -64.5t-31.5 -59.5
t-64 -46.5t-99.5 -17.5q-120 0 -191 70t-71 203z" />
    <glyph glyph-name="Ccaron.small" horiz-adv-x="520" 
d="M117 784l44 37l129 -118l130 118l44 -37l-136 -180h-75zM34 260q0 129 71 203t191 74q56 0 97 -17t62 -44.5t29.5 -58t4.5 -60.5h-71q-14 68 -98 68q-63 0 -98 -43t-35 -122q0 -84 36.5 -126t100.5 -42q51 0 82.5 24t37.5 59h57q0 -34 -10 -64.5t-31.5 -59.5t-64 -46.5
t-99.5 -17.5q-120 0 -191 70t-71 203z" />
    <glyph glyph-name="Cdotaccent.small" horiz-adv-x="520" 
d="M218 653v122h145v-122h-145zM34 260q0 129 71 203t191 74q56 0 97 -17t62 -44.5t29.5 -58t4.5 -60.5h-71q-14 68 -98 68q-63 0 -98 -43t-35 -122q0 -84 36.5 -126t100.5 -42q51 0 82.5 24t37.5 59h57q0 -34 -10 -64.5t-31.5 -59.5t-64 -46.5t-99.5 -17.5q-120 0 -191 70
t-71 203z" />
    <glyph glyph-name="Ccedilla.small" horiz-adv-x="520" 
d="M200 -116h28q-1 -38 33 -38q14 0 23 9.5t9 26.5q0 44 -52 36l-20 13l17 61q-95 15 -149.5 83.5t-54.5 184.5q0 129 71 203t191 74q56 0 97 -17t62 -44.5t29.5 -58t4.5 -60.5h-71q-14 68 -98 68q-63 0 -98 -43t-35 -122q0 -84 36.5 -126t100.5 -42q51 0 82.5 24t37.5 59
h57q0 -34 -10 -64.5t-31.5 -59.5t-64 -46.5t-99.5 -17.5h-20l-1 -28q42 5 69 -15t27 -62t-25 -65t-64 -23q-48 0 -68 25t-14 65z" />
    <glyph glyph-name="Dcaron.small" horiz-adv-x="577" 
d="M89 784l44 37l129 -118l130 118l44 -37l-136 -180h-75zM64 528h185q150 0 227.5 -69.5t77.5 -190.5q0 -141 -84.5 -204.5t-218.5 -63.5h-187v528zM254 432h-48v-337h51q72 0 108 45t36 128q0 164 -147 164z" />
    <glyph glyph-name="Dcroat.small" horiz-adv-x="577" 
d="M5 293h59v235h185q150 0 227.5 -69.5t77.5 -190.5q0 -141 -84.5 -204.5t-218.5 -63.5h-187v235h-59v58zM289 235h-83v-140h51q72 0 108 45t36 128q0 164 -147 164h-48v-139h83v-58z" />
    <glyph glyph-name="Egrave.small" horiz-adv-x="479" 
d="M123 754l84 76l135 -192l-52 -43zM398 226h-192v-132h243v-93h-385v526h374v-93h-232v-116h192v-92z" />
    <glyph glyph-name="Eacute.small" horiz-adv-x="479" 
d="M158 638l135 192l84 -76l-167 -159zM398 226h-192v-132h243v-93h-385v526h374v-93h-232v-116h192v-92z" />
    <glyph glyph-name="Ecircumflex.small" horiz-adv-x="479" 
d="M77 636l136 178h75l136 -178l-43 -40l-131 118l-131 -118zM398 226h-192v-132h243v-93h-385v526h374v-93h-232v-116h192v-92z" />
    <glyph glyph-name="Ecaron.small" horiz-adv-x="479" 
d="M81 784l44 37l129 -118l130 118l44 -37l-136 -180h-75zM398 226h-192v-132h243v-93h-385v526h374v-93h-232v-116h192v-92z" />
    <glyph glyph-name="Edieresis.small" horiz-adv-x="479" 
d="M107 655v120h113v-120h-113zM289 655v120h113v-120h-113zM398 226h-192v-132h243v-93h-385v526h374v-93h-232v-116h192v-92z" />
    <glyph glyph-name="Emacron.small" horiz-adv-x="479" 
d="M103 773h296v-88h-296v88zM398 226h-192v-132h243v-93h-385v526h374v-93h-232v-116h192v-92z" />
    <glyph glyph-name="Ebreve.small" horiz-adv-x="479" 
d="M253 617q-83 0 -120.5 53t-31.5 133h46q14 -89 106 -89q55 0 77.5 25.5t29.5 63.5h45q6 -80 -31.5 -133t-120.5 -53zM398 226h-192v-132h243v-93h-385v526h374v-93h-232v-116h192v-92z" />
    <glyph glyph-name="Edotaccent.small" horiz-adv-x="479" 
d="M179 653v122h145v-122h-145zM398 226h-192v-132h243v-93h-385v526h374v-93h-232v-116h192v-92z" />
    <glyph glyph-name="Eogonek.small" horiz-adv-x="479" 
d="M260 -131q0 75 83 132h-279v526h374v-93h-232v-116h192v-92h-192v-132h243v-93h-4q-43 0 -70.5 -37t-27.5 -82q0 -38 31 -38q15 0 22.5 12t7.5 29h30q3 -46 -18.5 -74.5t-70.5 -28.5q-44 0 -66.5 23.5t-22.5 63.5z" />
    <glyph glyph-name="FI.small" horiz-adv-x="710" 
d="M508 528h143v-528h-143v528zM64 527h375v-95h-233v-126h184v-95h-184v-211h-142v527z" />
    <glyph glyph-name="FL.small" horiz-adv-x="891" 
d="M506 528h142v-428h237v-99h-379v527zM64 527h375v-95h-233v-126h184v-95h-184v-211h-142v527z" />
    <glyph glyph-name="Gcircumflex.small" horiz-adv-x="567" 
d="M111 636l136 178h75l136 -178l-43 -40l-131 118l-131 -118zM31 259q0 131 74.5 204.5t190.5 73.5q58 0 101 -17.5t64 -45t29.5 -57.5t4.5 -60h-71q-16 68 -102 68q-60 0 -99 -48t-39 -126q0 -76 34.5 -120.5t97.5 -44.5q42 0 65.5 15.5t26.5 36.5v48h-73v85h187v-118
q-10 -81 -67.5 -123.5t-152.5 -42.5q-130 0 -200.5 71.5t-70.5 200.5z" />
    <glyph glyph-name="Gbreve.small" horiz-adv-x="567" 
d="M285 617q-83 0 -120.5 53t-31.5 133h46q14 -89 106 -89q55 0 77.5 25.5t29.5 63.5h45q6 -80 -31.5 -133t-120.5 -53zM31 259q0 131 74.5 204.5t190.5 73.5q58 0 101 -17.5t64 -45t29.5 -57.5t4.5 -60h-71q-16 68 -102 68q-60 0 -99 -48t-39 -126q0 -76 34.5 -120.5
t97.5 -44.5q42 0 65.5 15.5t26.5 36.5v48h-73v85h187v-118q-10 -81 -67.5 -123.5t-152.5 -42.5q-130 0 -200.5 71.5t-70.5 200.5z" />
    <glyph glyph-name="Gdotaccent.small" horiz-adv-x="567" 
d="M220 653v122h145v-122h-145zM31 259q0 131 74.5 204.5t190.5 73.5q58 0 101 -17.5t64 -45t29.5 -57.5t4.5 -60h-71q-16 68 -102 68q-60 0 -99 -48t-39 -126q0 -76 34.5 -120.5t97.5 -44.5q42 0 65.5 15.5t26.5 36.5v48h-73v85h187v-118q-10 -81 -67.5 -123.5
t-152.5 -42.5q-130 0 -200.5 71.5t-70.5 200.5z" />
    <glyph glyph-name="Gcommaaccent.small" horiz-adv-x="567" 
d="M31 259q0 131 74.5 204.5t190.5 73.5q58 0 101 -17.5t64 -45t29.5 -57.5t4.5 -60h-71q-16 68 -102 68q-60 0 -99 -48t-39 -126q0 -76 34.5 -120.5t97.5 -44.5q42 0 65.5 15.5t26.5 36.5v48h-73v85h187v-118q-10 -81 -67.5 -123.5t-152.5 -42.5q-130 0 -200.5 71.5
t-70.5 200.5zM211 -227l37 171h112l-81 -184z" />
    <glyph glyph-name="Hcircumflex.small" horiz-adv-x="602" 
d="M128 636l136 178h75l136 -178l-43 -40l-131 118l-131 -118zM64 528h142v-209h198v209h142v-528h-142v222h-198v-222h-142v528z" />
    <glyph glyph-name="Hbar.small" horiz-adv-x="602" 
d="M10 459h54v69h142v-69h198v69h142v-69h46v-58h-46v-401h-142v222h-198v-222h-142v401h-54v58zM206 319h198v82h-198v-82z" />
    <glyph glyph-name="Igrave.small" horiz-adv-x="267" 
d="M5 754l84 76l135 -192l-52 -43zM66 528h143v-528h-143v528z" />
    <glyph glyph-name="Iacute.small" horiz-adv-x="267" 
d="M46 638l135 192l84 -76l-167 -159zM66 528h143v-528h-143v528z" />
    <glyph glyph-name="Icircumflex.small" horiz-adv-x="267" 
d="M-39 636l136 178h75l136 -178l-43 -40l-131 118l-131 -118zM66 528h143v-528h-143v528z" />
    <glyph glyph-name="Itilde.small" horiz-adv-x="267" 
d="M-10 626q-25 78 -2.5 125t79.5 47q29 0 51.5 -11.5t34 -25t28 -25t33.5 -11.5q47 0 32 74h33q24 -75 1.5 -123.5t-79.5 -48.5q-34 0 -59 18.5t-44.5 36.5t-42.5 18q-25 0 -33 -20.5t-1 -53.5h-31zM66 528h143v-528h-143v528z" />
    <glyph glyph-name="Idieresis.small" horiz-adv-x="267" 
d="M-14 655v120h113v-120h-113zM168 655v120h113v-120h-113zM66 528h143v-528h-143v528z" />
    <glyph glyph-name="Imacron.small" horiz-adv-x="267" 
d="M-14 773h296v-88h-296v88zM66 528h143v-528h-143v528z" />
    <glyph glyph-name="Ibreve.small" horiz-adv-x="267" 
d="M134 617q-83 0 -120.5 53t-31.5 133h46q14 -89 106 -89q55 0 77.5 25.5t29.5 63.5h45q6 -80 -31.5 -133t-120.5 -53zM66 528h143v-528h-143v528z" />
    <glyph glyph-name="Idotaccent.small" horiz-adv-x="270" 
d="M63 653v122h145v-122h-145zM66 528h143v-528h-143v528z" />
    <glyph glyph-name="Iogonek.small" horiz-adv-x="267" 
d="M35 -131q0 71 80 131h-49v528h143v-528h-2q-39 -6 -61.5 -40.5t-22.5 -76.5q0 -39 32 -39q14 0 22 12.5t8 28.5h29q3 -46 -18 -74.5t-70 -28.5q-45 0 -68 23.5t-23 63.5z" />
    <glyph glyph-name="IJ.small" horiz-adv-x="672" 
d="M66 528h143v-528h-143v528zM282 161h59q2 -31 20 -49.5t49 -18.5q36 0 50 26t14 78v331h142v-343q0 -90 -40 -144t-129 -54q-95 0 -130 46.5t-35 127.5z" />
    <glyph glyph-name="Jcircumflex.small" horiz-adv-x="402" 
d="M97 636l136 178h75l136 -178l-43 -40l-131 118l-131 -118zM12 161h59q2 -31 20 -49.5t49 -18.5q36 0 50 26t14 78v331h142v-343q0 -90 -40 -144t-129 -54q-95 0 -130 46.5t-35 127.5z" />
    <glyph glyph-name="Kcommaaccent.small" horiz-adv-x="568" 
d="M64 528h142v-224l206 224h124l-200 -210l225 -318h-178l-143 216l-30 -31l-4 8v-193h-142v528zM195 -227l37 171h112l-81 -184z" />
    <glyph glyph-name="Lacute.small" horiz-adv-x="449" 
d="M92 638l135 192l84 -76l-167 -159zM64 528h142v-428h237v-99h-379v527z" />
    <glyph glyph-name="Lcaron.small" horiz-adv-x="449" 
d="M63 528h142v-428h237v-99h-379v527zM302 318l19 210h115l-56 -210h-78z" />
    <glyph glyph-name="Lcommaaccent.small" horiz-adv-x="449" 
d="M64 528h142v-428h237v-99h-379v527zM182 -227l37 171h112l-81 -184z" />
    <glyph glyph-name="Lslash.small" horiz-adv-x="449" 
d="M7 105v109l57 42v272h142v-166l97 72v-109l-97 -72v-153h237v-99h-379v146z" />
    <glyph glyph-name="Ldot.small" horiz-adv-x="464" 
d="M64 528h142v-428h237v-99h-379v527zM286 242v123h119v-123h-119z" />
    <glyph glyph-name="Nacute.small" horiz-adv-x="595" 
d="M235 638l135 192l84 -76l-167 -159zM64 528h132l232 -309v309h112v-528h-105l-260 339v-339h-111v528z" />
    <glyph glyph-name="Ncaron.small" horiz-adv-x="595" 
d="M136 784l44 37l129 -118l130 118l44 -37l-136 -180h-75zM64 528h132l232 -309v309h112v-528h-105l-260 339v-339h-111v528z" />
    <glyph glyph-name="Ntilde.small" horiz-adv-x="595" 
d="M156 626q-25 78 -2.5 125t79.5 47q29 0 51.5 -11.5t34 -25t28 -25t33.5 -11.5q47 0 32 74h33q24 -75 1.5 -123.5t-79.5 -48.5q-34 0 -59 18.5t-44.5 36.5t-42.5 18q-25 0 -33 -20.5t-1 -53.5h-31zM64 528h132l232 -309v309h112v-528h-105l-260 339v-339h-111v528z" />
    <glyph glyph-name="Ncommaaccent.small" horiz-adv-x="595" 
d="M64 528h132l232 -309v309h112v-528h-105l-260 339v-339h-111v528zM211 -227l37 171h112l-81 -184z" />
    <glyph glyph-name="Ograve.small" horiz-adv-x="599" 
d="M147 754l84 76l135 -192l-52 -43zM31 263q0 125 74 199.5t197 74.5q112 0 189.5 -70.5t77.5 -200.5q0 -131 -70.5 -205t-196.5 -74q-123 0 -197 71.5t-74 204.5zM447 264q0 73 -38 115.5t-93 42.5q-61 0 -96.5 -41.5t-35.5 -116.5q0 -86 37 -128.5t94 -42.5q56 0 94 43
t38 128z" />
    <glyph glyph-name="Oacute.small" horiz-adv-x="599" 
d="M219 638l135 192l84 -76l-167 -159zM31 263q0 125 74 199.5t197 74.5q112 0 189.5 -70.5t77.5 -200.5q0 -131 -70.5 -205t-196.5 -74q-123 0 -197 71.5t-74 204.5zM447 264q0 73 -38 115.5t-93 42.5q-61 0 -96.5 -41.5t-35.5 -116.5q0 -86 37 -128.5t94 -42.5q56 0 94 43
t38 128z" />
    <glyph glyph-name="Ocircumflex.small" horiz-adv-x="599" 
d="M126 636l136 178h75l136 -178l-43 -40l-131 118l-131 -118zM31 263q0 125 74 199.5t197 74.5q112 0 189.5 -70.5t77.5 -200.5q0 -131 -70.5 -205t-196.5 -74q-123 0 -197 71.5t-74 204.5zM447 264q0 73 -38 115.5t-93 42.5q-61 0 -96.5 -41.5t-35.5 -116.5
q0 -86 37 -128.5t94 -42.5q56 0 94 43t38 128z" />
    <glyph glyph-name="Otilde.small" horiz-adv-x="599" 
d="M155 626q-25 78 -2.5 125t79.5 47q29 0 51.5 -11.5t34 -25t28 -25t33.5 -11.5q47 0 32 74h33q24 -75 1.5 -123.5t-79.5 -48.5q-34 0 -59 18.5t-44.5 36.5t-42.5 18q-25 0 -33 -20.5t-1 -53.5h-31zM31 263q0 125 74 199.5t197 74.5q112 0 189.5 -70.5t77.5 -200.5
q0 -131 -70.5 -205t-196.5 -74q-123 0 -197 71.5t-74 204.5zM447 264q0 73 -38 115.5t-93 42.5q-61 0 -96.5 -41.5t-35.5 -116.5q0 -86 37 -128.5t94 -42.5q56 0 94 43t38 128z" />
    <glyph glyph-name="Odieresis.small" horiz-adv-x="599" 
d="M152 655v120h113v-120h-113zM334 655v120h113v-120h-113zM31 263q0 125 74 199.5t197 74.5q112 0 189.5 -70.5t77.5 -200.5q0 -131 -70.5 -205t-196.5 -74q-123 0 -197 71.5t-74 204.5zM447 264q0 73 -38 115.5t-93 42.5q-61 0 -96.5 -41.5t-35.5 -116.5q0 -86 37 -128.5
t94 -42.5q56 0 94 43t38 128z" />
    <glyph glyph-name="Omacron.small" horiz-adv-x="599" 
d="M151 773h296v-88h-296v88zM31 263q0 125 74 199.5t197 74.5q112 0 189.5 -70.5t77.5 -200.5q0 -131 -70.5 -205t-196.5 -74q-123 0 -197 71.5t-74 204.5zM447 264q0 73 -38 115.5t-93 42.5q-61 0 -96.5 -41.5t-35.5 -116.5q0 -86 37 -128.5t94 -42.5q56 0 94 43t38 128z
" />
    <glyph glyph-name="Obreve.small" horiz-adv-x="599" 
d="M299 617q-83 0 -120.5 53t-31.5 133h46q14 -89 106 -89q55 0 77.5 25.5t29.5 63.5h45q6 -80 -31.5 -133t-120.5 -53zM31 263q0 125 74 199.5t197 74.5q112 0 189.5 -70.5t77.5 -200.5q0 -131 -70.5 -205t-196.5 -74q-123 0 -197 71.5t-74 204.5zM447 264q0 73 -38 115.5
t-93 42.5q-61 0 -96.5 -41.5t-35.5 -116.5q0 -86 37 -128.5t94 -42.5q56 0 94 43t38 128z" />
    <glyph glyph-name="Ohungarumlaut.small" horiz-adv-x="599" 
d="M153 629l89 199l91 -37l-114 -194zM338 629l98 194l87 -43l-118 -183zM31 263q0 125 74 199.5t197 74.5q112 0 189.5 -70.5t77.5 -200.5q0 -131 -70.5 -205t-196.5 -74q-123 0 -197 71.5t-74 204.5zM447 264q0 73 -38 115.5t-93 42.5q-61 0 -96.5 -41.5t-35.5 -116.5
q0 -86 37 -128.5t94 -42.5q56 0 94 43t38 128z" />
    <glyph glyph-name="Oslash.small" horiz-adv-x="599" 
d="M31 263q0 125 74 199.5t197 74.5q94 0 165 -50l36 41h69l-67 -76q64 -74 64 -186q0 -131 -70.5 -205t-196.5 -74q-98 0 -164 45l-39 -44h-72l70 79q-66 72 -66 196zM184 264q0 -47 13 -84l192 218q-32 24 -73 24q-61 0 -96.5 -41.5t-35.5 -116.5zM447 264q0 54 -23 95
l-199 -227q35 -39 90 -39q56 0 94 43t38 128z" />
    <glyph glyph-name="Oslashacute.small" horiz-adv-x="599" 
d="M224 638l135 192l84 -76l-167 -159zM31 263q0 125 74 199.5t197 74.5q94 0 165 -50l36 41h69l-67 -76q64 -74 64 -186q0 -131 -70.5 -205t-196.5 -74q-98 0 -164 45l-39 -44h-72l70 79q-66 72 -66 196zM184 264q0 -47 13 -84l192 218q-32 24 -73 24q-61 0 -96.5 -41.5
t-35.5 -116.5zM447 264q0 54 -23 95l-199 -227q35 -39 90 -39q56 0 94 43t38 128z" />
    <glyph glyph-name="OE.small" horiz-adv-x="806" 
d="M31 263q0 124 72 199t192 75q97 0 156 -48v38h314v-92h-219v-117h179v-91h-179v-135h230v-91h-325v36q-58 -50 -158 -50q-118 0 -190 71.5t-72 204.5zM429 265q0 75 -32.5 115.5t-86.5 40.5q-62 0 -94 -41.5t-32 -116.5q0 -85 33 -127.5t89 -42.5q55 0 89 42.5t34 129.5z
" />
    <glyph glyph-name="Racute.small" horiz-adv-x="542" 
d="M164 638l135 192l84 -76l-167 -159zM526 34l3 -21q-27 -20 -83 -20q-60 0 -82 30.5t-24 102.5q-2 44 -18 62.5t-56 18.5h-60v-207h-142v528h232q202 0 202 -139q0 -105 -113 -132q49 -7 72 -36.5t25 -86.5q4 -47 10 -54q4 -25 11.5 -34.5t22.5 -11.5zM267 432h-61v-141
h60q94 0 94 73q0 68 -93 68z" />
    <glyph glyph-name="Rcaron.small" horiz-adv-x="542" 
d="M86 784l44 37l129 -118l130 118l44 -37l-136 -180h-75zM526 34l3 -21q-27 -20 -83 -20q-60 0 -82 30.5t-24 102.5q-2 44 -18 62.5t-56 18.5h-60v-207h-142v528h232q202 0 202 -139q0 -105 -113 -132q49 -7 72 -36.5t25 -86.5q4 -47 10 -54q4 -25 11.5 -34.5t22.5 -11.5z
M267 432h-61v-141h60q94 0 94 73q0 68 -93 68z" />
    <glyph glyph-name="Rcommaaccent.small" horiz-adv-x="542" 
d="M526 34l3 -21q-27 -20 -83 -20q-60 0 -82 30.5t-24 102.5q-2 44 -18 62.5t-56 18.5h-60v-207h-142v528h232q202 0 202 -139q0 -105 -113 -132q49 -7 72 -36.5t25 -86.5q4 -47 10 -54q4 -25 11.5 -34.5t22.5 -11.5zM267 432h-61v-141h60q94 0 94 73q0 68 -93 68zM194 -227
l37 171h112l-81 -184z" />
    <glyph glyph-name="germandbls.small" horiz-adv-x="979" 
d="M220 72q41 0 63.5 14.5t22.5 41.5q0 13 -5.5 23.5t-12 17.5t-21.5 14t-24.5 10.5t-32 10.5t-32.5 10q-66 22 -100 54.5t-34 102.5q0 71 55.5 118.5t150.5 47.5q101 0 153.5 -45.5t45.5 -125.5h-71q-6 36 -34 58t-67 22q-83 0 -83 -59q0 -9 2.5 -17t9.5 -14t12 -10.5
t18 -9.5t19.5 -7t24.5 -8t25 -8q36 -10 59 -20t48.5 -27.5t37.5 -45.5t12 -66q0 -77 -59.5 -122t-156.5 -45q-108 0 -161 47.5t-53 132.5h61q15 -95 127 -95zM710 72q41 0 63.5 14.5t22.5 41.5q0 13 -5.5 23.5t-12 17.5t-21.5 14t-24.5 10.5t-32 10.5t-32.5 10
q-66 22 -100 54.5t-34 102.5q0 71 55.5 118.5t150.5 47.5q101 0 153.5 -45.5t45.5 -125.5h-71q-6 36 -34 58t-67 22q-83 0 -83 -59q0 -9 2.5 -17t9.5 -14t12 -10.5t18 -9.5t19.5 -7t24.5 -8t25 -8q36 -10 59 -20t48.5 -27.5t37.5 -45.5t12 -66q0 -77 -59.5 -122t-156.5 -45
q-108 0 -161 47.5t-53 132.5h61q15 -95 127 -95z" />
    <glyph glyph-name="Sacute.small" horiz-adv-x="489" 
d="M158 638l135 192l84 -76l-167 -159zM220 72q41 0 63.5 14.5t22.5 41.5q0 13 -5.5 23.5t-12 17.5t-21.5 14t-24.5 10.5t-32 10.5t-32.5 10q-66 22 -100 54.5t-34 102.5q0 71 55.5 118.5t150.5 47.5q101 0 153.5 -45.5t45.5 -125.5h-71q-6 36 -34 58t-67 22q-83 0 -83 -59
q0 -9 2.5 -17t9.5 -14t12 -10.5t18 -9.5t19.5 -7t24.5 -8t25 -8q36 -10 59 -20t48.5 -27.5t37.5 -45.5t12 -66q0 -77 -59.5 -122t-156.5 -45q-108 0 -161 47.5t-53 132.5h61q15 -95 127 -95z" />
    <glyph glyph-name="Scircumflex.small" horiz-adv-x="489" 
d="M70 636l136 178h75l136 -178l-43 -40l-131 118l-131 -118zM220 72q41 0 63.5 14.5t22.5 41.5q0 13 -5.5 23.5t-12 17.5t-21.5 14t-24.5 10.5t-32 10.5t-32.5 10q-66 22 -100 54.5t-34 102.5q0 71 55.5 118.5t150.5 47.5q101 0 153.5 -45.5t45.5 -125.5h-71q-6 36 -34 58
t-67 22q-83 0 -83 -59q0 -9 2.5 -17t9.5 -14t12 -10.5t18 -9.5t19.5 -7t24.5 -8t25 -8q36 -10 59 -20t48.5 -27.5t37.5 -45.5t12 -66q0 -77 -59.5 -122t-156.5 -45q-108 0 -161 47.5t-53 132.5h61q15 -95 127 -95z" />
    <glyph glyph-name="Scaron.small" horiz-adv-x="489" 
d="M69 784l44 37l129 -118l130 118l44 -37l-136 -180h-75zM220 72q41 0 63.5 14.5t22.5 41.5q0 13 -5.5 23.5t-12 17.5t-21.5 14t-24.5 10.5t-32 10.5t-32.5 10q-66 22 -100 54.5t-34 102.5q0 71 55.5 118.5t150.5 47.5q101 0 153.5 -45.5t45.5 -125.5h-71q-6 36 -34 58
t-67 22q-83 0 -83 -59q0 -9 2.5 -17t9.5 -14t12 -10.5t18 -9.5t19.5 -7t24.5 -8t25 -8q36 -10 59 -20t48.5 -27.5t37.5 -45.5t12 -66q0 -77 -59.5 -122t-156.5 -45q-108 0 -161 47.5t-53 132.5h61q15 -95 127 -95z" />
    <glyph glyph-name="Scedilla.small" horiz-adv-x="489" 
d="M183 -116h28q-1 -38 33 -38q14 0 23 9.5t9 26.5q0 44 -52 36l-20 13l16 57q-95 6 -141.5 53t-46.5 126h61q15 -95 127 -95q41 0 63.5 14.5t22.5 41.5q0 13 -5.5 23.5t-12 17.5t-21.5 14t-24.5 10.5t-32 10.5t-32.5 10q-66 22 -100 54.5t-34 102.5q0 71 55.5 118.5
t150.5 47.5q101 0 153.5 -45.5t45.5 -125.5h-71q-6 36 -34 58t-67 22q-83 0 -83 -59q0 -9 2.5 -17t9.5 -14t12 -10.5t18 -9.5t19.5 -7t24.5 -8t25 -8q36 -10 59 -20t48.5 -27.5t37.5 -45.5t12 -66q0 -73 -55.5 -118t-147.5 -49l-1 -28q42 5 69 -15t27 -62t-25 -65t-64 -23
q-48 0 -68 25t-14 65z" />
    <glyph glyph-name="Scommaaccent.small" horiz-adv-x="489" 
d="M220 72q41 0 63.5 14.5t22.5 41.5q0 13 -5.5 23.5t-12 17.5t-21.5 14t-24.5 10.5t-32 10.5t-32.5 10q-66 22 -100 54.5t-34 102.5q0 71 55.5 118.5t150.5 47.5q101 0 153.5 -45.5t45.5 -125.5h-71q-6 36 -34 58t-67 22q-83 0 -83 -59q0 -9 2.5 -17t9.5 -14t12 -10.5
t18 -9.5t19.5 -7t24.5 -8t25 -8q36 -10 59 -20t48.5 -27.5t37.5 -45.5t12 -66q0 -77 -59.5 -122t-156.5 -45q-108 0 -161 47.5t-53 132.5h61q15 -95 127 -95zM172 -227l37 171h112l-81 -184z" />
    <glyph glyph-name="Tcaron.small" horiz-adv-x="501" 
d="M77 784l44 37l129 -118l130 118l44 -37l-136 -180h-75zM6 527h489v-99h-174v-428h-141v428h-174v99z" />
    <glyph glyph-name="Tcommaaccent.small" horiz-adv-x="501" 
d="M6 527h489v-99h-174v-428h-141v428h-174v99zM162 -227l37 171h112l-81 -184z" />
    <glyph glyph-name="Tcedilla.small" horiz-adv-x="501" 
d="M175 -116h28q-1 -38 33 -38q14 0 23 9.5t9 26.5q0 44 -52 36l-20 13l19 69h-35v428h-174v99h489v-99h-174v-428h-69l-2 -41q42 5 69 -15t27 -62t-25 -65t-64 -23q-48 0 -68 25t-14 65z" />
    <glyph glyph-name="Tbar.small" horiz-adv-x="501" 
d="M93 274h87v154h-174v99h489v-99h-174v-154h87v-57h-87v-217h-141v217h-87v57z" />
    <glyph glyph-name="Ugrave.small" horiz-adv-x="571" 
d="M170 754l84 76l135 -192l-52 -43zM59 237v291h154v-271q0 -89 22.5 -126t79.5 -37q55 0 76 34.5t21 122.5v277h107v-284q0 -257 -219 -257q-72 0 -121 18t-74.5 53.5t-35.5 77.5t-10 101z" />
    <glyph glyph-name="Uacute.small" horiz-adv-x="571" 
d="M234 638l135 192l84 -76l-167 -159zM59 237v291h154v-271q0 -89 22.5 -126t79.5 -37q55 0 76 34.5t21 122.5v277h107v-284q0 -257 -219 -257q-72 0 -121 18t-74.5 53.5t-35.5 77.5t-10 101z" />
    <glyph glyph-name="Ucircumflex.small" horiz-adv-x="571" 
d="M134 636l136 178h75l136 -178l-43 -40l-131 118l-131 -118zM59 237v291h154v-271q0 -89 22.5 -126t79.5 -37q55 0 76 34.5t21 122.5v277h107v-284q0 -257 -219 -257q-72 0 -121 18t-74.5 53.5t-35.5 77.5t-10 101z" />
    <glyph glyph-name="Utilde.small" horiz-adv-x="571" 
d="M157 626q-25 78 -2.5 125t79.5 47q29 0 51.5 -11.5t34 -25t28 -25t33.5 -11.5q47 0 32 74h33q24 -75 1.5 -123.5t-79.5 -48.5q-34 0 -59 18.5t-44.5 36.5t-42.5 18q-25 0 -33 -20.5t-1 -53.5h-31zM59 237v291h154v-271q0 -89 22.5 -126t79.5 -37q55 0 76 34.5t21 122.5
v277h107v-284q0 -257 -219 -257q-72 0 -121 18t-74.5 53.5t-35.5 77.5t-10 101z" />
    <glyph glyph-name="Udieresis.small" horiz-adv-x="571" 
d="M162 655v120h113v-120h-113zM344 655v120h113v-120h-113zM59 237v291h154v-271q0 -89 22.5 -126t79.5 -37q55 0 76 34.5t21 122.5v277h107v-284q0 -257 -219 -257q-72 0 -121 18t-74.5 53.5t-35.5 77.5t-10 101z" />
    <glyph glyph-name="Umacron.small" horiz-adv-x="571" 
d="M146 773h296v-88h-296v88zM59 237v291h154v-271q0 -89 22.5 -126t79.5 -37q55 0 76 34.5t21 122.5v277h107v-284q0 -257 -219 -257q-72 0 -121 18t-74.5 53.5t-35.5 77.5t-10 101z" />
    <glyph glyph-name="Ubreve.small" horiz-adv-x="571" 
d="M309 617q-83 0 -120.5 53t-31.5 133h46q14 -89 106 -89q55 0 77.5 25.5t29.5 63.5h45q6 -80 -31.5 -133t-120.5 -53zM59 237v291h154v-271q0 -89 22.5 -126t79.5 -37q55 0 76 34.5t21 122.5v277h107v-284q0 -257 -219 -257q-72 0 -121 18t-74.5 53.5t-35.5 77.5t-10 101z
" />
    <glyph glyph-name="Uring.small" horiz-adv-x="571" 
d="M184 738q0 50 35 83.5t89 33.5q57 0 91.5 -33.5t34.5 -83.5q0 -51 -34.5 -84.5t-91.5 -33.5q-55 0 -89.5 34t-34.5 84zM359 727q0 22 -14.5 37.5t-35.5 15.5q-22 0 -36.5 -15t-14.5 -38q0 -22 14.5 -37t36.5 -15q21 0 35.5 15t14.5 37zM59 237v291h154v-271
q0 -89 22.5 -126t79.5 -37q55 0 76 34.5t21 122.5v277h107v-284q0 -257 -219 -257q-72 0 -121 18t-74.5 53.5t-35.5 77.5t-10 101z" />
    <glyph glyph-name="Uhungarumlaut.small" horiz-adv-x="571" 
d="M154 629l89 199l91 -37l-114 -194zM339 629l98 194l87 -43l-118 -183zM59 237v291h154v-271q0 -89 22.5 -126t79.5 -37q55 0 76 34.5t21 122.5v277h107v-284q0 -257 -219 -257q-72 0 -121 18t-74.5 53.5t-35.5 77.5t-10 101z" />
    <glyph glyph-name="Uogonek.small" horiz-adv-x="571" 
d="M59 237v291h154v-271q0 -89 22.5 -126t79.5 -37q55 0 76 34.5t21 122.5v277h107v-284q0 -130 -56 -194q-55 -90 -55 -167q0 -38 32 -38q13 0 20.5 12t7.5 28h31q2 -46 -18.5 -74.5t-69.5 -28.5q-94 0 -94 88q0 62 67 129q-36 -12 -84 -12q-72 0 -121 18t-74.5 53.5
t-35.5 77.5t-10 101z" />
    <glyph glyph-name="Wgrave.small" horiz-adv-x="845" 
d="M287 754l84 76l135 -192l-52 -43zM6 528h168l109 -371l120 369h100l116 -363l108 365h112l-165 -528h-138l-110 300l-110 -300h-141z" />
    <glyph glyph-name="Wacute.small" horiz-adv-x="845" 
d="M412 638l135 192l84 -76l-167 -159zM6 528h168l109 -371l120 369h100l116 -363l108 365h112l-165 -528h-138l-110 300l-110 -300h-141z" />
    <glyph glyph-name="Wcircumflex.small" horiz-adv-x="845" 
d="M283 636l136 178h75l136 -178l-43 -40l-131 118l-131 -118zM6 528h168l109 -371l120 369h100l116 -363l108 365h112l-165 -528h-138l-110 300l-110 -300h-141z" />
    <glyph glyph-name="Wdieresis.small" horiz-adv-x="845" 
d="M309 655v120h113v-120h-113zM491 655v120h113v-120h-113zM6 528h168l109 -371l120 369h100l116 -363l108 365h112l-165 -528h-138l-110 300l-110 -300h-141z" />
    <glyph glyph-name="Ygrave.small" horiz-adv-x="517" 
d="M137 754l84 76l135 -192l-52 -43zM519 528l-179 -318v-210h-143v205l-192 323h165l123 -215l117 215h109z" />
    <glyph glyph-name="Yacute.small" horiz-adv-x="517" 
d="M237 638l135 192l84 -76l-167 -159zM519 528l-179 -318v-210h-143v205l-192 323h165l123 -215l117 215h109z" />
    <glyph glyph-name="Ycircumflex.small" horiz-adv-x="517" 
d="M111 636l136 178h75l136 -178l-43 -40l-131 118l-131 -118zM519 528l-179 -318v-210h-143v205l-192 323h165l123 -215l117 215h109z" />
    <glyph glyph-name="Ydieresis.small" horiz-adv-x="517" 
d="M142 655v120h113v-120h-113zM324 655v120h113v-120h-113zM519 528l-179 -318v-210h-143v205l-192 323h165l123 -215l117 215h109z" />
    <glyph glyph-name="Zacute.small" horiz-adv-x="495" 
d="M170 638l135 192l84 -76l-167 -159zM32 87l260 348h-248v92h415v-86l-263 -348h266v-92h-430v86z" />
    <glyph glyph-name="Zcaron.small" horiz-adv-x="495" 
d="M91 784l44 37l129 -118l130 118l44 -37l-136 -180h-75zM32 87l260 348h-248v92h415v-86l-263 -348h266v-92h-430v86z" />
    <glyph glyph-name="Zdotaccent.small" horiz-adv-x="495" 
d="M189 653v122h145v-122h-145zM32 87l260 348h-248v92h415v-86l-263 -348h266v-92h-430v86z" />
    <glyph glyph-name="Schwa.small" horiz-adv-x="557" 
d="M530 273q0 -123 -72 -204.5t-187 -81.5q-110 0 -163.5 54.5t-53.5 138.5q0 60 8 90h316q-1 77 -39.5 122.5t-118.5 45.5q-59 0 -93.5 -29t-40.5 -74h-47q0 88 59.5 145t162.5 57q126 0 197.5 -70.5t71.5 -193.5zM178 175q0 -82 82 -82q45 0 77 31.5t39 89.5l-196 -4
q0 -2 -1 -15t-1 -20z" />
    <glyph glyph-name="Eng.small" horiz-adv-x="595" 
d="M390 -250q-150 0 -150 155h64q3 -64 62 -64q67 0 67 103v65l-253 332v-341h-111v528h133l231 -309v309h112v-573q0 -205 -155 -205z" />
    <glyph glyph-name="Eth.small" horiz-adv-x="577" 
d="M5 293h59v235h185q150 0 227.5 -69.5t77.5 -190.5q0 -141 -84.5 -204.5t-218.5 -63.5h-187v235h-59v58zM289 235h-83v-140h51q72 0 108 45t36 128q0 164 -147 164h-48v-139h83v-58z" />
    <glyph glyph-name="Thorn.small" horiz-adv-x="523" 
d="M203 0h-143v528h143v-87h92q95 0 152.5 -47.5t57.5 -130.5q0 -88 -57.5 -133t-156.5 -45h-88v-85zM261 343h-58v-162h60q46 0 73 20t27 61q0 40 -27.5 60.5t-74.5 20.5z" />
    <glyph glyph-name="grave.cap" horiz-adv-x="500" 
d="M125 805l79 96l163 -136l-36 -35z" />
    <glyph glyph-name="acute.cap" horiz-adv-x="500" 
d="M125 765l163 136l79 -96l-206 -75z" />
    <glyph glyph-name="circumflex.cap" horiz-adv-x="500" 
d="M77 769l139 128h67l141 -128l-33 -41l-141 74l-141 -74z" />
    <glyph glyph-name="caron.cap" horiz-adv-x="500" 
d="M77 859l32 41l141 -73l142 73l32 -41l-140 -128h-67z" />
    <glyph glyph-name="caronSlovak" horiz-adv-x="500" 
d="M190 500l19 210h115l-56 -210h-78z" />
    <glyph glyph-name="tilde.cap" horiz-adv-x="500" 
d="M332 832q45 0 34 65h32q24 -68 1.5 -112.5t-80.5 -44.5q-34 0 -59 16t-45.5 32t-42.5 16q-47 0 -34 -64h-32q-23 70 -0.5 113t80.5 43q35 0 60.5 -16t45 -32t40.5 -16z" />
    <glyph glyph-name="dieresis.cap" horiz-adv-x="500" 
d="M103 747v121h113v-121h-113zM285 747v121h113v-121h-113z" />
    <glyph glyph-name="macron.cap" horiz-adv-x="500" 
d="M102 862h296v-88h-296v88z" />
    <glyph glyph-name="breve.cap" horiz-adv-x="500" 
d="M97 898h45q6 -30 29.5 -48.5t79.5 -18.5q94 0 108 67h45q6 -69 -32.5 -114.5t-120.5 -45.5q-83 0 -121.5 45.5t-32.5 114.5z" />
    <glyph glyph-name="ring.cap" horiz-adv-x="500" 
d="M126 828q0 49 35 82.5t88 33.5q55 0 89.5 -33t34.5 -83q0 -49 -34.5 -82.5t-89.5 -33.5q-54 0 -88.5 33.5t-34.5 82.5zM298 818q0 22 -14 36.5t-34 14.5q-22 0 -35.5 -14.5t-13.5 -36.5q0 -21 14 -35.5t35 -14.5q20 0 34 14.5t14 35.5z" />
    <glyph glyph-name="hungarumlaut.cap" horiz-adv-x="500" 
d="M56 765l143 147l61 -64l-155 -130zM241 765l144 147l60 -64l-155 -130z" />
    <glyph glyph-name="dotaccent.cap" horiz-adv-x="500" 
d="M178 746v123h145v-123h-145z" />
    <glyph glyph-name="commaaccent.alt" horiz-adv-x="500" 
d="M153 563l76 182l69 -13l-36 -169h-109z" />
    <glyph glyph-name="hyphen.cap" horiz-adv-x="382" 
d="M60 461h262v-110h-262v110z" />
    <glyph glyph-name="exclamdown.cap" horiz-adv-x="303" 
d="M228 631q0 -32 -21 -50.5t-58 -18.5q-34 0 -54 19t-20 50q0 33 20 52.5t54 19.5q37 0 58 -19.5t21 -52.5zM93 490h117l23 -490h-163z" />
    <glyph glyph-name="exclam.small" horiz-adv-x="293" 
d="M202 195h-110l-15 333h140zM74 59q0 31 20.5 50t54.5 19q31 0 50.5 -19t19.5 -50q0 -33 -19.5 -52.5t-50.5 -19.5q-34 0 -54.5 19.5t-20.5 52.5z" />
    <glyph glyph-name="exclamdown.small" horiz-adv-x="436" 
d="M219 469q0 -31 -20.5 -50t-54.5 -19q-31 0 -50.5 19t-19.5 50q0 33 19.5 52.5t50.5 19.5q34 0 54.5 -19.5t20.5 -52.5zM91 333h110l15 -333h-140z" />
    <glyph glyph-name="questiondown.cap" horiz-adv-x="515" 
d="M381 627q0 -32 -21 -50.5t-58 -18.5q-34 0 -54.5 18.5t-20.5 50.5q0 33 20.5 52.5t54.5 19.5q37 0 58 -19.5t21 -52.5zM263 398l10 88h75l10 -135q-164 0 -164 -134q0 -50 27 -78.5t78 -28.5q47 0 75.5 27t34.5 73h64q6 -116 -53.5 -169.5t-155.5 -53.5q-94 0 -154 51
t-60 148q0 58 20 100t54 64t67.5 33t71.5 15z" />
    <glyph glyph-name="question.small" horiz-adv-x="437" 
d="M226 190h-82l-7 103q118 6 118 88q0 34 -18.5 53.5t-53.5 19.5q-69 0 -78 -75h-62q-5 78 44.5 118t127.5 40q79 0 125.5 -36t46.5 -104q0 -38 -14.5 -66t-39.5 -42.5t-49.5 -21.5t-52.5 -9zM117 57q0 30 20.5 48.5t53.5 18.5q32 0 51.5 -18.5t19.5 -48.5q0 -32 -19.5 -51
t-51.5 -19q-34 0 -54 19t-20 51z" />
    <glyph glyph-name="questiondown.small" horiz-adv-x="436" 
d="M320 467q0 -30 -20.5 -48.5t-53.5 -18.5q-32 0 -51.5 18.5t-19.5 48.5q0 32 19.5 51t51.5 19q34 0 54 -19t20 -51zM211 334h82l7 -103q-118 -6 -118 -88q0 -34 18.5 -53.5t53.5 -19.5q69 0 78 75h62q5 -78 -44.5 -118t-127.5 -40q-79 0 -125.5 36t-46.5 104q0 38 14.5 66
t39.5 42.5t49.5 21.5t52.5 9z" />
    <glyph glyph-name="guilsinglleft.cap" horiz-adv-x="244" 
d="M273 529l-118 -180l118 -180h-127l-109 169v22l109 169h127z" />
    <glyph glyph-name="guilsinglright.cap" horiz-adv-x="244" 
d="M273 338l-109 -169h-127l118 180l-118 180h127l109 -169v-22z" />
    <glyph glyph-name="guillemotleft.cap" horiz-adv-x="539" 
d="M273 529l-118 -180l118 -180h-127l-109 169v22l109 169h127zM502 529l-118 -180l118 -180h-127l-109 169v22l109 169h127z" />
    <glyph glyph-name="guillemotright.cap" horiz-adv-x="539" 
d="M502 338l-109 -169h-127l118 180l-118 180h127l109 -169v-22zM273 338l-109 -169h-127l118 180l-118 180h127l109 -169v-22z" />
    <glyph glyph-name="endash.cap" horiz-adv-x="598" 
d="M30 453h538v-110h-538v110z" />
    <glyph glyph-name="emdash.cap" horiz-adv-x="1000" 
d="M30 423h940v-110h-940v110z" />
    <glyph glyph-name="periodcentered.cap" horiz-adv-x="253" 
d="M50 369q0 31 21.5 53.5t56.5 22.5q33 0 54 -22.5t21 -53.5q0 -34 -20 -56t-54 -22q-36 0 -57.5 22t-21.5 56z" />
    <glyph glyph-name="parenleft.cap" horiz-adv-x="363" 
d="M207 320q0 -236 136 -411l-70 -62q-88 68 -155.5 191t-67.5 281q0 159 68 287t155 195l70 -62q-136 -175 -136 -419z" />
    <glyph glyph-name="parenright.cap" horiz-adv-x="363" 
d="M156 328q0 236 -136 411l70 62q88 -68 155.5 -191t67.5 -281q0 -159 -68 -287t-155 -195l-70 62q136 175 136 419z" />
    <glyph glyph-name="parenleft.small" horiz-adv-x="318" 
d="M190 259q0 -218 108 -352l-62 -54q-77 59 -131.5 164.5t-54.5 240.5t55 241.5t131 164.5l62 -54q-108 -136 -108 -351z" />
    <glyph glyph-name="parenright.small" horiz-adv-x="318" 
d="M128 257q0 218 -108 352l62 54q77 -59 131.5 -164.5t54.5 -240.5t-55 -241.5t-131 -164.5l-62 54q108 136 108 351z" />
    <glyph glyph-name="bracketleft.cap" horiz-adv-x="343" 
d="M324 -48v-73h-239v939h239v-73h-99v-793h99z" />
    <glyph glyph-name="bracketright.cap" horiz-adv-x="343" 
d="M258 818v-939h-239v73h99v793h-99v73h239z" />
    <glyph glyph-name="bracketleft.small" horiz-adv-x="343" 
d="M324 -60v-73h-239v784h239v-73h-99v-638h99z" />
    <glyph glyph-name="bracketright.small" horiz-adv-x="343" 
d="M258 651v-784h-239v73h99v638h-99v73h239z" />
    <glyph glyph-name="braceleft.cap" horiz-adv-x="374" 
d="M269 202q0 -51 -5 -119t-5 -111q0 -41 16 -56.5t49 -15.5h23v-66h-69q-70 0 -116.5 32t-46.5 99q0 28 5 107.5t5 129.5q0 32 -15.5 54.5t-31.5 29.5l-16 6v57q3 1 7 2.5t15 8.5t19 16t15 26t7 37q0 50 -5 129.5t-5 107.5q0 67 46.5 99t116.5 32h69v-67h-23
q-33 0 -49 -15.5t-16 -56.5q0 -43 5 -110.5t5 -118.5q0 -90 -97 -119q97 -29 97 -118z" />
    <glyph glyph-name="braceright.cap" horiz-adv-x="374" 
d="M105 439q0 51 5 119t5 111q0 41 -16 56.5t-49 15.5h-23v66h69q70 0 116.5 -32t46.5 -99q0 -28 -5 -107.5t-5 -129.5q0 -32 15.5 -54.5t31.5 -28.5l16 -7v-57q-3 -1 -7 -2.5t-15 -8.5t-19 -16t-15 -26t-7 -37q0 -50 5 -129.5t5 -107.5q0 -67 -46.5 -99t-116.5 -32h-69v67
h23q33 0 49 15.5t16 56.5q0 43 -5 110.5t-5 118.5q0 90 97 119q-97 29 -97 118z" />
    <glyph glyph-name="braceleft.small" horiz-adv-x="359" 
d="M262 143q0 -21 -2 -63t-2 -69q0 -40 13 -53.5t39 -13.5h24v-67h-65q-148 0 -148 126q0 29 2 71t2 69q0 32 -15.5 54.5t-31.5 28.5l-16 7v58q3 1 7 2.5t15 8.5t19 16t15 26t7 37q0 28 -2 69.5t-2 70.5q0 126 148 126h65v-67h-24q-26 0 -39 -13.5t-13 -52.5q0 -27 2 -68.5
t2 -64.5q0 -89 -97 -119q97 -30 97 -119z" />
    <glyph glyph-name="braceright.small" horiz-adv-x="359" 
d="M97 143q0 89 97 119q-97 30 -97 119q0 23 2 64.5t2 68.5q0 39 -13 52.5t-39 13.5h-24v67h65q148 0 148 -126q0 -29 -2 -70.5t-2 -69.5q0 -32 16 -54.5t32 -28.5l15 -7v-58q-3 -1 -7 -2.5t-15 -8.5t-19 -16t-15 -26t-7 -37q0 -27 2 -69t2 -71q0 -126 -148 -126h-65v67h24
q26 0 39 13.5t13 53.5q0 27 -2 69t-2 63z" />
    <glyph glyph-name="at.cap" horiz-adv-x="870" 
d="M689 88l52 -66q-42 -40 -115.5 -73.5t-178.5 -33.5q-206 0 -309 107.5t-103 289.5q0 83 28 160t79.5 139t134.5 99t185 37q172 0 272.5 -95.5t100.5 -248.5q0 -60 -15.5 -108.5t-40 -79t-57 -51.5t-64 -29.5t-62.5 -8.5q-88 0 -99 75q-46 -74 -126 -74q-64 0 -101 42
t-37 123q0 98 53 171.5t145 73.5q76 0 98 -64l16 53h87l-23 -133l-8 -47q-8 -47 -9 -51q-8 -53 -2 -72t29 -19q45 0 82.5 49t37.5 150q0 122 -72 190t-207 68q-82 0 -146.5 -30.5t-102.5 -81t-57.5 -111t-19.5 -126.5q0 -150 83 -231t240 -81q138 0 232 88zM499 368
q0 33 -14 54t-42 21q-46 0 -69 -45.5t-23 -99.5q0 -76 53 -76q43 0 69 43.5t26 102.5z" />
    <glyph glyph-name="at.small" horiz-adv-x="776" 
d="M531 252q-7 -40 -7 -54q1 -35 28 -35q37 0 69 37t32 115q0 101 -62 159t-179 58q-134 0 -208 -85t-74 -203q0 -125 70.5 -191t206.5 -66q113 0 201 70l40 -61q-33 -32 -96 -59t-153 -27q-181 0 -270 90.5t-89 243.5q0 71 24 135.5t69.5 115.5t118 81t162.5 30
q156 0 241 -78.5t85 -207.5q0 -62 -20.5 -109t-53 -72.5t-67 -38t-68.5 -12.5q-76 0 -86 64q-41 -62 -109 -62q-59 0 -89.5 36t-30.5 103q0 81 45 141t124 60q66 0 86 -51l14 44h76zM447 289q0 62 -48 62q-37 0 -56 -37.5t-19 -81.5q0 -61 45 -61q32 0 55 35t23 83z" />
    <glyph glyph-name="zeroslash" horiz-adv-x="607" 
d="M304 -13q-124 0 -198 87t-74 261q0 172 73 260t199 88q124 0 198 -86.5t74 -259.5t-73.5 -261.5t-198.5 -88.5zM182 336q0 -83 17 -136l201 334q-34 37 -83 37q-135 0 -135 -235zM317 101q62 0 99.5 59t37.5 178q0 86 -22 141l-203 -339q32 -39 88 -39z" />
    <glyph glyph-name="zeroslash.tab" 
d="M301 -13q-124 0 -198 87t-74 261q0 172 73 260t199 88q124 0 198 -86.5t74 -259.5t-73.5 -261.5t-198.5 -88.5zM179 336q0 -83 17 -136l201 334q-34 37 -83 37q-135 0 -135 -235zM314 101q62 0 99.5 59t37.5 178q0 86 -22 141l-203 -339q32 -39 88 -39z" />
    <glyph glyph-name="zero.tab" 
d="M301 -13q-124 0 -198 87t-74 261q0 172 73 260t199 88q124 0 198 -86.5t74 -259.5t-73.5 -261.5t-198.5 -88.5zM314 108q61 0 95 57.5t34 172.5q0 116 -35 171t-94 55q-128 0 -128 -228t128 -228z" />
    <glyph glyph-name="one.tab" 
d="M90 1v95h162v443l-167 -40l-22 69l253 112h84v-584h146v-95h-456z" />
    <glyph glyph-name="two.tab" 
d="M540 1h-475v70l77 66.5t75.5 66t58 57t52.5 62.5t28 57t13 65q0 52 -26 84.5t-76 32.5q-68 0 -99 -50t-17 -124h-81q-18 48 -9.5 99.5t33 95t78 71.5t125.5 28q109 0 169 -60t60 -160q0 -54 -19 -100.5t-61.5 -92t-78.5 -75.5t-102 -80h275v-113z" />
    <glyph glyph-name="three.tab" 
d="M540 189q0 -94 -66.5 -148t-178.5 -54q-75 0 -129 22t-85.5 75.5t-25.5 134.5h76q4 -53 39 -82.5t90 -29.5q57 0 89.5 27t32.5 76q0 94 -137 94h-54v81h46q131 0 131 89q0 44 -27.5 68.5t-78.5 24.5q-54 0 -84 -29t-34 -77h-71q-7 107 59 164.5t167 57.5q98 0 160 -47
t62 -134q0 -118 -133 -156q152 -31 152 -157z" />
    <glyph glyph-name="four.tab" 
d="M581 168h-106v-168h-145v168h-303v95l307 412h141v-397h106v-110zM144 278h186v249z" />
    <glyph glyph-name="five.tab" 
d="M542 235q0 -116 -63 -182t-175 -66q-51 0 -94 12t-78.5 37t-53.5 69.5t-13 103.5h74q5 -49 39 -75.5t90 -26.5q57 0 90.5 33t33.5 90q0 56 -33.5 85t-88.5 29q-80 0 -118 -56l-72 28l17 357h404v-113h-285l-12 -169q54 52 136 52q95 0 148.5 -54.5t53.5 -153.5z" />
    <glyph glyph-name="six.tab" 
d="M325 683q117 0 172 -58t48 -157h-76q-5 42 -33 70.5t-86 28.5q-156 0 -156 -231q0 -22 1 -39q14 55 58 88t114 33q82 0 133.5 -52.5t51.5 -150.5q0 -110 -64 -169t-165 -59q-139 0 -205.5 90.5t-66.5 249.5q0 153 70.5 254.5t203.5 101.5zM320 320q-48 0 -75 -28.5
t-27 -78.5q0 -48 25.5 -77.5t73.5 -29.5t74.5 30.5t26.5 77.5q0 50 -26 78t-72 28z" />
    <glyph glyph-name="seven.tab" 
d="M309 0h-155q13 132 86.5 281.5t185.5 278.5h-278v-105h-90v218h512v-79q-105 -140 -177.5 -308t-83.5 -286z" />
    <glyph glyph-name="eight.tab" 
d="M302 -13q-126 0 -190 51t-64 144q0 134 138 171q-118 33 -118 154q0 81 58 128.5t175 47.5t176 -47.5t59 -128.5q0 -121 -118 -154q138 -37 138 -171q0 -92 -64 -143.5t-190 -51.5zM302 394q92 0 92 90q0 38 -23.5 62t-68.5 24t-68.5 -24t-23.5 -62q0 -90 92 -90z
M302 100q46 0 75 27.5t29 76.5q0 51 -27.5 77t-76.5 26q-47 0 -75.5 -27t-28.5 -76q0 -51 28 -77.5t76 -26.5z" />
    <glyph glyph-name="nine.tab" 
d="M281 -13q-117 0 -172 58t-48 157h76q5 -42 33 -70.5t86 -28.5q156 0 156 231q0 22 -1 39q-14 -55 -58 -88t-114 -33q-82 0 -133.5 52.5t-51.5 150.5q0 110 64 169t165 59q139 0 205.5 -90.5t66.5 -249.5q0 -153 -70.5 -254.5t-203.5 -101.5zM286 350q48 0 75 28.5
t27 78.5q0 48 -25.5 77.5t-73.5 29.5t-74.5 -30.5t-26.5 -77.5q0 -50 26 -78t72 -28z" />
    <glyph glyph-name="zeroslash.small" horiz-adv-x="523" 
d="M263 -11q-110 0 -174.5 68t-64.5 205q0 136 64.5 205.5t174.5 69.5q109 0 172.5 -69t63.5 -206q0 -136 -63 -204.5t-173 -68.5zM176 263q0 -57 10 -90l142 238q-22 18 -53 18q-49 0 -74 -38.5t-25 -127.5zM275 96q99 0 99 167q0 58 -12 94l-145 -241q23 -20 58 -20z" />
    <glyph glyph-name="zero.small" horiz-adv-x="523" 
d="M263 -11q-110 0 -174.5 68t-64.5 205q0 136 64.5 205.5t174.5 69.5q109 0 172.5 -69t63.5 -206q0 -136 -63 -204.5t-173 -68.5zM275 96q99 0 99 167q0 166 -99 166q-49 0 -74 -38.5t-25 -127.5q0 -91 25.5 -129t73.5 -38z" />
    <glyph glyph-name="one.small" horiz-adv-x="371" 
d="M28 417l196 111h81v-528h-143v395l-112 -38z" />
    <glyph glyph-name="two.small" horiz-adv-x="523" 
d="M58 297q-9 31 -9.5 63.5t14.5 64.5t38.5 56.5t64.5 40t91 15.5q94 0 146.5 -49.5t52.5 -130.5q0 -40 -14.5 -75t-45 -67t-61 -55.5t-77.5 -55.5h208v-103h-410v58q12 9 42.5 33t42 33.5t37 30.5t36 32t29 29.5t26.5 31.5t18 29.5t13.5 32.5t3.5 32q0 38 -19 61.5
t-58 23.5q-51 0 -75.5 -37t-16.5 -94h-77z" />
    <glyph glyph-name="three.small" horiz-adv-x="523" 
d="M62 357q-6 86 53 133t143 47q85 0 139.5 -37.5t54.5 -106.5q0 -95 -110 -123q126 -27 126 -123q0 -75 -57.5 -117.5t-154.5 -42.5q-100 0 -158.5 45t-51.5 142h71q4 -38 32.5 -59t72.5 -21q43 0 68.5 18.5t25.5 52.5q0 65 -108 65h-42v73h34q105 0 105 67q0 62 -83 62
q-41 0 -65.5 -20.5t-29.5 -54.5h-65z" />
    <glyph glyph-name="four.small" horiz-adv-x="523" 
d="M279 0v125h-260v84l263 319h137v-305h83v-98h-83v-125h-140zM132 223h147v179z" />
    <glyph glyph-name="five.small" horiz-adv-x="523" 
d="M440 425h-239l-10 -116q43 37 108 37q82 0 127.5 -42.5t45.5 -120.5q0 -91 -54 -143.5t-152 -52.5q-44 0 -80.5 9t-68 29t-47.5 56t-12 86h71q12 -73 102 -73q44 0 70 23t26 62q0 40 -26.5 60t-69.5 20q-59 0 -92 -41l-69 25l17 284h353v-102z" />
    <glyph glyph-name="six.small" horiz-adv-x="523" 
d="M279 537q100 0 149 -47t42 -128h-72q-4 30 -27.5 50t-67.5 20q-125 0 -125 -169v-27q13 41 48.5 66t92.5 25q71 0 114 -41t43 -117q0 -87 -56 -134.5t-143 -47.5q-121 0 -179 72t-58 196q0 119 62.5 200.5t176.5 81.5zM273 241q-34 0 -53.5 -20.5t-19.5 -55.5
q0 -33 18 -52.5t53 -19.5q37 0 55.5 21t18.5 53q0 74 -72 74z" />
    <glyph glyph-name="seven.small" horiz-adv-x="474" 
d="M46 527h399v-70q-99 -131 -141.5 -238t-55.5 -219h-150q11 123 60 223t149 202h-261v102z" />
    <glyph glyph-name="eight.small" horiz-adv-x="523" 
d="M483 141q0 -71 -54 -112.5t-167 -41.5t-167 41.5t-54 112.5q0 51 30 86t85 49q-98 25 -98 119q0 64 50 103t153 39t154 -39t51 -103q0 -93 -98 -119q55 -14 85 -49t30 -86zM262 312q66 0 66 62q0 27 -16.5 44t-49.5 17t-50 -17t-17 -44q0 -62 67 -62zM262 87
q36 0 56 20.5t20 53.5q0 73 -76 73q-37 0 -56.5 -19.5t-19.5 -53.5t19 -54t57 -20z" />
    <glyph glyph-name="nine.small" horiz-adv-x="523" 
d="M244 -13q-100 0 -149 46.5t-42 127.5h72q5 -30 28 -50t67 -20q124 0 124 169v26q-13 -41 -48.5 -65.5t-92.5 -24.5q-70 0 -113 41.5t-43 117.5q0 87 56 134.5t143 47.5q121 0 178.5 -72.5t57.5 -196.5q0 -119 -62 -200t-176 -81zM249 283q35 0 54.5 20t19.5 55
q0 33 -18 52.5t-53 19.5q-37 0 -56 -21t-19 -53q0 -73 72 -73z" />
    <glyph glyph-name="zeroslash.small_tab" horiz-adv-x="523" 
d="M263 -11q-110 0 -174.5 68t-64.5 205q0 136 64.5 205.5t174.5 69.5q109 0 172.5 -69t63.5 -206q0 -136 -63 -204.5t-173 -68.5zM176 263q0 -57 10 -90l142 238q-22 18 -53 18q-49 0 -74 -38.5t-25 -127.5zM275 96q99 0 99 167q0 58 -12 94l-145 -241q23 -20 58 -20z" />
    <glyph glyph-name="zero.small_tab" horiz-adv-x="523" 
d="M263 -11q-110 0 -174.5 68t-64.5 205q0 136 64.5 205.5t174.5 69.5q109 0 172.5 -69t63.5 -206q0 -136 -63 -204.5t-173 -68.5zM275 96q99 0 99 167q0 166 -99 166q-49 0 -74 -38.5t-25 -127.5q0 -91 25.5 -129t73.5 -38z" />
    <glyph glyph-name="one.small_tab" horiz-adv-x="523" 
d="M72 1v87h140v314l-137 -31l-13 64l212 93h81v-440h119v-87h-402z" />
    <glyph glyph-name="two.small_tab" horiz-adv-x="523" 
d="M58 297q-9 31 -9.5 63.5t14.5 64.5t38.5 56.5t64.5 40t91 15.5q94 0 146.5 -49.5t52.5 -130.5q0 -40 -14.5 -75t-45 -67t-61 -55.5t-77.5 -55.5h208v-103h-410v58q12 9 42.5 33t42 33.5t37 30.5t36 32t29 29.5t26.5 31.5t18 29.5t13.5 32.5t3.5 32q0 38 -19 61.5
t-58 23.5q-51 0 -75.5 -37t-16.5 -94h-77z" />
    <glyph glyph-name="three.small_tab" horiz-adv-x="523" 
d="M62 357q-6 86 53 133t143 47q85 0 139.5 -37.5t54.5 -106.5q0 -95 -110 -123q126 -27 126 -123q0 -75 -57.5 -117.5t-154.5 -42.5q-100 0 -158.5 45t-51.5 142h71q4 -38 32.5 -59t72.5 -21q43 0 68.5 18.5t25.5 52.5q0 65 -108 65h-42v73h34q105 0 105 67q0 62 -83 62
q-41 0 -65.5 -20.5t-29.5 -54.5h-65z" />
    <glyph glyph-name="four.small_tab" horiz-adv-x="523" 
d="M279 0v125h-260v84l263 319h137v-305h83v-98h-83v-125h-140zM132 223h147v179z" />
    <glyph glyph-name="five.small_tab" horiz-adv-x="523" 
d="M440 425h-239l-10 -116q43 37 108 37q82 0 127.5 -42.5t45.5 -120.5q0 -91 -54 -143.5t-152 -52.5q-44 0 -80.5 9t-68 29t-47.5 56t-12 86h71q12 -73 102 -73q44 0 70 23t26 62q0 40 -26.5 60t-69.5 20q-59 0 -92 -41l-69 25l17 284h353v-102z" />
    <glyph glyph-name="six.small_tab" horiz-adv-x="523" 
d="M279 537q100 0 149 -47t42 -128h-72q-4 30 -27.5 50t-67.5 20q-125 0 -125 -169v-27q13 41 48.5 66t92.5 25q71 0 114 -41t43 -117q0 -87 -56 -134.5t-143 -47.5q-121 0 -179 72t-58 196q0 119 62.5 200.5t176.5 81.5zM273 241q-34 0 -53.5 -20.5t-19.5 -55.5
q0 -33 18 -52.5t53 -19.5q37 0 55.5 21t18.5 53q0 74 -72 74z" />
    <glyph glyph-name="seven.small_tab" horiz-adv-x="523" 
d="M310 0h-149q10 124 54.5 226t133.5 199h-207v-83h-82v185h425v-70q-93 -129 -130 -235t-45 -222z" />
    <glyph glyph-name="eight.small_tab" horiz-adv-x="523" 
d="M483 141q0 -71 -54 -112.5t-167 -41.5t-167 41.5t-54 112.5q0 51 30 86t85 49q-98 25 -98 119q0 64 50 103t153 39t154 -39t51 -103q0 -93 -98 -119q55 -14 85 -49t30 -86zM262 312q66 0 66 62q0 27 -16.5 44t-49.5 17t-50 -17t-17 -44q0 -62 67 -62zM262 87
q36 0 56 20.5t20 53.5q0 73 -76 73q-37 0 -56.5 -19.5t-19.5 -53.5t19 -54t57 -20z" />
    <glyph glyph-name="nine.small_tab" horiz-adv-x="523" 
d="M244 -13q-100 0 -149 46.5t-42 127.5h72q5 -30 28 -50t67 -20q124 0 124 169v26q-13 -41 -48.5 -65.5t-92.5 -24.5q-70 0 -113 41.5t-43 117.5q0 87 56 134.5t143 47.5q121 0 178.5 -72.5t57.5 -196.5q0 -119 -62 -200t-176 -81zM249 283q35 0 54.5 20t19.5 55
q0 33 -18 52.5t-53 19.5q-37 0 -56 -21t-19 -53q0 -73 72 -73z" />
    <glyph glyph-name="a.superior" horiz-adv-x="313" 
d="M17 474q0 39 27 64.5t86 25.5q32 0 53 -9v18q0 60 -57 60q-47 0 -59 -43h-29q0 47 30 78t91 31q57 0 87 -28.5t30 -80.5v-92q0 -40 9 -60q10 -14 17 -16l2 -13q-11 -11 -44 -11q-63 0 -74 44q-27 -46 -83 -46q-42 0 -64 22t-22 56zM112 485q0 -29 31 -29q40 0 40 63v2
q-10 5 -28 5q-43 0 -43 -41z" />
    <glyph glyph-name="b.superior" horiz-adv-x="359" 
d="M38 820l99 6v-179q24 52 83 52q51 0 84.5 -39t33.5 -111q0 -67 -33 -110t-85 -43q-70 0 -90 71l-9 -63h-83v416zM238 540q0 85 -51 85q-50 0 -50 -86q0 -32 13.5 -54.5t37.5 -22.5t37 21.5t13 56.5z" />
    <glyph glyph-name="c.superior" horiz-adv-x="300" 
d="M21 540q0 68 39.5 113.5t104.5 45.5q55 0 81 -24t28 -58q0 -16 -3 -28h-43q-5 40 -49 40q-28 0 -42.5 -24t-14.5 -61q0 -86 69 -86q53 0 62 49h29q0 -49 -30.5 -80t-86.5 -31q-59 0 -101.5 33.5t-42.5 110.5z" />
    <glyph glyph-name="d.superior" horiz-adv-x="359" 
d="M21 546q0 67 33 110t84 43q63 0 85 -59v180l99 6v-422h-78l-10 81q-6 -45 -27.5 -67t-67.5 -22q-51 0 -84.5 39t-33.5 111zM223 548q0 32 -13 54t-37 22q-25 0 -38 -21t-13 -55q0 -86 51 -86q50 0 50 86z" />
    <glyph glyph-name="e.superior" horiz-adv-x="309" 
d="M21 538q0 67 39.5 114t103.5 47q58 0 88 -30t30 -76q0 -38 -5 -55h-160q3 -82 75 -82q29 0 47.5 14.5t20.5 36.5h29q0 -48 -32.5 -79.5t-89.5 -31.5q-70 0 -108 37t-38 105zM169 633q-20 0 -34 -16t-17 -45l83 2q2 6 2 19q0 40 -34 40z" />
    <glyph glyph-name="f.superior" horiz-adv-x="207" 
d="M45 404v238h-40v34l40 9q-2 32 2 53q7 39 33.5 63.5t70.5 24.5q38 0 58.5 -17t21.5 -44q1 -11 -2 -29h-23q-2 28 -36 28q-40 0 -40 -39q0 -2 7 -39h73v-44h-68q1 -8 1 -28v-210h-98z" />
    <glyph glyph-name="g.superior" horiz-adv-x="328" 
d="M315 364q0 -108 -167 -108q-131 0 -131 72q0 18 13 33h26q-3 -5 -3 -13q0 -41 91 -41q77 0 77 35q0 24 -44 24h-55q-43 0 -70.5 17.5t-27.5 54.5q0 42 52 68q-53 27 -53 89q0 46 35.5 75t97.5 29q61 0 98 -37q7 37 41 37q38 0 40 -36q0 -13 -4 -23h-14q0 17 -15 17
q-20 0 -20 -35v-24q0 -49 -33 -79t-93 -30q-28 0 -52 6q-16 -8 -16 -21t12 -18t45 -5h47q123 0 123 -87zM191 589q0 20 -10 33t-28 13q-19 0 -29.5 -14t-10.5 -33q0 -46 40 -46q38 0 38 47z" />
    <glyph glyph-name="h.superior" horiz-adv-x="357" 
d="M322 404h-99v138q0 45 -8.5 62t-28.5 17q-48 0 -49 -113v-104h-99v416l99 6v-203q17 76 91 76q52 0 73 -28.5t21 -83.5v-183z" />
    <glyph glyph-name="j.superior" horiz-adv-x="184" 
d="M47 759v81h103v-81h-103zM-21 345h23q4 -26 26 -26q26 0 26 40q0 9 -3.5 45t-3.5 64v220l99 5v-295q0 -72 -21.5 -107t-73.5 -35q-72 0 -72 89z" />
    <glyph glyph-name="k.superior" horiz-adv-x="341" 
d="M38 820l99 6v-227l91 89h99l-100 -93l106 -191h-111l-65 126l-20 -19v-107h-99v416z" />
    <glyph glyph-name="l.superior" horiz-adv-x="174" 
d="M38 820l98 6v-422h-98v416z" />
    <glyph glyph-name="m.superior" horiz-adv-x="532" 
d="M317 404h-99v137q0 45 -8.5 62.5t-27.5 17.5q-46 0 -46 -126v-91h-99v284l84 5l11 -98v-1q11 105 94 105q46 0 67 -24t23 -70q18 94 94 94q51 0 69.5 -28t18.5 -84v-183h-99v137q0 45 -8.5 62.5t-28.5 17.5q-24 0 -34.5 -29.5t-10.5 -96.5v-91z" />
    <glyph glyph-name="o.superior" horiz-adv-x="340" 
d="M21 546q0 68 41.5 110.5t108.5 42.5q64 0 106.5 -40.5t42.5 -114.5q0 -69 -39 -108.5t-110 -39.5q-68 0 -109 38.5t-41 111.5zM222 547q0 79 -52 79q-24 0 -37.5 -21t-13.5 -57q0 -86 52 -86q51 0 51 85z" />
    <glyph glyph-name="p.superior" horiz-adv-x="358" 
d="M37 688l83 5l8 -72q18 78 91 78q52 0 85.5 -39t33.5 -111q0 -67 -33 -110t-85 -43q-61 0 -84 53v-187h-99v426zM237 538q0 88 -51 88q-50 0 -50 -89q0 -32 13 -53.5t38 -21.5t37.5 21t12.5 55z" />
    <glyph glyph-name="q.superior" horiz-adv-x="359" 
d="M21 546q0 67 33 110t84 43q69 0 90 -73v1l11 61l83 5v-431h-99v180q-21 -46 -84 -46q-51 0 -84.5 39t-33.5 111zM223 548q0 33 -13 55t-37 22q-25 0 -38 -21.5t-13 -54.5q0 -87 51 -87q50 0 50 86z" />
    <glyph glyph-name="r.superior" horiz-adv-x="274" 
d="M37 688l83 5l9 -87q13 93 75 93q31 0 46.5 -21t15.5 -49q0 -23 -6 -39h-40q2 4 0 7q-4 27 -30 27q-54 0 -54 -128v-92h-99v284z" />
    <glyph glyph-name="s.superior" horiz-adv-x="285" 
d="M25 496h35q6 -25 24 -39t44 -14q44 0 44 27q0 14 -10 20.5t-38 13.5q-47 13 -70 35t-23 61q0 43 33 71t89 28q55 0 83 -25.5t20 -70.5h-40q-8 42 -50 42q-38 0 -38 -28q0 -12 10.5 -18.5t44.5 -16.5q85 -24 85 -91q0 -42 -32.5 -68.5t-93.5 -26.5q-56 0 -86 26.5
t-31 73.5z" />
    <glyph glyph-name="t.superior" horiz-adv-x="231" 
d="M42 512v131h-39v35l39 8v61l99 8v-67h69v-45h-69v-145q0 -39 30 -39q24 0 24 24h22q0 -87 -77 -87q-48 0 -73 26.5t-25 89.5z" />
    <glyph glyph-name="u.superior" horiz-adv-x="356" 
d="M223 485v1q-17 -90 -95 -90q-52 0 -73 28.5t-21 83.5v179l99 6v-139q0 -45 8.5 -62t29.5 -17q49 0 49 125v87l99 6v-289h-91z" />
    <glyph glyph-name="v.superior" horiz-adv-x="299" 
d="M-1 688h109l52 -178l55 178h86l-101 -284h-100z" />
    <glyph glyph-name="w.superior" horiz-adv-x="447" 
d="M-1 688h109l48 -169l50 162h67l51 -161l44 168h80l-87 -284h-84l-53 150l-52 -150h-85z" />
    <glyph glyph-name="x.superior" horiz-adv-x="305" 
d="M185 404l-51 96l-50 -96h-82l88 142l-83 142h119l43 -81l46 81h79l-85 -133l94 -151h-118z" />
    <glyph glyph-name="y.superior" horiz-adv-x="308" 
d="M9 346h22q0 -28 32 -28q17 0 27.5 12.5t24.5 47.5l6 15l-124 295h113l57 -167l55 167h87l-141 -353q-33 -79 -90 -79q-79 0 -69 90z" />
    <glyph glyph-name="z.superior" horiz-adv-x="284" 
d="M22 454l130 161h-124v73h232v-63l-126 -154h128v-67h-240v50z" />
    <glyph glyph-name="ampersand.small" horiz-adv-x="650" 
d="M634 113q0 -60 -35 -92.5t-101 -32.5q-60 0 -111 35q-72 -35 -143 -35q-104 0 -159.5 40.5t-55.5 116.5q0 111 159 165q-24 51 -24 89q0 68 52 103t126 35q67 0 102 -31t35 -81q0 -49 -34.5 -77.5t-100.5 -47.5q11 -19 33.5 -56.5t25.5 -43.5q23 -41 37 -64q53 52 66 136
h52q0 -106 -83 -187q26 -33 64 -33q47 0 52 61h43zM297 412q0 -25 21 -65q83 25 83 73q0 23 -13 36.5t-36 13.5q-26 0 -40.5 -15.5t-14.5 -42.5zM273 158q-54 91 -59 101q-51 -30 -51 -88q0 -46 29.5 -73t76.5 -27q30 0 60 6q-29 35 -56 81z" />
    <glyph glyph-name="chevronleft" horiz-adv-x="577" 
d="M523 690l-310 -347l306 -343h-186l-306 343l309 347h187z" />
    <glyph glyph-name="chevronright" horiz-adv-x="577" 
d="M550 343l-306 -343h-186l306 343l-310 347h187z" />
    <glyph glyph-name="chevronup" horiz-adv-x="770" 
d="M720 287v-195l-337 347l-333 -343v194l333 343z" />
    <glyph glyph-name="chevrondown" horiz-adv-x="770" 
d="M720 437l-333 -343l-337 346v195l337 -347l333 343v-194z" />
    </font>
</defs>
</svg>
